<?xml version="1.0" encoding="us-ascii" standalone="no"?><svg xmlns="http://www.w3.org/2000/svg" xmlns:xlink="http://www.w3.org/1999/xlink" contentStyleType="text/css" height="653px" preserveAspectRatio="none" style="width:972px;height:653px;background:#FFFFFF;" version="1.1" viewBox="0 0 972 653" width="972px" zoomAndPan="magnify"><defs/><g><rect fill="none" height="188.8125" style="stroke:#000000;stroke-width:1.5;" width="696.5" x="117" y="365.8281"/><line style="stroke:#181818;stroke-width:0.5;stroke-dasharray:5.0,5.0;" x1="22" x2="22" y1="82.6094" y2="571.6406"/><line style="stroke:#181818;stroke-width:0.5;stroke-dasharray:5.0,5.0;" x1="183" x2="183" y1="82.6094" y2="571.6406"/><line style="stroke:#181818;stroke-width:0.5;stroke-dasharray:5.0,5.0;" x1="521.5" x2="521.5" y1="82.6094" y2="571.6406"/><line style="stroke:#181818;stroke-width:0.5;stroke-dasharray:5.0,5.0;" x1="762.5" x2="762.5" y1="82.6094" y2="571.6406"/><line style="stroke:#181818;stroke-width:0.5;stroke-dasharray:5.0,5.0;" x1="886.5" x2="886.5" y1="82.6094" y2="571.6406"/><text fill="#000000" font-family="sans-serif" font-size="14" lengthAdjust="spacing" textLength="29" x="5" y="79.5332">User</text><ellipse cx="22.5" cy="13.5" fill="#E2E2F0" rx="8" ry="8" style="stroke:#181818;stroke-width:0.5;"/><path d="M22.5,21.5 L22.5,48.5 M9.5,29.5 L35.5,29.5 M22.5,48.5 L9.5,63.5 M22.5,48.5 L35.5,63.5 " fill="none" style="stroke:#181818;stroke-width:0.5;"/><text fill="#000000" font-family="sans-serif" font-size="14" lengthAdjust="spacing" textLength="29" x="5" y="585.1738">User</text><ellipse cx="22.5" cy="596.75" fill="#E2E2F0" rx="8" ry="8" style="stroke:#181818;stroke-width:0.5;"/><path d="M22.5,604.75 L22.5,631.75 M9.5,612.75 L35.5,612.75 M22.5,631.75 L9.5,646.75 M22.5,631.75 L35.5,646.75 " fill="none" style="stroke:#181818;stroke-width:0.5;"/><rect fill="#E2E2F0" height="31.6094" rx="2.5" ry="2.5" style="stroke:#181818;stroke-width:0.5;" width="113" x="127" y="50"/><text fill="#000000" font-family="sans-serif" font-size="14" lengthAdjust="spacing" textLength="99" x="134" y="71.5332">React Frontend</text><rect fill="#E2E2F0" height="31.6094" rx="2.5" ry="2.5" style="stroke:#181818;stroke-width:0.5;" width="113" x="127" y="570.6406"/><text fill="#000000" font-family="sans-serif" font-size="14" lengthAdjust="spacing" textLength="99" x="134" y="592.1738">React Frontend</text><rect fill="#E2E2F0" height="31.6094" rx="2.5" ry="2.5" style="stroke:#181818;stroke-width:0.5;" width="116" x="463.5" y="50"/><text fill="#000000" font-family="sans-serif" font-size="14" lengthAdjust="spacing" textLength="102" x="470.5" y="71.5332">Ory Oathkeeper</text><rect fill="#E2E2F0" height="31.6094" rx="2.5" ry="2.5" style="stroke:#181818;stroke-width:0.5;" width="116" x="463.5" y="570.6406"/><text fill="#000000" font-family="sans-serif" font-size="14" lengthAdjust="spacing" textLength="102" x="470.5" y="592.1738">Ory Oathkeeper</text><rect fill="#E2E2F0" height="31.6094" rx="2.5" ry="2.5" style="stroke:#181818;stroke-width:0.5;" width="82" x="721.5" y="50"/><text fill="#000000" font-family="sans-serif" font-size="14" lengthAdjust="spacing" textLength="68" x="728.5" y="71.5332">Ory Kratos</text><rect fill="#E2E2F0" height="31.6094" rx="2.5" ry="2.5" style="stroke:#181818;stroke-width:0.5;" width="82" x="721.5" y="570.6406"/><text fill="#000000" font-family="sans-serif" font-size="14" lengthAdjust="spacing" textLength="68" x="728.5" y="592.1738">Ory Kratos</text><rect fill="#E2E2F0" height="31.6094" rx="2.5" ry="2.5" style="stroke:#181818;stroke-width:0.5;" width="147" x="813.5" y="50"/><text fill="#000000" font-family="sans-serif" font-size="14" lengthAdjust="spacing" textLength="133" x="820.5" y="71.5332">Spring Boot Backend</text><rect fill="#E2E2F0" height="31.6094" rx="2.5" ry="2.5" style="stroke:#181818;stroke-width:0.5;" width="147" x="813.5" y="570.6406"/><text fill="#000000" font-family="sans-serif" font-size="14" lengthAdjust="spacing" textLength="133" x="820.5" y="592.1738">Spring Boot Backend</text><rect fill="#EEEEEE" height="3" style="stroke:#EEEEEE;stroke-width:1.0;" width="965.5" x="0" y="113.7852"/><line style="stroke:#000000;stroke-width:1.0;" x1="0" x2="965.5" y1="113.7852" y2="113.7852"/><line style="stroke:#000000;stroke-width:1.0;" x1="0" x2="965.5" y1="116.7852" y2="116.7852"/><rect fill="#EEEEEE" height="24.3516" style="stroke:#000000;stroke-width:2.0;" width="161" x="402.25" y="102.6094"/><text fill="#000000" font-family="sans-serif" font-size="13" font-weight="bold" lengthAdjust="spacing" textLength="143" x="408.25" y="120.1045">Credential Submission</text><polygon fill="#181818" points="171.5,171.6641,181.5,175.6641,171.5,179.6641,175.5,175.6641" style="stroke:#181818;stroke-width:1.0;"/><line style="stroke:#181818;stroke-width:1.0;" x1="22.5" x2="177.5" y1="175.6641" y2="175.6641"/><text fill="#000000" font-family="sans-serif" font-size="13" lengthAdjust="spacing" textLength="137" x="29.5" y="154.4561">Enter email + password</text><text fill="#000000" font-family="sans-serif" font-size="13" lengthAdjust="spacing" textLength="93" x="29.5" y="170.8076">and submit form</text><polygon fill="#181818" points="509.5,300.125,519.5,304.125,509.5,308.125,513.5,304.125" style="stroke:#181818;stroke-width:1.0;"/><line style="stroke:#181818;stroke-width:1.0;" x1="183.5" x2="515.5" y1="304.125" y2="304.125"/><text fill="#000000" font-family="sans-serif" font-size="13" lengthAdjust="spacing" textLength="314" x="190.5" y="201.1592">POST auth.irboard.local/self-service/login?flow={flowId}</text><text fill="#000000" font-family="sans-serif" font-size="13" lengthAdjust="spacing" textLength="151" x="190.5" y="217.5107">+ Accept: application/json</text><text fill="#000000" font-family="sans-serif" font-size="13" lengthAdjust="spacing" textLength="158" x="190.5" y="233.8623">+ Origin: http://irboard.local</text><text fill="#000000" font-family="sans-serif" font-size="13" lengthAdjust="spacing" textLength="174" x="190.5" y="250.2139">{ method: password, identifier,</text><text fill="#000000" font-family="sans-serif" font-size="13" lengthAdjust="spacing" textLength="131" x="198.5" y="266.5654">password, csrf_token }</text><text fill="#000000" font-family="sans-serif" font-size="13" lengthAdjust="spacing" textLength="169" x="190.5" y="282.917">[rule: kratos-self-service-pass</text><text fill="#000000" font-family="sans-serif" font-size="13" lengthAdjust="spacing" textLength="163" x="190.5" y="299.2686">authenticator: noop &#8594; allow]</text><polygon fill="#181818" points="750.5,346.8281,760.5,350.8281,750.5,354.8281,754.5,350.8281" style="stroke:#181818;stroke-width:1.0;"/><line style="stroke:#181818;stroke-width:1.0;" x1="521.5" x2="756.5" y1="350.8281" y2="350.8281"/><text fill="#000000" font-family="sans-serif" font-size="13" lengthAdjust="spacing" textLength="215" x="528.5" y="329.6201">POST /self-service/login?flow={flowId}</text><text fill="#000000" font-family="sans-serif" font-size="13" lengthAdjust="spacing" textLength="162" x="528.5" y="345.9717">(passed through, noop auth)</text><path d="M117,365.8281 L178,365.8281 L178,374.1797 L168,384.1797 L117,384.1797 L117,365.8281 " fill="#EEEEEE" style="stroke:#000000;stroke-width:1.5;"/><rect fill="none" height="188.8125" style="stroke:#000000;stroke-width:1.5;" width="696.5" x="117" y="365.8281"/><text fill="#000000" font-family="sans-serif" font-size="13" font-weight="bold" lengthAdjust="spacing" textLength="16" x="132" y="380.3232">alt</text><text fill="#000000" font-family="sans-serif" font-size="11" font-weight="bold" lengthAdjust="spacing" textLength="100" x="193" y="379.2471">[Valid credentials]</text><polygon fill="#181818" points="532.5,451.5859,522.5,455.5859,532.5,459.5859,528.5,455.5859" style="stroke:#181818;stroke-width:1.0;"/><line style="stroke:#181818;stroke-width:1.0;stroke-dasharray:2.0,2.0;" x1="526.5" x2="761.5" y1="455.5859" y2="455.5859"/><text fill="#000000" font-family="sans-serif" font-size="13" lengthAdjust="spacing" textLength="44" x="538.5" y="401.6748">200 OK</text><text fill="#000000" font-family="sans-serif" font-size="13" lengthAdjust="spacing" textLength="136" x="538.5" y="418.0264">{ session: { active: true,</text><text fill="#000000" font-family="sans-serif" font-size="13" lengthAdjust="spacing" textLength="193" x="546.5" y="434.3779">identity: { id: oryId, traits: {...} } } }</text><text fill="#000000" font-family="sans-serif" font-size="13" lengthAdjust="spacing" textLength="217" x="538.5" y="450.7295">+ Set-Cookie: ory_kratos_session=...</text><polygon fill="#181818" points="194.5,514.6406,184.5,518.6406,194.5,522.6406,190.5,518.6406" style="stroke:#181818;stroke-width:1.0;"/><line style="stroke:#181818;stroke-width:1.0;stroke-dasharray:2.0,2.0;" x1="188.5" x2="520.5" y1="518.6406" y2="518.6406"/><text fill="#000000" font-family="sans-serif" font-size="13" lengthAdjust="spacing" textLength="44" x="200.5" y="481.0811">200 OK</text><text fill="#000000" font-family="sans-serif" font-size="13" lengthAdjust="spacing" textLength="168" x="200.5" y="497.4326">{ session: { active: true, ... } }</text><text fill="#000000" font-family="sans-serif" font-size="13" lengthAdjust="spacing" textLength="217" x="200.5" y="513.7842">+ Set-Cookie: ory_kratos_session=...</text><rect fill="#EEEEEE" height="3" style="stroke:#EEEEEE;stroke-width:1.0;" width="965.5" x="0" y="539.6406"/><line style="stroke:#000000;stroke-width:1.0;" x1="0" x2="965.5" y1="539.6406" y2="539.6406"/><line style="stroke:#000000;stroke-width:1.0;" x1="0" x2="965.5" y1="542.6406" y2="542.6406"/><!--SRC=[bPB1RjD048Rl-nIZda2DdOgZ9OD8bKfL3q44k90gcgutyPBDZZKxQHL5lV80F29FmgpJj0aS05koREy_-__pxQ0LOlYS79iEMRpr7KQ1iuyEhS0LKnGNcpF015VZKyc4jp11QLVETOvxoSlddz8RHg7Ko_Qlfv9fnpukOKGaC4AxEhYEniRKDLooQrmKZm6ccxkrJybJXBes9cU7ugt6Wmh66fV1hT47E8SEKteWRcOHOmCfrmaiYDV6g5fhNl9gxOV9z1FWHjhIynqXDsKWYs6ON5WKQdBlhHi6MlhuRX7eeTxbvtNpE8ldyDvQrqa5s7N1MnGDD_oMAEQr2NkjgQ0LwQhXy6JpMTp1sabBJVMSTW2-RtNX7Gzc4OuMREB5N4ZXWDf-vKrm5QnwciLnp2ANQDVQJDv90n5N48aw-Fdz1s3GvBVcg7jbiJ-K0uT_wFfLDd4DICkqMRQ3_VxPyxKn60I-OF0DsEUJImRqUl8fViV_vk829ZSPI7BzwLQm0nr2Vwyz2czSpsAFHhPvqIiquksrWX56Bqb_bcNv2FsTqK-T59T4A-zwvNoFQlvaKAkuZtGCuZ19Vuy3MluVHhsJJd8UMXrkymi0]--></g></svg>