<?xml version="1.0" encoding="us-ascii" standalone="no"?><svg xmlns="http://www.w3.org/2000/svg" xmlns:xlink="http://www.w3.org/1999/xlink" contentStyleType="text/css" height="898px" preserveAspectRatio="none" style="width:802px;height:898px;background:#FFFFFF;" version="1.1" viewBox="0 0 802 898" width="802px" zoomAndPan="magnify"><defs/><g><rect fill="none" height="699.5156" style="stroke:#000000;stroke-width:1.5;" width="772.5" x="13" y="99.6094"/><line style="stroke:#181818;stroke-width:0.5;stroke-dasharray:5.0,5.0;" x1="22" x2="22" y1="82.6094" y2="816.125"/><line style="stroke:#181818;stroke-width:0.5;stroke-dasharray:5.0,5.0;" x1="106" x2="106" y1="82.6094" y2="816.125"/><line style="stroke:#181818;stroke-width:0.5;stroke-dasharray:5.0,5.0;" x1="329.5" x2="329.5" y1="82.6094" y2="816.125"/><line style="stroke:#181818;stroke-width:0.5;stroke-dasharray:5.0,5.0;" x1="577.5" x2="577.5" y1="82.6094" y2="816.125"/><line style="stroke:#181818;stroke-width:0.5;stroke-dasharray:5.0,5.0;" x1="701.5" x2="701.5" y1="82.6094" y2="816.125"/><text fill="#000000" font-family="sans-serif" font-size="14" lengthAdjust="spacing" textLength="29" x="5" y="79.5332">User</text><ellipse cx="22.5" cy="13.5" fill="#E2E2F0" rx="8" ry="8" style="stroke:#181818;stroke-width:0.5;"/><path d="M22.5,21.5 L22.5,48.5 M9.5,29.5 L35.5,29.5 M22.5,48.5 L9.5,63.5 M22.5,48.5 L35.5,63.5 " fill="none" style="stroke:#181818;stroke-width:0.5;"/><text fill="#000000" font-family="sans-serif" font-size="14" lengthAdjust="spacing" textLength="29" x="5" y="829.6582">User</text><ellipse cx="22.5" cy="841.2344" fill="#E2E2F0" rx="8" ry="8" style="stroke:#181818;stroke-width:0.5;"/><path d="M22.5,849.2344 L22.5,876.2344 M9.5,857.2344 L35.5,857.2344 M22.5,876.2344 L9.5,891.2344 M22.5,876.2344 L35.5,891.2344 " fill="none" style="stroke:#181818;stroke-width:0.5;"/><rect fill="#E2E2F0" height="31.6094" rx="2.5" ry="2.5" style="stroke:#181818;stroke-width:0.5;" width="113" x="50" y="50"/><text fill="#000000" font-family="sans-serif" font-size="14" lengthAdjust="spacing" textLength="99" x="57" y="71.5332">React Frontend</text><rect fill="#E2E2F0" height="31.6094" rx="2.5" ry="2.5" style="stroke:#181818;stroke-width:0.5;" width="113" x="50" y="815.125"/><text fill="#000000" font-family="sans-serif" font-size="14" lengthAdjust="spacing" textLength="99" x="57" y="836.6582">React Frontend</text><rect fill="#E2E2F0" height="31.6094" rx="2.5" ry="2.5" style="stroke:#181818;stroke-width:0.5;" width="116" x="271.5" y="50"/><text fill="#000000" font-family="sans-serif" font-size="14" lengthAdjust="spacing" textLength="102" x="278.5" y="71.5332">Ory Oathkeeper</text><rect fill="#E2E2F0" height="31.6094" rx="2.5" ry="2.5" style="stroke:#181818;stroke-width:0.5;" width="116" x="271.5" y="815.125"/><text fill="#000000" font-family="sans-serif" font-size="14" lengthAdjust="spacing" textLength="102" x="278.5" y="836.6582">Ory Oathkeeper</text><rect fill="#E2E2F0" height="31.6094" rx="2.5" ry="2.5" style="stroke:#181818;stroke-width:0.5;" width="82" x="536.5" y="50"/><text fill="#000000" font-family="sans-serif" font-size="14" lengthAdjust="spacing" textLength="68" x="543.5" y="71.5332">Ory Kratos</text><rect fill="#E2E2F0" height="31.6094" rx="2.5" ry="2.5" style="stroke:#181818;stroke-width:0.5;" width="82" x="536.5" y="815.125"/><text fill="#000000" font-family="sans-serif" font-size="14" lengthAdjust="spacing" textLength="68" x="543.5" y="836.6582">Ory Kratos</text><rect fill="#E2E2F0" height="31.6094" rx="2.5" ry="2.5" style="stroke:#181818;stroke-width:0.5;" width="147" x="628.5" y="50"/><text fill="#000000" font-family="sans-serif" font-size="14" lengthAdjust="spacing" textLength="133" x="635.5" y="71.5332">Spring Boot Backend</text><rect fill="#E2E2F0" height="31.6094" rx="2.5" ry="2.5" style="stroke:#181818;stroke-width:0.5;" width="147" x="628.5" y="815.125"/><text fill="#000000" font-family="sans-serif" font-size="14" lengthAdjust="spacing" textLength="133" x="635.5" y="836.6582">Spring Boot Backend</text><path d="M13,99.6094 L74,99.6094 L74,107.9609 L64,117.9609 L13,117.9609 L13,99.6094 " fill="#EEEEEE" style="stroke:#000000;stroke-width:1.5;"/><rect fill="none" height="699.5156" style="stroke:#000000;stroke-width:1.5;" width="772.5" x="13" y="99.6094"/><text fill="#000000" font-family="sans-serif" font-size="13" font-weight="bold" lengthAdjust="spacing" textLength="16" x="28" y="114.1045">alt</text><text fill="#000000" font-family="sans-serif" font-size="11" font-weight="bold" lengthAdjust="spacing" textLength="100" x="89" y="113.0283">[Valid credentials]</text><rect fill="#EEEEEE" height="3" style="stroke:#EEEEEE;stroke-width:1.0;" width="795.5" x="0" y="139.1367"/><line style="stroke:#000000;stroke-width:1.0;" x1="0" x2="795.5" y1="139.1367" y2="139.1367"/><line style="stroke:#000000;stroke-width:1.0;" x1="0" x2="795.5" y1="142.1367" y2="142.1367"/><rect fill="#EEEEEE" height="24.3516" style="stroke:#000000;stroke-width:2.0;" width="246" x="274.75" y="127.9609"/><text fill="#000000" font-family="sans-serif" font-size="13" font-weight="bold" lengthAdjust="spacing" textLength="228" x="280.75" y="145.4561">Subsequent Authenticated Requests</text><polygon fill="#181818" points="317.5,229.7188,327.5,233.7188,317.5,237.7188,321.5,233.7188" style="stroke:#181818;stroke-width:1.0;"/><line style="stroke:#181818;stroke-width:1.0;" x1="106.5" x2="323.5" y1="233.7188" y2="233.7188"/><text fill="#000000" font-family="sans-serif" font-size="13" lengthAdjust="spacing" textLength="199" x="113.5" y="179.8076">GET api.irboard.local/v1/{resource}</text><text fill="#000000" font-family="sans-serif" font-size="13" lengthAdjust="spacing" textLength="173" x="113.5" y="196.1592">+ Cookie: ory_kratos_session</text><text fill="#000000" font-family="sans-serif" font-size="13" lengthAdjust="spacing" textLength="161" x="113.5" y="212.5107">[rule: api-backend-protected</text><text fill="#000000" font-family="sans-serif" font-size="13" lengthAdjust="spacing" textLength="177" x="113.5" y="228.8623">authenticator: cookie_session]</text><polygon fill="#181818" points="565.5,276.4219,575.5,280.4219,565.5,284.4219,569.5,280.4219" style="stroke:#181818;stroke-width:1.0;"/><line style="stroke:#181818;stroke-width:1.0;" x1="329.5" x2="571.5" y1="280.4219" y2="280.4219"/><text fill="#000000" font-family="sans-serif" font-size="13" lengthAdjust="spacing" textLength="134" x="336.5" y="259.2139">GET /sessions/whoami</text><text fill="#000000" font-family="sans-serif" font-size="13" lengthAdjust="spacing" textLength="173" x="336.5" y="275.5654">+ Cookie: ory_kratos_session</text><polygon fill="#181818" points="340.5,323.125,330.5,327.125,340.5,331.125,336.5,327.125" style="stroke:#181818;stroke-width:1.0;"/><line style="stroke:#181818;stroke-width:1.0;stroke-dasharray:2.0,2.0;" x1="334.5" x2="576.5" y1="327.125" y2="327.125"/><text fill="#000000" font-family="sans-serif" font-size="13" lengthAdjust="spacing" textLength="44" x="346.5" y="305.917">200 OK</text><text fill="#000000" font-family="sans-serif" font-size="13" lengthAdjust="spacing" textLength="199" x="346.5" y="322.2686">{ active: true, identity: { id: oryId } }</text><polygon fill="#181818" points="690,369.8281,700,373.8281,690,377.8281,694,373.8281" style="stroke:#181818;stroke-width:1.0;"/><line style="stroke:#181818;stroke-width:1.0;" x1="329.5" x2="696" y1="373.8281" y2="373.8281"/><text fill="#000000" font-family="sans-serif" font-size="13" lengthAdjust="spacing" textLength="108" x="336.5" y="352.6201">GET /v1/{resource}</text><text fill="#000000" font-family="sans-serif" font-size="13" lengthAdjust="spacing" textLength="94" x="336.5" y="368.9717">+ X-User: {oryId}</text><polygon fill="#181818" points="340.5,400.1797,330.5,404.1797,340.5,408.1797,336.5,404.1797" style="stroke:#181818;stroke-width:1.0;"/><line style="stroke:#181818;stroke-width:1.0;stroke-dasharray:2.0,2.0;" x1="334.5" x2="701" y1="404.1797" y2="404.1797"/><text fill="#000000" font-family="sans-serif" font-size="13" lengthAdjust="spacing" textLength="76" x="346.5" y="399.3232">200 OK { ... }</text><polygon fill="#181818" points="117.5,430.5313,107.5,434.5313,117.5,438.5313,113.5,434.5313" style="stroke:#181818;stroke-width:1.0;"/><line style="stroke:#181818;stroke-width:1.0;stroke-dasharray:2.0,2.0;" x1="111.5" x2="328.5" y1="434.5313" y2="434.5313"/><text fill="#000000" font-family="sans-serif" font-size="13" lengthAdjust="spacing" textLength="76" x="123.5" y="429.6748">200 OK { ... }</text><line style="stroke:#000000;stroke-width:1.0;stroke-dasharray:2.0,2.0;" x1="13" x2="785.5" y1="443.5313" y2="443.5313"/><text fill="#000000" font-family="sans-serif" font-size="11" font-weight="bold" lengthAdjust="spacing" textLength="108" x="18" y="454.9502">[Invalid credentials]</text><polygon fill="#181818" points="340.5,525.7734,330.5,529.7734,340.5,533.7734,336.5,529.7734" style="stroke:#181818;stroke-width:1.0;"/><line style="stroke:#181818;stroke-width:1.0;stroke-dasharray:2.0,2.0;" x1="334.5" x2="576.5" y1="529.7734" y2="529.7734"/><text fill="#000000" font-family="sans-serif" font-size="13" lengthAdjust="spacing" textLength="100" x="346.5" y="475.8623">400 Bad Request</text><text fill="#000000" font-family="sans-serif" font-size="13" lengthAdjust="spacing" textLength="98" x="346.5" y="492.2139">{ ui: { messages:</text><text fill="#000000" font-family="sans-serif" font-size="13" lengthAdjust="spacing" textLength="83" x="354.5" y="508.5654">[{ id: 4000006,</text><text fill="#000000" font-family="sans-serif" font-size="13" lengthAdjust="spacing" textLength="204" x="366.5" y="524.917">text: "credentials are invalid..." }] } }</text><polygon fill="#181818" points="117.5,572.4766,107.5,576.4766,117.5,580.4766,113.5,576.4766" style="stroke:#181818;stroke-width:1.0;"/><line style="stroke:#181818;stroke-width:1.0;stroke-dasharray:2.0,2.0;" x1="111.5" x2="328.5" y1="576.4766" y2="576.4766"/><text fill="#000000" font-family="sans-serif" font-size="13" lengthAdjust="spacing" textLength="100" x="123.5" y="555.2686">400 Bad Request</text><text fill="#000000" font-family="sans-serif" font-size="13" lengthAdjust="spacing" textLength="138" x="123.5" y="571.6201">{ ui: { messages: [...] } }</text><path d="M23,589.4766 L23,615.4766 L189,615.4766 L189,599.4766 L179,589.4766 L23,589.4766 " fill="#FEFFDD" style="stroke:#181818;stroke-width:0.5;"/><path d="M179,589.4766 L179,599.4766 L189,599.4766 L179,589.4766 " fill="#FEFFDD" style="stroke:#181818;stroke-width:0.5;"/><text fill="#000000" font-family="sans-serif" font-size="13" lengthAdjust="spacing" textLength="145" x="29" y="607.9717">alert("Invalid credentials")</text><line style="stroke:#000000;stroke-width:1.0;stroke-dasharray:2.0,2.0;" x1="13" x2="785.5" y1="621.8281" y2="621.8281"/><text fill="#000000" font-family="sans-serif" font-size="11" font-weight="bold" lengthAdjust="spacing" textLength="160" x="18" y="633.2471">[Account temporarily locked]</text><polygon fill="#181818" points="340.5,704.0703,330.5,708.0703,340.5,712.0703,336.5,708.0703" style="stroke:#181818;stroke-width:1.0;"/><line style="stroke:#181818;stroke-width:1.0;stroke-dasharray:2.0,2.0;" x1="334.5" x2="576.5" y1="708.0703" y2="708.0703"/><text fill="#000000" font-family="sans-serif" font-size="13" lengthAdjust="spacing" textLength="100" x="346.5" y="654.1592">400 Bad Request</text><text fill="#000000" font-family="sans-serif" font-size="13" lengthAdjust="spacing" textLength="98" x="346.5" y="670.5107">{ ui: { messages:</text><text fill="#000000" font-family="sans-serif" font-size="13" lengthAdjust="spacing" textLength="83" x="354.5" y="686.8623">[{ id: 4000010,</text><text fill="#000000" font-family="sans-serif" font-size="13" lengthAdjust="spacing" textLength="170" x="366.5" y="703.2139">text: "Account locked..." }] } }</text><polygon fill="#181818" points="117.5,750.7734,107.5,754.7734,117.5,758.7734,113.5,754.7734" style="stroke:#181818;stroke-width:1.0;"/><line style="stroke:#181818;stroke-width:1.0;stroke-dasharray:2.0,2.0;" x1="111.5" x2="328.5" y1="754.7734" y2="754.7734"/><text fill="#000000" font-family="sans-serif" font-size="13" lengthAdjust="spacing" textLength="100" x="123.5" y="733.5654">400 Bad Request</text><text fill="#000000" font-family="sans-serif" font-size="13" lengthAdjust="spacing" textLength="138" x="123.5" y="749.917">{ ui: { messages: [...] } }</text><path d="M23,767.7734 L23,793.7734 L189,793.7734 L189,777.7734 L179,767.7734 L23,767.7734 " fill="#FEFFDD" style="stroke:#181818;stroke-width:0.5;"/><path d="M179,767.7734 L179,777.7734 L189,777.7734 L179,767.7734 " fill="#FEFFDD" style="stroke:#181818;stroke-width:0.5;"/><text fill="#000000" font-family="sans-serif" font-size="13" lengthAdjust="spacing" textLength="145" x="29" y="786.2686">alert("Invalid credentials")</text><!--SRC=[nPD1Qzj048Nl-XM3JYsDPAUK7WGfn4Kk8GT3qfQ27S9uDSIBv5rrTkNM6F_tZbPMxSHESYbqJ_BgpPjldiQel6NuveYZ6jbhfMiq7k8RGkLXpDPuCaKCw62SFvPCU0qJz8kIg2OEaltFO-arexSkoBh7nvBRchLvW96r7aQeohxhA8yYh3nynqeNe9WACbvZvIAGSt41jytSqSz6Rk6oyOlshK9F1Toqjyux4KL1FCuX-NJ021byoRy2rZhLFBV8HLfPXTLWTJxOC3dRiABjpBo3pzQMcZAmlBul0_oz8-UqDJCpvQQIL-AIp3lkf6RhIGd3pE0UoN86AXZrnNS1wm18yBfiTcY3dT0DVYqiBlNBBC5jLvyydVJzS0YJwvdPW7nOlH83pmsTWGvv-dK66taEjbS5R65xWcsKzrn72Vr8sXqIar3V5Oly6GpfbQRfYHuY7-V7ieWgHt1bLYUNuBcHFuZ92FykGZjxezivbv8NFf3BPWPWsiqjOZaVpzehEPv- -mpYWrQ0JA0x1A6AONjtCgP-XDUxmrHyzYP6bWRiIZn2FLR4_aryOkZuxIwGIwLi8tllQLbRHjRL6cI3Ioh-SIxdmoUvz9sxRlyz3ldJHNy0]--></g></svg>