<?xml version="1.0" encoding="us-ascii" standalone="no"?><svg xmlns="http://www.w3.org/2000/svg" xmlns:xlink="http://www.w3.org/1999/xlink" contentStyleType="text/css" height="655px" preserveAspectRatio="none" style="width:757px;height:655px;background:#FFFFFF;" version="1.1" viewBox="0 0 757 655" width="757px" zoomAndPan="magnify"><defs/><g><rect fill="none" height="456.3281" style="stroke:#000000;stroke-width:1.5;" width="718.5" x="22" y="99.6094"/><line style="stroke:#181818;stroke-width:0.5;stroke-dasharray:5.0,5.0;" x1="22" x2="22" y1="82.6094" y2="572.9375"/><line style="stroke:#181818;stroke-width:0.5;stroke-dasharray:5.0,5.0;" x1="106" x2="106" y1="82.6094" y2="572.9375"/><line style="stroke:#181818;stroke-width:0.5;stroke-dasharray:5.0,5.0;" x1="315.5" x2="315.5" y1="82.6094" y2="572.9375"/><line style="stroke:#181818;stroke-width:0.5;stroke-dasharray:5.0,5.0;" x1="532.5" x2="532.5" y1="82.6094" y2="572.9375"/><line style="stroke:#181818;stroke-width:0.5;stroke-dasharray:5.0,5.0;" x1="656.5" x2="656.5" y1="82.6094" y2="572.9375"/><text fill="#000000" font-family="sans-serif" font-size="14" lengthAdjust="spacing" textLength="29" x="5" y="79.5332">User</text><ellipse cx="22.5" cy="13.5" fill="#E2E2F0" rx="8" ry="8" style="stroke:#181818;stroke-width:0.5;"/><path d="M22.5,21.5 L22.5,48.5 M9.5,29.5 L35.5,29.5 M22.5,48.5 L9.5,63.5 M22.5,48.5 L35.5,63.5 " fill="none" style="stroke:#181818;stroke-width:0.5;"/><text fill="#000000" font-family="sans-serif" font-size="14" lengthAdjust="spacing" textLength="29" x="5" y="586.4707">User</text><ellipse cx="22.5" cy="598.0469" fill="#E2E2F0" rx="8" ry="8" style="stroke:#181818;stroke-width:0.5;"/><path d="M22.5,606.0469 L22.5,633.0469 M9.5,614.0469 L35.5,614.0469 M22.5,633.0469 L9.5,648.0469 M22.5,633.0469 L35.5,648.0469 " fill="none" style="stroke:#181818;stroke-width:0.5;"/><rect fill="#E2E2F0" height="31.6094" rx="2.5" ry="2.5" style="stroke:#181818;stroke-width:0.5;" width="113" x="50" y="50"/><text fill="#000000" font-family="sans-serif" font-size="14" lengthAdjust="spacing" textLength="99" x="57" y="71.5332">React Frontend</text><rect fill="#E2E2F0" height="31.6094" rx="2.5" ry="2.5" style="stroke:#181818;stroke-width:0.5;" width="113" x="50" y="571.9375"/><text fill="#000000" font-family="sans-serif" font-size="14" lengthAdjust="spacing" textLength="99" x="57" y="593.4707">React Frontend</text><rect fill="#E2E2F0" height="31.6094" rx="2.5" ry="2.5" style="stroke:#181818;stroke-width:0.5;" width="116" x="257.5" y="50"/><text fill="#000000" font-family="sans-serif" font-size="14" lengthAdjust="spacing" textLength="102" x="264.5" y="71.5332">Ory Oathkeeper</text><rect fill="#E2E2F0" height="31.6094" rx="2.5" ry="2.5" style="stroke:#181818;stroke-width:0.5;" width="116" x="257.5" y="571.9375"/><text fill="#000000" font-family="sans-serif" font-size="14" lengthAdjust="spacing" textLength="102" x="264.5" y="593.4707">Ory Oathkeeper</text><rect fill="#E2E2F0" height="31.6094" rx="2.5" ry="2.5" style="stroke:#181818;stroke-width:0.5;" width="82" x="491.5" y="50"/><text fill="#000000" font-family="sans-serif" font-size="14" lengthAdjust="spacing" textLength="68" x="498.5" y="71.5332">Ory Kratos</text><rect fill="#E2E2F0" height="31.6094" rx="2.5" ry="2.5" style="stroke:#181818;stroke-width:0.5;" width="82" x="491.5" y="571.9375"/><text fill="#000000" font-family="sans-serif" font-size="14" lengthAdjust="spacing" textLength="68" x="498.5" y="593.4707">Ory Kratos</text><rect fill="#E2E2F0" height="31.6094" rx="2.5" ry="2.5" style="stroke:#181818;stroke-width:0.5;" width="147" x="583.5" y="50"/><text fill="#000000" font-family="sans-serif" font-size="14" lengthAdjust="spacing" textLength="133" x="590.5" y="71.5332">Spring Boot Backend</text><rect fill="#E2E2F0" height="31.6094" rx="2.5" ry="2.5" style="stroke:#181818;stroke-width:0.5;" width="147" x="583.5" y="571.9375"/><text fill="#000000" font-family="sans-serif" font-size="14" lengthAdjust="spacing" textLength="133" x="590.5" y="593.4707">Spring Boot Backend</text><path d="M22,99.6094 L83,99.6094 L83,107.9609 L73,117.9609 L22,117.9609 L22,99.6094 " fill="#EEEEEE" style="stroke:#000000;stroke-width:1.5;"/><rect fill="none" height="456.3281" style="stroke:#000000;stroke-width:1.5;" width="718.5" x="22" y="99.6094"/><text fill="#000000" font-family="sans-serif" font-size="13" font-weight="bold" lengthAdjust="spacing" textLength="16" x="37" y="114.1045">alt</text><text fill="#000000" font-family="sans-serif" font-size="11" font-weight="bold" lengthAdjust="spacing" textLength="100" x="98" y="113.0283">[Valid credentials]</text><rect fill="#EEEEEE" height="3" style="stroke:#EEEEEE;stroke-width:1.0;" width="750.5" x="0" y="139.1367"/><line style="stroke:#000000;stroke-width:1.0;" x1="0" x2="750.5" y1="139.1367" y2="139.1367"/><line style="stroke:#000000;stroke-width:1.0;" x1="0" x2="750.5" y1="142.1367" y2="142.1367"/><rect fill="#EEEEEE" height="24.3516" style="stroke:#000000;stroke-width:2.0;" width="215" x="267.75" y="127.9609"/><text fill="#000000" font-family="sans-serif" font-size="13" font-weight="bold" lengthAdjust="spacing" textLength="197" x="273.75" y="145.4561">Post-Login Session Verification</text><polygon fill="#181818" points="303.5,229.7188,313.5,233.7188,303.5,237.7188,307.5,233.7188" style="stroke:#181818;stroke-width:1.0;"/><line style="stroke:#181818;stroke-width:1.0;" x1="106.5" x2="309.5" y1="233.7188" y2="233.7188"/><text fill="#000000" font-family="sans-serif" font-size="13" lengthAdjust="spacing" textLength="185" x="113.5" y="179.8076">GET api.irboard.local/v1/whoami</text><text fill="#000000" font-family="sans-serif" font-size="13" lengthAdjust="spacing" textLength="173" x="113.5" y="196.1592">+ Cookie: ory_kratos_session</text><text fill="#000000" font-family="sans-serif" font-size="13" lengthAdjust="spacing" textLength="161" x="113.5" y="212.5107">[rule: api-backend-protected</text><text fill="#000000" font-family="sans-serif" font-size="13" lengthAdjust="spacing" textLength="177" x="113.5" y="228.8623">authenticator: cookie_session]</text><polygon fill="#181818" points="520.5,276.4219,530.5,280.4219,520.5,284.4219,524.5,280.4219" style="stroke:#181818;stroke-width:1.0;"/><line style="stroke:#181818;stroke-width:1.0;" x1="315.5" x2="526.5" y1="280.4219" y2="280.4219"/><text fill="#000000" font-family="sans-serif" font-size="13" lengthAdjust="spacing" textLength="134" x="322.5" y="259.2139">GET /sessions/whoami</text><text fill="#000000" font-family="sans-serif" font-size="13" lengthAdjust="spacing" textLength="173" x="322.5" y="275.5654">+ Cookie: ory_kratos_session</text><polygon fill="#181818" points="326.5,339.4766,316.5,343.4766,326.5,347.4766,322.5,343.4766" style="stroke:#181818;stroke-width:1.0;"/><line style="stroke:#181818;stroke-width:1.0;stroke-dasharray:2.0,2.0;" x1="320.5" x2="531.5" y1="343.4766" y2="343.4766"/><text fill="#000000" font-family="sans-serif" font-size="13" lengthAdjust="spacing" textLength="44" x="332.5" y="305.917">200 OK</text><text fill="#000000" font-family="sans-serif" font-size="13" lengthAdjust="spacing" textLength="93" x="332.5" y="322.2686">{ id, active: true,</text><text fill="#000000" font-family="sans-serif" font-size="13" lengthAdjust="spacing" textLength="185" x="340.5" y="338.6201">identity: { id: oryId, traits: {...} } }</text><polygon fill="#181818" points="645,402.5313,655,406.5313,645,410.5313,649,406.5313" style="stroke:#181818;stroke-width:1.0;"/><line style="stroke:#181818;stroke-width:1.0;" x1="315.5" x2="651" y1="406.5313" y2="406.5313"/><text fill="#000000" font-family="sans-serif" font-size="13" lengthAdjust="spacing" textLength="94" x="322.5" y="368.9717">GET /v1/whoami</text><text fill="#000000" font-family="sans-serif" font-size="13" lengthAdjust="spacing" textLength="94" x="322.5" y="385.3232">+ X-User: {oryId}</text><text fill="#000000" font-family="sans-serif" font-size="13" lengthAdjust="spacing" textLength="183" x="322.5" y="401.6748">(header mutator injects subject)</text><polygon fill="#181818" points="326.5,432.8828,316.5,436.8828,326.5,440.8828,322.5,436.8828" style="stroke:#181818;stroke-width:1.0;"/><line style="stroke:#181818;stroke-width:1.0;stroke-dasharray:2.0,2.0;" x1="320.5" x2="656" y1="436.8828" y2="436.8828"/><text fill="#000000" font-family="sans-serif" font-size="13" lengthAdjust="spacing" textLength="112" x="332.5" y="432.0264">200 OK { oryId, ... }</text><polygon fill="#181818" points="117.5,463.2344,107.5,467.2344,117.5,471.2344,113.5,467.2344" style="stroke:#181818;stroke-width:1.0;"/><line style="stroke:#181818;stroke-width:1.0;stroke-dasharray:2.0,2.0;" x1="111.5" x2="314.5" y1="467.2344" y2="467.2344"/><text fill="#000000" font-family="sans-serif" font-size="13" lengthAdjust="spacing" textLength="112" x="123.5" y="462.3779">200 OK { oryId, ... }</text><path d="M32,480.2344 L32,522.2344 L181,522.2344 L181,490.2344 L171,480.2344 L32,480.2344 " fill="#FEFFDD" style="stroke:#181818;stroke-width:0.5;"/><path d="M171,480.2344 L171,490.2344 L181,490.2344 L171,480.2344 " fill="#FEFFDD" style="stroke:#181818;stroke-width:0.5;"/><text fill="#000000" font-family="sans-serif" font-size="13" lengthAdjust="spacing" textLength="128" x="38" y="498.7295">isAuthenticated = true</text><text fill="#000000" font-family="sans-serif" font-size="13" lengthAdjust="spacing" textLength="69" x="38" y="515.0811">navigate("/")</text><rect fill="#EEEEEE" height="3" style="stroke:#EEEEEE;stroke-width:1.0;" width="750.5" x="0" y="540.9375"/><line style="stroke:#000000;stroke-width:1.0;" x1="0" x2="750.5" y1="540.9375" y2="540.9375"/><line style="stroke:#000000;stroke-width:1.0;" x1="0" x2="750.5" y1="543.9375" y2="543.9375"/><!--SRC=[ZP9HQzim4CVV_IcEFBMiTjez1ZnOXZDA2ndhLWRpA1TPIwvnJ-PqpWYZttrd9Q7DriBi5qd-tLy_duHEWy3Nw2NhK9GSTSWAeyyUdS9C0gldPWGOOLOT8tFPmXnrjVQ-yvAGf-c_w9MWXfYmtV0OkUc4U0dJ41IcwDQ7NQTLbc6hS8ijDU34DvwLi8qPs5EMy2b4pQ_3aXXkV8mK66wzq4zogCEaBBE4pYh8tpqpX0byhBu0TbIGB09AKxJ1OJlUN8n_hG8-KCrlu4C8Q_8J2BAzMoVjkxZRfURlqhVsoHBonSuuxoIeT-gRch7NrQ1g6a4cu5BGeVX7KdecOsgxhkorndim_fTBIjlNvt__vTlpSvXVrVmRg3a3ErRQM8XAxyzg1biSB7KxWG58wPV6gI1fjCMYA1x1tXUCfzN1zgXdt_BXFbbfYdgi-MJbiR6IXrw7PW3nlJKfGkmNm-0qHLlOA-ecjfSobnT4h6fMlKeddErO86oCJYJ5zq-dunieKpjgPjpGqbPEHkFHQNQuOSCLiiFD_W00]--></g></svg>