<?xml version="1.0" encoding="us-ascii" standalone="no"?><svg xmlns="http://www.w3.org/2000/svg" xmlns:xlink="http://www.w3.org/1999/xlink" contentStyleType="text/css" height="616px" preserveAspectRatio="none" style="width:739px;height:616px;background:#FFFFFF;" version="1.1" viewBox="0 0 739 616" width="739px" zoomAndPan="magnify"><defs/><g><text fill="#000000" font-family="sans-serif" font-size="14" font-weight="bold" lengthAdjust="spacing" textLength="76" x="327.75" y="29.5332">Login Flow</text><line style="stroke:#181818;stroke-width:0.5;stroke-dasharray:5.0,5.0;" x1="22" x2="22" y1="121.2188" y2="534.8438"/><line style="stroke:#181818;stroke-width:0.5;stroke-dasharray:5.0,5.0;" x1="106" x2="106" y1="121.2188" y2="534.8438"/><line style="stroke:#181818;stroke-width:0.5;stroke-dasharray:5.0,5.0;" x1="315.5" x2="315.5" y1="121.2188" y2="534.8438"/><line style="stroke:#181818;stroke-width:0.5;stroke-dasharray:5.0,5.0;" x1="529.5" x2="529.5" y1="121.2188" y2="534.8438"/><line style="stroke:#181818;stroke-width:0.5;stroke-dasharray:5.0,5.0;" x1="653.5" x2="653.5" y1="121.2188" y2="534.8438"/><text fill="#000000" font-family="sans-serif" font-size="14" lengthAdjust="spacing" textLength="29" x="5" y="118.1426">User</text><ellipse cx="22.5" cy="52.1094" fill="#E2E2F0" rx="8" ry="8" style="stroke:#181818;stroke-width:0.5;"/><path d="M22.5,60.1094 L22.5,87.1094 M9.5,68.1094 L35.5,68.1094 M22.5,87.1094 L9.5,102.1094 M22.5,87.1094 L35.5,102.1094 " fill="none" style="stroke:#181818;stroke-width:0.5;"/><text fill="#000000" font-family="sans-serif" font-size="14" lengthAdjust="spacing" textLength="29" x="5" y="548.377">User</text><ellipse cx="22.5" cy="559.9531" fill="#E2E2F0" rx="8" ry="8" style="stroke:#181818;stroke-width:0.5;"/><path d="M22.5,567.9531 L22.5,594.9531 M9.5,575.9531 L35.5,575.9531 M22.5,594.9531 L9.5,609.9531 M22.5,594.9531 L35.5,609.9531 " fill="none" style="stroke:#181818;stroke-width:0.5;"/><rect fill="#E2E2F0" height="31.6094" rx="2.5" ry="2.5" style="stroke:#181818;stroke-width:0.5;" width="113" x="50" y="88.6094"/><text fill="#000000" font-family="sans-serif" font-size="14" lengthAdjust="spacing" textLength="99" x="57" y="110.1426">React Frontend</text><rect fill="#E2E2F0" height="31.6094" rx="2.5" ry="2.5" style="stroke:#181818;stroke-width:0.5;" width="113" x="50" y="533.8438"/><text fill="#000000" font-family="sans-serif" font-size="14" lengthAdjust="spacing" textLength="99" x="57" y="555.377">React Frontend</text><rect fill="#E2E2F0" height="31.6094" rx="2.5" ry="2.5" style="stroke:#181818;stroke-width:0.5;" width="116" x="257.5" y="88.6094"/><text fill="#000000" font-family="sans-serif" font-size="14" lengthAdjust="spacing" textLength="102" x="264.5" y="110.1426">Ory Oathkeeper</text><rect fill="#E2E2F0" height="31.6094" rx="2.5" ry="2.5" style="stroke:#181818;stroke-width:0.5;" width="116" x="257.5" y="533.8438"/><text fill="#000000" font-family="sans-serif" font-size="14" lengthAdjust="spacing" textLength="102" x="264.5" y="555.377">Ory Oathkeeper</text><rect fill="#E2E2F0" height="31.6094" rx="2.5" ry="2.5" style="stroke:#181818;stroke-width:0.5;" width="82" x="488.5" y="88.6094"/><text fill="#000000" font-family="sans-serif" font-size="14" lengthAdjust="spacing" textLength="68" x="495.5" y="110.1426">Ory Kratos</text><rect fill="#E2E2F0" height="31.6094" rx="2.5" ry="2.5" style="stroke:#181818;stroke-width:0.5;" width="82" x="488.5" y="533.8438"/><text fill="#000000" font-family="sans-serif" font-size="14" lengthAdjust="spacing" textLength="68" x="495.5" y="555.377">Ory Kratos</text><rect fill="#E2E2F0" height="31.6094" rx="2.5" ry="2.5" style="stroke:#181818;stroke-width:0.5;" width="147" x="580.5" y="88.6094"/><text fill="#000000" font-family="sans-serif" font-size="14" lengthAdjust="spacing" textLength="133" x="587.5" y="110.1426">Spring Boot Backend</text><rect fill="#E2E2F0" height="31.6094" rx="2.5" ry="2.5" style="stroke:#181818;stroke-width:0.5;" width="147" x="580.5" y="533.8438"/><text fill="#000000" font-family="sans-serif" font-size="14" lengthAdjust="spacing" textLength="133" x="587.5" y="555.377">Spring Boot Backend</text><rect fill="#EEEEEE" height="3" style="stroke:#EEEEEE;stroke-width:1.0;" width="732.5" x="0" y="152.3945"/><line style="stroke:#000000;stroke-width:1.0;" x1="0" x2="732.5" y1="152.3945" y2="152.3945"/><line style="stroke:#000000;stroke-width:1.0;" x1="0" x2="732.5" y1="155.3945" y2="155.3945"/><rect fill="#EEEEEE" height="24.3516" style="stroke:#000000;stroke-width:2.0;" width="173" x="279.75" y="141.2188"/><text fill="#000000" font-family="sans-serif" font-size="13" font-weight="bold" lengthAdjust="spacing" textLength="155" x="285.75" y="158.7139">Session Check on Mount</text><polygon fill="#181818" points="303.5,242.9766,313.5,246.9766,303.5,250.9766,307.5,246.9766" style="stroke:#181818;stroke-width:1.0;"/><line style="stroke:#181818;stroke-width:1.0;" x1="106.5" x2="309.5" y1="246.9766" y2="246.9766"/><text fill="#000000" font-family="sans-serif" font-size="13" lengthAdjust="spacing" textLength="185" x="113.5" y="193.0654">GET api.irboard.local/v1/whoami</text><text fill="#000000" font-family="sans-serif" font-size="13" lengthAdjust="spacing" textLength="96" x="113.5" y="209.417">+ Cookie: (none)</text><text fill="#000000" font-family="sans-serif" font-size="13" lengthAdjust="spacing" textLength="161" x="113.5" y="225.7686">[rule: api-backend-protected</text><text fill="#000000" font-family="sans-serif" font-size="13" lengthAdjust="spacing" textLength="177" x="113.5" y="242.1201">authenticator: cookie_session]</text><polygon fill="#181818" points="517.5,306.0313,527.5,310.0313,517.5,314.0313,521.5,310.0313" style="stroke:#181818;stroke-width:1.0;"/><line style="stroke:#181818;stroke-width:1.0;" x1="315.5" x2="523.5" y1="310.0313" y2="310.0313"/><text fill="#000000" font-family="sans-serif" font-size="13" lengthAdjust="spacing" textLength="134" x="322.5" y="272.4717">GET /sessions/whoami</text><text fill="#000000" font-family="sans-serif" font-size="13" lengthAdjust="spacing" textLength="173" x="322.5" y="288.8232">(cookie_session authenticator</text><text fill="#000000" font-family="sans-serif" font-size="13" lengthAdjust="spacing" textLength="151" x="322.5" y="305.1748">forwards cookie to Kratos)</text><polygon fill="#181818" points="326.5,369.0859,316.5,373.0859,326.5,377.0859,322.5,373.0859" style="stroke:#181818;stroke-width:1.0;"/><line style="stroke:#181818;stroke-width:1.0;stroke-dasharray:2.0,2.0;" x1="320.5" x2="528.5" y1="373.0859" y2="373.0859"/><text fill="#000000" font-family="sans-serif" font-size="13" lengthAdjust="spacing" textLength="101" x="332.5" y="335.5264">401 Unauthorized</text><text fill="#000000" font-family="sans-serif" font-size="13" lengthAdjust="spacing" textLength="111" x="332.5" y="351.8779">{ error: { code: 401,</text><text fill="#000000" font-family="sans-serif" font-size="13" lengthAdjust="spacing" textLength="190" x="332.5" y="368.2295">"No active session was found" } }</text><polygon fill="#181818" points="117.5,432.1406,107.5,436.1406,117.5,440.1406,113.5,436.1406" style="stroke:#181818;stroke-width:1.0;"/><line style="stroke:#181818;stroke-width:1.0;stroke-dasharray:2.0,2.0;" x1="111.5" x2="314.5" y1="436.1406" y2="436.1406"/><text fill="#000000" font-family="sans-serif" font-size="13" lengthAdjust="spacing" textLength="101" x="123.5" y="398.5811">401 Unauthorized</text><text fill="#000000" font-family="sans-serif" font-size="13" lengthAdjust="spacing" textLength="133" x="123.5" y="414.9326">(authenticator rejected,</text><text fill="#000000" font-family="sans-serif" font-size="13" lengthAdjust="spacing" textLength="88" x="123.5" y="431.2842">access denied)</text><path d="M29,449.1406 L29,491.1406 L183,491.1406 L183,459.1406 L173,449.1406 L29,449.1406 " fill="#FEFFDD" style="stroke:#181818;stroke-width:0.5;"/><path d="M173,449.1406 L173,459.1406 L183,459.1406 L173,449.1406 " fill="#FEFFDD" style="stroke:#181818;stroke-width:0.5;"/><text fill="#000000" font-family="sans-serif" font-size="13" lengthAdjust="spacing" textLength="133" x="35" y="467.6357">isAuthenticated = false</text><text fill="#000000" font-family="sans-serif" font-size="13" lengthAdjust="spacing" textLength="120" x="35" y="483.9873">Proceed to login flow</text><rect fill="#EEEEEE" height="3" style="stroke:#EEEEEE;stroke-width:1.0;" width="732.5" x="0" y="509.8438"/><line style="stroke:#000000;stroke-width:1.0;" x1="0" x2="732.5" y1="509.8438" y2="509.8438"/><line style="stroke:#000000;stroke-width:1.0;" x1="0" x2="732.5" y1="512.8438" y2="512.8438"/><!--SRC=[RL9BJm8n4BxtLqmuGHJGn1F9ceW13pwZSdADgTq1AklCPbeWQlpl3cLzh7fhTx_NVDFeOubmnZDFC2vvROnraGKc0SLKLg9tlh8KeNMD-WV6mXIHYXRO0EDH4t8fBt1futo1MA4aoFVrB_HKREIGODjZ4t9JYQSP39aZ3ArRVBeEHyPa6TnW29u9ZkVe5g27SrugBSkC6O-WU_Z36WPmChe5M_cUbqUsKlHAThRih_RxwpdRPv_J3XmpBpmEe4rCsCdfJfQbNfNLVTpQTolXY2vYaPDTnZcIfjNWCW2No0zX6-hU_33NADlnwXZz6XI-lDjDDZIqSvgoh3Lpg4qWSYtOCRLmz_Uu1tlxC4aPMVph9kyReCWcwPlA59WWkpcrBXXqhtw5yEc-rewdsgMs_GxlZKdKHhlzJxxTo0o2JwadTR3EgJ0KI1wBZZ6a5GAlL2v9-N3qpSG2CfZQCc1ELy8EzODEMwRdEKtFKpU_sV47]--></g></svg>