<?xml version="1.0" encoding="us-ascii" standalone="no"?><svg xmlns="http://www.w3.org/2000/svg" xmlns:xlink="http://www.w3.org/1999/xlink" contentStyleType="text/css" height="561px" preserveAspectRatio="none" style="width:860px;height:561px;background:#FFFFFF;" version="1.1" viewBox="0 0 860 561" width="860px" zoomAndPan="magnify"><defs/><g><line style="stroke:#181818;stroke-width:0.5;stroke-dasharray:5.0,5.0;" x1="24" x2="24" y1="82.6094" y2="479.8828"/><line style="stroke:#181818;stroke-width:0.5;stroke-dasharray:5.0,5.0;" x1="108" x2="108" y1="82.6094" y2="479.8828"/><line style="stroke:#181818;stroke-width:0.5;stroke-dasharray:5.0,5.0;" x1="409.5" x2="409.5" y1="82.6094" y2="479.8828"/><line style="stroke:#181818;stroke-width:0.5;stroke-dasharray:5.0,5.0;" x1="650.5" x2="650.5" y1="82.6094" y2="479.8828"/><line style="stroke:#181818;stroke-width:0.5;stroke-dasharray:5.0,5.0;" x1="774.5" x2="774.5" y1="82.6094" y2="479.8828"/><text fill="#000000" font-family="sans-serif" font-size="14" lengthAdjust="spacing" textLength="29" x="7" y="79.5332">User</text><ellipse cx="24.5" cy="13.5" fill="#E2E2F0" rx="8" ry="8" style="stroke:#181818;stroke-width:0.5;"/><path d="M24.5,21.5 L24.5,48.5 M11.5,29.5 L37.5,29.5 M24.5,48.5 L11.5,63.5 M24.5,48.5 L37.5,63.5 " fill="none" style="stroke:#181818;stroke-width:0.5;"/><text fill="#000000" font-family="sans-serif" font-size="14" lengthAdjust="spacing" textLength="29" x="7" y="493.416">User</text><ellipse cx="24.5" cy="504.9922" fill="#E2E2F0" rx="8" ry="8" style="stroke:#181818;stroke-width:0.5;"/><path d="M24.5,512.9922 L24.5,539.9922 M11.5,520.9922 L37.5,520.9922 M24.5,539.9922 L11.5,554.9922 M24.5,539.9922 L37.5,554.9922 " fill="none" style="stroke:#181818;stroke-width:0.5;"/><rect fill="#E2E2F0" height="31.6094" rx="2.5" ry="2.5" style="stroke:#181818;stroke-width:0.5;" width="113" x="52" y="50"/><text fill="#000000" font-family="sans-serif" font-size="14" lengthAdjust="spacing" textLength="99" x="59" y="71.5332">React Frontend</text><rect fill="#E2E2F0" height="31.6094" rx="2.5" ry="2.5" style="stroke:#181818;stroke-width:0.5;" width="113" x="52" y="478.8828"/><text fill="#000000" font-family="sans-serif" font-size="14" lengthAdjust="spacing" textLength="99" x="59" y="500.416">React Frontend</text><rect fill="#E2E2F0" height="31.6094" rx="2.5" ry="2.5" style="stroke:#181818;stroke-width:0.5;" width="116" x="351.5" y="50"/><text fill="#000000" font-family="sans-serif" font-size="14" lengthAdjust="spacing" textLength="102" x="358.5" y="71.5332">Ory Oathkeeper</text><rect fill="#E2E2F0" height="31.6094" rx="2.5" ry="2.5" style="stroke:#181818;stroke-width:0.5;" width="116" x="351.5" y="478.8828"/><text fill="#000000" font-family="sans-serif" font-size="14" lengthAdjust="spacing" textLength="102" x="358.5" y="500.416">Ory Oathkeeper</text><rect fill="#E2E2F0" height="31.6094" rx="2.5" ry="2.5" style="stroke:#181818;stroke-width:0.5;" width="82" x="609.5" y="50"/><text fill="#000000" font-family="sans-serif" font-size="14" lengthAdjust="spacing" textLength="68" x="616.5" y="71.5332">Ory Kratos</text><rect fill="#E2E2F0" height="31.6094" rx="2.5" ry="2.5" style="stroke:#181818;stroke-width:0.5;" width="82" x="609.5" y="478.8828"/><text fill="#000000" font-family="sans-serif" font-size="14" lengthAdjust="spacing" textLength="68" x="616.5" y="500.416">Ory Kratos</text><rect fill="#E2E2F0" height="31.6094" rx="2.5" ry="2.5" style="stroke:#181818;stroke-width:0.5;" width="147" x="701.5" y="50"/><text fill="#000000" font-family="sans-serif" font-size="14" lengthAdjust="spacing" textLength="133" x="708.5" y="71.5332">Spring Boot Backend</text><rect fill="#E2E2F0" height="31.6094" rx="2.5" ry="2.5" style="stroke:#181818;stroke-width:0.5;" width="147" x="701.5" y="478.8828"/><text fill="#000000" font-family="sans-serif" font-size="14" lengthAdjust="spacing" textLength="133" x="708.5" y="500.416">Spring Boot Backend</text><rect fill="#EEEEEE" height="3" style="stroke:#EEEEEE;stroke-width:1.0;" width="853.5" x="0" y="113.7852"/><line style="stroke:#000000;stroke-width:1.0;" x1="0" x2="853.5" y1="113.7852" y2="113.7852"/><line style="stroke:#000000;stroke-width:1.0;" x1="0" x2="853.5" y1="116.7852" y2="116.7852"/><rect fill="#EEEEEE" height="24.3516" style="stroke:#000000;stroke-width:2.0;" width="172" x="340.75" y="102.6094"/><text fill="#000000" font-family="sans-serif" font-size="13" font-weight="bold" lengthAdjust="spacing" textLength="154" x="346.75" y="120.1045">Login Flow Initialization</text><polygon fill="#181818" points="397.5,204.3672,407.5,208.3672,397.5,212.3672,401.5,208.3672" style="stroke:#181818;stroke-width:1.0;"/><line style="stroke:#181818;stroke-width:1.0;" x1="108.5" x2="403.5" y1="208.3672" y2="208.3672"/><text fill="#000000" font-family="sans-serif" font-size="13" lengthAdjust="spacing" textLength="277" x="115.5" y="154.4561">GET auth.irboard.local/self-service/login/browser</text><text fill="#000000" font-family="sans-serif" font-size="13" lengthAdjust="spacing" textLength="151" x="115.5" y="170.8076">+ Accept: application/json</text><text fill="#000000" font-family="sans-serif" font-size="13" lengthAdjust="spacing" textLength="169" x="115.5" y="187.1592">[rule: kratos-self-service-pass</text><text fill="#000000" font-family="sans-serif" font-size="13" lengthAdjust="spacing" textLength="163" x="115.5" y="203.5107">authenticator: noop &#8594; allow]</text><polygon fill="#181818" points="638.5,251.0703,648.5,255.0703,638.5,259.0703,642.5,255.0703" style="stroke:#181818;stroke-width:1.0;"/><line style="stroke:#181818;stroke-width:1.0;" x1="409.5" x2="644.5" y1="255.0703" y2="255.0703"/><text fill="#000000" font-family="sans-serif" font-size="13" lengthAdjust="spacing" textLength="178" x="416.5" y="233.8623">GET /self-service/login/browser</text><text fill="#000000" font-family="sans-serif" font-size="13" lengthAdjust="spacing" textLength="162" x="416.5" y="250.2139">(passed through, noop auth)</text><polygon fill="#181818" points="420.5,330.4766,410.5,334.4766,420.5,338.4766,416.5,334.4766" style="stroke:#181818;stroke-width:1.0;"/><line style="stroke:#181818;stroke-width:1.0;stroke-dasharray:2.0,2.0;" x1="414.5" x2="649.5" y1="334.4766" y2="334.4766"/><text fill="#000000" font-family="sans-serif" font-size="13" lengthAdjust="spacing" textLength="44" x="426.5" y="280.5654">200 OK</text><text fill="#000000" font-family="sans-serif" font-size="13" lengthAdjust="spacing" textLength="62" x="426.5" y="296.917">{ id: flowId,</text><text fill="#000000" font-family="sans-serif" font-size="13" lengthAdjust="spacing" textLength="139" x="434.5" y="313.2686">ui: { nodes: [{ attributes:</text><text fill="#000000" font-family="sans-serif" font-size="13" lengthAdjust="spacing" textLength="201" x="442.5" y="329.6201">{ name: csrf_token, value: ... } }] } }</text><polygon fill="#181818" points="119.5,377.1797,109.5,381.1797,119.5,385.1797,115.5,381.1797" style="stroke:#181818;stroke-width:1.0;"/><line style="stroke:#181818;stroke-width:1.0;stroke-dasharray:2.0,2.0;" x1="113.5" x2="408.5" y1="381.1797" y2="381.1797"/><text fill="#000000" font-family="sans-serif" font-size="13" lengthAdjust="spacing" textLength="44" x="125.5" y="359.9717">200 OK</text><text fill="#000000" font-family="sans-serif" font-size="13" lengthAdjust="spacing" textLength="171" x="125.5" y="376.3232">{ id: flowId, ui: { nodes: [...] } }</text><path d="M5,394.1797 L5,436.1797 L212,436.1797 L212,404.1797 L202,394.1797 L5,394.1797 " fill="#FEFFDD" style="stroke:#181818;stroke-width:0.5;"/><path d="M202,394.1797 L202,404.1797 L212,404.1797 L202,394.1797 " fill="#FEFFDD" style="stroke:#181818;stroke-width:0.5;"/><text fill="#000000" font-family="sans-serif" font-size="13" lengthAdjust="spacing" textLength="92" x="11" y="412.6748">Store flowId and</text><text fill="#000000" font-family="sans-serif" font-size="13" lengthAdjust="spacing" textLength="186" x="11" y="429.0264">extract csrf_token from ui.nodes</text><rect fill="#EEEEEE" height="3" style="stroke:#EEEEEE;stroke-width:1.0;" width="853.5" x="0" y="454.8828"/><line style="stroke:#000000;stroke-width:1.0;" x1="0" x2="853.5" y1="454.8828" y2="454.8828"/><line style="stroke:#000000;stroke-width:1.0;" x1="0" x2="853.5" y1="457.8828" y2="457.8828"/><!--SRC=[VPB1RXCn48Rl-nI_UWAHtLGSLmeIaH9K5IaIXLEtGXElavYudjLuDWMYNda07f4dmTu4DIc2osfj__Fz_unDHbdmALefEX9rndKK51SVB1d5N3Ye3Uq5A68-EvSiv1iMf9kjjPsLGVAq_5jwBQGS1zdXzrnoquaBQqoP5LCosp-kqrbHJ2PupsiNCFVyWAlWr95ttqaT1qmcHJ6VeNnpueuQxsOVGRrkAYTB9cahpuRyE5g_AbEtEsVis6VeU2dya7QQy0flZR6Trg2kyyuC_F6NoA49jz9xMsCx92zFAML7CJOXUzcWkOgbHc3kyEl7Jv1FcU-AasmfwM40nvJ_pVGYqsqBtGZtwyte0CvcBuiZfNpU-klBIookcx27QskialzLEse2qBiQ-qHeRQnnkmUfYblscfRv6FcGxbER9ihgitAwX15svFkqLLKL7l5ubpzdtIJtDFv_k3wpJ903e0Yi5hnBWA7u9WtD7ej0eMs2_QgId-1J5Ao4xnEm6cZ3gyYN_ni0]--></g></svg>