<?xml version="1.0" encoding="us-ascii" standalone="no"?><svg xmlns="http://www.w3.org/2000/svg" xmlns:xlink="http://www.w3.org/1999/xlink" contentStyleType="text/css" height="1655px" preserveAspectRatio="none" style="width:1782px;height:1655px;background:#FFFFFF;" version="1.1" viewBox="0 0 1782 1655" width="1782px" zoomAndPan="magnify"><defs/><g><text fill="#000000" font-family="sans-serif" font-size="14" font-weight="bold" lengthAdjust="spacing" textLength="168" x="803" y="29.5332">Signup / Activation Flow</text><rect fill="none" height="188.2969" style="stroke:#000000;stroke-width:1.5;" width="454.5" x="728" y="646.3047"/><rect fill="none" height="111.7578" style="stroke:#000000;stroke-width:1.5;" width="631.5" x="728" y="848.6016"/><rect fill="none" height="111.2422" style="stroke:#000000;stroke-width:1.5;" width="390" x="1375" y="1356.3359"/><line style="stroke:#181818;stroke-width:0.5;stroke-dasharray:5.0,5.0;" x1="120" x2="120" y1="121.2188" y2="1573.2813"/><line style="stroke:#181818;stroke-width:0.5;stroke-dasharray:5.0,5.0;" x1="185" x2="185" y1="121.2188" y2="1573.2813"/><line style="stroke:#181818;stroke-width:0.5;stroke-dasharray:5.0,5.0;" x1="336" x2="336" y1="121.2188" y2="1573.2813"/><line style="stroke:#181818;stroke-width:0.5;stroke-dasharray:5.0,5.0;" x1="575.5" x2="575.5" y1="121.2188" y2="1573.2813"/><line style="stroke:#181818;stroke-width:0.5;stroke-dasharray:5.0,5.0;" x1="811" x2="811" y1="121.2188" y2="1573.2813"/><line style="stroke:#181818;stroke-width:0.5;stroke-dasharray:5.0,5.0;" x1="1128.5" x2="1128.5" y1="121.2188" y2="1573.2813"/><line style="stroke:#181818;stroke-width:0.5;stroke-dasharray:5.0,5.0;" x1="1225.5" x2="1225.5" y1="121.2188" y2="1573.2813"/><line style="stroke:#181818;stroke-width:0.5;stroke-dasharray:5.0,5.0;" x1="1314.5" x2="1314.5" y1="121.2188" y2="1573.2813"/><line style="stroke:#181818;stroke-width:0.5;stroke-dasharray:5.0,5.0;" x1="1438" x2="1438" y1="121.2188" y2="1573.2813"/><line style="stroke:#181818;stroke-width:0.5;stroke-dasharray:5.0,5.0;" x1="1703" x2="1703" y1="121.2188" y2="1573.2813"/><text fill="#000000" font-family="sans-serif" font-size="14" lengthAdjust="spacing" textLength="39" x="98" y="118.1426">Admin</text><ellipse cx="120.5" cy="52.1094" fill="#E2E2F0" rx="8" ry="8" style="stroke:#181818;stroke-width:0.5;"/><path d="M120.5,60.1094 L120.5,87.1094 M107.5,68.1094 L133.5,68.1094 M120.5,87.1094 L107.5,102.1094 M120.5,87.1094 L133.5,102.1094 " fill="none" style="stroke:#181818;stroke-width:0.5;"/><text fill="#000000" font-family="sans-serif" font-size="14" lengthAdjust="spacing" textLength="39" x="98" y="1586.8145">Admin</text><ellipse cx="120.5" cy="1598.3906" fill="#E2E2F0" rx="8" ry="8" style="stroke:#181818;stroke-width:0.5;"/><path d="M120.5,1606.3906 L120.5,1633.3906 M107.5,1614.3906 L133.5,1614.3906 M120.5,1633.3906 L107.5,1648.3906 M120.5,1633.3906 L133.5,1648.3906 " fill="none" style="stroke:#181818;stroke-width:0.5;"/><text fill="#000000" font-family="sans-serif" font-size="14" lengthAdjust="spacing" textLength="59" x="153" y="118.1426">New User</text><ellipse cx="185.5" cy="52.1094" fill="#E2E2F0" rx="8" ry="8" style="stroke:#181818;stroke-width:0.5;"/><path d="M185.5,60.1094 L185.5,87.1094 M172.5,68.1094 L198.5,68.1094 M185.5,87.1094 L172.5,102.1094 M185.5,87.1094 L198.5,102.1094 " fill="none" style="stroke:#181818;stroke-width:0.5;"/><text fill="#000000" font-family="sans-serif" font-size="14" lengthAdjust="spacing" textLength="59" x="153" y="1586.8145">New User</text><ellipse cx="185.5" cy="1598.3906" fill="#E2E2F0" rx="8" ry="8" style="stroke:#181818;stroke-width:0.5;"/><path d="M185.5,1606.3906 L185.5,1633.3906 M172.5,1614.3906 L198.5,1614.3906 M185.5,1633.3906 L172.5,1648.3906 M185.5,1633.3906 L198.5,1648.3906 " fill="none" style="stroke:#181818;stroke-width:0.5;"/><rect fill="#E2E2F0" height="31.6094" rx="2.5" ry="2.5" style="stroke:#181818;stroke-width:0.5;" width="113" x="280" y="88.6094"/><text fill="#000000" font-family="sans-serif" font-size="14" lengthAdjust="spacing" textLength="99" x="287" y="110.1426">React Frontend</text><rect fill="#E2E2F0" height="31.6094" rx="2.5" ry="2.5" style="stroke:#181818;stroke-width:0.5;" width="113" x="280" y="1572.2813"/><text fill="#000000" font-family="sans-serif" font-size="14" lengthAdjust="spacing" textLength="99" x="287" y="1593.8145">React Frontend</text><rect fill="#E2E2F0" height="31.6094" rx="2.5" ry="2.5" style="stroke:#181818;stroke-width:0.5;" width="116" x="517.5" y="88.6094"/><text fill="#000000" font-family="sans-serif" font-size="14" lengthAdjust="spacing" textLength="102" x="524.5" y="110.1426">Ory Oathkeeper</text><rect fill="#E2E2F0" height="31.6094" rx="2.5" ry="2.5" style="stroke:#181818;stroke-width:0.5;" width="116" x="517.5" y="1572.2813"/><text fill="#000000" font-family="sans-serif" font-size="14" lengthAdjust="spacing" textLength="102" x="524.5" y="1593.8145">Ory Oathkeeper</text><rect fill="#E2E2F0" height="31.6094" rx="2.5" ry="2.5" style="stroke:#181818;stroke-width:0.5;" width="147" x="738" y="88.6094"/><text fill="#000000" font-family="sans-serif" font-size="14" lengthAdjust="spacing" textLength="133" x="745" y="110.1426">Spring Boot Backend</text><rect fill="#E2E2F0" height="31.6094" rx="2.5" ry="2.5" style="stroke:#181818;stroke-width:0.5;" width="147" x="738" y="1572.2813"/><text fill="#000000" font-family="sans-serif" font-size="14" lengthAdjust="spacing" textLength="133" x="745" y="1593.8145">Spring Boot Backend</text><rect fill="#E2E2F0" height="49.2188" rx="2.5" ry="2.5" style="stroke:#181818;stroke-width:0.5;" width="88" x="1084.5" y="71"/><text fill="#000000" font-family="sans-serif" font-size="14" lengthAdjust="spacing" textLength="68" x="1094.5" y="92.5332">Ory Kratos</text><text fill="#000000" font-family="sans-serif" font-size="14" lengthAdjust="spacing" textLength="74" x="1091.5" y="110.1426">(Admin API)</text><rect fill="#E2E2F0" height="49.2188" rx="2.5" ry="2.5" style="stroke:#181818;stroke-width:0.5;" width="88" x="1084.5" y="1572.2813"/><text fill="#000000" font-family="sans-serif" font-size="14" lengthAdjust="spacing" textLength="68" x="1094.5" y="1593.8145">Ory Kratos</text><text fill="#000000" font-family="sans-serif" font-size="14" lengthAdjust="spacing" textLength="74" x="1091.5" y="1611.4238">(Admin API)</text><rect fill="#E2E2F0" height="49.2188" rx="2.5" ry="2.5" style="stroke:#181818;stroke-width:0.5;" width="87" x="1182.5" y="71"/><text fill="#000000" font-family="sans-serif" font-size="14" lengthAdjust="spacing" textLength="68" x="1192" y="92.5332">Ory Kratos</text><text fill="#000000" font-family="sans-serif" font-size="14" lengthAdjust="spacing" textLength="73" x="1189.5" y="110.1426">(Public API)</text><rect fill="#E2E2F0" height="49.2188" rx="2.5" ry="2.5" style="stroke:#181818;stroke-width:0.5;" width="87" x="1182.5" y="1572.2813"/><text fill="#000000" font-family="sans-serif" font-size="14" lengthAdjust="spacing" textLength="68" x="1192" y="1593.8145">Ory Kratos</text><text fill="#000000" font-family="sans-serif" font-size="14" lengthAdjust="spacing" textLength="73" x="1189.5" y="1611.4238">(Public API)</text><rect fill="#E2E2F0" height="31.6094" rx="2.5" ry="2.5" style="stroke:#181818;stroke-width:0.5;" width="70" x="1279.5" y="88.6094"/><text fill="#000000" font-family="sans-serif" font-size="14" lengthAdjust="spacing" textLength="56" x="1286.5" y="110.1426">Ory Keto</text><rect fill="#E2E2F0" height="31.6094" rx="2.5" ry="2.5" style="stroke:#181818;stroke-width:0.5;" width="70" x="1279.5" y="1572.2813"/><text fill="#000000" font-family="sans-serif" font-size="14" lengthAdjust="spacing" textLength="56" x="1286.5" y="1593.8145">Ory Keto</text><rect fill="#E2E2F0" height="31.6094" rx="2.5" ry="2.5" style="stroke:#181818;stroke-width:0.5;" width="106" x="1385" y="88.6094"/><text fill="#000000" font-family="sans-serif" font-size="14" lengthAdjust="spacing" textLength="92" x="1392" y="110.1426">Kratos Courier</text><rect fill="#E2E2F0" height="31.6094" rx="2.5" ry="2.5" style="stroke:#181818;stroke-width:0.5;" width="106" x="1385" y="1572.2813"/><text fill="#000000" font-family="sans-serif" font-size="14" lengthAdjust="spacing" textLength="92" x="1392" y="1593.8145">Kratos Courier</text><rect fill="#E2E2F0" height="31.6094" rx="2.5" ry="2.5" style="stroke:#181818;stroke-width:0.5;" width="104" x="1651" y="88.6094"/><text fill="#000000" font-family="sans-serif" font-size="14" lengthAdjust="spacing" textLength="90" x="1658" y="110.1426">SMTP / Mailpit</text><rect fill="#E2E2F0" height="31.6094" rx="2.5" ry="2.5" style="stroke:#181818;stroke-width:0.5;" width="104" x="1651" y="1572.2813"/><text fill="#000000" font-family="sans-serif" font-size="14" lengthAdjust="spacing" textLength="90" x="1658" y="1593.8145">SMTP / Mailpit</text><rect fill="#EEEEEE" height="3" style="stroke:#EEEEEE;stroke-width:1.0;" width="1775" x="0" y="152.3945"/><line style="stroke:#000000;stroke-width:1.0;" x1="0" x2="1775" y1="152.3945" y2="152.3945"/><line style="stroke:#000000;stroke-width:1.0;" x1="0" x2="1775" y1="155.3945" y2="155.3945"/><rect fill="#EEEEEE" height="24.3516" style="stroke:#000000;stroke-width:2.0;" width="134" x="820.5" y="141.2188"/><text fill="#000000" font-family="sans-serif" font-size="13" font-weight="bold" lengthAdjust="spacing" textLength="116" x="826.5" y="158.7139">Admin: Invite User</text><path d="M5,180.5703 L5,222.5703 L236,222.5703 L236,190.5703 L226,180.5703 L5,180.5703 " fill="#FEFFDD" style="stroke:#181818;stroke-width:0.5;"/><path d="M226,180.5703 L226,190.5703 L236,190.5703 L226,180.5703 " fill="#FEFFDD" style="stroke:#181818;stroke-width:0.5;"/><text fill="#000000" font-family="sans-serif" font-size="13" lengthAdjust="spacing" textLength="126" x="11" y="199.0654">Already authenticated</text><text fill="#000000" font-family="sans-serif" font-size="13" lengthAdjust="spacing" textLength="210" x="11" y="215.417">(ory_kratos_session cookie present)</text><polygon fill="#181818" points="324.5,279.3281,334.5,283.3281,324.5,287.3281,328.5,283.3281" style="stroke:#181818;stroke-width:1.0;"/><line style="stroke:#181818;stroke-width:1.0;" x1="120.5" x2="330.5" y1="283.3281" y2="283.3281"/><text fill="#000000" font-family="sans-serif" font-size="13" lengthAdjust="spacing" textLength="113" x="127.5" y="245.7686">Fill InviteUserDialog</text><text fill="#000000" font-family="sans-serif" font-size="13" lengthAdjust="spacing" textLength="192" x="127.5" y="262.1201">(name, surname, email, isAdmin)</text><text fill="#000000" font-family="sans-serif" font-size="13" lengthAdjust="spacing" textLength="173" x="127.5" y="278.4717">and click "Generate Invitation"</text><polygon fill="#181818" points="563.5,375.0859,573.5,379.0859,563.5,383.0859,567.5,379.0859" style="stroke:#181818;stroke-width:1.0;"/><line style="stroke:#181818;stroke-width:1.0;" x1="336.5" x2="569.5" y1="379.0859" y2="379.0859"/><text fill="#000000" font-family="sans-serif" font-size="13" lengthAdjust="spacing" textLength="215" x="343.5" y="308.8232">POST api.irboard.local/v1/users/invite</text><text fill="#000000" font-family="sans-serif" font-size="13" lengthAdjust="spacing" textLength="173" x="343.5" y="325.1748">+ Cookie: ory_kratos_session</text><text fill="#000000" font-family="sans-serif" font-size="13" lengthAdjust="spacing" textLength="212" x="343.5" y="341.5264">+ { email, name, surname, isAdmin }</text><text fill="#000000" font-family="sans-serif" font-size="13" lengthAdjust="spacing" textLength="161" x="343.5" y="357.8779">[rule: api-backend-protected</text><text fill="#000000" font-family="sans-serif" font-size="13" lengthAdjust="spacing" textLength="177" x="343.5" y="374.2295">authenticator: cookie_session]</text><polygon fill="#181818" points="1214,421.7891,1224,425.7891,1214,429.7891,1218,425.7891" style="stroke:#181818;stroke-width:1.0;"/><line style="stroke:#181818;stroke-width:1.0;" x1="575.5" x2="1220" y1="425.7891" y2="425.7891"/><text fill="#000000" font-family="sans-serif" font-size="13" lengthAdjust="spacing" textLength="134" x="582.5" y="404.5811">GET /sessions/whoami</text><text fill="#000000" font-family="sans-serif" font-size="13" lengthAdjust="spacing" textLength="173" x="582.5" y="420.9326">+ Cookie: ory_kratos_session</text><polygon fill="#181818" points="586.5,468.4922,576.5,472.4922,586.5,476.4922,582.5,472.4922" style="stroke:#181818;stroke-width:1.0;"/><line style="stroke:#181818;stroke-width:1.0;stroke-dasharray:2.0,2.0;" x1="580.5" x2="1225" y1="472.4922" y2="472.4922"/><text fill="#000000" font-family="sans-serif" font-size="13" lengthAdjust="spacing" textLength="44" x="592.5" y="451.2842">200 OK</text><text fill="#000000" font-family="sans-serif" font-size="13" lengthAdjust="spacing" textLength="237" x="592.5" y="467.6357">{ active: true, identity: { id: adminOryId } }</text><polygon fill="#181818" points="799.5,531.5469,809.5,535.5469,799.5,539.5469,803.5,535.5469" style="stroke:#181818;stroke-width:1.0;"/><line style="stroke:#181818;stroke-width:1.0;" x1="575.5" x2="805.5" y1="535.5469" y2="535.5469"/><text fill="#000000" font-family="sans-serif" font-size="13" lengthAdjust="spacing" textLength="124" x="582.5" y="497.9873">POST /v1/users/invite</text><text fill="#000000" font-family="sans-serif" font-size="13" lengthAdjust="spacing" textLength="132" x="582.5" y="514.3389">+ X-User: {adminOryId}</text><text fill="#000000" font-family="sans-serif" font-size="13" lengthAdjust="spacing" textLength="212" x="582.5" y="530.6904">+ { email, name, surname, isAdmin }</text><polygon fill="#181818" points="1116.5,627.3047,1126.5,631.3047,1116.5,635.3047,1120.5,631.3047" style="stroke:#181818;stroke-width:1.0;"/><line style="stroke:#181818;stroke-width:1.0;" x1="811.5" x2="1122.5" y1="631.3047" y2="631.3047"/><text fill="#000000" font-family="sans-serif" font-size="13" lengthAdjust="spacing" textLength="134" x="818.5" y="561.042">POST /admin/identities</text><text fill="#000000" font-family="sans-serif" font-size="13" lengthAdjust="spacing" textLength="102" x="818.5" y="577.3936">+ Bearer {apiKey}</text><text fill="#000000" font-family="sans-serif" font-size="13" lengthAdjust="spacing" textLength="199" x="818.5" y="593.7451">{ schema_id: default, state: active,</text><text fill="#000000" font-family="sans-serif" font-size="13" lengthAdjust="spacing" textLength="246" x="826.5" y="610.0967">traits: { email, name, surname, is_admin },</text><text fill="#000000" font-family="sans-serif" font-size="13" lengthAdjust="spacing" textLength="285" x="826.5" y="626.4482">recovery_addresses: [{ value: email, via: email }] }</text><path d="M728,646.3047 L789,646.3047 L789,654.6563 L779,664.6563 L728,664.6563 L728,646.3047 " fill="#EEEEEE" style="stroke:#000000;stroke-width:1.5;"/><rect fill="none" height="188.2969" style="stroke:#000000;stroke-width:1.5;" width="454.5" x="728" y="646.3047"/><text fill="#000000" font-family="sans-serif" font-size="13" font-weight="bold" lengthAdjust="spacing" textLength="16" x="743" y="660.7998">alt</text><text fill="#000000" font-family="sans-serif" font-size="11" font-weight="bold" lengthAdjust="spacing" textLength="131" x="804" y="659.7236">[Identity does not exist]</text><polygon fill="#181818" points="822.5,699.3594,812.5,703.3594,822.5,707.3594,818.5,703.3594" style="stroke:#181818;stroke-width:1.0;"/><line style="stroke:#181818;stroke-width:1.0;stroke-dasharray:2.0,2.0;" x1="816.5" x2="1127.5" y1="703.3594" y2="703.3594"/><text fill="#000000" font-family="sans-serif" font-size="13" lengthAdjust="spacing" textLength="70" x="828.5" y="682.1514">201 Created</text><text fill="#000000" font-family="sans-serif" font-size="13" lengthAdjust="spacing" textLength="82" x="828.5" y="698.5029">{ id: oryId, ... }</text><line style="stroke:#000000;stroke-width:1.0;stroke-dasharray:2.0,2.0;" x1="728" x2="1182.5" y1="712.3594" y2="712.3594"/><text fill="#000000" font-family="sans-serif" font-size="11" font-weight="bold" lengthAdjust="spacing" textLength="158" x="733" y="723.7783">[Identity already exists (409)]</text><polygon fill="#181818" points="822.5,745.5469,812.5,749.5469,822.5,753.5469,818.5,749.5469" style="stroke:#181818;stroke-width:1.0;"/><line style="stroke:#181818;stroke-width:1.0;stroke-dasharray:2.0,2.0;" x1="816.5" x2="1127.5" y1="749.5469" y2="749.5469"/><text fill="#000000" font-family="sans-serif" font-size="13" lengthAdjust="spacing" textLength="68" x="828.5" y="744.6904">409 Conflict</text><polygon fill="#181818" points="1116.5,792.25,1126.5,796.25,1116.5,800.25,1120.5,796.25" style="stroke:#181818;stroke-width:1.0;"/><line style="stroke:#181818;stroke-width:1.0;" x1="811.5" x2="1122.5" y1="796.25" y2="796.25"/><text fill="#000000" font-family="sans-serif" font-size="13" lengthAdjust="spacing" textLength="125" x="818.5" y="775.042">GET /admin/identities</text><text fill="#000000" font-family="sans-serif" font-size="13" lengthAdjust="spacing" textLength="172" x="818.5" y="791.3936">?credentials_identifier={email}</text><polygon fill="#181818" points="822.5,822.6016,812.5,826.6016,822.5,830.6016,818.5,826.6016" style="stroke:#181818;stroke-width:1.0;"/><line style="stroke:#181818;stroke-width:1.0;stroke-dasharray:2.0,2.0;" x1="816.5" x2="1127.5" y1="826.6016" y2="826.6016"/><text fill="#000000" font-family="sans-serif" font-size="13" lengthAdjust="spacing" textLength="126" x="828.5" y="821.7451">200 OK [ { id: oryId } ]</text><path d="M728,848.6016 L789,848.6016 L789,856.9531 L779,866.9531 L728,866.9531 L728,848.6016 " fill="#EEEEEE" style="stroke:#000000;stroke-width:1.5;"/><rect fill="none" height="111.7578" style="stroke:#000000;stroke-width:1.5;" width="631.5" x="728" y="848.6016"/><text fill="#000000" font-family="sans-serif" font-size="13" font-weight="bold" lengthAdjust="spacing" textLength="16" x="743" y="863.0967">alt</text><text fill="#000000" font-family="sans-serif" font-size="11" font-weight="bold" lengthAdjust="spacing" textLength="89" x="804" y="862.0205">[isAdmin = true]</text><polygon fill="#181818" points="1302.5,918.0078,1312.5,922.0078,1302.5,926.0078,1306.5,922.0078" style="stroke:#181818;stroke-width:1.0;"/><line style="stroke:#181818;stroke-width:1.0;" x1="811.5" x2="1308.5" y1="922.0078" y2="922.0078"/><text fill="#000000" font-family="sans-serif" font-size="13" lengthAdjust="spacing" textLength="153" x="818.5" y="884.4482">PUT /admin/relation-tuples</text><text fill="#000000" font-family="sans-serif" font-size="13" lengthAdjust="spacing" textLength="211" x="818.5" y="900.7998">{ namespace: System, object: main,</text><text fill="#000000" font-family="sans-serif" font-size="13" lengthAdjust="spacing" textLength="203" x="826.5" y="917.1514">relation: admins, subject_id: oryId }</text><polygon fill="#181818" points="822.5,948.3594,812.5,952.3594,822.5,956.3594,818.5,952.3594" style="stroke:#181818;stroke-width:1.0;"/><line style="stroke:#181818;stroke-width:1.0;stroke-dasharray:2.0,2.0;" x1="816.5" x2="1313.5" y1="952.3594" y2="952.3594"/><text fill="#000000" font-family="sans-serif" font-size="13" lengthAdjust="spacing" textLength="70" x="828.5" y="947.5029">201 Created</text><polygon fill="#181818" points="1214,1002.0625,1224,1006.0625,1214,1010.0625,1218,1006.0625" style="stroke:#181818;stroke-width:1.0;"/><line style="stroke:#181818;stroke-width:1.0;" x1="811.5" x2="1220" y1="1006.0625" y2="1006.0625"/><text fill="#000000" font-family="sans-serif" font-size="13" lengthAdjust="spacing" textLength="171" x="818.5" y="984.8545">GET /self-service/recovery/api</text><text fill="#000000" font-family="sans-serif" font-size="13" lengthAdjust="spacing" textLength="168" x="818.5" y="1001.2061">(initiate recovery flow via API)</text><polygon fill="#181818" points="822.5,1048.7656,812.5,1052.7656,822.5,1056.7656,818.5,1052.7656" style="stroke:#181818;stroke-width:1.0;"/><line style="stroke:#181818;stroke-width:1.0;stroke-dasharray:2.0,2.0;" x1="816.5" x2="1225" y1="1052.7656" y2="1052.7656"/><text fill="#000000" font-family="sans-serif" font-size="13" lengthAdjust="spacing" textLength="44" x="828.5" y="1031.5576">200 OK</text><text fill="#000000" font-family="sans-serif" font-size="13" lengthAdjust="spacing" textLength="86" x="828.5" y="1047.9092">{ id: flowId, ... }</text><polygon fill="#181818" points="1214,1095.4688,1224,1099.4688,1214,1103.4688,1218,1099.4688" style="stroke:#181818;stroke-width:1.0;"/><line style="stroke:#181818;stroke-width:1.0;" x1="811.5" x2="1220" y1="1099.4688" y2="1099.4688"/><text fill="#000000" font-family="sans-serif" font-size="13" lengthAdjust="spacing" textLength="236" x="818.5" y="1078.2607">POST /self-service/recovery?flow={flowId}</text><text fill="#000000" font-family="sans-serif" font-size="13" lengthAdjust="spacing" textLength="173" x="818.5" y="1094.6123">{ method: code, email: email }</text><polygon fill="#181818" points="822.5,1158.5234,812.5,1162.5234,822.5,1166.5234,818.5,1162.5234" style="stroke:#181818;stroke-width:1.0;"/><line style="stroke:#181818;stroke-width:1.0;stroke-dasharray:2.0,2.0;" x1="816.5" x2="1225" y1="1162.5234" y2="1162.5234"/><text fill="#000000" font-family="sans-serif" font-size="13" lengthAdjust="spacing" textLength="44" x="828.5" y="1124.9639">200 OK</text><text fill="#000000" font-family="sans-serif" font-size="13" lengthAdjust="spacing" textLength="143" x="828.5" y="1141.3154">(recovery flow submitted,</text><text fill="#000000" font-family="sans-serif" font-size="13" lengthAdjust="spacing" textLength="150" x="828.5" y="1157.667">code generation triggered)</text><path d="M1126,1175.5234 L1126,1234.5234 L1325,1234.5234 L1325,1185.5234 L1315,1175.5234 L1126,1175.5234 " fill="#FEFFDD" style="stroke:#181818;stroke-width:0.5;"/><path d="M1315,1175.5234 L1315,1185.5234 L1325,1185.5234 L1315,1175.5234 " fill="#FEFFDD" style="stroke:#181818;stroke-width:0.5;"/><text fill="#000000" font-family="sans-serif" font-size="13" lengthAdjust="spacing" textLength="99" x="1132" y="1194.0186">Kratos generates</text><text fill="#000000" font-family="sans-serif" font-size="13" lengthAdjust="spacing" textLength="145" x="1132" y="1210.3701">a one-time recovery code</text><text fill="#000000" font-family="sans-serif" font-size="13" lengthAdjust="spacing" textLength="178" x="1132" y="1226.7217">and queues delivery via Courier</text><polygon fill="#181818" points="1426,1274.2813,1436,1278.2813,1426,1282.2813,1430,1278.2813" style="stroke:#181818;stroke-width:1.0;"/><line style="stroke:#181818;stroke-width:1.0;" x1="1226" x2="1432" y1="1278.2813" y2="1278.2813"/><text fill="#000000" font-family="sans-serif" font-size="13" lengthAdjust="spacing" textLength="157" x="1233" y="1257.0732">Queue recovery code email</text><text fill="#000000" font-family="sans-serif" font-size="13" lengthAdjust="spacing" textLength="188" x="1233" y="1273.4248">{ to: email, code: recoveryCode }</text><polygon fill="#181818" points="1691,1337.3359,1701,1341.3359,1691,1345.3359,1695,1341.3359" style="stroke:#181818;stroke-width:1.0;"/><line style="stroke:#181818;stroke-width:1.0;" x1="1438" x2="1697" y1="1341.3359" y2="1341.3359"/><text fill="#000000" font-family="sans-serif" font-size="13" lengthAdjust="spacing" textLength="130" x="1445" y="1303.7764">SMTP delivery request</text><text fill="#000000" font-family="sans-serif" font-size="13" lengthAdjust="spacing" textLength="241" x="1445" y="1320.1279">{ to: email, subject: "Your recovery code",</text><text fill="#000000" font-family="sans-serif" font-size="13" lengthAdjust="spacing" textLength="221" x="1453" y="1336.4795">body: "Your code is: {recoveryCode}" }</text><path d="M1375,1356.3359 L1436,1356.3359 L1436,1364.6875 L1426,1374.6875 L1375,1374.6875 L1375,1356.3359 " fill="#EEEEEE" style="stroke:#000000;stroke-width:1.5;"/><rect fill="none" height="111.2422" style="stroke:#000000;stroke-width:1.5;" width="390" x="1375" y="1356.3359"/><text fill="#000000" font-family="sans-serif" font-size="13" font-weight="bold" lengthAdjust="spacing" textLength="16" x="1390" y="1370.8311">alt</text><text fill="#000000" font-family="sans-serif" font-size="11" font-weight="bold" lengthAdjust="spacing" textLength="102" x="1451" y="1369.7549">[Production SMTP]</text><polygon fill="#181818" points="1449,1393.0391,1439,1397.0391,1449,1401.0391,1445,1397.0391" style="stroke:#181818;stroke-width:1.0;"/><line style="stroke:#181818;stroke-width:1.0;stroke-dasharray:2.0,2.0;" x1="1443" x2="1702" y1="1397.0391" y2="1397.0391"/><text fill="#000000" font-family="sans-serif" font-size="13" lengthAdjust="spacing" textLength="156" x="1455" y="1392.1826">250 OK (delivered to inbox)</text><line style="stroke:#000000;stroke-width:1.0;stroke-dasharray:2.0,2.0;" x1="1375" x2="1765" y1="1406.0391" y2="1406.0391"/><text fill="#000000" font-family="sans-serif" font-size="11" font-weight="bold" lengthAdjust="spacing" textLength="128" x="1380" y="1417.458">[Mailpit (development)]</text><polygon fill="#181818" points="1449,1455.5781,1439,1459.5781,1449,1463.5781,1445,1459.5781" style="stroke:#181818;stroke-width:1.0;"/><line style="stroke:#181818;stroke-width:1.0;stroke-dasharray:2.0,2.0;" x1="1443" x2="1702" y1="1459.5781" y2="1459.5781"/><text fill="#000000" font-family="sans-serif" font-size="13" lengthAdjust="spacing" textLength="160" x="1455" y="1438.3701">250 OK (stored in Mailpit UI</text><text fill="#000000" font-family="sans-serif" font-size="13" lengthAdjust="spacing" textLength="121" x="1455" y="1454.7217">at irboard.local:8025)</text><polygon fill="#181818" points="586.5,1492.9297,576.5,1496.9297,586.5,1500.9297,582.5,1496.9297" style="stroke:#181818;stroke-width:1.0;"/><line style="stroke:#181818;stroke-width:1.0;stroke-dasharray:2.0,2.0;" x1="580.5" x2="810.5" y1="1496.9297" y2="1496.9297"/><text fill="#000000" font-family="sans-serif" font-size="13" lengthAdjust="spacing" textLength="112" x="592.5" y="1492.0732">200 OK { oryId, ... }</text><polygon fill="#181818" points="347.5,1523.2813,337.5,1527.2813,347.5,1531.2813,343.5,1527.2813" style="stroke:#181818;stroke-width:1.0;"/><line style="stroke:#181818;stroke-width:1.0;stroke-dasharray:2.0,2.0;" x1="341.5" x2="574.5" y1="1527.2813" y2="1527.2813"/><text fill="#000000" font-family="sans-serif" font-size="13" lengthAdjust="spacing" textLength="112" x="353.5" y="1522.4248">200 OK { oryId, ... }</text><rect fill="#EEEEEE" height="3" style="stroke:#EEEEEE;stroke-width:1.0;" width="1775" x="0" y="1548.2813"/><line style="stroke:#000000;stroke-width:1.0;" x1="0" x2="1775" y1="1548.2813" y2="1548.2813"/><line style="stroke:#000000;stroke-width:1.0;" x1="0" x2="1775" y1="1551.2813" y2="1551.2813"/><!--SRC=[ZLPHJoCt47xVNp7A4r49uL1FQbVAdGY54q9NqW9IAu8YPtS8BewzjRtXeYZ_lJEsbsn2ZcjUubsFl_dccndFUkaLmesSwRg2FfmMNYw4bqR3XJ8lMIOARooSbdEfqxhpExx0dKFR0U607dYTLS9wMSXAQ0-TFv5CuS8QxL6NmUxYVDlasYxXMlYdPyGgGMqUjqrlAYlr38R6U1YAuhc17Ew1lBB26pVM1u4nd8ukky4slezXVF_Gg9ugMUoUYc_t74DleXajjhVZGJWpjPKfkhJU2UthxOXK_ogaggGFTlmgomQ3g7aEbteXFGR1OJ38CcteoImm9GLoE5KMHRa4KVidr0GkF9OKZR7BoNCWCd7e7EUqCEPP8bGM7LbsionYz3vHVWZfGYgL7BA_twHGPaP8Mipn45njumBdnFSGPDIpEzP2br2GHi_G-O8QoIT6c519dImZTFAnIJ3v6btVt8Aev96qKoDiUQHC8LH_yQ5VaslNbu76MFz4oZ7f7Dx6mxkhXiuEoSGErcDzRsj5vybPRnhhfrTPah48EhLaCpPF4ZKU7h8MQGgXNH4Kn9VpM-WdKzT_UJ9YBj-dd6qXz7PLEJa-XkkhiLw1u4ua26zhZgPaYdwPKxoof5WuDYh2onBMiDuXEJnlzDqdvryzpYq1RJ3M_ql8B1kURpHegY_w2LZzn5AYOy0X2ak4LgJx5IxN79GhdiZ9X2CeyL7KofCZgXBEJeZtSAo1GXRIk_mTHXCHAGLpYmNtmv9UbbJO97GEzojO25KJRe9OI97Mi7xWM8JoS9bKXTAW0-eim6_I-GperuworuXwSlm1pgZRGk74J1WMy12EZeu85PN33Qf8ZHb07HpyVFnhz_lOj4jren-fBYA3VMg7WdihzkV2OdWKoatYnYDTDeDLY7ZzNa1SRt0FhM2eeXuoQfAeKPF-GQZ4DZ6wzJZ_Tw-CBAhGy3rVLuffhKBcN2KAIiJDqdcS7uAP_aETbmCnqob_yLYgQiUP3ZQJ5gKO0hlSbun8jotORekgnnvL_K8Ms6_gfK-5IPURr2GYtrZDUtYaoSS54mR1suPj2TSK0P_OLC5-8h5HzZBvpES7guWI6cME_icKV1kLpONxMhu_O7Im7GTfEPUUD2Aj6GrcyORcSU2jdCsGIgVRdYixlDCiIySuhGACnfwNyvPc31q7mRyrrjHD9IePTbZ8PlZjKF_KR92RF_ZODbuCcENmvhMHUID_jJjZitNMm11Y6Abv_7lbO95OERy3bSeiXyxVT7xRToUKvjIKosOxC99yBRMThplDPJAofgoBe6kOuLomWKLlAywJZw7Z3X8tB8aHI3qrtxhn-aWV0sonG6MgUPZKFq1pDBi8YlgqENvtIUcWzcrFr_oNuvEFtKspx9y-T1TiNMhjuT9yAUotvCyM-aZv3m00]--></g></svg>