<?xml version="1.0" encoding="us-ascii" standalone="no"?><svg xmlns="http://www.w3.org/2000/svg" xmlns:xlink="http://www.w3.org/1999/xlink" contentStyleType="text/css" height="1274px" preserveAspectRatio="none" style="width:1424px;height:1274px;background:#FFFFFF;" version="1.1" viewBox="0 0 1424 1274" width="1424px" zoomAndPan="magnify"><defs/><g><rect fill="none" height="1076.0078" style="stroke:#000000;stroke-width:1.5;" width="1028" x="84" y="99.6094"/><line style="stroke:#181818;stroke-width:0.5;stroke-dasharray:5.0,5.0;" x1="27" x2="27" y1="82.6094" y2="1192.6172"/><line style="stroke:#181818;stroke-width:0.5;stroke-dasharray:5.0,5.0;" x1="92" x2="92" y1="82.6094" y2="1192.6172"/><line style="stroke:#181818;stroke-width:0.5;stroke-dasharray:5.0,5.0;" x1="191" x2="191" y1="82.6094" y2="1192.6172"/><line style="stroke:#181818;stroke-width:0.5;stroke-dasharray:5.0,5.0;" x1="529.5" x2="529.5" y1="82.6094" y2="1192.6172"/><line style="stroke:#181818;stroke-width:0.5;stroke-dasharray:5.0,5.0;" x1="821" x2="821" y1="82.6094" y2="1192.6172"/><line style="stroke:#181818;stroke-width:0.5;stroke-dasharray:5.0,5.0;" x1="949" x2="949" y1="82.6094" y2="1192.6172"/><line style="stroke:#181818;stroke-width:0.5;stroke-dasharray:5.0,5.0;" x1="1058" x2="1058" y1="82.6094" y2="1192.6172"/><line style="stroke:#181818;stroke-width:0.5;stroke-dasharray:5.0,5.0;" x1="1147" x2="1147" y1="82.6094" y2="1192.6172"/><line style="stroke:#181818;stroke-width:0.5;stroke-dasharray:5.0,5.0;" x1="1245" x2="1245" y1="82.6094" y2="1192.6172"/><line style="stroke:#181818;stroke-width:0.5;stroke-dasharray:5.0,5.0;" x1="1360" x2="1360" y1="82.6094" y2="1192.6172"/><text fill="#000000" font-family="sans-serif" font-size="14" lengthAdjust="spacing" textLength="39" x="5" y="79.5332">Admin</text><ellipse cx="27.5" cy="13.5" fill="#E2E2F0" rx="8" ry="8" style="stroke:#181818;stroke-width:0.5;"/><path d="M27.5,21.5 L27.5,48.5 M14.5,29.5 L40.5,29.5 M27.5,48.5 L14.5,63.5 M27.5,48.5 L40.5,63.5 " fill="none" style="stroke:#181818;stroke-width:0.5;"/><text fill="#000000" font-family="sans-serif" font-size="14" lengthAdjust="spacing" textLength="39" x="5" y="1206.1504">Admin</text><ellipse cx="27.5" cy="1217.7266" fill="#E2E2F0" rx="8" ry="8" style="stroke:#181818;stroke-width:0.5;"/><path d="M27.5,1225.7266 L27.5,1252.7266 M14.5,1233.7266 L40.5,1233.7266 M27.5,1252.7266 L14.5,1267.7266 M27.5,1252.7266 L40.5,1267.7266 " fill="none" style="stroke:#181818;stroke-width:0.5;"/><text fill="#000000" font-family="sans-serif" font-size="14" lengthAdjust="spacing" textLength="59" x="60" y="79.5332">New User</text><ellipse cx="92.5" cy="13.5" fill="#E2E2F0" rx="8" ry="8" style="stroke:#181818;stroke-width:0.5;"/><path d="M92.5,21.5 L92.5,48.5 M79.5,29.5 L105.5,29.5 M92.5,48.5 L79.5,63.5 M92.5,48.5 L105.5,63.5 " fill="none" style="stroke:#181818;stroke-width:0.5;"/><text fill="#000000" font-family="sans-serif" font-size="14" lengthAdjust="spacing" textLength="59" x="60" y="1206.1504">New User</text><ellipse cx="92.5" cy="1217.7266" fill="#E2E2F0" rx="8" ry="8" style="stroke:#181818;stroke-width:0.5;"/><path d="M92.5,1225.7266 L92.5,1252.7266 M79.5,1233.7266 L105.5,1233.7266 M92.5,1252.7266 L79.5,1267.7266 M92.5,1252.7266 L105.5,1267.7266 " fill="none" style="stroke:#181818;stroke-width:0.5;"/><rect fill="#E2E2F0" height="31.6094" rx="2.5" ry="2.5" style="stroke:#181818;stroke-width:0.5;" width="113" x="135" y="50"/><text fill="#000000" font-family="sans-serif" font-size="14" lengthAdjust="spacing" textLength="99" x="142" y="71.5332">React Frontend</text><rect fill="#E2E2F0" height="31.6094" rx="2.5" ry="2.5" style="stroke:#181818;stroke-width:0.5;" width="113" x="135" y="1191.6172"/><text fill="#000000" font-family="sans-serif" font-size="14" lengthAdjust="spacing" textLength="99" x="142" y="1213.1504">React Frontend</text><rect fill="#E2E2F0" height="31.6094" rx="2.5" ry="2.5" style="stroke:#181818;stroke-width:0.5;" width="116" x="471.5" y="50"/><text fill="#000000" font-family="sans-serif" font-size="14" lengthAdjust="spacing" textLength="102" x="478.5" y="71.5332">Ory Oathkeeper</text><rect fill="#E2E2F0" height="31.6094" rx="2.5" ry="2.5" style="stroke:#181818;stroke-width:0.5;" width="116" x="471.5" y="1191.6172"/><text fill="#000000" font-family="sans-serif" font-size="14" lengthAdjust="spacing" textLength="102" x="478.5" y="1213.1504">Ory Oathkeeper</text><rect fill="#E2E2F0" height="31.6094" rx="2.5" ry="2.5" style="stroke:#181818;stroke-width:0.5;" width="147" x="748" y="50"/><text fill="#000000" font-family="sans-serif" font-size="14" lengthAdjust="spacing" textLength="133" x="755" y="71.5332">Spring Boot Backend</text><rect fill="#E2E2F0" height="31.6094" rx="2.5" ry="2.5" style="stroke:#181818;stroke-width:0.5;" width="147" x="748" y="1191.6172"/><text fill="#000000" font-family="sans-serif" font-size="14" lengthAdjust="spacing" textLength="133" x="755" y="1213.1504">Spring Boot Backend</text><rect fill="#E2E2F0" height="49.2188" rx="2.5" ry="2.5" style="stroke:#181818;stroke-width:0.5;" width="88" x="905" y="32.3906"/><text fill="#000000" font-family="sans-serif" font-size="14" lengthAdjust="spacing" textLength="68" x="915" y="53.9238">Ory Kratos</text><text fill="#000000" font-family="sans-serif" font-size="14" lengthAdjust="spacing" textLength="74" x="912" y="71.5332">(Admin API)</text><rect fill="#E2E2F0" height="49.2188" rx="2.5" ry="2.5" style="stroke:#181818;stroke-width:0.5;" width="88" x="905" y="1191.6172"/><text fill="#000000" font-family="sans-serif" font-size="14" lengthAdjust="spacing" textLength="68" x="915" y="1213.1504">Ory Kratos</text><text fill="#000000" font-family="sans-serif" font-size="14" lengthAdjust="spacing" textLength="74" x="912" y="1230.7598">(Admin API)</text><rect fill="#E2E2F0" height="49.2188" rx="2.5" ry="2.5" style="stroke:#181818;stroke-width:0.5;" width="87" x="1015" y="32.3906"/><text fill="#000000" font-family="sans-serif" font-size="14" lengthAdjust="spacing" textLength="68" x="1024.5" y="53.9238">Ory Kratos</text><text fill="#000000" font-family="sans-serif" font-size="14" lengthAdjust="spacing" textLength="73" x="1022" y="71.5332">(Public API)</text><rect fill="#E2E2F0" height="49.2188" rx="2.5" ry="2.5" style="stroke:#181818;stroke-width:0.5;" width="87" x="1015" y="1191.6172"/><text fill="#000000" font-family="sans-serif" font-size="14" lengthAdjust="spacing" textLength="68" x="1024.5" y="1213.1504">Ory Kratos</text><text fill="#000000" font-family="sans-serif" font-size="14" lengthAdjust="spacing" textLength="73" x="1022" y="1230.7598">(Public API)</text><rect fill="#E2E2F0" height="31.6094" rx="2.5" ry="2.5" style="stroke:#181818;stroke-width:0.5;" width="70" x="1112" y="50"/><text fill="#000000" font-family="sans-serif" font-size="14" lengthAdjust="spacing" textLength="56" x="1119" y="71.5332">Ory Keto</text><rect fill="#E2E2F0" height="31.6094" rx="2.5" ry="2.5" style="stroke:#181818;stroke-width:0.5;" width="70" x="1112" y="1191.6172"/><text fill="#000000" font-family="sans-serif" font-size="14" lengthAdjust="spacing" textLength="56" x="1119" y="1213.1504">Ory Keto</text><rect fill="#E2E2F0" height="31.6094" rx="2.5" ry="2.5" style="stroke:#181818;stroke-width:0.5;" width="106" x="1192" y="50"/><text fill="#000000" font-family="sans-serif" font-size="14" lengthAdjust="spacing" textLength="92" x="1199" y="71.5332">Kratos Courier</text><rect fill="#E2E2F0" height="31.6094" rx="2.5" ry="2.5" style="stroke:#181818;stroke-width:0.5;" width="106" x="1192" y="1191.6172"/><text fill="#000000" font-family="sans-serif" font-size="14" lengthAdjust="spacing" textLength="92" x="1199" y="1213.1504">Kratos Courier</text><rect fill="#E2E2F0" height="31.6094" rx="2.5" ry="2.5" style="stroke:#181818;stroke-width:0.5;" width="104" x="1308" y="50"/><text fill="#000000" font-family="sans-serif" font-size="14" lengthAdjust="spacing" textLength="90" x="1315" y="71.5332">SMTP / Mailpit</text><rect fill="#E2E2F0" height="31.6094" rx="2.5" ry="2.5" style="stroke:#181818;stroke-width:0.5;" width="104" x="1308" y="1191.6172"/><text fill="#000000" font-family="sans-serif" font-size="14" lengthAdjust="spacing" textLength="90" x="1315" y="1213.1504">SMTP / Mailpit</text><path d="M84,99.6094 L145,99.6094 L145,107.9609 L135,117.9609 L84,117.9609 L84,99.6094 " fill="#EEEEEE" style="stroke:#000000;stroke-width:1.5;"/><rect fill="none" height="1076.0078" style="stroke:#000000;stroke-width:1.5;" width="1028" x="84" y="99.6094"/><text fill="#000000" font-family="sans-serif" font-size="13" font-weight="bold" lengthAdjust="spacing" textLength="16" x="99" y="114.1045">alt</text><text fill="#000000" font-family="sans-serif" font-size="11" font-weight="bold" lengthAdjust="spacing" textLength="65" x="160" y="113.0283">[Valid code]</text><rect fill="#EEEEEE" height="3" style="stroke:#EEEEEE;stroke-width:1.0;" width="1417" x="0" y="139.1367"/><line style="stroke:#000000;stroke-width:1.0;" x1="0" x2="1417" y1="139.1367" y2="139.1367"/><line style="stroke:#000000;stroke-width:1.0;" x1="0" x2="1417" y1="142.1367" y2="142.1367"/><rect fill="#EEEEEE" height="24.3516" style="stroke:#000000;stroke-width:2.0;" width="185" x="616" y="127.9609"/><text fill="#000000" font-family="sans-serif" font-size="13" font-weight="bold" lengthAdjust="spacing" textLength="167" x="622" y="145.4561">Post-Activation Auto-Login</text><polygon fill="#181818" points="517.5,229.7188,527.5,233.7188,517.5,237.7188,521.5,233.7188" style="stroke:#181818;stroke-width:1.0;"/><line style="stroke:#181818;stroke-width:1.0;" x1="191.5" x2="523.5" y1="233.7188" y2="233.7188"/><text fill="#000000" font-family="sans-serif" font-size="13" lengthAdjust="spacing" textLength="277" x="198.5" y="179.8076">GET auth.irboard.local/self-service/login/browser</text><text fill="#000000" font-family="sans-serif" font-size="13" lengthAdjust="spacing" textLength="151" x="198.5" y="196.1592">+ Accept: application/json</text><text fill="#000000" font-family="sans-serif" font-size="13" lengthAdjust="spacing" textLength="169" x="198.5" y="212.5107">[rule: kratos-self-service-pass</text><text fill="#000000" font-family="sans-serif" font-size="13" lengthAdjust="spacing" textLength="163" x="198.5" y="228.8623">authenticator: noop &#8594; allow]</text><polygon fill="#181818" points="1046.5,260.0703,1056.5,264.0703,1046.5,268.0703,1050.5,264.0703" style="stroke:#181818;stroke-width:1.0;"/><line style="stroke:#181818;stroke-width:1.0;" x1="529.5" x2="1052.5" y1="264.0703" y2="264.0703"/><text fill="#000000" font-family="sans-serif" font-size="13" lengthAdjust="spacing" textLength="178" x="536.5" y="259.2139">GET /self-service/login/browser</text><polygon fill="#181818" points="540.5,323.125,530.5,327.125,540.5,331.125,536.5,327.125" style="stroke:#181818;stroke-width:1.0;"/><line style="stroke:#181818;stroke-width:1.0;stroke-dasharray:2.0,2.0;" x1="534.5" x2="1057.5" y1="327.125" y2="327.125"/><text fill="#000000" font-family="sans-serif" font-size="13" lengthAdjust="spacing" textLength="44" x="546.5" y="289.5654">200 OK</text><text fill="#000000" font-family="sans-serif" font-size="13" lengthAdjust="spacing" textLength="62" x="546.5" y="305.917">{ id: flowId,</text><text fill="#000000" font-family="sans-serif" font-size="13" lengthAdjust="spacing" textLength="169" x="554.5" y="322.2686">ui: { nodes: [{ csrf_token }] } }</text><polygon fill="#181818" points="202.5,353.4766,192.5,357.4766,202.5,361.4766,198.5,357.4766" style="stroke:#181818;stroke-width:1.0;"/><line style="stroke:#181818;stroke-width:1.0;stroke-dasharray:2.0,2.0;" x1="196.5" x2="528.5" y1="357.4766" y2="357.4766"/><text fill="#000000" font-family="sans-serif" font-size="13" lengthAdjust="spacing" textLength="168" x="208.5" y="352.6201">200 OK { id: flowId, ui: { ... } }</text><polygon fill="#181818" points="517.5,449.2344,527.5,453.2344,517.5,457.2344,521.5,453.2344" style="stroke:#181818;stroke-width:1.0;"/><line style="stroke:#181818;stroke-width:1.0;" x1="191.5" x2="523.5" y1="453.2344" y2="453.2344"/><text fill="#000000" font-family="sans-serif" font-size="13" lengthAdjust="spacing" textLength="314" x="198.5" y="382.9717">POST auth.irboard.local/self-service/login?flow={flowId}</text><text fill="#000000" font-family="sans-serif" font-size="13" lengthAdjust="spacing" textLength="213" x="198.5" y="399.3232">{ method: password, identifier: email,</text><text fill="#000000" font-family="sans-serif" font-size="13" lengthAdjust="spacing" textLength="194" x="206.5" y="415.6748">password: password, csrf_token }</text><text fill="#000000" font-family="sans-serif" font-size="13" lengthAdjust="spacing" textLength="169" x="198.5" y="432.0264">[rule: kratos-self-service-pass</text><text fill="#000000" font-family="sans-serif" font-size="13" lengthAdjust="spacing" textLength="163" x="198.5" y="448.3779">authenticator: noop &#8594; allow]</text><polygon fill="#181818" points="1046.5,495.9375,1056.5,499.9375,1046.5,503.9375,1050.5,499.9375" style="stroke:#181818;stroke-width:1.0;"/><line style="stroke:#181818;stroke-width:1.0;" x1="529.5" x2="1052.5" y1="499.9375" y2="499.9375"/><text fill="#000000" font-family="sans-serif" font-size="13" lengthAdjust="spacing" textLength="215" x="536.5" y="478.7295">POST /self-service/login?flow={flowId}</text><text fill="#000000" font-family="sans-serif" font-size="13" lengthAdjust="spacing" textLength="142" x="536.5" y="495.0811">{ method: password, ... }</text><polygon fill="#181818" points="540.5,558.9922,530.5,562.9922,540.5,566.9922,536.5,562.9922" style="stroke:#181818;stroke-width:1.0;"/><line style="stroke:#181818;stroke-width:1.0;stroke-dasharray:2.0,2.0;" x1="534.5" x2="1057.5" y1="562.9922" y2="562.9922"/><text fill="#000000" font-family="sans-serif" font-size="13" lengthAdjust="spacing" textLength="44" x="546.5" y="525.4326">200 OK</text><text fill="#000000" font-family="sans-serif" font-size="13" lengthAdjust="spacing" textLength="268" x="546.5" y="541.7842">{ session: { active: true, identity: { id: oryId } } }</text><text fill="#000000" font-family="sans-serif" font-size="13" lengthAdjust="spacing" textLength="217" x="546.5" y="558.1357">+ Set-Cookie: ory_kratos_session=...</text><polygon fill="#181818" points="202.5,605.6953,192.5,609.6953,202.5,613.6953,198.5,609.6953" style="stroke:#181818;stroke-width:1.0;"/><line style="stroke:#181818;stroke-width:1.0;stroke-dasharray:2.0,2.0;" x1="196.5" x2="528.5" y1="609.6953" y2="609.6953"/><text fill="#000000" font-family="sans-serif" font-size="13" lengthAdjust="spacing" textLength="145" x="208.5" y="588.4873">200 OK { session: { ... } }</text><text fill="#000000" font-family="sans-serif" font-size="13" lengthAdjust="spacing" textLength="217" x="208.5" y="604.8389">+ Set-Cookie: ory_kratos_session=...</text><polygon fill="#181818" points="517.5,668.75,527.5,672.75,517.5,676.75,521.5,672.75" style="stroke:#181818;stroke-width:1.0;"/><line style="stroke:#181818;stroke-width:1.0;" x1="191.5" x2="523.5" y1="672.75" y2="672.75"/><text fill="#000000" font-family="sans-serif" font-size="13" lengthAdjust="spacing" textLength="185" x="198.5" y="635.1904">GET api.irboard.local/v1/whoami</text><text fill="#000000" font-family="sans-serif" font-size="13" lengthAdjust="spacing" textLength="173" x="198.5" y="651.542">+ Cookie: ory_kratos_session</text><text fill="#000000" font-family="sans-serif" font-size="13" lengthAdjust="spacing" textLength="165" x="198.5" y="667.8936">[rule: api-backend-protected]</text><polygon fill="#181818" points="1046.5,715.4531,1056.5,719.4531,1046.5,723.4531,1050.5,719.4531" style="stroke:#181818;stroke-width:1.0;"/><line style="stroke:#181818;stroke-width:1.0;" x1="529.5" x2="1052.5" y1="719.4531" y2="719.4531"/><text fill="#000000" font-family="sans-serif" font-size="13" lengthAdjust="spacing" textLength="134" x="536.5" y="698.2451">GET /sessions/whoami</text><text fill="#000000" font-family="sans-serif" font-size="13" lengthAdjust="spacing" textLength="173" x="536.5" y="714.5967">+ Cookie: ory_kratos_session</text><polygon fill="#181818" points="540.5,745.8047,530.5,749.8047,540.5,753.8047,536.5,749.8047" style="stroke:#181818;stroke-width:1.0;"/><line style="stroke:#181818;stroke-width:1.0;stroke-dasharray:2.0,2.0;" x1="534.5" x2="1057.5" y1="749.8047" y2="749.8047"/><text fill="#000000" font-family="sans-serif" font-size="13" lengthAdjust="spacing" textLength="247" x="546.5" y="744.9482">200 OK { active: true, identity: { id: oryId } }</text><polygon fill="#181818" points="809.5,792.5078,819.5,796.5078,809.5,800.5078,813.5,796.5078" style="stroke:#181818;stroke-width:1.0;"/><line style="stroke:#181818;stroke-width:1.0;" x1="529.5" x2="815.5" y1="796.5078" y2="796.5078"/><text fill="#000000" font-family="sans-serif" font-size="13" lengthAdjust="spacing" textLength="94" x="536.5" y="775.2998">GET /v1/whoami</text><text fill="#000000" font-family="sans-serif" font-size="13" lengthAdjust="spacing" textLength="94" x="536.5" y="791.6514">+ X-User: {oryId}</text><polygon fill="#181818" points="540.5,822.8594,530.5,826.8594,540.5,830.8594,536.5,826.8594" style="stroke:#181818;stroke-width:1.0;"/><line style="stroke:#181818;stroke-width:1.0;stroke-dasharray:2.0,2.0;" x1="534.5" x2="820.5" y1="826.8594" y2="826.8594"/><text fill="#000000" font-family="sans-serif" font-size="13" lengthAdjust="spacing" textLength="112" x="546.5" y="822.0029">200 OK { oryId, ... }</text><polygon fill="#181818" points="202.5,853.2109,192.5,857.2109,202.5,861.2109,198.5,857.2109" style="stroke:#181818;stroke-width:1.0;"/><line style="stroke:#181818;stroke-width:1.0;stroke-dasharray:2.0,2.0;" x1="196.5" x2="528.5" y1="857.2109" y2="857.2109"/><text fill="#000000" font-family="sans-serif" font-size="13" lengthAdjust="spacing" textLength="112" x="208.5" y="852.3545">200 OK { oryId, ... }</text><path d="M117,870.2109 L117,912.2109 L266,912.2109 L266,880.2109 L256,870.2109 L117,870.2109 " fill="#FEFFDD" style="stroke:#181818;stroke-width:0.5;"/><path d="M256,870.2109 L256,880.2109 L266,880.2109 L256,870.2109 " fill="#FEFFDD" style="stroke:#181818;stroke-width:0.5;"/><text fill="#000000" font-family="sans-serif" font-size="13" lengthAdjust="spacing" textLength="128" x="123" y="888.7061">isAuthenticated = true</text><text fill="#000000" font-family="sans-serif" font-size="13" lengthAdjust="spacing" textLength="69" x="123" y="905.0576">navigate("/")</text><line style="stroke:#000000;stroke-width:1.0;stroke-dasharray:2.0,2.0;" x1="84" x2="1112" y1="918.9141" y2="918.9141"/><text fill="#000000" font-family="sans-serif" font-size="11" font-weight="bold" lengthAdjust="spacing" textLength="133" x="89" y="930.333">[Invalid or expired code]</text><polygon fill="#181818" points="832.5,1017.5078,822.5,1021.5078,832.5,1025.5078,828.5,1021.5078" style="stroke:#181818;stroke-width:1.0;"/><line style="stroke:#181818;stroke-width:1.0;stroke-dasharray:2.0,2.0;" x1="826.5" x2="1057.5" y1="1021.5078" y2="1021.5078"/><text fill="#000000" font-family="sans-serif" font-size="13" lengthAdjust="spacing" textLength="100" x="838.5" y="951.2451">400 Bad Request</text><text fill="#000000" font-family="sans-serif" font-size="13" lengthAdjust="spacing" textLength="98" x="838.5" y="967.5967">{ ui: { messages:</text><text fill="#000000" font-family="sans-serif" font-size="13" lengthAdjust="spacing" textLength="83" x="846.5" y="983.9482">[{ id: 4060006,</text><text fill="#000000" font-family="sans-serif" font-size="13" lengthAdjust="spacing" textLength="193" x="858.5" y="1000.2998">text: "The recovery code is invalid</text><text fill="#000000" font-family="sans-serif" font-size="13" lengthAdjust="spacing" textLength="179" x="858.5" y="1016.6514">or has already been used" }] } }</text><polygon fill="#181818" points="540.5,1064.2109,530.5,1068.2109,540.5,1072.2109,536.5,1068.2109" style="stroke:#181818;stroke-width:1.0;"/><line style="stroke:#181818;stroke-width:1.0;stroke-dasharray:2.0,2.0;" x1="534.5" x2="820.5" y1="1068.2109" y2="1068.2109"/><text fill="#000000" font-family="sans-serif" font-size="13" lengthAdjust="spacing" textLength="100" x="546.5" y="1047.0029">400 Bad Request</text><text fill="#000000" font-family="sans-serif" font-size="13" lengthAdjust="spacing" textLength="268" x="546.5" y="1063.3545">{ message: "INVALID_OR_EXPIRED_CODE" }</text><polygon fill="#181818" points="202.5,1094.5625,192.5,1098.5625,202.5,1102.5625,198.5,1098.5625" style="stroke:#181818;stroke-width:1.0;"/><line style="stroke:#181818;stroke-width:1.0;stroke-dasharray:2.0,2.0;" x1="196.5" x2="528.5" y1="1098.5625" y2="1098.5625"/><text fill="#000000" font-family="sans-serif" font-size="13" lengthAdjust="spacing" textLength="100" x="208.5" y="1093.7061">400 Bad Request</text><path d="M94,1111.5625 L94,1170.5625 L289,1170.5625 L289,1121.5625 L279,1111.5625 L94,1111.5625 " fill="#FEFFDD" style="stroke:#181818;stroke-width:0.5;"/><path d="M279,1111.5625 L279,1121.5625 L289,1121.5625 L279,1111.5625 " fill="#FEFFDD" style="stroke:#181818;stroke-width:0.5;"/><text fill="#000000" font-family="sans-serif" font-size="13" lengthAdjust="spacing" textLength="95" x="100" y="1130.0576">Show error alert:</text><text fill="#000000" font-family="sans-serif" font-size="13" lengthAdjust="spacing" textLength="174" x="100" y="1146.4092">"Please verify your credentials</text><text fill="#000000" font-family="sans-serif" font-size="13" lengthAdjust="spacing" textLength="112" x="100" y="1162.7607">and security code."</text><!--SRC=[lLLDRzf04BtxLunyIfGQQ1NbO8bMa90AvGCKqYXIYD1Y3s4Ri-lkhY48vTeVq9_ONzBPjMaCWPJsK9_izPitRzxiphB8I0MDUCA5nzoxVuap-A9H-S0qq8TzzrAc38zuoeG1_me92gTA2eCYThZJrYgae-RGOMRyY9WML2-Vgz1UghXuWAQK1feiUbnIDZTGdYbcfEwBFQSO6jtsliFcwtaPsuEwsJ3XqNfKlheX38tCOVIo-ZiFX6EPALvKLxolbNPntOKgN32UfDmud5toF9OOk649Zo6ICNf0JxqENQbDq8WCdpB39PMN6HcSomUgj5xt7Egq1S77afKGmkVMDR3CZ2jS3ILJSIMH4Kkg6fDHGAsRyWYhYIMf3fMSqKfV740ZYZ0r8R0qfU9TkkfNBKLVtAaimH0UNOb1cIL8cIORRIuKnaP95OAGCeMVtty0In8vktSgI_f8RTdcGkyRwXp1IaYmNl67MWqwPtsn01w7CAAqxVXTNm1aF8G5AOfHXt2tW4YhqS18sbBmV0_FyFnA7L6JfKjAM64iw2gLYWlTvd-tqzkn0PyiSNsHqpzR_HCqOqaPhRCpgIWdZwst8zfA8U24DeuhRFc_Z2mNzn_QvihynwASXN_LM8rQqvwq_ZDx8AWqep9S-cFcOT4hgURjsFR7cd00FJJ1iPIF7DslGUx7eA2hav0_Ru5IxgBtEpA_UK9JlhO_fk-hix5a4sxPjpF_RYqn1CDyFWQfaWOZW_7kvysHwPrIxjoftRkpGMQpjHItuiHjO2yS8d2nUI11jojmkF8UUxEvAsW75sGbo2cX7PBhnij9mHZghhI-46pA7sXbpw_w-vw7YKPeYwaRudHjubFA5PRc-Il_NBs7fAF9OhZ2RnbgOxTwFcKcP3rxeBbbZ_jTxjvXxQXMgnsv2K2FmIUQsFxr645XP1NFNJgI33nNKY19pvZk6fOePF4SXaWp8jD8zsff36uoTOEyGXWbRb_UDCxR9uFErQ1rssrVjKu6nvsJbl-6xMjyc_pkZUKCK2dIp19KXWpmkmaoifSmV3I7ELsj496vjYaiiRDCn7HA8xfnJMv1nVVeM7Y_0000]--></g></svg>