<?xml version="1.0" encoding="us-ascii" standalone="no"?><svg xmlns="http://www.w3.org/2000/svg" xmlns:xlink="http://www.w3.org/1999/xlink" contentStyleType="text/css" height="1122px" preserveAspectRatio="none" style="width:1521px;height:1122px;background:#FFFFFF;" version="1.1" viewBox="0 0 1521 1122" width="1521px" zoomAndPan="magnify"><defs/><g><rect fill="none" height="404.9766" style="stroke:#000000;stroke-width:1.5;" width="914.5" x="295" y="618.3438"/><line style="stroke:#181818;stroke-width:0.5;stroke-dasharray:5.0,5.0;" x1="27" x2="27" y1="82.6094" y2="1040.3203"/><line style="stroke:#181818;stroke-width:0.5;stroke-dasharray:5.0,5.0;" x1="92" x2="92" y1="82.6094" y2="1040.3203"/><line style="stroke:#181818;stroke-width:0.5;stroke-dasharray:5.0,5.0;" x1="361" x2="361" y1="82.6094" y2="1040.3203"/><line style="stroke:#181818;stroke-width:0.5;stroke-dasharray:5.0,5.0;" x1="608.5" x2="608.5" y1="82.6094" y2="1040.3203"/><line style="stroke:#181818;stroke-width:0.5;stroke-dasharray:5.0,5.0;" x1="804" x2="804" y1="82.6094" y2="1040.3203"/><line style="stroke:#181818;stroke-width:0.5;stroke-dasharray:5.0,5.0;" x1="1058.5" x2="1058.5" y1="82.6094" y2="1040.3203"/><line style="stroke:#181818;stroke-width:0.5;stroke-dasharray:5.0,5.0;" x1="1155.5" x2="1155.5" y1="82.6094" y2="1040.3203"/><line style="stroke:#181818;stroke-width:0.5;stroke-dasharray:5.0,5.0;" x1="1244.5" x2="1244.5" y1="82.6094" y2="1040.3203"/><line style="stroke:#181818;stroke-width:0.5;stroke-dasharray:5.0,5.0;" x1="1342.5" x2="1342.5" y1="82.6094" y2="1040.3203"/><line style="stroke:#181818;stroke-width:0.5;stroke-dasharray:5.0,5.0;" x1="1457.5" x2="1457.5" y1="82.6094" y2="1040.3203"/><text fill="#000000" font-family="sans-serif" font-size="14" lengthAdjust="spacing" textLength="39" x="5" y="79.5332">Admin</text><ellipse cx="27.5" cy="13.5" fill="#E2E2F0" rx="8" ry="8" style="stroke:#181818;stroke-width:0.5;"/><path d="M27.5,21.5 L27.5,48.5 M14.5,29.5 L40.5,29.5 M27.5,48.5 L14.5,63.5 M27.5,48.5 L40.5,63.5 " fill="none" style="stroke:#181818;stroke-width:0.5;"/><text fill="#000000" font-family="sans-serif" font-size="14" lengthAdjust="spacing" textLength="39" x="5" y="1053.8535">Admin</text><ellipse cx="27.5" cy="1065.4297" fill="#E2E2F0" rx="8" ry="8" style="stroke:#181818;stroke-width:0.5;"/><path d="M27.5,1073.4297 L27.5,1100.4297 M14.5,1081.4297 L40.5,1081.4297 M27.5,1100.4297 L14.5,1115.4297 M27.5,1100.4297 L40.5,1115.4297 " fill="none" style="stroke:#181818;stroke-width:0.5;"/><text fill="#000000" font-family="sans-serif" font-size="14" lengthAdjust="spacing" textLength="59" x="60" y="79.5332">New User</text><ellipse cx="92.5" cy="13.5" fill="#E2E2F0" rx="8" ry="8" style="stroke:#181818;stroke-width:0.5;"/><path d="M92.5,21.5 L92.5,48.5 M79.5,29.5 L105.5,29.5 M92.5,48.5 L79.5,63.5 M92.5,48.5 L105.5,63.5 " fill="none" style="stroke:#181818;stroke-width:0.5;"/><text fill="#000000" font-family="sans-serif" font-size="14" lengthAdjust="spacing" textLength="59" x="60" y="1053.8535">New User</text><ellipse cx="92.5" cy="1065.4297" fill="#E2E2F0" rx="8" ry="8" style="stroke:#181818;stroke-width:0.5;"/><path d="M92.5,1073.4297 L92.5,1100.4297 M79.5,1081.4297 L105.5,1081.4297 M92.5,1100.4297 L79.5,1115.4297 M92.5,1100.4297 L105.5,1115.4297 " fill="none" style="stroke:#181818;stroke-width:0.5;"/><rect fill="#E2E2F0" height="31.6094" rx="2.5" ry="2.5" style="stroke:#181818;stroke-width:0.5;" width="113" x="305" y="50"/><text fill="#000000" font-family="sans-serif" font-size="14" lengthAdjust="spacing" textLength="99" x="312" y="71.5332">React Frontend</text><rect fill="#E2E2F0" height="31.6094" rx="2.5" ry="2.5" style="stroke:#181818;stroke-width:0.5;" width="113" x="305" y="1039.3203"/><text fill="#000000" font-family="sans-serif" font-size="14" lengthAdjust="spacing" textLength="99" x="312" y="1060.8535">React Frontend</text><rect fill="#E2E2F0" height="31.6094" rx="2.5" ry="2.5" style="stroke:#181818;stroke-width:0.5;" width="116" x="550.5" y="50"/><text fill="#000000" font-family="sans-serif" font-size="14" lengthAdjust="spacing" textLength="102" x="557.5" y="71.5332">Ory Oathkeeper</text><rect fill="#E2E2F0" height="31.6094" rx="2.5" ry="2.5" style="stroke:#181818;stroke-width:0.5;" width="116" x="550.5" y="1039.3203"/><text fill="#000000" font-family="sans-serif" font-size="14" lengthAdjust="spacing" textLength="102" x="557.5" y="1060.8535">Ory Oathkeeper</text><rect fill="#E2E2F0" height="31.6094" rx="2.5" ry="2.5" style="stroke:#181818;stroke-width:0.5;" width="147" x="731" y="50"/><text fill="#000000" font-family="sans-serif" font-size="14" lengthAdjust="spacing" textLength="133" x="738" y="71.5332">Spring Boot Backend</text><rect fill="#E2E2F0" height="31.6094" rx="2.5" ry="2.5" style="stroke:#181818;stroke-width:0.5;" width="147" x="731" y="1039.3203"/><text fill="#000000" font-family="sans-serif" font-size="14" lengthAdjust="spacing" textLength="133" x="738" y="1060.8535">Spring Boot Backend</text><rect fill="#E2E2F0" height="49.2188" rx="2.5" ry="2.5" style="stroke:#181818;stroke-width:0.5;" width="88" x="1014.5" y="32.3906"/><text fill="#000000" font-family="sans-serif" font-size="14" lengthAdjust="spacing" textLength="68" x="1024.5" y="53.9238">Ory Kratos</text><text fill="#000000" font-family="sans-serif" font-size="14" lengthAdjust="spacing" textLength="74" x="1021.5" y="71.5332">(Admin API)</text><rect fill="#E2E2F0" height="49.2188" rx="2.5" ry="2.5" style="stroke:#181818;stroke-width:0.5;" width="88" x="1014.5" y="1039.3203"/><text fill="#000000" font-family="sans-serif" font-size="14" lengthAdjust="spacing" textLength="68" x="1024.5" y="1060.8535">Ory Kratos</text><text fill="#000000" font-family="sans-serif" font-size="14" lengthAdjust="spacing" textLength="74" x="1021.5" y="1078.4629">(Admin API)</text><rect fill="#E2E2F0" height="49.2188" rx="2.5" ry="2.5" style="stroke:#181818;stroke-width:0.5;" width="87" x="1112.5" y="32.3906"/><text fill="#000000" font-family="sans-serif" font-size="14" lengthAdjust="spacing" textLength="68" x="1122" y="53.9238">Ory Kratos</text><text fill="#000000" font-family="sans-serif" font-size="14" lengthAdjust="spacing" textLength="73" x="1119.5" y="71.5332">(Public API)</text><rect fill="#E2E2F0" height="49.2188" rx="2.5" ry="2.5" style="stroke:#181818;stroke-width:0.5;" width="87" x="1112.5" y="1039.3203"/><text fill="#000000" font-family="sans-serif" font-size="14" lengthAdjust="spacing" textLength="68" x="1122" y="1060.8535">Ory Kratos</text><text fill="#000000" font-family="sans-serif" font-size="14" lengthAdjust="spacing" textLength="73" x="1119.5" y="1078.4629">(Public API)</text><rect fill="#E2E2F0" height="31.6094" rx="2.5" ry="2.5" style="stroke:#181818;stroke-width:0.5;" width="70" x="1209.5" y="50"/><text fill="#000000" font-family="sans-serif" font-size="14" lengthAdjust="spacing" textLength="56" x="1216.5" y="71.5332">Ory Keto</text><rect fill="#E2E2F0" height="31.6094" rx="2.5" ry="2.5" style="stroke:#181818;stroke-width:0.5;" width="70" x="1209.5" y="1039.3203"/><text fill="#000000" font-family="sans-serif" font-size="14" lengthAdjust="spacing" textLength="56" x="1216.5" y="1060.8535">Ory Keto</text><rect fill="#E2E2F0" height="31.6094" rx="2.5" ry="2.5" style="stroke:#181818;stroke-width:0.5;" width="106" x="1289.5" y="50"/><text fill="#000000" font-family="sans-serif" font-size="14" lengthAdjust="spacing" textLength="92" x="1296.5" y="71.5332">Kratos Courier</text><rect fill="#E2E2F0" height="31.6094" rx="2.5" ry="2.5" style="stroke:#181818;stroke-width:0.5;" width="106" x="1289.5" y="1039.3203"/><text fill="#000000" font-family="sans-serif" font-size="14" lengthAdjust="spacing" textLength="92" x="1296.5" y="1060.8535">Kratos Courier</text><rect fill="#E2E2F0" height="31.6094" rx="2.5" ry="2.5" style="stroke:#181818;stroke-width:0.5;" width="104" x="1405.5" y="50"/><text fill="#000000" font-family="sans-serif" font-size="14" lengthAdjust="spacing" textLength="90" x="1412.5" y="71.5332">SMTP / Mailpit</text><rect fill="#E2E2F0" height="31.6094" rx="2.5" ry="2.5" style="stroke:#181818;stroke-width:0.5;" width="104" x="1405.5" y="1039.3203"/><text fill="#000000" font-family="sans-serif" font-size="14" lengthAdjust="spacing" textLength="90" x="1412.5" y="1060.8535">SMTP / Mailpit</text><rect fill="#EEEEEE" height="3" style="stroke:#EEEEEE;stroke-width:1.0;" width="1514.5" x="0" y="113.7852"/><line style="stroke:#000000;stroke-width:1.0;" x1="0" x2="1514.5" y1="113.7852" y2="113.7852"/><line style="stroke:#000000;stroke-width:1.0;" x1="0" x2="1514.5" y1="116.7852" y2="116.7852"/><rect fill="#EEEEEE" height="24.3516" style="stroke:#000000;stroke-width:2.0;" width="204" x="655.25" y="102.6094"/><text fill="#000000" font-family="sans-serif" font-size="13" font-weight="bold" lengthAdjust="spacing" textLength="186" x="661.25" y="120.1045">New User: Account Activation</text><polygon fill="#181818" points="1445.5,171.6641,1455.5,175.6641,1445.5,179.6641,1449.5,175.6641" style="stroke:#181818;stroke-width:1.0;"/><line style="stroke:#181818;stroke-width:1.0;" x1="92.5" x2="1451.5" y1="175.6641" y2="175.6641"/><text fill="#000000" font-family="sans-serif" font-size="13" lengthAdjust="spacing" textLength="101" x="99.5" y="154.4561">Open email client</text><text fill="#000000" font-family="sans-serif" font-size="13" lengthAdjust="spacing" textLength="77" x="99.5" y="170.8076">(or Mailpit UI)</text><polygon fill="#181818" points="103.5,218.3672,93.5,222.3672,103.5,226.3672,99.5,222.3672" style="stroke:#181818;stroke-width:1.0;"/><line style="stroke:#181818;stroke-width:1.0;stroke-dasharray:2.0,2.0;" x1="97.5" x2="1456.5" y1="222.3672" y2="222.3672"/><text fill="#000000" font-family="sans-serif" font-size="13" lengthAdjust="spacing" textLength="120" x="109.5" y="201.1592">Recovery code email</text><text fill="#000000" font-family="sans-serif" font-size="13" lengthAdjust="spacing" textLength="130" x="109.5" y="217.5107">{ code: recoveryCode }</text><polygon fill="#181818" points="349.5,281.4219,359.5,285.4219,349.5,289.4219,353.5,285.4219" style="stroke:#181818;stroke-width:1.0;"/><line style="stroke:#181818;stroke-width:1.0;" x1="92.5" x2="355.5" y1="285.4219" y2="285.4219"/><text fill="#000000" font-family="sans-serif" font-size="13" lengthAdjust="spacing" textLength="136" x="99.5" y="247.8623">Navigate to /registration</text><text fill="#000000" font-family="sans-serif" font-size="13" lengthAdjust="spacing" textLength="124" x="99.5" y="264.2139">and fill activation form</text><text fill="#000000" font-family="sans-serif" font-size="13" lengthAdjust="spacing" textLength="245" x="99.5" y="280.5654">(email, code, password, confirmPassword)</text><path d="M258,298.4219 L258,357.4219 L465,357.4219 L465,308.4219 L455,298.4219 L258,298.4219 " fill="#FEFFDD" style="stroke:#181818;stroke-width:0.5;"/><path d="M455,298.4219 L455,308.4219 L465,308.4219 L455,298.4219 " fill="#FEFFDD" style="stroke:#181818;stroke-width:0.5;"/><text fill="#000000" font-family="sans-serif" font-size="13" lengthAdjust="spacing" textLength="105" x="264" y="316.917">Frontend validates</text><text fill="#000000" font-family="sans-serif" font-size="13" lengthAdjust="spacing" textLength="186" x="264" y="333.2686">password === confirmPassword</text><text fill="#000000" font-family="sans-serif" font-size="13" lengthAdjust="spacing" textLength="99" x="264" y="349.6201">before submitting</text><polygon fill="#181818" points="596.5,429.8828,606.5,433.8828,596.5,437.8828,600.5,433.8828" style="stroke:#181818;stroke-width:1.0;"/><line style="stroke:#181818;stroke-width:1.0;" x1="361.5" x2="602.5" y1="433.8828" y2="433.8828"/><text fill="#000000" font-family="sans-serif" font-size="13" lengthAdjust="spacing" textLength="223" x="368.5" y="379.9717">POST api.irboard.local/v1/auth/activate</text><text fill="#000000" font-family="sans-serif" font-size="13" lengthAdjust="spacing" textLength="158" x="368.5" y="396.3232">+ { email, code, password }</text><text fill="#000000" font-family="sans-serif" font-size="13" lengthAdjust="spacing" textLength="189" x="368.5" y="412.6748">[rule: api-backend-activate-public</text><text fill="#000000" font-family="sans-serif" font-size="13" lengthAdjust="spacing" textLength="163" x="368.5" y="429.0264">authenticator: noop &#8594; allow]</text><polygon fill="#181818" points="792.5,492.9375,802.5,496.9375,792.5,500.9375,796.5,496.9375" style="stroke:#181818;stroke-width:1.0;"/><line style="stroke:#181818;stroke-width:1.0;" x1="608.5" x2="798.5" y1="496.9375" y2="496.9375"/><text fill="#000000" font-family="sans-serif" font-size="13" lengthAdjust="spacing" textLength="132" x="615.5" y="459.3779">POST /v1/auth/activate</text><text fill="#000000" font-family="sans-serif" font-size="13" lengthAdjust="spacing" textLength="158" x="615.5" y="475.7295">+ { email, code, password }</text><text fill="#000000" font-family="sans-serif" font-size="13" lengthAdjust="spacing" textLength="172" x="615.5" y="492.0811">(no X-User &#8212; public endpoint)</text><line style="stroke:#181818;stroke-width:1.0;" x1="804.5" x2="846.5" y1="543.6406" y2="543.6406"/><line style="stroke:#181818;stroke-width:1.0;" x1="846.5" x2="846.5" y1="543.6406" y2="556.6406"/><line style="stroke:#181818;stroke-width:1.0;" x1="805.5" x2="846.5" y1="556.6406" y2="556.6406"/><polygon fill="#181818" points="815.5,552.6406,805.5,556.6406,815.5,560.6406,811.5,556.6406" style="stroke:#181818;stroke-width:1.0;"/><text fill="#000000" font-family="sans-serif" font-size="13" lengthAdjust="spacing" textLength="199" x="811.5" y="522.4326">userRepository.findByEmail(email)</text><text fill="#000000" font-family="sans-serif" font-size="13" lengthAdjust="spacing" textLength="240" x="811.5" y="538.7842">&#8594; retrieve pendingActivationToken (flowId)</text><polygon fill="#181818" points="1144,599.3438,1154,603.3438,1144,607.3438,1148,603.3438" style="stroke:#181818;stroke-width:1.0;"/><line style="stroke:#181818;stroke-width:1.0;" x1="804.5" x2="1150" y1="603.3438" y2="603.3438"/><text fill="#000000" font-family="sans-serif" font-size="13" lengthAdjust="spacing" textLength="236" x="811.5" y="582.1357">POST /self-service/recovery?flow={flowId}</text><text fill="#000000" font-family="sans-serif" font-size="13" lengthAdjust="spacing" textLength="217" x="811.5" y="598.4873">{ method: code, code: recoveryCode }</text><path d="M295,618.3438 L356,618.3438 L356,626.6953 L346,636.6953 L295,636.6953 L295,618.3438 " fill="#EEEEEE" style="stroke:#000000;stroke-width:1.5;"/><rect fill="none" height="404.9766" style="stroke:#000000;stroke-width:1.5;" width="914.5" x="295" y="618.3438"/><text fill="#000000" font-family="sans-serif" font-size="13" font-weight="bold" lengthAdjust="spacing" textLength="16" x="310" y="632.8389">alt</text><text fill="#000000" font-family="sans-serif" font-size="11" font-weight="bold" lengthAdjust="spacing" textLength="65" x="371" y="631.7627">[Valid code]</text><polygon fill="#181818" points="815.5,687.75,805.5,691.75,815.5,695.75,811.5,691.75" style="stroke:#181818;stroke-width:1.0;"/><line style="stroke:#181818;stroke-width:1.0;stroke-dasharray:2.0,2.0;" x1="809.5" x2="1155" y1="691.75" y2="691.75"/><text fill="#000000" font-family="sans-serif" font-size="13" lengthAdjust="spacing" textLength="149" x="821.5" y="654.1904">422 Unprocessable Entity</text><text fill="#000000" font-family="sans-serif" font-size="13" lengthAdjust="spacing" textLength="173" x="821.5" y="670.542">(expected &#8212; flow advanced to</text><text fill="#000000" font-family="sans-serif" font-size="13" lengthAdjust="spacing" textLength="182" x="821.5" y="686.8936">settings phase, code accepted)</text><polygon fill="#181818" points="1046.5,799.8594,1056.5,803.8594,1046.5,807.8594,1050.5,803.8594" style="stroke:#181818;stroke-width:1.0;"/><line style="stroke:#181818;stroke-width:1.0;" x1="804.5" x2="1052.5" y1="803.8594" y2="803.8594"/><text fill="#000000" font-family="sans-serif" font-size="13" lengthAdjust="spacing" textLength="164" x="811.5" y="717.2451">PUT /admin/identities/{oryId}</text><text fill="#000000" font-family="sans-serif" font-size="13" lengthAdjust="spacing" textLength="102" x="811.5" y="733.5967">+ Bearer {apiKey}</text><text fill="#000000" font-family="sans-serif" font-size="13" lengthAdjust="spacing" textLength="199" x="811.5" y="749.9482">{ schema_id: default, state: active,</text><text fill="#000000" font-family="sans-serif" font-size="13" lengthAdjust="spacing" textLength="69" x="819.5" y="766.2998">traits: { ... },</text><text fill="#000000" font-family="sans-serif" font-size="13" lengthAdjust="spacing" textLength="188" x="819.5" y="782.6514">credentials: { password: { config:</text><text fill="#000000" font-family="sans-serif" font-size="13" lengthAdjust="spacing" textLength="158" x="827.5" y="799.0029">{ password: password } } } }</text><polygon fill="#181818" points="815.5,846.5625,805.5,850.5625,815.5,854.5625,811.5,850.5625" style="stroke:#181818;stroke-width:1.0;"/><line style="stroke:#181818;stroke-width:1.0;stroke-dasharray:2.0,2.0;" x1="809.5" x2="1057.5" y1="850.5625" y2="850.5625"/><text fill="#000000" font-family="sans-serif" font-size="13" lengthAdjust="spacing" textLength="44" x="821.5" y="829.3545">200 OK</text><text fill="#000000" font-family="sans-serif" font-size="13" lengthAdjust="spacing" textLength="149" x="821.5" y="845.7061">(password set on identity)</text><line style="stroke:#181818;stroke-width:1.0;" x1="804.5" x2="846.5" y1="913.6172" y2="913.6172"/><line style="stroke:#181818;stroke-width:1.0;" x1="846.5" x2="846.5" y1="913.6172" y2="926.6172"/><line style="stroke:#181818;stroke-width:1.0;" x1="805.5" x2="846.5" y1="926.6172" y2="926.6172"/><polygon fill="#181818" points="815.5,922.6172,805.5,926.6172,815.5,930.6172,811.5,926.6172" style="stroke:#181818;stroke-width:1.0;"/><text fill="#000000" font-family="sans-serif" font-size="13" lengthAdjust="spacing" textLength="112" x="811.5" y="876.0576">user.setActive(true)</text><text fill="#000000" font-family="sans-serif" font-size="13" lengthAdjust="spacing" textLength="213" x="811.5" y="892.4092">user.setPendingActivationToken(null)</text><text fill="#000000" font-family="sans-serif" font-size="13" lengthAdjust="spacing" textLength="150" x="811.5" y="908.7607">userRepository.save(user)</text><polygon fill="#181818" points="619.5,952.9688,609.5,956.9688,619.5,960.9688,615.5,956.9688" style="stroke:#181818;stroke-width:1.0;"/><line style="stroke:#181818;stroke-width:1.0;stroke-dasharray:2.0,2.0;" x1="613.5" x2="803.5" y1="956.9688" y2="956.9688"/><text fill="#000000" font-family="sans-serif" font-size="13" lengthAdjust="spacing" textLength="158" x="625.5" y="952.1123">200 OK { userId, email, ... }</text><polygon fill="#181818" points="372.5,983.3203,362.5,987.3203,372.5,991.3203,368.5,987.3203" style="stroke:#181818;stroke-width:1.0;"/><line style="stroke:#181818;stroke-width:1.0;stroke-dasharray:2.0,2.0;" x1="366.5" x2="607.5" y1="987.3203" y2="987.3203"/><text fill="#000000" font-family="sans-serif" font-size="13" lengthAdjust="spacing" textLength="158" x="378.5" y="982.4639">200 OK { userId, email, ... }</text><rect fill="#EEEEEE" height="3" style="stroke:#EEEEEE;stroke-width:1.0;" width="1514.5" x="0" y="1008.3203"/><line style="stroke:#000000;stroke-width:1.0;" x1="0" x2="1514.5" y1="1008.3203" y2="1008.3203"/><line style="stroke:#000000;stroke-width:1.0;" x1="0" x2="1514.5" y1="1011.3203" y2="1011.3203"/><!--SRC=[bLJRQXin47tVhnZoP1FRcuO-BRZ53WwOaDWaSIbqIv6rOrj4bXP9wzGOGv_w0QLVc2_fIBlh6swXzijAcZDppioH67VQG2zR2XMny7tnWAymiMWkW5cWXV-EScQSu29doi758r8et1gj7AeinDqEZaD6PWqZvXOlY7cLQhyy3dtAZL1pw6ljeC_uIvsoVoRbdM5EsrGr0cFeZOVD45lkbpB-3XeNKoduAQhSFGD3fyim-ZW-Be5memiZAdNLzucq- -Snn73FXCo52t5-AugwNQZRd42FSrrGU8yxiM9EQ0NTRXHLhOVsXm2214OvAi0bPGCk1If7ccXYLNgO39jHY6mJf4Ody8XShv04SPrX2K_L9gmICDNXZJ_R7XMz7H3uWQt4d3a4fo4sE1VMcK0nLKnbC1DI0jlpdccp95AXI2kKQ47Eh7tL9lDhDHDcEQuscb6aDANs1CfgjQLWnQJ8g2nDhOPJJxgd6L8rHIg9O8lfKZX7FeeYoaJizswZlEFHqpEmN7I4cMfciexKdCbuzIvcXLl4bG1CrILiu2nvsARgYoaajOpojAUbJzirifq74r5JA1yDHd0o28rMQPt3syzVmAJKhr-Z0rR4iJ-ekVqlbORIyBaT9lNsupUKrO4OvLeeHutj3tO52efwn5nRGPJMdPbGMNyzy9dBEJLJvHaQT6JW5GAPBAD6xjtuh4ahD6QaO9ZjSXzUdfqCYtBMfdehmJ6klVNH8xkR4h_rtbkYM-WigOITToAJ3Zvv6uJp2EXtLB9Twtj_VGqJbHlDqLesbGW36e1RUnz-pv4xp4AJV7rWsOefJZjEfyfYi8o5VC5iHOJSp34d30drDG_5beyEQPsGLEONiSZyj9r06s-ekq7V9VIH6HhDXgnoX-iWsV85TVkR8DKPpbWXNGkieqadvVt1Lge0w789PnCQVQVJWMtOumP34IR3GMq3_nskmppnKN1qjFTA-JzeNobYrxthgoiOtL6lTX3g2j1LhfIjZ_gmCrI7ee93iE5CWUIXUdTyrZuDLKXPHHsOqJ9AuFUQkoAdTxSaIEfys91UaUfIX0O5rE6bgj-jVwC2Z9uJ_yuItJy0]--></g></svg>