<?xml version="1.0" encoding="us-ascii" standalone="no"?><svg xmlns="http://www.w3.org/2000/svg" xmlns:xlink="http://www.w3.org/1999/xlink" contentStyleType="text/css" height="958px" preserveAspectRatio="none" style="width:905px;height:958px;background:#FFFFFF;" version="1.1" viewBox="0 0 905 958" width="905px" zoomAndPan="magnify"><defs/><g><text fill="#000000" font-family="sans-serif" font-size="14" font-weight="bold" lengthAdjust="spacing" textLength="222" x="334.5" y="24.5332">Architecture diagram (IR-Board)</text><!--cluster Network: public--><g id="cluster_Network: public"><path d="M8.5,169.1094 L118.5,169.1094 A3.75,3.75 0 0 1 121,171.6094 L128,192.7188 L345.5,192.7188 A2.5,2.5 0 0 1 348,195.2188 L348,506.6094 A2.5,2.5 0 0 1 345.5,509.1094 L8.5,509.1094 A2.5,2.5 0 0 1 6,506.6094 L6,171.6094 A2.5,2.5 0 0 1 8.5,169.1094 " fill="none" style="stroke:#000000;stroke-width:1.0;stroke-dasharray:1.0,3.0;"/><line style="stroke:#000000;stroke-width:1.0;stroke-dasharray:1.0,3.0;" x1="6" x2="128" y1="192.7188" y2="192.7188"/><text fill="#000000" font-family="sans-serif" font-size="14" font-weight="bold" lengthAdjust="spacing" textLength="109" x="10" y="185.6426">Network: public</text></g><!--cluster Network: internal--><g id="cluster_Network: internal"><path d="M374.5,409.1094 L495.5,409.1094 A3.75,3.75 0 0 1 498,411.6094 L505,432.7188 L895.5,432.7188 A2.5,2.5 0 0 1 898,435.2188 L898,948.6094 A2.5,2.5 0 0 1 895.5,951.1094 L374.5,951.1094 A2.5,2.5 0 0 1 372,948.6094 L372,411.6094 A2.5,2.5 0 0 1 374.5,409.1094 " fill="#F0F8FF" style="stroke:#000000;stroke-width:1.5;"/><line style="stroke:#000000;stroke-width:1.5;" x1="372" x2="505" y1="432.7188" y2="432.7188"/><text fill="#000000" font-family="sans-serif" font-size="14" font-weight="bold" lengthAdjust="spacing" textLength="120" x="376" y="425.6426">Network: internal</text></g><!--entity front--><g id="elem_front"><rect fill="#F1F1F1" height="47.6094" rx="2.5" ry="2.5" style="stroke:#181818;stroke-width:0.5;" width="132" x="200" y="314.1094"/><rect fill="#F1F1F1" height="10" style="stroke:#181818;stroke-width:0.5;" width="15" x="312" y="319.1094"/><rect fill="#F1F1F1" height="2" style="stroke:#181818;stroke-width:0.5;" width="4" x="310" y="321.1094"/><rect fill="#F1F1F1" height="2" style="stroke:#181818;stroke-width:0.5;" width="4" x="310" y="325.1094"/><text fill="#000000" font-family="sans-serif" font-size="14" lengthAdjust="spacing" textLength="92" x="215" y="348.6426">RMS Frontend</text></g><!--entity gateway--><g id="elem_gateway"><rect fill="#F1F1F1" height="47.6094" rx="2.5" ry="2.5" style="stroke:#181818;stroke-width:0.5;" width="84" x="224" y="205.1094"/><rect fill="#F1F1F1" height="10" style="stroke:#181818;stroke-width:0.5;" width="15" x="288" y="210.1094"/><rect fill="#F1F1F1" height="2" style="stroke:#181818;stroke-width:0.5;" width="4" x="286" y="212.1094"/><rect fill="#F1F1F1" height="2" style="stroke:#181818;stroke-width:0.5;" width="4" x="286" y="216.1094"/><text fill="#000000" font-family="sans-serif" font-size="14" lengthAdjust="spacing" textLength="44" x="239" y="239.6426">Traefik</text></g><!--entity minio--><g id="elem_minio"><rect fill="#F1F1F1" height="47.6094" rx="2.5" ry="2.5" style="stroke:#181818;stroke-width:0.5;" width="135" x="109.5" y="445.1094"/><rect fill="#F1F1F1" height="10" style="stroke:#181818;stroke-width:0.5;" width="15" x="224.5" y="450.1094"/><rect fill="#F1F1F1" height="2" style="stroke:#181818;stroke-width:0.5;" width="4" x="222.5" y="452.1094"/><rect fill="#F1F1F1" height="2" style="stroke:#181818;stroke-width:0.5;" width="4" x="222.5" y="456.1094"/><text fill="#000000" font-family="sans-serif" font-size="14" lengthAdjust="spacing" textLength="95" x="124.5" y="479.6426">Object Storage</text></g><!--entity proxy--><g id="elem_proxy"><rect fill="#F1F1F1" height="47.6094" rx="2.5" ry="2.5" style="stroke:#181818;stroke-width:0.5;" width="142" x="417" y="445.1094"/><rect fill="#F1F1F1" height="10" style="stroke:#181818;stroke-width:0.5;" width="15" x="539" y="450.1094"/><rect fill="#F1F1F1" height="2" style="stroke:#181818;stroke-width:0.5;" width="4" x="537" y="452.1094"/><rect fill="#F1F1F1" height="2" style="stroke:#181818;stroke-width:0.5;" width="4" x="537" y="456.1094"/><text fill="#000000" font-family="sans-serif" font-size="14" lengthAdjust="spacing" textLength="102" x="432" y="479.6426">Ory Oathkeeper</text></g><!--entity kratos--><g id="elem_kratos"><rect fill="#F1F1F1" height="47.6094" rx="2.5" ry="2.5" style="stroke:#181818;stroke-width:0.5;" width="108" x="388" y="761.1094"/><rect fill="#F1F1F1" height="10" style="stroke:#181818;stroke-width:0.5;" width="15" x="476" y="766.1094"/><rect fill="#F1F1F1" height="2" style="stroke:#181818;stroke-width:0.5;" width="4" x="474" y="768.1094"/><rect fill="#F1F1F1" height="2" style="stroke:#181818;stroke-width:0.5;" width="4" x="474" y="772.1094"/><text fill="#000000" font-family="sans-serif" font-size="14" lengthAdjust="spacing" textLength="68" x="403" y="795.6426">Ory Kratos</text></g><!--entity keto--><g id="elem_keto"><rect fill="#F1F1F1" height="47.6094" rx="2.5" ry="2.5" style="stroke:#181818;stroke-width:0.5;" width="96" x="708" y="761.1094"/><rect fill="#F1F1F1" height="10" style="stroke:#181818;stroke-width:0.5;" width="15" x="784" y="766.1094"/><rect fill="#F1F1F1" height="2" style="stroke:#181818;stroke-width:0.5;" width="4" x="782" y="768.1094"/><rect fill="#F1F1F1" height="2" style="stroke:#181818;stroke-width:0.5;" width="4" x="782" y="772.1094"/><text fill="#000000" font-family="sans-serif" font-size="14" lengthAdjust="spacing" textLength="56" x="723" y="795.6426">Ory Keto</text></g><!--entity backend--><g id="elem_backend"><rect fill="#F1F1F1" height="47.6094" rx="2.5" ry="2.5" style="stroke:#181818;stroke-width:0.5;" width="129" x="478.5" y="635.1094"/><rect fill="#F1F1F1" height="10" style="stroke:#181818;stroke-width:0.5;" width="15" x="587.5" y="640.1094"/><rect fill="#F1F1F1" height="2" style="stroke:#181818;stroke-width:0.5;" width="4" x="585.5" y="642.1094"/><rect fill="#F1F1F1" height="2" style="stroke:#181818;stroke-width:0.5;" width="4" x="585.5" y="646.1094"/><text fill="#000000" font-family="sans-serif" font-size="14" lengthAdjust="spacing" textLength="89" x="493.5" y="669.6426">RMS Backend</text></g><!--entity mail--><g id="elem_mail"><rect fill="#F1F1F1" height="47.6094" rx="2.5" ry="2.5" style="stroke:#181818;stroke-width:0.5;" width="80" x="388" y="887.1094"/><rect fill="#F1F1F1" height="10" style="stroke:#181818;stroke-width:0.5;" width="15" x="448" y="892.1094"/><rect fill="#F1F1F1" height="2" style="stroke:#181818;stroke-width:0.5;" width="4" x="446" y="894.1094"/><rect fill="#F1F1F1" height="2" style="stroke:#181818;stroke-width:0.5;" width="4" x="446" y="898.1094"/><text fill="#000000" font-family="sans-serif" font-size="14" lengthAdjust="spacing" textLength="40" x="403" y="921.6426">Mailpit</text></g><!--entity db_rms--><g id="elem_db_rms"><path d="M531.5,771.6094 C531.5,761.6094 602,761.6094 602,761.6094 C602,761.6094 672.5,761.6094 672.5,771.6094 L672.5,798.2188 C672.5,808.2188 602,808.2188 602,808.2188 C602,808.2188 531.5,808.2188 531.5,798.2188 L531.5,771.6094 " fill="#F1F1F1" style="stroke:#181818;stroke-width:0.5;"/><path d="M531.5,771.6094 C531.5,781.6094 602,781.6094 602,781.6094 C602,781.6094 672.5,781.6094 672.5,771.6094 " fill="none" style="stroke:#181818;stroke-width:0.5;"/><text fill="#000000" font-family="sans-serif" font-size="14" lengthAdjust="spacing" textLength="121" x="541.5" y="800.1426">PostgreSQL (RMS)</text></g><!--entity db_auth--><g id="elem_db_auth"><path d="M503,897.6094 C503,887.6094 581,887.6094 581,887.6094 C581,887.6094 659,887.6094 659,897.6094 L659,924.2188 C659,934.2188 581,934.2188 581,934.2188 C581,934.2188 503,934.2188 503,924.2188 L503,897.6094 " fill="#F1F1F1" style="stroke:#181818;stroke-width:0.5;"/><path d="M503,897.6094 C503,907.6094 581,907.6094 581,907.6094 C581,907.6094 659,907.6094 659,897.6094 " fill="none" style="stroke:#181818;stroke-width:0.5;"/><text fill="#000000" font-family="sans-serif" font-size="14" lengthAdjust="spacing" textLength="136" x="513" y="926.1426">PostgreSQL (Identity)</text></g><!--entity db_perm--><g id="elem_db_perm"><path d="M694.5,897.6094 C694.5,887.6094 788,887.6094 788,887.6094 C788,887.6094 881.5,887.6094 881.5,897.6094 L881.5,924.2188 C881.5,934.2188 788,934.2188 788,934.2188 C788,934.2188 694.5,934.2188 694.5,924.2188 L694.5,897.6094 " fill="#F1F1F1" style="stroke:#181818;stroke-width:0.5;"/><path d="M694.5,897.6094 C694.5,907.6094 788,907.6094 788,907.6094 C788,907.6094 881.5,907.6094 881.5,897.6094 " fill="none" style="stroke:#181818;stroke-width:0.5;"/><text fill="#000000" font-family="sans-serif" font-size="14" lengthAdjust="spacing" textLength="167" x="704.5" y="926.1426">PostgreSQL (Permissions)</text></g><!--entity user--><g id="elem_user"><ellipse cx="266" cy="52.6094" fill="#F1F1F1" rx="8" ry="8" style="stroke:#181818;stroke-width:0.5;"/><path d="M266,60.6094 L266,87.6094 M253,68.6094 L279,68.6094 M266,87.6094 L253,102.6094 M266,87.6094 L279,102.6094 " fill="none" style="stroke:#181818;stroke-width:0.5;"/><text fill="#000000" font-family="sans-serif" font-size="14" lengthAdjust="spacing" textLength="28" x="252" y="118.6426">user</text></g><!--link user to gateway--><g id="link_user_gateway"><path d="M266,122.3194 C266,148.6494 266,176.7794 266,199.0494 " fill="none" id="user-to-gateway" style="stroke:#181818;stroke-width:1.0;"/><polygon fill="#181818" points="266,205.0494,270,196.0494,266,200.0494,262,196.0494,266,205.0494" style="stroke:#181818;stroke-width:1.0;"/></g><!--link gateway to front--><g id="link_gateway_front"><path d="M266,253.3294 C266,271.2694 266,289.9994 266,307.9394 " fill="none" id="gateway-to-front" style="stroke:#181818;stroke-width:1.0;"/><polygon fill="#181818" points="266,313.9394,270,304.9394,266,308.9394,262,304.9394,266,313.9394" style="stroke:#181818;stroke-width:1.0;"/></g><!--link gateway to proxy--><g id="link_gateway_proxy"><path d="M289.88,253.3094 C306.89,269.9894 330.15,293.1394 350,314.1094 C393.07,359.5994 437.5996,410.1046 464.0996,440.5346 " fill="none" id="gateway-to-proxy" style="stroke:#181818;stroke-width:1.0;"/><polygon fill="#181818" points="468.04,445.0594,465.1459,435.6453,464.7563,441.2887,459.1129,440.8992,468.04,445.0594" style="stroke:#181818;stroke-width:1.0;"/></g><!--link gateway to minio--><g id="link_gateway_minio"><path d="M223.96,235.2794 C178.42,243.3794 107.87,263.7494 75,314.1094 C44.59,360.6994 97.4403,411.2924 137.7603,441.3624 " fill="none" id="gateway-to-minio" style="stroke:#181818;stroke-width:1.0;"/><polygon fill="#181818" points="142.57,444.9494,137.7468,436.3624,138.5619,441.9602,132.9641,442.7753,142.57,444.9494" style="stroke:#181818;stroke-width:1.0;"/><text fill="#000000" font-family="sans-serif" font-size="13" lengthAdjust="spacing" textLength="106" x="76" y="343.6045">access files via url</text></g><!--link proxy to kratos--><g id="link_proxy_kratos"><path d="M483.94,493.2994 C478.42,525.1894 468.38,584.4094 461,635.1094 C454.52,679.6194 448.8556,725.841 445.3856,755.141 " fill="none" id="proxy-to-kratos" style="stroke:#181818;stroke-width:1.0;"/><polygon fill="#181818" points="444.68,761.0994,449.7107,752.6323,445.268,756.1341,441.7662,751.6914,444.68,761.0994" style="stroke:#181818;stroke-width:1.0;"/></g><!--link proxy to keto--><g id="link_proxy_keto"><path d="M525.09,493.2194 C582.69,531.3094 692.47,613.0794 745,713.1094 C752.71,727.7994 755.057,740.3981 755.837,754.8681 " fill="none" id="proxy-to-keto" style="stroke:#181818;stroke-width:1.0;"/><polygon fill="#181818" points="756.16,760.8594,759.6698,751.6571,755.8909,755.8666,751.6814,752.0877,756.16,760.8594" style="stroke:#181818;stroke-width:1.0;"/></g><!--link proxy to backend--><g id="link_proxy_backend"><path d="M494.74,493.1594 C505.3,529.2394 523.9254,592.9107 534.5154,629.1107 " fill="none" id="proxy-to-backend" style="stroke:#181818;stroke-width:1.0;"/><polygon fill="#181818" points="536.2,634.8694,537.5121,625.1083,534.7961,630.0705,529.8339,627.3545,536.2,634.8694" style="stroke:#181818;stroke-width:1.0;"/></g><!--link kratos to mail--><g id="link_kratos_mail"><path d="M439.4,809.1394 C436.9,831.2794 433.8132,858.5873 431.3032,880.8173 " fill="none" id="kratos-to-mail" style="stroke:#181818;stroke-width:1.0;"/><polygon fill="#181818" points="430.63,886.7794,435.6145,878.285,431.191,881.8109,427.665,877.3874,430.63,886.7794" style="stroke:#181818;stroke-width:1.0;"/><text fill="#000000" font-family="sans-serif" font-size="13" lengthAdjust="spacing" textLength="76" x="436" y="853.6045">SMTP (1025)</text></g><!--link backend to keto--><g id="link_backend_keto"><path d="M562.75,683.4094 C576.65,698.6394 596.39,718.0594 617,731.1094 C625.13,736.2594 665.2416,751.3179 702.0716,764.7179 " fill="none" id="backend-to-keto" style="stroke:#181818;stroke-width:1.0;stroke-dasharray:7.0,7.0;"/><polygon fill="#181818" points="707.71,766.7694,700.62,759.9333,703.0113,765.0598,697.8848,767.4511,707.71,766.7694" style="stroke:#181818;stroke-width:1.0;"/><text fill="#000000" font-family="sans-serif" font-size="13" lengthAdjust="spacing" textLength="122" x="618" y="727.6045">Write Tuples (GRPC)</text></g><!--link backend to kratos--><g id="link_backend_kratos"><path d="M524.24,683.1394 C506.21,705.2794 482.8996,733.8976 464.7896,756.1276 " fill="none" id="backend-to-kratos" style="stroke:#181818;stroke-width:1.0;stroke-dasharray:7.0,7.0;"/><polygon fill="#181818" points="461,760.7794,469.7856,756.3282,464.158,756.9029,463.5833,751.2753,461,760.7794" style="stroke:#181818;stroke-width:1.0;"/><text fill="#000000" font-family="sans-serif" font-size="13" lengthAdjust="spacing" textLength="52" x="499" y="727.6045">Add user</text></g><!--reverse link minio to backend--><g id="link_minio_backend"><path d="M227.2171,495.9008 C297.5571,532.0308 427.65,598.8594 498.04,635.0194 " fill="none" id="minio-backto-backend" style="stroke:#181818;stroke-width:1.0;stroke-dasharray:7.0,7.0;"/><polygon fill="#181818" points="221.88,493.1594,228.0581,500.8295,226.3276,495.4439,231.7133,493.7134,221.88,493.1594" style="stroke:#181818;stroke-width:1.0;"/><text fill="#000000" font-family="sans-serif" font-size="13" lengthAdjust="spacing" textLength="112" x="379" y="570.6045">Store or delete files</text></g><!--link backend to db_rms--><g id="link_backend_db_rms"><path d="M551.55,683.1394 C556.98,697.1894 564.39,715.4094 572,731.1094 C576.94,741.2894 579.9825,747.0276 585.3525,756.2976 " fill="none" id="backend-to-db_rms" style="stroke:#181818;stroke-width:1.0;"/><polygon fill="#181818" points="588.36,761.4894,587.3099,751.6967,585.8537,757.1629,580.3875,755.7067,588.36,761.4894" style="stroke:#181818;stroke-width:1.0;"/></g><!--link kratos to db_auth--><g id="link_kratos_db_auth"><path d="M480.95,809.1594 C494.24,817.8094 508.82,828.2094 521,839.1094 C537.35,853.7494 549.6108,868.1144 560.9308,882.8244 " fill="none" id="kratos-to-db_auth" style="stroke:#181818;stroke-width:1.0;"/><polygon fill="#181818" points="564.59,887.5794,562.2712,878.0074,561.5407,883.6169,555.9312,882.8863,564.59,887.5794" style="stroke:#181818;stroke-width:1.0;"/></g><!--link keto to db_perm--><g id="link_keto_db_perm"><path d="M761.94,809.1394 C767.69,831.4194 774.8499,859.1599 780.5899,881.3899 " fill="none" id="keto-to-db_perm" style="stroke:#181818;stroke-width:1.0;"/><polygon fill="#181818" points="782.09,887.1994,783.7129,877.4851,780.84,882.3582,775.9669,879.4852,782.09,887.1994" style="stroke:#181818;stroke-width:1.0;"/></g><!--SRC=[VLDDZzem4BtxLupeOSa1r5RgXKCbMAdLggLGGEgXggeX7i35nD7OMHPL_J7zBVrZExOJs8zgeoXntflCl9bd1nCimPZBdGbKXeO9jC4jum7wDul1n27hGYaiWsDeFB5ILx0WJHxwNoWS7UzzeMeizxWbwBNG2EfcRKtPWrVML3JKBWJIy5k1NDyNqoLyO5S5glGFG0-R-96v5IDjp3x1Mmnqn5CcPkjVeW-MeaCg9VvWAkFK7_MVyaQISuLM18n51qriGrtv6PzWXc6t9wg9KwQQtTtfmdvY3CudPf-M3oWABXEokBGp4GLTD-kypkGKZQrDo7fbdT3qq1XmZLvKpvqFMwRbry_GbsH5BmRhzKy- -1SYRpHLmOJJEHoRi7iXVavyCDuRL_dpBzB_8Gxm2gvTHNV2YQ-Q8F2_lnjJEXKTXu5snshm_kn7-pxZoJvu0WkUf_eCJhR12B0ioOlvnahHMuFGi6sb-CO6KTYww44chr8s6CGCsHHu18aT4F-UetUIKxm7kLjVkiXEGcUHn4TJJBMDOczDd0vQrUPFOeKMhSlfQWxzDw_VlYjI4M9llEpVqg1gay5msCeOmJUMqmIhfewjzJykvjV5ux1SO0HZhVEfEhDD7GEw6SNjJY17JvCbIPc79OrsyPq7xNRfb5_Gj2kIh0TWybtT0m00]--></g></svg>