<?xml version="1.0" encoding="us-ascii" standalone="no"?><svg xmlns="http://www.w3.org/2000/svg" xmlns:xlink="http://www.w3.org/1999/xlink" contentStyleType="text/css" height="752px" preserveAspectRatio="none" style="width:866px;height:752px;background:#FFFFFF;" version="1.1" viewBox="0 0 866 752" width="866px" zoomAndPan="magnify"><defs/><g><text fill="#000000" font-family="sans-serif" font-size="14" font-weight="bold" lengthAdjust="spacing" textLength="222" x="315" y="24.5332">Architecture diagram (IR-Board)</text><!--cluster Network: public--><g id="cluster_Network: public"><path d="M251.5,169.1094 L361.5,169.1094 A3.75,3.75 0 0 1 364,171.6094 L371,192.7188 L410.5,192.7188 A2.5,2.5 0 0 1 413,195.2188 L413,375.6094 A2.5,2.5 0 0 1 410.5,378.1094 L251.5,378.1094 A2.5,2.5 0 0 1 249,375.6094 L249,171.6094 A2.5,2.5 0 0 1 251.5,169.1094 " fill="none" style="stroke:#000000;stroke-width:1.0;stroke-dasharray:1.0,3.0;"/><line style="stroke:#000000;stroke-width:1.0;stroke-dasharray:1.0,3.0;" x1="249" x2="371" y1="192.7188" y2="192.7188"/><text fill="#000000" font-family="sans-serif" font-size="14" font-weight="bold" lengthAdjust="spacing" textLength="109" x="253" y="185.6426">Network: public</text></g><!--cluster Network: internal--><g id="cluster_Network: internal"><path d="M8.5,411.1094 L129.5,411.1094 A3.75,3.75 0 0 1 132,413.6094 L139,434.7188 L856.5,434.7188 A2.5,2.5 0 0 1 859,437.2188 L859,742.6094 A2.5,2.5 0 0 1 856.5,745.1094 L8.5,745.1094 A2.5,2.5 0 0 1 6,742.6094 L6,413.6094 A2.5,2.5 0 0 1 8.5,411.1094 " fill="#F0F8FF" style="stroke:#000000;stroke-width:1.5;"/><line style="stroke:#000000;stroke-width:1.5;" x1="6" x2="139" y1="434.7188" y2="434.7188"/><text fill="#000000" font-family="sans-serif" font-size="14" font-weight="bold" lengthAdjust="spacing" textLength="120" x="10" y="427.6426">Network: internal</text></g><!--entity front--><g id="elem_front"><rect fill="#F1F1F1" height="47.6094" rx="2.5" ry="2.5" style="stroke:#181818;stroke-width:0.5;" width="132" x="265" y="314.1094"/><rect fill="#F1F1F1" height="10" style="stroke:#181818;stroke-width:0.5;" width="15" x="377" y="319.1094"/><rect fill="#F1F1F1" height="2" style="stroke:#181818;stroke-width:0.5;" width="4" x="375" y="321.1094"/><rect fill="#F1F1F1" height="2" style="stroke:#181818;stroke-width:0.5;" width="4" x="375" y="325.1094"/><text fill="#000000" font-family="sans-serif" font-size="14" lengthAdjust="spacing" textLength="92" x="280" y="348.6426">RMS Frontend</text></g><!--entity gateway--><g id="elem_gateway"><rect fill="#F1F1F1" height="47.6094" rx="2.5" ry="2.5" style="stroke:#181818;stroke-width:0.5;" width="84" x="301" y="205.1094"/><rect fill="#F1F1F1" height="10" style="stroke:#181818;stroke-width:0.5;" width="15" x="365" y="210.1094"/><rect fill="#F1F1F1" height="2" style="stroke:#181818;stroke-width:0.5;" width="4" x="363" y="212.1094"/><rect fill="#F1F1F1" height="2" style="stroke:#181818;stroke-width:0.5;" width="4" x="363" y="216.1094"/><text fill="#000000" font-family="sans-serif" font-size="14" lengthAdjust="spacing" textLength="44" x="316" y="239.6426">Traefik</text></g><!--entity proxy--><g id="elem_proxy"><rect fill="#F1F1F1" height="47.6094" rx="2.5" ry="2.5" style="stroke:#181818;stroke-width:0.5;" width="142" x="379" y="447.1094"/><rect fill="#F1F1F1" height="10" style="stroke:#181818;stroke-width:0.5;" width="15" x="501" y="452.1094"/><rect fill="#F1F1F1" height="2" style="stroke:#181818;stroke-width:0.5;" width="4" x="499" y="454.1094"/><rect fill="#F1F1F1" height="2" style="stroke:#181818;stroke-width:0.5;" width="4" x="499" y="458.1094"/><text fill="#000000" font-family="sans-serif" font-size="14" lengthAdjust="spacing" textLength="102" x="394" y="481.6426">Ory Oathkeeper</text></g><!--entity kratos--><g id="elem_kratos"><rect fill="#F1F1F1" height="47.6094" rx="2.5" ry="2.5" style="stroke:#181818;stroke-width:0.5;" width="108" x="22" y="573.1094"/><rect fill="#F1F1F1" height="10" style="stroke:#181818;stroke-width:0.5;" width="15" x="110" y="578.1094"/><rect fill="#F1F1F1" height="2" style="stroke:#181818;stroke-width:0.5;" width="4" x="108" y="580.1094"/><rect fill="#F1F1F1" height="2" style="stroke:#181818;stroke-width:0.5;" width="4" x="108" y="584.1094"/><text fill="#000000" font-family="sans-serif" font-size="14" lengthAdjust="spacing" textLength="68" x="37" y="607.6426">Ory Kratos</text></g><!--entity keto--><g id="elem_keto"><rect fill="#F1F1F1" height="47.6094" rx="2.5" ry="2.5" style="stroke:#181818;stroke-width:0.5;" width="96" x="646" y="573.1094"/><rect fill="#F1F1F1" height="10" style="stroke:#181818;stroke-width:0.5;" width="15" x="722" y="578.1094"/><rect fill="#F1F1F1" height="2" style="stroke:#181818;stroke-width:0.5;" width="4" x="720" y="580.1094"/><rect fill="#F1F1F1" height="2" style="stroke:#181818;stroke-width:0.5;" width="4" x="720" y="584.1094"/><text fill="#000000" font-family="sans-serif" font-size="14" lengthAdjust="spacing" textLength="56" x="661" y="607.6426">Ory Keto</text></g><!--entity backend--><g id="elem_backend"><rect fill="#F1F1F1" height="47.6094" rx="2.5" ry="2.5" style="stroke:#181818;stroke-width:0.5;" width="129" x="358.5" y="573.1094"/><rect fill="#F1F1F1" height="10" style="stroke:#181818;stroke-width:0.5;" width="15" x="467.5" y="578.1094"/><rect fill="#F1F1F1" height="2" style="stroke:#181818;stroke-width:0.5;" width="4" x="465.5" y="580.1094"/><rect fill="#F1F1F1" height="2" style="stroke:#181818;stroke-width:0.5;" width="4" x="465.5" y="584.1094"/><text fill="#000000" font-family="sans-serif" font-size="14" lengthAdjust="spacing" textLength="89" x="373.5" y="607.6426">RMS Backend</text></g><!--entity Loki--><g id="elem_Loki"><rect fill="#F1F1F1" height="47.6094" rx="2.5" ry="2.5" style="stroke:#181818;stroke-width:0.5;" width="66" x="777" y="573.1094"/><rect fill="#F1F1F1" height="10" style="stroke:#181818;stroke-width:0.5;" width="15" x="823" y="578.1094"/><rect fill="#F1F1F1" height="2" style="stroke:#181818;stroke-width:0.5;" width="4" x="821" y="580.1094"/><rect fill="#F1F1F1" height="2" style="stroke:#181818;stroke-width:0.5;" width="4" x="821" y="584.1094"/><text fill="#000000" font-family="sans-serif" font-size="14" lengthAdjust="spacing" textLength="26" x="792" y="607.6426">Loki</text></g><!--entity Grafana--><g id="elem_Grafana"><rect fill="#F1F1F1" height="47.6094" rx="2.5" ry="2.5" style="stroke:#181818;stroke-width:0.5;" width="92" x="730" y="447.1094"/><rect fill="#F1F1F1" height="10" style="stroke:#181818;stroke-width:0.5;" width="15" x="802" y="452.1094"/><rect fill="#F1F1F1" height="2" style="stroke:#181818;stroke-width:0.5;" width="4" x="800" y="454.1094"/><rect fill="#F1F1F1" height="2" style="stroke:#181818;stroke-width:0.5;" width="4" x="800" y="458.1094"/><text fill="#000000" font-family="sans-serif" font-size="14" lengthAdjust="spacing" textLength="52" x="745" y="481.6426">Grafana</text></g><!--entity Promtail--><g id="elem_Promtail"><rect fill="#F1F1F1" height="47.6094" rx="2.5" ry="2.5" style="stroke:#181818;stroke-width:0.5;" width="91" x="556.5" y="447.1094"/><rect fill="#F1F1F1" height="10" style="stroke:#181818;stroke-width:0.5;" width="15" x="627.5" y="452.1094"/><rect fill="#F1F1F1" height="2" style="stroke:#181818;stroke-width:0.5;" width="4" x="625.5" y="454.1094"/><rect fill="#F1F1F1" height="2" style="stroke:#181818;stroke-width:0.5;" width="4" x="625.5" y="458.1094"/><text fill="#000000" font-family="sans-serif" font-size="14" lengthAdjust="spacing" textLength="51" x="571.5" y="481.6426">Promtail</text></g><!--entity mail--><g id="elem_mail"><rect fill="#F1F1F1" height="47.6094" rx="2.5" ry="2.5" style="stroke:#181818;stroke-width:0.5;" width="80" x="243" y="573.1094"/><rect fill="#F1F1F1" height="10" style="stroke:#181818;stroke-width:0.5;" width="15" x="303" y="578.1094"/><rect fill="#F1F1F1" height="2" style="stroke:#181818;stroke-width:0.5;" width="4" x="301" y="580.1094"/><rect fill="#F1F1F1" height="2" style="stroke:#181818;stroke-width:0.5;" width="4" x="301" y="584.1094"/><text fill="#000000" font-family="sans-serif" font-size="14" lengthAdjust="spacing" textLength="40" x="258" y="607.6426">Mailpit</text></g><!--entity db_rms--><g id="elem_db_rms"><path d="M352.5,692.1094 C352.5,682.1094 423,682.1094 423,682.1094 C423,682.1094 493.5,682.1094 493.5,692.1094 L493.5,718.7188 C493.5,728.7188 423,728.7188 423,728.7188 C423,728.7188 352.5,728.7188 352.5,718.7188 L352.5,692.1094 " fill="#F1F1F1" style="stroke:#181818;stroke-width:0.5;"/><path d="M352.5,692.1094 C352.5,702.1094 423,702.1094 423,702.1094 C423,702.1094 493.5,702.1094 493.5,692.1094 " fill="none" style="stroke:#181818;stroke-width:0.5;"/><text fill="#000000" font-family="sans-serif" font-size="14" lengthAdjust="spacing" textLength="121" x="362.5" y="720.6426">PostgreSQL (RMS)</text></g><!--entity db_auth--><g id="elem_db_auth"><path d="M22,692.1094 C22,682.1094 100,682.1094 100,682.1094 C100,682.1094 178,682.1094 178,692.1094 L178,718.7188 C178,728.7188 100,728.7188 100,728.7188 C100,728.7188 22,728.7188 22,718.7188 L22,692.1094 " fill="#F1F1F1" style="stroke:#181818;stroke-width:0.5;"/><path d="M22,692.1094 C22,702.1094 100,702.1094 100,702.1094 C100,702.1094 178,702.1094 178,692.1094 " fill="none" style="stroke:#181818;stroke-width:0.5;"/><text fill="#000000" font-family="sans-serif" font-size="14" lengthAdjust="spacing" textLength="136" x="32" y="720.6426">PostgreSQL (Identity)</text></g><!--entity db_perm--><g id="elem_db_perm"><path d="M600.5,692.1094 C600.5,682.1094 694,682.1094 694,682.1094 C694,682.1094 787.5,682.1094 787.5,692.1094 L787.5,718.7188 C787.5,728.7188 694,728.7188 694,728.7188 C694,728.7188 600.5,728.7188 600.5,718.7188 L600.5,692.1094 " fill="#F1F1F1" style="stroke:#181818;stroke-width:0.5;"/><path d="M600.5,692.1094 C600.5,702.1094 694,702.1094 694,702.1094 C694,702.1094 787.5,702.1094 787.5,692.1094 " fill="none" style="stroke:#181818;stroke-width:0.5;"/><text fill="#000000" font-family="sans-serif" font-size="14" lengthAdjust="spacing" textLength="167" x="610.5" y="720.6426">PostgreSQL (Permissions)</text></g><!--entity user--><g id="elem_user"><ellipse cx="343" cy="52.6094" fill="#F1F1F1" rx="8" ry="8" style="stroke:#181818;stroke-width:0.5;"/><path d="M343,60.6094 L343,87.6094 M330,68.6094 L356,68.6094 M343,87.6094 L330,102.6094 M343,87.6094 L356,102.6094 " fill="none" style="stroke:#181818;stroke-width:0.5;"/><text fill="#000000" font-family="sans-serif" font-size="14" lengthAdjust="spacing" textLength="28" x="329" y="118.6426">user</text></g><!--link user to gateway--><g id="link_user_gateway"><path d="M343,122.3194 C343,148.6494 343,176.7794 343,199.0494 " fill="none" id="user-to-gateway" style="stroke:#181818;stroke-width:1.0;"/><polygon fill="#181818" points="343,205.0494,347,196.0494,343,200.0494,339,196.0494,343,205.0494" style="stroke:#181818;stroke-width:1.0;"/></g><!--link gateway to front--><g id="link_gateway_front"><path d="M340.4,253.3294 C338.38,271.2694 336.2781,290.0367 334.2681,307.9767 " fill="none" id="gateway-to-front" style="stroke:#181818;stroke-width:1.0;"/><polygon fill="#181818" points="333.6,313.9394,338.5772,305.4407,334.1567,308.9705,330.627,304.55,333.6,313.9394" style="stroke:#181818;stroke-width:1.0;"/></g><!--link gateway to proxy--><g id="link_gateway_proxy"><path d="M368.26,253.1294 C383.99,268.8394 403.38,290.9294 415,314.1094 C436.95,357.9094 444.6921,409.4973 447.7421,441.0173 " fill="none" id="gateway-to-proxy" style="stroke:#181818;stroke-width:1.0;"/><polygon fill="#181818" points="448.32,446.9894,451.4346,437.646,447.8384,442.0126,443.4718,438.4165,448.32,446.9894" style="stroke:#181818;stroke-width:1.0;"/></g><!--link proxy to kratos--><g id="link_proxy_kratos"><path d="M380.53,495.1394 C308.18,519.1294 202.0451,554.3211 135.9351,576.2411 " fill="none" id="proxy-to-kratos" style="stroke:#181818;stroke-width:1.0;"/><polygon fill="#181818" points="130.24,578.1294,140.0415,579.0936,134.9859,576.5558,137.5238,571.5002,130.24,578.1294" style="stroke:#181818;stroke-width:1.0;"/></g><!--reverse link keto to proxy--><g id="link_keto_proxy"><path d="M643.1609,570.2714 C599.4109,548.0414 539.01,517.3494 495.32,495.1394 " fill="none" id="keto-backto-proxy" style="stroke:#181818;stroke-width:1.0;"/><polygon fill="#181818" points="648.51,572.9894,642.2983,565.3464,644.0524,570.7244,638.6744,572.4785,648.51,572.9894" style="stroke:#181818;stroke-width:1.0;"/></g><!--link proxy to Grafana--><g id="link_proxy_Grafana"><path d="M472.14,446.9494 C491.97,427.5494 523,402.3194 556.5,394.6094 C595.92,385.5394 608.08,385.5394 647.5,394.6094 C685.2,403.2794 717.7955,424.1094 742.4255,443.0694 " fill="none" id="proxy-to-Grafana" style="stroke:#181818;stroke-width:1.0;stroke-dasharray:7.0,7.0;"/><polygon fill="#181818" points="747.18,446.7294,742.4883,438.0698,743.218,443.6794,737.6084,444.4091,747.18,446.7294" style="stroke:#181818;stroke-width:1.0;"/></g><!--link proxy to backend--><g id="link_proxy_backend"><path d="M444.98,495.1394 C440.17,517.2794 434.1964,544.6867 429.3564,566.9167 " fill="none" id="proxy-to-backend" style="stroke:#181818;stroke-width:1.0;"/><polygon fill="#181818" points="428.08,572.7794,433.9031,564.8364,429.1437,567.8938,426.0862,563.1344,428.08,572.7794" style="stroke:#181818;stroke-width:1.0;"/></g><!--link kratos to mail--><g id="link_kratos_mail"><path d="M130.12,597.1094 C165.45,597.1094 204.82,597.1094 236.93,597.1094 " fill="none" id="kratos-to-mail" style="stroke:#181818;stroke-width:1.0;"/><polygon fill="#181818" points="242.93,597.1094,233.93,593.1094,237.93,597.1094,233.93,601.1094,242.93,597.1094" style="stroke:#181818;stroke-width:1.0;"/><text fill="#000000" font-family="sans-serif" font-size="13" lengthAdjust="spacing" textLength="76" x="148.5" y="590.6045">SMTP (1025)</text></g><!--link backend to keto--><g id="link_backend_keto"><path d="M487.57,597.1094 C536.1,597.1094 595.54,597.1094 639.62,597.1094 " fill="none" id="backend-to-keto" style="stroke:#181818;stroke-width:1.0;stroke-dasharray:7.0,7.0;"/><polygon fill="#181818" points="645.62,597.1094,636.62,593.1094,640.62,597.1094,636.62,601.1094,645.62,597.1094" style="stroke:#181818;stroke-width:1.0;"/><text fill="#000000" font-family="sans-serif" font-size="13" lengthAdjust="spacing" textLength="122" x="505.75" y="590.6045">Write Tuples (GRPC)</text></g><!--link backend to db_rms--><g id="link_backend_db_rms"><path d="M423,621.2194 C423,639.1994 423,658.0294 423,675.9094 " fill="none" id="backend-to-db_rms" style="stroke:#181818;stroke-width:1.0;"/><polygon fill="#181818" points="423,681.9094,427,672.9094,423,676.9094,419,672.9094,423,681.9094" style="stroke:#181818;stroke-width:1.0;"/></g><!--link kratos to db_auth--><g id="link_kratos_db_auth"><path d="M81.21,621.2194 C85.26,639.1994 89.5439,658.1755 93.5639,676.0555 " fill="none" id="kratos-to-db_auth" style="stroke:#181818;stroke-width:1.0;"/><polygon fill="#181818" points="94.88,681.9094,96.8084,672.2511,93.7832,677.0312,89.0032,674.006,94.88,681.9094" style="stroke:#181818;stroke-width:1.0;"/></g><!--link keto to db_perm--><g id="link_keto_db_perm"><path d="M694,621.2194 C694,639.1994 694,658.0294 694,675.9094 " fill="none" id="keto-to-db_perm" style="stroke:#181818;stroke-width:1.0;"/><polygon fill="#181818" points="694,681.9094,698,672.9094,694,676.9094,690,672.9094,694,681.9094" style="stroke:#181818;stroke-width:1.0;"/></g><!--link Grafana to Loki--><g id="link_Grafana_Loki"><path d="M782.32,495.1394 C788.38,517.2794 795.9247,544.7626 802.0147,566.9926 " fill="none" id="Grafana-to-Loki" style="stroke:#181818;stroke-width:1.0;"/><polygon fill="#181818" points="803.6,572.7794,805.0799,563.0423,802.2789,567.9571,797.3642,565.1561,803.6,572.7794" style="stroke:#181818;stroke-width:1.0;"/></g><!--link Promtail to Loki--><g id="link_Promtail_Loki"><path d="M638.2,495.2194 C660.49,509.3094 689.73,527.5294 716,543.1094 C735.98,554.9594 753.417,564.8421 771.497,574.9021 " fill="none" id="Promtail-to-Loki" style="stroke:#181818;stroke-width:1.0;stroke-dasharray:7.0,7.0;"/><polygon fill="#181818" points="776.74,577.8194,770.8203,569.9481,772.3708,575.3883,766.9306,576.9388,776.74,577.8194" style="stroke:#181818;stroke-width:1.0;"/><text fill="#000000" font-family="sans-serif" font-size="13" lengthAdjust="spacing" textLength="64" x="717" y="539.6045">deliver logs</text></g><!--link Promtail to kratos--><g id="link_Promtail_kratos"><path d="M556.48,489.5494 C550.63,491.5494 544.7,493.4594 539,495.1094 C393.22,537.4094 222.9862,570.1426 135.9662,585.7126 " fill="none" id="Promtail-to-kratos" style="stroke:#181818;stroke-width:1.0;stroke-dasharray:7.0,7.0;"/><polygon fill="#181818" points="130.06,586.7694,139.6238,589.1217,134.9818,585.8887,138.2148,581.2468,130.06,586.7694" style="stroke:#181818;stroke-width:1.0;"/></g><!--link Promtail to keto--><g id="link_Promtail_keto"><path d="M615.92,495.3594 C624.66,509.4994 636.44,527.7294 648,543.1094 C655.62,553.2394 660.6655,559.3845 668.6855,568.4545 " fill="none" id="Promtail-to-keto" style="stroke:#181818;stroke-width:1.0;stroke-dasharray:7.0,7.0;"/><polygon fill="#181818" points="672.66,572.9494,669.6948,563.5575,669.3479,569.2037,663.7017,568.8568,672.66,572.9494" style="stroke:#181818;stroke-width:1.0;"/></g><!--link Promtail to backend--><g id="link_Promtail_backend"><path d="M568.75,495.1394 C536.7,517.3494 493.4027,547.3434 461.3027,569.5734 " fill="none" id="Promtail-to-backend" style="stroke:#181818;stroke-width:1.0;stroke-dasharray:7.0,7.0;"/><polygon fill="#181818" points="456.37,572.9894,466.0463,571.1538,460.4805,570.1427,461.4917,564.577,456.37,572.9894" style="stroke:#181818;stroke-width:1.0;"/></g><!--reverse link proxy to Promtail--><g id="link_proxy_Promtail"><path d="M527.25,471.1094 C538.92,471.1094 544.59,471.1094 556.26,471.1094 " fill="none" id="proxy-backto-Promtail" style="stroke:#181818;stroke-width:1.0;stroke-dasharray:7.0,7.0;"/><polygon fill="#181818" points="521.25,471.1094,530.25,475.1094,526.25,471.1094,530.25,467.1094,521.25,471.1094" style="stroke:#181818;stroke-width:1.0;"/></g><!--SRC=[VLF1Rjim3BthAuZiqEIGO1kmImu5cW8hYZMBbnJeOIW6ng8TmR9bI7BIODZ7x5lsOwDaEMc6eK6GK8yKtpCVxPNN13SstobFkUyiWLHOMgnXVB-UBWnQEH42SsyiT8wi45Um9aaEnb_97uojt4Iqc5TO4emID8UsssgLZ-2TLWtDfF6U9FmKm9_lw-K6FblJU6haCw238XpwtAD5AbGLuH8z7V0eVed_42Y-RXlKJ773JBJG7Gq4Atk45VfTHTIIZRrQQrwEv-mNYzwucAbY-2f5tlG93iw25wnWqBljupxvO2hrt8Tt5WjiC9qoQsgFIgVZaiDM-TYWvZYYyKUYnoqwVhhCE5zQsdnxW36JJaQXM6v_sDgzKNalgV7A7q_bsFdT6_KPsLevfqpZJbTuJdKOz1NScePUECSEIm9l__mkL6v4y1wcqXoQwVN9cVH_mgEHy0_CU9m-fEwkqvv9au4EUEYYB-3AtWqO04s53oXRCM2pQqXp3lqoT0OAnOi0_4qc3RUJgi4kBW-3LqqP1ErLc01gaIYvC6HX3flbOmRZ3-y_Vff42h9EELxMNA58lOAAA6eEJvRV77ZiMXtUYRjrTiktXh91Gl9me3gZqQhOwHKOpM3crPQ7liSjQvR8-jDpGnXfM3inh1ZCPZt2UYHfjMUlj2dTPK7Qz4iiBFa5Caph30OJPib48Vu2]--></g></svg>