<?xml version="1.0" encoding="us-ascii" standalone="no"?><svg xmlns="http://www.w3.org/2000/svg" xmlns:xlink="http://www.w3.org/1999/xlink" contentStyleType="text/css" height="958px" preserveAspectRatio="none" style="width:631px;height:958px;background:#FFFFFF;" version="1.1" viewBox="0 0 631 958" width="631px" zoomAndPan="magnify"><defs/><g><text fill="#000000" font-family="sans-serif" font-size="14" font-weight="bold" lengthAdjust="spacing" textLength="222" x="197.5" y="24.5332">Architecture diagram (IR-Board)</text><!--cluster Network: public--><g id="cluster_Network: public"><path d="M16.5,169.1094 L126.5,169.1094 A3.75,3.75 0 0 1 129,171.6094 L136,192.7188 L175.5,192.7188 A2.5,2.5 0 0 1 178,195.2188 L178,375.6094 A2.5,2.5 0 0 1 175.5,378.1094 L16.5,378.1094 A2.5,2.5 0 0 1 14,375.6094 L14,171.6094 A2.5,2.5 0 0 1 16.5,169.1094 " fill="none" style="stroke:#000000;stroke-width:1.0;stroke-dasharray:1.0,3.0;"/><line style="stroke:#000000;stroke-width:1.0;stroke-dasharray:1.0,3.0;" x1="14" x2="136" y1="192.7188" y2="192.7188"/><text fill="#000000" font-family="sans-serif" font-size="14" font-weight="bold" lengthAdjust="spacing" textLength="109" x="18" y="185.6426">Network: public</text></g><!--cluster Network: internal--><g id="cluster_Network: internal"><path d="M8.5,411.1094 L129.5,411.1094 A3.75,3.75 0 0 1 132,413.6094 L139,434.7188 L621.5,434.7188 A2.5,2.5 0 0 1 624,437.2188 L624,948.6094 A2.5,2.5 0 0 1 621.5,951.1094 L8.5,951.1094 A2.5,2.5 0 0 1 6,948.6094 L6,413.6094 A2.5,2.5 0 0 1 8.5,411.1094 " fill="#F0F8FF" style="stroke:#000000;stroke-width:1.5;"/><line style="stroke:#000000;stroke-width:1.5;" x1="6" x2="139" y1="434.7188" y2="434.7188"/><text fill="#000000" font-family="sans-serif" font-size="14" font-weight="bold" lengthAdjust="spacing" textLength="120" x="10" y="427.6426">Network: internal</text></g><!--entity front--><g id="elem_front"><rect fill="#F1F1F1" height="47.6094" rx="2.5" ry="2.5" style="stroke:#181818;stroke-width:0.5;" width="132" x="30" y="314.1094"/><rect fill="#F1F1F1" height="10" style="stroke:#181818;stroke-width:0.5;" width="15" x="142" y="319.1094"/><rect fill="#F1F1F1" height="2" style="stroke:#181818;stroke-width:0.5;" width="4" x="140" y="321.1094"/><rect fill="#F1F1F1" height="2" style="stroke:#181818;stroke-width:0.5;" width="4" x="140" y="325.1094"/><text fill="#000000" font-family="sans-serif" font-size="14" lengthAdjust="spacing" textLength="92" x="45" y="348.6426">RMS Frontend</text></g><!--entity gateway--><g id="elem_gateway"><rect fill="#F1F1F1" height="47.6094" rx="2.5" ry="2.5" style="stroke:#181818;stroke-width:0.5;" width="84" x="66" y="205.1094"/><rect fill="#F1F1F1" height="10" style="stroke:#181818;stroke-width:0.5;" width="15" x="130" y="210.1094"/><rect fill="#F1F1F1" height="2" style="stroke:#181818;stroke-width:0.5;" width="4" x="128" y="212.1094"/><rect fill="#F1F1F1" height="2" style="stroke:#181818;stroke-width:0.5;" width="4" x="128" y="216.1094"/><text fill="#000000" font-family="sans-serif" font-size="14" lengthAdjust="spacing" textLength="44" x="81" y="239.6426">Traefik</text></g><!--entity proxy--><g id="elem_proxy"><rect fill="#F1F1F1" height="47.6094" rx="2.5" ry="2.5" style="stroke:#181818;stroke-width:0.5;" width="142" x="144" y="447.1094"/><rect fill="#F1F1F1" height="10" style="stroke:#181818;stroke-width:0.5;" width="15" x="266" y="452.1094"/><rect fill="#F1F1F1" height="2" style="stroke:#181818;stroke-width:0.5;" width="4" x="264" y="454.1094"/><rect fill="#F1F1F1" height="2" style="stroke:#181818;stroke-width:0.5;" width="4" x="264" y="458.1094"/><text fill="#000000" font-family="sans-serif" font-size="14" lengthAdjust="spacing" textLength="102" x="159" y="481.6426">Ory Oathkeeper</text></g><!--entity kratos--><g id="elem_kratos"><rect fill="#F1F1F1" height="47.6094" rx="2.5" ry="2.5" style="stroke:#181818;stroke-width:0.5;" width="108" x="22" y="761.1094"/><rect fill="#F1F1F1" height="10" style="stroke:#181818;stroke-width:0.5;" width="15" x="110" y="766.1094"/><rect fill="#F1F1F1" height="2" style="stroke:#181818;stroke-width:0.5;" width="4" x="108" y="768.1094"/><rect fill="#F1F1F1" height="2" style="stroke:#181818;stroke-width:0.5;" width="4" x="108" y="772.1094"/><text fill="#000000" font-family="sans-serif" font-size="14" lengthAdjust="spacing" textLength="68" x="37" y="795.6426">Ory Kratos</text></g><!--entity keto--><g id="elem_keto"><rect fill="#F1F1F1" height="47.6094" rx="2.5" ry="2.5" style="stroke:#181818;stroke-width:0.5;" width="96" x="165" y="761.1094"/><rect fill="#F1F1F1" height="10" style="stroke:#181818;stroke-width:0.5;" width="15" x="241" y="766.1094"/><rect fill="#F1F1F1" height="2" style="stroke:#181818;stroke-width:0.5;" width="4" x="239" y="768.1094"/><rect fill="#F1F1F1" height="2" style="stroke:#181818;stroke-width:0.5;" width="4" x="239" y="772.1094"/><text fill="#000000" font-family="sans-serif" font-size="14" lengthAdjust="spacing" textLength="56" x="180" y="795.6426">Ory Keto</text></g><!--entity backend--><g id="elem_backend"><rect fill="#F1F1F1" height="47.6094" rx="2.5" ry="2.5" style="stroke:#181818;stroke-width:0.5;" width="129" x="160.5" y="635.1094"/><rect fill="#F1F1F1" height="10" style="stroke:#181818;stroke-width:0.5;" width="15" x="269.5" y="640.1094"/><rect fill="#F1F1F1" height="2" style="stroke:#181818;stroke-width:0.5;" width="4" x="267.5" y="642.1094"/><rect fill="#F1F1F1" height="2" style="stroke:#181818;stroke-width:0.5;" width="4" x="267.5" y="646.1094"/><text fill="#000000" font-family="sans-serif" font-size="14" lengthAdjust="spacing" textLength="89" x="175.5" y="669.6426">RMS Backend</text></g><!--entity mail--><g id="elem_mail"><rect fill="#F1F1F1" height="47.6094" rx="2.5" ry="2.5" style="stroke:#181818;stroke-width:0.5;" width="80" x="22" y="887.1094"/><rect fill="#F1F1F1" height="10" style="stroke:#181818;stroke-width:0.5;" width="15" x="82" y="892.1094"/><rect fill="#F1F1F1" height="2" style="stroke:#181818;stroke-width:0.5;" width="4" x="80" y="894.1094"/><rect fill="#F1F1F1" height="2" style="stroke:#181818;stroke-width:0.5;" width="4" x="80" y="898.1094"/><text fill="#000000" font-family="sans-serif" font-size="14" lengthAdjust="spacing" textLength="40" x="37" y="921.6426">Mailpit</text></g><!--entity minio--><g id="elem_minio"><rect fill="#F1F1F1" height="47.6094" rx="2.5" ry="2.5" style="stroke:#181818;stroke-width:0.5;" width="135" x="472.5" y="761.1094"/><rect fill="#F1F1F1" height="10" style="stroke:#181818;stroke-width:0.5;" width="15" x="587.5" y="766.1094"/><rect fill="#F1F1F1" height="2" style="stroke:#181818;stroke-width:0.5;" width="4" x="585.5" y="768.1094"/><rect fill="#F1F1F1" height="2" style="stroke:#181818;stroke-width:0.5;" width="4" x="585.5" y="772.1094"/><text fill="#000000" font-family="sans-serif" font-size="14" lengthAdjust="spacing" textLength="95" x="487.5" y="795.6426">Object Storage</text></g><!--entity db_rms--><g id="elem_db_rms"><path d="M296.5,771.6094 C296.5,761.6094 367,761.6094 367,761.6094 C367,761.6094 437.5,761.6094 437.5,771.6094 L437.5,798.2188 C437.5,808.2188 367,808.2188 367,808.2188 C367,808.2188 296.5,808.2188 296.5,798.2188 L296.5,771.6094 " fill="#F1F1F1" style="stroke:#181818;stroke-width:0.5;"/><path d="M296.5,771.6094 C296.5,781.6094 367,781.6094 367,781.6094 C367,781.6094 437.5,781.6094 437.5,771.6094 " fill="none" style="stroke:#181818;stroke-width:0.5;"/><text fill="#000000" font-family="sans-serif" font-size="14" lengthAdjust="spacing" textLength="121" x="306.5" y="800.1426">PostgreSQL (RMS)</text></g><!--entity db_auth--><g id="elem_db_auth"><path d="M137,897.6094 C137,887.6094 215,887.6094 215,887.6094 C215,887.6094 293,887.6094 293,897.6094 L293,924.2188 C293,934.2188 215,934.2188 215,934.2188 C215,934.2188 137,934.2188 137,924.2188 L137,897.6094 " fill="#F1F1F1" style="stroke:#181818;stroke-width:0.5;"/><path d="M137,897.6094 C137,907.6094 215,907.6094 215,907.6094 C215,907.6094 293,907.6094 293,897.6094 " fill="none" style="stroke:#181818;stroke-width:0.5;"/><text fill="#000000" font-family="sans-serif" font-size="14" lengthAdjust="spacing" textLength="136" x="147" y="926.1426">PostgreSQL (Identity)</text></g><!--entity db_perm--><g id="elem_db_perm"><path d="M328.5,897.6094 C328.5,887.6094 422,887.6094 422,887.6094 C422,887.6094 515.5,887.6094 515.5,897.6094 L515.5,924.2188 C515.5,934.2188 422,934.2188 422,934.2188 C422,934.2188 328.5,934.2188 328.5,924.2188 L328.5,897.6094 " fill="#F1F1F1" style="stroke:#181818;stroke-width:0.5;"/><path d="M328.5,897.6094 C328.5,907.6094 422,907.6094 422,907.6094 C422,907.6094 515.5,907.6094 515.5,897.6094 " fill="none" style="stroke:#181818;stroke-width:0.5;"/><text fill="#000000" font-family="sans-serif" font-size="14" lengthAdjust="spacing" textLength="167" x="338.5" y="926.1426">PostgreSQL (Permissions)</text></g><!--entity user--><g id="elem_user"><ellipse cx="108" cy="52.6094" fill="#F1F1F1" rx="8" ry="8" style="stroke:#181818;stroke-width:0.5;"/><path d="M108,60.6094 L108,87.6094 M95,68.6094 L121,68.6094 M108,87.6094 L95,102.6094 M108,87.6094 L121,102.6094 " fill="none" style="stroke:#181818;stroke-width:0.5;"/><text fill="#000000" font-family="sans-serif" font-size="14" lengthAdjust="spacing" textLength="28" x="94" y="118.6426">user</text></g><!--link user to gateway--><g id="link_user_gateway"><path d="M108,122.3194 C108,148.6494 108,176.7794 108,199.0494 " fill="none" id="user-to-gateway" style="stroke:#181818;stroke-width:1.0;"/><polygon fill="#181818" points="108,205.0494,112,196.0494,108,200.0494,104,196.0494,108,205.0494" style="stroke:#181818;stroke-width:1.0;"/></g><!--link gateway to front--><g id="link_gateway_front"><path d="M105.4,253.3294 C103.38,271.2694 101.2781,290.0367 99.2681,307.9767 " fill="none" id="gateway-to-front" style="stroke:#181818;stroke-width:1.0;"/><polygon fill="#181818" points="98.6,313.9394,103.5772,305.4407,99.1567,308.9705,95.627,304.55,98.6,313.9394" style="stroke:#181818;stroke-width:1.0;"/></g><!--link gateway to proxy--><g id="link_gateway_proxy"><path d="M133.26,253.1294 C148.99,268.8394 168.38,290.9294 180,314.1094 C201.95,357.9094 209.6921,409.4973 212.7421,441.0173 " fill="none" id="gateway-to-proxy" style="stroke:#181818;stroke-width:1.0;"/><polygon fill="#181818" points="213.32,446.9894,216.4346,437.646,212.8384,442.0126,208.4718,438.4165,213.32,446.9894" style="stroke:#181818;stroke-width:1.0;"/></g><!--link proxy to kratos--><g id="link_proxy_kratos"><path d="M199.07,495.3294 C192.94,504.4994 185.98,515.1994 180,525.1094 C163.77,552.0194 160.59,559.2694 146,587.1094 C134.93,608.2394 130.88,612.9694 122,635.1094 C104.56,678.5794 91.2083,725.5373 83.3983,755.1873 " fill="none" id="proxy-to-kratos" style="stroke:#181818;stroke-width:1.0;"/><polygon fill="#181818" points="81.87,760.9894,88.0305,753.3051,83.1436,756.1543,80.2944,751.2674,81.87,760.9894" style="stroke:#181818;stroke-width:1.0;"/></g><!--link proxy to keto--><g id="link_proxy_keto"><path d="M202.88,495.2494 C187.07,526.2994 159.47,583.5394 143,635.1094 C132.23,668.8194 130.57,677.8994 127,713.1094 C126.19,721.0694 123.1,724.1294 127,731.1094 C135.38,746.1194 144.7041,754.4873 159.4941,762.6973 " fill="none" id="proxy-to-keto" style="stroke:#181818;stroke-width:1.0;"/><polygon fill="#181818" points="164.74,765.6094,158.8124,757.744,160.3684,763.1827,154.9297,764.7386,164.74,765.6094" style="stroke:#181818;stroke-width:1.0;"/></g><!--link proxy to backend--><g id="link_proxy_backend"><path d="M216.25,495.2894 C218.17,531.0294 221.5081,593.198 223.4281,628.938 " fill="none" id="proxy-to-backend" style="stroke:#181818;stroke-width:1.0;"/><polygon fill="#181818" points="223.75,634.9294,227.2614,625.7278,223.4818,629.9366,219.273,626.1569,223.75,634.9294" style="stroke:#181818;stroke-width:1.0;"/></g><!--link proxy to minio--><g id="link_proxy_minio"><path d="M254.59,495.1694 C316.93,533.2794 438.32,614.9994 511,713.1094 C521.62,727.4494 527.2395,740.5154 531.9295,755.1554 " fill="none" id="proxy-to-minio" style="stroke:#181818;stroke-width:1.0;"/><polygon fill="#181818" points="533.76,760.8694,534.8236,751.0781,532.2346,756.1077,527.205,753.5188,533.76,760.8694" style="stroke:#181818;stroke-width:1.0;"/><text fill="#000000" font-family="sans-serif" font-size="13" lengthAdjust="spacing" textLength="106" x="408" y="601.6045">access files via url</text></g><!--link kratos to mail--><g id="link_kratos_mail"><path d="M73.4,809.1394 C70.9,831.2794 67.8132,858.5873 65.3032,880.8173 " fill="none" id="kratos-to-mail" style="stroke:#181818;stroke-width:1.0;"/><polygon fill="#181818" points="64.63,886.7794,69.6145,878.285,65.191,881.8109,61.665,877.3874,64.63,886.7794" style="stroke:#181818;stroke-width:1.0;"/><text fill="#000000" font-family="sans-serif" font-size="13" lengthAdjust="spacing" textLength="76" x="70" y="853.6045">SMTP (1025)</text></g><!--link backend to keto--><g id="link_backend_keto"><path d="M222.77,683.1394 C220.63,705.2794 217.9876,732.5772 215.8376,754.8072 " fill="none" id="backend-to-keto" style="stroke:#181818;stroke-width:1.0;stroke-dasharray:7.0,7.0;"/><polygon fill="#181818" points="215.26,760.7794,220.1078,752.2062,215.7413,755.8026,212.145,751.4361,215.26,760.7794" style="stroke:#181818;stroke-width:1.0;"/><text fill="#000000" font-family="sans-serif" font-size="13" lengthAdjust="spacing" textLength="122" x="220" y="727.6045">Write Tuples (GRPC)</text></g><!--link backend to kratos--><g id="link_backend_kratos"><path d="M194.06,683.1294 C182.03,692.2794 168.23,703.0094 156,713.1094 C137.24,728.5994 121.1847,742.7989 105.6247,756.9089 " fill="none" id="backend-to-kratos" style="stroke:#181818;stroke-width:1.0;stroke-dasharray:7.0,7.0;"/><polygon fill="#181818" points="101.18,760.9394,110.534,757.8568,104.8839,757.5806,105.16,751.9305,101.18,760.9394" style="stroke:#181818;stroke-width:1.0;"/><text fill="#000000" font-family="sans-serif" font-size="13" lengthAdjust="spacing" textLength="52" x="157" y="727.6045">Add user</text></g><!--link backend to minio--><g id="link_backend_minio"><path d="M285.56,683.2194 C308.16,692.1594 333.92,702.7294 357,713.1094 C373.31,720.4494 376.56,724.0594 393,731.1094 C418.56,742.0594 441.5611,750.7452 466.7311,759.6152 " fill="none" id="backend-to-minio" style="stroke:#181818;stroke-width:1.0;"/><polygon fill="#181818" points="472.39,761.6094,465.2311,754.8455,467.6743,759.9475,462.5722,762.3906,472.39,761.6094" style="stroke:#181818;stroke-width:1.0;"/><text fill="#000000" font-family="sans-serif" font-size="13" lengthAdjust="spacing" textLength="112" x="394" y="727.6045">Store or delete files</text></g><!--link backend to db_rms--><g id="link_backend_db_rms"><path d="M289.74,674.7694 C311.69,682.7394 334.54,694.8494 350,713.1094 C356.14,720.3694 359.9577,737.567 362.8677,755.477 " fill="none" id="backend-to-db_rms" style="stroke:#181818;stroke-width:1.0;"/><polygon fill="#181818" points="363.83,761.3994,366.3348,751.8744,363.0281,756.4641,358.4384,753.1574,363.83,761.3994" style="stroke:#181818;stroke-width:1.0;"/></g><!--link kratos to db_auth--><g id="link_kratos_db_auth"><path d="M114.95,809.1594 C128.24,817.8094 142.82,828.2094 155,839.1094 C171.35,853.7494 183.6108,868.1144 194.9308,882.8244 " fill="none" id="kratos-to-db_auth" style="stroke:#181818;stroke-width:1.0;"/><polygon fill="#181818" points="198.59,887.5794,196.2712,878.0074,195.5407,883.6169,189.9312,882.8863,198.59,887.5794" style="stroke:#181818;stroke-width:1.0;"/></g><!--link keto to db_perm--><g id="link_keto_db_perm"><path d="M251.82,809.1394 C289.48,831.4894 341.1098,862.118 378.5798,884.348 " fill="none" id="keto-to-db_perm" style="stroke:#181818;stroke-width:1.0;"/><polygon fill="#181818" points="383.74,887.4094,378.0406,879.3771,379.4398,884.8582,373.9587,886.2574,383.74,887.4094" style="stroke:#181818;stroke-width:1.0;"/></g><!--SRC=[VLF1RXen4BtxAqRq43Y0sagzSAW4aL95BGq5f1wggffT3p35h5UsDmHL_PX-ItyiOtiNI1G58TRCcvdtziquS3044rTkEL0P6aUW6JSEzz2_NGod5fqUA8Lbi0uQJqwfArYG9W_zhnGErktyGDLOxd13q6j3OwYRmd3PWpU6Anff6m9f-AD0FZyMioNSE5i5glHFG0_h-2TZAuUqvbqARp3G0O_ghtg1WANSLMY4OY9CD3KDTGHtxWXt6BOxeffSwbKx-t0yevyT1kiJial72uY2pO0SpeAdeg3JM-Hp1cV8fkQGWBsSsqx5Rx4JbcARwCuWLvmRfX-D0GlqyavpwyF6qVBR5-WBrQ0NitNno-tzAvctcgh0uNXAnoPiNycVazkpzsmhVoeHT_RHtYkujXKz22PprGJ1_V-tvjAgE74OQdkeXXzFysYVftWQ7pmBIpnv3crttvWWfEtOF8ZLAYSCOswU0Zm9YV-fUexUmffbs23VTX1TPaTMl1nEfiCOi2p9owQnaJUyPuJ6cTWxJeohJTHwpz4SDAhLaie5bkhbR3M7_hktxpyCaY1odhsiRyceMc8OZLh9O_Zkv3B1ggaZMV_JOduzU9gM2SOmqJfVgWwzb1ntXq2kdIP3qYzh5qTEoQt_xQfqii_Hj159qqKmpLmz0W00]--></g></svg>