<?xml version="1.0" encoding="us-ascii" standalone="no"?><svg xmlns="http://www.w3.org/2000/svg" xmlns:xlink="http://www.w3.org/1999/xlink" contentStyleType="text/css" height="941px" preserveAspectRatio="none" style="width:539px;height:941px;background:#FFFFFF;" version="1.1" viewBox="0 0 539 941" width="539px" zoomAndPan="magnify"><defs/><g><text fill="#000000" font-family="sans-serif" font-size="14" font-weight="bold" lengthAdjust="spacing" textLength="222" x="151.5" y="24.5332">Architecture diagram (IR-Board)</text><!--cluster Network: public--><g id="cluster_Network: public"><path d="M52.5,169.1094 L162.5,169.1094 A3.75,3.75 0 0 1 165,171.6094 L172,192.7188 L211.5,192.7188 A2.5,2.5 0 0 1 214,195.2188 L214,375.6094 A2.5,2.5 0 0 1 211.5,378.1094 L52.5,378.1094 A2.5,2.5 0 0 1 50,375.6094 L50,171.6094 A2.5,2.5 0 0 1 52.5,169.1094 " fill="none" style="stroke:#000000;stroke-width:1.0;stroke-dasharray:1.0,3.0;"/><line style="stroke:#000000;stroke-width:1.0;stroke-dasharray:1.0,3.0;" x1="50" x2="172" y1="192.7188" y2="192.7188"/><text fill="#000000" font-family="sans-serif" font-size="14" font-weight="bold" lengthAdjust="spacing" textLength="109" x="54" y="185.6426">Network: public</text></g><!--cluster Network: internal--><g id="cluster_Network: internal"><path d="M8.5,411.1094 L129.5,411.1094 A3.75,3.75 0 0 1 132,413.6094 L139,434.7188 L529.5,434.7188 A2.5,2.5 0 0 1 532,437.2188 L532,931.6094 A2.5,2.5 0 0 1 529.5,934.1094 L8.5,934.1094 A2.5,2.5 0 0 1 6,931.6094 L6,413.6094 A2.5,2.5 0 0 1 8.5,411.1094 " fill="#F0F8FF" style="stroke:#000000;stroke-width:1.5;"/><line style="stroke:#000000;stroke-width:1.5;" x1="6" x2="139" y1="434.7188" y2="434.7188"/><text fill="#000000" font-family="sans-serif" font-size="14" font-weight="bold" lengthAdjust="spacing" textLength="120" x="10" y="427.6426">Network: internal</text></g><!--entity front--><g id="elem_front"><rect fill="#F1F1F1" height="47.6094" rx="2.5" ry="2.5" style="stroke:#181818;stroke-width:0.5;" width="132" x="66" y="314.1094"/><rect fill="#F1F1F1" height="10" style="stroke:#181818;stroke-width:0.5;" width="15" x="178" y="319.1094"/><rect fill="#F1F1F1" height="2" style="stroke:#181818;stroke-width:0.5;" width="4" x="176" y="321.1094"/><rect fill="#F1F1F1" height="2" style="stroke:#181818;stroke-width:0.5;" width="4" x="176" y="325.1094"/><text fill="#000000" font-family="sans-serif" font-size="14" lengthAdjust="spacing" textLength="92" x="81" y="348.6426">RMS Frontend</text></g><!--entity gateway--><g id="elem_gateway"><rect fill="#F1F1F1" height="47.6094" rx="2.5" ry="2.5" style="stroke:#181818;stroke-width:0.5;" width="84" x="102" y="205.1094"/><rect fill="#F1F1F1" height="10" style="stroke:#181818;stroke-width:0.5;" width="15" x="166" y="210.1094"/><rect fill="#F1F1F1" height="2" style="stroke:#181818;stroke-width:0.5;" width="4" x="164" y="212.1094"/><rect fill="#F1F1F1" height="2" style="stroke:#181818;stroke-width:0.5;" width="4" x="164" y="216.1094"/><text fill="#000000" font-family="sans-serif" font-size="14" lengthAdjust="spacing" textLength="44" x="117" y="239.6426">Traefik</text></g><!--entity proxy--><g id="elem_proxy"><rect fill="#F1F1F1" height="47.6094" rx="2.5" ry="2.5" style="stroke:#181818;stroke-width:0.5;" width="142" x="180" y="447.1094"/><rect fill="#F1F1F1" height="10" style="stroke:#181818;stroke-width:0.5;" width="15" x="302" y="452.1094"/><rect fill="#F1F1F1" height="2" style="stroke:#181818;stroke-width:0.5;" width="4" x="300" y="454.1094"/><rect fill="#F1F1F1" height="2" style="stroke:#181818;stroke-width:0.5;" width="4" x="300" y="458.1094"/><text fill="#000000" font-family="sans-serif" font-size="14" lengthAdjust="spacing" textLength="102" x="195" y="481.6426">Ory Oathkeeper</text></g><!--entity kratos--><g id="elem_kratos"><rect fill="#F1F1F1" height="47.6094" rx="2.5" ry="2.5" style="stroke:#181818;stroke-width:0.5;" width="108" x="54" y="744.1094"/><rect fill="#F1F1F1" height="10" style="stroke:#181818;stroke-width:0.5;" width="15" x="142" y="749.1094"/><rect fill="#F1F1F1" height="2" style="stroke:#181818;stroke-width:0.5;" width="4" x="140" y="751.1094"/><rect fill="#F1F1F1" height="2" style="stroke:#181818;stroke-width:0.5;" width="4" x="140" y="755.1094"/><text fill="#000000" font-family="sans-serif" font-size="14" lengthAdjust="spacing" textLength="68" x="69" y="778.6426">Ory Kratos</text></g><!--entity keto--><g id="elem_keto"><rect fill="#F1F1F1" height="47.6094" rx="2.5" ry="2.5" style="stroke:#181818;stroke-width:0.5;" width="96" x="374" y="744.1094"/><rect fill="#F1F1F1" height="10" style="stroke:#181818;stroke-width:0.5;" width="15" x="450" y="749.1094"/><rect fill="#F1F1F1" height="2" style="stroke:#181818;stroke-width:0.5;" width="4" x="448" y="751.1094"/><rect fill="#F1F1F1" height="2" style="stroke:#181818;stroke-width:0.5;" width="4" x="448" y="755.1094"/><text fill="#000000" font-family="sans-serif" font-size="14" lengthAdjust="spacing" textLength="56" x="389" y="778.6426">Ory Keto</text></g><!--entity backend--><g id="elem_backend"><rect fill="#F1F1F1" height="47.6094" rx="2.5" ry="2.5" style="stroke:#181818;stroke-width:0.5;" width="129" x="186.5" y="618.1094"/><rect fill="#F1F1F1" height="10" style="stroke:#181818;stroke-width:0.5;" width="15" x="295.5" y="623.1094"/><rect fill="#F1F1F1" height="2" style="stroke:#181818;stroke-width:0.5;" width="4" x="293.5" y="625.1094"/><rect fill="#F1F1F1" height="2" style="stroke:#181818;stroke-width:0.5;" width="4" x="293.5" y="629.1094"/><text fill="#000000" font-family="sans-serif" font-size="14" lengthAdjust="spacing" textLength="89" x="201.5" y="652.6426">RMS Backend</text></g><!--entity mail--><g id="elem_mail"><rect fill="#F1F1F1" height="47.6094" rx="2.5" ry="2.5" style="stroke:#181818;stroke-width:0.5;" width="80" x="213" y="870.1094"/><rect fill="#F1F1F1" height="10" style="stroke:#181818;stroke-width:0.5;" width="15" x="273" y="875.1094"/><rect fill="#F1F1F1" height="2" style="stroke:#181818;stroke-width:0.5;" width="4" x="271" y="877.1094"/><rect fill="#F1F1F1" height="2" style="stroke:#181818;stroke-width:0.5;" width="4" x="271" y="881.1094"/><text fill="#000000" font-family="sans-serif" font-size="14" lengthAdjust="spacing" textLength="40" x="228" y="904.6426">Mailpit</text></g><!--entity db_rms--><g id="elem_db_rms"><path d="M197.5,754.6094 C197.5,744.6094 268,744.6094 268,744.6094 C268,744.6094 338.5,744.6094 338.5,754.6094 L338.5,781.2188 C338.5,791.2188 268,791.2188 268,791.2188 C268,791.2188 197.5,791.2188 197.5,781.2188 L197.5,754.6094 " fill="#F1F1F1" style="stroke:#181818;stroke-width:0.5;"/><path d="M197.5,754.6094 C197.5,764.6094 268,764.6094 268,764.6094 C268,764.6094 338.5,764.6094 338.5,754.6094 " fill="none" style="stroke:#181818;stroke-width:0.5;"/><text fill="#000000" font-family="sans-serif" font-size="14" lengthAdjust="spacing" textLength="121" x="207.5" y="783.1426">PostgreSQL (RMS)</text></g><!--entity db_auth--><g id="elem_db_auth"><path d="M22,880.6094 C22,870.6094 100,870.6094 100,870.6094 C100,870.6094 178,870.6094 178,880.6094 L178,907.2188 C178,917.2188 100,917.2188 100,917.2188 C100,917.2188 22,917.2188 22,907.2188 L22,880.6094 " fill="#F1F1F1" style="stroke:#181818;stroke-width:0.5;"/><path d="M22,880.6094 C22,890.6094 100,890.6094 100,890.6094 C100,890.6094 178,890.6094 178,880.6094 " fill="none" style="stroke:#181818;stroke-width:0.5;"/><text fill="#000000" font-family="sans-serif" font-size="14" lengthAdjust="spacing" textLength="136" x="32" y="909.1426">PostgreSQL (Identity)</text></g><!--entity db_perm--><g id="elem_db_perm"><path d="M328.5,880.6094 C328.5,870.6094 422,870.6094 422,870.6094 C422,870.6094 515.5,870.6094 515.5,880.6094 L515.5,907.2188 C515.5,917.2188 422,917.2188 422,917.2188 C422,917.2188 328.5,917.2188 328.5,907.2188 L328.5,880.6094 " fill="#F1F1F1" style="stroke:#181818;stroke-width:0.5;"/><path d="M328.5,880.6094 C328.5,890.6094 422,890.6094 422,890.6094 C422,890.6094 515.5,890.6094 515.5,880.6094 " fill="none" style="stroke:#181818;stroke-width:0.5;"/><text fill="#000000" font-family="sans-serif" font-size="14" lengthAdjust="spacing" textLength="167" x="338.5" y="909.1426">PostgreSQL (Permissions)</text></g><!--entity user--><g id="elem_user"><ellipse cx="144" cy="52.6094" fill="#F1F1F1" rx="8" ry="8" style="stroke:#181818;stroke-width:0.5;"/><path d="M144,60.6094 L144,87.6094 M131,68.6094 L157,68.6094 M144,87.6094 L131,102.6094 M144,87.6094 L157,102.6094 " fill="none" style="stroke:#181818;stroke-width:0.5;"/><text fill="#000000" font-family="sans-serif" font-size="14" lengthAdjust="spacing" textLength="28" x="130" y="118.6426">user</text></g><!--link user to gateway--><g id="link_user_gateway"><path d="M144,122.3194 C144,148.6494 144,176.7794 144,199.0494 " fill="none" id="user-to-gateway" style="stroke:#181818;stroke-width:1.0;"/><polygon fill="#181818" points="144,205.0494,148,196.0494,144,200.0494,140,196.0494,144,205.0494" style="stroke:#181818;stroke-width:1.0;"/></g><!--link gateway to front--><g id="link_gateway_front"><path d="M141.4,253.3294 C139.38,271.2694 137.2781,290.0367 135.2681,307.9767 " fill="none" id="gateway-to-front" style="stroke:#181818;stroke-width:1.0;"/><polygon fill="#181818" points="134.6,313.9394,139.5772,305.4407,135.1567,308.9705,131.627,304.55,134.6,313.9394" style="stroke:#181818;stroke-width:1.0;"/></g><!--link gateway to proxy--><g id="link_gateway_proxy"><path d="M169.26,253.1294 C184.99,268.8394 204.38,290.9294 216,314.1094 C237.95,357.9094 245.6921,409.4973 248.7421,441.0173 " fill="none" id="gateway-to-proxy" style="stroke:#181818;stroke-width:1.0;"/><polygon fill="#181818" points="249.32,446.9894,252.4346,437.646,248.8384,442.0126,244.4718,438.4165,249.32,446.9894" style="stroke:#181818;stroke-width:1.0;"/></g><!--link proxy to kratos--><g id="link_proxy_kratos"><path d="M236.74,495.3994 C219.61,523.8294 190.5,573.6094 169,618.1094 C147.96,661.6494 129.5988,708.7684 118.5388,738.3884 " fill="none" id="proxy-to-kratos" style="stroke:#181818;stroke-width:1.0;"/><polygon fill="#181818" points="116.44,744.0094,123.3355,736.9772,118.189,739.3253,115.841,734.1788,116.44,744.0094" style="stroke:#181818;stroke-width:1.0;"/></g><!--link proxy to keto--><g id="link_proxy_keto"><path d="M275.37,495.1694 C313.48,532.9694 386.04,612.3394 417,696.1094 C422.65,711.4094 423.8985,723.81 423.6885,738.04 " fill="none" id="proxy-to-keto" style="stroke:#181818;stroke-width:1.0;"/><polygon fill="#181818" points="423.6,744.0394,427.7324,735.0994,423.6738,739.0399,419.7332,734.9813,423.6,744.0394" style="stroke:#181818;stroke-width:1.0;"/></g><!--link proxy to backend--><g id="link_proxy_backend"><path d="M251,495.2494 C251,527.5294 251,579.7094 251,611.9694 " fill="none" id="proxy-to-backend" style="stroke:#181818;stroke-width:1.0;"/><polygon fill="#181818" points="251,617.9694,255,608.9694,251,612.9694,247,608.9694,251,617.9694" style="stroke:#181818;stroke-width:1.0;"/></g><!--link kratos to mail--><g id="link_kratos_mail"><path d="M134.93,792.1394 C160.81,814.2794 195.1596,843.6503 221.1596,865.8803 " fill="none" id="kratos-to-mail" style="stroke:#181818;stroke-width:1.0;"/><polygon fill="#181818" points="225.72,869.7794,221.4789,860.8905,221.9197,866.5301,216.28,866.971,225.72,869.7794" style="stroke:#181818;stroke-width:1.0;"/><text fill="#000000" font-family="sans-serif" font-size="13" lengthAdjust="spacing" textLength="76" x="190" y="836.6045">SMTP (1025)</text></g><!--link backend to keto--><g id="link_backend_keto"><path d="M258.61,666.2594 C264.7,681.6294 274.61,701.2494 289,714.1094 C295.81,720.1994 333.0211,734.6919 368.2711,747.7019 " fill="none" id="backend-to-keto" style="stroke:#181818;stroke-width:1.0;stroke-dasharray:7.0,7.0;"/><polygon fill="#181818" points="373.9,749.7794,366.8417,742.9106,369.2093,748.0481,364.0717,750.4157,373.9,749.7794" style="stroke:#181818;stroke-width:1.0;"/><text fill="#000000" font-family="sans-serif" font-size="13" lengthAdjust="spacing" textLength="122" x="290" y="710.6045">Write Tuples (GRPC)</text></g><!--link backend to kratos--><g id="link_backend_kratos"><path d="M224.44,666.1394 C198.91,688.2794 165.0726,717.618 139.4426,739.848 " fill="none" id="backend-to-kratos" style="stroke:#181818;stroke-width:1.0;stroke-dasharray:7.0,7.0;"/><polygon fill="#181818" points="134.91,743.7794,144.3298,740.9041,138.6872,740.5033,139.088,734.8606,134.91,743.7794" style="stroke:#181818;stroke-width:1.0;"/><text fill="#000000" font-family="sans-serif" font-size="13" lengthAdjust="spacing" textLength="52" x="189" y="710.6045">Add user</text></g><!--link backend to db_rms--><g id="link_backend_db_rms"><path d="M251.74,666.2294 C252.4,680.1594 253.66,698.2194 256,714.1094 C257.49,724.1894 258.4635,729.3641 260.7035,738.7241 " fill="none" id="backend-to-db_rms" style="stroke:#181818;stroke-width:1.0;"/><polygon fill="#181818" points="262.1,744.5594,263.8955,734.8756,260.9363,739.6967,256.1152,736.7375,262.1,744.5594" style="stroke:#181818;stroke-width:1.0;"/></g><!--link kratos to db_auth--><g id="link_kratos_db_auth"><path d="M106.51,792.1394 C105.08,814.4194 103.2952,841.9818 101.8652,864.2118 " fill="none" id="kratos-to-db_auth" style="stroke:#181818;stroke-width:1.0;"/><polygon fill="#181818" points="101.48,870.1994,106.0495,861.4747,101.801,865.2097,98.066,860.9612,101.48,870.1994" style="stroke:#181818;stroke-width:1.0;"/></g><!--link keto to db_perm--><g id="link_keto_db_perm"><path d="M422,792.1394 C422,814.4194 422,841.9694 422,864.1994 " fill="none" id="keto-to-db_perm" style="stroke:#181818;stroke-width:1.0;"/><polygon fill="#181818" points="422,870.1994,426,861.1994,422,865.1994,418,861.1994,422,870.1994" style="stroke:#181818;stroke-width:1.0;"/></g><!--SRC=[VLDDZzCm4BtxLupAOPj3Aq3YqWDIkn9e1ML3Mua3GcWQJrCh7uxi2TqAyMFuBVmnnexJxYAqKPGuxptFcxn9s71Di7J5qJ0Lt3i2RR1qsC3qRZDRMNGwKmeBjWvwJqwf6zYG9W_JJyGdwogVgGwB2ak2IO8MqFNxsXGJU56RbkRQCfE6dmha-BfPR-6TiorJgxy1UZY4Xu7REQI3gI9S8jC9p-gN-e-1aUsknLeibk94gxgdqU3UdU4U-LWHTUHYhSxPX_EL_U2GhOzC5PUFA68x4BAuDhoI3iP-zyDw8DTewivm91fPHpHUD3BkqKlNkVLSEjf-_WXJAPPDWbZllxl6FwEyqzIouVD5ZZqVdz7dv1hZlR6jlsoHzsz2W3TmQrjw44ucfmdO_VbzC8LLOQOmq_RKpjvU4a_t2nu71F_0WiTK8LNtVSrYcWRZGS9KWs0Mj4FEy0IIXEFk7Bs5Wv5nWfmfwb4vcesfYpxaRDeo-FymuOMnLgb-K0OQ5h1TxtAOldhv-aqMJSXvu-MZAmogL0pcyzJ60huu-GLWrtTr-BZVR_BRxAbiC5Z0KklqAupqc5CQwTZA5OsJYpwFm3WRzHS0]--></g></svg>