<?xml version="1.0" encoding="us-ascii" standalone="no"?><svg xmlns="http://www.w3.org/2000/svg" xmlns:xlink="http://www.w3.org/1999/xlink" contentStyleType="text/css" height="537px" preserveAspectRatio="none" style="width:2100px;height:537px;background:#FFFFFF;" version="1.1" viewBox="0 0 2100 537" width="2100px" zoomAndPan="magnify"><defs/><g><text fill="#000000" font-family="sans-serif" font-size="14" font-weight="bold" lengthAdjust="spacing" textLength="275" x="905.5" y="24.5332">IR-Board - Complete Container Diagram</text><!--cluster publicNetwork--><g id="cluster_publicNetwork"><path d="M1580.5,198.6094 L1686.5,198.6094 A3.75,3.75 0 0 1 1689,201.1094 L1696,222.2188 L2090.5,222.2188 A2.5,2.5 0 0 1 2093,224.7188 L2093,428.6094 A2.5,2.5 0 0 1 2090.5,431.1094 L1580.5,431.1094 A2.5,2.5 0 0 1 1578,428.6094 L1578,201.1094 A2.5,2.5 0 0 1 1580.5,198.6094 " fill="none" style="stroke:#000000;stroke-width:1.0;stroke-dasharray:1.0,3.0;"/><line style="stroke:#000000;stroke-width:1.0;stroke-dasharray:1.0,3.0;" x1="1578" x2="1696" y1="222.2188" y2="222.2188"/><text fill="#000000" font-family="sans-serif" font-size="14" font-weight="bold" lengthAdjust="spacing" textLength="105" x="1582" y="215.1426">Public Network</text></g><!--cluster Internal Network--><g id="cluster_Internal Network"><path d="M8.5,138.1094 L125.5,138.1094 A3.75,3.75 0 0 1 128,140.6094 L135,161.7188 L1543.5,161.7188 A2.5,2.5 0 0 1 1546,164.2188 L1546,527.6094 A2.5,2.5 0 0 1 1543.5,530.1094 L8.5,530.1094 A2.5,2.5 0 0 1 6,527.6094 L6,140.6094 A2.5,2.5 0 0 1 8.5,138.1094 " fill="#F0F8FF" style="stroke:#000000;stroke-width:1.5;"/><line style="stroke:#000000;stroke-width:1.5;" x1="6" x2="135" y1="161.7188" y2="161.7188"/><text fill="#000000" font-family="sans-serif" font-size="14" font-weight="bold" lengthAdjust="spacing" textLength="116" x="10" y="154.6426">Internal Network</text></g><!--cluster One-shot--><g id="cluster_One-shot"><path d="M571.5,206.6094 L637.5,206.6094 A3.75,3.75 0 0 1 640,209.1094 L647,230.2188 L1220.5,230.2188 A2.5,2.5 0 0 1 1223,232.7188 L1223,304.1094 A2.5,2.5 0 0 1 1220.5,306.6094 L571.5,306.6094 A2.5,2.5 0 0 1 569,304.1094 L569,209.1094 A2.5,2.5 0 0 1 571.5,206.6094 " fill="none" style="stroke:#000000;stroke-width:1.0;stroke-dasharray:7.0,7.0;"/><line style="stroke:#000000;stroke-width:1.0;stroke-dasharray:7.0,7.0;" x1="569" x2="647" y1="230.2188" y2="230.2188"/><text fill="#000000" font-family="sans-serif" font-size="14" font-weight="bold" lengthAdjust="spacing" textLength="65" x="573" y="223.1426">One-shot</text></g><!--cluster oryPackage--><g id="cluster_oryPackage"><path d="M128.5,190.1094 L153.5,190.1094 A3.75,3.75 0 0 1 156,192.6094 L163,213.7188 L428.5,213.7188 A2.5,2.5 0 0 1 431,216.2188 L431,428.6094 A2.5,2.5 0 0 1 428.5,431.1094 L128.5,431.1094 A2.5,2.5 0 0 1 126,428.6094 L126,192.6094 A2.5,2.5 0 0 1 128.5,190.1094 " fill="none" style="stroke:#000000;stroke-width:1.5;"/><line style="stroke:#000000;stroke-width:1.5;" x1="126" x2="163" y1="213.7188" y2="213.7188"/><text fill="#000000" font-family="sans-serif" font-size="14" font-weight="bold" lengthAdjust="spacing" textLength="24" x="130" y="206.6426">Ory</text></g><!--cluster Observability--><g id="cluster_Observability"><path d="M1249.5,206.6094 L1343.5,206.6094 A3.75,3.75 0 0 1 1346,209.1094 L1353,230.2188 L1519.5,230.2188 A2.5,2.5 0 0 1 1522,232.7188 L1522,420.6094 A2.5,2.5 0 0 1 1519.5,423.1094 L1249.5,423.1094 A2.5,2.5 0 0 1 1247,420.6094 L1247,209.1094 A2.5,2.5 0 0 1 1249.5,206.6094 " fill="none" style="stroke:#000000;stroke-width:1.5;"/><line style="stroke:#000000;stroke-width:1.5;" x1="1247" x2="1353" y1="230.2188" y2="230.2188"/><text fill="#000000" font-family="sans-serif" font-size="14" font-weight="bold" lengthAdjust="spacing" textLength="93" x="1251" y="223.1426">Observability</text></g><!--entity gateway--><g id="elem_gateway"><rect fill="#F1F1F1" height="47.6094" rx="2.5" ry="2.5" style="stroke:#181818;stroke-width:0.5;" width="84" x="1673" y="242.6094"/><rect fill="#F1F1F1" height="10" style="stroke:#181818;stroke-width:0.5;" width="15" x="1737" y="247.6094"/><rect fill="#F1F1F1" height="2" style="stroke:#181818;stroke-width:0.5;" width="4" x="1735" y="249.6094"/><rect fill="#F1F1F1" height="2" style="stroke:#181818;stroke-width:0.5;" width="4" x="1735" y="253.6094"/><text fill="#000000" font-family="sans-serif" font-size="14" lengthAdjust="spacing" textLength="44" x="1688" y="277.1426">Traefik</text></g><!--entity front--><g id="elem_front"><rect fill="#F1F1F1" height="47.6094" rx="2.5" ry="2.5" style="stroke:#181818;stroke-width:0.5;" width="98" x="1848" y="359.1094"/><rect fill="#F1F1F1" height="10" style="stroke:#181818;stroke-width:0.5;" width="15" x="1926" y="364.1094"/><rect fill="#F1F1F1" height="2" style="stroke:#181818;stroke-width:0.5;" width="4" x="1924" y="366.1094"/><rect fill="#F1F1F1" height="2" style="stroke:#181818;stroke-width:0.5;" width="4" x="1924" y="370.1094"/><text fill="#000000" font-family="sans-serif" font-size="14" lengthAdjust="spacing" textLength="58" x="1863" y="393.6426">Frontend</text></g><!--entity minio--><g id="elem_minio"><rect fill="#F1F1F1" height="47.6094" rx="2.5" ry="2.5" style="stroke:#181818;stroke-width:0.5;" width="76" x="1610" y="359.1094"/><rect fill="#F1F1F1" height="10" style="stroke:#181818;stroke-width:0.5;" width="15" x="1666" y="364.1094"/><rect fill="#F1F1F1" height="2" style="stroke:#181818;stroke-width:0.5;" width="4" x="1664" y="366.1094"/><rect fill="#F1F1F1" height="2" style="stroke:#181818;stroke-width:0.5;" width="4" x="1664" y="370.1094"/><text fill="#000000" font-family="sans-serif" font-size="14" lengthAdjust="spacing" textLength="36" x="1625" y="393.6426">MinIO</text></g><!--entity grafana--><g id="elem_grafana"><rect fill="#F1F1F1" height="47.6094" rx="2.5" ry="2.5" style="stroke:#181818;stroke-width:0.5;" width="92" x="1721" y="359.1094"/><rect fill="#F1F1F1" height="10" style="stroke:#181818;stroke-width:0.5;" width="15" x="1793" y="364.1094"/><rect fill="#F1F1F1" height="2" style="stroke:#181818;stroke-width:0.5;" width="4" x="1791" y="366.1094"/><rect fill="#F1F1F1" height="2" style="stroke:#181818;stroke-width:0.5;" width="4" x="1791" y="370.1094"/><text fill="#000000" font-family="sans-serif" font-size="14" lengthAdjust="spacing" textLength="52" x="1736" y="393.6426">Grafana</text></g><!--entity drawio--><g id="elem_drawio"><rect fill="#F1F1F1" height="47.6094" rx="2.5" ry="2.5" style="stroke:#181818;stroke-width:0.5;" width="87" x="1981.5" y="359.1094"/><rect fill="#F1F1F1" height="10" style="stroke:#181818;stroke-width:0.5;" width="15" x="2048.5" y="364.1094"/><rect fill="#F1F1F1" height="2" style="stroke:#181818;stroke-width:0.5;" width="4" x="2046.5" y="366.1094"/><rect fill="#F1F1F1" height="2" style="stroke:#181818;stroke-width:0.5;" width="4" x="2046.5" y="370.1094"/><text fill="#000000" font-family="sans-serif" font-size="14" lengthAdjust="spacing" textLength="47" x="1996.5" y="393.6426">Draw.io</text></g><!--entity backend--><g id="elem_backend"><rect fill="#F1F1F1" height="47.6094" rx="2.5" ry="2.5" style="stroke:#181818;stroke-width:0.5;" width="95" x="455.5" y="242.6094"/><rect fill="#F1F1F1" height="10" style="stroke:#181818;stroke-width:0.5;" width="15" x="530.5" y="247.6094"/><rect fill="#F1F1F1" height="2" style="stroke:#181818;stroke-width:0.5;" width="4" x="528.5" y="249.6094"/><rect fill="#F1F1F1" height="2" style="stroke:#181818;stroke-width:0.5;" width="4" x="528.5" y="253.6094"/><text fill="#000000" font-family="sans-serif" font-size="14" lengthAdjust="spacing" textLength="55" x="470.5" y="277.1426">Backend</text></g><!--entity mail--><g id="elem_mail"><rect fill="#F1F1F1" height="47.6094" rx="2.5" ry="2.5" style="stroke:#181818;stroke-width:0.5;" width="80" x="22" y="359.1094"/><rect fill="#F1F1F1" height="10" style="stroke:#181818;stroke-width:0.5;" width="15" x="82" y="364.1094"/><rect fill="#F1F1F1" height="2" style="stroke:#181818;stroke-width:0.5;" width="4" x="80" y="366.1094"/><rect fill="#F1F1F1" height="2" style="stroke:#181818;stroke-width:0.5;" width="4" x="80" y="370.1094"/><text fill="#000000" font-family="sans-serif" font-size="14" lengthAdjust="spacing" textLength="40" x="37" y="393.6426">Mailpit</text></g><!--entity db_rms--><g id="elem_db_rms"><path d="M523.5,369.6094 C523.5,359.6094 594,359.6094 594,359.6094 C594,359.6094 664.5,359.6094 664.5,369.6094 L664.5,396.2188 C664.5,406.2188 594,406.2188 594,406.2188 C594,406.2188 523.5,406.2188 523.5,396.2188 L523.5,369.6094 " fill="#F1F1F1" style="stroke:#181818;stroke-width:0.5;"/><path d="M523.5,369.6094 C523.5,379.6094 594,379.6094 594,379.6094 C594,379.6094 664.5,379.6094 664.5,369.6094 " fill="none" style="stroke:#181818;stroke-width:0.5;"/><text fill="#000000" font-family="sans-serif" font-size="14" lengthAdjust="spacing" textLength="121" x="533.5" y="398.1426">PostgreSQL (RMS)</text></g><!--entity db_auth--><g id="elem_db_auth"><path d="M186,477.1094 C186,467.1094 262,467.1094 262,467.1094 C262,467.1094 338,467.1094 338,477.1094 L338,503.7188 C338,513.7188 262,513.7188 262,513.7188 C262,513.7188 186,513.7188 186,503.7188 L186,477.1094 " fill="#F1F1F1" style="stroke:#181818;stroke-width:0.5;"/><path d="M186,477.1094 C186,487.1094 262,487.1094 262,487.1094 C262,487.1094 338,487.1094 338,477.1094 " fill="none" style="stroke:#181818;stroke-width:0.5;"/><text fill="#000000" font-family="sans-serif" font-size="14" lengthAdjust="spacing" textLength="132" x="196" y="505.6426">PostgreSQL (Kratos)</text></g><!--entity db_perm--><g id="elem_db_perm"><path d="M486,477.1094 C486,467.1094 556,467.1094 556,467.1094 C556,467.1094 626,467.1094 626,477.1094 L626,503.7188 C626,513.7188 556,513.7188 556,513.7188 C556,513.7188 486,513.7188 486,503.7188 L486,477.1094 " fill="#F1F1F1" style="stroke:#181818;stroke-width:0.5;"/><path d="M486,477.1094 C486,487.1094 556,487.1094 556,487.1094 C556,487.1094 626,487.1094 626,477.1094 " fill="none" style="stroke:#181818;stroke-width:0.5;"/><text fill="#000000" font-family="sans-serif" font-size="14" lengthAdjust="spacing" textLength="120" x="496" y="505.6426">PostgreSQL (Keto)</text></g><!--entity kratosm--><g id="elem_kratosm"><rect fill="#F1F1F1" height="47.6094" rx="2.5" ry="2.5" style="stroke:#181818;stroke-width:0.5;" width="131" x="775.5" y="242.6094"/><rect fill="#F1F1F1" height="10" style="stroke:#181818;stroke-width:0.5;" width="15" x="886.5" y="247.6094"/><rect fill="#F1F1F1" height="2" style="stroke:#181818;stroke-width:0.5;" width="4" x="884.5" y="249.6094"/><rect fill="#F1F1F1" height="2" style="stroke:#181818;stroke-width:0.5;" width="4" x="884.5" y="253.6094"/><text fill="#000000" font-family="sans-serif" font-size="14" lengthAdjust="spacing" textLength="91" x="790.5" y="277.1426">kratos-migrate</text></g><!--entity ketom--><g id="elem_ketom"><rect fill="#F1F1F1" height="47.6094" rx="2.5" ry="2.5" style="stroke:#181818;stroke-width:0.5;" width="119" x="941.5" y="242.6094"/><rect fill="#F1F1F1" height="10" style="stroke:#181818;stroke-width:0.5;" width="15" x="1040.5" y="247.6094"/><rect fill="#F1F1F1" height="2" style="stroke:#181818;stroke-width:0.5;" width="4" x="1038.5" y="249.6094"/><rect fill="#F1F1F1" height="2" style="stroke:#181818;stroke-width:0.5;" width="4" x="1038.5" y="253.6094"/><text fill="#000000" font-family="sans-serif" font-size="14" lengthAdjust="spacing" textLength="79" x="956.5" y="277.1426">keto-migrate</text></g><!--entity minioclient--><g id="elem_minioclient"><rect fill="#F1F1F1" height="47.6094" rx="2.5" ry="2.5" style="stroke:#181818;stroke-width:0.5;" width="111" x="1095.5" y="242.6094"/><rect fill="#F1F1F1" height="10" style="stroke:#181818;stroke-width:0.5;" width="15" x="1186.5" y="247.6094"/><rect fill="#F1F1F1" height="2" style="stroke:#181818;stroke-width:0.5;" width="4" x="1184.5" y="249.6094"/><rect fill="#F1F1F1" height="2" style="stroke:#181818;stroke-width:0.5;" width="4" x="1184.5" y="253.6094"/><text fill="#000000" font-family="sans-serif" font-size="14" lengthAdjust="spacing" textLength="71" x="1110.5" y="277.1426">minio-client</text></g><!--entity setup--><g id="elem_setup"><rect fill="#F1F1F1" height="47.6094" rx="2.5" ry="2.5" style="stroke:#181818;stroke-width:0.5;" width="155" x="585.5" y="242.6094"/><rect fill="#F1F1F1" height="10" style="stroke:#181818;stroke-width:0.5;" width="15" x="720.5" y="247.6094"/><rect fill="#F1F1F1" height="2" style="stroke:#181818;stroke-width:0.5;" width="4" x="718.5" y="249.6094"/><rect fill="#F1F1F1" height="2" style="stroke:#181818;stroke-width:0.5;" width="4" x="718.5" y="253.6094"/><text fill="#000000" font-family="sans-serif" font-size="14" lengthAdjust="spacing" textLength="115" x="600.5" y="277.1426">initial-setup-admin</text></g><!--entity proxy--><g id="elem_proxy"><rect fill="#F1F1F1" height="47.6094" rx="2.5" ry="2.5" style="stroke:#181818;stroke-width:0.5;" width="115" x="291.5" y="242.6094"/><rect fill="#F1F1F1" height="10" style="stroke:#181818;stroke-width:0.5;" width="15" x="386.5" y="247.6094"/><rect fill="#F1F1F1" height="2" style="stroke:#181818;stroke-width:0.5;" width="4" x="384.5" y="249.6094"/><rect fill="#F1F1F1" height="2" style="stroke:#181818;stroke-width:0.5;" width="4" x="384.5" y="253.6094"/><text fill="#000000" font-family="sans-serif" font-size="14" lengthAdjust="spacing" textLength="75" x="306.5" y="277.1426">Oathkeeper</text></g><!--entity kratos--><g id="elem_kratos"><rect fill="#F1F1F1" height="47.6094" rx="2.5" ry="2.5" style="stroke:#181818;stroke-width:0.5;" width="81" x="221.5" y="359.1094"/><rect fill="#F1F1F1" height="10" style="stroke:#181818;stroke-width:0.5;" width="15" x="282.5" y="364.1094"/><rect fill="#F1F1F1" height="2" style="stroke:#181818;stroke-width:0.5;" width="4" x="280.5" y="366.1094"/><rect fill="#F1F1F1" height="2" style="stroke:#181818;stroke-width:0.5;" width="4" x="280.5" y="370.1094"/><text fill="#000000" font-family="sans-serif" font-size="14" lengthAdjust="spacing" textLength="41" x="236.5" y="393.6426">Kratos</text></g><!--entity courier--><g id="elem_courier"><rect fill="#F1F1F1" height="65.2188" rx="2.5" ry="2.5" style="stroke:#181818;stroke-width:0.5;" width="87" x="169.5" y="234.1094"/><rect fill="#F1F1F1" height="10" style="stroke:#181818;stroke-width:0.5;" width="15" x="236.5" y="239.1094"/><rect fill="#F1F1F1" height="2" style="stroke:#181818;stroke-width:0.5;" width="4" x="234.5" y="241.1094"/><rect fill="#F1F1F1" height="2" style="stroke:#181818;stroke-width:0.5;" width="4" x="234.5" y="245.1094"/><text fill="#000000" font-family="sans-serif" font-size="14" lengthAdjust="spacing" textLength="41" x="184.5" y="268.6426">Kratos</text><text fill="#000000" font-family="sans-serif" font-size="14" lengthAdjust="spacing" textLength="47" x="184.5" y="286.252">Courier</text></g><!--entity keto--><g id="elem_keto"><rect fill="#F1F1F1" height="47.6094" rx="2.5" ry="2.5" style="stroke:#181818;stroke-width:0.5;" width="69" x="337.5" y="359.1094"/><rect fill="#F1F1F1" height="10" style="stroke:#181818;stroke-width:0.5;" width="15" x="386.5" y="364.1094"/><rect fill="#F1F1F1" height="2" style="stroke:#181818;stroke-width:0.5;" width="4" x="384.5" y="366.1094"/><rect fill="#F1F1F1" height="2" style="stroke:#181818;stroke-width:0.5;" width="4" x="384.5" y="370.1094"/><text fill="#000000" font-family="sans-serif" font-size="14" lengthAdjust="spacing" textLength="29" x="352.5" y="393.6426">Keto</text></g><!--entity prometheus--><g id="elem_prometheus"><rect fill="#F1F1F1" height="47.6094" rx="2.5" ry="2.5" style="stroke:#181818;stroke-width:0.5;" width="116" x="1390" y="242.6094"/><rect fill="#F1F1F1" height="10" style="stroke:#181818;stroke-width:0.5;" width="15" x="1486" y="247.6094"/><rect fill="#F1F1F1" height="2" style="stroke:#181818;stroke-width:0.5;" width="4" x="1484" y="249.6094"/><rect fill="#F1F1F1" height="2" style="stroke:#181818;stroke-width:0.5;" width="4" x="1484" y="253.6094"/><text fill="#000000" font-family="sans-serif" font-size="14" lengthAdjust="spacing" textLength="76" x="1405" y="277.1426">Prometheus</text></g><!--entity loki--><g id="elem_loki"><rect fill="#F1F1F1" height="47.6094" rx="2.5" ry="2.5" style="stroke:#181818;stroke-width:0.5;" width="66" x="1358" y="359.1094"/><rect fill="#F1F1F1" height="10" style="stroke:#181818;stroke-width:0.5;" width="15" x="1404" y="364.1094"/><rect fill="#F1F1F1" height="2" style="stroke:#181818;stroke-width:0.5;" width="4" x="1402" y="366.1094"/><rect fill="#F1F1F1" height="2" style="stroke:#181818;stroke-width:0.5;" width="4" x="1402" y="370.1094"/><text fill="#000000" font-family="sans-serif" font-size="14" lengthAdjust="spacing" textLength="26" x="1373" y="393.6426">Loki</text></g><!--entity promtail--><g id="elem_promtail"><rect fill="#F1F1F1" height="47.6094" rx="2.5" ry="2.5" style="stroke:#181818;stroke-width:0.5;" width="91" x="1263.5" y="242.6094"/><rect fill="#F1F1F1" height="10" style="stroke:#181818;stroke-width:0.5;" width="15" x="1334.5" y="247.6094"/><rect fill="#F1F1F1" height="2" style="stroke:#181818;stroke-width:0.5;" width="4" x="1332.5" y="249.6094"/><rect fill="#F1F1F1" height="2" style="stroke:#181818;stroke-width:0.5;" width="4" x="1332.5" y="253.6094"/><text fill="#000000" font-family="sans-serif" font-size="14" lengthAdjust="spacing" textLength="51" x="1278.5" y="277.1426">Promtail</text></g><!--entity User--><g id="elem_User"><ellipse cx="1715" cy="52.6094" fill="#F1F1F1" rx="8" ry="8" style="stroke:#181818;stroke-width:0.5;"/><path d="M1715,60.6094 L1715,87.6094 M1702,68.6094 L1728,68.6094 M1715,87.6094 L1702,102.6094 M1715,87.6094 L1728,102.6094 " fill="none" style="stroke:#181818;stroke-width:0.5;"/><text fill="#000000" font-family="sans-serif" font-size="14" lengthAdjust="spacing" textLength="29" x="1700.5" y="118.6426">User</text></g><!--link User to gateway--><g id="link_User_gateway"><path d="M1715,122.1594 C1715,158.5394 1715,206.2194 1715,236.5394 " fill="none" id="User-to-gateway" style="stroke:#181818;stroke-width:1.0;"/><polygon fill="#181818" points="1715,242.5394,1719,233.5394,1715,237.5394,1711,233.5394,1715,242.5394" style="stroke:#181818;stroke-width:1.0;"/></g><!--link gateway to proxy--><!--link gateway to proxy--><g id="link_gateway_proxy"><path d="M1713.8,242.5494 C1710.93,211.8694 1701.27,159.2994 1669,130.1094 C1665.06,126.5394 1662.62,128.0394 1657.33,127.4394 C1640.28,125.5194 438.72,125.5194 421.67,127.4394 C371.29,133.1294 356.4946,198.0645 351.7646,236.4045 " fill="none" id="gateway-to-proxy-1" style="stroke:#181818;stroke-width:1.0;"/><polygon fill="#181818" points="351.03,242.3594,356.1019,233.9169,351.6422,237.397,348.1621,232.9373,351.03,242.3594" style="stroke:#181818;stroke-width:1.0;"/></g><!--link publicNetwork to oryPackage--><!--link gateway to front--><g id="link_gateway_front"><path d="M1751.83,290.7794 C1783.41,310.6494 1823.5811,335.9249 1855.1411,355.7749 " fill="none" id="gateway-to-front" style="stroke:#181818;stroke-width:1.0;"/><polygon fill="#181818" points="1860.22,358.9694,1854.7312,350.7918,1855.9876,356.3073,1850.472,357.5637,1860.22,358.9694" style="stroke:#181818;stroke-width:1.0;"/></g><!--link gateway to minio--><g id="link_gateway_minio"><path d="M1701.44,290.7794 C1689.82,310.6494 1676.1912,333.9413 1664.5712,353.7913 " fill="none" id="gateway-to-minio" style="stroke:#181818;stroke-width:1.0;"/><polygon fill="#181818" points="1661.54,358.9694,1669.5388,353.2231,1664.066,354.6543,1662.6347,349.1815,1661.54,358.9694" style="stroke:#181818;stroke-width:1.0;"/></g><!--link gateway to grafana--><g id="link_gateway_grafana"><path d="M1725.52,290.7794 C1734.54,310.6494 1745.0001,333.6559 1754.0101,353.5059 " fill="none" id="gateway-to-grafana" style="stroke:#181818;stroke-width:1.0;"/><polygon fill="#181818" points="1756.49,358.9694,1756.4125,349.1208,1754.4234,354.4164,1749.1278,352.4274,1756.49,358.9694" style="stroke:#181818;stroke-width:1.0;"/></g><!--link gateway to drawio--><g id="link_gateway_drawio"><path d="M1757.34,283.0394 C1806.91,301.1494 1891.49,332.1194 1964,359.1094 C1969.62,361.1994 1969.9152,361.2942 1975.7552,363.4942 " fill="none" id="gateway-to-drawio" style="stroke:#181818;stroke-width:1.0;"/><polygon fill="#181818" points="1981.37,365.6094,1974.3579,358.6934,1976.691,363.8467,1971.5377,366.1798,1981.37,365.6094" style="stroke:#181818;stroke-width:1.0;"/></g><!--link kratosm to db_auth--><g id="link_kratosm_db_auth"><path d="M823.88,290.8794 C790.75,335.1794 718.01,428.8394 682,447.1094 C639.41,468.7194 515.52,462.2894 468,467.1094 C425.05,471.4594 383.0634,476.0173 344.2434,480.3273 " fill="none" id="kratosm-to-db_auth" style="stroke:#181818;stroke-width:1.0;"/><polygon fill="#181818" points="338.28,480.9894,347.6664,483.9718,343.2495,480.4376,346.7836,476.0207,338.28,480.9894" style="stroke:#181818;stroke-width:1.0;"/></g><!--link ketom to db_perm--><g id="link_ketom_db_perm"><path d="M980.05,290.8994 C943.54,329.9294 864.06,408.0694 780,447.1094 C731.45,469.6594 677.6346,479.599 632.0546,484.569 " fill="none" id="ketom-to-db_perm" style="stroke:#181818;stroke-width:1.0;"/><polygon fill="#181818" points="626.09,485.2194,635.4706,488.2202,631.0605,484.6774,634.6034,480.2674,626.09,485.2194" style="stroke:#181818;stroke-width:1.0;"/></g><!--link minioclient to minio--><g id="link_minioclient_minio"><path d="M1191.48,290.7294 C1208.2,299.3994 1228.08,308.5894 1247,314.6094 C1364.99,352.1294 1399.98,338.0994 1522,359.1094 C1551.58,364.1994 1579.1113,369.2213 1604.0913,373.8713 " fill="none" id="minioclient-to-minio" style="stroke:#181818;stroke-width:1.0;stroke-dasharray:7.0,7.0;"/><polygon fill="#181818" points="1609.99,374.9694,1601.874,369.3899,1605.0744,374.0543,1600.41,377.2548,1609.99,374.9694" style="stroke:#181818;stroke-width:1.0;"/></g><!--link setup to kratos--><g id="link_setup_kratos"><path d="M628.79,290.8094 C614.56,299.4894 597.52,308.6794 581,314.6094 C470.25,354.3694 433.31,327.3594 320,359.1094 C314.26,360.7194 313.9485,360.6481 308.1485,362.7581 " fill="none" id="setup-to-kratos" style="stroke:#181818;stroke-width:1.0;stroke-dasharray:7.0,7.0;"/><polygon fill="#181818" points="302.51,364.8094,312.3352,365.4915,307.2087,363.1,309.6002,357.9735,302.51,364.8094" style="stroke:#181818;stroke-width:1.0;"/></g><!--link setup to keto--><g id="link_setup_keto"><path d="M627.31,290.8194 C613.3,299.1994 596.8,308.1594 581,314.6094 C508.29,344.2894 482.35,328.5694 410,359.1094 C408.86,359.5894 413.1608,357.5699 412.0208,358.0999 " fill="none" id="setup-to-keto" style="stroke:#181818;stroke-width:1.0;stroke-dasharray:7.0,7.0;"/><polygon fill="#181818" points="406.58,360.6294,416.4274,360.4623,411.114,358.5215,413.0548,353.208,406.58,360.6294" style="stroke:#181818;stroke-width:1.0;"/></g><!--link setup to db_rms--><g id="link_setup_db_rms"><path d="M649.04,290.7794 C636.99,310.7794 622.7761,334.3499 610.8061,354.2199 " fill="none" id="setup-to-db_rms" style="stroke:#181818;stroke-width:1.0;stroke-dasharray:7.0,7.0;"/><polygon fill="#181818" points="607.71,359.3594,615.7805,353.7142,610.2901,355.0765,608.9278,349.5861,607.71,359.3594" style="stroke:#181818;stroke-width:1.0;"/></g><!--link proxy to kratos--><g id="link_proxy_kratos"><path d="M331.39,290.7794 C316.3,310.6494 298.3011,334.3429 283.2111,354.1929 " fill="none" id="proxy-to-kratos" style="stroke:#181818;stroke-width:1.0;"/><polygon fill="#181818" points="279.58,358.9694,288.211,354.2254,282.6059,354.989,281.8423,349.3839,279.58,358.9694" style="stroke:#181818;stroke-width:1.0;"/></g><!--link proxy to keto--><g id="link_proxy_keto"><path d="M353.65,290.7794 C357.64,310.6494 362.1776,333.237 366.1676,353.087 " fill="none" id="proxy-to-keto" style="stroke:#181818;stroke-width:1.0;"/><polygon fill="#181818" points="367.35,358.9694,369.498,349.3576,366.3647,354.0674,361.6548,350.9341,367.35,358.9694" style="stroke:#181818;stroke-width:1.0;"/></g><!--link proxy to backend--><g id="link_proxy_backend"><path d="M406.75,266.6094 C422.92,266.6094 433.08,266.6094 449.25,266.6094 " fill="none" id="proxy-to-backend" style="stroke:#181818;stroke-width:1.0;"/><polygon fill="#181818" points="455.25,266.6094,446.25,262.6094,450.25,266.6094,446.25,270.6094,455.25,266.6094" style="stroke:#181818;stroke-width:1.0;"/></g><!--link backend to db_rms--><g id="link_backend_db_rms"><path d="M521.42,290.7794 C537.31,310.7794 556.3971,334.792 572.1871,354.662 " fill="none" id="backend-to-db_rms" style="stroke:#181818;stroke-width:1.0;"/><polygon fill="#181818" points="575.92,359.3594,573.4523,349.8247,572.8093,355.4449,567.1891,354.8018,575.92,359.3594" style="stroke:#181818;stroke-width:1.0;"/></g><!--link backend to kratos--><g id="link_backend_kratos"><path d="M466.13,290.6694 C452.76,298.6494 437.4,307.3994 423,314.6094 C401.11,325.5594 348.3317,347.3083 308.2317,363.5383 " fill="none" id="backend-to-kratos" style="stroke:#181818;stroke-width:1.0;stroke-dasharray:7.0,7.0;"/><polygon fill="#181818" points="302.67,365.7894,312.5133,366.1206,307.3048,363.9135,309.5119,358.705,302.67,365.7894" style="stroke:#181818;stroke-width:1.0;"/></g><!--link backend to keto--><g id="link_backend_keto"><path d="M476.49,290.7794 C453.76,310.6494 425.7084,335.1717 402.9884,355.0217 " fill="none" id="backend-to-keto" style="stroke:#181818;stroke-width:1.0;stroke-dasharray:7.0,7.0;"/><polygon fill="#181818" points="398.47,358.9694,407.8794,356.0602,402.2353,355.6797,402.6159,350.0356,398.47,358.9694" style="stroke:#181818;stroke-width:1.0;"/></g><!--link backend to minio--><g id="link_backend_minio"><path d="M528.33,290.8594 C539.87,299.9994 554.24,309.5094 569,314.6094 C769.38,383.8594 1311.36,335.0794 1522,359.1094 C1551.72,362.4994 1579.1121,367.475 1604.0021,372.575 " fill="none" id="backend-to-minio" style="stroke:#181818;stroke-width:1.0;stroke-dasharray:7.0,7.0;"/><polygon fill="#181818" points="1609.88,373.7794,1601.8661,368.0542,1604.9818,372.7757,1600.2603,375.8914,1609.88,373.7794" style="stroke:#181818;stroke-width:1.0;"/></g><!--link kratos to db_auth--><g id="link_kratos_db_auth"><path d="M262,407.2594 C262,424.9694 262,443.2694 262,460.8694 " fill="none" id="kratos-to-db_auth" style="stroke:#181818;stroke-width:1.0;"/><polygon fill="#181818" points="262,466.8694,266,457.8694,262,461.8694,258,457.8694,262,466.8694" style="stroke:#181818;stroke-width:1.0;"/></g><!--link courier to db_auth--><g id="link_courier_db_auth"><path d="M202.33,299.4194 C191.72,336.9194 180.16,400.0794 204,447.1094 C207.89,454.7894 209.2929,457.5756 215.9929,463.1656 " fill="none" id="courier-to-db_auth" style="stroke:#181818;stroke-width:1.0;"/><polygon fill="#181818" points="220.6,467.0094,216.2519,458.1723,216.7608,463.8062,211.1269,464.315,220.6,467.0094" style="stroke:#181818;stroke-width:1.0;"/></g><!--link courier to mail--><g id="link_courier_mail"><path d="M182.58,299.1194 C176.91,304.4894 170.91,309.8594 165,314.6094 C145.01,330.6894 126.2228,343.357 106.4928,355.647 " fill="none" id="courier-to-mail" style="stroke:#181818;stroke-width:1.0;"/><polygon fill="#181818" points="101.4,358.8194,111.154,357.4561,105.644,356.1758,106.9243,350.6657,101.4,358.8194" style="stroke:#181818;stroke-width:1.0;"/></g><!--link keto to db_perm--><g id="link_keto_db_perm"><path d="M380.85,407.2094 C387.1,420.6494 396.74,436.9094 410,447.1094 C431.76,463.8494 454.1042,472.6055 479.8942,478.7655 " fill="none" id="keto-to-db_perm" style="stroke:#181818;stroke-width:1.0;"/><polygon fill="#181818" points="485.73,480.1594,477.9055,474.178,480.8668,478.9978,476.047,481.9591,485.73,480.1594" style="stroke:#181818;stroke-width:1.0;"/></g><!--link promtail to loki--><g id="link_promtail_loki"><path d="M1325.59,290.7794 C1339.82,310.6494 1356.7158,334.2418 1370.9358,354.0918 " fill="none" id="promtail-to-loki" style="stroke:#181818;stroke-width:1.0;stroke-dasharray:7.0,7.0;"/><polygon fill="#181818" points="1374.43,358.9694,1372.4405,349.3236,1371.5182,354.9047,1365.937,353.9824,1374.43,358.9694" style="stroke:#181818;stroke-width:1.0;"/></g><!--link prometheus to grafana--><g id="link_prometheus_grafana"><path d="M1506.12,290.6394 C1526.27,298.4594 1549.06,307.0994 1570,314.6094 C1629.07,335.7794 1644.74,338.4594 1704,359.1094 C1709.5,361.0294 1709.604,361.0388 1715.304,363.0888 " fill="none" id="prometheus-to-grafana" style="stroke:#181818;stroke-width:1.0;"/><polygon fill="#181818" points="1720.95,365.1194,1713.8348,358.3096,1716.245,363.4272,1711.1274,365.8375,1720.95,365.1194" style="stroke:#181818;stroke-width:1.0;"/></g><!--link loki to grafana--><g id="link_loki_grafana"><path d="M1424.27,369.0394 C1479.47,347.6594 1593.18,311.9594 1686.5,336.8594 C1703.32,341.3494 1715.1961,347.0769 1729.1861,355.9069 " fill="none" id="loki-to-grafana" style="stroke:#181818;stroke-width:1.0;"/><polygon fill="#181818" points="1734.26,359.1094,1728.7841,350.9231,1730.0318,356.4407,1724.5142,357.6883,1734.26,359.1094" style="stroke:#181818;stroke-width:1.0;"/></g><!--SRC=[VLDDRzGm4BtdLrZj0JXa_q6HQ0keegMb1IwbGfDaTjTQnmxEX6M5-j-PZEt4MOdkPSTlNkRxaIQ3wkg-F7VW6rMg2zTs1WdPi0JQebUN6ZOUse9SfyYfoX6vLZNQOqtQsQA0cfnNtthqHT51lOCDgfExeJAwLf-HzixlJXJqgXCe8khKSFHLmz6mKNyBnR_7hnvmhNTF8ti3X7iu1CS7p-MWRSIp7Xy1lz7swbR0Lblj0lZHmneiX2Z13evB3_kLTk9esEOFdhEIhpY5js3cea_VSS5uRWQC5KxSMujbltLqalg0VZlr8Sbs7iZrPQkv14B96Q0suo2v9OE1p2zDbRNHQ6dkChnd5cEamPGzqj2Lq319oF8MslDHyVuW2t7-S1UnhF1ReEqEiKClKJhl_XncxoVf8MldsFN3NhZ1w_Xr7UoCn1rEhMR5FPvp9Md3LR3ZZa6RJiV-sJxgfUAx-msLDfgugwoFE-zQf2qEVUeZFcVAjTjfSHesbb_oyPlfEqffGwqD45JGZrVkUjfuVFXohLxVtpoyaR4srK_VzYymmw0cCWoqVOdDWvgul9LsFDfNwkpiJ7r7JxhcY-s9vw7jPaIBKOcgRDpUbcyd6SN_W3zkTTEWVM9_MEzIciUS-KvIulUM_46IJN6P5uGv8IbuJWaopP6aq1oBuep9ajOaNzHGeCNPYMeI8XFATA9MgvHM127lUBePC5xZ_8mhZ0LSE8_Auwy1Ur9hu_PIYJGdMMEq31YZpSzqpZ5Sl7G94bsf-35fWh8w5z0OEmT2Rp5sEAriKej1HJN-5nDvfKYS9yGPZNouQIsvyj94H2fIbaXg5jrYrwDl0Vm3]--></g></svg>