<?xml version="1.0" encoding="us-ascii" standalone="no"?><svg xmlns="http://www.w3.org/2000/svg" xmlns:xlink="http://www.w3.org/1999/xlink" contentStyleType="text/css" height="726px" preserveAspectRatio="none" style="width:988px;height:726px;background:#FFFFFF;" version="1.1" viewBox="0 0 988 726" width="988px" zoomAndPan="magnify"><defs/><g><text fill="#000000" font-family="sans-serif" font-size="14" font-weight="bold" lengthAdjust="spacing" textLength="178" x="398" y="24.5332">Backend Domain Diagram</text><!--class ProjectState--><g id="elem_ProjectState"><rect codeLine="3" fill="#F1F1F1" height="118.4375" id="ProjectState" rx="2.5" ry="2.5" style="stroke:#181818;stroke-width:0.5;" width="109" x="152" y="224.6094"/><ellipse cx="167" cy="240.6094" fill="#EB937F" rx="11" ry="11" style="stroke:#181818;stroke-width:1.0;"/><path d="M165.8594,241.4063 L165.8594,243.9063 L170.1875,243.9063 L170.1875,242.9844 Q170.1875,242.375 170.4219,242.1094 Q170.6719,241.8438 171.0469,241.8438 Q171.4219,241.8438 171.6563,242.1094 Q171.8906,242.375 171.8906,242.9844 L171.8906,245.6094 L163.8906,245.6094 Q163.2656,245.6094 163,245.375 Q162.75,245.1406 162.75,244.75 Q162.75,244.375 163.0156,244.1406 Q163.2813,243.9063 163.8906,243.9063 L164.1563,243.9063 L164.1563,237.25 L163.8906,237.25 Q163.2656,237.25 163,237.0156 Q162.75,236.7813 162.75,236.3906 Q162.75,236.0156 163,235.7813 Q163.2656,235.5469 163.8906,235.5469 L171.5156,235.5469 L171.5156,238.1406 Q171.5156,238.75 171.2813,239.0156 Q171.0625,239.2656 170.6719,239.2656 Q170.2969,239.2656 170.0625,239.0156 Q169.8281,238.75 169.8281,238.1406 L169.8281,237.25 L165.8594,237.25 L165.8594,239.7031 L167.3438,239.7031 Q167.3438,239.0469 167.4688,238.8594 Q167.7344,238.4531 168.2031,238.4531 Q168.5781,238.4531 168.8125,238.7188 Q169.0469,238.9688 169.0469,239.5781 L169.0469,241.5469 Q169.0469,242.0938 168.9219,242.2813 Q168.6563,242.6719 168.2031,242.6719 Q167.7344,242.6719 167.4688,242.2656 Q167.3438,242.0781 167.3438,241.4063 L165.8594,241.4063 Z " fill="#000000"/><text fill="#000000" font-family="sans-serif" font-size="14" lengthAdjust="spacing" textLength="77" x="181" y="246.3379">ProjectState</text><line style="stroke:#181818;stroke-width:0.5;" x1="153" x2="260" y1="256.6094" y2="256.6094"/><text fill="#000000" font-family="sans-serif" font-size="14" lengthAdjust="spacing" textLength="49" x="158" y="275.1426">ACTIVE</text><text fill="#000000" font-family="sans-serif" font-size="14" lengthAdjust="spacing" textLength="61" x="158" y="292.752">FINISHED</text><text fill="#000000" font-family="sans-serif" font-size="14" lengthAdjust="spacing" textLength="96" x="158" y="310.3613">DEACTIVATED</text><text fill="#000000" font-family="sans-serif" font-size="14" lengthAdjust="spacing" textLength="69" x="158" y="327.9707">REMOVED</text><line style="stroke:#181818;stroke-width:0.5;" x1="153" x2="260" y1="335.0469" y2="335.0469"/></g><!--class RequirementState--><g id="elem_RequirementState"><rect codeLine="10" fill="#F1F1F1" height="136.0469" id="RequirementState" rx="2.5" ry="2.5" style="stroke:#181818;stroke-width:0.5;" width="154" x="221.5" y="403.6094"/><ellipse cx="240.1" cy="419.6094" fill="#EB937F" rx="11" ry="11" style="stroke:#181818;stroke-width:1.0;"/><path d="M238.9594,420.4063 L238.9594,422.9063 L243.2875,422.9063 L243.2875,421.9844 Q243.2875,421.375 243.5219,421.1094 Q243.7719,420.8438 244.1469,420.8438 Q244.5219,420.8438 244.7563,421.1094 Q244.9906,421.375 244.9906,421.9844 L244.9906,424.6094 L236.9906,424.6094 Q236.3656,424.6094 236.1,424.375 Q235.85,424.1406 235.85,423.75 Q235.85,423.375 236.1156,423.1406 Q236.3813,422.9063 236.9906,422.9063 L237.2563,422.9063 L237.2563,416.25 L236.9906,416.25 Q236.3656,416.25 236.1,416.0156 Q235.85,415.7813 235.85,415.3906 Q235.85,415.0156 236.1,414.7813 Q236.3656,414.5469 236.9906,414.5469 L244.6156,414.5469 L244.6156,417.1406 Q244.6156,417.75 244.3813,418.0156 Q244.1625,418.2656 243.7719,418.2656 Q243.3969,418.2656 243.1625,418.0156 Q242.9281,417.75 242.9281,417.1406 L242.9281,416.25 L238.9594,416.25 L238.9594,418.7031 L240.4438,418.7031 Q240.4438,418.0469 240.5688,417.8594 Q240.8344,417.4531 241.3031,417.4531 Q241.6781,417.4531 241.9125,417.7188 Q242.1469,417.9688 242.1469,418.5781 L242.1469,420.5469 Q242.1469,421.0938 242.0219,421.2813 Q241.7563,421.6719 241.3031,421.6719 Q240.8344,421.6719 240.5688,421.2656 Q240.4438,421.0781 240.4438,420.4063 L238.9594,420.4063 Z " fill="#000000"/><text fill="#000000" font-family="sans-serif" font-size="14" lengthAdjust="spacing" textLength="114" x="254.9" y="425.3379">RequirementState</text><line style="stroke:#181818;stroke-width:0.5;" x1="222.5" x2="374.5" y1="435.6094" y2="435.6094"/><text fill="#000000" font-family="sans-serif" font-size="14" lengthAdjust="spacing" textLength="142" x="227.5" y="454.1426">PENDING_APPROVAL</text><text fill="#000000" font-family="sans-serif" font-size="14" lengthAdjust="spacing" textLength="76" x="227.5" y="471.752">APPROVED</text><text fill="#000000" font-family="sans-serif" font-size="14" lengthAdjust="spacing" textLength="61" x="227.5" y="489.3613">FINISHED</text><text fill="#000000" font-family="sans-serif" font-size="14" lengthAdjust="spacing" textLength="96" x="227.5" y="506.9707">DEACTIVATED</text><text fill="#000000" font-family="sans-serif" font-size="14" lengthAdjust="spacing" textLength="69" x="227.5" y="524.5801">REMOVED</text><line style="stroke:#181818;stroke-width:0.5;" x1="222.5" x2="374.5" y1="531.6563" y2="531.6563"/></g><!--class ComparisonOperator--><g id="elem_ComparisonOperator"><rect codeLine="18" fill="#F1F1F1" height="118.4375" id="ComparisonOperator" rx="2.5" ry="2.5" style="stroke:#181818;stroke-width:0.5;" width="165" x="430" y="600.6094"/><ellipse cx="445" cy="616.6094" fill="#EB937F" rx="11" ry="11" style="stroke:#181818;stroke-width:1.0;"/><path d="M443.8594,617.4063 L443.8594,619.9063 L448.1875,619.9063 L448.1875,618.9844 Q448.1875,618.375 448.4219,618.1094 Q448.6719,617.8438 449.0469,617.8438 Q449.4219,617.8438 449.6563,618.1094 Q449.8906,618.375 449.8906,618.9844 L449.8906,621.6094 L441.8906,621.6094 Q441.2656,621.6094 441,621.375 Q440.75,621.1406 440.75,620.75 Q440.75,620.375 441.0156,620.1406 Q441.2813,619.9063 441.8906,619.9063 L442.1563,619.9063 L442.1563,613.25 L441.8906,613.25 Q441.2656,613.25 441,613.0156 Q440.75,612.7813 440.75,612.3906 Q440.75,612.0156 441,611.7813 Q441.2656,611.5469 441.8906,611.5469 L449.5156,611.5469 L449.5156,614.1406 Q449.5156,614.75 449.2813,615.0156 Q449.0625,615.2656 448.6719,615.2656 Q448.2969,615.2656 448.0625,615.0156 Q447.8281,614.75 447.8281,614.1406 L447.8281,613.25 L443.8594,613.25 L443.8594,615.7031 L445.3438,615.7031 Q445.3438,615.0469 445.4688,614.8594 Q445.7344,614.4531 446.2031,614.4531 Q446.5781,614.4531 446.8125,614.7188 Q447.0469,614.9688 447.0469,615.5781 L447.0469,617.5469 Q447.0469,618.0938 446.9219,618.2813 Q446.6563,618.6719 446.2031,618.6719 Q445.7344,618.6719 445.4688,618.2656 Q445.3438,618.0781 445.3438,617.4063 L443.8594,617.4063 Z " fill="#000000"/><text fill="#000000" font-family="sans-serif" font-size="14" lengthAdjust="spacing" textLength="133" x="459" y="622.3379">ComparisonOperator</text><line style="stroke:#181818;stroke-width:0.5;" x1="431" x2="594" y1="632.6094" y2="632.6094"/><text fill="#000000" font-family="sans-serif" font-size="14" lengthAdjust="spacing" textLength="74" x="436" y="651.1426">EQUAL_TO</text><text fill="#000000" font-family="sans-serif" font-size="14" lengthAdjust="spacing" textLength="79" x="436" y="668.752">LESS_THAN</text><text fill="#000000" font-family="sans-serif" font-size="14" lengthAdjust="spacing" textLength="111" x="436" y="686.3613">GREATER_THAN</text><text fill="#000000" font-family="sans-serif" font-size="14" lengthAdjust="spacing" textLength="12" x="436" y="703.9707">...</text><line style="stroke:#181818;stroke-width:0.5;" x1="431" x2="594" y1="711.0469" y2="711.0469"/></g><!--class Project--><g id="elem_Project"><rect codeLine="25" fill="#F1F1F1" height="118.4375" id="Project" rx="2.5" ry="2.5" style="stroke:#181818;stroke-width:0.5;" width="81" x="460" y="45.6094"/><ellipse cx="477.25" cy="61.6094" fill="#ADD1B2" rx="11" ry="11" style="stroke:#181818;stroke-width:1.0;"/><path d="M480.0156,57.4844 Q480.1719,57.2656 480.3594,57.1563 Q480.5469,57.0469 480.7656,57.0469 Q481.1406,57.0469 481.375,57.3125 Q481.6094,57.5625 481.6094,58.1719 L481.6094,59.625 Q481.6094,60.2344 481.375,60.5 Q481.1406,60.7656 480.7656,60.7656 Q480.4219,60.7656 480.2188,60.5625 Q480.0156,60.375 479.9063,59.8594 Q479.8594,59.5 479.6719,59.3125 Q479.3438,58.9375 478.7344,58.7188 Q478.125,58.5 477.5,58.5 Q476.7344,58.5 476.0938,58.8281 Q475.4688,59.1563 474.9688,59.9063 Q474.4844,60.6563 474.4844,61.6875 L474.4844,62.7813 Q474.4844,64.0156 475.375,64.8438 Q476.2656,65.6563 477.8594,65.6563 Q478.7969,65.6563 479.4531,65.4063 Q479.8438,65.25 480.2656,64.8125 Q480.5313,64.5469 480.6719,64.4688 Q480.8281,64.3906 481.0313,64.3906 Q481.3594,64.3906 481.6094,64.6563 Q481.875,64.9063 481.875,65.25 Q481.875,65.5938 481.5313,66 Q481.0313,66.5781 480.2344,66.9063 Q479.1563,67.3594 477.8594,67.3594 Q476.3438,67.3594 475.1406,66.7344 Q474.1563,66.2344 473.4688,65.1719 Q472.7813,64.0938 472.7813,62.8125 L472.7813,61.6563 Q472.7813,60.3281 473.3906,59.1875 Q474.0156,58.0313 475.1094,57.4219 Q476.2031,56.7969 477.4375,56.7969 Q478.1719,56.7969 478.8125,56.9688 Q479.4688,57.125 480.0156,57.4844 Z " fill="#000000"/><text fill="#000000" font-family="sans-serif" font-size="14" lengthAdjust="spacing" textLength="44" x="491.75" y="67.3379">Project</text><line style="stroke:#181818;stroke-width:0.5;" x1="461" x2="540" y1="77.6094" y2="77.6094"/><text fill="#000000" font-family="sans-serif" font-size="14" lengthAdjust="spacing" textLength="11" x="466" y="96.1426">id</text><text fill="#000000" font-family="sans-serif" font-size="14" lengthAdjust="spacing" textLength="35" x="466" y="113.752">name</text><text fill="#000000" font-family="sans-serif" font-size="14" lengthAdjust="spacing" textLength="69" x="466" y="131.3613">description</text><text fill="#000000" font-family="sans-serif" font-size="14" lengthAdjust="spacing" textLength="31" x="466" y="148.9707">state</text><line style="stroke:#181818;stroke-width:0.5;" x1="461" x2="540" y1="156.0469" y2="156.0469"/></g><!--class Functionality--><g id="elem_Functionality"><rect codeLine="32" fill="#F1F1F1" height="118.4375" id="Functionality" rx="2.5" ry="2.5" style="stroke:#181818;stroke-width:0.5;" width="112" x="296.5" y="224.6094"/><ellipse cx="311.5" cy="240.6094" fill="#ADD1B2" rx="11" ry="11" style="stroke:#181818;stroke-width:1.0;"/><path d="M314.2656,236.4844 Q314.4219,236.2656 314.6094,236.1563 Q314.7969,236.0469 315.0156,236.0469 Q315.3906,236.0469 315.625,236.3125 Q315.8594,236.5625 315.8594,237.1719 L315.8594,238.625 Q315.8594,239.2344 315.625,239.5 Q315.3906,239.7656 315.0156,239.7656 Q314.6719,239.7656 314.4688,239.5625 Q314.2656,239.375 314.1563,238.8594 Q314.1094,238.5 313.9219,238.3125 Q313.5938,237.9375 312.9844,237.7188 Q312.375,237.5 311.75,237.5 Q310.9844,237.5 310.3438,237.8281 Q309.7188,238.1563 309.2188,238.9063 Q308.7344,239.6563 308.7344,240.6875 L308.7344,241.7813 Q308.7344,243.0156 309.625,243.8438 Q310.5156,244.6563 312.1094,244.6563 Q313.0469,244.6563 313.7031,244.4063 Q314.0938,244.25 314.5156,243.8125 Q314.7813,243.5469 314.9219,243.4688 Q315.0781,243.3906 315.2813,243.3906 Q315.6094,243.3906 315.8594,243.6563 Q316.125,243.9063 316.125,244.25 Q316.125,244.5938 315.7813,245 Q315.2813,245.5781 314.4844,245.9063 Q313.4063,246.3594 312.1094,246.3594 Q310.5938,246.3594 309.3906,245.7344 Q308.4063,245.2344 307.7188,244.1719 Q307.0313,243.0938 307.0313,241.8125 L307.0313,240.6563 Q307.0313,239.3281 307.6406,238.1875 Q308.2656,237.0313 309.3594,236.4219 Q310.4531,235.7969 311.6875,235.7969 Q312.4219,235.7969 313.0625,235.9688 Q313.7188,236.125 314.2656,236.4844 Z " fill="#000000"/><text fill="#000000" font-family="sans-serif" font-size="14" lengthAdjust="spacing" textLength="80" x="325.5" y="246.3379">Functionality</text><line style="stroke:#181818;stroke-width:0.5;" x1="297.5" x2="407.5" y1="256.6094" y2="256.6094"/><text fill="#000000" font-family="sans-serif" font-size="14" lengthAdjust="spacing" textLength="11" x="302.5" y="275.1426">id</text><text fill="#000000" font-family="sans-serif" font-size="14" lengthAdjust="spacing" textLength="35" x="302.5" y="292.752">name</text><text fill="#000000" font-family="sans-serif" font-size="14" lengthAdjust="spacing" textLength="30" x="302.5" y="310.3613">label</text><text fill="#000000" font-family="sans-serif" font-size="14" lengthAdjust="spacing" textLength="31" x="302.5" y="327.9707">state</text><line style="stroke:#181818;stroke-width:0.5;" x1="297.5" x2="407.5" y1="335.0469" y2="335.0469"/></g><!--class Requirement--><g id="elem_Requirement"><rect codeLine="39" fill="#F1F1F1" height="118.4375" id="Requirement" rx="2.5" ry="2.5" style="stroke:#181818;stroke-width:0.5;" width="113" x="444" y="224.6094"/><ellipse cx="459" cy="240.6094" fill="#A9DCDF" rx="11" ry="11" style="stroke:#181818;stroke-width:1.0;"/><path d="M461.1875,242.375 L457.0469,242.375 L456.625,243.4063 L457.0469,243.4063 Q457.6563,243.4063 457.9219,243.6406 Q458.1875,243.875 458.1875,244.2656 Q458.1875,244.6406 457.9219,244.875 Q457.6563,245.1094 457.0469,245.1094 L454.75,245.1094 Q454.1406,245.1094 453.8906,244.875 Q453.625,244.6406 453.625,244.25 Q453.625,243.875 453.9063,243.6406 Q454.1719,243.3906 454.7969,243.4063 L457.4688,236.75 L456.3594,236.75 Q455.75,236.75 455.4844,236.5156 Q455.2188,236.2813 455.2188,235.8906 Q455.2188,235.5156 455.4844,235.2813 Q455.75,235.0469 456.3594,235.0469 L460.0313,235.0469 L463.4219,243.4063 Q464.0156,243.4063 464.2031,243.5469 Q464.5938,243.8125 464.5938,244.2656 Q464.5938,244.6406 464.3281,244.875 Q464.0781,245.1094 463.4688,245.1094 L461.1719,245.1094 Q460.5625,245.1094 460.2969,244.875 Q460.0313,244.6406 460.0313,244.25 Q460.0313,243.875 460.2969,243.6406 Q460.5625,243.4063 461.1719,243.4063 L461.5938,243.4063 L461.1875,242.375 Z M460.4688,240.6719 L459.1094,237.2969 L457.7344,240.6719 L460.4688,240.6719 Z " fill="#000000"/><text fill="#000000" font-family="sans-serif" font-size="14" font-style="italic" lengthAdjust="spacing" textLength="81" x="473" y="246.3379">Requirement</text><line style="stroke:#181818;stroke-width:0.5;" x1="445" x2="556" y1="256.6094" y2="256.6094"/><text fill="#000000" font-family="sans-serif" font-size="14" lengthAdjust="spacing" textLength="11" x="450" y="275.1426">id</text><text fill="#000000" font-family="sans-serif" font-size="14" lengthAdjust="spacing" textLength="35" x="450" y="292.752">name</text><text fill="#000000" font-family="sans-serif" font-size="14" lengthAdjust="spacing" textLength="69" x="450" y="310.3613">description</text><text fill="#000000" font-family="sans-serif" font-size="14" lengthAdjust="spacing" textLength="31" x="450" y="327.9707">state</text><line style="stroke:#181818;stroke-width:0.5;" x1="445" x2="556" y1="335.0469" y2="335.0469"/></g><!--class FunctionalRequirement--><g id="elem_FunctionalRequirement"><rect codeLine="46" fill="#F1F1F1" height="48" id="FunctionalRequirement" rx="2.5" ry="2.5" style="stroke:#181818;stroke-width:0.5;" width="179" x="7" y="447.6094"/><ellipse cx="22" cy="463.6094" fill="#ADD1B2" rx="11" ry="11" style="stroke:#181818;stroke-width:1.0;"/><path d="M24.7656,459.4844 Q24.9219,459.2656 25.1094,459.1563 Q25.2969,459.0469 25.5156,459.0469 Q25.8906,459.0469 26.125,459.3125 Q26.3594,459.5625 26.3594,460.1719 L26.3594,461.625 Q26.3594,462.2344 26.125,462.5 Q25.8906,462.7656 25.5156,462.7656 Q25.1719,462.7656 24.9688,462.5625 Q24.7656,462.375 24.6563,461.8594 Q24.6094,461.5 24.4219,461.3125 Q24.0938,460.9375 23.4844,460.7188 Q22.875,460.5 22.25,460.5 Q21.4844,460.5 20.8438,460.8281 Q20.2188,461.1563 19.7188,461.9063 Q19.2344,462.6563 19.2344,463.6875 L19.2344,464.7813 Q19.2344,466.0156 20.125,466.8438 Q21.0156,467.6563 22.6094,467.6563 Q23.5469,467.6563 24.2031,467.4063 Q24.5938,467.25 25.0156,466.8125 Q25.2813,466.5469 25.4219,466.4688 Q25.5781,466.3906 25.7813,466.3906 Q26.1094,466.3906 26.3594,466.6563 Q26.625,466.9063 26.625,467.25 Q26.625,467.5938 26.2813,468 Q25.7813,468.5781 24.9844,468.9063 Q23.9063,469.3594 22.6094,469.3594 Q21.0938,469.3594 19.8906,468.7344 Q18.9063,468.2344 18.2188,467.1719 Q17.5313,466.0938 17.5313,464.8125 L17.5313,463.6563 Q17.5313,462.3281 18.1406,461.1875 Q18.7656,460.0313 19.8594,459.4219 Q20.9531,458.7969 22.1875,458.7969 Q22.9219,458.7969 23.5625,458.9688 Q24.2188,459.125 24.7656,459.4844 Z " fill="#000000"/><text fill="#000000" font-family="sans-serif" font-size="14" lengthAdjust="spacing" textLength="147" x="36" y="469.3379">FunctionalRequirement</text><line style="stroke:#181818;stroke-width:0.5;" x1="8" x2="185" y1="479.6094" y2="479.6094"/><line style="stroke:#181818;stroke-width:0.5;" x1="8" x2="185" y1="487.6094" y2="487.6094"/></g><!--class NonFunctionalRequirement--><g id="elem_NonFunctionalRequirement"><rect codeLine="47" fill="#F1F1F1" height="83.2188" id="NonFunctionalRequirement" rx="2.5" ry="2.5" style="stroke:#181818;stroke-width:0.5;" width="204" x="410.5" y="430.1094"/><ellipse cx="425.5" cy="446.1094" fill="#ADD1B2" rx="11" ry="11" style="stroke:#181818;stroke-width:1.0;"/><path d="M428.2656,441.9844 Q428.4219,441.7656 428.6094,441.6563 Q428.7969,441.5469 429.0156,441.5469 Q429.3906,441.5469 429.625,441.8125 Q429.8594,442.0625 429.8594,442.6719 L429.8594,444.125 Q429.8594,444.7344 429.625,445 Q429.3906,445.2656 429.0156,445.2656 Q428.6719,445.2656 428.4688,445.0625 Q428.2656,444.875 428.1563,444.3594 Q428.1094,444 427.9219,443.8125 Q427.5938,443.4375 426.9844,443.2188 Q426.375,443 425.75,443 Q424.9844,443 424.3438,443.3281 Q423.7188,443.6563 423.2188,444.4063 Q422.7344,445.1563 422.7344,446.1875 L422.7344,447.2813 Q422.7344,448.5156 423.625,449.3438 Q424.5156,450.1563 426.1094,450.1563 Q427.0469,450.1563 427.7031,449.9063 Q428.0938,449.75 428.5156,449.3125 Q428.7813,449.0469 428.9219,448.9688 Q429.0781,448.8906 429.2813,448.8906 Q429.6094,448.8906 429.8594,449.1563 Q430.125,449.4063 430.125,449.75 Q430.125,450.0938 429.7813,450.5 Q429.2813,451.0781 428.4844,451.4063 Q427.4063,451.8594 426.1094,451.8594 Q424.5938,451.8594 423.3906,451.2344 Q422.4063,450.7344 421.7188,449.6719 Q421.0313,448.5938 421.0313,447.3125 L421.0313,446.1563 Q421.0313,444.8281 421.6406,443.6875 Q422.2656,442.5313 423.3594,441.9219 Q424.4531,441.2969 425.6875,441.2969 Q426.4219,441.2969 427.0625,441.4688 Q427.7188,441.625 428.2656,441.9844 Z " fill="#000000"/><text fill="#000000" font-family="sans-serif" font-size="14" lengthAdjust="spacing" textLength="172" x="439.5" y="451.8379">NonFunctionalRequirement</text><line style="stroke:#181818;stroke-width:0.5;" x1="411.5" x2="613.5" y1="462.1094" y2="462.1094"/><text fill="#000000" font-family="sans-serif" font-size="14" lengthAdjust="spacing" textLength="110" x="416.5" y="480.6426">measurementUnit</text><text fill="#000000" font-family="sans-serif" font-size="14" lengthAdjust="spacing" textLength="54" x="416.5" y="498.252">operator</text><line style="stroke:#181818;stroke-width:0.5;" x1="411.5" x2="613.5" y1="505.3281" y2="505.3281"/></g><!--class Stakeholder--><g id="elem_Stakeholder"><rect codeLine="52" fill="#F1F1F1" height="100.8281" id="Stakeholder" rx="2.5" ry="2.5" style="stroke:#181818;stroke-width:0.5;" width="108" x="649.5" y="421.1094"/><ellipse cx="664.5" cy="437.1094" fill="#ADD1B2" rx="11" ry="11" style="stroke:#181818;stroke-width:1.0;"/><path d="M667.2656,432.9844 Q667.4219,432.7656 667.6094,432.6563 Q667.7969,432.5469 668.0156,432.5469 Q668.3906,432.5469 668.625,432.8125 Q668.8594,433.0625 668.8594,433.6719 L668.8594,435.125 Q668.8594,435.7344 668.625,436 Q668.3906,436.2656 668.0156,436.2656 Q667.6719,436.2656 667.4688,436.0625 Q667.2656,435.875 667.1563,435.3594 Q667.1094,435 666.9219,434.8125 Q666.5938,434.4375 665.9844,434.2188 Q665.375,434 664.75,434 Q663.9844,434 663.3438,434.3281 Q662.7188,434.6563 662.2188,435.4063 Q661.7344,436.1563 661.7344,437.1875 L661.7344,438.2813 Q661.7344,439.5156 662.625,440.3438 Q663.5156,441.1563 665.1094,441.1563 Q666.0469,441.1563 666.7031,440.9063 Q667.0938,440.75 667.5156,440.3125 Q667.7813,440.0469 667.9219,439.9688 Q668.0781,439.8906 668.2813,439.8906 Q668.6094,439.8906 668.8594,440.1563 Q669.125,440.4063 669.125,440.75 Q669.125,441.0938 668.7813,441.5 Q668.2813,442.0781 667.4844,442.4063 Q666.4063,442.8594 665.1094,442.8594 Q663.5938,442.8594 662.3906,442.2344 Q661.4063,441.7344 660.7188,440.6719 Q660.0313,439.5938 660.0313,438.3125 L660.0313,437.1563 Q660.0313,435.8281 660.6406,434.6875 Q661.2656,433.5313 662.3594,432.9219 Q663.4531,432.2969 664.6875,432.2969 Q665.4219,432.2969 666.0625,432.4688 Q666.7188,432.625 667.2656,432.9844 Z " fill="#000000"/><text fill="#000000" font-family="sans-serif" font-size="14" lengthAdjust="spacing" textLength="76" x="678.5" y="442.8379">Stakeholder</text><line style="stroke:#181818;stroke-width:0.5;" x1="650.5" x2="756.5" y1="453.1094" y2="453.1094"/><text fill="#000000" font-family="sans-serif" font-size="14" lengthAdjust="spacing" textLength="11" x="655.5" y="471.6426">id</text><text fill="#000000" font-family="sans-serif" font-size="14" lengthAdjust="spacing" textLength="35" x="655.5" y="489.252">name</text><text fill="#000000" font-family="sans-serif" font-size="14" lengthAdjust="spacing" textLength="69" x="655.5" y="506.8613">description</text><line style="stroke:#181818;stroke-width:0.5;" x1="650.5" x2="756.5" y1="513.9375" y2="513.9375"/></g><!--class Document--><g id="elem_Document"><rect codeLine="58" fill="#F1F1F1" height="83.2188" id="Document" rx="2.5" ry="2.5" style="stroke:#181818;stroke-width:0.5;" width="96" x="792.5" y="430.1094"/><ellipse cx="807.5" cy="446.1094" fill="#ADD1B2" rx="11" ry="11" style="stroke:#181818;stroke-width:1.0;"/><path d="M810.2656,441.9844 Q810.4219,441.7656 810.6094,441.6563 Q810.7969,441.5469 811.0156,441.5469 Q811.3906,441.5469 811.625,441.8125 Q811.8594,442.0625 811.8594,442.6719 L811.8594,444.125 Q811.8594,444.7344 811.625,445 Q811.3906,445.2656 811.0156,445.2656 Q810.6719,445.2656 810.4688,445.0625 Q810.2656,444.875 810.1563,444.3594 Q810.1094,444 809.9219,443.8125 Q809.5938,443.4375 808.9844,443.2188 Q808.375,443 807.75,443 Q806.9844,443 806.3438,443.3281 Q805.7188,443.6563 805.2188,444.4063 Q804.7344,445.1563 804.7344,446.1875 L804.7344,447.2813 Q804.7344,448.5156 805.625,449.3438 Q806.5156,450.1563 808.1094,450.1563 Q809.0469,450.1563 809.7031,449.9063 Q810.0938,449.75 810.5156,449.3125 Q810.7813,449.0469 810.9219,448.9688 Q811.0781,448.8906 811.2813,448.8906 Q811.6094,448.8906 811.8594,449.1563 Q812.125,449.4063 812.125,449.75 Q812.125,450.0938 811.7813,450.5 Q811.2813,451.0781 810.4844,451.4063 Q809.4063,451.8594 808.1094,451.8594 Q806.5938,451.8594 805.3906,451.2344 Q804.4063,450.7344 803.7188,449.6719 Q803.0313,448.5938 803.0313,447.3125 L803.0313,446.1563 Q803.0313,444.8281 803.6406,443.6875 Q804.2656,442.5313 805.3594,441.9219 Q806.4531,441.2969 807.6875,441.2969 Q808.4219,441.2969 809.0625,441.4688 Q809.7188,441.625 810.2656,441.9844 Z " fill="#000000"/><text fill="#000000" font-family="sans-serif" font-size="14" lengthAdjust="spacing" textLength="64" x="821.5" y="451.8379">Document</text><line style="stroke:#181818;stroke-width:0.5;" x1="793.5" x2="887.5" y1="462.1094" y2="462.1094"/><text fill="#000000" font-family="sans-serif" font-size="14" lengthAdjust="spacing" textLength="11" x="798.5" y="480.6426">id</text><text fill="#000000" font-family="sans-serif" font-size="14" lengthAdjust="spacing" textLength="35" x="798.5" y="498.252">name</text><line style="stroke:#181818;stroke-width:0.5;" x1="793.5" x2="887.5" y1="505.3281" y2="505.3281"/></g><!--class User--><g id="elem_User"><rect codeLine="63" fill="#F1F1F1" height="100.8281" id="User" rx="2.5" ry="2.5" style="stroke:#181818;stroke-width:0.5;" width="61" x="902" y="54.1094"/><ellipse cx="917" cy="70.1094" fill="#ADD1B2" rx="11" ry="11" style="stroke:#181818;stroke-width:1.0;"/><path d="M919.7656,65.9844 Q919.9219,65.7656 920.1094,65.6563 Q920.2969,65.5469 920.5156,65.5469 Q920.8906,65.5469 921.125,65.8125 Q921.3594,66.0625 921.3594,66.6719 L921.3594,68.125 Q921.3594,68.7344 921.125,69 Q920.8906,69.2656 920.5156,69.2656 Q920.1719,69.2656 919.9688,69.0625 Q919.7656,68.875 919.6563,68.3594 Q919.6094,68 919.4219,67.8125 Q919.0938,67.4375 918.4844,67.2188 Q917.875,67 917.25,67 Q916.4844,67 915.8438,67.3281 Q915.2188,67.6563 914.7188,68.4063 Q914.2344,69.1563 914.2344,70.1875 L914.2344,71.2813 Q914.2344,72.5156 915.125,73.3438 Q916.0156,74.1563 917.6094,74.1563 Q918.5469,74.1563 919.2031,73.9063 Q919.5938,73.75 920.0156,73.3125 Q920.2813,73.0469 920.4219,72.9688 Q920.5781,72.8906 920.7813,72.8906 Q921.1094,72.8906 921.3594,73.1563 Q921.625,73.4063 921.625,73.75 Q921.625,74.0938 921.2813,74.5 Q920.7813,75.0781 919.9844,75.4063 Q918.9063,75.8594 917.6094,75.8594 Q916.0938,75.8594 914.8906,75.2344 Q913.9063,74.7344 913.2188,73.6719 Q912.5313,72.5938 912.5313,71.3125 L912.5313,70.1563 Q912.5313,68.8281 913.1406,67.6875 Q913.7656,66.5313 914.8594,65.9219 Q915.9531,65.2969 917.1875,65.2969 Q917.9219,65.2969 918.5625,65.4688 Q919.2188,65.625 919.7656,65.9844 Z " fill="#000000"/><text fill="#000000" font-family="sans-serif" font-size="14" lengthAdjust="spacing" textLength="29" x="931" y="75.8379">User</text><line style="stroke:#181818;stroke-width:0.5;" x1="903" x2="962" y1="86.1094" y2="86.1094"/><text fill="#000000" font-family="sans-serif" font-size="14" lengthAdjust="spacing" textLength="11" x="908" y="104.6426">id</text><text fill="#000000" font-family="sans-serif" font-size="14" lengthAdjust="spacing" textLength="33" x="908" y="122.252">email</text><text fill="#000000" font-family="sans-serif" font-size="14" lengthAdjust="spacing" textLength="35" x="908" y="139.8613">name</text><line style="stroke:#181818;stroke-width:0.5;" x1="903" x2="962" y1="146.9375" y2="146.9375"/></g><!--class EntityLock--><g id="elem_EntityLock"><rect codeLine="69" fill="#F1F1F1" height="118.4375" id="EntityLock" rx="2.5" ry="2.5" style="stroke:#181818;stroke-width:0.5;" width="97" x="884" y="224.6094"/><ellipse cx="899" cy="240.6094" fill="#ADD1B2" rx="11" ry="11" style="stroke:#181818;stroke-width:1.0;"/><path d="M901.7656,236.4844 Q901.9219,236.2656 902.1094,236.1563 Q902.2969,236.0469 902.5156,236.0469 Q902.8906,236.0469 903.125,236.3125 Q903.3594,236.5625 903.3594,237.1719 L903.3594,238.625 Q903.3594,239.2344 903.125,239.5 Q902.8906,239.7656 902.5156,239.7656 Q902.1719,239.7656 901.9688,239.5625 Q901.7656,239.375 901.6563,238.8594 Q901.6094,238.5 901.4219,238.3125 Q901.0938,237.9375 900.4844,237.7188 Q899.875,237.5 899.25,237.5 Q898.4844,237.5 897.8438,237.8281 Q897.2188,238.1563 896.7188,238.9063 Q896.2344,239.6563 896.2344,240.6875 L896.2344,241.7813 Q896.2344,243.0156 897.125,243.8438 Q898.0156,244.6563 899.6094,244.6563 Q900.5469,244.6563 901.2031,244.4063 Q901.5938,244.25 902.0156,243.8125 Q902.2813,243.5469 902.4219,243.4688 Q902.5781,243.3906 902.7813,243.3906 Q903.1094,243.3906 903.3594,243.6563 Q903.625,243.9063 903.625,244.25 Q903.625,244.5938 903.2813,245 Q902.7813,245.5781 901.9844,245.9063 Q900.9063,246.3594 899.6094,246.3594 Q898.0938,246.3594 896.8906,245.7344 Q895.9063,245.2344 895.2188,244.1719 Q894.5313,243.0938 894.5313,241.8125 L894.5313,240.6563 Q894.5313,239.3281 895.1406,238.1875 Q895.7656,237.0313 896.8594,236.4219 Q897.9531,235.7969 899.1875,235.7969 Q899.9219,235.7969 900.5625,235.9688 Q901.2188,236.125 901.7656,236.4844 Z " fill="#000000"/><text fill="#000000" font-family="sans-serif" font-size="14" lengthAdjust="spacing" textLength="65" x="913" y="246.3379">EntityLock</text><line style="stroke:#181818;stroke-width:0.5;" x1="885" x2="980" y1="256.6094" y2="256.6094"/><text fill="#000000" font-family="sans-serif" font-size="14" lengthAdjust="spacing" textLength="11" x="890" y="275.1426">id</text><text fill="#000000" font-family="sans-serif" font-size="14" lengthAdjust="spacing" textLength="66" x="890" y="292.752">entityType</text><text fill="#000000" font-family="sans-serif" font-size="14" lengthAdjust="spacing" textLength="45" x="890" y="310.3613">entityId</text><text fill="#000000" font-family="sans-serif" font-size="14" lengthAdjust="spacing" textLength="54" x="890" y="327.9707">lockedAt</text><line style="stroke:#181818;stroke-width:0.5;" x1="885" x2="980" y1="335.0469" y2="335.0469"/></g><!--link Project to Functionality--><g id="link_Project_Functionality"><path codeLine="77" d="M459.67,154.4394 C441.53,176.1394 420.04,201.8394 401.08,224.5094 " fill="none" id="Project-Functionality" style="stroke:#181818;stroke-width:1.0;"/><text fill="#000000" font-family="sans-serif" font-size="13" lengthAdjust="spacing" textLength="7" x="445.0508" y="159.1166">1</text><text fill="#000000" font-family="sans-serif" font-size="13" lengthAdjust="spacing" textLength="20" x="385.7819" y="213.8214">0..*</text></g><!--link Project to Requirement--><g id="link_Project_Requirement"><path codeLine="78" d="M500.5,164.0594 C500.5,183.4894 500.5,205.1194 500.5,224.5294 " fill="none" id="Project-Requirement" style="stroke:#181818;stroke-width:1.0;"/><text fill="#000000" font-family="sans-serif" font-size="13" lengthAdjust="spacing" textLength="7" x="493.0953" y="185.3484">1</text><text fill="#000000" font-family="sans-serif" font-size="13" lengthAdjust="spacing" textLength="20" x="479.2813" y="213.8439">0..*</text></g><!--link Project to Stakeholder--><g id="link_Project_Stakeholder"><path codeLine="79" d="M541.17,122.0494 C581.42,140.6094 641.26,174.8494 671.5,224.6094 C708.07,284.7894 710.98,368.4394 708.31,421.0394 " fill="none" id="Project-Stakeholder" style="stroke:#181818;stroke-width:1.0;"/><text fill="#000000" font-family="sans-serif" font-size="13" lengthAdjust="spacing" textLength="7" x="549.0378" y="140.0683">1</text><text fill="#000000" font-family="sans-serif" font-size="13" lengthAdjust="spacing" textLength="20" x="687.5802" y="410.3349">0..*</text></g><!--link Project to Document--><g id="link_Project_Document"><path codeLine="80" d="M541.23,118.0394 C589.42,134.7594 668.96,168.9894 715.5,224.6094 C768.69,288.1694 807.07,378.1694 826.37,429.8394 " fill="none" id="Project-Document" style="stroke:#181818;stroke-width:1.0;"/><text fill="#000000" font-family="sans-serif" font-size="13" lengthAdjust="spacing" textLength="7" x="549.1085" y="116.4941">1</text><text fill="#000000" font-family="sans-serif" font-size="13" lengthAdjust="spacing" textLength="20" x="802.3735" y="419.1023">0..*</text></g><!--link Functionality to FunctionalRequirement--><g id="link_Functionality_FunctionalRequirement"><path codeLine="82" d="M296.31,331.3194 C290.45,335.3694 284.46,339.2094 278.5,342.6094 C246.59,360.7994 232.59,353.0594 201.5,372.6094 C168.36,393.4494 136.37,425.5794 116.59,447.3294 " fill="none" id="Functionality-FunctionalRequirement" style="stroke:#181818;stroke-width:1.0;"/><text fill="#000000" font-family="sans-serif" font-size="13" lengthAdjust="spacing" textLength="7" x="281.6622" y="333.8968">1</text><text fill="#000000" font-family="sans-serif" font-size="13" lengthAdjust="spacing" textLength="20" x="99.1756" y="436.5978">0..*</text></g><!--reverse link Requirement to FunctionalRequirement--><g id="link_Requirement_FunctionalRequirement"><path codeLine="84" d="M428.791,341.8044 C422.791,345.7244 431.68,339.5194 425.5,342.6094 C333.96,388.3294 297.19,362.4694 203.5,403.6094 C176.61,415.4194 148.55,433.2194 127.92,447.5094 " fill="none" id="Requirement-backto-FunctionalRequirement" style="stroke:#181818;stroke-width:1.0;"/><polygon fill="none" points="443.86,331.9594,425.5093,336.7815,432.0727,346.8274,443.86,331.9594" style="stroke:#181818;stroke-width:1.0;"/></g><!--reverse link Requirement to NonFunctionalRequirement--><g id="link_Requirement_NonFunctionalRequirement"><path codeLine="85" d="M505.4095,360.662 C507.2395,389.012 508.23,404.4694 509.88,430.0294 " fill="none" id="Requirement-backto-NonFunctionalRequirement" style="stroke:#181818;stroke-width:1.0;"/><polygon fill="none" points="504.25,342.6994,499.422,361.0485,511.397,360.2755,504.25,342.6994" style="stroke:#181818;stroke-width:1.0;"/></g><!--link Requirement to Stakeholder--><g id="link_Requirement_Stakeholder"><path codeLine="87" d="M557.06,335.7094 C580.19,356.6894 607.18,381.2494 631.5,403.6094 C637.53,409.1594 643.84,414.9794 650.09,420.7794 " fill="none" id="Requirement-Stakeholder" style="stroke:#181818;stroke-width:1.0;"/><text fill="#000000" font-family="sans-serif" font-size="13" lengthAdjust="spacing" textLength="20" x="565.172" y="338.5739">0..*</text><text fill="#000000" font-family="sans-serif" font-size="13" lengthAdjust="spacing" textLength="20" x="621.5693" y="410.4044">0..*</text></g><!--link Requirement to Document--><g id="link_Requirement_Document"><path codeLine="88" d="M557.25,302.0894 C615.03,321.4794 705.65,356.3694 774.5,403.6094 C785.41,411.0894 796.02,420.5494 805.43,429.9794 " fill="none" id="Requirement-Document" style="stroke:#181818;stroke-width:1.0;"/><text fill="#000000" font-family="sans-serif" font-size="13" lengthAdjust="spacing" textLength="20" x="564.968" y="318.6413">0..*</text><text fill="#000000" font-family="sans-serif" font-size="13" lengthAdjust="spacing" textLength="20" x="777.9653" y="419.2655">0..*</text></g><!--link Requirement to Requirement--><g id="link_Requirement_Requirement"><path codeLine="89" d="M557.24,267.1094 C576.51,267.0194 592,272.5194 592,283.6094 C592,294.6994 576.51,300.1994 557.24,300.1094 " fill="none" id="Requirement-Requirement" style="stroke:#181818;stroke-width:1.0;"/><text fill="#000000" font-family="sans-serif" font-size="13" lengthAdjust="spacing" textLength="67" x="598" y="289.1045">parent/child</text><text fill="#000000" font-family="sans-serif" font-size="13" lengthAdjust="spacing" textLength="7" x="564.9583" y="261.4599">1</text><text fill="#000000" font-family="sans-serif" font-size="13" lengthAdjust="spacing" textLength="20" x="564.9568" y="298.5823">0..*</text></g><!--link User to EntityLock--><g id="link_User_EntityLock"><path codeLine="91" d="M932.5,155.3894 C932.5,176.8594 932.5,202.1194 932.5,224.4494 " fill="none" id="User-EntityLock" style="stroke:#181818;stroke-width:1.0;"/><text fill="#000000" font-family="sans-serif" font-size="13" lengthAdjust="spacing" textLength="7" x="925.0516" y="176.4492">1</text><text fill="#000000" font-family="sans-serif" font-size="13" lengthAdjust="spacing" textLength="20" x="911.2813" y="213.7541">0..*</text></g><!--link Project to ProjectState--><g id="link_Project_ProjectState"><path codeLine="93" d="M459.92,124.5294 C414.4,146.3894 339.02,184.5194 278.5,224.6094 C272.75,228.4194 266.89,232.5894 261.14,236.8894 " fill="none" id="Project-ProjectState" style="stroke:#181818;stroke-width:1.0;stroke-dasharray:7.0,7.0;"/><text fill="#000000" font-family="sans-serif" font-size="13" lengthAdjust="spacing" textLength="7" x="445.0683" y="124.1401">1</text><text fill="#000000" font-family="sans-serif" font-size="13" lengthAdjust="spacing" textLength="7" x="268.9526" y="227.0257">1</text></g><!--link Requirement to RequirementState--><g id="link_Requirement_RequirementState"><path codeLine="94" d="M443.96,336.6694 C421.44,357.4094 395.22,381.5494 371.3,403.5694 " fill="none" id="Requirement-RequirementState" style="stroke:#181818;stroke-width:1.0;stroke-dasharray:7.0,7.0;"/><text fill="#000000" font-family="sans-serif" font-size="13" lengthAdjust="spacing" textLength="7" x="428.8921" y="340.2137">1</text><text fill="#000000" font-family="sans-serif" font-size="13" lengthAdjust="spacing" textLength="7" x="371.8797" y="392.7643">1</text></g><!--link NonFunctionalRequirement to ComparisonOperator--><g id="link_NonFunctionalRequirement_ComparisonOperator"><path codeLine="95" d="M512.5,513.4294 C512.5,538.9894 512.5,572.3194 512.5,600.5994 " fill="none" id="NonFunctionalRequirement-ComparisonOperator" style="stroke:#181818;stroke-width:1.0;stroke-dasharray:7.0,7.0;"/><text fill="#000000" font-family="sans-serif" font-size="13" lengthAdjust="spacing" textLength="7" x="504.9422" y="534.8751">1</text><text fill="#000000" font-family="sans-serif" font-size="13" lengthAdjust="spacing" textLength="7" x="505.0734" y="589.9224">1</text></g><!--SRC=[fLJ1Zjem4BtxAomkArKYsrwhNjADWKWqq12u8kECYXV7fevpG6t_lOunu41ITRMvn3FpvetdUMp3ZG3ybR83o18dgg9SueJJ7vfM285iAhpKwXMOMHbg0Fz2s7xnIv5kY5jEqYnTpKZYZ8IuI5nuEoVV5Xkx_kEfSlZPS0qLo0xTacH9castyNAPBpRn_5p36PxeJLLUL7MacjTABewWgL7Qro7Vr_5yMooSCIUhrRQOnPcpfZcnVFdD4KLHIyW4hUkB19w6b-udQGLkKKBDD3yQhgIpwxQrM_AaaQoDKS7DQO12q1s8RZBTrKPJM_JC4aZttcq4L3wMATaRzfKge7LpzgmbDywdlBIt0lP43x1NeWJz7pkyfYMADGDTNJ7h-fuJxA2A7YIHngeyL-nmXtV-udI4m4pFCM7HKCQcPNd2u_7OJf06gvzkcB5zjovq6O7Hfv6ryUXZ57qOTSzs01FAtOy8b1j0N4H2g3jDGxi9QwBmGB_yjl1-t0DiQ2gwZBvsVpV_15wRwg26jCEViRtLTl7CzboK2BcXwC9lfuywGaQH-uKlsKDHZxb_ej3WtGYI7bySz1S0]--></g></svg>