<svg viewBox="0 0 900 700" font-family="Helvetica, Arial, sans-serif" version="1.1" role="img" xmlns="http://www.w3.org/2000/svg">
<title>IR-Board Backend – Hexagonal Architecture</title>
<desc>Hexagonal architecture diagram with three concentric hexagons representing Infrastructure (outer), Application (middle), and Domain (inner) layers, with external actors and arrows showing dependencies.</desc>
<defs>
  <marker id="arrow" viewBox="0 0 10 10" refX="9" refY="5" markerWidth="6" markerHeight="6" orient="auto-start-reverse"><path d="M0,0 L10,5 L0,10 z" fill="#333"/></marker>
  <marker id="arrowOpen" viewBox="0 0 10 10" refX="9" refY="5" markerWidth="6" markerHeight="6" orient="auto-start-reverse"><path d="M0,0 L10,5 L0,10" fill="none" stroke="#555" stroke-width="1.5"/></marker>
  <marker id="arrow-8" viewBox="0 0 10 10" refX="9" refY="5" markerWidth="6" markerHeight="6" orient="auto-start-reverse"><path d="M0,0 L10,5 L0,10 Z" fill="#333"/></marker>
  <marker id="arrowOpen-0" viewBox="0 0 10 10" refX="9" refY="5" markerWidth="6" markerHeight="6" orient="auto-start-reverse"><path d="M0,0 L10,5 L0,10" fill="none" stroke="#555" stroke-width="1.5"/></marker>
  <marker id="arrowOpen-6" viewBox="0 0 10 10" refX="9" refY="5" markerWidth="6" markerHeight="6" orient="auto-start-reverse"><path d="M0,0 L10,5 L0,10" fill="none" stroke="#555" stroke-width="1.5"/></marker>
  <marker id="arrow-8-5" viewBox="0 0 10 10" refX="9" refY="5" markerWidth="6" markerHeight="6" orient="auto-start-reverse"><path d="M0,0 L10,5 L0,10 Z" fill="#333"/></marker>
  <marker id="arrow-8-1" viewBox="0 0 10 10" refX="9" refY="5" markerWidth="6" markerHeight="6" orient="auto-start-reverse"><path d="M0,0 L10,5 L0,10 Z" fill="#333"/></marker>
  <marker id="arrow-8-1-3" viewBox="0 0 10 10" refX="9" refY="5" markerWidth="6" markerHeight="6" orient="auto-start-reverse"><path d="M0,0 L10,5 L0,10 Z" fill="#333"/></marker>
  <marker id="arrow-8-6" viewBox="0 0 10 10" refX="9" refY="5" markerWidth="6" markerHeight="6" orient="auto-start-reverse"><path d="M0,0 L10,5 L0,10 Z" fill="#333"/></marker>
</defs>

<text x="450" y="30" font-size="16" font-weight="700" fill="#111" text-anchor="middle">IR-Board Backend – Hexagonal Architecture</text>

<g transform="translate(0.64032954,14.727579)">
  <g id="g65">
    <polygon points="450,652 199,507 199,217 450,72 701,217 701,507" fill="#f0f0f0" stroke="#555" stroke-width="2" transform="matrix(1.000117,0,0,0.94601932,-0.05262869,3.8529322)"/>
    <text x="450.90555" y="111.77231" font-size="13px" font-weight="700" fill="#222" text-anchor="middle">Infrastructure</text>
  </g>
  <g id="g64">
    <polygon points="450,576 274,474 274,270 450,168 626,270 626,474" fill="#e0e0e0" stroke="#888" stroke-width="2" transform="matrix(1.0003434,0,0,0.89047897,-0.15450949,18.330288)"/>
    <text x="450" y="200" font-size="13px" font-weight="700" fill="#333" text-anchor="middle">Application</text>
  </g>
  <polygon points="346,432 346,316 450,258 554,316 554,432 450,490" fill="#d4d4d4" stroke="#444" stroke-width="2" transform="matrix(0.7906015,0,0,0.84176676,95.361276,56.915324)"/>
</g>

<text x="451.54587" y="326.35785" font-size="13px" font-weight="700" fill="#111" text-anchor="middle">Domain</text>

<text x="449.54721" y="344.67529" font-size="10px" fill="#222" text-anchor="middle">model</text>
<text x="449.09445" y="371.80594" font-size="10px" fill="#222" text-anchor="middle">repository interfaces</text>
<text x="450.45276" y="396.6727" font-size="10px" fill="#222" text-anchor="middle">error</text>
<text x="449.54721" y="419.27554" font-size="10px" fill="#222" text-anchor="middle">EntitySlugService</text>

<g>
  <rect x="285.0882" y="310.40424" width="51.823627" height="124.95862" rx="5.9796495" fill="#fff" stroke="#666" stroke-width="1.34115"/>
  <g transform="translate(0.32016478,-9.9251081)">
    <text x="311" y="350" font-size="9px" fill="#222" text-anchor="middle">Identity</text>
    <text x="311" y="362" font-size="9px" fill="#222" text-anchor="middle">Service</text>
  </g>
  <g transform="translate(0.64032956,-8.644449)">
    <text x="311" y="378" font-size="9px" fill="#222" text-anchor="middle">Permission</text>
    <text x="311" y="387.43869" font-size="9px" fill="#222" text-anchor="middle">Service</text>
  </g>
  <g>
    <text x="311" y="401.43869" font-size="9px" fill="#222" text-anchor="middle">
      <tspan x="311" y="401.43869">Object</tspan>
      <tspan x="311" dy="11.25">storage</tspan>
      <tspan x="311" dy="11.25">service</tspan>
    </text>
  </g>
  <text x="311.32016" y="324.1539" font-size="9px" fill="#111" text-anchor="middle" font-weight="700">ports</text>
</g>

<g transform="translate(71.186443,-242.30981)">
  <rect x="411.33246" y="501.71539" width="77.787842" height="29.249674" rx="2.5929277" fill="#fff" stroke="#666" stroke-width="0.730791"/>
  <text x="450" y="519" font-size="9px" fill="#111" text-anchor="middle" font-weight="700">dto &amp; mappers</text>
</g>

<g transform="translate(-258.46048,93.246305)">
  <rect x="644.8432" y="52.31279" width="128.2955" height="25.534826" rx="3.4989681" fill="#bbb" stroke="#555" stroke-width="0.637101"/>
  <text x="708.08539" y="68.021996" font-size="10px" fill="#111" text-anchor="middle" font-weight="700">REST API (controllers)</text>
</g>

<g transform="translate(-4.4823069,-0.64032956)">
  <g>
    <rect x="210" y="310" width="58" height="125" rx="6" fill="#bbb" stroke="#555" stroke-width="1.3"/>
    <text x="239" y="325" font-size="9px" fill="#111" text-anchor="middle" font-weight="700">clients</text>
  </g>
  <text x="239" y="340" font-size="9px" fill="#222" text-anchor="middle">Kratos</text>
  <text x="239" y="350" font-size="9px" fill="#222" text-anchor="middle">Client</text>
  <text x="239" y="370" font-size="9px" fill="#222" text-anchor="middle">Keto</text>
  <text x="239" y="380" font-size="9px" fill="#222" text-anchor="middle">Client</text>
  <text x="239" y="410" font-size="9px" fill="#222" text-anchor="middle">Minio</text>
  <text x="239" y="420" font-size="9px" fill="#222" text-anchor="middle">Client</text>
</g>

<g transform="translate(-218.73891,239.51584)">
  <rect x="631.83447" y="318.8125" width="83.159027" height="51.508316" rx="8.0476475" fill="#bbb" stroke="#555" stroke-width="1.20289"/>
  <text x="673.414" y="335.61966" font-size="9px" fill="#111" text-anchor="middle" font-weight="700">persistence</text>
  <text x="672.50842" y="352.33633" font-size="9px" fill="#222" text-anchor="middle">
    <tspan x="672.50842" y="352.33633">Repository</tspan>
    <tspan x="672.50842" dy="11.25">implementations</tspan>
  </text>
</g>

<g transform="matrix(0.93955429,0,0,1.0002888,241.22187,-225.66649)">
  <rect x="417.83243" y="589.95404" width="67.051842" height="76.314453" rx="1.8286866" fill="#bbb" stroke="#555" stroke-width="0.721225"/>
  <text x="452" y="607" font-size="10px" fill="#111" text-anchor="middle" font-weight="700">config</text>
  <text x="452" y="621" font-size="9px" fill="#222" text-anchor="middle">
    <tspan x="452" y="621">SecurityConfig</tspan>
    <tspan x="452" dy="11.25">MinioConfig</tspan>
    <tspan x="452" dy="11.25">KratosConfig</tspan>
    <tspan x="452" dy="11.25">KetoConfig</tspan>
  </text>
</g>

<g transform="translate(-199.1425,-18.569557)">
  <rect x="562.62683" y="277.62683" width="52.746319" height="32.189861" rx="6.0861135" fill="#fff" stroke="#666" stroke-width="1.3"/>
  <text x="589" y="296" font-size="9px" fill="#111" text-anchor="middle" font-weight="700">services</text>
</g>

<g transform="translate(9.0556318,-611.25485)">
  <rect x="355" y="648" width="190" height="34" rx="6" fill="#f5f5f5" stroke="#999" stroke-width="1.3"/>
  <text x="450" y="670" font-size="11px" fill="#333" text-anchor="middle">Browser / Frontend</text>
</g>

<g>
  <rect x="44" y="310" width="78" height="34" rx="6" fill="#f5f5f5" stroke="#999" stroke-width="1.3"/>
  <text x="83" y="332" font-size="10" fill="#333" text-anchor="middle">Ory Kratos</text>
</g>
<g>
  <rect x="44" y="355" width="78" height="34" rx="6" fill="#f5f5f5" stroke="#999" stroke-width="1.3"/>
  <text x="83" y="377" font-size="10" fill="#333" text-anchor="middle">Ory Keto</text>
</g>
<g>
  <rect x="44" y="400" width="78" height="34" rx="6" fill="#f5f5f5" stroke="#999" stroke-width="1.3"/>
  <text x="83" y="422" font-size="10" fill="#333" text-anchor="middle">MinIO</text>
</g>
<g transform="translate(-140.86051,231.23705)">
  <rect x="778" y="330" width="88" height="34" rx="6" fill="#f5f5f5" stroke="#999" stroke-width="1.3"/>
  <text x="822" y="352" font-size="10px" fill="#333" text-anchor="middle">PostgreSQL</text>
</g>

<line x1="206.15802" y1="327" x2="121.96625" y2="327" stroke="#333" stroke-width="2" marker-end="url(#arrow)"/>
<line x1="205.83786" y1="372" x2="121.96343" y2="372" stroke="#333" stroke-width="2" marker-end="url(#arrow)"/>
<line x1="205.83786" y1="417" x2="121.96343" y2="417" stroke="#333" stroke-width="2" marker-end="url(#arrow)"/>
<line x1="497.02075" y1="578.37445" x2="637.20654" y2="577.53046" stroke="#333" stroke-width="1.596" marker-end="url(#arrow)"/>

<line x1="263.77924" y1="370.0282" x2="282.20496" y2="370.0282" stroke="#555" stroke-width="2" stroke-dasharray="5,4" marker-end="url(#arrowOpen-0)"/>
<line x1="450.39731" y1="558.0155" x2="450.48563" y2="488.6846" stroke="#555" stroke-width="2" stroke-dasharray="5,4" marker-end="url(#arrowOpen-6)"/>

<line x1="404.53735" y1="172.04691" x2="392.77924" y2="260.00833" stroke="#333" stroke-width="2.343" marker-end="url(#arrow-8)"/>
<line x1="411.384" y1="71.103821" x2="399.42825" y2="144.32034" stroke="#333" stroke-width="2.156" marker-end="url(#arrow-8-6)"/>
<line x1="371.67694" y1="290.45505" x2="337.9299" y2="321.57886" stroke="#333" stroke-width="1.448" marker-end="url(#arrow-8-1-3)"/>
<line x1="490.61456" y1="172.19228" x2="514.13049" y2="257.59827" stroke="#333" stroke-width="2.310" marker-end="url(#arrow-8-5)"/>
<line x1="380.85132" y1="292.00732" x2="392.91113" y2="323.13113" stroke="#333" stroke-width="1.448" marker-end="url(#arrow-8-1)"/>

<g transform="translate(1.2806591,-62.111967)">
  <rect x="43.911041" y="559.91107" width="134.8643" height="80.177917" rx="4.045929" fill="#f5f5f5" stroke="#aaa" stroke-width="1"/>
  <text x="54" y="578" font-size="10px" font-weight="700" fill="#111">Legend</text>
  <line x1="54" y1="594" x2="90" y2="594" stroke="#333" stroke-width="2" marker-end="url(#arrow)"/>
  <text x="96" y="598" font-size="9px" fill="#333">calls / uses</text>
  <line x1="54" y1="616.71112" x2="90" y2="616.71112" stroke="#555" stroke-width="2" stroke-dasharray="5,4" marker-end="url(#arrowOpen)"/>
  <text x="96" y="620.71112" font-size="9px" fill="#333">implements</text>
</g>
</svg>