<?xml version="1.0" encoding="us-ascii" standalone="no"?><svg xmlns="http://www.w3.org/2000/svg" xmlns:xlink="http://www.w3.org/1999/xlink" contentStyleType="text/css" height="1277px" preserveAspectRatio="none" style="width:1324px;height:1277px;background:#FFFFFF;" version="1.1" viewBox="0 0 1324 1277" width="1324px" zoomAndPan="magnify"><defs/><g><text fill="#000000" font-family="sans-serif" font-size="14" font-weight="bold" lengthAdjust="spacing" textLength="265" x="522.75" y="24.5332">Backend Database Relational Diagram</text><!--class app_user--><g id="elem_app_user"><rect codeLine="7" fill="#F1F1F1" height="184.4844" id="app_user" rx="2.5" ry="2.5" style="stroke:#181818;stroke-width:0.5;" width="234" x="7" y="45.6094"/><text fill="#000000" font-family="sans-serif" font-size="14" lengthAdjust="spacing" textLength="60" x="94" y="65.1426">app_user</text><line style="stroke:#181818;stroke-width:0.5;" x1="8" x2="240" y1="73.2188" y2="73.2188"/><ellipse cx="18" cy="87.5234" fill="#000000" rx="3" ry="3" style="stroke:#000000;stroke-width:1.0;"/><text fill="#000000" font-family="sans-serif" font-size="14" lengthAdjust="spacing" textLength="95" x="27" y="91.752">id : bigint &#171;PK&#187;</text><line style="stroke:#181818;stroke-width:1.0;" x1="8" x2="240" y1="98.8281" y2="98.8281"/><text fill="#000000" font-family="sans-serif" font-size="14" lengthAdjust="spacing" textLength="163" x="13" y="117.3613">email : varchar &#171;UNIQUE&#187;</text><text fill="#000000" font-family="sans-serif" font-size="14" lengthAdjust="spacing" textLength="165" x="13" y="134.9707">name : varchar &#171;UNIQUE&#187;</text><text fill="#000000" font-family="sans-serif" font-size="14" lengthAdjust="spacing" textLength="115" x="13" y="152.5801">surname : varchar</text><text fill="#000000" font-family="sans-serif" font-size="14" lengthAdjust="spacing" textLength="100" x="13" y="170.1895">active : boolean</text><text fill="#000000" font-family="sans-serif" font-size="14" lengthAdjust="spacing" textLength="119" x="13" y="187.7988">is_admin : boolean</text><text fill="#000000" font-family="sans-serif" font-size="14" lengthAdjust="spacing" textLength="169" x="13" y="205.4082">ory_id : varchar &#171;UNIQUE&#187;</text><text fill="#000000" font-family="sans-serif" font-size="14" lengthAdjust="spacing" textLength="222" x="13" y="223.0176">pending_activation_token : varchar</text></g><!--class project--><g id="elem_project"><rect codeLine="19" fill="#F1F1F1" height="149.2656" id="project" rx="2.5" ry="2.5" style="stroke:#181818;stroke-width:0.5;" width="177" x="568.5" y="63.1094"/><text fill="#000000" font-family="sans-serif" font-size="14" lengthAdjust="spacing" textLength="43" x="635.5" y="82.6426">project</text><line style="stroke:#181818;stroke-width:0.5;" x1="569.5" x2="744.5" y1="90.7188" y2="90.7188"/><ellipse cx="579.5" cy="105.0234" fill="#000000" rx="3" ry="3" style="stroke:#000000;stroke-width:1.0;"/><text fill="#000000" font-family="sans-serif" font-size="14" lengthAdjust="spacing" textLength="95" x="588.5" y="109.252">id : bigint &#171;PK&#187;</text><line style="stroke:#181818;stroke-width:1.0;" x1="569.5" x2="744.5" y1="116.3281" y2="116.3281"/><text fill="#000000" font-family="sans-serif" font-size="14" lengthAdjust="spacing" textLength="165" x="574.5" y="134.8613">name : varchar &#171;UNIQUE&#187;</text><text fill="#000000" font-family="sans-serif" font-size="14" lengthAdjust="spacing" textLength="129" x="574.5" y="152.4707">description : varchar</text><text fill="#000000" font-family="sans-serif" font-size="14" lengthAdjust="spacing" textLength="78" x="574.5" y="170.0801">state : enum</text><text fill="#000000" font-family="sans-serif" font-size="14" lengthAdjust="spacing" textLength="127" x="574.5" y="187.6895">priority_style : enum</text><text fill="#000000" font-family="sans-serif" font-size="14" lengthAdjust="spacing" textLength="144" x="574.5" y="205.2988">created_at : timestamp</text></g><!--class functionality--><g id="elem_functionality"><rect codeLine="29" fill="#F1F1F1" height="166.875" id="functionality" rx="2.5" ry="2.5" style="stroke:#181818;stroke-width:0.5;" width="168" x="642" y="316.1094"/><text fill="#000000" font-family="sans-serif" font-size="14" lengthAdjust="spacing" textLength="75" x="688.5" y="335.6426">functionality</text><line style="stroke:#181818;stroke-width:0.5;" x1="643" x2="809" y1="343.7188" y2="343.7188"/><ellipse cx="653" cy="358.0234" fill="#000000" rx="3" ry="3" style="stroke:#000000;stroke-width:1.0;"/><text fill="#000000" font-family="sans-serif" font-size="14" lengthAdjust="spacing" textLength="95" x="662" y="362.252">id : bigint &#171;PK&#187;</text><line style="stroke:#181818;stroke-width:1.0;" x1="643" x2="809" y1="369.3281" y2="369.3281"/><text fill="#000000" font-family="sans-serif" font-size="14" lengthAdjust="spacing" textLength="156" x="648" y="387.8613">entity_identifier : varchar</text><text fill="#000000" font-family="sans-serif" font-size="14" lengthAdjust="spacing" textLength="146" x="648" y="405.4707">project_id : bigint &#171;FK&#187;</text><text fill="#000000" font-family="sans-serif" font-size="14" lengthAdjust="spacing" textLength="95" x="648" y="423.0801">name : varchar</text><text fill="#000000" font-family="sans-serif" font-size="14" lengthAdjust="spacing" textLength="90" x="648" y="440.6895">label : varchar</text><text fill="#000000" font-family="sans-serif" font-size="14" lengthAdjust="spacing" textLength="129" x="648" y="458.2988">description : varchar</text><text fill="#000000" font-family="sans-serif" font-size="14" lengthAdjust="spacing" textLength="78" x="648" y="475.9082">state : enum</text></g><!--class requirement--><g id="elem_requirement"><rect codeLine="40" fill="#F1F1F1" height="439.0156" id="requirement" rx="2.5" ry="2.5" style="stroke:#181818;stroke-width:0.5;" width="231" x="722.5" y="569.6094"/><text fill="#000000" font-family="sans-serif" font-size="14" lengthAdjust="spacing" textLength="76" x="800" y="589.1426">requirement</text><line style="stroke:#181818;stroke-width:0.5;" x1="723.5" x2="952.5" y1="597.2188" y2="597.2188"/><ellipse cx="733.5" cy="611.5234" fill="#000000" rx="3" ry="3" style="stroke:#000000;stroke-width:1.0;"/><text fill="#000000" font-family="sans-serif" font-size="14" lengthAdjust="spacing" textLength="95" x="742.5" y="615.752">id : bigint &#171;PK&#187;</text><line style="stroke:#181818;stroke-width:1.0;" x1="723.5" x2="952.5" y1="622.8281" y2="622.8281"/><text fill="#000000" font-family="sans-serif" font-size="14" lengthAdjust="spacing" textLength="219" x="728.5" y="641.3613">requirement_type : enum(FR,NFR)</text><line style="stroke:#181818;stroke-width:1.0;" x1="723.5" x2="952.5" y1="648.4375" y2="648.4375"/><text fill="#000000" font-family="sans-serif" font-size="14" lengthAdjust="spacing" textLength="156" x="728.5" y="666.9707">entity_identifier : varchar</text><text fill="#000000" font-family="sans-serif" font-size="14" lengthAdjust="spacing" textLength="146" x="728.5" y="684.5801">project_id : bigint &#171;FK&#187;</text><text fill="#000000" font-family="sans-serif" font-size="14" lengthAdjust="spacing" textLength="178" x="728.5" y="702.1895">functionality_id : bigint &#171;FK&#187;</text><text fill="#000000" font-family="sans-serif" font-size="14" lengthAdjust="spacing" textLength="144" x="728.5" y="719.7988">parent_id : bigint &#171;FK&#187;</text><text fill="#000000" font-family="sans-serif" font-size="14" lengthAdjust="spacing" textLength="4" x="728.5" y="737.4082">&#160;</text><text fill="#000000" font-family="sans-serif" font-size="14" lengthAdjust="spacing" textLength="95" x="728.5" y="755.0176">name : varchar</text><text fill="#000000" font-family="sans-serif" font-size="14" lengthAdjust="spacing" textLength="129" x="728.5" y="772.627">description : varchar</text><text fill="#000000" font-family="sans-serif" font-size="14" lengthAdjust="spacing" textLength="78" x="728.5" y="790.2363">state : enum</text><text fill="#000000" font-family="sans-serif" font-size="14" lengthAdjust="spacing" textLength="4" x="728.5" y="807.8457">&#160;</text><text fill="#000000" font-family="sans-serif" font-size="14" lengthAdjust="spacing" textLength="103" x="728.5" y="825.4551">priority : varchar</text><text fill="#000000" font-family="sans-serif" font-size="14" lengthAdjust="spacing" textLength="107" x="728.5" y="843.0645">stability : varchar</text><text fill="#000000" font-family="sans-serif" font-size="14" lengthAdjust="spacing" textLength="122" x="728.5" y="860.6738">order_value : bigint</text><text fill="#000000" font-family="sans-serif" font-size="14" lengthAdjust="spacing" textLength="4" x="728.5" y="878.2832">&#160;</text><text fill="#000000" font-family="sans-serif" font-size="14" lengthAdjust="spacing" textLength="177" x="728.5" y="895.8926">measurement_unit : varchar</text><text fill="#000000" font-family="sans-serif" font-size="14" lengthAdjust="spacing" textLength="101" x="728.5" y="913.502">operator : enum</text><text fill="#000000" font-family="sans-serif" font-size="14" lengthAdjust="spacing" textLength="135" x="728.5" y="931.1113">actual_value : double</text><text fill="#000000" font-family="sans-serif" font-size="14" lengthAdjust="spacing" textLength="134" x="728.5" y="948.7207">target_value : double</text><text fill="#000000" font-family="sans-serif" font-size="14" lengthAdjust="spacing" textLength="156" x="728.5" y="966.3301">threshold_value : double</text><text fill="#000000" font-family="sans-serif" font-size="14" lengthAdjust="spacing" textLength="4" x="728.5" y="983.9395">&#160;</text><text fill="#000000" font-family="sans-serif" font-size="14" lengthAdjust="spacing" textLength="180" x="728.5" y="1001.5488">is_pending_review : boolean</text></g><!--class stakeholder--><g id="elem_stakeholder"><rect codeLine="68" fill="#F1F1F1" height="166.875" id="stakeholder" rx="2.5" ry="2.5" style="stroke:#181818;stroke-width:0.5;" width="168" x="338" y="1086.1094"/><text fill="#000000" font-family="sans-serif" font-size="14" lengthAdjust="spacing" textLength="74" x="385" y="1105.6426">stakeholder</text><line style="stroke:#181818;stroke-width:0.5;" x1="339" x2="505" y1="1113.7188" y2="1113.7188"/><ellipse cx="349" cy="1128.0234" fill="#000000" rx="3" ry="3" style="stroke:#000000;stroke-width:1.0;"/><text fill="#000000" font-family="sans-serif" font-size="14" lengthAdjust="spacing" textLength="95" x="358" y="1132.252">id : bigint &#171;PK&#187;</text><line style="stroke:#181818;stroke-width:1.0;" x1="339" x2="505" y1="1139.3281" y2="1139.3281"/><text fill="#000000" font-family="sans-serif" font-size="14" lengthAdjust="spacing" textLength="156" x="344" y="1157.8613">entity_identifier : varchar</text><text fill="#000000" font-family="sans-serif" font-size="14" lengthAdjust="spacing" textLength="146" x="344" y="1175.4707">project_id : bigint &#171;FK&#187;</text><text fill="#000000" font-family="sans-serif" font-size="14" lengthAdjust="spacing" textLength="4" x="344" y="1193.0801">&#160;</text><text fill="#000000" font-family="sans-serif" font-size="14" lengthAdjust="spacing" textLength="95" x="344" y="1210.6895">name : varchar</text><text fill="#000000" font-family="sans-serif" font-size="14" lengthAdjust="spacing" textLength="129" x="344" y="1228.2988">description : varchar</text><text fill="#000000" font-family="sans-serif" font-size="14" lengthAdjust="spacing" textLength="78" x="344" y="1245.9082">state : enum</text></g><!--class document--><g id="elem_document"><rect codeLine="80" fill="#F1F1F1" height="202.0938" id="document" rx="2.5" ry="2.5" style="stroke:#181818;stroke-width:0.5;" width="187" x="1110.5" y="1068.6094"/><text fill="#000000" font-family="sans-serif" font-size="14" lengthAdjust="spacing" textLength="62" x="1173" y="1088.1426">document</text><line style="stroke:#181818;stroke-width:0.5;" x1="1111.5" x2="1296.5" y1="1096.2188" y2="1096.2188"/><ellipse cx="1121.5" cy="1110.5234" fill="#000000" rx="3" ry="3" style="stroke:#000000;stroke-width:1.0;"/><text fill="#000000" font-family="sans-serif" font-size="14" lengthAdjust="spacing" textLength="95" x="1130.5" y="1114.752">id : bigint &#171;PK&#187;</text><line style="stroke:#181818;stroke-width:1.0;" x1="1111.5" x2="1296.5" y1="1121.8281" y2="1121.8281"/><text fill="#000000" font-family="sans-serif" font-size="14" lengthAdjust="spacing" textLength="156" x="1116.5" y="1140.3613">entity_identifier : varchar</text><text fill="#000000" font-family="sans-serif" font-size="14" lengthAdjust="spacing" textLength="146" x="1116.5" y="1157.9707">project_id : bigint &#171;FK&#187;</text><text fill="#000000" font-family="sans-serif" font-size="14" lengthAdjust="spacing" textLength="4" x="1116.5" y="1175.5801">&#160;</text><text fill="#000000" font-family="sans-serif" font-size="14" lengthAdjust="spacing" textLength="121" x="1116.5" y="1193.1895">file_name : varchar</text><text fill="#000000" font-family="sans-serif" font-size="14" lengthAdjust="spacing" textLength="128" x="1116.5" y="1210.7988">mime_type : varchar</text><text fill="#000000" font-family="sans-serif" font-size="14" lengthAdjust="spacing" textLength="96" x="1116.5" y="1228.4082">file_size : bigint</text><text fill="#000000" font-family="sans-serif" font-size="14" lengthAdjust="spacing" textLength="175" x="1116.5" y="1246.0176">s3_key : varchar &#171;UNIQUE&#187;</text><text fill="#000000" font-family="sans-serif" font-size="14" lengthAdjust="spacing" textLength="78" x="1116.5" y="1263.627">state : enum</text></g><!--class entity_lock--><g id="elem_entity_lock"><rect codeLine="94" fill="#F1F1F1" height="219.7031" id="entity_lock" rx="2.5" ry="2.5" style="stroke:#181818;stroke-width:0.5;" width="155" x="46.5" y="289.6094"/><text fill="#000000" font-family="sans-serif" font-size="14" lengthAdjust="spacing" textLength="67" x="90.5" y="309.1426">entity_lock</text><line style="stroke:#181818;stroke-width:0.5;" x1="47.5" x2="200.5" y1="317.2188" y2="317.2188"/><ellipse cx="57.5" cy="331.5234" fill="#000000" rx="3" ry="3" style="stroke:#000000;stroke-width:1.0;"/><text fill="#000000" font-family="sans-serif" font-size="14" lengthAdjust="spacing" textLength="95" x="66.5" y="335.752">id : bigint &#171;PK&#187;</text><line style="stroke:#181818;stroke-width:1.0;" x1="47.5" x2="200.5" y1="342.8281" y2="342.8281"/><text fill="#000000" font-family="sans-serif" font-size="14" lengthAdjust="spacing" textLength="99" x="52.5" y="361.3613">entity_id : bigint</text><text fill="#000000" font-family="sans-serif" font-size="14" lengthAdjust="spacing" textLength="129" x="52.5" y="378.9707">entity_type : varchar</text><text fill="#000000" font-family="sans-serif" font-size="14" lengthAdjust="spacing" textLength="4" x="52.5" y="396.5801">&#160;</text><text fill="#000000" font-family="sans-serif" font-size="14" lengthAdjust="spacing" textLength="137" x="52.5" y="414.1895">locked_at : timestamp</text><text fill="#000000" font-family="sans-serif" font-size="14" lengthAdjust="spacing" textLength="4" x="52.5" y="431.7988">&#160;</text><text fill="#000000" font-family="sans-serif" font-size="14" lengthAdjust="spacing" textLength="108" x="52.5" y="449.4082">project_id : bigint</text><text fill="#000000" font-family="sans-serif" font-size="14" lengthAdjust="spacing" textLength="131" x="52.5" y="467.0176">user_id : bigint &#171;FK&#187;</text><text fill="#000000" font-family="sans-serif" font-size="14" lengthAdjust="spacing" textLength="4" x="52.5" y="484.627">&#160;</text><text fill="#000000" font-family="sans-serif" font-size="14" lengthAdjust="spacing" textLength="143" x="52.5" y="502.2363">system_wide : boolean</text></g><!--class requirement_observing--><g id="elem_requirement_observing"><rect codeLine="109" fill="#F1F1F1" height="78.8281" id="requirement_observing" rx="2.5" ry="2.5" style="stroke:#181818;stroke-width:0.5;" width="210" x="845" y="360.1094"/><text fill="#000000" font-family="sans-serif" font-size="14" lengthAdjust="spacing" textLength="146" x="877" y="379.6426">requirement_observing</text><line style="stroke:#181818;stroke-width:0.5;" x1="846" x2="1054" y1="387.7188" y2="387.7188"/><ellipse cx="856" cy="402.0234" fill="#000000" rx="3" ry="3" style="stroke:#000000;stroke-width:1.0;"/><text fill="#000000" font-family="sans-serif" font-size="14" lengthAdjust="spacing" textLength="181" x="865" y="406.252">observer_id : bigint &#171;PK,FK&#187;</text><ellipse cx="856" cy="419.6328" fill="#000000" rx="3" ry="3" style="stroke:#000000;stroke-width:1.0;"/><text fill="#000000" font-family="sans-serif" font-size="14" lengthAdjust="spacing" textLength="184" x="865" y="423.8613">observed_id : bigint &#171;PK,FK&#187;</text><line style="stroke:#181818;stroke-width:0.5;" x1="846" x2="1054" y1="430.9375" y2="430.9375"/></g><!--class document_observer_requirement--><g id="elem_document_observer_requirement"><rect codeLine="115" fill="#F1F1F1" height="78.8281" id="document_observer_requirement" rx="2.5" ry="2.5" style="stroke:#181818;stroke-width:0.5;" width="227" x="1090.5" y="360.1094"/><text fill="#000000" font-family="sans-serif" font-size="14" lengthAdjust="spacing" textLength="210" x="1099" y="379.6426">document_observer_requirement</text><line style="stroke:#181818;stroke-width:0.5;" x1="1091.5" x2="1316.5" y1="387.7188" y2="387.7188"/><ellipse cx="1101.5" cy="402.0234" fill="#000000" rx="3" ry="3" style="stroke:#000000;stroke-width:1.0;"/><text fill="#000000" font-family="sans-serif" font-size="14" lengthAdjust="spacing" textLength="187" x="1110.5" y="406.252">document_id : bigint &#171;PK,FK&#187;</text><ellipse cx="1101.5" cy="419.6328" fill="#000000" rx="3" ry="3" style="stroke:#000000;stroke-width:1.0;"/><text fill="#000000" font-family="sans-serif" font-size="14" lengthAdjust="spacing" textLength="201" x="1110.5" y="423.8613">requirement_id : bigint &#171;PK,FK&#187;</text><line style="stroke:#181818;stroke-width:0.5;" x1="1091.5" x2="1316.5" y1="430.9375" y2="430.9375"/></g><!--class stakeholder_observer_requirement--><g id="elem_stakeholder_observer_requirement"><rect codeLine="121" fill="#F1F1F1" height="78.8281" id="stakeholder_observer_requirement" rx="2.5" ry="2.5" style="stroke:#181818;stroke-width:0.5;" width="228" x="308" y="360.1094"/><text fill="#000000" font-family="sans-serif" font-size="14" lengthAdjust="spacing" textLength="222" x="311" y="379.6426">stakeholder_observer_requirement</text><line style="stroke:#181818;stroke-width:0.5;" x1="309" x2="535" y1="387.7188" y2="387.7188"/><ellipse cx="319" cy="402.0234" fill="#000000" rx="3" ry="3" style="stroke:#000000;stroke-width:1.0;"/><text fill="#000000" font-family="sans-serif" font-size="14" lengthAdjust="spacing" textLength="199" x="328" y="406.252">stakeholder_id : bigint &#171;PK,FK&#187;</text><ellipse cx="319" cy="419.6328" fill="#000000" rx="3" ry="3" style="stroke:#000000;stroke-width:1.0;"/><text fill="#000000" font-family="sans-serif" font-size="14" lengthAdjust="spacing" textLength="201" x="328" y="423.8613">requirement_id : bigint &#171;PK,FK&#187;</text><line style="stroke:#181818;stroke-width:0.5;" x1="309" x2="535" y1="430.9375" y2="430.9375"/></g><!--link project to functionality--><g id="link_project_functionality"><path codeLine="131" d="M693.75,220.3394 C693.75,252.7094 693.75,264.7294 693.75,298.0294 " fill="none" id="project-functionality" style="stroke:#181818;stroke-width:1.0;"/><line style="stroke:#181818;stroke-width:1.0;" x1="689.75" x2="697.75" y1="216.3394" y2="216.3394"/><line style="stroke:#181818;stroke-width:1.0;" x1="689.75" x2="697.75" y1="219.3394" y2="219.3394"/><line style="stroke:#181818;stroke-width:1.0;" x1="693.75" x2="693.75" y1="220.3394" y2="212.3394"/><line style="stroke:#181818;stroke-width:1.0;" x1="693.75" x2="699.75" y1="308.0294" y2="316.0294"/><line style="stroke:#181818;stroke-width:1.0;" x1="693.75" x2="687.75" y1="308.0294" y2="316.0294"/><line style="stroke:#181818;stroke-width:1.0;" x1="693.75" x2="693.75" y1="308.0294" y2="316.0294"/><ellipse cx="693.75" cy="302.0294" fill="none" rx="4" ry="4" style="stroke:#181818;stroke-width:1.0;"/></g><!--link project to requirement--><g id="link_project_requirement"><path codeLine="132" d="M753.75,137.6094 C795.17,137.6094 827.5,137.6094 827.5,137.6094 C827.5,137.6094 827.5,362.3094 827.5,551.4494 " fill="none" id="project-requirement" style="stroke:#181818;stroke-width:1.0;"/><line style="stroke:#181818;stroke-width:1.0;" x1="749.75" x2="749.75" y1="141.6094" y2="133.6094"/><line style="stroke:#181818;stroke-width:1.0;" x1="752.75" x2="752.75" y1="141.6094" y2="133.6094"/><line style="stroke:#181818;stroke-width:1.0;" x1="753.75" x2="745.75" y1="137.6094" y2="137.6094"/><line style="stroke:#181818;stroke-width:1.0;" x1="827.5" x2="833.5" y1="561.4494" y2="569.4494"/><line style="stroke:#181818;stroke-width:1.0;" x1="827.5" x2="821.5" y1="561.4494" y2="569.4494"/><line style="stroke:#181818;stroke-width:1.0;" x1="827.5" x2="827.5" y1="561.4494" y2="569.4494"/><ellipse cx="827.5" cy="555.4494" fill="none" rx="4" ry="4" style="stroke:#181818;stroke-width:1.0;"/></g><!--link project to stakeholder--><g id="link_project_stakeholder"><path codeLine="133" d="M593,220.3294 C593,453.2394 593,1142.6094 593,1142.6094 C593,1142.6094 567.41,1142.6094 524.25,1142.6094 " fill="none" id="project-stakeholder" style="stroke:#181818;stroke-width:1.0;"/><line style="stroke:#181818;stroke-width:1.0;" x1="589" x2="597" y1="216.3294" y2="216.3294"/><line style="stroke:#181818;stroke-width:1.0;" x1="589" x2="597" y1="219.3294" y2="219.3294"/><line style="stroke:#181818;stroke-width:1.0;" x1="593" x2="593" y1="220.3294" y2="212.3294"/><line style="stroke:#181818;stroke-width:1.0;" x1="514.25" x2="506.25" y1="1142.6094" y2="1148.6094"/><line style="stroke:#181818;stroke-width:1.0;" x1="514.25" x2="506.25" y1="1142.6094" y2="1136.6094"/><line style="stroke:#181818;stroke-width:1.0;" x1="514.25" x2="506.25" y1="1142.6094" y2="1142.6094"/><ellipse cx="520.25" cy="1142.6094" fill="none" rx="4" ry="4" style="stroke:#181818;stroke-width:1.0;"/></g><!--link project to document--><g id="link_project_document"><path codeLine="134" d="M617.5,220.3894 C617.5,443.4294 617.5,1080.6094 617.5,1080.6094 C617.5,1080.6094 926.83,1080.6094 1092.42,1080.6094 " fill="none" id="project-document" style="stroke:#181818;stroke-width:1.0;"/><line style="stroke:#181818;stroke-width:1.0;" x1="613.5" x2="621.5" y1="216.3894" y2="216.3894"/><line style="stroke:#181818;stroke-width:1.0;" x1="613.5" x2="621.5" y1="219.3894" y2="219.3894"/><line style="stroke:#181818;stroke-width:1.0;" x1="617.5" x2="617.5" y1="220.3894" y2="212.3894"/><line style="stroke:#181818;stroke-width:1.0;" x1="1102.42" x2="1110.42" y1="1080.6094" y2="1074.6094"/><line style="stroke:#181818;stroke-width:1.0;" x1="1102.42" x2="1110.42" y1="1080.6094" y2="1086.6094"/><line style="stroke:#181818;stroke-width:1.0;" x1="1102.42" x2="1110.42" y1="1080.6094" y2="1080.6094"/><ellipse cx="1096.42" cy="1080.6094" fill="none" rx="4" ry="4" style="stroke:#181818;stroke-width:1.0;"/></g><!--link functionality to requirement--><g id="link_functionality_requirement"><path codeLine="137" d="M780.83,491.1694 C780.83,516.9894 780.83,520.7194 780.83,551.2994 " fill="none" id="functionality-requirement" style="stroke:#181818;stroke-width:1.0;"/><line style="stroke:#181818;stroke-width:1.0;" x1="776.83" x2="784.83" y1="487.1694" y2="487.1694"/><line style="stroke:#181818;stroke-width:1.0;" x1="776.83" x2="784.83" y1="490.1694" y2="490.1694"/><line style="stroke:#181818;stroke-width:1.0;" x1="780.83" x2="780.83" y1="491.1694" y2="483.1694"/><line style="stroke:#181818;stroke-width:1.0;" x1="780.83" x2="786.83" y1="561.2994" y2="569.2994"/><line style="stroke:#181818;stroke-width:1.0;" x1="780.83" x2="774.83" y1="561.2994" y2="569.2994"/><line style="stroke:#181818;stroke-width:1.0;" x1="780.83" x2="780.83" y1="561.2994" y2="569.2994"/><ellipse cx="780.83" cy="555.2994" fill="none" rx="4" ry="4" style="stroke:#181818;stroke-width:1.0;"/></g><!--link requirement to requirement--><g id="link_requirement_requirement"><path codeLine="140" d="M751.67,561.2094 C751.67,543.1294 751.67,539.6094 751.67,539.6094 C751.67,539.6094 682.25,539.6094 682.25,539.6094 C682.25,539.6094 682.25,1038.6094 682.25,1038.6094 C682.25,1038.6094 895.75,1038.6094 895.75,1038.6094 C895.75,1038.6094 895.75,1045.0894 895.75,1027.0094 " fill="none" id="requirement-requirement" style="stroke:#181818;stroke-width:1.0;"/><line style="stroke:#181818;stroke-width:1.0;" x1="755.67" x2="747.67" y1="565.2094" y2="565.2094"/><line style="stroke:#181818;stroke-width:1.0;" x1="755.67" x2="747.67" y1="562.2094" y2="562.2094"/><line style="stroke:#181818;stroke-width:1.0;" x1="751.67" x2="751.67" y1="561.2094" y2="569.2094"/><line style="stroke:#181818;stroke-width:1.0;" x1="895.75" x2="889.75" y1="1017.0094" y2="1009.0094"/><line style="stroke:#181818;stroke-width:1.0;" x1="895.75" x2="901.75" y1="1017.0094" y2="1009.0094"/><line style="stroke:#181818;stroke-width:1.0;" x1="895.75" x2="895.75" y1="1017.0094" y2="1009.0094"/><ellipse cx="895.75" cy="1023.0094" fill="none" rx="4" ry="4" style="stroke:#181818;stroke-width:1.0;"/><text fill="#000000" font-family="sans-serif" font-size="13" lengthAdjust="spacing" textLength="36" x="640.25" y="852.6445">parent</text></g><!--link requirement to stakeholder--><g id="link_requirement_stakeholder"><path codeLine="143" d="M780.25,1026.8994 C780.25,1123.5894 780.25,1197.6094 780.25,1197.6094 C780.25,1197.6094 630.36,1197.6094 524.45,1197.6094 " fill="none" id="requirement-stakeholder" style="stroke:#181818;stroke-width:1.0;"/><line style="stroke:#181818;stroke-width:1.0;" x1="780.25" x2="774.25" y1="1016.8994" y2="1008.8994"/><line style="stroke:#181818;stroke-width:1.0;" x1="780.25" x2="786.25" y1="1016.8994" y2="1008.8994"/><line style="stroke:#181818;stroke-width:1.0;" x1="780.25" x2="780.25" y1="1016.8994" y2="1008.8994"/><ellipse cx="780.25" cy="1022.8994" fill="none" rx="4" ry="4" style="stroke:#181818;stroke-width:1.0;"/><line style="stroke:#181818;stroke-width:1.0;" x1="514.45" x2="506.45" y1="1197.6094" y2="1203.6094"/><line style="stroke:#181818;stroke-width:1.0;" x1="514.45" x2="506.45" y1="1197.6094" y2="1191.6094"/><line style="stroke:#181818;stroke-width:1.0;" x1="514.45" x2="506.45" y1="1197.6094" y2="1197.6094"/><ellipse cx="520.45" cy="1197.6094" fill="none" rx="4" ry="4" style="stroke:#181818;stroke-width:1.0;"/></g><!--link requirement to document--><g id="link_requirement_document"><path codeLine="144" d="M838,1026.7494 C838,1064.8994 838,1074.6094 838,1074.6094 C838,1074.6094 983.78,1074.6094 1092.22,1074.6094 " fill="none" id="requirement-document" style="stroke:#181818;stroke-width:1.0;"/><line style="stroke:#181818;stroke-width:1.0;" x1="838" x2="832" y1="1016.7494" y2="1008.7494"/><line style="stroke:#181818;stroke-width:1.0;" x1="838" x2="844" y1="1016.7494" y2="1008.7494"/><line style="stroke:#181818;stroke-width:1.0;" x1="838" x2="838" y1="1016.7494" y2="1008.7494"/><ellipse cx="838" cy="1022.7494" fill="none" rx="4" ry="4" style="stroke:#181818;stroke-width:1.0;"/><line style="stroke:#181818;stroke-width:1.0;" x1="1102.22" x2="1110.22" y1="1074.6094" y2="1068.6094"/><line style="stroke:#181818;stroke-width:1.0;" x1="1102.22" x2="1110.22" y1="1074.6094" y2="1080.6094"/><line style="stroke:#181818;stroke-width:1.0;" x1="1102.22" x2="1110.22" y1="1074.6094" y2="1074.6094"/><ellipse cx="1096.22" cy="1074.6094" fill="none" rx="4" ry="4" style="stroke:#181818;stroke-width:1.0;"/></g><!--link document_observer_requirement to document--><g id="link_document_observer_requirement_document"><path codeLine="147" d="M1204,457.1194 C1204,573.0194 1204,888.7094 1204,1060.5294 " fill="none" id="document_observer_requirement-document" style="stroke:#181818;stroke-width:1.0;"/><line style="stroke:#181818;stroke-width:1.0;" x1="1204" x2="1198" y1="447.1194" y2="439.1194"/><line style="stroke:#181818;stroke-width:1.0;" x1="1204" x2="1210" y1="447.1194" y2="439.1194"/><line style="stroke:#181818;stroke-width:1.0;" x1="1204" x2="1204" y1="447.1194" y2="439.1194"/><ellipse cx="1204" cy="453.1194" fill="none" rx="4" ry="4" style="stroke:#181818;stroke-width:1.0;"/><line style="stroke:#181818;stroke-width:1.0;" x1="1208" x2="1200" y1="1064.5294" y2="1064.5294"/><line style="stroke:#181818;stroke-width:1.0;" x1="1208" x2="1200" y1="1061.5294" y2="1061.5294"/><line style="stroke:#181818;stroke-width:1.0;" x1="1204" x2="1204" y1="1060.5294" y2="1068.5294"/></g><!--link document_observer_requirement to requirement--><g id="link_document_observer_requirement_requirement"><path codeLine="148" d="M1100.5,457.1494 C1100.5,556.2994 1100.5,789.6094 1100.5,789.6094 C1100.5,789.6094 1031.94,789.6094 961.52,789.6094 " fill="none" id="document_observer_requirement-requirement" style="stroke:#181818;stroke-width:1.0;"/><line style="stroke:#181818;stroke-width:1.0;" x1="1100.5" x2="1094.5" y1="447.1494" y2="439.1494"/><line style="stroke:#181818;stroke-width:1.0;" x1="1100.5" x2="1106.5" y1="447.1494" y2="439.1494"/><line style="stroke:#181818;stroke-width:1.0;" x1="1100.5" x2="1100.5" y1="447.1494" y2="439.1494"/><ellipse cx="1100.5" cy="453.1494" fill="none" rx="4" ry="4" style="stroke:#181818;stroke-width:1.0;"/><line style="stroke:#181818;stroke-width:1.0;" x1="957.52" x2="957.52" y1="793.6094" y2="785.6094"/><line style="stroke:#181818;stroke-width:1.0;" x1="960.52" x2="960.52" y1="793.6094" y2="785.6094"/><line style="stroke:#181818;stroke-width:1.0;" x1="961.52" x2="953.52" y1="789.6094" y2="789.6094"/></g><!--link stakeholder_observer_requirement to stakeholder--><g id="link_stakeholder_observer_requirement_stakeholder"><path codeLine="151" d="M422,457.1194 C422,577.0894 422,912.9894 422,1077.9894 " fill="none" id="stakeholder_observer_requirement-stakeholder" style="stroke:#181818;stroke-width:1.0;"/><line style="stroke:#181818;stroke-width:1.0;" x1="422" x2="416" y1="447.1194" y2="439.1194"/><line style="stroke:#181818;stroke-width:1.0;" x1="422" x2="428" y1="447.1194" y2="439.1194"/><line style="stroke:#181818;stroke-width:1.0;" x1="422" x2="422" y1="447.1194" y2="439.1194"/><ellipse cx="422" cy="453.1194" fill="none" rx="4" ry="4" style="stroke:#181818;stroke-width:1.0;"/><line style="stroke:#181818;stroke-width:1.0;" x1="426" x2="418" y1="1081.9894" y2="1081.9894"/><line style="stroke:#181818;stroke-width:1.0;" x1="426" x2="418" y1="1078.9894" y2="1078.9894"/><line style="stroke:#181818;stroke-width:1.0;" x1="422" x2="422" y1="1077.9894" y2="1085.9894"/></g><!--link stakeholder_observer_requirement to requirement--><g id="link_stakeholder_observer_requirement_requirement"><path codeLine="152" d="M521,457.1494 C521,556.2994 521,789.6094 521,789.6094 C521,789.6094 623.65,789.6094 714.21,789.6094 " fill="none" id="stakeholder_observer_requirement-requirement" style="stroke:#181818;stroke-width:1.0;"/><line style="stroke:#181818;stroke-width:1.0;" x1="521" x2="515" y1="447.1494" y2="439.1494"/><line style="stroke:#181818;stroke-width:1.0;" x1="521" x2="527" y1="447.1494" y2="439.1494"/><line style="stroke:#181818;stroke-width:1.0;" x1="521" x2="521" y1="447.1494" y2="439.1494"/><ellipse cx="521" cy="453.1494" fill="none" rx="4" ry="4" style="stroke:#181818;stroke-width:1.0;"/><line style="stroke:#181818;stroke-width:1.0;" x1="718.21" x2="718.21" y1="785.6094" y2="793.6094"/><line style="stroke:#181818;stroke-width:1.0;" x1="715.21" x2="715.21" y1="785.6094" y2="793.6094"/><line style="stroke:#181818;stroke-width:1.0;" x1="714.21" x2="722.21" y1="789.6094" y2="789.6094"/></g><!--link requirement_observing to requirement--><g id="link_requirement_observing_requirement"><path codeLine="155" d="M917.33,457.4594 C917.33,489.5494 917.33,511.4294 917.33,561.5294 " fill="none" id="requirement_observing-requirement" style="stroke:#181818;stroke-width:1.0;"/><line style="stroke:#181818;stroke-width:1.0;" x1="917.33" x2="911.33" y1="447.4594" y2="439.4594"/><line style="stroke:#181818;stroke-width:1.0;" x1="917.33" x2="923.33" y1="447.4594" y2="439.4594"/><line style="stroke:#181818;stroke-width:1.0;" x1="917.33" x2="917.33" y1="447.4594" y2="439.4594"/><ellipse cx="917.33" cy="453.4594" fill="none" rx="4" ry="4" style="stroke:#181818;stroke-width:1.0;"/><line style="stroke:#181818;stroke-width:1.0;" x1="921.33" x2="913.33" y1="565.5294" y2="565.5294"/><line style="stroke:#181818;stroke-width:1.0;" x1="921.33" x2="913.33" y1="562.5294" y2="562.5294"/><line style="stroke:#181818;stroke-width:1.0;" x1="917.33" x2="917.33" y1="561.5294" y2="569.5294"/><text fill="#000000" font-family="sans-serif" font-size="13" lengthAdjust="spacing" textLength="48" x="868.33" y="500.9945">observer</text></g><!--link requirement_observing to requirement--><g id="link_requirement_observing_requirement"><path codeLine="156" d="M881.17,457.4594 C881.17,489.5494 881.17,511.4294 881.17,561.5294 " fill="none" id="requirement_observing-requirement-1" style="stroke:#181818;stroke-width:1.0;"/><line style="stroke:#181818;stroke-width:1.0;" x1="881.17" x2="875.17" y1="447.4594" y2="439.4594"/><line style="stroke:#181818;stroke-width:1.0;" x1="881.17" x2="887.17" y1="447.4594" y2="439.4594"/><line style="stroke:#181818;stroke-width:1.0;" x1="881.17" x2="881.17" y1="447.4594" y2="439.4594"/><ellipse cx="881.17" cy="453.4594" fill="none" rx="4" ry="4" style="stroke:#181818;stroke-width:1.0;"/><line style="stroke:#181818;stroke-width:1.0;" x1="885.17" x2="877.17" y1="565.5294" y2="565.5294"/><line style="stroke:#181818;stroke-width:1.0;" x1="885.17" x2="877.17" y1="562.5294" y2="562.5294"/><line style="stroke:#181818;stroke-width:1.0;" x1="881.17" x2="881.17" y1="561.5294" y2="569.5294"/><text fill="#000000" font-family="sans-serif" font-size="13" lengthAdjust="spacing" textLength="51" x="829.17" y="518.9945">observed</text></g><!--link app_user to entity_lock--><g id="link_app_user_entity_lock"><path codeLine="159" d="M124,237.6094 C124,256.9294 124,251.4894 124,271.3894 " fill="none" id="app_user-entity_lock" style="stroke:#181818;stroke-width:1.0;"/><line style="stroke:#181818;stroke-width:1.0;" x1="120" x2="128" y1="233.6094" y2="233.6094"/><line style="stroke:#181818;stroke-width:1.0;" x1="120" x2="128" y1="236.6094" y2="236.6094"/><line style="stroke:#181818;stroke-width:1.0;" x1="124" x2="124" y1="237.6094" y2="229.6094"/><line style="stroke:#181818;stroke-width:1.0;" x1="124" x2="130" y1="281.3894" y2="289.3894"/><line style="stroke:#181818;stroke-width:1.0;" x1="124" x2="118" y1="281.3894" y2="289.3894"/><line style="stroke:#181818;stroke-width:1.0;" x1="124" x2="124" y1="281.3894" y2="289.3894"/><ellipse cx="124" cy="275.3894" fill="none" rx="4" ry="4" style="stroke:#181818;stroke-width:1.0;"/></g><!--SRC=[hLPBRzim3BxxL-Ys1vhJRaFNmz05608KNO2U1TbcOowov4boYgpfVnyjnwxyIjnclYGcFv8VAPAoGoU1VHV95bJAReKJiR30rY25Gws4PBSeDaRaKPHX2Yn1aqY8x1PL8KZC92fm-mAODYxJKGJAeTipKHIyj63OSyJe-SmmPLzPZ1jKZbrVtwzkRhnYiV0_a0kK1DW9asJ24EBXxkUlXnz7b18vJ6jjQRe0BnM9mrqbZBMM89GNekKYpL7rnDhikISu4Q6Wug3QSE_J5uOxJHKBGhwqgHT6_uR4pSpyT6efsCHWKKNifMUTS9KXg3AlEHhKXk9pw_QoeqaC43Rbmf7KOGvacnS1uyTI9VLfLsypJyoRKjMgFuz89ztbTwm2xtfPhaPFr8kaY47sP3FpVqt5m9yI3UJqEZEHm8BxHgvzVbokh-wMwq__CUTEcQT0D5KLan7jLDrcrgZJ94DWZ78eroO5mtT2bj3IgHtb86ZiwggL2btVi00Zd3PX6zBmb4Astb9TnhH9AeqJPWDkL9CPi9cMQL_PJ7CpcGPs24_1M5DBD3r1sMsXSZ9_7Rt_e2yyfO1sgfFo3NryAUT7bC17YEUqC9h12EKUR_5lq1a-cozy2_iJoteYsoDzgPFjMnFk4ZYAUuph3KFEXtjmgZfUNjrXaoMpU-iWvq_LnJZQUU5kqJ6vsb6ljkdLae7_-zLLkmrQK3e16kaNtleTMuOjwbJGaFVPkC5udGuT0Y-F_e5zctv8stp2s0mBUmOTDNVsuR1OwEVkfkuh0tfzLP1XNzNKdPXthziHhr4Kbcy8e9BKrqGF-Q87B4RK0PFJBLFX3uTN_2nqDu-plN6q2YdFjPciM31gGoZLhd7w3fkK8hMVjiU32JPN5Fq3]--></g></svg>