<?xml version="1.0" encoding="us-ascii" standalone="no"?><svg xmlns="http://www.w3.org/2000/svg" xmlns:xlink="http://www.w3.org/1999/xlink" contentStyleType="text/css" height="849px" preserveAspectRatio="none" style="width:1345px;height:849px;background:#FFFFFF;" version="1.1" viewBox="0 0 1345 849" width="1345px" zoomAndPan="magnify"><defs/><g><text fill="#000000" font-family="sans-serif" font-size="14" font-weight="bold" lengthAdjust="spacing" textLength="164" x="583.5" y="24.5332">Backend Class Diagram</text><!--class PriorityStyle--><g id="elem_PriorityStyle"><rect codeLine="3" fill="#F1F1F1" height="83.2188" id="PriorityStyle" rx="2.5" ry="2.5" style="stroke:#181818;stroke-width:0.5;" width="107" x="540" y="553.1094"/><ellipse cx="555" cy="569.1094" fill="#EB937F" rx="11" ry="11" style="stroke:#181818;stroke-width:1.0;"/><path d="M553.8594,569.9063 L553.8594,572.4063 L558.1875,572.4063 L558.1875,571.4844 Q558.1875,570.875 558.4219,570.6094 Q558.6719,570.3438 559.0469,570.3438 Q559.4219,570.3438 559.6563,570.6094 Q559.8906,570.875 559.8906,571.4844 L559.8906,574.1094 L551.8906,574.1094 Q551.2656,574.1094 551,573.875 Q550.75,573.6406 550.75,573.25 Q550.75,572.875 551.0156,572.6406 Q551.2813,572.4063 551.8906,572.4063 L552.1563,572.4063 L552.1563,565.75 L551.8906,565.75 Q551.2656,565.75 551,565.5156 Q550.75,565.2813 550.75,564.8906 Q550.75,564.5156 551,564.2813 Q551.2656,564.0469 551.8906,564.0469 L559.5156,564.0469 L559.5156,566.6406 Q559.5156,567.25 559.2813,567.5156 Q559.0625,567.7656 558.6719,567.7656 Q558.2969,567.7656 558.0625,567.5156 Q557.8281,567.25 557.8281,566.6406 L557.8281,565.75 L553.8594,565.75 L553.8594,568.2031 L555.3438,568.2031 Q555.3438,567.5469 555.4688,567.3594 Q555.7344,566.9531 556.2031,566.9531 Q556.5781,566.9531 556.8125,567.2188 Q557.0469,567.4688 557.0469,568.0781 L557.0469,570.0469 Q557.0469,570.5938 556.9219,570.7813 Q556.6563,571.1719 556.2031,571.1719 Q555.7344,571.1719 555.4688,570.7656 Q555.3438,570.5781 555.3438,569.9063 L553.8594,569.9063 Z " fill="#000000"/><text fill="#000000" font-family="sans-serif" font-size="14" lengthAdjust="spacing" textLength="75" x="569" y="574.8379">PriorityStyle</text><line style="stroke:#181818;stroke-width:0.5;" x1="541" x2="646" y1="585.1094" y2="585.1094"/><text fill="#000000" font-family="sans-serif" font-size="14" lengthAdjust="spacing" textLength="65" x="546" y="603.6426">TERNARY</text><text fill="#000000" font-family="sans-serif" font-size="14" lengthAdjust="spacing" textLength="65" x="546" y="621.252">MOSCOW</text><line style="stroke:#181818;stroke-width:0.5;" x1="541" x2="646" y1="628.3281" y2="628.3281"/></g><!--class ProjectState--><g id="elem_ProjectState"><rect codeLine="8" fill="#F1F1F1" height="118.4375" id="ProjectState" rx="2.5" ry="2.5" style="stroke:#181818;stroke-width:0.5;" width="109" x="871" y="304.1094"/><ellipse cx="886" cy="320.1094" fill="#EB937F" rx="11" ry="11" style="stroke:#181818;stroke-width:1.0;"/><path d="M884.8594,320.9063 L884.8594,323.4063 L889.1875,323.4063 L889.1875,322.4844 Q889.1875,321.875 889.4219,321.6094 Q889.6719,321.3438 890.0469,321.3438 Q890.4219,321.3438 890.6563,321.6094 Q890.8906,321.875 890.8906,322.4844 L890.8906,325.1094 L882.8906,325.1094 Q882.2656,325.1094 882,324.875 Q881.75,324.6406 881.75,324.25 Q881.75,323.875 882.0156,323.6406 Q882.2813,323.4063 882.8906,323.4063 L883.1563,323.4063 L883.1563,316.75 L882.8906,316.75 Q882.2656,316.75 882,316.5156 Q881.75,316.2813 881.75,315.8906 Q881.75,315.5156 882,315.2813 Q882.2656,315.0469 882.8906,315.0469 L890.5156,315.0469 L890.5156,317.6406 Q890.5156,318.25 890.2813,318.5156 Q890.0625,318.7656 889.6719,318.7656 Q889.2969,318.7656 889.0625,318.5156 Q888.8281,318.25 888.8281,317.6406 L888.8281,316.75 L884.8594,316.75 L884.8594,319.2031 L886.3438,319.2031 Q886.3438,318.5469 886.4688,318.3594 Q886.7344,317.9531 887.2031,317.9531 Q887.5781,317.9531 887.8125,318.2188 Q888.0469,318.4688 888.0469,319.0781 L888.0469,321.0469 Q888.0469,321.5938 887.9219,321.7813 Q887.6563,322.1719 887.2031,322.1719 Q886.7344,322.1719 886.4688,321.7656 Q886.3438,321.5781 886.3438,320.9063 L884.8594,320.9063 Z " fill="#000000"/><text fill="#000000" font-family="sans-serif" font-size="14" lengthAdjust="spacing" textLength="77" x="900" y="325.8379">ProjectState</text><line style="stroke:#181818;stroke-width:0.5;" x1="872" x2="979" y1="336.1094" y2="336.1094"/><text fill="#000000" font-family="sans-serif" font-size="14" lengthAdjust="spacing" textLength="49" x="877" y="354.6426">ACTIVE</text><text fill="#000000" font-family="sans-serif" font-size="14" lengthAdjust="spacing" textLength="61" x="877" y="372.252">FINISHED</text><text fill="#000000" font-family="sans-serif" font-size="14" lengthAdjust="spacing" textLength="96" x="877" y="389.8613">DEACTIVATED</text><text fill="#000000" font-family="sans-serif" font-size="14" lengthAdjust="spacing" textLength="69" x="877" y="407.4707">REMOVED</text><line style="stroke:#181818;stroke-width:0.5;" x1="872" x2="979" y1="414.5469" y2="414.5469"/></g><!--class FunctionalityState--><g id="elem_FunctionalityState"><rect codeLine="15" fill="#F1F1F1" height="100.8281" id="FunctionalityState" rx="2.5" ry="2.5" style="stroke:#181818;stroke-width:0.5;" width="145" x="225" y="732.1094"/><ellipse cx="240" cy="748.1094" fill="#EB937F" rx="11" ry="11" style="stroke:#181818;stroke-width:1.0;"/><path d="M238.8594,748.9063 L238.8594,751.4063 L243.1875,751.4063 L243.1875,750.4844 Q243.1875,749.875 243.4219,749.6094 Q243.6719,749.3438 244.0469,749.3438 Q244.4219,749.3438 244.6563,749.6094 Q244.8906,749.875 244.8906,750.4844 L244.8906,753.1094 L236.8906,753.1094 Q236.2656,753.1094 236,752.875 Q235.75,752.6406 235.75,752.25 Q235.75,751.875 236.0156,751.6406 Q236.2813,751.4063 236.8906,751.4063 L237.1563,751.4063 L237.1563,744.75 L236.8906,744.75 Q236.2656,744.75 236,744.5156 Q235.75,744.2813 235.75,743.8906 Q235.75,743.5156 236,743.2813 Q236.2656,743.0469 236.8906,743.0469 L244.5156,743.0469 L244.5156,745.6406 Q244.5156,746.25 244.2813,746.5156 Q244.0625,746.7656 243.6719,746.7656 Q243.2969,746.7656 243.0625,746.5156 Q242.8281,746.25 242.8281,745.6406 L242.8281,744.75 L238.8594,744.75 L238.8594,747.2031 L240.3438,747.2031 Q240.3438,746.5469 240.4688,746.3594 Q240.7344,745.9531 241.2031,745.9531 Q241.5781,745.9531 241.8125,746.2188 Q242.0469,746.4688 242.0469,747.0781 L242.0469,749.0469 Q242.0469,749.5938 241.9219,749.7813 Q241.6563,750.1719 241.2031,750.1719 Q240.7344,750.1719 240.4688,749.7656 Q240.3438,749.5781 240.3438,748.9063 L238.8594,748.9063 Z " fill="#000000"/><text fill="#000000" font-family="sans-serif" font-size="14" lengthAdjust="spacing" textLength="113" x="254" y="753.8379">FunctionalityState</text><line style="stroke:#181818;stroke-width:0.5;" x1="226" x2="369" y1="764.1094" y2="764.1094"/><text fill="#000000" font-family="sans-serif" font-size="14" lengthAdjust="spacing" textLength="49" x="231" y="782.6426">ACTIVE</text><text fill="#000000" font-family="sans-serif" font-size="14" lengthAdjust="spacing" textLength="96" x="231" y="800.252">DEACTIVATED</text><text fill="#000000" font-family="sans-serif" font-size="14" lengthAdjust="spacing" textLength="69" x="231" y="817.8613">REMOVED</text><line style="stroke:#181818;stroke-width:0.5;" x1="226" x2="369" y1="824.9375" y2="824.9375"/></g><!--class EntityState--><g id="elem_EntityState"><rect codeLine="20" fill="#F1F1F1" height="118.4375" id="EntityState" rx="2.5" ry="2.5" style="stroke:#181818;stroke-width:0.5;" width="154" x="945.5" y="723.6094"/><ellipse cx="984.8" cy="739.6094" fill="#EB937F" rx="11" ry="11" style="stroke:#181818;stroke-width:1.0;"/><path d="M983.6594,740.4063 L983.6594,742.9063 L987.9875,742.9063 L987.9875,741.9844 Q987.9875,741.375 988.2219,741.1094 Q988.4719,740.8438 988.8469,740.8438 Q989.2219,740.8438 989.4563,741.1094 Q989.6906,741.375 989.6906,741.9844 L989.6906,744.6094 L981.6906,744.6094 Q981.0656,744.6094 980.8,744.375 Q980.55,744.1406 980.55,743.75 Q980.55,743.375 980.8156,743.1406 Q981.0813,742.9063 981.6906,742.9063 L981.9563,742.9063 L981.9563,736.25 L981.6906,736.25 Q981.0656,736.25 980.8,736.0156 Q980.55,735.7813 980.55,735.3906 Q980.55,735.0156 980.8,734.7813 Q981.0656,734.5469 981.6906,734.5469 L989.3156,734.5469 L989.3156,737.1406 Q989.3156,737.75 989.0813,738.0156 Q988.8625,738.2656 988.4719,738.2656 Q988.0969,738.2656 987.8625,738.0156 Q987.6281,737.75 987.6281,737.1406 L987.6281,736.25 L983.6594,736.25 L983.6594,738.7031 L985.1438,738.7031 Q985.1438,738.0469 985.2688,737.8594 Q985.5344,737.4531 986.0031,737.4531 Q986.3781,737.4531 986.6125,737.7188 Q986.8469,737.9688 986.8469,738.5781 L986.8469,740.5469 Q986.8469,741.0938 986.7219,741.2813 Q986.4563,741.6719 986.0031,741.6719 Q985.5344,741.6719 985.2688,741.2656 Q985.1438,741.0781 985.1438,740.4063 L983.6594,740.4063 Z " fill="#000000"/><text fill="#000000" font-family="sans-serif" font-size="14" lengthAdjust="spacing" textLength="68" x="1004.2" y="745.3379">EntityState</text><line style="stroke:#181818;stroke-width:0.5;" x1="946.5" x2="1098.5" y1="755.6094" y2="755.6094"/><text fill="#000000" font-family="sans-serif" font-size="14" lengthAdjust="spacing" textLength="142" x="951.5" y="774.1426">PENDING_APPROVAL</text><text fill="#000000" font-family="sans-serif" font-size="14" lengthAdjust="spacing" textLength="76" x="951.5" y="791.752">APPROVED</text><text fill="#000000" font-family="sans-serif" font-size="14" lengthAdjust="spacing" textLength="96" x="951.5" y="809.3613">DEACTIVATED</text><text fill="#000000" font-family="sans-serif" font-size="14" lengthAdjust="spacing" textLength="69" x="951.5" y="826.9707">REMOVED</text><line style="stroke:#181818;stroke-width:0.5;" x1="946.5" x2="1098.5" y1="834.0469" y2="834.0469"/></g><!--class RequirementState--><g id="elem_RequirementState"><rect codeLine="27" fill="#F1F1F1" height="136.0469" id="RequirementState" rx="2.5" ry="2.5" style="stroke:#181818;stroke-width:0.5;" width="154" x="682.5" y="526.6094"/><ellipse cx="701.1" cy="542.6094" fill="#EB937F" rx="11" ry="11" style="stroke:#181818;stroke-width:1.0;"/><path d="M699.9594,543.4063 L699.9594,545.9063 L704.2875,545.9063 L704.2875,544.9844 Q704.2875,544.375 704.5219,544.1094 Q704.7719,543.8438 705.1469,543.8438 Q705.5219,543.8438 705.7563,544.1094 Q705.9906,544.375 705.9906,544.9844 L705.9906,547.6094 L697.9906,547.6094 Q697.3656,547.6094 697.1,547.375 Q696.85,547.1406 696.85,546.75 Q696.85,546.375 697.1156,546.1406 Q697.3813,545.9063 697.9906,545.9063 L698.2563,545.9063 L698.2563,539.25 L697.9906,539.25 Q697.3656,539.25 697.1,539.0156 Q696.85,538.7813 696.85,538.3906 Q696.85,538.0156 697.1,537.7813 Q697.3656,537.5469 697.9906,537.5469 L705.6156,537.5469 L705.6156,540.1406 Q705.6156,540.75 705.3813,541.0156 Q705.1625,541.2656 704.7719,541.2656 Q704.3969,541.2656 704.1625,541.0156 Q703.9281,540.75 703.9281,540.1406 L703.9281,539.25 L699.9594,539.25 L699.9594,541.7031 L701.4438,541.7031 Q701.4438,541.0469 701.5688,540.8594 Q701.8344,540.4531 702.3031,540.4531 Q702.6781,540.4531 702.9125,540.7188 Q703.1469,540.9688 703.1469,541.5781 L703.1469,543.5469 Q703.1469,544.0938 703.0219,544.2813 Q702.7563,544.6719 702.3031,544.6719 Q701.8344,544.6719 701.5688,544.2656 Q701.4438,544.0781 701.4438,543.4063 L699.9594,543.4063 Z " fill="#000000"/><text fill="#000000" font-family="sans-serif" font-size="14" lengthAdjust="spacing" textLength="114" x="715.9" y="548.3379">RequirementState</text><line style="stroke:#181818;stroke-width:0.5;" x1="683.5" x2="835.5" y1="558.6094" y2="558.6094"/><text fill="#000000" font-family="sans-serif" font-size="14" lengthAdjust="spacing" textLength="142" x="688.5" y="577.1426">PENDING_APPROVAL</text><text fill="#000000" font-family="sans-serif" font-size="14" lengthAdjust="spacing" textLength="61" x="688.5" y="594.752">FINISHED</text><text fill="#000000" font-family="sans-serif" font-size="14" lengthAdjust="spacing" textLength="76" x="688.5" y="612.3613">APPROVED</text><text fill="#000000" font-family="sans-serif" font-size="14" lengthAdjust="spacing" textLength="96" x="688.5" y="629.9707">DEACTIVATED</text><text fill="#000000" font-family="sans-serif" font-size="14" lengthAdjust="spacing" textLength="69" x="688.5" y="647.5801">REMOVED</text><line style="stroke:#181818;stroke-width:0.5;" x1="683.5" x2="835.5" y1="654.6563" y2="654.6563"/></g><!--class ComparisonOperator--><g id="elem_ComparisonOperator"><rect codeLine="35" fill="#F1F1F1" height="100.8281" id="ComparisonOperator" rx="2.5" ry="2.5" style="stroke:#181818;stroke-width:0.5;" width="165" x="25" y="732.1094"/><ellipse cx="40" cy="748.1094" fill="#EB937F" rx="11" ry="11" style="stroke:#181818;stroke-width:1.0;"/><path d="M38.8594,748.9063 L38.8594,751.4063 L43.1875,751.4063 L43.1875,750.4844 Q43.1875,749.875 43.4219,749.6094 Q43.6719,749.3438 44.0469,749.3438 Q44.4219,749.3438 44.6563,749.6094 Q44.8906,749.875 44.8906,750.4844 L44.8906,753.1094 L36.8906,753.1094 Q36.2656,753.1094 36,752.875 Q35.75,752.6406 35.75,752.25 Q35.75,751.875 36.0156,751.6406 Q36.2813,751.4063 36.8906,751.4063 L37.1563,751.4063 L37.1563,744.75 L36.8906,744.75 Q36.2656,744.75 36,744.5156 Q35.75,744.2813 35.75,743.8906 Q35.75,743.5156 36,743.2813 Q36.2656,743.0469 36.8906,743.0469 L44.5156,743.0469 L44.5156,745.6406 Q44.5156,746.25 44.2813,746.5156 Q44.0625,746.7656 43.6719,746.7656 Q43.2969,746.7656 43.0625,746.5156 Q42.8281,746.25 42.8281,745.6406 L42.8281,744.75 L38.8594,744.75 L38.8594,747.2031 L40.3438,747.2031 Q40.3438,746.5469 40.4688,746.3594 Q40.7344,745.9531 41.2031,745.9531 Q41.5781,745.9531 41.8125,746.2188 Q42.0469,746.4688 42.0469,747.0781 L42.0469,749.0469 Q42.0469,749.5938 41.9219,749.7813 Q41.6563,750.1719 41.2031,750.1719 Q40.7344,750.1719 40.4688,749.7656 Q40.3438,749.5781 40.3438,748.9063 L38.8594,748.9063 Z " fill="#000000"/><text fill="#000000" font-family="sans-serif" font-size="14" lengthAdjust="spacing" textLength="133" x="54" y="753.8379">ComparisonOperator</text><line style="stroke:#181818;stroke-width:0.5;" x1="26" x2="189" y1="764.1094" y2="764.1094"/><text fill="#000000" font-family="sans-serif" font-size="14" lengthAdjust="spacing" textLength="74" x="31" y="782.6426">EQUAL_TO</text><text fill="#000000" font-family="sans-serif" font-size="14" lengthAdjust="spacing" textLength="79" x="31" y="800.252">LESS_THAN</text><text fill="#000000" font-family="sans-serif" font-size="14" lengthAdjust="spacing" textLength="111" x="31" y="817.8613">GREATER_THAN</text><line style="stroke:#181818;stroke-width:0.5;" x1="26" x2="189" y1="824.9375" y2="824.9375"/></g><!--class Project--><g id="elem_Project"><rect codeLine="41" fill="#F1F1F1" height="153.6563" id="Project" rx="2.5" ry="2.5" style="stroke:#181818;stroke-width:0.5;" width="186" x="832.5" y="45.6094"/><ellipse cx="899.25" cy="61.6094" fill="#ADD1B2" rx="11" ry="11" style="stroke:#181818;stroke-width:1.0;"/><path d="M902.0156,57.4844 Q902.1719,57.2656 902.3594,57.1563 Q902.5469,57.0469 902.7656,57.0469 Q903.1406,57.0469 903.375,57.3125 Q903.6094,57.5625 903.6094,58.1719 L903.6094,59.625 Q903.6094,60.2344 903.375,60.5 Q903.1406,60.7656 902.7656,60.7656 Q902.4219,60.7656 902.2188,60.5625 Q902.0156,60.375 901.9063,59.8594 Q901.8594,59.5 901.6719,59.3125 Q901.3438,58.9375 900.7344,58.7188 Q900.125,58.5 899.5,58.5 Q898.7344,58.5 898.0938,58.8281 Q897.4688,59.1563 896.9688,59.9063 Q896.4844,60.6563 896.4844,61.6875 L896.4844,62.7813 Q896.4844,64.0156 897.375,64.8438 Q898.2656,65.6563 899.8594,65.6563 Q900.7969,65.6563 901.4531,65.4063 Q901.8438,65.25 902.2656,64.8125 Q902.5313,64.5469 902.6719,64.4688 Q902.8281,64.3906 903.0313,64.3906 Q903.3594,64.3906 903.6094,64.6563 Q903.875,64.9063 903.875,65.25 Q903.875,65.5938 903.5313,66 Q903.0313,66.5781 902.2344,66.9063 Q901.1563,67.3594 899.8594,67.3594 Q898.3438,67.3594 897.1406,66.7344 Q896.1563,66.2344 895.4688,65.1719 Q894.7813,64.0938 894.7813,62.8125 L894.7813,61.6563 Q894.7813,60.3281 895.3906,59.1875 Q896.0156,58.0313 897.1094,57.4219 Q898.2031,56.7969 899.4375,56.7969 Q900.1719,56.7969 900.8125,56.9688 Q901.4688,57.125 902.0156,57.4844 Z " fill="#000000"/><text fill="#000000" font-family="sans-serif" font-size="14" lengthAdjust="spacing" textLength="44" x="919.75" y="67.3379">Project</text><line style="stroke:#181818;stroke-width:0.5;" x1="833.5" x2="1017.5" y1="77.6094" y2="77.6094"/><rect fill="none" height="6" style="stroke:#C82930;stroke-width:1.0;" width="6" x="840.5" y="88.9141"/><text fill="#000000" font-family="sans-serif" font-size="14" lengthAdjust="spacing" textLength="42" x="852.5" y="96.1426">long id</text><rect fill="none" height="6" style="stroke:#C82930;stroke-width:1.0;" width="6" x="840.5" y="106.5234"/><text fill="#000000" font-family="sans-serif" font-size="14" lengthAdjust="spacing" textLength="76" x="852.5" y="113.752">String name</text><rect fill="none" height="6" style="stroke:#C82930;stroke-width:1.0;" width="6" x="840.5" y="124.1328"/><text fill="#000000" font-family="sans-serif" font-size="14" lengthAdjust="spacing" textLength="110" x="852.5" y="131.3613">String description</text><rect fill="none" height="6" style="stroke:#C82930;stroke-width:1.0;" width="6" x="840.5" y="141.7422"/><text fill="#000000" font-family="sans-serif" font-size="14" lengthAdjust="spacing" textLength="153" x="852.5" y="148.9707">PriorityStyle priorityStyle</text><rect fill="none" height="6" style="stroke:#C82930;stroke-width:1.0;" width="6" x="840.5" y="159.3516"/><text fill="#000000" font-family="sans-serif" font-size="14" lengthAdjust="spacing" textLength="112" x="852.5" y="166.5801">ProjectState state</text><rect fill="none" height="6" style="stroke:#C82930;stroke-width:1.0;" width="6" x="840.5" y="176.9609"/><text fill="#000000" font-family="sans-serif" font-size="14" lengthAdjust="spacing" textLength="160" x="852.5" y="184.1895">LocalDateTime createdAt</text><line style="stroke:#181818;stroke-width:0.5;" x1="833.5" x2="1017.5" y1="191.2656" y2="191.2656"/></g><!--class Functionality--><g id="elem_Functionality"><rect codeLine="50" fill="#F1F1F1" height="118.4375" id="Functionality" rx="2.5" ry="2.5" style="stroke:#181818;stroke-width:0.5;" width="174" x="259.5" y="535.6094"/><ellipse cx="302.4" cy="551.6094" fill="#ADD1B2" rx="11" ry="11" style="stroke:#181818;stroke-width:1.0;"/><path d="M305.1656,547.4844 Q305.3219,547.2656 305.5094,547.1563 Q305.6969,547.0469 305.9156,547.0469 Q306.2906,547.0469 306.525,547.3125 Q306.7594,547.5625 306.7594,548.1719 L306.7594,549.625 Q306.7594,550.2344 306.525,550.5 Q306.2906,550.7656 305.9156,550.7656 Q305.5719,550.7656 305.3688,550.5625 Q305.1656,550.375 305.0563,549.8594 Q305.0094,549.5 304.8219,549.3125 Q304.4938,548.9375 303.8844,548.7188 Q303.275,548.5 302.65,548.5 Q301.8844,548.5 301.2438,548.8281 Q300.6188,549.1563 300.1188,549.9063 Q299.6344,550.6563 299.6344,551.6875 L299.6344,552.7813 Q299.6344,554.0156 300.525,554.8438 Q301.4156,555.6563 303.0094,555.6563 Q303.9469,555.6563 304.6031,555.4063 Q304.9938,555.25 305.4156,554.8125 Q305.6813,554.5469 305.8219,554.4688 Q305.9781,554.3906 306.1813,554.3906 Q306.5094,554.3906 306.7594,554.6563 Q307.025,554.9063 307.025,555.25 Q307.025,555.5938 306.6813,556 Q306.1813,556.5781 305.3844,556.9063 Q304.3063,557.3594 303.0094,557.3594 Q301.4938,557.3594 300.2906,556.7344 Q299.3063,556.2344 298.6188,555.1719 Q297.9313,554.0938 297.9313,552.8125 L297.9313,551.6563 Q297.9313,550.3281 298.5406,549.1875 Q299.1656,548.0313 300.2594,547.4219 Q301.3531,546.7969 302.5875,546.7969 Q303.3219,546.7969 303.9625,546.9688 Q304.6188,547.125 305.1656,547.4844 Z " fill="#000000"/><text fill="#000000" font-family="sans-serif" font-size="14" lengthAdjust="spacing" textLength="80" x="322.6" y="557.3379">Functionality</text><line style="stroke:#181818;stroke-width:0.5;" x1="260.5" x2="432.5" y1="567.6094" y2="567.6094"/><rect fill="none" height="6" style="stroke:#C82930;stroke-width:1.0;" width="6" x="267.5" y="578.9141"/><text fill="#000000" font-family="sans-serif" font-size="14" lengthAdjust="spacing" textLength="42" x="279.5" y="586.1426">long id</text><rect fill="none" height="6" style="stroke:#C82930;stroke-width:1.0;" width="6" x="267.5" y="596.5234"/><text fill="#000000" font-family="sans-serif" font-size="14" lengthAdjust="spacing" textLength="76" x="279.5" y="603.752">String name</text><rect fill="none" height="6" style="stroke:#C82930;stroke-width:1.0;" width="6" x="267.5" y="614.1328"/><text fill="#000000" font-family="sans-serif" font-size="14" lengthAdjust="spacing" textLength="71" x="279.5" y="621.3613">String label</text><rect fill="none" height="6" style="stroke:#C82930;stroke-width:1.0;" width="6" x="267.5" y="631.7422"/><text fill="#000000" font-family="sans-serif" font-size="14" lengthAdjust="spacing" textLength="148" x="279.5" y="638.9707">FunctionalityState state</text><line style="stroke:#181818;stroke-width:0.5;" x1="260.5" x2="432.5" y1="646.0469" y2="646.0469"/></g><!--class Requirement--><g id="elem_Requirement"><rect codeLine="57" fill="#F1F1F1" height="171.2656" id="Requirement" rx="2.5" ry="2.5" style="stroke:#181818;stroke-width:0.5;" width="189" x="402" y="277.6094"/><ellipse cx="451.75" cy="293.6094" fill="#A9DCDF" rx="11" ry="11" style="stroke:#181818;stroke-width:1.0;"/><path d="M453.9375,295.375 L449.7969,295.375 L449.375,296.4063 L449.7969,296.4063 Q450.4063,296.4063 450.6719,296.6406 Q450.9375,296.875 450.9375,297.2656 Q450.9375,297.6406 450.6719,297.875 Q450.4063,298.1094 449.7969,298.1094 L447.5,298.1094 Q446.8906,298.1094 446.6406,297.875 Q446.375,297.6406 446.375,297.25 Q446.375,296.875 446.6563,296.6406 Q446.9219,296.3906 447.5469,296.4063 L450.2188,289.75 L449.1094,289.75 Q448.5,289.75 448.2344,289.5156 Q447.9688,289.2813 447.9688,288.8906 Q447.9688,288.5156 448.2344,288.2813 Q448.5,288.0469 449.1094,288.0469 L452.7813,288.0469 L456.1719,296.4063 Q456.7656,296.4063 456.9531,296.5469 Q457.3438,296.8125 457.3438,297.2656 Q457.3438,297.6406 457.0781,297.875 Q456.8281,298.1094 456.2188,298.1094 L453.9219,298.1094 Q453.3125,298.1094 453.0469,297.875 Q452.7813,297.6406 452.7813,297.25 Q452.7813,296.875 453.0469,296.6406 Q453.3125,296.4063 453.9219,296.4063 L454.3438,296.4063 L453.9375,295.375 Z M453.2188,293.6719 L451.8594,290.2969 L450.4844,293.6719 L453.2188,293.6719 Z " fill="#000000"/><text fill="#000000" font-family="sans-serif" font-size="14" font-style="italic" lengthAdjust="spacing" textLength="81" x="472.25" y="299.3379">Requirement</text><line style="stroke:#181818;stroke-width:0.5;" x1="403" x2="590" y1="309.6094" y2="309.6094"/><rect fill="none" height="6" style="stroke:#C82930;stroke-width:1.0;" width="6" x="410" y="320.9141"/><text fill="#000000" font-family="sans-serif" font-size="14" lengthAdjust="spacing" textLength="42" x="422" y="328.1426">long id</text><rect fill="none" height="6" style="stroke:#C82930;stroke-width:1.0;" width="6" x="410" y="338.5234"/><text fill="#000000" font-family="sans-serif" font-size="14" lengthAdjust="spacing" textLength="67" x="422" y="345.752">String slug</text><rect fill="none" height="6" style="stroke:#C82930;stroke-width:1.0;" width="6" x="410" y="356.1328"/><text fill="#000000" font-family="sans-serif" font-size="14" lengthAdjust="spacing" textLength="106" x="422" y="363.3613">Float orderValue</text><rect fill="none" height="6" style="stroke:#C82930;stroke-width:1.0;" width="6" x="410" y="373.7422"/><text fill="#000000" font-family="sans-serif" font-size="14" lengthAdjust="spacing" textLength="76" x="422" y="380.9707">String name</text><rect fill="none" height="6" style="stroke:#C82930;stroke-width:1.0;" width="6" x="410" y="391.3516"/><text fill="#000000" font-family="sans-serif" font-size="14" lengthAdjust="spacing" textLength="110" x="422" y="398.5801">String description</text><rect fill="none" height="6" style="stroke:#C82930;stroke-width:1.0;" width="6" x="410" y="408.9609"/><text fill="#000000" font-family="sans-serif" font-size="14" lengthAdjust="spacing" textLength="149" x="422" y="416.1895">RequirementState state</text><rect fill="none" height="6" style="stroke:#C82930;stroke-width:1.0;" width="6" x="410" y="426.5703"/><text fill="#000000" font-family="sans-serif" font-size="14" lengthAdjust="spacing" textLength="163" x="422" y="433.7988">Boolean isPendingReview</text><line style="stroke:#181818;stroke-width:0.5;" x1="403" x2="590" y1="440.875" y2="440.875"/></g><!--class FunctionalRequirement--><g id="elem_FunctionalRequirement"><rect codeLine="67" fill="#F1F1F1" height="83.2188" id="FunctionalRequirement" rx="2.5" ry="2.5" style="stroke:#181818;stroke-width:0.5;" width="179" x="405" y="741.1094"/><ellipse cx="420" cy="757.1094" fill="#ADD1B2" rx="11" ry="11" style="stroke:#181818;stroke-width:1.0;"/><path d="M422.7656,752.9844 Q422.9219,752.7656 423.1094,752.6563 Q423.2969,752.5469 423.5156,752.5469 Q423.8906,752.5469 424.125,752.8125 Q424.3594,753.0625 424.3594,753.6719 L424.3594,755.125 Q424.3594,755.7344 424.125,756 Q423.8906,756.2656 423.5156,756.2656 Q423.1719,756.2656 422.9688,756.0625 Q422.7656,755.875 422.6563,755.3594 Q422.6094,755 422.4219,754.8125 Q422.0938,754.4375 421.4844,754.2188 Q420.875,754 420.25,754 Q419.4844,754 418.8438,754.3281 Q418.2188,754.6563 417.7188,755.4063 Q417.2344,756.1563 417.2344,757.1875 L417.2344,758.2813 Q417.2344,759.5156 418.125,760.3438 Q419.0156,761.1563 420.6094,761.1563 Q421.5469,761.1563 422.2031,760.9063 Q422.5938,760.75 423.0156,760.3125 Q423.2813,760.0469 423.4219,759.9688 Q423.5781,759.8906 423.7813,759.8906 Q424.1094,759.8906 424.3594,760.1563 Q424.625,760.4063 424.625,760.75 Q424.625,761.0938 424.2813,761.5 Q423.7813,762.0781 422.9844,762.4063 Q421.9063,762.8594 420.6094,762.8594 Q419.0938,762.8594 417.8906,762.2344 Q416.9063,761.7344 416.2188,760.6719 Q415.5313,759.5938 415.5313,758.3125 L415.5313,757.1563 Q415.5313,755.8281 416.1406,754.6875 Q416.7656,753.5313 417.8594,752.9219 Q418.9531,752.2969 420.1875,752.2969 Q420.9219,752.2969 421.5625,752.4688 Q422.2188,752.625 422.7656,752.9844 Z " fill="#000000"/><text fill="#000000" font-family="sans-serif" font-size="14" lengthAdjust="spacing" textLength="147" x="434" y="762.8379">FunctionalRequirement</text><line style="stroke:#181818;stroke-width:0.5;" x1="406" x2="583" y1="773.1094" y2="773.1094"/><rect fill="none" height="6" style="stroke:#C82930;stroke-width:1.0;" width="6" x="413" y="784.4141"/><text fill="#000000" font-family="sans-serif" font-size="14" lengthAdjust="spacing" textLength="84" x="425" y="791.6426">String priority</text><rect fill="none" height="6" style="stroke:#C82930;stroke-width:1.0;" width="6" x="413" y="802.0234"/><text fill="#000000" font-family="sans-serif" font-size="14" lengthAdjust="spacing" textLength="88" x="425" y="809.252">String stability</text><line style="stroke:#181818;stroke-width:0.5;" x1="406" x2="583" y1="816.3281" y2="816.3281"/></g><!--class NonFunctionalRequirement--><g id="elem_NonFunctionalRequirement"><rect codeLine="72" fill="#F1F1F1" height="136.0469" id="NonFunctionalRequirement" rx="2.5" ry="2.5" style="stroke:#181818;stroke-width:0.5;" width="217" x="7" y="526.6094"/><ellipse cx="27.85" cy="542.6094" fill="#ADD1B2" rx="11" ry="11" style="stroke:#181818;stroke-width:1.0;"/><path d="M30.6156,538.4844 Q30.7719,538.2656 30.9594,538.1563 Q31.1469,538.0469 31.3656,538.0469 Q31.7406,538.0469 31.975,538.3125 Q32.2094,538.5625 32.2094,539.1719 L32.2094,540.625 Q32.2094,541.2344 31.975,541.5 Q31.7406,541.7656 31.3656,541.7656 Q31.0219,541.7656 30.8188,541.5625 Q30.6156,541.375 30.5063,540.8594 Q30.4594,540.5 30.2719,540.3125 Q29.9438,539.9375 29.3344,539.7188 Q28.725,539.5 28.1,539.5 Q27.3344,539.5 26.6938,539.8281 Q26.0688,540.1563 25.5688,540.9063 Q25.0844,541.6563 25.0844,542.6875 L25.0844,543.7813 Q25.0844,545.0156 25.975,545.8438 Q26.8656,546.6563 28.4594,546.6563 Q29.3969,546.6563 30.0531,546.4063 Q30.4438,546.25 30.8656,545.8125 Q31.1313,545.5469 31.2719,545.4688 Q31.4281,545.3906 31.6313,545.3906 Q31.9594,545.3906 32.2094,545.6563 Q32.475,545.9063 32.475,546.25 Q32.475,546.5938 32.1313,547 Q31.6313,547.5781 30.8344,547.9063 Q29.7563,548.3594 28.4594,548.3594 Q26.9438,548.3594 25.7406,547.7344 Q24.7563,547.2344 24.0688,546.1719 Q23.3813,545.0938 23.3813,543.8125 L23.3813,542.6563 Q23.3813,541.3281 23.9906,540.1875 Q24.6156,539.0313 25.7094,538.4219 Q26.8031,537.7969 28.0375,537.7969 Q28.7719,537.7969 29.4125,537.9688 Q30.0688,538.125 30.6156,538.4844 Z " fill="#000000"/><text fill="#000000" font-family="sans-serif" font-size="14" lengthAdjust="spacing" textLength="172" x="43.15" y="548.3379">NonFunctionalRequirement</text><line style="stroke:#181818;stroke-width:0.5;" x1="8" x2="223" y1="558.6094" y2="558.6094"/><rect fill="none" height="6" style="stroke:#C82930;stroke-width:1.0;" width="6" x="15" y="569.9141"/><text fill="#000000" font-family="sans-serif" font-size="14" lengthAdjust="spacing" textLength="151" x="27" y="577.1426">String measurementUnit</text><rect fill="none" height="6" style="stroke:#C82930;stroke-width:1.0;" width="6" x="15" y="587.5234"/><text fill="#000000" font-family="sans-serif" font-size="14" lengthAdjust="spacing" textLength="191" x="27" y="594.752">ComparisonOperator operator</text><rect fill="none" height="6" style="stroke:#C82930;stroke-width:1.0;" width="6" x="15" y="605.1328"/><text fill="#000000" font-family="sans-serif" font-size="14" lengthAdjust="spacing" textLength="144" x="27" y="612.3613">Double thresholdValue</text><rect fill="none" height="6" style="stroke:#C82930;stroke-width:1.0;" width="6" x="15" y="622.7422"/><text fill="#000000" font-family="sans-serif" font-size="14" lengthAdjust="spacing" textLength="122" x="27" y="629.9707">Double targetValue</text><rect fill="none" height="6" style="stroke:#C82930;stroke-width:1.0;" width="6" x="15" y="640.3516"/><text fill="#000000" font-family="sans-serif" font-size="14" lengthAdjust="spacing" textLength="123" x="27" y="647.5801">Double actualValue</text><line style="stroke:#181818;stroke-width:0.5;" x1="8" x2="223" y1="654.6563" y2="654.6563"/></g><!--class Stakeholder--><g id="elem_Stakeholder"><rect codeLine="80" fill="#F1F1F1" height="118.4375" id="Stakeholder" rx="2.5" ry="2.5" style="stroke:#181818;stroke-width:0.5;" width="136" x="1038.5" y="535.6094"/><ellipse cx="1066.1" cy="551.6094" fill="#ADD1B2" rx="11" ry="11" style="stroke:#181818;stroke-width:1.0;"/><path d="M1068.8656,547.4844 Q1069.0219,547.2656 1069.2094,547.1563 Q1069.3969,547.0469 1069.6156,547.0469 Q1069.9906,547.0469 1070.225,547.3125 Q1070.4594,547.5625 1070.4594,548.1719 L1070.4594,549.625 Q1070.4594,550.2344 1070.225,550.5 Q1069.9906,550.7656 1069.6156,550.7656 Q1069.2719,550.7656 1069.0688,550.5625 Q1068.8656,550.375 1068.7563,549.8594 Q1068.7094,549.5 1068.5219,549.3125 Q1068.1938,548.9375 1067.5844,548.7188 Q1066.975,548.5 1066.35,548.5 Q1065.5844,548.5 1064.9438,548.8281 Q1064.3188,549.1563 1063.8188,549.9063 Q1063.3344,550.6563 1063.3344,551.6875 L1063.3344,552.7813 Q1063.3344,554.0156 1064.225,554.8438 Q1065.1156,555.6563 1066.7094,555.6563 Q1067.6469,555.6563 1068.3031,555.4063 Q1068.6938,555.25 1069.1156,554.8125 Q1069.3813,554.5469 1069.5219,554.4688 Q1069.6781,554.3906 1069.8813,554.3906 Q1070.2094,554.3906 1070.4594,554.6563 Q1070.725,554.9063 1070.725,555.25 Q1070.725,555.5938 1070.3813,556 Q1069.8813,556.5781 1069.0844,556.9063 Q1068.0063,557.3594 1066.7094,557.3594 Q1065.1938,557.3594 1063.9906,556.7344 Q1063.0063,556.2344 1062.3188,555.1719 Q1061.6313,554.0938 1061.6313,552.8125 L1061.6313,551.6563 Q1061.6313,550.3281 1062.2406,549.1875 Q1062.8656,548.0313 1063.9594,547.4219 Q1065.0531,546.7969 1066.2875,546.7969 Q1067.0219,546.7969 1067.6625,546.9688 Q1068.3188,547.125 1068.8656,547.4844 Z " fill="#000000"/><text fill="#000000" font-family="sans-serif" font-size="14" lengthAdjust="spacing" textLength="76" x="1082.9" y="557.3379">Stakeholder</text><line style="stroke:#181818;stroke-width:0.5;" x1="1039.5" x2="1173.5" y1="567.6094" y2="567.6094"/><rect fill="none" height="6" style="stroke:#C82930;stroke-width:1.0;" width="6" x="1046.5" y="578.9141"/><text fill="#000000" font-family="sans-serif" font-size="14" lengthAdjust="spacing" textLength="42" x="1058.5" y="586.1426">long id</text><rect fill="none" height="6" style="stroke:#C82930;stroke-width:1.0;" width="6" x="1046.5" y="596.5234"/><text fill="#000000" font-family="sans-serif" font-size="14" lengthAdjust="spacing" textLength="76" x="1058.5" y="603.752">String name</text><rect fill="none" height="6" style="stroke:#C82930;stroke-width:1.0;" width="6" x="1046.5" y="614.1328"/><text fill="#000000" font-family="sans-serif" font-size="14" lengthAdjust="spacing" textLength="110" x="1058.5" y="621.3613">String description</text><rect fill="none" height="6" style="stroke:#C82930;stroke-width:1.0;" width="6" x="1046.5" y="631.7422"/><text fill="#000000" font-family="sans-serif" font-size="14" lengthAdjust="spacing" textLength="103" x="1058.5" y="638.9707">EntityState state</text><line style="stroke:#181818;stroke-width:0.5;" x1="1039.5" x2="1173.5" y1="646.0469" y2="646.0469"/></g><!--class Document--><g id="elem_Document"><rect codeLine="87" fill="#F1F1F1" height="136.0469" id="Document" rx="2.5" ry="2.5" style="stroke:#181818;stroke-width:0.5;" width="132" x="871.5" y="526.6094"/><ellipse cx="902.7" cy="542.6094" fill="#ADD1B2" rx="11" ry="11" style="stroke:#181818;stroke-width:1.0;"/><path d="M905.4656,538.4844 Q905.6219,538.2656 905.8094,538.1563 Q905.9969,538.0469 906.2156,538.0469 Q906.5906,538.0469 906.825,538.3125 Q907.0594,538.5625 907.0594,539.1719 L907.0594,540.625 Q907.0594,541.2344 906.825,541.5 Q906.5906,541.7656 906.2156,541.7656 Q905.8719,541.7656 905.6688,541.5625 Q905.4656,541.375 905.3563,540.8594 Q905.3094,540.5 905.1219,540.3125 Q904.7938,539.9375 904.1844,539.7188 Q903.575,539.5 902.95,539.5 Q902.1844,539.5 901.5438,539.8281 Q900.9188,540.1563 900.4188,540.9063 Q899.9344,541.6563 899.9344,542.6875 L899.9344,543.7813 Q899.9344,545.0156 900.825,545.8438 Q901.7156,546.6563 903.3094,546.6563 Q904.2469,546.6563 904.9031,546.4063 Q905.2938,546.25 905.7156,545.8125 Q905.9813,545.5469 906.1219,545.4688 Q906.2781,545.3906 906.4813,545.3906 Q906.8094,545.3906 907.0594,545.6563 Q907.325,545.9063 907.325,546.25 Q907.325,546.5938 906.9813,547 Q906.4813,547.5781 905.6844,547.9063 Q904.6063,548.3594 903.3094,548.3594 Q901.7938,548.3594 900.5906,547.7344 Q899.6063,547.2344 898.9188,546.1719 Q898.2313,545.0938 898.2313,543.8125 L898.2313,542.6563 Q898.2313,541.3281 898.8406,540.1875 Q899.4656,539.0313 900.5594,538.4219 Q901.6531,537.7969 902.8875,537.7969 Q903.6219,537.7969 904.2625,537.9688 Q904.9188,538.125 905.4656,538.4844 Z " fill="#000000"/><text fill="#000000" font-family="sans-serif" font-size="14" lengthAdjust="spacing" textLength="64" x="920.3" y="548.3379">Document</text><line style="stroke:#181818;stroke-width:0.5;" x1="872.5" x2="1002.5" y1="558.6094" y2="558.6094"/><rect fill="none" height="6" style="stroke:#C82930;stroke-width:1.0;" width="6" x="879.5" y="569.9141"/><text fill="#000000" font-family="sans-serif" font-size="14" lengthAdjust="spacing" textLength="42" x="891.5" y="577.1426">long id</text><rect fill="none" height="6" style="stroke:#C82930;stroke-width:1.0;" width="6" x="879.5" y="587.5234"/><text fill="#000000" font-family="sans-serif" font-size="14" lengthAdjust="spacing" textLength="95" x="891.5" y="594.752">String fileName</text><rect fill="none" height="6" style="stroke:#C82930;stroke-width:1.0;" width="6" x="879.5" y="605.1328"/><text fill="#000000" font-family="sans-serif" font-size="14" lengthAdjust="spacing" textLength="106" x="891.5" y="612.3613">String mimeType</text><rect fill="none" height="6" style="stroke:#C82930;stroke-width:1.0;" width="6" x="879.5" y="622.7422"/><text fill="#000000" font-family="sans-serif" font-size="14" lengthAdjust="spacing" textLength="86" x="891.5" y="629.9707">byte[] content</text><rect fill="none" height="6" style="stroke:#C82930;stroke-width:1.0;" width="6" x="879.5" y="640.3516"/><text fill="#000000" font-family="sans-serif" font-size="14" lengthAdjust="spacing" textLength="103" x="891.5" y="647.5801">EntityState state</text><line style="stroke:#181818;stroke-width:0.5;" x1="872.5" x2="1002.5" y1="654.6563" y2="654.6563"/></g><!--class User--><g id="elem_User"><rect codeLine="95" fill="#F1F1F1" height="136.0469" id="User" rx="2.5" ry="2.5" style="stroke:#181818;stroke-width:0.5;" width="122" x="1187.5" y="54.6094"/><ellipse cx="1229.95" cy="70.6094" fill="#ADD1B2" rx="11" ry="11" style="stroke:#181818;stroke-width:1.0;"/><path d="M1232.7156,66.4844 Q1232.8719,66.2656 1233.0594,66.1563 Q1233.2469,66.0469 1233.4656,66.0469 Q1233.8406,66.0469 1234.075,66.3125 Q1234.3094,66.5625 1234.3094,67.1719 L1234.3094,68.625 Q1234.3094,69.2344 1234.075,69.5 Q1233.8406,69.7656 1233.4656,69.7656 Q1233.1219,69.7656 1232.9188,69.5625 Q1232.7156,69.375 1232.6063,68.8594 Q1232.5594,68.5 1232.3719,68.3125 Q1232.0438,67.9375 1231.4344,67.7188 Q1230.825,67.5 1230.2,67.5 Q1229.4344,67.5 1228.7938,67.8281 Q1228.1688,68.1563 1227.6688,68.9063 Q1227.1844,69.6563 1227.1844,70.6875 L1227.1844,71.7813 Q1227.1844,73.0156 1228.075,73.8438 Q1228.9656,74.6563 1230.5594,74.6563 Q1231.4969,74.6563 1232.1531,74.4063 Q1232.5438,74.25 1232.9656,73.8125 Q1233.2313,73.5469 1233.3719,73.4688 Q1233.5281,73.3906 1233.7313,73.3906 Q1234.0594,73.3906 1234.3094,73.6563 Q1234.575,73.9063 1234.575,74.25 Q1234.575,74.5938 1234.2313,75 Q1233.7313,75.5781 1232.9344,75.9063 Q1231.8563,76.3594 1230.5594,76.3594 Q1229.0438,76.3594 1227.8406,75.7344 Q1226.8563,75.2344 1226.1688,74.1719 Q1225.4813,73.0938 1225.4813,71.8125 L1225.4813,70.6563 Q1225.4813,69.3281 1226.0906,68.1875 Q1226.7156,67.0313 1227.8094,66.4219 Q1228.9031,65.7969 1230.1375,65.7969 Q1230.8719,65.7969 1231.5125,65.9688 Q1232.1688,66.125 1232.7156,66.4844 Z " fill="#000000"/><text fill="#000000" font-family="sans-serif" font-size="14" lengthAdjust="spacing" textLength="29" x="1250.05" y="76.3379">User</text><line style="stroke:#181818;stroke-width:0.5;" x1="1188.5" x2="1308.5" y1="86.6094" y2="86.6094"/><rect fill="none" height="6" style="stroke:#C82930;stroke-width:1.0;" width="6" x="1195.5" y="97.9141"/><text fill="#000000" font-family="sans-serif" font-size="14" lengthAdjust="spacing" textLength="42" x="1207.5" y="105.1426">long id</text><rect fill="none" height="6" style="stroke:#C82930;stroke-width:1.0;" width="6" x="1195.5" y="115.5234"/><text fill="#000000" font-family="sans-serif" font-size="14" lengthAdjust="spacing" textLength="74" x="1207.5" y="122.752">String email</text><rect fill="none" height="6" style="stroke:#C82930;stroke-width:1.0;" width="6" x="1195.5" y="133.1328"/><text fill="#000000" font-family="sans-serif" font-size="14" lengthAdjust="spacing" textLength="76" x="1207.5" y="140.3613">String name</text><rect fill="none" height="6" style="stroke:#C82930;stroke-width:1.0;" width="6" x="1195.5" y="150.7422"/><text fill="#000000" font-family="sans-serif" font-size="14" lengthAdjust="spacing" textLength="96" x="1207.5" y="157.9707">String surname</text><rect fill="none" height="6" style="stroke:#C82930;stroke-width:1.0;" width="6" x="1195.5" y="168.3516"/><text fill="#000000" font-family="sans-serif" font-size="14" lengthAdjust="spacing" textLength="93" x="1207.5" y="175.5801">Boolean active</text><line style="stroke:#181818;stroke-width:0.5;" x1="1188.5" x2="1308.5" y1="182.6563" y2="182.6563"/></g><!--class EntityLock--><g id="elem_EntityLock"><rect codeLine="103" fill="#F1F1F1" height="153.6563" id="EntityLock" rx="2.5" ry="2.5" style="stroke:#181818;stroke-width:0.5;" width="179" x="1159" y="286.1094"/><ellipse cx="1211.75" cy="302.1094" fill="#ADD1B2" rx="11" ry="11" style="stroke:#181818;stroke-width:1.0;"/><path d="M1214.5156,297.9844 Q1214.6719,297.7656 1214.8594,297.6563 Q1215.0469,297.5469 1215.2656,297.5469 Q1215.6406,297.5469 1215.875,297.8125 Q1216.1094,298.0625 1216.1094,298.6719 L1216.1094,300.125 Q1216.1094,300.7344 1215.875,301 Q1215.6406,301.2656 1215.2656,301.2656 Q1214.9219,301.2656 1214.7188,301.0625 Q1214.5156,300.875 1214.4063,300.3594 Q1214.3594,300 1214.1719,299.8125 Q1213.8438,299.4375 1213.2344,299.2188 Q1212.625,299 1212,299 Q1211.2344,299 1210.5938,299.3281 Q1209.9688,299.6563 1209.4688,300.4063 Q1208.9844,301.1563 1208.9844,302.1875 L1208.9844,303.2813 Q1208.9844,304.5156 1209.875,305.3438 Q1210.7656,306.1563 1212.3594,306.1563 Q1213.2969,306.1563 1213.9531,305.9063 Q1214.3438,305.75 1214.7656,305.3125 Q1215.0313,305.0469 1215.1719,304.9688 Q1215.3281,304.8906 1215.5313,304.8906 Q1215.8594,304.8906 1216.1094,305.1563 Q1216.375,305.4063 1216.375,305.75 Q1216.375,306.0938 1216.0313,306.5 Q1215.5313,307.0781 1214.7344,307.4063 Q1213.6563,307.8594 1212.3594,307.8594 Q1210.8438,307.8594 1209.6406,307.2344 Q1208.6563,306.7344 1207.9688,305.6719 Q1207.2813,304.5938 1207.2813,303.3125 L1207.2813,302.1563 Q1207.2813,300.8281 1207.8906,299.6875 Q1208.5156,298.5313 1209.6094,297.9219 Q1210.7031,297.2969 1211.9375,297.2969 Q1212.6719,297.2969 1213.3125,297.4688 Q1213.9688,297.625 1214.5156,297.9844 Z " fill="#000000"/><text fill="#000000" font-family="sans-serif" font-size="14" lengthAdjust="spacing" textLength="65" x="1232.25" y="307.8379">EntityLock</text><line style="stroke:#181818;stroke-width:0.5;" x1="1160" x2="1337" y1="318.1094" y2="318.1094"/><rect fill="none" height="6" style="stroke:#C82930;stroke-width:1.0;" width="6" x="1167" y="329.4141"/><text fill="#000000" font-family="sans-serif" font-size="14" lengthAdjust="spacing" textLength="42" x="1179" y="336.6426">long id</text><rect fill="none" height="6" style="stroke:#C82930;stroke-width:1.0;" width="6" x="1167" y="347.0234"/><text fill="#000000" font-family="sans-serif" font-size="14" lengthAdjust="spacing" textLength="107" x="1179" y="354.252">String entityType</text><rect fill="none" height="6" style="stroke:#C82930;stroke-width:1.0;" width="6" x="1167" y="364.6328"/><text fill="#000000" font-family="sans-serif" font-size="14" lengthAdjust="spacing" textLength="76" x="1179" y="371.8613">long entityId</text><rect fill="none" height="6" style="stroke:#C82930;stroke-width:1.0;" width="6" x="1167" y="382.2422"/><text fill="#000000" font-family="sans-serif" font-size="14" lengthAdjust="spacing" textLength="153" x="1179" y="389.4707">LocalDateTime lockedAt</text><rect fill="none" height="6" style="stroke:#C82930;stroke-width:1.0;" width="6" x="1167" y="399.8516"/><text fill="#000000" font-family="sans-serif" font-size="14" lengthAdjust="spacing" textLength="90" x="1179" y="407.0801">Long projectId</text><rect fill="none" height="6" style="stroke:#C82930;stroke-width:1.0;" width="6" x="1167" y="417.4609"/><text fill="#000000" font-family="sans-serif" font-size="14" lengthAdjust="spacing" textLength="131" x="1179" y="424.6895">boolean systemWide</text><line style="stroke:#181818;stroke-width:0.5;" x1="1160" x2="1337" y1="431.7656" y2="431.7656"/></g><!--link Project to ProjectState--><g id="link_Project_ProjectState"><path codeLine="113" d="M925.5,199.7294 C925.5,233.5394 925.5,272.6894 925.5,304.0794 " fill="none" id="Project-ProjectState" style="stroke:#181818;stroke-width:1.0;stroke-dasharray:7.0,7.0;"/><text fill="#000000" font-family="sans-serif" font-size="13" lengthAdjust="spacing" textLength="7" x="918.1883" y="220.8365">1</text><text fill="#000000" font-family="sans-serif" font-size="13" lengthAdjust="spacing" textLength="7" x="918.0734" y="293.4">1</text></g><!--link Functionality to FunctionalityState--><g id="link_Functionality_FunctionalityState"><path codeLine="114" d="M331.2,653.6994 C324.57,678.8494 316.89,707.9894 310.54,732.0994 " fill="none" id="Functionality-FunctionalityState" style="stroke:#181818;stroke-width:1.0;stroke-dasharray:7.0,7.0;"/><text fill="#000000" font-family="sans-serif" font-size="13" lengthAdjust="spacing" textLength="7" x="321.9088" y="675.3658">1</text><text fill="#000000" font-family="sans-serif" font-size="13" lengthAdjust="spacing" textLength="7" x="304.8816" y="721.4033">1</text></g><!--link Requirement to RequirementState--><g id="link_Requirement_RequirementState"><path codeLine="115" d="M591.08,446.6394 C621.12,472.8594 653.96,501.5094 682.6,526.4994 " fill="none" id="Requirement-RequirementState" style="stroke:#181818;stroke-width:1.0;stroke-dasharray:7.0,7.0;"/><text fill="#000000" font-family="sans-serif" font-size="13" lengthAdjust="spacing" textLength="7" x="598.8958" y="450.1567">1</text><text fill="#000000" font-family="sans-serif" font-size="13" lengthAdjust="spacing" textLength="7" x="667.3088" y="516.1614">1</text></g><!--link Stakeholder to EntityState--><g id="link_Stakeholder_EntityState"><path codeLine="116" d="M1080.27,653.6994 C1070.25,675.8694 1058.84,701.1394 1048.82,723.3194 " fill="none" id="Stakeholder-EntityState" style="stroke:#181818;stroke-width:1.0;stroke-dasharray:7.0,7.0;"/><text fill="#000000" font-family="sans-serif" font-size="13" lengthAdjust="spacing" textLength="7" x="1069.6467" y="675.3658">1</text><text fill="#000000" font-family="sans-serif" font-size="13" lengthAdjust="spacing" textLength="7" x="1044.6012" y="712.6083">1</text></g><!--link Document to EntityState--><g id="link_Document_EntityState"><path codeLine="117" d="M968.19,662.7594 C977.27,682.6394 987.13,704.2194 995.93,723.4794 " fill="none" id="Document-EntityState" style="stroke:#181818;stroke-width:1.0;stroke-dasharray:7.0,7.0;"/><text fill="#000000" font-family="sans-serif" font-size="13" lengthAdjust="spacing" textLength="7" x="963.994" y="684.1232">1</text><text fill="#000000" font-family="sans-serif" font-size="13" lengthAdjust="spacing" textLength="7" x="985.2652" y="712.7878">1</text></g><!--link Requirement to PriorityStyle--><g id="link_Requirement_PriorityStyle"><path codeLine="118" d="M532.34,448.9194 C547.35,484.4094 564.09,524.0194 576.26,552.8094 " fill="none" id="Requirement-PriorityStyle" style="stroke:#181818;stroke-width:1.0;stroke-dasharray:7.0,7.0;"/><text fill="#000000" font-family="sans-serif" font-size="13" lengthAdjust="spacing" textLength="7" x="528.1192" y="470.48">1</text><text fill="#000000" font-family="sans-serif" font-size="13" lengthAdjust="spacing" textLength="7" x="565.9546" y="542.3782">1</text></g><!--link NonFunctionalRequirement to ComparisonOperator--><g id="link_NonFunctionalRequirement_ComparisonOperator"><path codeLine="119" d="M112.61,662.7594 C111.63,685.6494 110.54,710.8194 109.63,732.0694 " fill="none" id="NonFunctionalRequirement-ComparisonOperator" style="stroke:#181818;stroke-width:1.0;stroke-dasharray:7.0,7.0;"/><text fill="#000000" font-family="sans-serif" font-size="13" lengthAdjust="spacing" textLength="7" x="104.951" y="684.1232">1</text><text fill="#000000" font-family="sans-serif" font-size="13" lengthAdjust="spacing" textLength="7" x="102.4373" y="721.3691">1</text></g><!--reverse link Project to Functionality--><g id="link_Project_Functionality"><path codeLine="121" d="M820.6376,139.438 C681.8476,162.158 442.47,209.6894 384.5,277.6094 C323.33,349.2694 326.79,465.6394 335.92,535.3894 " fill="none" id="Project-backto-Functionality" style="stroke:#181818;stroke-width:1.0;"/><polygon fill="#181818" points="832.48,137.4994,825.9126,134.5212,820.6376,139.438,827.205,142.4161,832.48,137.4994" style="stroke:#181818;stroke-width:1.0;"/><text fill="#000000" font-family="sans-serif" font-size="13" lengthAdjust="spacing" textLength="7" x="817.4869" y="152.9189">1</text><text fill="#000000" font-family="sans-serif" font-size="13" lengthAdjust="spacing" textLength="20" x="313.4118" y="524.6868">0..*</text></g><!--reverse link Project to NonFunctionalRequirement--><g id="link_Project_NonFunctionalRequirement"><path codeLine="122" d="M820.5567,138.5154 C670.9867,161.2854 398.19,210.4194 323.5,277.6094 C244.15,348.9894 181.73,457.0694 146.72,526.5094 " fill="none" id="Project-backto-NonFunctionalRequirement" style="stroke:#181818;stroke-width:1.0;"/><polygon fill="#181818" points="832.42,136.7094,825.8863,133.658,820.5567,138.5154,827.0904,141.5668,832.42,136.7094" style="stroke:#181818;stroke-width:1.0;"/><text fill="#000000" font-family="sans-serif" font-size="13" lengthAdjust="spacing" textLength="7" x="817.422" y="134.7384">1</text><text fill="#000000" font-family="sans-serif" font-size="13" lengthAdjust="spacing" textLength="20" x="129.0409" y="515.6977">0..*</text></g><!--reverse link Project to Document--><g id="link_Project_Document"><path codeLine="123" d="M974.4132,210.8174 C985.9632,234.8774 991.64,251.2494 997.5,277.6094 C1018.61,372.6294 1024.12,402.9894 997.5,496.6094 C994.63,506.6994 990.38,516.7794 985.44,526.3994 " fill="none" id="Project-backto-Document" style="stroke:#181818;stroke-width:1.0;"/><polygon fill="#181818" points="969.22,199.9994,968.2106,207.1395,974.4132,210.8174,975.4226,203.6773,969.22,199.9994" style="stroke:#181818;stroke-width:1.0;"/><text fill="#000000" font-family="sans-serif" font-size="13" lengthAdjust="spacing" textLength="7" x="965.6764" y="220.8626">1</text><text fill="#000000" font-family="sans-serif" font-size="13" lengthAdjust="spacing" textLength="20" x="969.5897" y="515.5757">0..*</text></g><!--reverse link Project to Stakeholder--><g id="link_Project_Stakeholder"><path codeLine="124" d="M998.3363,209.3394 C1005.5863,219.1194 1005.4,219.5894 1011.5,229.6094 C1070.61,326.6694 1093.25,459.9494 1101.7,535.3694 " fill="none" id="Project-backto-Stakeholder" style="stroke:#181818;stroke-width:1.0;"/><polygon fill="#181818" points="991.19,199.6994,991.5498,206.9015,998.3363,209.3394,997.9765,202.1373,991.19,199.6994" style="stroke:#181818;stroke-width:1.0;"/><text fill="#000000" font-family="sans-serif" font-size="13" lengthAdjust="spacing" textLength="7" x="989.7288" y="220.8038">1</text><text fill="#000000" font-family="sans-serif" font-size="13" lengthAdjust="spacing" textLength="20" x="1079.8963" y="524.6644">0..*</text></g><!--reverse link Functionality to FunctionalRequirement--><g id="link_Functionality_FunctionalRequirement"><path codeLine="126" d="M400.1921,663.0892 C422.7521,691.4392 441.87,715.4694 462.21,741.0294 " fill="none" id="Functionality-backto-FunctionalRequirement" style="stroke:#181818;stroke-width:1.0;"/><polygon fill="#181818" points="392.72,653.6994,393.3261,660.885,400.1921,663.0892,399.586,655.9036,392.72,653.6994" style="stroke:#181818;stroke-width:1.0;"/><text fill="#000000" font-family="sans-serif" font-size="13" lengthAdjust="spacing" textLength="7" x="390.9265" y="675.3658">1</text><text fill="#000000" font-family="sans-serif" font-size="13" lengthAdjust="spacing" textLength="20" x="435.2057" y="730.3238">0..*</text></g><!--reverse link Requirement to FunctionalRequirement--><g id="link_Requirement_FunctionalRequirement"><path codeLine="128" d="M496.005,466.8492 C495.585,555.7492 495.02,673.7294 494.69,741.0094 " fill="none" id="Requirement-backto-FunctionalRequirement" style="stroke:#181818;stroke-width:1.0;"/><polygon fill="none" points="496.09,448.8494,490.005,466.8208,502.0049,466.8775,496.09,448.8494" style="stroke:#181818;stroke-width:1.0;"/></g><!--reverse link Requirement to NonFunctionalRequirement--><g id="link_Requirement_NonFunctionalRequirement"><path codeLine="129" d="M386.4106,430.426 C332.5306,462.876 280.23,494.3794 224.18,528.1494 " fill="none" id="Requirement-backto-NonFunctionalRequirement" style="stroke:#181818;stroke-width:1.0;"/><polygon fill="none" points="401.83,421.1394,383.315,425.2861,389.5061,435.5658,401.83,421.1394" style="stroke:#181818;stroke-width:1.0;"/></g><!--link Requirement to Stakeholder--><g id="link_Requirement_Stakeholder"><path codeLine="131" d="M591.34,382.6794 C699.48,406.2594 879.51,452.9794 1020.5,526.6094 C1026.37,529.6794 1032.25,533.1594 1038.01,536.8794 " fill="none" id="Requirement-Stakeholder" style="stroke:#181818;stroke-width:1.0;"/><text fill="#000000" font-family="sans-serif" font-size="13" lengthAdjust="spacing" textLength="34" x="954.5" y="493.1045">linked</text><text fill="#000000" font-family="sans-serif" font-size="13" lengthAdjust="spacing" textLength="20" x="599.0392" y="381.0273">0..*</text><text fill="#000000" font-family="sans-serif" font-size="13" lengthAdjust="spacing" textLength="20" x="1011.4371" y="527.3197">0..*</text></g><!--reverse link Requirement to Requirement--><g id="link_Requirement_Requirement"><path codeLine="132" d="M603.0614,352.5076 C623.3214,353.6376 626,356.7194 626,363.1094 C626,369.4994 611.34,373.2494 591.08,374.3794 " fill="none" id="Requirement-backto-Requirement" style="stroke:#181818;stroke-width:1.0;"/><polygon fill="none" points="591.08,351.8394,596.8479,356.1673,603.0614,352.5076,597.2934,348.1797,591.08,351.8394" style="stroke:#181818;stroke-width:1.0;"/><text fill="#000000" font-family="sans-serif" font-size="13" lengthAdjust="spacing" textLength="79" x="632" y="368.6045">(Parent/Child)</text><text fill="#000000" font-family="sans-serif" font-size="13" lengthAdjust="spacing" textLength="7" x="598.8958" y="365.0773">1</text><text fill="#000000" font-family="sans-serif" font-size="13" lengthAdjust="spacing" textLength="20" x="599.0869" y="389.3531">0..*</text></g><!--link Requirement to Requirement--><g id="link_Requirement_Requirement"><path codeLine="133" d="M591.24,341.2494 C652.89,336.5394 717,343.8294 717,363.1094 C717,382.3894 652.89,389.6794 591.24,384.9694 " fill="none" id="Requirement-Requirement" style="stroke:#181818;stroke-width:1.0;"/><text fill="#000000" font-family="sans-serif" font-size="13" lengthAdjust="spacing" textLength="106" x="723" y="368.6045">crossed trazability</text><text fill="#000000" font-family="sans-serif" font-size="13" lengthAdjust="spacing" textLength="20" x="598.9318" y="336.5548">0..*</text><text fill="#000000" font-family="sans-serif" font-size="13" lengthAdjust="spacing" textLength="20" x="598.9318" y="400.6605">0..*</text></g><!--link Requirement to Document--><g id="link_Requirement_Document"><path codeLine="134" d="M591.03,399.6894 C664.91,429.2394 768.9,474.7094 853.5,526.6094 C859.38,530.2194 865.32,534.1794 871.17,538.3294 " fill="none" id="Requirement-Document" style="stroke:#181818;stroke-width:1.0;"/><text fill="#000000" font-family="sans-serif" font-size="13" lengthAdjust="spacing" textLength="34" x="799.5" y="493.1045">linked</text><text fill="#000000" font-family="sans-serif" font-size="13" lengthAdjust="spacing" textLength="20" x="599.0331" y="416.6009">0..*</text><text fill="#000000" font-family="sans-serif" font-size="13" lengthAdjust="spacing" textLength="20" x="843.2985" y="529.2113">0..*</text></g><!--link User to EntityLock--><g id="link_User_EntityLock"><path codeLine="137" d="M1248.5,190.6794 C1248.5,220.2994 1248.5,255.2794 1248.5,285.8794 " fill="none" id="User-EntityLock" style="stroke:#181818;stroke-width:1.0;"/><text fill="#000000" font-family="sans-serif" font-size="13" lengthAdjust="spacing" textLength="30" x="1249.5" y="244.1045">owns</text><text fill="#000000" font-family="sans-serif" font-size="13" lengthAdjust="spacing" textLength="7" x="1241.1391" y="212.0349">1</text><text fill="#000000" font-family="sans-serif" font-size="13" lengthAdjust="spacing" textLength="20" x="1227.5469" y="275.2841">0..*</text></g><!--SRC=[fLNVRzem47xtNs7rQQi4srwhlQGaRP5eO4bADKrJPP8RU7LiPZkjMBV_VSRvWGC9j1eFuFDzlkzyzvtHL3F0boHz19xX4IDAOP-IfIGvGi2B7Cya5PBgJQmt1lc2iFaaGHHwqLUxlft6e-az-jl0nKz8TQo9hj7UA1dF0xky6eVZ-2RmhU47rkCbbHq5jzEvMTUXhWgUQYeuOPQ-Cs1_31iYu7hlx2m8_N5u_U3DPj5qxatAWDPuPLeH_2geX1ouFXcuTTytiOn4lYQIAi6dQv142rdn15_klCb3ChN698ZZX-J62wrr7GKcNbHkc42fRMVLaUhu03F1bvXcbHLhIOtDIGxjdGnKAkbwsu3AqLR2shKQXDDyjVsk71EH4kOREw4vu5I2MMQUtYNPwlLRKsLa0QpQwX1DcOYX8Wkb9J6bA3cTHXvdLAnOrk6P81eBcO6S4rR0swju81-tJfT2C20SKpKpysW2HF14uRchJbtPLwHrQ_PkeSc2RgkoYnOA_gg0EH1LbAuxJdNbx92eg1OLmXV5maX5hoIebM2PMxBQH-GIT8V3zAaWh7Gq2PkAFS8s4iZ_rxFxE3GQANbyaHQdTV63CWWFY78ZyMIphdSN6mtVlkDKS6q2dgQ-KwVk1ZcXxDHrJR-SpLfNfgZqoI4hyp3J-NY2qkASMrbKkJlEEeUScQ1snckd5QPz7veJYoejjL4QydkQsTHG_MATVJh3mw7zSLyMr7ui7DJXy2DNrGvoVmgHgom7vpGADQBeyVTGjPvDr3joped3mMhNv7oGYMS-6E2pZyFX-Twrzv0xL1zpxu7wlhq0fsQeeoddNHcwnAsAVVupw87jetelqkv0oToPBRx0Z78ZpuEUYHtUTLtWTpCYpUh3Q4LPzluuK_jaAeLIa67pr_ExVe6F7czqrcI9a7qLjWdkOCxiNc2Z1uN-0G00]--></g></svg>