<svg xmlns="http://www.w3.org/2000/svg" xmlns:xlink="http://www.w3.org/1999/xlink" version="1.1" data-diagram-type="DESCRIPTION" style="width:1182px;height:964px;background:#FFFFFF;" width="1182px" height="964px" viewBox="0 0 1182 964" zoomAndPan="magnify" preserveAspectRatio="none" contentStyleType="text/css"><?plantuml 1.2026.7beta3?><defs/><g><g class="title" data-source-line="1"><text x="450.3335" y="22.9951" fill="#000000" font-size="14" lengthAdjust="spacing" textLength="274.333" font-weight="700" font-family="sans-serif">IR-Board Backend - Package Diagram</text></g><!--cluster backend--><g class="cluster" data-qualified-name="backend" id="ent0001" data-source-line="5"><rect x="7" y="44.2969" width="1161" height="906.22" fill="none" style="stroke:#181818;stroke-width:1;" rx="2.5" ry="2.5"/><path d="M83.5615,44.2969 L83.5615,53.5938 L73.5615,63.5938 L7,63.5938" style="stroke:#181818;stroke-width:1;" fill="none"/><text x="10" y="58.292" fill="#000000" font-size="14" lengthAdjust="spacing" textLength="66.5615" font-weight="700" font-family="sans-serif">backend</text></g><!--cluster domain--><g class="cluster" data-qualified-name="backend.domain" id="ent0002" data-source-line="6"><rect x="189" y="95.2969" width="935" height="228.7" fill="none" style="stroke:#181818;stroke-width:1;" rx="2.5" ry="2.5"/><path d="M257.4404,95.2969 L257.4404,104.5938 L247.4404,114.5938 L189,114.5938" style="stroke:#181818;stroke-width:1;" fill="none"/><text x="192" y="109.292" fill="#000000" font-size="14" lengthAdjust="spacing" textLength="58.4404" font-weight="700" font-family="sans-serif">domain</text></g><!--cluster application--><g class="cluster" data-qualified-name="backend.application" id="ent0019" data-source-line="33"><rect x="39" y="384.9969" width="1097" height="243.82" fill="none" style="stroke:#181818;stroke-width:1;" rx="2.5" ry="2.5"/><path d="M136.9102,384.9969 L136.9102,394.2938 L126.9102,404.2938 L39,404.2938" style="stroke:#181818;stroke-width:1;" fill="none"/><text x="42" y="398.992" fill="#000000" font-size="14" lengthAdjust="spacing" textLength="87.9102" font-weight="700" font-family="sans-serif">application</text></g><!--cluster infrastructure--><g class="cluster" data-qualified-name="backend.infrastructure" id="ent0036" data-source-line="62"><rect x="72" y="689.8169" width="1064" height="228.7" fill="none" style="stroke:#181818;stroke-width:1;" rx="2.5" ry="2.5"/><path d="M192.4619,689.8169 L192.4619,699.1138 L182.4619,709.1138 L72,709.1138" style="stroke:#181818;stroke-width:1;" fill="none"/><text x="75" y="703.812" fill="#000000" font-size="14" lengthAdjust="spacing" textLength="110.4619" font-weight="700" font-family="sans-serif">infrastructure</text></g><!--entity model--><g class="entity" data-qualified-name="backend.domain.model" id="ent0003" data-source-line="7"><rect x="267.76" y="138.2969" width="96.4717" height="46.2969" fill="#F1F1F1" style="stroke:#181818;stroke-width:0.5;" rx="2.5" ry="2.5"/><rect x="344.2317" y="143.2969" width="15" height="10" fill="#F1F1F1" style="stroke:#181818;stroke-width:0.5;"/><rect x="342.2317" y="145.2969" width="4" height="2" fill="#F1F1F1" style="stroke:#181818;stroke-width:0.5;"/><rect x="342.2317" y="149.2969" width="4" height="2" fill="#F1F1F1" style="stroke:#181818;stroke-width:0.5;"/><text x="282.76" y="171.292" fill="#000000" font-size="14" lengthAdjust="spacing" textLength="56.4717" font-family="sans-serif">"model"</text></g><g class="entity" data-qualified-name="backend.domain.GMN4" id="ent0005" data-source-line="9"><path d="M213.14,252.1569 L213.14,292.4225 A0,0 0 0 0 213.14,292.4225 L418.8568,292.4225 A0,0 0 0 0 418.8568,292.4225 L418.8568,262.1569 L408.8568,252.1569 L320,252.1569 L316,184.9969 L312,252.1569 L213.14,252.1569 A0,0 0 0 0 213.14,252.1569" style="stroke:#181818;stroke-width:0.5;" fill="#FEFFDD"/><path d="M408.8568,252.1569 L408.8568,262.1569 L418.8568,262.1569 L408.8568,252.1569" style="stroke:#181818;stroke-width:0.5;" fill="#FEFFDD"/><text x="219.14" y="269.2238" fill="#000000" font-size="13" lengthAdjust="spacing" textLength="146.6055" font-family="sans-serif">Main entities and their</text><text x="219.14" y="284.3566" fill="#000000" font-size="13" lengthAdjust="spacing" textLength="184.7168" font-family="sans-serif">lifecycle state enumerations</text></g><!--entity error--><g class="entity" data-qualified-name="backend.domain.error" id="ent0007" data-source-line="13"><rect x="510.34" y="138.2969" width="87.3252" height="46.2969" fill="#F1F1F1" style="stroke:#181818;stroke-width:0.5;" rx="2.5" ry="2.5"/><rect x="577.6652" y="143.2969" width="15" height="10" fill="#F1F1F1" style="stroke:#181818;stroke-width:0.5;"/><rect x="575.6652" y="145.2969" width="4" height="2" fill="#F1F1F1" style="stroke:#181818;stroke-width:0.5;"/><rect x="575.6652" y="149.2969" width="4" height="2" fill="#F1F1F1" style="stroke:#181818;stroke-width:0.5;"/><text x="525.34" y="171.292" fill="#000000" font-size="14" lengthAdjust="spacing" textLength="47.3252" font-family="sans-serif">"error"</text></g><g class="entity" data-qualified-name="backend.domain.GMN8" id="ent0009" data-source-line="15"><path d="M454.22,252.1569 L454.22,292.4225 A0,0 0 0 0 454.22,292.4225 L653.7796,292.4225 A0,0 0 0 0 653.7796,292.4225 L653.7796,262.1569 L643.7796,252.1569 L558,252.1569 L554,184.9969 L550,252.1569 L454.22,252.1569 A0,0 0 0 0 454.22,252.1569" style="stroke:#181818;stroke-width:0.5;" fill="#FEFFDD"/><path d="M643.7796,252.1569 L643.7796,262.1569 L653.7796,262.1569 L643.7796,252.1569" style="stroke:#181818;stroke-width:0.5;" fill="#FEFFDD"/><text x="460.22" y="269.2238" fill="#000000" font-size="13" lengthAdjust="spacing" textLength="160.8115" font-family="sans-serif">Business exceptions and</text><text x="460.22" y="284.3566" fill="#000000" font-size="13" lengthAdjust="spacing" textLength="178.5596" font-family="sans-serif">domain-specific error types</text></g><!--entity repository--><g class="entity" data-qualified-name="backend.domain.repository" id="ent0011" data-source-line="19"><rect x="735.01" y="138.2969" width="123.9795" height="46.2969" fill="#F1F1F1" style="stroke:#181818;stroke-width:0.5;" rx="2.5" ry="2.5"/><rect x="838.9895" y="143.2969" width="15" height="10" fill="#F1F1F1" style="stroke:#181818;stroke-width:0.5;"/><rect x="836.9895" y="145.2969" width="4" height="2" fill="#F1F1F1" style="stroke:#181818;stroke-width:0.5;"/><rect x="836.9895" y="149.2969" width="4" height="2" fill="#F1F1F1" style="stroke:#181818;stroke-width:0.5;"/><text x="750.01" y="171.292" fill="#000000" font-size="14" lengthAdjust="spacing" textLength="83.9795" font-family="sans-serif">"repository"</text></g><g class="entity" data-qualified-name="backend.domain.GMN12" id="ent0013" data-source-line="21"><path d="M688.75,252.1569 L688.75,292.4225 A0,0 0 0 0 688.75,292.4225 L905.2578,292.4225 A0,0 0 0 0 905.2578,292.4225 L905.2578,262.1569 L895.2578,252.1569 L801,252.1569 L797,184.9969 L793,252.1569 L688.75,252.1569 A0,0 0 0 0 688.75,252.1569" style="stroke:#181818;stroke-width:0.5;" fill="#FEFFDD"/><path d="M895.2578,252.1569 L895.2578,262.1569 L905.2578,262.1569 L895.2578,252.1569" style="stroke:#181818;stroke-width:0.5;" fill="#FEFFDD"/><text x="694.75" y="269.2238" fill="#000000" font-size="13" lengthAdjust="spacing" textLength="195.5078" font-family="sans-serif">Repository interfaces defining</text><text x="694.75" y="284.3566" fill="#000000" font-size="13" lengthAdjust="spacing" textLength="140.1309" font-family="sans-serif">persistence contracts</text></g><!--entity domain_service--><g class="entity" data-qualified-name="backend.domain.domain_service" id="ent0015" data-source-line="25"><rect x="917.77" y="138.2969" width="162.459" height="46.2969" fill="#F1F1F1" style="stroke:#181818;stroke-width:0.5;" rx="2.5" ry="2.5"/><rect x="1060.229" y="143.2969" width="15" height="10" fill="#F1F1F1" style="stroke:#181818;stroke-width:0.5;"/><rect x="1058.229" y="145.2969" width="4" height="2" fill="#F1F1F1" style="stroke:#181818;stroke-width:0.5;"/><rect x="1058.229" y="149.2969" width="4" height="2" fill="#F1F1F1" style="stroke:#181818;stroke-width:0.5;"/><text x="932.77" y="171.292" fill="#000000" font-size="14" lengthAdjust="spacing" textLength="122.459" font-family="sans-serif">"domain_service"</text></g><g class="entity" data-qualified-name="backend.domain.GMN16" id="ent0017" data-source-line="27"><path d="M939.76,244.5969 L939.76,299.9953 A0,0 0 0 0 939.76,299.9953 L1092.2454,299.9953 A0,0 0 0 0 1092.2454,299.9953 L1092.2454,254.5969 L1082.2454,244.5969 L1015.76,244.5969 L1002.52,184.9969 L1007.76,244.5969 L939.76,244.5969 A0,0 0 0 0 939.76,244.5969" style="stroke:#181818;stroke-width:0.5;" fill="#FEFFDD"/><path d="M1082.2454,244.5969 L1082.2454,254.5969 L1092.2454,254.5969 L1082.2454,244.5969" style="stroke:#181818;stroke-width:0.5;" fill="#FEFFDD"/><text x="945.76" y="261.6638" fill="#000000" font-size="13" lengthAdjust="spacing" textLength="131.4854" font-family="sans-serif">EntitySlugService —</text><text x="945.76" y="276.7966" fill="#000000" font-size="13" lengthAdjust="spacing" textLength="120.5801" font-family="sans-serif">slug generation as</text><text x="945.76" y="291.9294" fill="#000000" font-size="13" lengthAdjust="spacing" textLength="123.9443" font-family="sans-serif">core business logic</text></g><!--entity dto--><g class="entity" data-qualified-name="backend.application.dto" id="ent0020" data-source-line="34"><rect x="136.09" y="427.9969" width="75.8203" height="46.2969" fill="#F1F1F1" style="stroke:#181818;stroke-width:0.5;" rx="2.5" ry="2.5"/><rect x="191.9103" y="432.9969" width="15" height="10" fill="#F1F1F1" style="stroke:#181818;stroke-width:0.5;"/><rect x="189.9103" y="434.9969" width="4" height="2" fill="#F1F1F1" style="stroke:#181818;stroke-width:0.5;"/><rect x="189.9103" y="438.9969" width="4" height="2" fill="#F1F1F1" style="stroke:#181818;stroke-width:0.5;"/><text x="151.09" y="460.992" fill="#000000" font-size="14" lengthAdjust="spacing" textLength="35.8203" font-family="sans-serif">"dto"</text></g><g class="entity" data-qualified-name="backend.application.GMN21" id="ent0022" data-source-line="36"><path d="M63.04,549.4269 L63.04,589.6925 A0,0 0 0 0 63.04,589.6925 L284.956,589.6925 A0,0 0 0 0 284.956,589.6925 L284.956,559.4269 L274.956,549.4269 L178,549.4269 L174,474.5869 L170,549.4269 L63.04,549.4269 A0,0 0 0 0 63.04,549.4269" style="stroke:#181818;stroke-width:0.5;" fill="#FEFFDD"/><path d="M274.956,549.4269 L274.956,559.4269 L284.956,559.4269 L274.956,549.4269" style="stroke:#181818;stroke-width:0.5;" fill="#FEFFDD"/><text x="69.04" y="566.4938" fill="#000000" font-size="13" lengthAdjust="spacing" textLength="200.916" font-family="sans-serif">Request and response transfer</text><text x="69.04" y="581.6266" fill="#000000" font-size="13" lengthAdjust="spacing" textLength="179.3657" font-family="sans-serif">objects for each entity type</text></g><!--entity mapper--><g class="entity" data-qualified-name="backend.application.mapper" id="ent0024" data-source-line="40"><rect x="370.38" y="427.9969" width="107.2383" height="46.2969" fill="#F1F1F1" style="stroke:#181818;stroke-width:0.5;" rx="2.5" ry="2.5"/><rect x="457.6183" y="432.9969" width="15" height="10" fill="#F1F1F1" style="stroke:#181818;stroke-width:0.5;"/><rect x="455.6183" y="434.9969" width="4" height="2" fill="#F1F1F1" style="stroke:#181818;stroke-width:0.5;"/><rect x="455.6183" y="438.9969" width="4" height="2" fill="#F1F1F1" style="stroke:#181818;stroke-width:0.5;"/><text x="385.38" y="460.992" fill="#000000" font-size="14" lengthAdjust="spacing" textLength="67.2383" font-family="sans-serif">"mapper"</text></g><g class="entity" data-qualified-name="backend.application.GMN25" id="ent0026" data-source-line="42"><path d="M320.41,549.4269 L320.41,589.6925 A0,0 0 0 0 320.41,589.6925 L527.5868,589.6925 A0,0 0 0 0 527.5868,589.6925 L527.5868,559.4269 L517.5868,549.4269 L428,549.4269 L424,474.5869 L420,549.4269 L320.41,549.4269 A0,0 0 0 0 320.41,549.4269" style="stroke:#181818;stroke-width:0.5;" fill="#FEFFDD"/><path d="M517.5868,549.4269 L517.5868,559.4269 L527.5868,559.4269 L517.5868,549.4269" style="stroke:#181818;stroke-width:0.5;" fill="#FEFFDD"/><text x="326.41" y="566.4938" fill="#000000" font-size="13" lengthAdjust="spacing" textLength="186.1768" font-family="sans-serif">Translators between domain</text><text x="326.41" y="581.6266" fill="#000000" font-size="13" lengthAdjust="spacing" textLength="116.105" font-family="sans-serif">entities and DTOs</text></g><!--entity port--><g class="entity" data-qualified-name="backend.application.port" id="ent0028" data-source-line="46"><rect x="648.21" y="427.9969" width="81.5762" height="46.2969" fill="#F1F1F1" style="stroke:#181818;stroke-width:0.5;" rx="2.5" ry="2.5"/><rect x="709.7862" y="432.9969" width="15" height="10" fill="#F1F1F1" style="stroke:#181818;stroke-width:0.5;"/><rect x="707.7862" y="434.9969" width="4" height="2" fill="#F1F1F1" style="stroke:#181818;stroke-width:0.5;"/><rect x="707.7862" y="438.9969" width="4" height="2" fill="#F1F1F1" style="stroke:#181818;stroke-width:0.5;"/><text x="663.21" y="460.992" fill="#000000" font-size="14" lengthAdjust="spacing" textLength="41.5762" font-family="sans-serif">"port"</text></g><g class="entity" data-qualified-name="backend.application.GMN29" id="ent0030" data-source-line="48"><path d="M562.87,541.8569 L562.87,597.2553 A0,0 0 0 0 562.87,597.2553 L815.1278,597.2553 A0,0 0 0 0 815.1278,597.2553 L815.1278,551.8569 L805.1278,541.8569 L693,541.8569 L689,474.5869 L685,541.8569 L562.87,541.8569 A0,0 0 0 0 562.87,541.8569" style="stroke:#181818;stroke-width:0.5;" fill="#FEFFDD"/><path d="M805.1278,541.8569 L805.1278,551.8569 L815.1278,551.8569 L805.1278,541.8569" style="stroke:#181818;stroke-width:0.5;" fill="#FEFFDD"/><text x="568.87" y="558.9238" fill="#000000" font-size="13" lengthAdjust="spacing" textLength="229.1187" font-family="sans-serif">IdentityService · PermissionService</text><text x="568.87" y="574.0566" fill="#000000" font-size="13" lengthAdjust="spacing" textLength="158.3804" font-family="sans-serif">ObjectStorageService —</text><text x="568.87" y="589.1894" fill="#000000" font-size="13" lengthAdjust="spacing" textLength="231.2578" font-family="sans-serif">abstractions for Kratos, Keto, MinIO</text></g><!--entity app_service--><g class="entity" data-qualified-name="backend.application.app_service" id="ent0032" data-source-line="53"><rect x="908.81" y="427.9969" width="136.3799" height="46.2969" fill="#F1F1F1" style="stroke:#181818;stroke-width:0.5;" rx="2.5" ry="2.5"/><rect x="1025.1899" y="432.9969" width="15" height="10" fill="#F1F1F1" style="stroke:#181818;stroke-width:0.5;"/><rect x="1023.1899" y="434.9969" width="4" height="2" fill="#F1F1F1" style="stroke:#181818;stroke-width:0.5;"/><rect x="1023.1899" y="438.9969" width="4" height="2" fill="#F1F1F1" style="stroke:#181818;stroke-width:0.5;"/><text x="923.81" y="460.992" fill="#000000" font-size="14" lengthAdjust="spacing" textLength="96.3799" font-family="sans-serif">"app_service"</text></g><g class="entity" data-qualified-name="backend.application.GMN33" id="ent0034" data-source-line="55"><path d="M850.25,534.2869 L850.25,604.8181 A0,0 0 0 0 850.25,604.8181 L1103.752,604.8181 A0,0 0 0 0 1103.752,604.8181 L1103.752,544.2869 L1093.752,534.2869 L981,534.2869 L977,474.5869 L973,534.2869 L850.25,534.2869 A0,0 0 0 0 850.25,534.2869" style="stroke:#181818;stroke-width:0.5;" fill="#FEFFDD"/><path d="M1093.752,534.2869 L1093.752,544.2869 L1103.752,544.2869 L1093.752,534.2869" style="stroke:#181818;stroke-width:0.5;" fill="#FEFFDD"/><text x="856.25" y="551.3538" fill="#000000" font-size="13" lengthAdjust="spacing" textLength="153.8481" font-family="sans-serif">Use case orchestrators:</text><text x="856.25" y="566.4866" fill="#000000" font-size="13" lengthAdjust="spacing" textLength="232.502" font-family="sans-serif">Project · Requirement · Stakeholder</text><text x="856.25" y="581.6194" fill="#000000" font-size="13" lengthAdjust="spacing" textLength="163.7314" font-family="sans-serif">Document · Functionality</text><text x="856.25" y="596.7522" fill="#000000" font-size="13" lengthAdjust="spacing" textLength="167.1973" font-family="sans-serif">EntityLock · User · Search</text></g><!--entity api_rest--><g class="entity" data-qualified-name="backend.infrastructure.api_rest" id="ent0037" data-source-line="63"><rect x="165.81" y="732.8169" width="108.3867" height="46.2969" fill="#F1F1F1" style="stroke:#181818;stroke-width:0.5;" rx="2.5" ry="2.5"/><rect x="254.1967" y="737.8169" width="15" height="10" fill="#F1F1F1" style="stroke:#181818;stroke-width:0.5;"/><rect x="252.1967" y="739.8169" width="4" height="2" fill="#F1F1F1" style="stroke:#181818;stroke-width:0.5;"/><rect x="252.1967" y="743.8169" width="4" height="2" fill="#F1F1F1" style="stroke:#181818;stroke-width:0.5;"/><text x="180.81" y="765.812" fill="#000000" font-size="14" lengthAdjust="spacing" textLength="68.3867" font-family="sans-serif">"api_rest"</text></g><g class="entity" data-qualified-name="backend.infrastructure.GMN38" id="ent0039" data-source-line="65"><path d="M96.05,839.1169 L96.05,894.5153 A0,0 0 0 0 96.05,894.5153 L343.9597,894.5153 A0,0 0 0 0 343.9597,894.5153 L343.9597,849.1169 L333.9597,839.1169 L224,839.1169 L220,779.5269 L216,839.1169 L96.05,839.1169 A0,0 0 0 0 96.05,839.1169" style="stroke:#181818;stroke-width:0.5;" fill="#FEFFDD"/><path d="M333.9597,839.1169 L333.9597,849.1169 L343.9597,849.1169 L333.9597,839.1169" style="stroke:#181818;stroke-width:0.5;" fill="#FEFFDD"/><text x="102.05" y="856.1838" fill="#000000" font-size="13" lengthAdjust="spacing" textLength="226.9097" font-family="sans-serif">REST controllers — HTTP mapping,</text><text x="102.05" y="871.3166" fill="#000000" font-size="13" lengthAdjust="spacing" textLength="185.4341" font-family="sans-serif">request validation, response</text><text x="102.05" y="886.4494" fill="#000000" font-size="13" lengthAdjust="spacing" textLength="203.8613" font-family="sans-serif">serialization and error handling</text></g><!--entity client--><g class="entity" data-qualified-name="backend.infrastructure.client" id="ent0041" data-source-line="70"><rect x="423.33" y="732.8169" width="91.3311" height="46.2969" fill="#F1F1F1" style="stroke:#181818;stroke-width:0.5;" rx="2.5" ry="2.5"/><rect x="494.6611" y="737.8169" width="15" height="10" fill="#F1F1F1" style="stroke:#181818;stroke-width:0.5;"/><rect x="492.6611" y="739.8169" width="4" height="2" fill="#F1F1F1" style="stroke:#181818;stroke-width:0.5;"/><rect x="492.6611" y="743.8169" width="4" height="2" fill="#F1F1F1" style="stroke:#181818;stroke-width:0.5;"/><text x="438.33" y="765.812" fill="#000000" font-size="14" lengthAdjust="spacing" textLength="51.3311" font-family="sans-serif">"client"</text></g><g class="entity" data-qualified-name="backend.infrastructure.GMN42" id="ent0043" data-source-line="72"><path d="M379.05,839.1169 L379.05,894.5153 A0,0 0 0 0 379.05,894.5153 L558.9509,894.5153 A0,0 0 0 0 558.9509,894.5153 L558.9509,849.1169 L548.9509,839.1169 L473,839.1169 L469,779.5269 L465,839.1169 L379.05,839.1169 A0,0 0 0 0 379.05,839.1169" style="stroke:#181818;stroke-width:0.5;" fill="#FEFFDD"/><path d="M548.9509,839.1169 L548.9509,849.1169 L558.9509,849.1169 L548.9509,839.1169" style="stroke:#181818;stroke-width:0.5;" fill="#FEFFDD"/><text x="385.05" y="856.1838" fill="#000000" font-size="13" lengthAdjust="spacing" textLength="144.5234" font-family="sans-serif">Port implementations:</text><text x="385.05" y="871.3166" fill="#000000" font-size="13" lengthAdjust="spacing" textLength="158.9009" font-family="sans-serif">KratosClient · KetoClient</text><text x="385.05" y="886.4494" fill="#000000" font-size="13" lengthAdjust="spacing" textLength="72.2681" font-family="sans-serif">MinioClient</text></g><!--entity persistence--><g class="entity" data-qualified-name="backend.infrastructure.persistence" id="ent0045" data-source-line="77"><rect x="652.05" y="732.8169" width="133.8984" height="46.2969" fill="#F1F1F1" style="stroke:#181818;stroke-width:0.5;" rx="2.5" ry="2.5"/><rect x="765.9484" y="737.8169" width="15" height="10" fill="#F1F1F1" style="stroke:#181818;stroke-width:0.5;"/><rect x="763.9484" y="739.8169" width="4" height="2" fill="#F1F1F1" style="stroke:#181818;stroke-width:0.5;"/><rect x="763.9484" y="743.8169" width="4" height="2" fill="#F1F1F1" style="stroke:#181818;stroke-width:0.5;"/><text x="667.05" y="765.812" fill="#000000" font-size="14" lengthAdjust="spacing" textLength="93.8984" font-family="sans-serif">"persistence"</text></g><g class="entity" data-qualified-name="backend.infrastructure.GMN46" id="ent0047" data-source-line="79"><path d="M593.57,846.6869 L593.57,886.9525 A0,0 0 0 0 593.57,886.9525 L844.425,886.9525 A0,0 0 0 0 844.425,886.9525 L844.425,856.6869 L834.425,846.6869 L723,846.6869 L719,779.5269 L715,846.6869 L593.57,846.6869 A0,0 0 0 0 593.57,846.6869" style="stroke:#181818;stroke-width:0.5;" fill="#FEFFDD"/><path d="M834.425,846.6869 L834.425,856.6869 L844.425,856.6869 L834.425,846.6869" style="stroke:#181818;stroke-width:0.5;" fill="#FEFFDD"/><text x="599.57" y="863.7538" fill="#000000" font-size="13" lengthAdjust="spacing" textLength="204.6294" font-family="sans-serif">JPA repository implementations</text><text x="599.57" y="878.8866" fill="#000000" font-size="13" lengthAdjust="spacing" textLength="229.855" font-family="sans-serif">of the domain repository interfaces</text></g><!--entity config--><g class="entity" data-qualified-name="backend.infrastructure.config" id="ent0049" data-source-line="83"><rect x="944.14" y="732.8169" width="95.7197" height="46.2969" fill="#F1F1F1" style="stroke:#181818;stroke-width:0.5;" rx="2.5" ry="2.5"/><rect x="1019.8597" y="737.8169" width="15" height="10" fill="#F1F1F1" style="stroke:#181818;stroke-width:0.5;"/><rect x="1017.8597" y="739.8169" width="4" height="2" fill="#F1F1F1" style="stroke:#181818;stroke-width:0.5;"/><rect x="1017.8597" y="743.8169" width="4" height="2" fill="#F1F1F1" style="stroke:#181818;stroke-width:0.5;"/><text x="959.14" y="765.812" fill="#000000" font-size="14" lengthAdjust="spacing" textLength="55.7197" font-family="sans-serif">"config"</text></g><g class="entity" data-qualified-name="backend.infrastructure.GMN50" id="ent0051" data-source-line="85"><path d="M879.78,839.1169 L879.78,894.5153 A0,0 0 0 0 879.78,894.5153 L1104.216,894.5153 A0,0 0 0 0 1104.216,894.5153 L1104.216,849.1169 L1094.216,839.1169 L996,839.1169 L992,779.5269 L988,839.1169 L879.78,839.1169 A0,0 0 0 0 879.78,839.1169" style="stroke:#181818;stroke-width:0.5;" fill="#FEFFDD"/><path d="M1094.216,839.1169 L1094.216,849.1169 L1104.216,849.1169 L1094.216,839.1169" style="stroke:#181818;stroke-width:0.5;" fill="#FEFFDD"/><text x="885.78" y="856.1838" fill="#000000" font-size="13" lengthAdjust="spacing" textLength="203.436" font-family="sans-serif">Spring context wiring, security,</text><text x="885.78" y="871.3166" fill="#000000" font-size="13" lengthAdjust="spacing" textLength="201.9126" font-family="sans-serif">external client parameters and</text><text x="885.78" y="886.4494" fill="#000000" font-size="13" lengthAdjust="spacing" textLength="153.8354" font-family="sans-serif">environment properties</text></g><!--reverse link domain to application--><g class="link" data-entity-1="ent0002" data-entity-2="ent0019" id="lnk54" data-source-line="92" data-link-type="dependency"><path d="M1122.9718,329.5133 C1123.0633,331.7071 1123.0149,330.5454 1123.1058,332.7245 C1123.4694,341.4409 1123.8273,350.0233 1124.1741,358.3375 C1124.5209,366.6517 1124.8565,374.6978 1125.1753,382.3418 C1125.1952,382.8195 1125.2151,383.2957 1125.2349,383.7703 C1125.2448,384.0075 1125.2547,384.2444 1125.2645,384.4809 C1125.2695,384.5991 1125.2744,384.7173 1125.2793,384.8353" style="stroke:#181818;stroke-width:1;" fill="none" id="domain-backto-application"/><polygon points="1122.7634,324.5176,1119.142,333.6765,1122.9718,329.5133,1127.135,333.3431,1122.7634,324.5176" fill="#181818" style="stroke:#181818;stroke-width:1;stroke-linejoin:miter;stroke-miterlimit:10;"/></g><!--reverse link application to infrastructure--><g class="link" data-entity-1="ent0019" data-entity-2="ent0036" id="lnk56" data-source-line="93" data-link-type="dependency"><path d="M1128,634.6532 C1128,643.8282 1128,649.5839 1128,658.3354 C1128,667.087 1128,675.5564 1128,683.6026 C1128,685.6141 1128,687.5992 1128,689.5556 C1128,689.6168 1128,689.6779 1128,689.739" style="stroke:#181818;stroke-width:1;" fill="none" id="application-backto-infrastructure"/><polygon points="1128,629.6532,1124,638.6532,1128,634.6532,1132,638.6532,1128,629.6532" fill="#181818" style="stroke:#181818;stroke-width:1;stroke-linejoin:miter;stroke-miterlimit:10;"/></g><?plantuml-src TLLBZXCn4Dtd55RMoGLO834Vn32CPZG9AuIGuwvEYkbsDRPxPW92uX3SXJr7uIHKsVrBOseHkQlyULNlLILWg41TtQ_FIBj2dMdp0BPGQrKwNOEwGBtdnM8Hg561r8v2e5eLwC049BjOf7tBNJguLDzwJq6rHhjKsgkqv91Y-x2igO1g-L4YSHdTbWBqrrCv2OZTo76m0GE2Lve1XWEW6-8Lbc2EXZFnGVCzODiQd1Q4FcwIdEI5HGS1d2EN8CHb3i8O43jhFLhmlF_PG1Dl5Y13FEMuzWqOBD6aqoeS6yWZSD2Gnq3kc62CtpaiiwZO_U1IQ0EuKXkkJG4bMhJxOLi3pgCFO0qeGpOuRK8UKShWamVtY0OIgbDV3bbcXzYba7NSLEr-aoBgpu-VGzIpN-t1TXpnIqF8aEFh-s9Nj4TpYlRxe3dTD1MQU4EKsUHxq5eHgCiaK1P-vquL_TA23r5V3dp358FYWbbVmYW4sdrcxNjLChsWpI7fyXYfpjQrPbpGYIsjiu8V8s9RURRIJAzNEmXF0BOhzR3bf1ykjhTvLXjo8RqjgzpBWr_igaZfzApz_gNkmDNeFLTrCoFvDfPYmo3r7d8ywvsFWelT8WMxPiB9hzGr15gf6xHNjrdKN8nJ8KuSkHpcOR7tp9xH_4FE7420I3LV3F4xHm9VKXJcUQJLdBjyRe9-W0DLnOIG2p9j7t_TsfYJhhXICyc_8_CWU_Xr5-y2pS__Jy9eUS7GMXDQ1r75fwv1oBh1JopAq9SZVULhCOb5NLzkjgdtgQfu70X5wirsUnT5nyDYDMnrNGiyScf5xAJLq0fZzu93Zd_jUfUpIiFkmCkgdprpHas5NBs4Fgrps2UHI15BKs7TL96QDCz70fEOpkCHARM8wlpq0bOOJdt_TCSu7Ric6HtPNfc5nTxUlPhCvpdSSMwKygVL_nUwtFJE5uviYVkkS76TBTmO4TiqZec8fCDpK4yedojcphIEHJeIpb5mBEIkyghH8imWAfd-ku5zH4SsDa3ZYCiWasUkQjRrT0QlrsspNh_ivzPCs7rqSk8l?></g></svg>