<?xml version="1.0" encoding="us-ascii" standalone="no"?><svg xmlns="http://www.w3.org/2000/svg" xmlns:xlink="http://www.w3.org/1999/xlink" contentStyleType="text/css" height="814px" preserveAspectRatio="none" style="width:1182px;height:814px;background:#FFFFFF;" version="1.1" viewBox="0 0 1182 814" width="1182px" zoomAndPan="magnify"><defs/><g><text fill="#000000" font-family="sans-serif" font-size="14" font-weight="bold" lengthAdjust="spacing" textLength="251" x="458.5" y="24.5332">Backend Class DiagramBorderColor</text><!--class PriorityStyle--><g id="elem_PriorityStyle"><rect codeLine="3" fill="#F1F1F1" height="83.2188" id="PriorityStyle" rx="2.5" ry="2.5" style="stroke:#181818;stroke-width:0.5;" width="107" x="454.5" y="536.1094"/><ellipse cx="469.5" cy="552.1094" fill="#EB937F" rx="11" ry="11" style="stroke:#181818;stroke-width:1.0;"/><path d="M468.3594,552.9063 L468.3594,555.4063 L472.6875,555.4063 L472.6875,554.4844 Q472.6875,553.875 472.9219,553.6094 Q473.1719,553.3438 473.5469,553.3438 Q473.9219,553.3438 474.1563,553.6094 Q474.3906,553.875 474.3906,554.4844 L474.3906,557.1094 L466.3906,557.1094 Q465.7656,557.1094 465.5,556.875 Q465.25,556.6406 465.25,556.25 Q465.25,555.875 465.5156,555.6406 Q465.7813,555.4063 466.3906,555.4063 L466.6563,555.4063 L466.6563,548.75 L466.3906,548.75 Q465.7656,548.75 465.5,548.5156 Q465.25,548.2813 465.25,547.8906 Q465.25,547.5156 465.5,547.2813 Q465.7656,547.0469 466.3906,547.0469 L474.0156,547.0469 L474.0156,549.6406 Q474.0156,550.25 473.7813,550.5156 Q473.5625,550.7656 473.1719,550.7656 Q472.7969,550.7656 472.5625,550.5156 Q472.3281,550.25 472.3281,549.6406 L472.3281,548.75 L468.3594,548.75 L468.3594,551.2031 L469.8438,551.2031 Q469.8438,550.5469 469.9688,550.3594 Q470.2344,549.9531 470.7031,549.9531 Q471.0781,549.9531 471.3125,550.2188 Q471.5469,550.4688 471.5469,551.0781 L471.5469,553.0469 Q471.5469,553.5938 471.4219,553.7813 Q471.1563,554.1719 470.7031,554.1719 Q470.2344,554.1719 469.9688,553.7656 Q469.8438,553.5781 469.8438,552.9063 L468.3594,552.9063 Z " fill="#000000"/><text fill="#000000" font-family="sans-serif" font-size="14" lengthAdjust="spacing" textLength="75" x="483.5" y="557.8379">PriorityStyle</text><line style="stroke:#181818;stroke-width:0.5;" x1="455.5" x2="560.5" y1="568.1094" y2="568.1094"/><text fill="#000000" font-family="sans-serif" font-size="14" lengthAdjust="spacing" textLength="65" x="460.5" y="586.6426">TERNARY</text><text fill="#000000" font-family="sans-serif" font-size="14" lengthAdjust="spacing" textLength="65" x="460.5" y="604.252">MOSCOW</text><line style="stroke:#181818;stroke-width:0.5;" x1="455.5" x2="560.5" y1="611.3281" y2="611.3281"/></g><!--class ProjectState--><g id="elem_ProjectState"><rect codeLine="8" fill="#F1F1F1" height="118.4375" id="ProjectState" rx="2.5" ry="2.5" style="stroke:#181818;stroke-width:0.5;" width="109" x="838.5" y="287.1094"/><ellipse cx="853.5" cy="303.1094" fill="#EB937F" rx="11" ry="11" style="stroke:#181818;stroke-width:1.0;"/><path d="M852.3594,303.9063 L852.3594,306.4063 L856.6875,306.4063 L856.6875,305.4844 Q856.6875,304.875 856.9219,304.6094 Q857.1719,304.3438 857.5469,304.3438 Q857.9219,304.3438 858.1563,304.6094 Q858.3906,304.875 858.3906,305.4844 L858.3906,308.1094 L850.3906,308.1094 Q849.7656,308.1094 849.5,307.875 Q849.25,307.6406 849.25,307.25 Q849.25,306.875 849.5156,306.6406 Q849.7813,306.4063 850.3906,306.4063 L850.6563,306.4063 L850.6563,299.75 L850.3906,299.75 Q849.7656,299.75 849.5,299.5156 Q849.25,299.2813 849.25,298.8906 Q849.25,298.5156 849.5,298.2813 Q849.7656,298.0469 850.3906,298.0469 L858.0156,298.0469 L858.0156,300.6406 Q858.0156,301.25 857.7813,301.5156 Q857.5625,301.7656 857.1719,301.7656 Q856.7969,301.7656 856.5625,301.5156 Q856.3281,301.25 856.3281,300.6406 L856.3281,299.75 L852.3594,299.75 L852.3594,302.2031 L853.8438,302.2031 Q853.8438,301.5469 853.9688,301.3594 Q854.2344,300.9531 854.7031,300.9531 Q855.0781,300.9531 855.3125,301.2188 Q855.5469,301.4688 855.5469,302.0781 L855.5469,304.0469 Q855.5469,304.5938 855.4219,304.7813 Q855.1563,305.1719 854.7031,305.1719 Q854.2344,305.1719 853.9688,304.7656 Q853.8438,304.5781 853.8438,303.9063 L852.3594,303.9063 Z " fill="#000000"/><text fill="#000000" font-family="sans-serif" font-size="14" lengthAdjust="spacing" textLength="77" x="867.5" y="308.8379">ProjectState</text><line style="stroke:#181818;stroke-width:0.5;" x1="839.5" x2="946.5" y1="319.1094" y2="319.1094"/><text fill="#000000" font-family="sans-serif" font-size="14" lengthAdjust="spacing" textLength="49" x="844.5" y="337.6426">ACTIVE</text><text fill="#000000" font-family="sans-serif" font-size="14" lengthAdjust="spacing" textLength="61" x="844.5" y="355.252">FINISHED</text><text fill="#000000" font-family="sans-serif" font-size="14" lengthAdjust="spacing" textLength="96" x="844.5" y="372.8613">DEACTIVATED</text><text fill="#000000" font-family="sans-serif" font-size="14" lengthAdjust="spacing" textLength="69" x="844.5" y="390.4707">REMOVED</text><line style="stroke:#181818;stroke-width:0.5;" x1="839.5" x2="946.5" y1="397.5469" y2="397.5469"/></g><!--class FunctionalityState--><g id="elem_FunctionalityState"><rect codeLine="15" fill="#F1F1F1" height="100.8281" id="FunctionalityState" rx="2.5" ry="2.5" style="stroke:#181818;stroke-width:0.5;" width="145" x="21.5" y="706.6094"/><ellipse cx="36.5" cy="722.6094" fill="#EB937F" rx="11" ry="11" style="stroke:#181818;stroke-width:1.0;"/><path d="M35.3594,723.4063 L35.3594,725.9063 L39.6875,725.9063 L39.6875,724.9844 Q39.6875,724.375 39.9219,724.1094 Q40.1719,723.8438 40.5469,723.8438 Q40.9219,723.8438 41.1563,724.1094 Q41.3906,724.375 41.3906,724.9844 L41.3906,727.6094 L33.3906,727.6094 Q32.7656,727.6094 32.5,727.375 Q32.25,727.1406 32.25,726.75 Q32.25,726.375 32.5156,726.1406 Q32.7813,725.9063 33.3906,725.9063 L33.6563,725.9063 L33.6563,719.25 L33.3906,719.25 Q32.7656,719.25 32.5,719.0156 Q32.25,718.7813 32.25,718.3906 Q32.25,718.0156 32.5,717.7813 Q32.7656,717.5469 33.3906,717.5469 L41.0156,717.5469 L41.0156,720.1406 Q41.0156,720.75 40.7813,721.0156 Q40.5625,721.2656 40.1719,721.2656 Q39.7969,721.2656 39.5625,721.0156 Q39.3281,720.75 39.3281,720.1406 L39.3281,719.25 L35.3594,719.25 L35.3594,721.7031 L36.8438,721.7031 Q36.8438,721.0469 36.9688,720.8594 Q37.2344,720.4531 37.7031,720.4531 Q38.0781,720.4531 38.3125,720.7188 Q38.5469,720.9688 38.5469,721.5781 L38.5469,723.5469 Q38.5469,724.0938 38.4219,724.2813 Q38.1563,724.6719 37.7031,724.6719 Q37.2344,724.6719 36.9688,724.2656 Q36.8438,724.0781 36.8438,723.4063 L35.3594,723.4063 Z " fill="#000000"/><text fill="#000000" font-family="sans-serif" font-size="14" lengthAdjust="spacing" textLength="113" x="50.5" y="728.3379">FunctionalityState</text><line style="stroke:#181818;stroke-width:0.5;" x1="22.5" x2="165.5" y1="738.6094" y2="738.6094"/><text fill="#000000" font-family="sans-serif" font-size="14" lengthAdjust="spacing" textLength="49" x="27.5" y="757.1426">ACTIVE</text><text fill="#000000" font-family="sans-serif" font-size="14" lengthAdjust="spacing" textLength="96" x="27.5" y="774.752">DEACTIVATED</text><text fill="#000000" font-family="sans-serif" font-size="14" lengthAdjust="spacing" textLength="69" x="27.5" y="792.3613">REMOVED</text><line style="stroke:#181818;stroke-width:0.5;" x1="22.5" x2="165.5" y1="799.4375" y2="799.4375"/></g><!--class RequirementState--><g id="elem_RequirementState"><rect codeLine="21" fill="#F1F1F1" height="136.0469" id="RequirementState" rx="2.5" ry="2.5" style="stroke:#181818;stroke-width:0.5;" width="154" x="597" y="509.6094"/><ellipse cx="615.6" cy="525.6094" fill="#EB937F" rx="11" ry="11" style="stroke:#181818;stroke-width:1.0;"/><path d="M614.4594,526.4063 L614.4594,528.9063 L618.7875,528.9063 L618.7875,527.9844 Q618.7875,527.375 619.0219,527.1094 Q619.2719,526.8438 619.6469,526.8438 Q620.0219,526.8438 620.2563,527.1094 Q620.4906,527.375 620.4906,527.9844 L620.4906,530.6094 L612.4906,530.6094 Q611.8656,530.6094 611.6,530.375 Q611.35,530.1406 611.35,529.75 Q611.35,529.375 611.6156,529.1406 Q611.8813,528.9063 612.4906,528.9063 L612.7563,528.9063 L612.7563,522.25 L612.4906,522.25 Q611.8656,522.25 611.6,522.0156 Q611.35,521.7813 611.35,521.3906 Q611.35,521.0156 611.6,520.7813 Q611.8656,520.5469 612.4906,520.5469 L620.1156,520.5469 L620.1156,523.1406 Q620.1156,523.75 619.8813,524.0156 Q619.6625,524.2656 619.2719,524.2656 Q618.8969,524.2656 618.6625,524.0156 Q618.4281,523.75 618.4281,523.1406 L618.4281,522.25 L614.4594,522.25 L614.4594,524.7031 L615.9438,524.7031 Q615.9438,524.0469 616.0688,523.8594 Q616.3344,523.4531 616.8031,523.4531 Q617.1781,523.4531 617.4125,523.7188 Q617.6469,523.9688 617.6469,524.5781 L617.6469,526.5469 Q617.6469,527.0938 617.5219,527.2813 Q617.2563,527.6719 616.8031,527.6719 Q616.3344,527.6719 616.0688,527.2656 Q615.9438,527.0781 615.9438,526.4063 L614.4594,526.4063 Z " fill="#000000"/><text fill="#000000" font-family="sans-serif" font-size="14" lengthAdjust="spacing" textLength="114" x="630.4" y="531.3379">RequirementState</text><line style="stroke:#181818;stroke-width:0.5;" x1="598" x2="750" y1="541.6094" y2="541.6094"/><text fill="#000000" font-family="sans-serif" font-size="14" lengthAdjust="spacing" textLength="142" x="603" y="560.1426">PENDING_APPROVAL</text><text fill="#000000" font-family="sans-serif" font-size="14" lengthAdjust="spacing" textLength="61" x="603" y="577.752">FINISHED</text><text fill="#000000" font-family="sans-serif" font-size="14" lengthAdjust="spacing" textLength="76" x="603" y="595.3613">APPROVED</text><text fill="#000000" font-family="sans-serif" font-size="14" lengthAdjust="spacing" textLength="96" x="603" y="612.9707">DEACTIVATED</text><text fill="#000000" font-family="sans-serif" font-size="14" lengthAdjust="spacing" textLength="69" x="603" y="630.5801">REMOVED</text><line style="stroke:#181818;stroke-width:0.5;" x1="598" x2="750" y1="637.6563" y2="637.6563"/></g><!--class ComparisonOperator--><g id="elem_ComparisonOperator"><rect codeLine="29" fill="#F1F1F1" height="100.8281" id="ComparisonOperator" rx="2.5" ry="2.5" style="stroke:#181818;stroke-width:0.5;" width="165" x="812.5" y="706.6094"/><ellipse cx="827.5" cy="722.6094" fill="#EB937F" rx="11" ry="11" style="stroke:#181818;stroke-width:1.0;"/><path d="M826.3594,723.4063 L826.3594,725.9063 L830.6875,725.9063 L830.6875,724.9844 Q830.6875,724.375 830.9219,724.1094 Q831.1719,723.8438 831.5469,723.8438 Q831.9219,723.8438 832.1563,724.1094 Q832.3906,724.375 832.3906,724.9844 L832.3906,727.6094 L824.3906,727.6094 Q823.7656,727.6094 823.5,727.375 Q823.25,727.1406 823.25,726.75 Q823.25,726.375 823.5156,726.1406 Q823.7813,725.9063 824.3906,725.9063 L824.6563,725.9063 L824.6563,719.25 L824.3906,719.25 Q823.7656,719.25 823.5,719.0156 Q823.25,718.7813 823.25,718.3906 Q823.25,718.0156 823.5,717.7813 Q823.7656,717.5469 824.3906,717.5469 L832.0156,717.5469 L832.0156,720.1406 Q832.0156,720.75 831.7813,721.0156 Q831.5625,721.2656 831.1719,721.2656 Q830.7969,721.2656 830.5625,721.0156 Q830.3281,720.75 830.3281,720.1406 L830.3281,719.25 L826.3594,719.25 L826.3594,721.7031 L827.8438,721.7031 Q827.8438,721.0469 827.9688,720.8594 Q828.2344,720.4531 828.7031,720.4531 Q829.0781,720.4531 829.3125,720.7188 Q829.5469,720.9688 829.5469,721.5781 L829.5469,723.5469 Q829.5469,724.0938 829.4219,724.2813 Q829.1563,724.6719 828.7031,724.6719 Q828.2344,724.6719 827.9688,724.2656 Q827.8438,724.0781 827.8438,723.4063 L826.3594,723.4063 Z " fill="#000000"/><text fill="#000000" font-family="sans-serif" font-size="14" lengthAdjust="spacing" textLength="133" x="841.5" y="728.3379">ComparisonOperator</text><line style="stroke:#181818;stroke-width:0.5;" x1="813.5" x2="976.5" y1="738.6094" y2="738.6094"/><text fill="#000000" font-family="sans-serif" font-size="14" lengthAdjust="spacing" textLength="74" x="818.5" y="757.1426">EQUAL_TO</text><text fill="#000000" font-family="sans-serif" font-size="14" lengthAdjust="spacing" textLength="79" x="818.5" y="774.752">LESS_THAN</text><text fill="#000000" font-family="sans-serif" font-size="14" lengthAdjust="spacing" textLength="111" x="818.5" y="792.3613">GREATER_THAN</text><line style="stroke:#181818;stroke-width:0.5;" x1="813.5" x2="976.5" y1="799.4375" y2="799.4375"/></g><!--class Project--><g id="elem_Project"><rect codeLine="35" fill="#F1F1F1" height="153.6563" id="Project" rx="2.5" ry="2.5" style="stroke:#181818;stroke-width:0.5;" width="186" x="800" y="45.6094"/><ellipse cx="866.75" cy="61.6094" fill="#ADD1B2" rx="11" ry="11" style="stroke:#181818;stroke-width:1.0;"/><path d="M869.5156,57.4844 Q869.6719,57.2656 869.8594,57.1563 Q870.0469,57.0469 870.2656,57.0469 Q870.6406,57.0469 870.875,57.3125 Q871.1094,57.5625 871.1094,58.1719 L871.1094,59.625 Q871.1094,60.2344 870.875,60.5 Q870.6406,60.7656 870.2656,60.7656 Q869.9219,60.7656 869.7188,60.5625 Q869.5156,60.375 869.4063,59.8594 Q869.3594,59.5 869.1719,59.3125 Q868.8438,58.9375 868.2344,58.7188 Q867.625,58.5 867,58.5 Q866.2344,58.5 865.5938,58.8281 Q864.9688,59.1563 864.4688,59.9063 Q863.9844,60.6563 863.9844,61.6875 L863.9844,62.7813 Q863.9844,64.0156 864.875,64.8438 Q865.7656,65.6563 867.3594,65.6563 Q868.2969,65.6563 868.9531,65.4063 Q869.3438,65.25 869.7656,64.8125 Q870.0313,64.5469 870.1719,64.4688 Q870.3281,64.3906 870.5313,64.3906 Q870.8594,64.3906 871.1094,64.6563 Q871.375,64.9063 871.375,65.25 Q871.375,65.5938 871.0313,66 Q870.5313,66.5781 869.7344,66.9063 Q868.6563,67.3594 867.3594,67.3594 Q865.8438,67.3594 864.6406,66.7344 Q863.6563,66.2344 862.9688,65.1719 Q862.2813,64.0938 862.2813,62.8125 L862.2813,61.6563 Q862.2813,60.3281 862.8906,59.1875 Q863.5156,58.0313 864.6094,57.4219 Q865.7031,56.7969 866.9375,56.7969 Q867.6719,56.7969 868.3125,56.9688 Q868.9688,57.125 869.5156,57.4844 Z " fill="#000000"/><text fill="#000000" font-family="sans-serif" font-size="14" lengthAdjust="spacing" textLength="44" x="887.25" y="67.3379">Project</text><line style="stroke:#181818;stroke-width:0.5;" x1="801" x2="985" y1="77.6094" y2="77.6094"/><rect fill="none" height="6" style="stroke:#C82930;stroke-width:1.0;" width="6" x="808" y="88.9141"/><text fill="#000000" font-family="sans-serif" font-size="14" lengthAdjust="spacing" textLength="42" x="820" y="96.1426">long id</text><rect fill="none" height="6" style="stroke:#C82930;stroke-width:1.0;" width="6" x="808" y="106.5234"/><text fill="#000000" font-family="sans-serif" font-size="14" lengthAdjust="spacing" textLength="76" x="820" y="113.752">String name</text><rect fill="none" height="6" style="stroke:#C82930;stroke-width:1.0;" width="6" x="808" y="124.1328"/><text fill="#000000" font-family="sans-serif" font-size="14" lengthAdjust="spacing" textLength="110" x="820" y="131.3613">String description</text><rect fill="none" height="6" style="stroke:#C82930;stroke-width:1.0;" width="6" x="808" y="141.7422"/><text fill="#000000" font-family="sans-serif" font-size="14" lengthAdjust="spacing" textLength="153" x="820" y="148.9707">PriorityStyle priorityStyle</text><rect fill="none" height="6" style="stroke:#C82930;stroke-width:1.0;" width="6" x="808" y="159.3516"/><text fill="#000000" font-family="sans-serif" font-size="14" lengthAdjust="spacing" textLength="112" x="820" y="166.5801">ProjectState state</text><rect fill="none" height="6" style="stroke:#C82930;stroke-width:1.0;" width="6" x="808" y="176.9609"/><text fill="#000000" font-family="sans-serif" font-size="14" lengthAdjust="spacing" textLength="160" x="820" y="184.1895">LocalDateTime createdAt</text><line style="stroke:#181818;stroke-width:0.5;" x1="801" x2="985" y1="191.2656" y2="191.2656"/></g><!--class Functionality--><g id="elem_Functionality"><rect codeLine="44" fill="#F1F1F1" height="118.4375" id="Functionality" rx="2.5" ry="2.5" style="stroke:#181818;stroke-width:0.5;" width="174" x="7" y="518.6094"/><ellipse cx="49.9" cy="534.6094" fill="#ADD1B2" rx="11" ry="11" style="stroke:#181818;stroke-width:1.0;"/><path d="M52.6656,530.4844 Q52.8219,530.2656 53.0094,530.1563 Q53.1969,530.0469 53.4156,530.0469 Q53.7906,530.0469 54.025,530.3125 Q54.2594,530.5625 54.2594,531.1719 L54.2594,532.625 Q54.2594,533.2344 54.025,533.5 Q53.7906,533.7656 53.4156,533.7656 Q53.0719,533.7656 52.8688,533.5625 Q52.6656,533.375 52.5563,532.8594 Q52.5094,532.5 52.3219,532.3125 Q51.9938,531.9375 51.3844,531.7188 Q50.775,531.5 50.15,531.5 Q49.3844,531.5 48.7438,531.8281 Q48.1188,532.1563 47.6188,532.9063 Q47.1344,533.6563 47.1344,534.6875 L47.1344,535.7813 Q47.1344,537.0156 48.025,537.8438 Q48.9156,538.6563 50.5094,538.6563 Q51.4469,538.6563 52.1031,538.4063 Q52.4938,538.25 52.9156,537.8125 Q53.1813,537.5469 53.3219,537.4688 Q53.4781,537.3906 53.6813,537.3906 Q54.0094,537.3906 54.2594,537.6563 Q54.525,537.9063 54.525,538.25 Q54.525,538.5938 54.1813,539 Q53.6813,539.5781 52.8844,539.9063 Q51.8063,540.3594 50.5094,540.3594 Q48.9938,540.3594 47.7906,539.7344 Q46.8063,539.2344 46.1188,538.1719 Q45.4313,537.0938 45.4313,535.8125 L45.4313,534.6563 Q45.4313,533.3281 46.0406,532.1875 Q46.6656,531.0313 47.7594,530.4219 Q48.8531,529.7969 50.0875,529.7969 Q50.8219,529.7969 51.4625,529.9688 Q52.1188,530.125 52.6656,530.4844 Z " fill="#000000"/><text fill="#000000" font-family="sans-serif" font-size="14" lengthAdjust="spacing" textLength="80" x="70.1" y="540.3379">Functionality</text><line style="stroke:#181818;stroke-width:0.5;" x1="8" x2="180" y1="550.6094" y2="550.6094"/><rect fill="none" height="6" style="stroke:#C82930;stroke-width:1.0;" width="6" x="15" y="561.9141"/><text fill="#000000" font-family="sans-serif" font-size="14" lengthAdjust="spacing" textLength="42" x="27" y="569.1426">long id</text><rect fill="none" height="6" style="stroke:#C82930;stroke-width:1.0;" width="6" x="15" y="579.5234"/><text fill="#000000" font-family="sans-serif" font-size="14" lengthAdjust="spacing" textLength="76" x="27" y="586.752">String name</text><rect fill="none" height="6" style="stroke:#C82930;stroke-width:1.0;" width="6" x="15" y="597.1328"/><text fill="#000000" font-family="sans-serif" font-size="14" lengthAdjust="spacing" textLength="71" x="27" y="604.3613">String label</text><rect fill="none" height="6" style="stroke:#C82930;stroke-width:1.0;" width="6" x="15" y="614.7422"/><text fill="#000000" font-family="sans-serif" font-size="14" lengthAdjust="spacing" textLength="148" x="27" y="621.9707">FunctionalityState state</text><line style="stroke:#181818;stroke-width:0.5;" x1="8" x2="180" y1="629.0469" y2="629.0469"/></g><!--class Requirement--><g id="elem_Requirement"><rect codeLine="51" fill="#F1F1F1" height="171.2656" id="Requirement" rx="2.5" ry="2.5" style="stroke:#181818;stroke-width:0.5;" width="189" x="369.5" y="260.6094"/><ellipse cx="419.25" cy="276.6094" fill="#A9DCDF" rx="11" ry="11" style="stroke:#181818;stroke-width:1.0;"/><path d="M421.4375,278.375 L417.2969,278.375 L416.875,279.4063 L417.2969,279.4063 Q417.9063,279.4063 418.1719,279.6406 Q418.4375,279.875 418.4375,280.2656 Q418.4375,280.6406 418.1719,280.875 Q417.9063,281.1094 417.2969,281.1094 L415,281.1094 Q414.3906,281.1094 414.1406,280.875 Q413.875,280.6406 413.875,280.25 Q413.875,279.875 414.1563,279.6406 Q414.4219,279.3906 415.0469,279.4063 L417.7188,272.75 L416.6094,272.75 Q416,272.75 415.7344,272.5156 Q415.4688,272.2813 415.4688,271.8906 Q415.4688,271.5156 415.7344,271.2813 Q416,271.0469 416.6094,271.0469 L420.2813,271.0469 L423.6719,279.4063 Q424.2656,279.4063 424.4531,279.5469 Q424.8438,279.8125 424.8438,280.2656 Q424.8438,280.6406 424.5781,280.875 Q424.3281,281.1094 423.7188,281.1094 L421.4219,281.1094 Q420.8125,281.1094 420.5469,280.875 Q420.2813,280.6406 420.2813,280.25 Q420.2813,279.875 420.5469,279.6406 Q420.8125,279.4063 421.4219,279.4063 L421.8438,279.4063 L421.4375,278.375 Z M420.7188,276.6719 L419.3594,273.2969 L417.9844,276.6719 L420.7188,276.6719 Z " fill="#000000"/><text fill="#000000" font-family="sans-serif" font-size="14" font-style="italic" lengthAdjust="spacing" textLength="81" x="439.75" y="282.3379">Requirement</text><line style="stroke:#181818;stroke-width:0.5;" x1="370.5" x2="557.5" y1="292.6094" y2="292.6094"/><rect fill="none" height="6" style="stroke:#C82930;stroke-width:1.0;" width="6" x="377.5" y="303.9141"/><text fill="#000000" font-family="sans-serif" font-size="14" lengthAdjust="spacing" textLength="42" x="389.5" y="311.1426">long id</text><rect fill="none" height="6" style="stroke:#C82930;stroke-width:1.0;" width="6" x="377.5" y="321.5234"/><text fill="#000000" font-family="sans-serif" font-size="14" lengthAdjust="spacing" textLength="67" x="389.5" y="328.752">String slug</text><rect fill="none" height="6" style="stroke:#C82930;stroke-width:1.0;" width="6" x="377.5" y="339.1328"/><text fill="#000000" font-family="sans-serif" font-size="14" lengthAdjust="spacing" textLength="106" x="389.5" y="346.3613">Float orderValue</text><rect fill="none" height="6" style="stroke:#C82930;stroke-width:1.0;" width="6" x="377.5" y="356.7422"/><text fill="#000000" font-family="sans-serif" font-size="14" lengthAdjust="spacing" textLength="76" x="389.5" y="363.9707">String name</text><rect fill="none" height="6" style="stroke:#C82930;stroke-width:1.0;" width="6" x="377.5" y="374.3516"/><text fill="#000000" font-family="sans-serif" font-size="14" lengthAdjust="spacing" textLength="110" x="389.5" y="381.5801">String description</text><rect fill="none" height="6" style="stroke:#C82930;stroke-width:1.0;" width="6" x="377.5" y="391.9609"/><text fill="#000000" font-family="sans-serif" font-size="14" lengthAdjust="spacing" textLength="149" x="389.5" y="399.1895">RequirementState state</text><rect fill="none" height="6" style="stroke:#C82930;stroke-width:1.0;" width="6" x="377.5" y="409.5703"/><text fill="#000000" font-family="sans-serif" font-size="14" lengthAdjust="spacing" textLength="163" x="389.5" y="416.7988">Boolean isPendingReview</text><line style="stroke:#181818;stroke-width:0.5;" x1="370.5" x2="557.5" y1="423.875" y2="423.875"/></g><!--class FunctionalRequirement--><g id="elem_FunctionalRequirement"><rect codeLine="61" fill="#F1F1F1" height="83.2188" id="FunctionalRequirement" rx="2.5" ry="2.5" style="stroke:#181818;stroke-width:0.5;" width="179" x="273.5" y="715.6094"/><ellipse cx="288.5" cy="731.6094" fill="#ADD1B2" rx="11" ry="11" style="stroke:#181818;stroke-width:1.0;"/><path d="M291.2656,727.4844 Q291.4219,727.2656 291.6094,727.1563 Q291.7969,727.0469 292.0156,727.0469 Q292.3906,727.0469 292.625,727.3125 Q292.8594,727.5625 292.8594,728.1719 L292.8594,729.625 Q292.8594,730.2344 292.625,730.5 Q292.3906,730.7656 292.0156,730.7656 Q291.6719,730.7656 291.4688,730.5625 Q291.2656,730.375 291.1563,729.8594 Q291.1094,729.5 290.9219,729.3125 Q290.5938,728.9375 289.9844,728.7188 Q289.375,728.5 288.75,728.5 Q287.9844,728.5 287.3438,728.8281 Q286.7188,729.1563 286.2188,729.9063 Q285.7344,730.6563 285.7344,731.6875 L285.7344,732.7813 Q285.7344,734.0156 286.625,734.8438 Q287.5156,735.6563 289.1094,735.6563 Q290.0469,735.6563 290.7031,735.4063 Q291.0938,735.25 291.5156,734.8125 Q291.7813,734.5469 291.9219,734.4688 Q292.0781,734.3906 292.2813,734.3906 Q292.6094,734.3906 292.8594,734.6563 Q293.125,734.9063 293.125,735.25 Q293.125,735.5938 292.7813,736 Q292.2813,736.5781 291.4844,736.9063 Q290.4063,737.3594 289.1094,737.3594 Q287.5938,737.3594 286.3906,736.7344 Q285.4063,736.2344 284.7188,735.1719 Q284.0313,734.0938 284.0313,732.8125 L284.0313,731.6563 Q284.0313,730.3281 284.6406,729.1875 Q285.2656,728.0313 286.3594,727.4219 Q287.4531,726.7969 288.6875,726.7969 Q289.4219,726.7969 290.0625,726.9688 Q290.7188,727.125 291.2656,727.4844 Z " fill="#000000"/><text fill="#000000" font-family="sans-serif" font-size="14" lengthAdjust="spacing" textLength="147" x="302.5" y="737.3379">FunctionalRequirement</text><line style="stroke:#181818;stroke-width:0.5;" x1="274.5" x2="451.5" y1="747.6094" y2="747.6094"/><rect fill="none" height="6" style="stroke:#C82930;stroke-width:1.0;" width="6" x="281.5" y="758.9141"/><text fill="#000000" font-family="sans-serif" font-size="14" lengthAdjust="spacing" textLength="84" x="293.5" y="766.1426">String priority</text><rect fill="none" height="6" style="stroke:#C82930;stroke-width:1.0;" width="6" x="281.5" y="776.5234"/><text fill="#000000" font-family="sans-serif" font-size="14" lengthAdjust="spacing" textLength="88" x="293.5" y="783.752">String stability</text><line style="stroke:#181818;stroke-width:0.5;" x1="274.5" x2="451.5" y1="790.8281" y2="790.8281"/></g><!--class NonFunctionalRequirement--><g id="elem_NonFunctionalRequirement"><rect codeLine="66" fill="#F1F1F1" height="136.0469" id="NonFunctionalRequirement" rx="2.5" ry="2.5" style="stroke:#181818;stroke-width:0.5;" width="217" x="786.5" y="509.6094"/><ellipse cx="807.35" cy="525.6094" fill="#ADD1B2" rx="11" ry="11" style="stroke:#181818;stroke-width:1.0;"/><path d="M810.1156,521.4844 Q810.2719,521.2656 810.4594,521.1563 Q810.6469,521.0469 810.8656,521.0469 Q811.2406,521.0469 811.475,521.3125 Q811.7094,521.5625 811.7094,522.1719 L811.7094,523.625 Q811.7094,524.2344 811.475,524.5 Q811.2406,524.7656 810.8656,524.7656 Q810.5219,524.7656 810.3188,524.5625 Q810.1156,524.375 810.0063,523.8594 Q809.9594,523.5 809.7719,523.3125 Q809.4438,522.9375 808.8344,522.7188 Q808.225,522.5 807.6,522.5 Q806.8344,522.5 806.1938,522.8281 Q805.5688,523.1563 805.0688,523.9063 Q804.5844,524.6563 804.5844,525.6875 L804.5844,526.7813 Q804.5844,528.0156 805.475,528.8438 Q806.3656,529.6563 807.9594,529.6563 Q808.8969,529.6563 809.5531,529.4063 Q809.9438,529.25 810.3656,528.8125 Q810.6313,528.5469 810.7719,528.4688 Q810.9281,528.3906 811.1313,528.3906 Q811.4594,528.3906 811.7094,528.6563 Q811.975,528.9063 811.975,529.25 Q811.975,529.5938 811.6313,530 Q811.1313,530.5781 810.3344,530.9063 Q809.2563,531.3594 807.9594,531.3594 Q806.4438,531.3594 805.2406,530.7344 Q804.2563,530.2344 803.5688,529.1719 Q802.8813,528.0938 802.8813,526.8125 L802.8813,525.6563 Q802.8813,524.3281 803.4906,523.1875 Q804.1156,522.0313 805.2094,521.4219 Q806.3031,520.7969 807.5375,520.7969 Q808.2719,520.7969 808.9125,520.9688 Q809.5688,521.125 810.1156,521.4844 Z " fill="#000000"/><text fill="#000000" font-family="sans-serif" font-size="14" lengthAdjust="spacing" textLength="172" x="822.65" y="531.3379">NonFunctionalRequirement</text><line style="stroke:#181818;stroke-width:0.5;" x1="787.5" x2="1002.5" y1="541.6094" y2="541.6094"/><rect fill="none" height="6" style="stroke:#C82930;stroke-width:1.0;" width="6" x="794.5" y="552.9141"/><text fill="#000000" font-family="sans-serif" font-size="14" lengthAdjust="spacing" textLength="151" x="806.5" y="560.1426">String measurementUnit</text><rect fill="none" height="6" style="stroke:#C82930;stroke-width:1.0;" width="6" x="794.5" y="570.5234"/><text fill="#000000" font-family="sans-serif" font-size="14" lengthAdjust="spacing" textLength="191" x="806.5" y="577.752">ComparisonOperator operator</text><rect fill="none" height="6" style="stroke:#C82930;stroke-width:1.0;" width="6" x="794.5" y="588.1328"/><text fill="#000000" font-family="sans-serif" font-size="14" lengthAdjust="spacing" textLength="144" x="806.5" y="595.3613">Double thresholdValue</text><rect fill="none" height="6" style="stroke:#C82930;stroke-width:1.0;" width="6" x="794.5" y="605.7422"/><text fill="#000000" font-family="sans-serif" font-size="14" lengthAdjust="spacing" textLength="122" x="806.5" y="612.9707">Double targetValue</text><rect fill="none" height="6" style="stroke:#C82930;stroke-width:1.0;" width="6" x="794.5" y="623.3516"/><text fill="#000000" font-family="sans-serif" font-size="14" lengthAdjust="spacing" textLength="123" x="806.5" y="630.5801">Double actualValue</text><line style="stroke:#181818;stroke-width:0.5;" x1="787.5" x2="1002.5" y1="637.6563" y2="637.6563"/></g><!--class Stakeholder--><g id="elem_Stakeholder"><rect codeLine="74" fill="#F1F1F1" height="100.8281" id="Stakeholder" rx="2.5" ry="2.5" style="stroke:#181818;stroke-width:0.5;" width="136" x="1039" y="527.1094"/><ellipse cx="1066.6" cy="543.1094" fill="#ADD1B2" rx="11" ry="11" style="stroke:#181818;stroke-width:1.0;"/><path d="M1069.3656,538.9844 Q1069.5219,538.7656 1069.7094,538.6563 Q1069.8969,538.5469 1070.1156,538.5469 Q1070.4906,538.5469 1070.725,538.8125 Q1070.9594,539.0625 1070.9594,539.6719 L1070.9594,541.125 Q1070.9594,541.7344 1070.725,542 Q1070.4906,542.2656 1070.1156,542.2656 Q1069.7719,542.2656 1069.5688,542.0625 Q1069.3656,541.875 1069.2563,541.3594 Q1069.2094,541 1069.0219,540.8125 Q1068.6938,540.4375 1068.0844,540.2188 Q1067.475,540 1066.85,540 Q1066.0844,540 1065.4438,540.3281 Q1064.8188,540.6563 1064.3188,541.4063 Q1063.8344,542.1563 1063.8344,543.1875 L1063.8344,544.2813 Q1063.8344,545.5156 1064.725,546.3438 Q1065.6156,547.1563 1067.2094,547.1563 Q1068.1469,547.1563 1068.8031,546.9063 Q1069.1938,546.75 1069.6156,546.3125 Q1069.8813,546.0469 1070.0219,545.9688 Q1070.1781,545.8906 1070.3813,545.8906 Q1070.7094,545.8906 1070.9594,546.1563 Q1071.225,546.4063 1071.225,546.75 Q1071.225,547.0938 1070.8813,547.5 Q1070.3813,548.0781 1069.5844,548.4063 Q1068.5063,548.8594 1067.2094,548.8594 Q1065.6938,548.8594 1064.4906,548.2344 Q1063.5063,547.7344 1062.8188,546.6719 Q1062.1313,545.5938 1062.1313,544.3125 L1062.1313,543.1563 Q1062.1313,541.8281 1062.7406,540.6875 Q1063.3656,539.5313 1064.4594,538.9219 Q1065.5531,538.2969 1066.7875,538.2969 Q1067.5219,538.2969 1068.1625,538.4688 Q1068.8188,538.625 1069.3656,538.9844 Z " fill="#000000"/><text fill="#000000" font-family="sans-serif" font-size="14" lengthAdjust="spacing" textLength="76" x="1083.4" y="548.8379">Stakeholder</text><line style="stroke:#181818;stroke-width:0.5;" x1="1040" x2="1174" y1="559.1094" y2="559.1094"/><rect fill="none" height="6" style="stroke:#C82930;stroke-width:1.0;" width="6" x="1047" y="570.4141"/><text fill="#000000" font-family="sans-serif" font-size="14" lengthAdjust="spacing" textLength="42" x="1059" y="577.6426">long id</text><rect fill="none" height="6" style="stroke:#C82930;stroke-width:1.0;" width="6" x="1047" y="588.0234"/><text fill="#000000" font-family="sans-serif" font-size="14" lengthAdjust="spacing" textLength="76" x="1059" y="595.252">String name</text><rect fill="none" height="6" style="stroke:#C82930;stroke-width:1.0;" width="6" x="1047" y="605.6328"/><text fill="#000000" font-family="sans-serif" font-size="14" lengthAdjust="spacing" textLength="110" x="1059" y="612.8613">String description</text><line style="stroke:#181818;stroke-width:0.5;" x1="1040" x2="1174" y1="619.9375" y2="619.9375"/></g><!--class Document--><g id="elem_Document"><rect codeLine="80" fill="#F1F1F1" height="118.4375" id="Document" rx="2.5" ry="2.5" style="stroke:#181818;stroke-width:0.5;" width="132" x="216" y="518.6094"/><ellipse cx="247.2" cy="534.6094" fill="#ADD1B2" rx="11" ry="11" style="stroke:#181818;stroke-width:1.0;"/><path d="M249.9656,530.4844 Q250.1219,530.2656 250.3094,530.1563 Q250.4969,530.0469 250.7156,530.0469 Q251.0906,530.0469 251.325,530.3125 Q251.5594,530.5625 251.5594,531.1719 L251.5594,532.625 Q251.5594,533.2344 251.325,533.5 Q251.0906,533.7656 250.7156,533.7656 Q250.3719,533.7656 250.1688,533.5625 Q249.9656,533.375 249.8563,532.8594 Q249.8094,532.5 249.6219,532.3125 Q249.2938,531.9375 248.6844,531.7188 Q248.075,531.5 247.45,531.5 Q246.6844,531.5 246.0438,531.8281 Q245.4188,532.1563 244.9188,532.9063 Q244.4344,533.6563 244.4344,534.6875 L244.4344,535.7813 Q244.4344,537.0156 245.325,537.8438 Q246.2156,538.6563 247.8094,538.6563 Q248.7469,538.6563 249.4031,538.4063 Q249.7938,538.25 250.2156,537.8125 Q250.4813,537.5469 250.6219,537.4688 Q250.7781,537.3906 250.9813,537.3906 Q251.3094,537.3906 251.5594,537.6563 Q251.825,537.9063 251.825,538.25 Q251.825,538.5938 251.4813,539 Q250.9813,539.5781 250.1844,539.9063 Q249.1063,540.3594 247.8094,540.3594 Q246.2938,540.3594 245.0906,539.7344 Q244.1063,539.2344 243.4188,538.1719 Q242.7313,537.0938 242.7313,535.8125 L242.7313,534.6563 Q242.7313,533.3281 243.3406,532.1875 Q243.9656,531.0313 245.0594,530.4219 Q246.1531,529.7969 247.3875,529.7969 Q248.1219,529.7969 248.7625,529.9688 Q249.4188,530.125 249.9656,530.4844 Z " fill="#000000"/><text fill="#000000" font-family="sans-serif" font-size="14" lengthAdjust="spacing" textLength="64" x="264.8" y="540.3379">Document</text><line style="stroke:#181818;stroke-width:0.5;" x1="217" x2="347" y1="550.6094" y2="550.6094"/><rect fill="none" height="6" style="stroke:#C82930;stroke-width:1.0;" width="6" x="224" y="561.9141"/><text fill="#000000" font-family="sans-serif" font-size="14" lengthAdjust="spacing" textLength="42" x="236" y="569.1426">long id</text><rect fill="none" height="6" style="stroke:#C82930;stroke-width:1.0;" width="6" x="224" y="579.5234"/><text fill="#000000" font-family="sans-serif" font-size="14" lengthAdjust="spacing" textLength="95" x="236" y="586.752">String fileName</text><rect fill="none" height="6" style="stroke:#C82930;stroke-width:1.0;" width="6" x="224" y="597.1328"/><text fill="#000000" font-family="sans-serif" font-size="14" lengthAdjust="spacing" textLength="106" x="236" y="604.3613">String mimeType</text><rect fill="none" height="6" style="stroke:#C82930;stroke-width:1.0;" width="6" x="224" y="614.7422"/><text fill="#000000" font-family="sans-serif" font-size="14" lengthAdjust="spacing" textLength="86" x="236" y="621.9707">byte[] content</text><line style="stroke:#181818;stroke-width:0.5;" x1="217" x2="347" y1="629.0469" y2="629.0469"/></g><!--class User--><g id="elem_User"><rect codeLine="87" fill="#F1F1F1" height="136.0469" id="User" rx="2.5" ry="2.5" style="stroke:#181818;stroke-width:0.5;" width="122" x="1021" y="54.6094"/><ellipse cx="1063.45" cy="70.6094" fill="#ADD1B2" rx="11" ry="11" style="stroke:#181818;stroke-width:1.0;"/><path d="M1066.2156,66.4844 Q1066.3719,66.2656 1066.5594,66.1563 Q1066.7469,66.0469 1066.9656,66.0469 Q1067.3406,66.0469 1067.575,66.3125 Q1067.8094,66.5625 1067.8094,67.1719 L1067.8094,68.625 Q1067.8094,69.2344 1067.575,69.5 Q1067.3406,69.7656 1066.9656,69.7656 Q1066.6219,69.7656 1066.4188,69.5625 Q1066.2156,69.375 1066.1063,68.8594 Q1066.0594,68.5 1065.8719,68.3125 Q1065.5438,67.9375 1064.9344,67.7188 Q1064.325,67.5 1063.7,67.5 Q1062.9344,67.5 1062.2938,67.8281 Q1061.6688,68.1563 1061.1688,68.9063 Q1060.6844,69.6563 1060.6844,70.6875 L1060.6844,71.7813 Q1060.6844,73.0156 1061.575,73.8438 Q1062.4656,74.6563 1064.0594,74.6563 Q1064.9969,74.6563 1065.6531,74.4063 Q1066.0438,74.25 1066.4656,73.8125 Q1066.7313,73.5469 1066.8719,73.4688 Q1067.0281,73.3906 1067.2313,73.3906 Q1067.5594,73.3906 1067.8094,73.6563 Q1068.075,73.9063 1068.075,74.25 Q1068.075,74.5938 1067.7313,75 Q1067.2313,75.5781 1066.4344,75.9063 Q1065.3563,76.3594 1064.0594,76.3594 Q1062.5438,76.3594 1061.3406,75.7344 Q1060.3563,75.2344 1059.6688,74.1719 Q1058.9813,73.0938 1058.9813,71.8125 L1058.9813,70.6563 Q1058.9813,69.3281 1059.5906,68.1875 Q1060.2156,67.0313 1061.3094,66.4219 Q1062.4031,65.7969 1063.6375,65.7969 Q1064.3719,65.7969 1065.0125,65.9688 Q1065.6688,66.125 1066.2156,66.4844 Z " fill="#000000"/><text fill="#000000" font-family="sans-serif" font-size="14" lengthAdjust="spacing" textLength="29" x="1083.55" y="76.3379">User</text><line style="stroke:#181818;stroke-width:0.5;" x1="1022" x2="1142" y1="86.6094" y2="86.6094"/><rect fill="none" height="6" style="stroke:#C82930;stroke-width:1.0;" width="6" x="1029" y="97.9141"/><text fill="#000000" font-family="sans-serif" font-size="14" lengthAdjust="spacing" textLength="42" x="1041" y="105.1426">long id</text><rect fill="none" height="6" style="stroke:#C82930;stroke-width:1.0;" width="6" x="1029" y="115.5234"/><text fill="#000000" font-family="sans-serif" font-size="14" lengthAdjust="spacing" textLength="74" x="1041" y="122.752">String email</text><rect fill="none" height="6" style="stroke:#C82930;stroke-width:1.0;" width="6" x="1029" y="133.1328"/><text fill="#000000" font-family="sans-serif" font-size="14" lengthAdjust="spacing" textLength="76" x="1041" y="140.3613">String name</text><rect fill="none" height="6" style="stroke:#C82930;stroke-width:1.0;" width="6" x="1029" y="150.7422"/><text fill="#000000" font-family="sans-serif" font-size="14" lengthAdjust="spacing" textLength="96" x="1041" y="157.9707">String surname</text><rect fill="none" height="6" style="stroke:#C82930;stroke-width:1.0;" width="6" x="1029" y="168.3516"/><text fill="#000000" font-family="sans-serif" font-size="14" lengthAdjust="spacing" textLength="93" x="1041" y="175.5801">Boolean active</text><line style="stroke:#181818;stroke-width:0.5;" x1="1022" x2="1142" y1="182.6563" y2="182.6563"/></g><!--link Project to ProjectState--><g id="link_Project_ProjectState"><path codeLine="95" d="M893,199.8394 C893,228.3694 893,260.2994 893,286.9394 " fill="none" id="Project-ProjectState" style="stroke:#181818;stroke-width:1.0;stroke-dasharray:7.0,7.0;"/><text fill="#000000" font-family="sans-serif" font-size="13" lengthAdjust="spacing" textLength="7" x="885.6992" y="220.6888">1</text><text fill="#000000" font-family="sans-serif" font-size="13" lengthAdjust="spacing" textLength="7" x="885.5734" y="276.2429">1</text></g><!--link Functionality to FunctionalityState--><g id="link_Functionality_FunctionalityState"><path codeLine="96" d="M94,636.7294 C94,659.2794 94,684.8294 94,706.4894 " fill="none" id="Functionality-FunctionalityState" style="stroke:#181818;stroke-width:1.0;stroke-dasharray:7.0,7.0;"/><text fill="#000000" font-family="sans-serif" font-size="13" lengthAdjust="spacing" textLength="7" x="86.5734" y="658.3995">1</text><text fill="#000000" font-family="sans-serif" font-size="13" lengthAdjust="spacing" textLength="7" x="86.5078" y="695.7779">1</text></g><!--link Requirement to RequirementState--><g id="link_Requirement_RequirementState"><path codeLine="97" d="M541.6,431.9194 C564.97,457.4494 590.28,485.1194 612.46,509.3494 " fill="none" id="Requirement-RequirementState" style="stroke:#181818;stroke-width:1.0;stroke-dasharray:7.0,7.0;"/><text fill="#000000" font-family="sans-serif" font-size="13" lengthAdjust="spacing" textLength="7" x="540.968" y="453.48">1</text><text fill="#000000" font-family="sans-serif" font-size="13" lengthAdjust="spacing" textLength="7" x="598.3463" y="498.5202">1</text></g><!--link Requirement to PriorityStyle--><g id="link_Requirement_PriorityStyle"><path codeLine="98" d="M480.26,431.9194 C487.06,467.4094 494.66,507.0194 500.18,535.8094 " fill="none" id="Requirement-PriorityStyle" style="stroke:#181818;stroke-width:1.0;stroke-dasharray:7.0,7.0;"/><text fill="#000000" font-family="sans-serif" font-size="13" lengthAdjust="spacing" textLength="7" x="474.3566" y="453.48">1</text><text fill="#000000" font-family="sans-serif" font-size="13" lengthAdjust="spacing" textLength="7" x="491.3759" y="525.3782">1</text></g><!--link NonFunctionalRequirement to ComparisonOperator--><g id="link_NonFunctionalRequirement_ComparisonOperator"><path codeLine="99" d="M895,645.7194 C895,665.8394 895,687.5494 895,706.3394 " fill="none" id="NonFunctionalRequirement-ComparisonOperator" style="stroke:#181818;stroke-width:1.0;stroke-dasharray:7.0,7.0;"/><text fill="#000000" font-family="sans-serif" font-size="13" lengthAdjust="spacing" textLength="7" x="887.6391" y="667.079">1</text><text fill="#000000" font-family="sans-serif" font-size="13" lengthAdjust="spacing" textLength="7" x="887.5078" y="695.6068">1</text></g><!--reverse link Project to Functionality--><g id="link_Project_Functionality"><path codeLine="101" d="M788.0561,135.9946 C636.3561,155.3046 356.38,197.9894 275,260.6094 C188.69,327.0294 136.59,447.1294 111.73,518.5994 " fill="none" id="Project-backto-Functionality" style="stroke:#181818;stroke-width:1.0;"/><polygon fill="#181818" points="799.96,134.4794,793.5029,131.269,788.0561,135.9946,794.5131,139.205,799.96,134.4794" style="stroke:#181818;stroke-width:1.0;"/><text fill="#000000" font-family="sans-serif" font-size="13" lengthAdjust="spacing" textLength="7" x="784.9653" y="132.3238">1</text><text fill="#000000" font-family="sans-serif" font-size="13" lengthAdjust="spacing" textLength="20" x="92.6721" y="507.9224">0..*</text></g><!--reverse link Project to NonFunctionalRequirement--><g id="link_Project_NonFunctionalRequirement"><path codeLine="102" d="M945.642,210.554 C955.492,229.734 959.16,240.0594 965,260.6094 C991.64,354.4294 1013.07,388.2194 979,479.6094 C975.11,490.0494 969.53,500.1094 963.08,509.5394 " fill="none" id="Project-backto-NonFunctionalRequirement" style="stroke:#181818;stroke-width:1.0;"/><polygon fill="#181818" points="940.16,199.8794,939.3428,207.044,945.642,210.554,946.4592,203.3893,940.16,199.8794" style="stroke:#181818;stroke-width:1.0;"/><text fill="#000000" font-family="sans-serif" font-size="13" lengthAdjust="spacing" textLength="7" x="936.912" y="220.7323">1</text><text fill="#000000" font-family="sans-serif" font-size="13" lengthAdjust="spacing" textLength="20" x="949.4325" y="498.731">0..*</text></g><!--reverse link Project to Document--><g id="link_Project_Document"><path codeLine="103" d="M787.8755,137.0104 C650.0755,156.2704 413.53,197.2094 352,260.6094 C284.99,329.6694 276.31,447.7394 277.9,518.3494 " fill="none" id="Project-backto-Document" style="stroke:#181818;stroke-width:1.0;"/><polygon fill="#181818" points="799.76,135.3494,793.2641,132.2184,787.8755,137.0104,794.3714,140.1414,799.76,135.3494" style="stroke:#181818;stroke-width:1.0;"/><text fill="#000000" font-family="sans-serif" font-size="13" lengthAdjust="spacing" textLength="7" x="785.051" y="150.5249">1</text><text fill="#000000" font-family="sans-serif" font-size="13" lengthAdjust="spacing" textLength="20" x="256.1816" y="507.6419">0..*</text></g><!--reverse link Project to Stakeholder--><g id="link_Project_Stakeholder"><path codeLine="104" d="M972.0335,209.298 C987.2035,228.148 994.55,239.6394 1006,260.6094 C1053.94,348.4494 1083.33,462.6194 1097.27,526.9194 " fill="none" id="Project-backto-Stakeholder" style="stroke:#181818;stroke-width:1.0;"/><polygon fill="#181818" points="964.51,199.9494,965.1556,207.1315,972.0335,209.298,971.388,202.1158,964.51,199.9494" style="stroke:#181818;stroke-width:1.0;"/><text fill="#000000" font-family="sans-serif" font-size="13" lengthAdjust="spacing" textLength="7" x="963.3546" y="220.8083">1</text><text fill="#000000" font-family="sans-serif" font-size="13" lengthAdjust="spacing" textLength="20" x="1074.4955" y="516.198">0..*</text></g><!--reverse link Functionality to FunctionalRequirement--><g id="link_Functionality_FunctionalRequirement"><path codeLine="106" d="M191.3564,642.8478 C230.4764,668.6578 265.67,691.8894 301.21,715.3294 " fill="none" id="Functionality-backto-FunctionalRequirement" style="stroke:#181818;stroke-width:1.0;"/><polygon fill="#181818" points="181.34,636.2394,184.1454,642.8824,191.3564,642.8478,188.551,636.2048,181.34,636.2394" style="stroke:#181818;stroke-width:1.0;"/><text fill="#000000" font-family="sans-serif" font-size="13" lengthAdjust="spacing" textLength="7" x="185.606" y="658.6821">1</text><text fill="#000000" font-family="sans-serif" font-size="13" lengthAdjust="spacing" textLength="20" x="269.7685" y="704.9014">0..*</text></g><!--reverse link Requirement to FunctionalRequirement--><g id="link_Requirement_FunctionalRequirement"><path codeLine="108" d="M438.7561,449.3348 C417.3561,536.0248 389.31,649.5694 373.06,715.3594 " fill="none" id="Requirement-backto-FunctionalRequirement" style="stroke:#181818;stroke-width:1.0;"/><polygon fill="none" points="443.07,431.8594,432.9309,447.8968,444.5812,450.7728,443.07,431.8594" style="stroke:#181818;stroke-width:1.0;"/></g><!--reverse link Requirement to NonFunctionalRequirement--><g id="link_Requirement_NonFunctionalRequirement"><path codeLine="109" d="M574.4681,405.9292 C641.6281,441.6892 716.05,481.3194 786.19,518.6694 " fill="none" id="Requirement-backto-NonFunctionalRequirement" style="stroke:#181818;stroke-width:1.0;"/><polygon fill="none" points="558.58,397.4694,571.6482,411.2252,577.288,400.6331,558.58,397.4694" style="stroke:#181818;stroke-width:1.0;"/></g><!--link Requirement to Stakeholder--><g id="link_Requirement_Stakeholder"><path codeLine="111" d="M558.51,370.0894 C695,404.0494 939.84,468.0894 1021,509.6094 C1030.6,514.5194 1040.2,520.5694 1049.3,526.9994 " fill="none" id="Requirement-Stakeholder" style="stroke:#181818;stroke-width:1.0;"/><text fill="#000000" font-family="sans-serif" font-size="13" lengthAdjust="spacing" textLength="34" x="944" y="476.1045">linked</text><text fill="#000000" font-family="sans-serif" font-size="13" lengthAdjust="spacing" textLength="20" x="566.5039" y="372.8921">0..*</text><text fill="#000000" font-family="sans-serif" font-size="13" lengthAdjust="spacing" textLength="20" x="1019.7797" y="516.2893">0..*</text></g><!--reverse link Requirement to Requirement--><g id="link_Requirement_Requirement"><path codeLine="112" d="M570.5639,336.1905 C590.8239,337.2405 593.5,340.1294 593.5,346.1094 C593.5,352.0894 578.84,355.5994 558.58,356.6494 " fill="none" id="Requirement-backto-Requirement" style="stroke:#181818;stroke-width:1.0;"/><polygon fill="none" points="558.58,335.5694,564.3649,339.8746,570.5639,336.1905,564.779,331.8853,558.58,335.5694" style="stroke:#181818;stroke-width:1.0;"/><text fill="#000000" font-family="sans-serif" font-size="13" lengthAdjust="spacing" textLength="79" x="599.5" y="351.6045">(Parent/Child)</text><text fill="#000000" font-family="sans-serif" font-size="13" lengthAdjust="spacing" textLength="7" x="566.3958" y="348.8655">1</text><text fill="#000000" font-family="sans-serif" font-size="13" lengthAdjust="spacing" textLength="20" x="566.5869" y="371.5673">0..*</text></g><!--link Requirement to Requirement--><g id="link_Requirement_Requirement"><path codeLine="113" d="M558.74,325.6594 C620.39,321.2494 684.5,328.0694 684.5,346.1094 C684.5,364.1494 620.39,370.9694 558.74,366.5594 " fill="none" id="Requirement-Requirement" style="stroke:#181818;stroke-width:1.0;"/><text fill="#000000" font-family="sans-serif" font-size="13" lengthAdjust="spacing" textLength="106" x="690.5" y="351.6045">crossed trazability</text><text fill="#000000" font-family="sans-serif" font-size="13" lengthAdjust="spacing" textLength="20" x="566.4318" y="321.0684">0..*</text><text fill="#000000" font-family="sans-serif" font-size="13" lengthAdjust="spacing" textLength="20" x="566.4318" y="382.1469">0..*</text></g><!--link Requirement to Document--><g id="link_Requirement_Document"><path codeLine="114" d="M369.26,426.7094 C358.41,437.8494 348.02,449.6094 339,461.6094 C326.08,478.7994 314.8,499.3694 305.76,518.3294 " fill="none" id="Requirement-Document" style="stroke:#181818;stroke-width:1.0;"/><text fill="#000000" font-family="sans-serif" font-size="13" lengthAdjust="spacing" textLength="34" x="340" y="476.1045">linked</text><text fill="#000000" font-family="sans-serif" font-size="13" lengthAdjust="spacing" textLength="20" x="341.5682" y="429.5392">0..*</text><text fill="#000000" font-family="sans-serif" font-size="13" lengthAdjust="spacing" textLength="20" x="287.437" y="507.6195">0..*</text></g><!--SRC=[fLHDZzem4BtdLrYSMYHeUrtraasokqXie4cWggeAcMGABevDRMTNzEE_r-GBXoImgt887i_ppCkRvoYYAA1R7E-09SYXM4ha4hmHEBtb8W7XSCg5PG7BKZGNX0kY3g4ww4E_BQH_aHVuTl0bNp_EGcVssVfRm_aFY5MeiAhGjXDDbbw-l9lua_31S_F0zVAC7PLnu3tEbdfTbRhBMAm8PvZcxJiBNgiHmC-C24Y1DIZDFT-T-FShUpuFPajxsYPNP5x8rE7f7WiYEPljGM35HTd7-xImfwjebWTJBmnNqOFjvz5zuEbwGR6X2yNv64hvokCZH3dR89AKKQW4qJ73AJHt4f2n8FkZMcMYERQz6TK8OrBo-2mJKnvZwkeu8YcWM81U9hOwaMmCvhLKALu3BRSw9bmGqQtmMYg1jHH5JsEGbpjAccsgyfHZXN97Bp7DuFKgjknZwdJBEGNC495pVOzqWG2U23ntwTJ5lcnQZURiBHHUawCgfse-Poygc0AMMP5QCABAP8T5URae4IxFrjegQYj0RZbDJCcg71ORK1q9FQSCqo9H4zQAxU1O2SJ_-Bckv_8ukpx_xuI2togOQYj7Xtsrkpue-FeDnPmfNV3KOY6lSOKK4tgDljRVsAnyeaKYJxa-rIqVV1YWyJZ_Cs-ZrRnW1gfzOIpJ2GRotBbzkCPtmkhrc76YxQJc2mr72Nzcen4Ql1-FXsUSpv0dL5_dtWEL6te1Xlsi3aM7NGpDnWt5FluPzS3EKRqlqfn0qRcJBRf1bB0T9AsPyHFUJDsWDtCizEgTioKqUNkvK_DaBBYKa23zhVrLVN8k7gzlOSto7m00]--></g></svg>