<?xml version="1.0" encoding="us-ascii" standalone="no"?><svg xmlns="http://www.w3.org/2000/svg" xmlns:xlink="http://www.w3.org/1999/xlink" contentStyleType="text/css" height="395px" preserveAspectRatio="none" style="width:1274px;height:395px;background:#FFFFFF;" version="1.1" viewBox="0 0 1274 395" width="1274px" zoomAndPan="magnify"><defs/><g><text fill="#000000" font-family="sans-serif" font-size="14" font-weight="bold" lengthAdjust="spacing" textLength="259" x="500.5" y="24.5332">IR-Board Backend - package Diagram</text><!--cluster src--><g id="cluster_src"><rect fill="none" height="344" rx="2.5" ry="2.5" style="stroke:#181818;stroke-width:1.0;" width="1261" x="7" y="45.6094"/><path d="M39,45.6094 L39,56.2188 L29,66.2188 L7,66.2188 " fill="none" style="stroke:#181818;stroke-width:1.0;"/><text fill="#000000" font-family="sans-serif" font-size="14" font-weight="bold" lengthAdjust="spacing" textLength="22" x="10" y="61.1426">src</text></g><!--cluster components--><g id="cluster_components"><rect fill="none" height="276" rx="2.5" ry="2.5" style="stroke:#181818;stroke-width:1.0;" width="606" x="638" y="89.6094"/><path d="M735,89.6094 L735,100.2188 L725,110.2188 L638,110.2188 " fill="none" style="stroke:#181818;stroke-width:1.0;"/><text fill="#000000" font-family="sans-serif" font-size="14" font-weight="bold" lengthAdjust="spacing" textLength="87" x="641" y="105.1426">components</text></g><!--cluster dialogs--><g id="cluster_dialogs"><rect fill="none" height="208" rx="2.5" ry="2.5" style="stroke:#181818;stroke-width:1.0;" width="323" x="897" y="133.6094"/><path d="M958,133.6094 L958,144.2188 L948,154.2188 L897,154.2188 " fill="none" style="stroke:#181818;stroke-width:1.0;"/><text fill="#000000" font-family="sans-serif" font-size="14" font-weight="bold" lengthAdjust="spacing" textLength="51" x="900" y="149.1426">dialogs</text></g><!--cluster pages--><g id="cluster_pages"><rect fill="none" height="276" rx="2.5" ry="2.5" style="stroke:#181818;stroke-width:1.0;" width="287" x="327" y="89.6094"/><path d="M380,89.6094 L380,100.2188 L370,110.2188 L327,110.2188 " fill="none" style="stroke:#181818;stroke-width:1.0;"/><text fill="#000000" font-family="sans-serif" font-size="14" font-weight="bold" lengthAdjust="spacing" textLength="43" x="330" y="105.1426">pages</text></g><!--cluster project--><g id="cluster_project"><rect fill="none" height="208" rx="2.5" ry="2.5" style="stroke:#181818;stroke-width:1.0;" width="239" x="351" y="133.6094"/><path d="M411,133.6094 L411,144.2188 L401,154.2188 L351,154.2188 " fill="none" style="stroke:#181818;stroke-width:1.0;"/><text fill="#000000" font-family="sans-serif" font-size="14" font-weight="bold" lengthAdjust="spacing" textLength="50" x="354" y="149.1426">project</text></g><!--entity context--><g id="elem_context"><rect fill="#F1F1F1" height="47.6094" rx="2.5" ry="2.5" style="stroke:#181818;stroke-width:0.5;" width="85" x="23.5" y="169.6094"/><path d="M51.8333,169.6094 L51.8333,174.6094 L44.8333,181.6094 L23.5,181.6094 " fill="none" style="stroke:#181818;stroke-width:0.5;"/><text fill="#000000" font-family="sans-serif" font-size="14" lengthAdjust="spacing" textLength="45" x="38.5" y="204.1426">context</text></g><!--entity hooks--><g id="elem_hooks"><rect fill="#F1F1F1" height="47.6094" rx="2.5" ry="2.5" style="stroke:#181818;stroke-width:0.5;" width="78" x="144" y="169.6094"/><path d="M170,169.6094 L170,174.6094 L163,181.6094 L144,181.6094 " fill="none" style="stroke:#181818;stroke-width:0.5;"/><text fill="#000000" font-family="sans-serif" font-size="14" lengthAdjust="spacing" textLength="38" x="159" y="204.1426">hooks</text></g><!--entity lib--><g id="elem_lib"><rect fill="#F1F1F1" height="47.6094" rx="2.5" ry="2.5" style="stroke:#181818;stroke-width:0.5;" width="54" x="257" y="169.6094"/><path d="M275,169.6094 L275,174.6094 L268,181.6094 L257,181.6094 " fill="none" style="stroke:#181818;stroke-width:0.5;"/><text fill="#000000" font-family="sans-serif" font-size="14" lengthAdjust="spacing" textLength="14" x="272" y="204.1426">lib</text></g><!--entity tests--><g id="elem_tests"><rect fill="#F1F1F1" height="47.6094" rx="2.5" ry="2.5" style="stroke:#181818;stroke-width:0.5;" width="70" x="31" y="277.6094"/><path d="M54.3333,277.6094 L54.3333,282.6094 L47.3333,289.6094 L31,289.6094 " fill="none" style="stroke:#181818;stroke-width:0.5;"/><text fill="#000000" font-family="sans-serif" font-size="14" lengthAdjust="spacing" textLength="30" x="46" y="312.1426">tests</text></g><!--entity types--><g id="elem_types"><rect fill="#F1F1F1" height="47.6094" rx="2.5" ry="2.5" style="stroke:#181818;stroke-width:0.5;" width="74" x="136" y="277.6094"/><path d="M160.6667,277.6094 L160.6667,282.6094 L153.6667,289.6094 L136,289.6094 " fill="none" style="stroke:#181818;stroke-width:0.5;"/><text fill="#000000" font-family="sans-serif" font-size="14" lengthAdjust="spacing" textLength="34" x="151" y="312.1426">types</text></g><!--entity badges--><g id="elem_badges"><rect fill="#F1F1F1" height="47.6094" rx="2.5" ry="2.5" style="stroke:#181818;stroke-width:0.5;" width="97" x="654.5" y="169.6094"/><rect fill="#F1F1F1" height="10" style="stroke:#181818;stroke-width:0.5;" width="15" x="731.5" y="174.6094"/><rect fill="#F1F1F1" height="2" style="stroke:#181818;stroke-width:0.5;" width="4" x="729.5" y="176.6094"/><rect fill="#F1F1F1" height="2" style="stroke:#181818;stroke-width:0.5;" width="4" x="729.5" y="180.6094"/><text fill="#000000" font-family="sans-serif" font-size="14" lengthAdjust="spacing" textLength="57" x="669.5" y="204.1426">"badges"</text></g><!--entity "graphics"--><g id="elem_&quot;graphics&quot;"><rect fill="#F1F1F1" height="47.6094" rx="2.5" ry="2.5" style="stroke:#181818;stroke-width:0.5;" width="94" x="787" y="169.6094"/><rect fill="#F1F1F1" height="10" style="stroke:#181818;stroke-width:0.5;" width="15" x="861" y="174.6094"/><rect fill="#F1F1F1" height="2" style="stroke:#181818;stroke-width:0.5;" width="4" x="859" y="176.6094"/><rect fill="#F1F1F1" height="2" style="stroke:#181818;stroke-width:0.5;" width="4" x="859" y="180.6094"/><text fill="#000000" font-family="sans-serif" font-size="14" lengthAdjust="spacing" textLength="54" x="802" y="204.1426">graphics</text></g><!--entity "ui"--><g id="elem_&quot;ui&quot;"><rect fill="#F1F1F1" height="47.6094" rx="2.5" ry="2.5" style="stroke:#181818;stroke-width:0.5;" width="51" x="677.5" y="277.6094"/><rect fill="#F1F1F1" height="10" style="stroke:#181818;stroke-width:0.5;" width="15" x="708.5" y="282.6094"/><rect fill="#F1F1F1" height="2" style="stroke:#181818;stroke-width:0.5;" width="4" x="706.5" y="284.6094"/><rect fill="#F1F1F1" height="2" style="stroke:#181818;stroke-width:0.5;" width="4" x="706.5" y="288.6094"/><text fill="#000000" font-family="sans-serif" font-size="14" lengthAdjust="spacing" textLength="11" x="692.5" y="312.1426">ui</text></g><!--entity "wrappers"--><g id="elem_&quot;wrappers&quot;"><rect fill="#F1F1F1" height="47.6094" rx="2.5" ry="2.5" style="stroke:#181818;stroke-width:0.5;" width="98" x="764" y="277.6094"/><rect fill="#F1F1F1" height="10" style="stroke:#181818;stroke-width:0.5;" width="15" x="842" y="282.6094"/><rect fill="#F1F1F1" height="2" style="stroke:#181818;stroke-width:0.5;" width="4" x="840" y="284.6094"/><rect fill="#F1F1F1" height="2" style="stroke:#181818;stroke-width:0.5;" width="4" x="840" y="288.6094"/><text fill="#000000" font-family="sans-serif" font-size="14" lengthAdjust="spacing" textLength="58" x="779" y="312.1426">wrappers</text></g><!--entity "creatingDialog"--><g id="elem_&quot;creatingDialog&quot;"><rect fill="#F1F1F1" height="47.6094" rx="2.5" ry="2.5" style="stroke:#181818;stroke-width:0.5;" width="131" x="918.5" y="169.6094"/><rect fill="#F1F1F1" height="10" style="stroke:#181818;stroke-width:0.5;" width="15" x="1029.5" y="174.6094"/><rect fill="#F1F1F1" height="2" style="stroke:#181818;stroke-width:0.5;" width="4" x="1027.5" y="176.6094"/><rect fill="#F1F1F1" height="2" style="stroke:#181818;stroke-width:0.5;" width="4" x="1027.5" y="180.6094"/><text fill="#000000" font-family="sans-serif" font-size="14" lengthAdjust="spacing" textLength="91" x="933.5" y="204.1426">creatingDialog</text></g><!--entity "observation"--><g id="elem_&quot;observation&quot;"><rect fill="#F1F1F1" height="47.6094" rx="2.5" ry="2.5" style="stroke:#181818;stroke-width:0.5;" width="114" x="1085" y="169.6094"/><rect fill="#F1F1F1" height="10" style="stroke:#181818;stroke-width:0.5;" width="15" x="1179" y="174.6094"/><rect fill="#F1F1F1" height="2" style="stroke:#181818;stroke-width:0.5;" width="4" x="1177" y="176.6094"/><rect fill="#F1F1F1" height="2" style="stroke:#181818;stroke-width:0.5;" width="4" x="1177" y="180.6094"/><text fill="#000000" font-family="sans-serif" font-size="14" lengthAdjust="spacing" textLength="74" x="1100" y="204.1426">observation</text></g><!--entity "updatingDialogs"--><g id="elem_&quot;updatingDialogs&quot;"><rect fill="#F1F1F1" height="47.6094" rx="2.5" ry="2.5" style="stroke:#181818;stroke-width:0.5;" width="142" x="913" y="277.6094"/><rect fill="#F1F1F1" height="10" style="stroke:#181818;stroke-width:0.5;" width="15" x="1035" y="282.6094"/><rect fill="#F1F1F1" height="2" style="stroke:#181818;stroke-width:0.5;" width="4" x="1033" y="284.6094"/><rect fill="#F1F1F1" height="2" style="stroke:#181818;stroke-width:0.5;" width="4" x="1033" y="288.6094"/><text fill="#000000" font-family="sans-serif" font-size="14" lengthAdjust="spacing" textLength="102" x="928" y="312.1426">updatingDialogs</text></g><!--entity "userLinking"--><g id="elem_&quot;userLinking&quot;"><rect fill="#F1F1F1" height="47.6094" rx="2.5" ry="2.5" style="stroke:#181818;stroke-width:0.5;" width="113" x="1090.5" y="277.6094"/><rect fill="#F1F1F1" height="10" style="stroke:#181818;stroke-width:0.5;" width="15" x="1183.5" y="282.6094"/><rect fill="#F1F1F1" height="2" style="stroke:#181818;stroke-width:0.5;" width="4" x="1181.5" y="284.6094"/><rect fill="#F1F1F1" height="2" style="stroke:#181818;stroke-width:0.5;" width="4" x="1181.5" y="288.6094"/><text fill="#000000" font-family="sans-serif" font-size="14" lengthAdjust="spacing" textLength="73" x="1105.5" y="312.1426">userLinking</text></g><!--entity "document"--><g id="elem_&quot;document&quot;"><rect fill="#F1F1F1" height="47.6094" rx="2.5" ry="2.5" style="stroke:#181818;stroke-width:0.5;" width="102" x="367" y="169.6094"/><rect fill="#F1F1F1" height="10" style="stroke:#181818;stroke-width:0.5;" width="15" x="449" y="174.6094"/><rect fill="#F1F1F1" height="2" style="stroke:#181818;stroke-width:0.5;" width="4" x="447" y="176.6094"/><rect fill="#F1F1F1" height="2" style="stroke:#181818;stroke-width:0.5;" width="4" x="447" y="180.6094"/><text fill="#000000" font-family="sans-serif" font-size="14" lengthAdjust="spacing" textLength="62" x="382" y="204.1426">document</text></g><!--entity "fr"--><g id="elem_&quot;fr&quot;"><rect fill="#F1F1F1" height="47.6094" rx="2.5" ry="2.5" style="stroke:#181818;stroke-width:0.5;" width="49" x="504.5" y="169.6094"/><rect fill="#F1F1F1" height="10" style="stroke:#181818;stroke-width:0.5;" width="15" x="533.5" y="174.6094"/><rect fill="#F1F1F1" height="2" style="stroke:#181818;stroke-width:0.5;" width="4" x="531.5" y="176.6094"/><rect fill="#F1F1F1" height="2" style="stroke:#181818;stroke-width:0.5;" width="4" x="531.5" y="180.6094"/><text fill="#000000" font-family="sans-serif" font-size="14" lengthAdjust="spacing" textLength="9" x="519.5" y="204.1426">fr</text></g><!--entity "nfr"--><g id="elem_&quot;nfr&quot;"><rect fill="#F1F1F1" height="47.6094" rx="2.5" ry="2.5" style="stroke:#181818;stroke-width:0.5;" width="57" x="367.5" y="277.6094"/><rect fill="#F1F1F1" height="10" style="stroke:#181818;stroke-width:0.5;" width="15" x="404.5" y="282.6094"/><rect fill="#F1F1F1" height="2" style="stroke:#181818;stroke-width:0.5;" width="4" x="402.5" y="284.6094"/><rect fill="#F1F1F1" height="2" style="stroke:#181818;stroke-width:0.5;" width="4" x="402.5" y="288.6094"/><text fill="#000000" font-family="sans-serif" font-size="14" lengthAdjust="spacing" textLength="17" x="382.5" y="312.1426">nfr</text></g><!--entity "stakeholder"--><g id="elem_&quot;stakeholder&quot;"><rect fill="#F1F1F1" height="47.6094" rx="2.5" ry="2.5" style="stroke:#181818;stroke-width:0.5;" width="114" x="460" y="277.6094"/><rect fill="#F1F1F1" height="10" style="stroke:#181818;stroke-width:0.5;" width="15" x="554" y="282.6094"/><rect fill="#F1F1F1" height="2" style="stroke:#181818;stroke-width:0.5;" width="4" x="552" y="284.6094"/><rect fill="#F1F1F1" height="2" style="stroke:#181818;stroke-width:0.5;" width="4" x="552" y="288.6094"/><text fill="#000000" font-family="sans-serif" font-size="14" lengthAdjust="spacing" textLength="74" x="475" y="312.1426">stakeholder</text></g><!--SRC=[RP4nRiCm34LtdOBGdai4MGfqwbfae2N6LcsBWiIaBGBVlNGTfB9TBQR_unV8Bmao4Boy7OwCsSCHNK_Hmm6ILjWId0As6KTZX1C8GyCYF88FcPm4ZiPS51FOafq5BA1Vk1lGym2EnyIHeXIxwFDvjmtwbeezpvwbViB5w0CEt9QPFye_-tA5ouGIOdlwnVQymTmKoZUSfzonQ_ALjUovMbz3xBMbObCrlwQIkk3c3Ihr6jR_dzgLA3-xfdKoKUXBRArrp7snK4j3QDP2mZcv-oOlcp9_wAFORKoUtNNK_7TBNl9EYlzeHR2dZWTFUPV5QX-Xee-yKhwJJcecOtu0]--></g></svg>