<?xml version="1.0" encoding="us-ascii" standalone="no"?><svg xmlns="http://www.w3.org/2000/svg" xmlns:xlink="http://www.w3.org/1999/xlink" contentStyleType="text/css" height="731px" preserveAspectRatio="none" style="width:423px;height:731px;background:#FFFFFF;" version="1.1" viewBox="0 0 423 731" width="423px" zoomAndPan="magnify"><defs/><g><text fill="#000000" font-family="sans-serif" font-size="14" font-weight="bold" lengthAdjust="spacing" textLength="265" x="72" y="24.5332">Keto namespace relationship diagram</text><!--class User--><g id="elem_User"><rect codeLine="4" fill="#F1F1F1" height="48" id="User" rx="2.5" ry="2.5" style="stroke:#181818;stroke-width:0.5;" width="61" x="315.5" y="312.1094"/><ellipse cx="330.5" cy="328.1094" fill="#ADD1B2" rx="11" ry="11" style="stroke:#181818;stroke-width:1.0;"/><path d="M333.2656,323.9844 Q333.4219,323.7656 333.6094,323.6563 Q333.7969,323.5469 334.0156,323.5469 Q334.3906,323.5469 334.625,323.8125 Q334.8594,324.0625 334.8594,324.6719 L334.8594,326.125 Q334.8594,326.7344 334.625,327 Q334.3906,327.2656 334.0156,327.2656 Q333.6719,327.2656 333.4688,327.0625 Q333.2656,326.875 333.1563,326.3594 Q333.1094,326 332.9219,325.8125 Q332.5938,325.4375 331.9844,325.2188 Q331.375,325 330.75,325 Q329.9844,325 329.3438,325.3281 Q328.7188,325.6563 328.2188,326.4063 Q327.7344,327.1563 327.7344,328.1875 L327.7344,329.2813 Q327.7344,330.5156 328.625,331.3438 Q329.5156,332.1563 331.1094,332.1563 Q332.0469,332.1563 332.7031,331.9063 Q333.0938,331.75 333.5156,331.3125 Q333.7813,331.0469 333.9219,330.9688 Q334.0781,330.8906 334.2813,330.8906 Q334.6094,330.8906 334.8594,331.1563 Q335.125,331.4063 335.125,331.75 Q335.125,332.0938 334.7813,332.5 Q334.2813,333.0781 333.4844,333.4063 Q332.4063,333.8594 331.1094,333.8594 Q329.5938,333.8594 328.3906,333.2344 Q327.4063,332.7344 326.7188,331.6719 Q326.0313,330.5938 326.0313,329.3125 L326.0313,328.1563 Q326.0313,326.8281 326.6406,325.6875 Q327.2656,324.5313 328.3594,323.9219 Q329.4531,323.2969 330.6875,323.2969 Q331.4219,323.2969 332.0625,323.4688 Q332.7188,323.625 333.2656,323.9844 Z " fill="#000000"/><text fill="#000000" font-family="sans-serif" font-size="14" lengthAdjust="spacing" textLength="29" x="344.5" y="333.8379">User</text><line style="stroke:#181818;stroke-width:0.5;" x1="316.5" x2="375.5" y1="344.1094" y2="344.1094"/><line style="stroke:#181818;stroke-width:0.5;" x1="316.5" x2="375.5" y1="352.1094" y2="352.1094"/></g><!--class System--><g id="elem_System"><rect codeLine="6" fill="#F1F1F1" height="118.4375" id="System" rx="2.5" ry="2.5" style="stroke:#181818;stroke-width:0.5;" width="138" x="159" y="45.6094"/><ellipse cx="201" cy="61.6094" fill="#ADD1B2" rx="11" ry="11" style="stroke:#181818;stroke-width:1.0;"/><path d="M203.7656,57.4844 Q203.9219,57.2656 204.1094,57.1563 Q204.2969,57.0469 204.5156,57.0469 Q204.8906,57.0469 205.125,57.3125 Q205.3594,57.5625 205.3594,58.1719 L205.3594,59.625 Q205.3594,60.2344 205.125,60.5 Q204.8906,60.7656 204.5156,60.7656 Q204.1719,60.7656 203.9688,60.5625 Q203.7656,60.375 203.6563,59.8594 Q203.6094,59.5 203.4219,59.3125 Q203.0938,58.9375 202.4844,58.7188 Q201.875,58.5 201.25,58.5 Q200.4844,58.5 199.8438,58.8281 Q199.2188,59.1563 198.7188,59.9063 Q198.2344,60.6563 198.2344,61.6875 L198.2344,62.7813 Q198.2344,64.0156 199.125,64.8438 Q200.0156,65.6563 201.6094,65.6563 Q202.5469,65.6563 203.2031,65.4063 Q203.5938,65.25 204.0156,64.8125 Q204.2813,64.5469 204.4219,64.4688 Q204.5781,64.3906 204.7813,64.3906 Q205.1094,64.3906 205.3594,64.6563 Q205.625,64.9063 205.625,65.25 Q205.625,65.5938 205.2813,66 Q204.7813,66.5781 203.9844,66.9063 Q202.9063,67.3594 201.6094,67.3594 Q200.0938,67.3594 198.8906,66.7344 Q197.9063,66.2344 197.2188,65.1719 Q196.5313,64.0938 196.5313,62.8125 L196.5313,61.6563 Q196.5313,60.3281 197.1406,59.1875 Q197.7656,58.0313 198.8594,57.4219 Q199.9531,56.7969 201.1875,56.7969 Q201.9219,56.7969 202.5625,56.9688 Q203.2188,57.125 203.7656,57.4844 Z " fill="#000000"/><text fill="#000000" font-family="sans-serif" font-size="14" lengthAdjust="spacing" textLength="46" x="221" y="67.3379">System</text><line style="stroke:#181818;stroke-width:0.5;" x1="160" x2="296" y1="77.6094" y2="77.6094"/><ellipse cx="170" cy="91.9141" fill="none" rx="3" ry="3" style="stroke:#038048;stroke-width:1.0;"/><text fill="#000000" font-family="sans-serif" font-size="14" lengthAdjust="spacing" textLength="90" x="179" y="96.1426">admins: User[]</text><line style="stroke:#181818;stroke-width:0.5;" x1="160" x2="296" y1="103.2188" y2="103.2188"/><ellipse cx="170" cy="117.5234" fill="#84BE84" rx="3" ry="3" style="stroke:#038048;stroke-width:1.0;"/><text fill="#000000" font-family="sans-serif" font-size="14" lengthAdjust="spacing" textLength="112" x="179" y="121.752">manageProjects()</text><ellipse cx="170" cy="135.1328" fill="#84BE84" rx="3" ry="3" style="stroke:#038048;stroke-width:1.0;"/><text fill="#000000" font-family="sans-serif" font-size="14" lengthAdjust="spacing" textLength="79" x="179" y="139.3613">inviteUsers()</text><ellipse cx="170" cy="152.7422" fill="#84BE84" rx="3" ry="3" style="stroke:#038048;stroke-width:1.0;"/><text fill="#000000" font-family="sans-serif" font-size="14" lengthAdjust="spacing" textLength="52" x="179" y="156.9707">viewAll()</text></g><!--class Project--><g id="elem_Project"><rect codeLine="13" fill="#F1F1F1" height="188.875" id="Project" rx="2.5" ry="2.5" style="stroke:#181818;stroke-width:0.5;" width="208" x="7" y="241.6094"/><ellipse cx="84.75" cy="257.6094" fill="#ADD1B2" rx="11" ry="11" style="stroke:#181818;stroke-width:1.0;"/><path d="M87.5156,253.4844 Q87.6719,253.2656 87.8594,253.1563 Q88.0469,253.0469 88.2656,253.0469 Q88.6406,253.0469 88.875,253.3125 Q89.1094,253.5625 89.1094,254.1719 L89.1094,255.625 Q89.1094,256.2344 88.875,256.5 Q88.6406,256.7656 88.2656,256.7656 Q87.9219,256.7656 87.7188,256.5625 Q87.5156,256.375 87.4063,255.8594 Q87.3594,255.5 87.1719,255.3125 Q86.8438,254.9375 86.2344,254.7188 Q85.625,254.5 85,254.5 Q84.2344,254.5 83.5938,254.8281 Q82.9688,255.1563 82.4688,255.9063 Q81.9844,256.6563 81.9844,257.6875 L81.9844,258.7813 Q81.9844,260.0156 82.875,260.8438 Q83.7656,261.6563 85.3594,261.6563 Q86.2969,261.6563 86.9531,261.4063 Q87.3438,261.25 87.7656,260.8125 Q88.0313,260.5469 88.1719,260.4688 Q88.3281,260.3906 88.5313,260.3906 Q88.8594,260.3906 89.1094,260.6563 Q89.375,260.9063 89.375,261.25 Q89.375,261.5938 89.0313,262 Q88.5313,262.5781 87.7344,262.9063 Q86.6563,263.3594 85.3594,263.3594 Q83.8438,263.3594 82.6406,262.7344 Q81.6563,262.2344 80.9688,261.1719 Q80.2813,260.0938 80.2813,258.8125 L80.2813,257.6563 Q80.2813,256.3281 80.8906,255.1875 Q81.5156,254.0313 82.6094,253.4219 Q83.7031,252.7969 84.9375,252.7969 Q85.6719,252.7969 86.3125,252.9688 Q86.9688,253.125 87.5156,253.4844 Z " fill="#000000"/><text fill="#000000" font-family="sans-serif" font-size="14" lengthAdjust="spacing" textLength="44" x="105.25" y="263.3379">Project</text><line style="stroke:#181818;stroke-width:0.5;" x1="8" x2="214" y1="273.6094" y2="273.6094"/><ellipse cx="18" cy="287.9141" fill="none" rx="3" ry="3" style="stroke:#038048;stroke-width:1.0;"/><text fill="#000000" font-family="sans-serif" font-size="14" lengthAdjust="spacing" textLength="155" x="27" y="292.1426">parent_system: System[]</text><ellipse cx="18" cy="305.5234" fill="none" rx="3" ry="3" style="stroke:#038048;stroke-width:1.0;"/><text fill="#000000" font-family="sans-serif" font-size="14" lengthAdjust="spacing" textLength="182" x="27" y="309.752">functionalities: Functionality[]</text><ellipse cx="18" cy="323.1328" fill="none" rx="3" ry="3" style="stroke:#038048;stroke-width:1.0;"/><text fill="#000000" font-family="sans-serif" font-size="14" lengthAdjust="spacing" textLength="108" x="27" y="327.3613">managers: User[]</text><line style="stroke:#181818;stroke-width:0.5;" x1="8" x2="214" y1="334.4375" y2="334.4375"/><ellipse cx="18" cy="348.7422" fill="#84BE84" rx="3" ry="3" style="stroke:#038048;stroke-width:1.0;"/><text fill="#000000" font-family="sans-serif" font-size="14" lengthAdjust="spacing" textLength="77" x="27" y="352.9707">editProject()</text><ellipse cx="18" cy="366.3516" fill="#84BE84" rx="3" ry="3" style="stroke:#038048;stroke-width:1.0;"/><text fill="#000000" font-family="sans-serif" font-size="14" lengthAdjust="spacing" textLength="33" x="27" y="370.5801">edit()</text><ellipse cx="18" cy="383.9609" fill="#84BE84" rx="3" ry="3" style="stroke:#038048;stroke-width:1.0;"/><text fill="#000000" font-family="sans-serif" font-size="14" lengthAdjust="spacing" textLength="37" x="27" y="388.1895">view()</text><ellipse cx="18" cy="401.5703" fill="#84BE84" rx="3" ry="3" style="stroke:#038048;stroke-width:1.0;"/><text fill="#000000" font-family="sans-serif" font-size="14" lengthAdjust="spacing" textLength="94" x="27" y="405.7988">linkManagers()</text><ellipse cx="18" cy="419.1797" fill="#84BE84" rx="3" ry="3" style="stroke:#038048;stroke-width:1.0;"/><text fill="#000000" font-family="sans-serif" font-size="14" lengthAdjust="spacing" textLength="111" x="27" y="423.4082">linkProjectUsers()</text></g><!--class Functionality--><g id="elem_Functionality"><rect codeLine="24" fill="#F1F1F1" height="153.6563" id="Functionality" rx="2.5" ry="2.5" style="stroke:#181818;stroke-width:0.5;" width="152" x="138" y="570.6094"/><ellipse cx="171" cy="586.6094" fill="#ADD1B2" rx="11" ry="11" style="stroke:#181818;stroke-width:1.0;"/><path d="M173.7656,582.4844 Q173.9219,582.2656 174.1094,582.1563 Q174.2969,582.0469 174.5156,582.0469 Q174.8906,582.0469 175.125,582.3125 Q175.3594,582.5625 175.3594,583.1719 L175.3594,584.625 Q175.3594,585.2344 175.125,585.5 Q174.8906,585.7656 174.5156,585.7656 Q174.1719,585.7656 173.9688,585.5625 Q173.7656,585.375 173.6563,584.8594 Q173.6094,584.5 173.4219,584.3125 Q173.0938,583.9375 172.4844,583.7188 Q171.875,583.5 171.25,583.5 Q170.4844,583.5 169.8438,583.8281 Q169.2188,584.1563 168.7188,584.9063 Q168.2344,585.6563 168.2344,586.6875 L168.2344,587.7813 Q168.2344,589.0156 169.125,589.8438 Q170.0156,590.6563 171.6094,590.6563 Q172.5469,590.6563 173.2031,590.4063 Q173.5938,590.25 174.0156,589.8125 Q174.2813,589.5469 174.4219,589.4688 Q174.5781,589.3906 174.7813,589.3906 Q175.1094,589.3906 175.3594,589.6563 Q175.625,589.9063 175.625,590.25 Q175.625,590.5938 175.2813,591 Q174.7813,591.5781 173.9844,591.9063 Q172.9063,592.3594 171.6094,592.3594 Q170.0938,592.3594 168.8906,591.7344 Q167.9063,591.2344 167.2188,590.1719 Q166.5313,589.0938 166.5313,587.8125 L166.5313,586.6563 Q166.5313,585.3281 167.1406,584.1875 Q167.7656,583.0313 168.8594,582.4219 Q169.9531,581.7969 171.1875,581.7969 Q171.9219,581.7969 172.5625,581.9688 Q173.2188,582.125 173.7656,582.4844 Z " fill="#000000"/><text fill="#000000" font-family="sans-serif" font-size="14" lengthAdjust="spacing" textLength="80" x="189" y="592.3379">Functionality</text><line style="stroke:#181818;stroke-width:0.5;" x1="139" x2="289" y1="602.6094" y2="602.6094"/><ellipse cx="149" cy="616.9141" fill="none" rx="3" ry="3" style="stroke:#038048;stroke-width:1.0;"/><text fill="#000000" font-family="sans-serif" font-size="14" lengthAdjust="spacing" textLength="103" x="158" y="621.1426">project: Project[]</text><ellipse cx="149" cy="634.5234" fill="none" rx="3" ry="3" style="stroke:#038048;stroke-width:1.0;"/><text fill="#000000" font-family="sans-serif" font-size="14" lengthAdjust="spacing" textLength="108" x="158" y="638.752">engineers: User[]</text><ellipse cx="149" cy="652.1328" fill="none" rx="3" ry="3" style="stroke:#038048;stroke-width:1.0;"/><text fill="#000000" font-family="sans-serif" font-size="14" lengthAdjust="spacing" textLength="126" x="158" y="656.3613">stakeholders: User[]</text><line style="stroke:#181818;stroke-width:0.5;" x1="139" x2="289" y1="663.4375" y2="663.4375"/><ellipse cx="149" cy="677.7422" fill="#84BE84" rx="3" ry="3" style="stroke:#038048;stroke-width:1.0;"/><text fill="#000000" font-family="sans-serif" font-size="14" lengthAdjust="spacing" textLength="121" x="158" y="681.9707">editRequirements()</text><ellipse cx="149" cy="695.3516" fill="#84BE84" rx="3" ry="3" style="stroke:#038048;stroke-width:1.0;"/><text fill="#000000" font-family="sans-serif" font-size="14" lengthAdjust="spacing" textLength="125" x="158" y="699.5801">viewRequirements()</text><ellipse cx="149" cy="712.9609" fill="#84BE84" rx="3" ry="3" style="stroke:#038048;stroke-width:1.0;"/><text fill="#000000" font-family="sans-serif" font-size="14" lengthAdjust="spacing" textLength="77" x="158" y="717.1895">approveAll()</text></g><!--link System to Project--><g id="link_System_Project"><path codeLine="34" d="M198.32,163.8194 C186.34,187.3194 172.21,215.0494 158.84,241.2694 " fill="none" id="System-Project" style="stroke:#181818;stroke-width:1.0;"/><text fill="#000000" font-family="sans-serif" font-size="13" lengthAdjust="spacing" textLength="30" x="181" y="208.1045">owns</text><text fill="#000000" font-family="sans-serif" font-size="13" lengthAdjust="spacing" textLength="7" x="187.2762" y="185.5005">1</text><text fill="#000000" font-family="sans-serif" font-size="13" lengthAdjust="spacing" textLength="5" x="157.3113" y="230.909">*</text></g><!--link Project to Functionality--><g id="link_Project_Functionality"><path codeLine="35" d="M106.62,430.6294 C107.86,456.7394 111.58,484.7594 120,509.6094 C127.18,530.7794 138.62,551.6894 151.09,570.5594 " fill="none" id="Project-Functionality" style="stroke:#181818;stroke-width:1.0;"/><text fill="#000000" font-family="sans-serif" font-size="13" lengthAdjust="spacing" textLength="49" x="121" y="506.1045">contains</text><text fill="#000000" font-family="sans-serif" font-size="13" lengthAdjust="spacing" textLength="7" x="99.0167" y="451.9919">1</text><text fill="#000000" font-family="sans-serif" font-size="13" lengthAdjust="spacing" textLength="5" x="139.6512" y="559.7166">*</text></g><!--link Functionality to Project--><g id="link_Functionality_Project"><path codeLine="36" d="M197.15,570.2894 C190.95,545.0194 183.37,516.8994 175,491.6094 C168.39,471.6294 160.39,450.5694 152.31,430.6494 " fill="none" id="Functionality-Project" style="stroke:#181818;stroke-width:1.0;"/><text fill="#000000" font-family="sans-serif" font-size="13" lengthAdjust="spacing" textLength="60" x="182" y="506.1045">belongs to</text><text fill="#000000" font-family="sans-serif" font-size="13" lengthAdjust="spacing" textLength="5" x="190.3057" y="559.6856">*</text><text fill="#000000" font-family="sans-serif" font-size="13" lengthAdjust="spacing" textLength="7" x="148.2048" y="452.0135">1</text></g><!--link System to User--><g id="link_System_User"><path codeLine="38" d="M257.93,163.8194 C282.65,211.8894 316.44,277.6094 334.12,311.9994 " fill="none" id="System-User" style="stroke:#181818;stroke-width:1.0;stroke-dasharray:7.0,7.0;"/><text fill="#000000" font-family="sans-serif" font-size="13" lengthAdjust="spacing" textLength="49" x="280" y="208.1045">admin of</text><text fill="#000000" font-family="sans-serif" font-size="13" lengthAdjust="spacing" textLength="5" x="256.273" y="185.5005">*</text><text fill="#000000" font-family="sans-serif" font-size="13" lengthAdjust="spacing" textLength="7" x="323.1789" y="301.3113">1</text></g><!--link Project to User--><g id="link_Project_User"><path codeLine="39" d="M215.1,336.1094 C251.56,336.1094 289.77,336.1094 315.43,336.1094 " fill="none" id="Project-User" style="stroke:#181818;stroke-width:1.0;stroke-dasharray:7.0,7.0;"/><text fill="#000000" font-family="sans-serif" font-size="13" lengthAdjust="spacing" textLength="64" x="233.25" y="329.6045">manager of</text><text fill="#000000" font-family="sans-serif" font-size="13" lengthAdjust="spacing" textLength="5" x="222.9284" y="333.0345">*</text><text fill="#000000" font-family="sans-serif" font-size="13" lengthAdjust="spacing" textLength="7" x="300.5513" y="331.7951">1</text></g><!--link User to Functionality--><g id="link_User_Functionality"><path codeLine="40" d="M336.19,360.1194 C317.49,403.9694 275.99,501.2694 246.55,570.2894 " fill="none" id="User-Functionality" style="stroke:#181818;stroke-width:1.0;stroke-dasharray:7.0,7.0;"/><text fill="#000000" font-family="sans-serif" font-size="13" lengthAdjust="spacing" textLength="134" x="281" y="506.1045">engineer/stakeholder of</text><text fill="#000000" font-family="sans-serif" font-size="13" lengthAdjust="spacing" textLength="7" x="325.9457" y="381.4598">1</text><text fill="#000000" font-family="sans-serif" font-size="13" lengthAdjust="spacing" textLength="5" x="244.4141" y="559.6856">*</text></g><!--SRC=[RP9DJyCm38Rl-HLMB-D37UAQ6mUu82Gqn0aXP5gl2qkTqdYR9iH_fysIhXthANtpsdviHunOWaSI1umr-GOBWfOiYd7iLwQ1qc3LOgtK3EvPZ1Zogh3eFRnwQbKyl-ozK0q_2hhl6ilQiDV1yVP-q6fahEYvTLzKYB-uFAY6jqQezmtIrj3kpjhkzpTbZr4fVOCjiNpuK5F7sgdESiD53uysi6fu60dxAKrxmaYbaLWhqVJIc2oThU7rKqmorc9uwcXeOK8nD78mwzJWmC6LOVg7vmNNj7AsF0k-eE-DQQdkHZEPvJaTcwxqbeOnps0nshbNSPtPRGPvwNQSGtQL3MlGq4bUfTyJrxHJ3OLZmUuvgEb5Rytp47pC-qdMSUL1d59zV-5wRcafytc8Y60QmXC3jpnlEsQCYvuwe-kKD8tzPZJeFl0F]--></g></svg>