<svg viewBox="0 0 1560 900" xmlns="http://www.w3.org/2000/svg" font-family="Helvetica, Arial, sans-serif">
  <defs>
    <marker id="arrow" viewBox="0 0 10 10" refX="9" refY="5" markerWidth="7" markerHeight="7" orient="auto-start-reverse">
      <path d="M0,0 L10,5 L0,10 z" fill="#475569"/>
    </marker>
    <marker id="arrowGray" viewBox="0 0 10 10" refX="9" refY="5" markerWidth="7" markerHeight="7" orient="auto-start-reverse">
      <path d="M0,0 L10,5 L0,10 z" fill="#94A3B8"/>
    </marker>
    <marker id="arrowIndigo" viewBox="0 0 10 10" refX="9" refY="5" markerWidth="7" markerHeight="7" orient="auto-start-reverse">
      <path d="M0,0 L10,5 L0,10 z" fill="#6366F1"/>
    </marker>
    <marker id="arrowSky" viewBox="0 0 10 10" refX="9" refY="5" markerWidth="7" markerHeight="7" orient="auto-start-reverse">
      <path d="M0,0 L10,5 L0,10 z" fill="#0EA5E9"/>
    </marker>
  </defs>

  <rect width="1560" height="900" fill="#FFFFFF"/>
  <text x="40" y="26" font-size="18" font-weight="700" fill="#1E293B">IR-Board – Navigability Diagram</text>

  <!-- ============ PUBLIC AREA ============ -->
  <rect x="40" y="40" width="960" height="170" rx="10" fill="#F8FAFC" stroke="#CBD5E1" stroke-width="1.5"/>
  <text x="60" y="62" font-size="13" font-weight="700" fill="#64748B">Public Area</text>

  <rect x="90" y="95" width="170" height="50" rx="8" fill="#FFFFFF" stroke="#6366F1" stroke-width="1.5"/>
  <text x="175" y="125" font-size="13" fill="#1E293B" text-anchor="middle">Login</text>

  <rect x="320" y="95" width="170" height="50" rx="8" fill="#FFFFFF" stroke="#6366F1" stroke-width="1.5"/>
  <text x="405" y="125" font-size="13" fill="#1E293B" text-anchor="middle">Registration</text>

  <rect x="550" y="95" width="170" height="50" rx="8" fill="#FFFFFF" stroke="#6366F1" stroke-width="1.5"/>
  <text x="635" y="125" font-size="13" fill="#1E293B" text-anchor="middle">Error Page</text>

  <line x1="260" y1="112" x2="320" y2="112" stroke="#475569" stroke-width="1.5" marker-end="url(#arrow)"/>
  <text x="290" y="104" font-size="11" fill="#475569" text-anchor="middle">sign up</text>

  <line x1="320" y1="128" x2="260" y2="128" stroke="#475569" stroke-width="1.5" marker-end="url(#arrow)"/>
  <text x="290" y="146" font-size="11" fill="#475569" text-anchor="middle">back</text>

  <path d="M175,95 C 300,48 510,48 635,95" fill="none" stroke="#475569" stroke-width="1.5" marker-end="url(#arrow)"/>
  <text x="405" y="55" font-size="11" fill="#475569" text-anchor="middle">auth error</text>

  <!-- Public <-> Authenticated -->
  <line x1="480" y1="210" x2="480" y2="259" stroke="#475569" stroke-width="1.5" marker-end="url(#arrow)"/>
  <text x="455" y="236" font-size="11" fill="#475569" text-anchor="middle">login</text>

  <line x1="540" y1="259" x2="540" y2="210" stroke="#475569" stroke-width="1.5" marker-end="url(#arrow)"/>
  <text x="565" y="236" font-size="11" fill="#475569" text-anchor="middle">logout</text>

  <!-- ============ AUTHENTICATED AREA ============ -->
  <rect x="40" y="260" width="1480" height="600" rx="10" fill="#F8FAFC" stroke="#CBD5E1" stroke-width="1.5"/>
  <text x="60" y="282" font-size="13" font-weight="700" fill="#64748B">Authenticated Area</text>

  <rect x="90" y="320" width="160" height="50" rx="8" fill="#FFFFFF" stroke="#6366F1" stroke-width="1.5"/>
  <text x="170" y="350" font-size="13" fill="#1E293B" text-anchor="middle">Home</text>

  <rect x="290" y="320" width="170" height="50" rx="8" fill="#FFFFFF" stroke="#6366F1" stroke-width="1.5"/>
  <text x="375" y="350" font-size="13" fill="#1E293B" text-anchor="middle">New Project</text>

  <rect x="500" y="320" width="170" height="50" rx="8" fill="#FFFFFF" stroke="#6366F1" stroke-width="1.5"/>
  <text x="585" y="350" font-size="13" fill="#1E293B" text-anchor="middle">Diagrams</text>

  <rect x="710" y="320" width="190" height="50" rx="8" fill="#FFFFFF" stroke="#6366F1" stroke-width="1.5"/>
  <text x="805" y="350" font-size="13" fill="#1E293B" text-anchor="middle">User Management</text>

  <rect x="1300" y="320" width="170" height="50" rx="8" fill="#FFFFFF" stroke="#6366F1" stroke-width="1.5"/>
  <text x="1385" y="345" font-size="12" fill="#1E293B" text-anchor="middle">Slug Search</text>
  <text x="1385" y="361" font-size="10" fill="#64748B" text-anchor="middle">(NavBar)</text>

  <line x1="250" y1="335" x2="290" y2="335" stroke="#475569" stroke-width="1.5" marker-end="url(#arrow)"/>
  <line x1="290" y1="355" x2="250" y2="355" stroke="#475569" stroke-width="1.5" marker-end="url(#arrow)"/>
  <text x="270" y="372" font-size="11" fill="#475569" text-anchor="middle">cancel</text>

  <!-- ===== Project Context ===== -->
  <rect x="90" y="400" width="1380" height="400" rx="10" fill="#FFFFFF" stroke="#CBD5E1" stroke-width="1.5" stroke-dasharray="4 3"/>
  <text x="110" y="422" font-size="13" font-weight="700" fill="#64748B">Project Context</text>

  <rect x="700" y="440" width="180" height="50" rx="8" fill="#EEF2FF" stroke="#6366F1" stroke-width="1.5"/>
  <text x="790" y="470" font-size="13" fill="#1E293B" text-anchor="middle">Dashboard</text>

  <rect x="900" y="440" width="180" height="50" rx="8" fill="#FFFFFF" stroke="#6366F1" stroke-width="1.5"/>
  <text x="990" y="470" font-size="13" fill="#1E293B" text-anchor="middle">Edit Project</text>

  <line x1="880" y1="460" x2="900" y2="460" stroke="#475569" stroke-width="1.5" marker-end="url(#arrow)"/>
  <line x1="900" y1="472" x2="880" y2="472" stroke="#475569" stroke-width="1.5" marker-end="url(#arrow)"/>
  <text x="890" y="450" font-size="11" fill="#475569" text-anchor="middle">edit</text>

  <!-- Home / NewProject -> Dashboard -->
  <line x1="250" y1="350" x2="698" y2="455" stroke="#475569" stroke-width="1.5" marker-end="url(#arrow)"/>
  <text x="430" y="395" font-size="11" fill="#475569" text-anchor="middle">open project</text>

  <line x1="420" y1="370" x2="698" y2="448" stroke="#475569" stroke-width="1.5" marker-end="url(#arrow)"/>
  <text x="600" y="420" font-size="11" fill="#475569" text-anchor="middle">create</text>

  <!-- ===== Composite: Functionalities ===== -->
  <rect x="130" y="600" width="300" height="190" rx="10" fill="#F8FAFC" stroke="#CBD5E1" stroke-width="1.5"/>
  <text x="150" y="622" font-size="12" font-weight="700" fill="#64748B">Functionalities</text>

  <rect x="150" y="635" width="260" height="36" rx="6" fill="#FFFFFF" stroke="#6366F1" stroke-width="1.5"/>
  <text x="280" y="658" font-size="12" fill="#1E293B" text-anchor="middle">Functionality</text>

  <rect x="150" y="680" width="260" height="36" rx="6" fill="#FFFFFF" stroke="#6366F1" stroke-width="1.5"/>
  <text x="280" y="703" font-size="12" fill="#1E293B" text-anchor="middle">FR Detail</text>

  <rect x="150" y="725" width="260" height="36" rx="6" fill="#FFFFFF" stroke="#6366F1" stroke-width="1.5"/>
  <text x="280" y="748" font-size="12" fill="#1E293B" text-anchor="middle">FR Edit</text>

  <line x1="280" y1="671" x2="280" y2="680" stroke="#475569" stroke-width="1.5" marker-end="url(#arrow)"/>
  <line x1="300" y1="716" x2="300" y2="725" stroke="#475569" stroke-width="1.5" marker-end="url(#arrow)"/>
  <line x1="260" y1="725" x2="260" y2="716" stroke="#475569" stroke-width="1.5" marker-end="url(#arrow)"/>
  <text x="320" y="722" font-size="10" fill="#475569" text-anchor="middle">edit</text>

  <!-- ===== Composite: Stakeholders ===== -->
  <rect x="470" y="600" width="300" height="190" rx="10" fill="#F8FAFC" stroke="#CBD5E1" stroke-width="1.5"/>
  <text x="490" y="622" font-size="12" font-weight="700" fill="#64748B">Stakeholders</text>

  <rect x="490" y="635" width="260" height="36" rx="6" fill="#FFFFFF" stroke="#6366F1" stroke-width="1.5"/>
  <text x="620" y="658" font-size="12" fill="#1E293B" text-anchor="middle">List</text>

  <rect x="490" y="680" width="260" height="36" rx="6" fill="#FFFFFF" stroke="#6366F1" stroke-width="1.5"/>
  <text x="620" y="703" font-size="12" fill="#1E293B" text-anchor="middle">Detail</text>

  <rect x="490" y="725" width="260" height="36" rx="6" fill="#FFFFFF" stroke="#6366F1" stroke-width="1.5"/>
  <text x="620" y="748" font-size="12" fill="#1E293B" text-anchor="middle">Edit</text>

  <line x1="620" y1="671" x2="620" y2="680" stroke="#475569" stroke-width="1.5" marker-end="url(#arrow)"/>
  <line x1="640" y1="716" x2="640" y2="725" stroke="#475569" stroke-width="1.5" marker-end="url(#arrow)"/>
  <line x1="600" y1="725" x2="600" y2="716" stroke="#475569" stroke-width="1.5" marker-end="url(#arrow)"/>
  <text x="660" y="722" font-size="10" fill="#475569" text-anchor="middle">edit</text>

  <!-- ===== Composite: Non-Functional ===== -->
  <rect x="810" y="600" width="300" height="190" rx="10" fill="#F8FAFC" stroke="#CBD5E1" stroke-width="1.5"/>
  <text x="830" y="622" font-size="12" font-weight="700" fill="#64748B">Non-Functional</text>

  <rect x="830" y="635" width="260" height="36" rx="6" fill="#FFFFFF" stroke="#6366F1" stroke-width="1.5"/>
  <text x="960" y="658" font-size="12" fill="#1E293B" text-anchor="middle">List</text>

  <rect x="830" y="680" width="260" height="36" rx="6" fill="#FFFFFF" stroke="#6366F1" stroke-width="1.5"/>
  <text x="960" y="703" font-size="12" fill="#1E293B" text-anchor="middle">Detail</text>

  <rect x="830" y="725" width="260" height="36" rx="6" fill="#FFFFFF" stroke="#6366F1" stroke-width="1.5"/>
  <text x="960" y="748" font-size="12" fill="#1E293B" text-anchor="middle">Edit</text>

  <line x1="960" y1="671" x2="960" y2="680" stroke="#475569" stroke-width="1.5" marker-end="url(#arrow)"/>
  <line x1="980" y1="716" x2="980" y2="725" stroke="#475569" stroke-width="1.5" marker-end="url(#arrow)"/>
  <line x1="940" y1="725" x2="940" y2="716" stroke="#475569" stroke-width="1.5" marker-end="url(#arrow)"/>
  <text x="1000" y="722" font-size="10" fill="#475569" text-anchor="middle">edit</text>

  <!-- ===== Composite: Documents ===== -->
  <rect x="1150" y="600" width="280" height="150" rx="10" fill="#F8FAFC" stroke="#CBD5E1" stroke-width="1.5"/>
  <text x="1170" y="622" font-size="12" font-weight="700" fill="#64748B">Documents</text>

  <rect x="1170" y="635" width="240" height="36" rx="6" fill="#FFFFFF" stroke="#6366F1" stroke-width="1.5"/>
  <text x="1290" y="658" font-size="12" fill="#1E293B" text-anchor="middle">List</text>

  <rect x="1170" y="685" width="240" height="36" rx="6" fill="#FFFFFF" stroke="#6366F1" stroke-width="1.5"/>
  <text x="1290" y="708" font-size="12" fill="#1E293B" text-anchor="middle">Detail</text>

  <line x1="1290" y1="671" x2="1290" y2="685" stroke="#475569" stroke-width="1.5" marker-end="url(#arrow)"/>

  <!-- Dashboard <-> composites (bidirectional, via NavBar) -->
  <line x1="790" y1="490" x2="282" y2="598" stroke="#475569" stroke-width="1.3" marker-end="url(#arrow)"/>
  <line x1="282" y1="598" x2="790" y2="490" stroke="#475569" stroke-width="1.3" marker-end="url(#arrow)"/>

  <line x1="790" y1="490" x2="620" y2="598" stroke="#475569" stroke-width="1.3" marker-end="url(#arrow)"/>
  <line x1="620" y1="598" x2="790" y2="490" stroke="#475569" stroke-width="1.3" marker-end="url(#arrow)"/>

  <line x1="790" y1="490" x2="960" y2="598" stroke="#475569" stroke-width="1.3" marker-end="url(#arrow)"/>
  <line x1="960" y1="598" x2="790" y2="490" stroke="#475569" stroke-width="1.3" marker-end="url(#arrow)"/>

  <line x1="790" y1="490" x2="1290" y2="598" stroke="#475569" stroke-width="1.3" marker-end="url(#arrow)"/>
  <line x1="1290" y1="598" x2="790" y2="490" stroke="#475569" stroke-width="1.3" marker-end="url(#arrow)"/>

  <!-- Slug search shortcut into project context -->
  <path d="M1300,345 C 1400,400 1450,440 1470,500" fill="none" stroke="#6366F1" stroke-width="1.5" stroke-dasharray="5 4" marker-end="url(#arrowIndigo)"/>
  <text x="1430" y="392" font-size="10" fill="#6366F1" text-anchor="end">FR / NFR / Stakeholder /</text>
  <text x="1430" y="406" font-size="10" fill="#6366F1" text-anchor="end">Functionality / Document</text>

  <!-- Global NavBar reachability note -->
  <text x="60" y="845" font-size="11" font-style="italic" fill="#64748B">Home, Diagrams and User Management are reachable at any time via the persistent NavBar.</text>

  <!-- Authenticated -> ErrorPage / ErrorPage -> Home -->
  <path d="M1520,260 C 1545,150 900,75 720,118" fill="none" stroke="#475569" stroke-width="1.5" marker-end="url(#arrow)"/>
  <text x="1180" y="150" font-size="11" fill="#475569" text-anchor="middle">invalid route</text>

  <path d="M635,145 C 470,230 250,260 170,318" fill="none" stroke="#475569" stroke-width="1.5" marker-end="url(#arrow)"/>
  <text x="430" y="225" font-size="11" fill="#475569" text-anchor="middle">back</text>

  <!-- ===== Cross-entity reference links (FR / NFR Detail -> Stakeholder / Document / peer Detail) ===== -->
  <line x1="410" y1="692" x2="490" y2="692" stroke="#0EA5E9" stroke-width="1.4" marker-end="url(#arrowSky)"/>

  <line x1="830" y1="704" x2="750" y2="704" stroke="#0EA5E9" stroke-width="1.4" marker-end="url(#arrowSky)"/>

  <line x1="1090" y1="704" x2="1170" y2="709" stroke="#0EA5E9" stroke-width="1.4" marker-end="url(#arrowSky)"/>

  <path d="M280,716 C 280,840 1290,840 1290,721" fill="none" stroke="#0EA5E9" stroke-width="1.4" marker-end="url(#arrowSky)"/>

  <path d="M960,716 C 960,815 280,815 280,716" fill="none" stroke="#0EA5E9" stroke-width="1.4" marker-end="url(#arrowSky)"/>

  <path d="M350,680 C 360,650 400,650 410,680" fill="none" stroke="#0EA5E9" stroke-width="1.4" marker-end="url(#arrowSky)"/>

  <text x="60" y="862" font-size="11" font-style="italic" fill="#0EA5E9">Sky-blue links: cross-entity references (requirement ↔ stakeholder / document / peer requirement).</text>

</svg>