<?xml version="1.0" encoding="us-ascii" standalone="no"?><svg xmlns="http://www.w3.org/2000/svg" xmlns:xlink="http://www.w3.org/1999/xlink" contentStyleType="text/css" height="400px" preserveAspectRatio="none" style="width:750px;height:400px;background:#FFFFFF;" version="1.1" viewBox="0 0 750 400" width="750px" zoomAndPan="magnify"><defs/><g><text fill="#000000" font-family="sans-serif" font-size="14" font-weight="bold" lengthAdjust="spacing" textLength="131" x="302.5" y="24.5332">Organization Chart</text><!--entity PM--><g id="elem_PM"><rect fill="#F1F1F1" height="37.6094" style="stroke:#181818;stroke-width:0.5;" width="124" x="362.5" y="45.6094"/><text fill="#000000" font-family="sans-serif" font-size="14" lengthAdjust="spacing" textLength="104" x="372.5" y="70.1426">Project Manager</text></g><!--entity TC--><g id="elem_TC"><rect fill="#F1F1F1" height="37.6094" style="stroke:#181818;stroke-width:0.5;" width="166" x="69.5" y="143.6094"/><text fill="#000000" font-family="sans-serif" font-size="14" lengthAdjust="spacing" textLength="146" x="79.5" y="168.1426">Technology Consultant</text></g><!--entity SA--><g id="elem_SA"><rect fill="#F1F1F1" height="37.6094" style="stroke:#181818;stroke-width:0.5;" width="134" x="270.5" y="143.6094"/><text fill="#000000" font-family="sans-serif" font-size="14" lengthAdjust="spacing" textLength="114" x="280.5" y="168.1426">Software Architect</text></g><!--entity SC--><g id="elem_SC"><rect fill="#F1F1F1" height="37.6094" style="stroke:#181818;stroke-width:0.5;" width="146" x="439.5" y="143.6094"/><text fill="#000000" font-family="sans-serif" font-size="14" lengthAdjust="spacing" textLength="126" x="449.5" y="168.1426">Service Coordinator</text></g><!--entity SYA--><g id="elem_SYA"><rect fill="#F1F1F1" height="37.6094" style="stroke:#181818;stroke-width:0.5;" width="123" x="621" y="143.6094"/><text fill="#000000" font-family="sans-serif" font-size="14" lengthAdjust="spacing" textLength="103" x="631" y="168.1426">Systems Analyst</text></g><!--entity SD1--><g id="elem_SD1"><rect fill="#F1F1F1" height="55.2188" style="stroke:#181818;stroke-width:0.5;" width="130" x="185.5" y="241.6094"/><text fill="#000000" font-family="sans-serif" font-size="14" lengthAdjust="spacing" textLength="110" x="195.5" y="266.1426">Senior Developer</text><text fill="#000000" font-family="sans-serif" font-size="14" lengthAdjust="spacing" textLength="8" x="195.5" y="283.752">1</text></g><!--entity SD2--><g id="elem_SD2"><rect fill="#F1F1F1" height="55.2188" style="stroke:#181818;stroke-width:0.5;" width="130" x="359.5" y="241.6094"/><text fill="#000000" font-family="sans-serif" font-size="14" lengthAdjust="spacing" textLength="110" x="369.5" y="266.1426">Senior Developer</text><text fill="#000000" font-family="sans-serif" font-size="14" lengthAdjust="spacing" textLength="8" x="369.5" y="283.752">2</text></g><!--entity JD1--><g id="elem_JD1"><rect fill="#F1F1F1" height="37.6094" style="stroke:#181818;stroke-width:0.5;" width="139" x="7" y="356.6094"/><text fill="#000000" font-family="sans-serif" font-size="14" lengthAdjust="spacing" textLength="119" x="17" y="381.1426">Junior Developer 1</text></g><!--entity JD2--><g id="elem_JD2"><rect fill="#F1F1F1" height="37.6094" style="stroke:#181818;stroke-width:0.5;" width="139" x="181" y="356.6094"/><text fill="#000000" font-family="sans-serif" font-size="14" lengthAdjust="spacing" textLength="119" x="191" y="381.1426">Junior Developer 2</text></g><!--entity JD3--><g id="elem_JD3"><rect fill="#F1F1F1" height="37.6094" style="stroke:#181818;stroke-width:0.5;" width="139" x="355" y="356.6094"/><text fill="#000000" font-family="sans-serif" font-size="14" lengthAdjust="spacing" textLength="119" x="365" y="381.1426">Junior Developer 3</text></g><!--entity JD4--><g id="elem_JD4"><rect fill="#F1F1F1" height="37.6094" style="stroke:#181818;stroke-width:0.5;" width="139" x="529" y="356.6094"/><text fill="#000000" font-family="sans-serif" font-size="14" lengthAdjust="spacing" textLength="119" x="539" y="381.1426">Junior Developer 4</text></g><!--link PM to TC--><g id="link_PM_TC"><path d="M362.44,64.6094 C282.16,64.6094 152.5,64.6094 152.5,64.6094 C152.5,64.6094 152.5,114.6894 152.5,143.2494 " fill="none" id="PM-TC" style="stroke:#181818;stroke-width:1.0;"/></g><!--link PM to SA--><g id="link_PM_SA"><path d="M383.5,83.9694 C383.5,101.1494 383.5,126.1194 383.5,143.2894 " fill="none" id="PM-SA" style="stroke:#181818;stroke-width:1.0;"/></g><!--link PM to SC--><g id="link_PM_SC"><path d="M463,83.9694 C463,101.1494 463,126.1194 463,143.2894 " fill="none" id="PM-SC" style="stroke:#181818;stroke-width:1.0;"/></g><!--link PM to SYA--><g id="link_PM_SYA"><path d="M486.63,64.6094 C562.97,64.6094 682.5,64.6094 682.5,64.6094 C682.5,64.6094 682.5,114.6894 682.5,143.2494 " fill="none" id="PM-SYA" style="stroke:#181818;stroke-width:1.0;"/></g><!--link SA to SD1--><g id="link_SA_SD1"><path d="M293,181.6494 C293,198.2794 293,222.6394 293,241.4294 " fill="none" id="SA-SD1" style="stroke:#181818;stroke-width:1.0;"/></g><!--link SA to SD2--><g id="link_SA_SD2"><path d="M382,181.6494 C382,198.2794 382,222.6394 382,241.4294 " fill="none" id="SA-SD2" style="stroke:#181818;stroke-width:1.0;"/></g><!--link SD1 to JD1--><g id="link_SD1_JD1"><path d="M185.39,269.6094 C147.74,269.6094 107.75,269.6094 107.75,269.6094 C107.75,269.6094 107.75,325.5694 107.75,356.1694 " fill="none" id="SD1-JD1" style="stroke:#181818;stroke-width:1.0;"/></g><!--link SD1 to JD2--><g id="link_SD1_JD2"><path d="M250.5,296.8094 C250.5,315.5494 250.5,339.8194 250.5,356.4394 " fill="none" id="SD1-JD2" style="stroke:#181818;stroke-width:1.0;"/></g><!--link SD2 to JD3--><g id="link_SD2_JD3"><path d="M424.5,296.8094 C424.5,315.5494 424.5,339.8194 424.5,356.4394 " fill="none" id="SD2-JD3" style="stroke:#181818;stroke-width:1.0;"/></g><!--link SD2 to JD4--><g id="link_SD2_JD4"><path d="M489.71,269.6094 C523.28,269.6094 557.25,269.6094 557.25,269.6094 C557.25,269.6094 557.25,325.5694 557.25,356.1694 " fill="none" id="SD2-JD4" style="stroke:#181818;stroke-width:1.0;"/></g><!--SRC=[VP71QiCm38RlVWhHIq-5DUqBXFHKA0kaby4k8jKIRwuK5BSb6tltEKssn0nwy-V_upUIlVMEu5ahPFk9tWf3LgDwOzeFomqgdi5P9jyr1AA-bbcWL7haAXHy6G2L2vyoKIQ59_Djp1GlSfNtG710nefq0TX2VeYK8vKrYvEgWqoulRWG-BjupEPU8M_-XagGQbbR7uAxLAIHH7gr9OKcqPDbz3AyMSHLNUlft4BAwC9nC5vI4pUn5OKTNSb9G_hAwy7RhHzhoQWbKTt-4dimjEtZjdzMCbh9GsipMfk7rdQqjiOiuIWDk3uo-G5M9xdngj_t166lCuYIVbFBwHkWjgGOg3D5-YU5mUOKjX6kVhaVEy9xd4oyYN5hVW00]--></g></svg>