<?xml version="1.0" encoding="us-ascii" standalone="no"?><svg xmlns="http://www.w3.org/2000/svg" xmlns:xlink="http://www.w3.org/1999/xlink" contentStyleType="text/css" height="316px" preserveAspectRatio="none" style="width:460px;height:316px;background:#FFFFFF;" version="1.1" viewBox="0 0 460 316" width="460px" zoomAndPan="magnify"><defs/><g><text fill="#000000" font-family="sans-serif" font-size="14" font-weight="bold" lengthAdjust="spacing" textLength="217" x="114.5" y="24.5332">Observations between entities</text><!--class Requirement--><g id="elem_Requirement"><rect codeLine="3" fill="#F1F1F1" height="48" id="Requirement" rx="2.5" ry="2.5" style="stroke:#181818;stroke-width:0.5;" width="113" x="279.5" y="153.6094"/><ellipse cx="294.5" cy="169.6094" fill="#A9DCDF" rx="11" ry="11" style="stroke:#181818;stroke-width:1.0;"/><path d="M296.6875,171.375 L292.5469,171.375 L292.125,172.4063 L292.5469,172.4063 Q293.1563,172.4063 293.4219,172.6406 Q293.6875,172.875 293.6875,173.2656 Q293.6875,173.6406 293.4219,173.875 Q293.1563,174.1094 292.5469,174.1094 L290.25,174.1094 Q289.6406,174.1094 289.3906,173.875 Q289.125,173.6406 289.125,173.25 Q289.125,172.875 289.4063,172.6406 Q289.6719,172.3906 290.2969,172.4063 L292.9688,165.75 L291.8594,165.75 Q291.25,165.75 290.9844,165.5156 Q290.7188,165.2813 290.7188,164.8906 Q290.7188,164.5156 290.9844,164.2813 Q291.25,164.0469 291.8594,164.0469 L295.5313,164.0469 L298.9219,172.4063 Q299.5156,172.4063 299.7031,172.5469 Q300.0938,172.8125 300.0938,173.2656 Q300.0938,173.6406 299.8281,173.875 Q299.5781,174.1094 298.9688,174.1094 L296.6719,174.1094 Q296.0625,174.1094 295.7969,173.875 Q295.5313,173.6406 295.5313,173.25 Q295.5313,172.875 295.7969,172.6406 Q296.0625,172.4063 296.6719,172.4063 L297.0938,172.4063 L296.6875,171.375 Z M295.9688,169.6719 L294.6094,166.2969 L293.2344,169.6719 L295.9688,169.6719 Z " fill="#000000"/><text fill="#000000" font-family="sans-serif" font-size="14" font-style="italic" lengthAdjust="spacing" textLength="81" x="308.5" y="175.3379">Requirement</text><line style="stroke:#181818;stroke-width:0.5;" x1="280.5" x2="391.5" y1="185.6094" y2="185.6094"/><line style="stroke:#181818;stroke-width:0.5;" x1="280.5" x2="391.5" y1="193.6094" y2="193.6094"/></g><!--class NonFunctionalRequirement--><g id="elem_NonFunctionalRequirement"><rect codeLine="5" fill="#F1F1F1" height="48" id="NonFunctionalRequirement" rx="2.5" ry="2.5" style="stroke:#181818;stroke-width:0.5;" width="204" x="7" y="261.6094"/><ellipse cx="22" cy="277.6094" fill="#ADD1B2" rx="11" ry="11" style="stroke:#181818;stroke-width:1.0;"/><path d="M24.7656,273.4844 Q24.9219,273.2656 25.1094,273.1563 Q25.2969,273.0469 25.5156,273.0469 Q25.8906,273.0469 26.125,273.3125 Q26.3594,273.5625 26.3594,274.1719 L26.3594,275.625 Q26.3594,276.2344 26.125,276.5 Q25.8906,276.7656 25.5156,276.7656 Q25.1719,276.7656 24.9688,276.5625 Q24.7656,276.375 24.6563,275.8594 Q24.6094,275.5 24.4219,275.3125 Q24.0938,274.9375 23.4844,274.7188 Q22.875,274.5 22.25,274.5 Q21.4844,274.5 20.8438,274.8281 Q20.2188,275.1563 19.7188,275.9063 Q19.2344,276.6563 19.2344,277.6875 L19.2344,278.7813 Q19.2344,280.0156 20.125,280.8438 Q21.0156,281.6563 22.6094,281.6563 Q23.5469,281.6563 24.2031,281.4063 Q24.5938,281.25 25.0156,280.8125 Q25.2813,280.5469 25.4219,280.4688 Q25.5781,280.3906 25.7813,280.3906 Q26.1094,280.3906 26.3594,280.6563 Q26.625,280.9063 26.625,281.25 Q26.625,281.5938 26.2813,282 Q25.7813,282.5781 24.9844,282.9063 Q23.9063,283.3594 22.6094,283.3594 Q21.0938,283.3594 19.8906,282.7344 Q18.9063,282.2344 18.2188,281.1719 Q17.5313,280.0938 17.5313,278.8125 L17.5313,277.6563 Q17.5313,276.3281 18.1406,275.1875 Q18.7656,274.0313 19.8594,273.4219 Q20.9531,272.7969 22.1875,272.7969 Q22.9219,272.7969 23.5625,272.9688 Q24.2188,273.125 24.7656,273.4844 Z " fill="#000000"/><text fill="#000000" font-family="sans-serif" font-size="14" lengthAdjust="spacing" textLength="172" x="36" y="283.3379">NonFunctionalRequirement</text><line style="stroke:#181818;stroke-width:0.5;" x1="8" x2="210" y1="293.6094" y2="293.6094"/><line style="stroke:#181818;stroke-width:0.5;" x1="8" x2="210" y1="301.6094" y2="301.6094"/></g><!--class FunctionalRequirement--><g id="elem_FunctionalRequirement"><rect codeLine="7" fill="#F1F1F1" height="48" id="FunctionalRequirement" rx="2.5" ry="2.5" style="stroke:#181818;stroke-width:0.5;" width="179" x="246.5" y="261.6094"/><ellipse cx="261.5" cy="277.6094" fill="#ADD1B2" rx="11" ry="11" style="stroke:#181818;stroke-width:1.0;"/><path d="M264.2656,273.4844 Q264.4219,273.2656 264.6094,273.1563 Q264.7969,273.0469 265.0156,273.0469 Q265.3906,273.0469 265.625,273.3125 Q265.8594,273.5625 265.8594,274.1719 L265.8594,275.625 Q265.8594,276.2344 265.625,276.5 Q265.3906,276.7656 265.0156,276.7656 Q264.6719,276.7656 264.4688,276.5625 Q264.2656,276.375 264.1563,275.8594 Q264.1094,275.5 263.9219,275.3125 Q263.5938,274.9375 262.9844,274.7188 Q262.375,274.5 261.75,274.5 Q260.9844,274.5 260.3438,274.8281 Q259.7188,275.1563 259.2188,275.9063 Q258.7344,276.6563 258.7344,277.6875 L258.7344,278.7813 Q258.7344,280.0156 259.625,280.8438 Q260.5156,281.6563 262.1094,281.6563 Q263.0469,281.6563 263.7031,281.4063 Q264.0938,281.25 264.5156,280.8125 Q264.7813,280.5469 264.9219,280.4688 Q265.0781,280.3906 265.2813,280.3906 Q265.6094,280.3906 265.8594,280.6563 Q266.125,280.9063 266.125,281.25 Q266.125,281.5938 265.7813,282 Q265.2813,282.5781 264.4844,282.9063 Q263.4063,283.3594 262.1094,283.3594 Q260.5938,283.3594 259.3906,282.7344 Q258.4063,282.2344 257.7188,281.1719 Q257.0313,280.0938 257.0313,278.8125 L257.0313,277.6563 Q257.0313,276.3281 257.6406,275.1875 Q258.2656,274.0313 259.3594,273.4219 Q260.4531,272.7969 261.6875,272.7969 Q262.4219,272.7969 263.0625,272.9688 Q263.7188,273.125 264.2656,273.4844 Z " fill="#000000"/><text fill="#000000" font-family="sans-serif" font-size="14" lengthAdjust="spacing" textLength="147" x="275.5" y="283.3379">FunctionalRequirement</text><line style="stroke:#181818;stroke-width:0.5;" x1="247.5" x2="424.5" y1="293.6094" y2="293.6094"/><line style="stroke:#181818;stroke-width:0.5;" x1="247.5" x2="424.5" y1="301.6094" y2="301.6094"/></g><!--class Stakeholder--><g id="elem_Stakeholder"><rect codeLine="9" fill="#F1F1F1" height="48" id="Stakeholder" rx="2.5" ry="2.5" style="stroke:#181818;stroke-width:0.5;" width="108" x="214" y="45.6094"/><ellipse cx="229" cy="61.6094" fill="#ADD1B2" rx="11" ry="11" style="stroke:#181818;stroke-width:1.0;"/><path d="M231.7656,57.4844 Q231.9219,57.2656 232.1094,57.1563 Q232.2969,57.0469 232.5156,57.0469 Q232.8906,57.0469 233.125,57.3125 Q233.3594,57.5625 233.3594,58.1719 L233.3594,59.625 Q233.3594,60.2344 233.125,60.5 Q232.8906,60.7656 232.5156,60.7656 Q232.1719,60.7656 231.9688,60.5625 Q231.7656,60.375 231.6563,59.8594 Q231.6094,59.5 231.4219,59.3125 Q231.0938,58.9375 230.4844,58.7188 Q229.875,58.5 229.25,58.5 Q228.4844,58.5 227.8438,58.8281 Q227.2188,59.1563 226.7188,59.9063 Q226.2344,60.6563 226.2344,61.6875 L226.2344,62.7813 Q226.2344,64.0156 227.125,64.8438 Q228.0156,65.6563 229.6094,65.6563 Q230.5469,65.6563 231.2031,65.4063 Q231.5938,65.25 232.0156,64.8125 Q232.2813,64.5469 232.4219,64.4688 Q232.5781,64.3906 232.7813,64.3906 Q233.1094,64.3906 233.3594,64.6563 Q233.625,64.9063 233.625,65.25 Q233.625,65.5938 233.2813,66 Q232.7813,66.5781 231.9844,66.9063 Q230.9063,67.3594 229.6094,67.3594 Q228.0938,67.3594 226.8906,66.7344 Q225.9063,66.2344 225.2188,65.1719 Q224.5313,64.0938 224.5313,62.8125 L224.5313,61.6563 Q224.5313,60.3281 225.1406,59.1875 Q225.7656,58.0313 226.8594,57.4219 Q227.9531,56.7969 229.1875,56.7969 Q229.9219,56.7969 230.5625,56.9688 Q231.2188,57.125 231.7656,57.4844 Z " fill="#000000"/><text fill="#000000" font-family="sans-serif" font-size="14" lengthAdjust="spacing" textLength="76" x="243" y="67.3379">Stakeholder</text><line style="stroke:#181818;stroke-width:0.5;" x1="215" x2="321" y1="77.6094" y2="77.6094"/><line style="stroke:#181818;stroke-width:0.5;" x1="215" x2="321" y1="85.6094" y2="85.6094"/></g><!--class Document--><g id="elem_Document"><rect codeLine="11" fill="#F1F1F1" height="48" id="Document" rx="2.5" ry="2.5" style="stroke:#181818;stroke-width:0.5;" width="96" x="357" y="45.6094"/><ellipse cx="372" cy="61.6094" fill="#ADD1B2" rx="11" ry="11" style="stroke:#181818;stroke-width:1.0;"/><path d="M374.7656,57.4844 Q374.9219,57.2656 375.1094,57.1563 Q375.2969,57.0469 375.5156,57.0469 Q375.8906,57.0469 376.125,57.3125 Q376.3594,57.5625 376.3594,58.1719 L376.3594,59.625 Q376.3594,60.2344 376.125,60.5 Q375.8906,60.7656 375.5156,60.7656 Q375.1719,60.7656 374.9688,60.5625 Q374.7656,60.375 374.6563,59.8594 Q374.6094,59.5 374.4219,59.3125 Q374.0938,58.9375 373.4844,58.7188 Q372.875,58.5 372.25,58.5 Q371.4844,58.5 370.8438,58.8281 Q370.2188,59.1563 369.7188,59.9063 Q369.2344,60.6563 369.2344,61.6875 L369.2344,62.7813 Q369.2344,64.0156 370.125,64.8438 Q371.0156,65.6563 372.6094,65.6563 Q373.5469,65.6563 374.2031,65.4063 Q374.5938,65.25 375.0156,64.8125 Q375.2813,64.5469 375.4219,64.4688 Q375.5781,64.3906 375.7813,64.3906 Q376.1094,64.3906 376.3594,64.6563 Q376.625,64.9063 376.625,65.25 Q376.625,65.5938 376.2813,66 Q375.7813,66.5781 374.9844,66.9063 Q373.9063,67.3594 372.6094,67.3594 Q371.0938,67.3594 369.8906,66.7344 Q368.9063,66.2344 368.2188,65.1719 Q367.5313,64.0938 367.5313,62.8125 L367.5313,61.6563 Q367.5313,60.3281 368.1406,59.1875 Q368.7656,58.0313 369.8594,57.4219 Q370.9531,56.7969 372.1875,56.7969 Q372.9219,56.7969 373.5625,56.9688 Q374.2188,57.125 374.7656,57.4844 Z " fill="#000000"/><text fill="#000000" font-family="sans-serif" font-size="14" lengthAdjust="spacing" textLength="64" x="386" y="67.3379">Document</text><line style="stroke:#181818;stroke-width:0.5;" x1="358" x2="452" y1="77.6094" y2="77.6094"/><line style="stroke:#181818;stroke-width:0.5;" x1="358" x2="452" y1="85.6094" y2="85.6094"/></g><!--reverse link Requirement to NonFunctionalRequirement--><g id="link_Requirement_NonFunctionalRequirement"><path codeLine="14" d="M270.4311,209.2265 C232.4911,226.9465 196.57,243.7194 158.55,261.4694 " fill="none" id="Requirement-backto-NonFunctionalRequirement" style="stroke:#181818;stroke-width:1.0;"/><polygon fill="none" points="286.74,201.6094,267.8921,203.7902,272.9702,214.6628,286.74,201.6094" style="stroke:#181818;stroke-width:1.0;"/></g><!--reverse link Requirement to FunctionalRequirement--><g id="link_Requirement_FunctionalRequirement"><path codeLine="15" d="M322.5693,219.4056 C319.8893,237.0656 322.58,243.5494 325.23,261.2894 " fill="none" id="Requirement-backto-FunctionalRequirement" style="stroke:#181818;stroke-width:1.0;"/><polygon fill="none" points="325.27,201.6094,316.6372,218.5054,328.5014,220.3058,325.27,201.6094" style="stroke:#181818;stroke-width:1.0;"/></g><!--link Requirement to FunctionalRequirement--><g id="link_Requirement_FunctionalRequirement"><path codeLine="19" d="M347.36,201.6094 C350.2,219.2694 351.1454,237.6227 348.3454,255.3627 " fill="none" id="Requirement-to-FunctionalRequirement" style="stroke:#181818;stroke-width:1.0;"/><polygon fill="#181818" points="347.41,261.2894,352.7642,253.023,348.1895,256.3505,344.8621,251.7758,347.41,261.2894" style="stroke:#181818;stroke-width:1.0;"/><text fill="#000000" font-family="sans-serif" font-size="13" lengthAdjust="spacing" textLength="5" x="344.5196" y="222.9473">*</text><text fill="#000000" font-family="sans-serif" font-size="13" lengthAdjust="spacing" textLength="5" x="344.5818" y="250.9493">*</text></g><!--link Stakeholder to Requirement--><g id="link_Stakeholder_Requirement"><path codeLine="17" d="M282.75,93.6094 C294.08,111.2694 306.4203,130.4992 317.8003,148.2392 " fill="none" id="Stakeholder-to-Requirement" style="stroke:#181818;stroke-width:1.0;"/><polygon fill="#181818" points="321.04,153.2894,319.5473,143.5543,318.3403,149.0809,312.8137,147.8738,321.04,153.2894" style="stroke:#181818;stroke-width:1.0;"/><text fill="#000000" font-family="sans-serif" font-size="13" lengthAdjust="spacing" textLength="5" x="280.7359" y="114.9473">*</text><text fill="#000000" font-family="sans-serif" font-size="13" lengthAdjust="spacing" textLength="5" x="311.7841" y="142.9493">*</text></g><!--link Document to Requirement--><g id="link_Document_Requirement"><path codeLine="18" d="M390.03,93.6094 C378.53,111.2694 366.0037,130.5212 354.4537,148.2612 " fill="none" id="Document-to-Requirement" style="stroke:#181818;stroke-width:1.0;"/><polygon fill="#181818" points="351.18,153.2894,359.4427,147.9296,353.9081,149.0992,352.7384,143.5646,351.18,153.2894" style="stroke:#181818;stroke-width:1.0;"/><text fill="#000000" font-family="sans-serif" font-size="13" lengthAdjust="spacing" textLength="5" x="380.7717" y="114.9473">*</text><text fill="#000000" font-family="sans-serif" font-size="13" lengthAdjust="spacing" textLength="5" x="349.2708" y="142.9493">*</text></g><!--SRC=[XOzD2W8n34RtEKMOfT0RY2jngQ0dQ3i1YpN59dKMetVt3uOg7Lm5afUyBneq4kwSKBvQ3Oa57Ub0n4YiGGC9W7MYsNf57wq8xkbIGgRp4y3n3l3fRXDl2llN3HlRoB_vGUs9ZYdsbAlkElaoWL1lBc-cJmERMVSlRTeH06fpj-ZGcDMxrh_256IMg7LVK5lx0000]--></g></svg>