<?xml version="1.0" encoding="us-ascii" standalone="no"?><svg xmlns="http://www.w3.org/2000/svg" xmlns:xlink="http://www.w3.org/1999/xlink" contentStyleType="text/css" height="1333px" preserveAspectRatio="none" style="width:701px;height:1333px;background:#FFFFFF;" version="1.1" viewBox="0 0 701 1333" width="701px" zoomAndPan="magnify"><defs/><g><text fill="#000000" font-family="sans-serif" font-size="14" font-weight="bold" lengthAdjust="spacing" textLength="282" x="202.9654" y="24.5332">Product Breakdown Structure - IR-Board</text><g id="elem_IRB"><ellipse cx="115.066" cy="958.9645" fill="#F1F1F1" rx="109.066" ry="40.3551" style="stroke:#181818;stroke-width:0.5;"/><text fill="#000000" font-family="sans-serif" font-size="14" lengthAdjust="spacing" textLength="56" x="87.066" y="945.0836">IR-Board</text><text fill="#000000" font-family="sans-serif" font-size="14" lengthAdjust="spacing" textLength="88" x="71.066" y="962.693">Requirements</text><text fill="#000000" font-family="sans-serif" font-size="14" lengthAdjust="spacing" textLength="138" x="46.066" y="980.3024">Management Platform</text></g><g id="elem_SEC"><ellipse cx="365.1604" cy="187.0128" fill="#F1F1F1" rx="78.6604" ry="27.9034" style="stroke:#181818;stroke-width:0.5;"/><text fill="#000000" font-family="sans-serif" font-size="14" lengthAdjust="spacing" textLength="79" x="325.6604" y="181.9366">Security and</text><text fill="#000000" font-family="sans-serif" font-size="14" lengthAdjust="spacing" textLength="95" x="317.6604" y="199.546">Access Control</text></g><g id="elem_RM"><ellipse cx="365.2107" cy="505.0128" fill="#F1F1F1" rx="73.7107" ry="27.9034" style="stroke:#181818;stroke-width:0.5;"/><text fill="#000000" font-family="sans-serif" font-size="14" lengthAdjust="spacing" textLength="88" x="321.2107" y="499.9366">Requirements</text><text fill="#000000" font-family="sans-serif" font-size="14" lengthAdjust="spacing" textLength="82" x="324.2107" y="517.546">Management</text></g><g id="elem_PM"><ellipse cx="364.968" cy="800.0128" fill="#F1F1F1" rx="69.468" ry="27.9034" style="stroke:#181818;stroke-width:0.5;"/><text fill="#000000" font-family="sans-serif" font-size="14" lengthAdjust="spacing" textLength="44" x="342.968" y="794.9366">Project</text><text fill="#000000" font-family="sans-serif" font-size="14" lengthAdjust="spacing" textLength="82" x="323.968" y="812.546">Management</text></g><g id="elem_USM"><ellipse cx="364.968" cy="959.0128" fill="#F1F1F1" rx="69.468" ry="27.9034" style="stroke:#181818;stroke-width:0.5;"/><text fill="#000000" font-family="sans-serif" font-size="14" lengthAdjust="spacing" textLength="29" x="350.468" y="953.9366">User</text><text fill="#000000" font-family="sans-serif" font-size="14" lengthAdjust="spacing" textLength="82" x="323.968" y="971.546">Management</text></g><g id="elem_PEM"><ellipse cx="364.7817" cy="1095.0128" fill="#F1F1F1" rx="80.7817" ry="27.9034" style="stroke:#181818;stroke-width:0.5;"/><text fill="#000000" font-family="sans-serif" font-size="14" lengthAdjust="spacing" textLength="98" x="315.7817" y="1089.9366">Project element</text><text fill="#000000" font-family="sans-serif" font-size="14" lengthAdjust="spacing" textLength="82" x="323.7817" y="1107.546">Management</text></g><g id="elem_COL"><ellipse cx="364.8823" cy="1186.0128" fill="#F1F1F1" rx="70.8823" ry="27.9034" style="stroke:#181818;stroke-width:0.5;"/><text fill="#000000" font-family="sans-serif" font-size="14" lengthAdjust="spacing" textLength="84" x="322.8823" y="1180.9366">Collaboration</text><text fill="#000000" font-family="sans-serif" font-size="14" lengthAdjust="spacing" textLength="54" x="337.8823" y="1198.546">Services</text></g><g id="elem_SF"><ellipse cx="365.1041" cy="1277.0128" fill="#F1F1F1" rx="63.1041" ry="27.9034" style="stroke:#181818;stroke-width:0.5;"/><text fill="#000000" font-family="sans-serif" font-size="14" lengthAdjust="spacing" textLength="73" x="328.6041" y="1271.9366">Search and</text><text fill="#000000" font-family="sans-serif" font-size="14" lengthAdjust="spacing" textLength="51" x="339.6041" y="1289.546">Filtering</text></g><g id="elem_SEC1"><ellipse cx="600.8567" cy="61.1807" fill="#F1F1F1" rx="70.8567" ry="16.5713" style="stroke:#181818;stroke-width:0.5;"/><text fill="#000000" font-family="sans-serif" font-size="14" lengthAdjust="spacing" textLength="90" x="552.8567" y="65.6973">Authentication</text></g><g id="elem_SEC2"><ellipse cx="600.968" cy="141.0128" fill="#F1F1F1" rx="69.468" ry="27.9034" style="stroke:#181818;stroke-width:0.5;"/><text fill="#000000" font-family="sans-serif" font-size="14" lengthAdjust="spacing" textLength="46" x="577.968" y="135.9366">ReBAC</text><text fill="#000000" font-family="sans-serif" font-size="14" lengthAdjust="spacing" textLength="82" x="559.968" y="153.546">Authorization</text></g><g id="elem_SEC3"><ellipse cx="601.1543" cy="232.0128" fill="#F1F1F1" rx="58.1543" ry="27.9034" style="stroke:#181818;stroke-width:0.5;"/><text fill="#000000" font-family="sans-serif" font-size="14" lengthAdjust="spacing" textLength="66" x="568.1543" y="226.9366">Zero Trust</text><text fill="#000000" font-family="sans-serif" font-size="14" lengthAdjust="spacing" textLength="38" x="582.1543" y="244.546">Model</text></g><g id="elem_RM1"><ellipse cx="601.2107" cy="323.0128" fill="#F1F1F1" rx="73.7107" ry="27.9034" style="stroke:#181818;stroke-width:0.5;"/><text fill="#000000" font-family="sans-serif" font-size="14" lengthAdjust="spacing" textLength="66" x="568.2107" y="317.9366">Functional</text><text fill="#000000" font-family="sans-serif" font-size="14" lengthAdjust="spacing" textLength="88" x="557.2107" y="335.546">Requirements</text></g><g id="elem_RM2"><ellipse cx="601.1604" cy="414.0128" fill="#F1F1F1" rx="78.6604" ry="27.9034" style="stroke:#181818;stroke-width:0.5;"/><text fill="#000000" font-family="sans-serif" font-size="14" lengthAdjust="spacing" textLength="95" x="553.6604" y="408.9366">Non Functional</text><text fill="#000000" font-family="sans-serif" font-size="14" lengthAdjust="spacing" textLength="88" x="557.1604" y="426.546">Requirements</text></g><g id="elem_RM3"><ellipse cx="600.968" cy="505.0128" fill="#F1F1F1" rx="69.468" ry="27.9034" style="stroke:#181818;stroke-width:0.5;"/><text fill="#000000" font-family="sans-serif" font-size="14" lengthAdjust="spacing" textLength="55" x="573.468" y="499.9366">Lifecycle</text><text fill="#000000" font-family="sans-serif" font-size="14" lengthAdjust="spacing" textLength="82" x="559.968" y="517.546">Management</text></g><g id="elem_RM4"><ellipse cx="600.8631" cy="584.2183" fill="#F1F1F1" rx="63.8631" ry="15.609" style="stroke:#181818;stroke-width:0.5;"/><text fill="#000000" font-family="sans-serif" font-size="14" lengthAdjust="spacing" textLength="73" x="561.3631" y="588.7349">Traceability</text></g><g id="elem_PM1"><ellipse cx="600.968" cy="663.0128" fill="#F1F1F1" rx="69.468" ry="27.9034" style="stroke:#181818;stroke-width:0.5;"/><text fill="#000000" font-family="sans-serif" font-size="14" lengthAdjust="spacing" textLength="44" x="578.968" y="657.9366">Project</text><text fill="#000000" font-family="sans-serif" font-size="14" lengthAdjust="spacing" textLength="82" x="559.968" y="675.546">Management</text></g><g id="elem_PM2"><ellipse cx="600.968" cy="754.0128" fill="#F1F1F1" rx="69.468" ry="27.9034" style="stroke:#181818;stroke-width:0.5;"/><text fill="#000000" font-family="sans-serif" font-size="14" lengthAdjust="spacing" textLength="80" x="560.968" y="748.9366">Functionality</text><text fill="#000000" font-family="sans-serif" font-size="14" lengthAdjust="spacing" textLength="82" x="559.968" y="766.546">Management</text></g><g id="elem_PM3"><ellipse cx="600.7904" cy="845.0128" fill="#F1F1F1" rx="51.7904" ry="27.9034" style="stroke:#181818;stroke-width:0.5;"/><text fill="#000000" font-family="sans-serif" font-size="14" lengthAdjust="spacing" textLength="56" x="572.7904" y="839.9366">Approval</text><text fill="#000000" font-family="sans-serif" font-size="14" lengthAdjust="spacing" textLength="57" x="572.2904" y="857.546">Workflow</text></g><g id="elem_USM1"><ellipse cx="600.968" cy="936.0128" fill="#F1F1F1" rx="69.468" ry="27.9034" style="stroke:#181818;stroke-width:0.5;"/><text fill="#000000" font-family="sans-serif" font-size="14" lengthAdjust="spacing" textLength="29" x="586.468" y="930.9366">User</text><text fill="#000000" font-family="sans-serif" font-size="14" lengthAdjust="spacing" textLength="82" x="559.968" y="948.546">Management</text></g><g id="elem_USM2"><ellipse cx="600.968" cy="1027.0128" fill="#F1F1F1" rx="69.468" ry="27.9034" style="stroke:#181818;stroke-width:0.5;"/><text fill="#000000" font-family="sans-serif" font-size="14" lengthAdjust="spacing" textLength="69" x="566.468" y="1021.9366">Permission</text><text fill="#000000" font-family="sans-serif" font-size="14" lengthAdjust="spacing" textLength="82" x="559.968" y="1039.546">Management</text></g><g id="elem_PEM1"><ellipse cx="600.9654" cy="1118.024" fill="#F1F1F1" rx="94.9654" ry="27.9147" style="stroke:#181818;stroke-width:0.5;"/><text fill="#000000" font-family="sans-serif" font-size="14" lengthAdjust="spacing" textLength="118" x="540.0113" y="1113.4773">Document Storage</text><text fill="#000000" font-family="sans-serif" font-size="14" lengthAdjust="spacing" textLength="110" x="544.0113" y="1131.0866">and management</text></g><g id="elem_PEM2"><ellipse cx="600.968" cy="1209.0128" fill="#F1F1F1" rx="69.468" ry="27.9034" style="stroke:#181818;stroke-width:0.5;"/><text fill="#000000" font-family="sans-serif" font-size="14" lengthAdjust="spacing" textLength="76" x="562.968" y="1203.9366">Stakeholder</text><text fill="#000000" font-family="sans-serif" font-size="14" lengthAdjust="spacing" textLength="82" x="559.968" y="1221.546">Management</text></g><g id="elem_COL1"><ellipse cx="601.2107" cy="1300.0128" fill="#F1F1F1" rx="73.7107" ry="27.9034" style="stroke:#181818;stroke-width:0.5;"/><text fill="#000000" font-family="sans-serif" font-size="14" lengthAdjust="spacing" textLength="88" x="557.2107" y="1294.9366">Entity Locking</text><text fill="#000000" font-family="sans-serif" font-size="14" lengthAdjust="spacing" textLength="46" x="578.2107" y="1312.546">Module</text></g><!--link IRB to SEC--><g id="link_IRB_SEC"><path d="M79,920.8294 C79,765.0494 79,187.1094 79,187.1094 C79,187.1094 201.8,187.1094 286.47,187.1094 " fill="none" id="IRB-SEC" style="stroke:#181818;stroke-width:1.0;"/></g><!--link IRB to RM--><g id="link_IRB_RM"><path d="M152,920.7894 C152,811.3394 152,505.1094 152,505.1094 C152,505.1094 229.83,505.1094 291.4,505.1094 " fill="none" id="IRB-RM" style="stroke:#181818;stroke-width:1.0;"/></g><!--link IRB to PM--><g id="link_IRB_PM"><path d="M173.3,924.8594 C247.17,924.8594 365,924.8594 365,924.8594 C365,924.8594 365,865.2194 365,828.4194 " fill="none" id="IRB-PM" style="stroke:#181818;stroke-width:1.0;"/></g><!--link IRB to USM--><g id="link_IRB_USM"><path d="M224.29,959.1094 C248.33,959.1094 273.17,959.1094 295.15,959.1094 " fill="none" id="IRB-USM" style="stroke:#181818;stroke-width:1.0;"/></g><!--link IRB to PEM--><g id="link_IRB_PEM"><path d="M174.25,993.1094 C248.17,993.1094 365,993.1094 365,993.1094 C365,993.1094 365,1036.7794 365,1066.9694 " fill="none" id="IRB-PEM" style="stroke:#181818;stroke-width:1.0;"/></g><!--link IRB to COL--><g id="link_IRB_COL"><path d="M152,997.3594 C152,1062.0494 152,1186.1094 152,1186.1094 C152,1186.1094 231.86,1186.1094 293.78,1186.1094 " fill="none" id="IRB-COL" style="stroke:#181818;stroke-width:1.0;"/></g><!--link IRB to SF--><g id="link_IRB_SF"><path d="M79,997.4694 C79,1082.0494 79,1277.1094 79,1277.1094 C79,1277.1094 217.66,1277.1094 301.88,1277.1094 " fill="none" id="IRB-SF" style="stroke:#181818;stroke-width:1.0;"/></g><!--link SEC to SEC1--><g id="link_SEC_SEC1"><path d="M365,158.8294 C365,121.6794 365,61.1094 365,61.1094 C365,61.1094 460.38,61.1094 529.87,61.1094 " fill="none" id="SEC-SEC1" style="stroke:#181818;stroke-width:1.0;"/></g><!--link SEC to SEC2--><g id="link_SEC_SEC2"><path d="M409.95,164.1094 C453.68,164.1094 519.48,164.1094 561.32,164.1094 " fill="none" id="SEC-SEC2" style="stroke:#181818;stroke-width:1.0;"/></g><!--link SEC to SEC3--><g id="link_SEC_SEC3"><path d="M411.91,209.6094 C457.48,209.6094 525.6,209.6094 566.43,209.6094 " fill="none" id="SEC-SEC3" style="stroke:#181818;stroke-width:1.0;"/></g><!--link RM to RM1--><g id="link_RM_RM1"><path d="M365,477.0694 C365,426.0194 365,323.1094 365,323.1094 C365,323.1094 458.05,323.1094 527.3,323.1094 " fill="none" id="RM-RM1" style="stroke:#181818;stroke-width:1.0;"/></g><!--link RM to RM2--><g id="link_RM_RM2"><path d="M434.64,495.7794 C478.55,495.7794 527,495.7794 527,495.7794 C527,495.7794 527,444.9294 527,423.4794 " fill="none" id="RM-RM2" style="stroke:#181818;stroke-width:1.0;"/></g><!--link RM to RM3--><g id="link_RM_RM3"><path d="M434.53,514.4394 C466.35,514.4394 503.85,514.4394 535.2,514.4394 " fill="none" id="RM-RM3" style="stroke:#181818;stroke-width:1.0;"/></g><!--link RM to RM4--><g id="link_RM_RM4"><path d="M389,531.8594 C389,554.7694 389,584.1094 389,584.1094 C389,584.1094 474.42,584.1094 536.82,584.1094 " fill="none" id="RM-RM4" style="stroke:#181818;stroke-width:1.0;"/></g><!--link PM to PM1--><g id="link_PM_PM1"><path d="M342,773.3694 C342,733.4994 342,663.1094 342,663.1094 C342,663.1094 454.54,663.1094 531.25,663.1094 " fill="none" id="PM-PM1" style="stroke:#181818;stroke-width:1.0;"/></g><!--link PM to PM2--><g id="link_PM_PM2"><path d="M404.77,777.1094 C448.25,777.1094 517.52,777.1094 561.07,777.1094 " fill="none" id="PM-PM2" style="stroke:#181818;stroke-width:1.0;"/></g><!--link PM to PM3--><g id="link_PM_PM3"><path d="M406.38,822.6094 C453.04,822.6094 527.87,822.6094 569.85,822.6094 " fill="none" id="PM-PM3" style="stroke:#181818;stroke-width:1.0;"/></g><!--link USM to USM1--><g id="link_USM_USM1"><path d="M428.55,947.6094 C462.28,947.6094 503.59,947.6094 537.33,947.6094 " fill="none" id="USM-USM1" style="stroke:#181818;stroke-width:1.0;"/></g><!--link USM to USM2--><g id="link_USM_USM2"><path d="M421.23,975.6094 C491.03,975.6094 601,975.6094 601,975.6094 C601,975.6094 601,986.9294 601,998.9494 " fill="none" id="USM-USM2" style="stroke:#181818;stroke-width:1.0;"/></g><!--link PEM to PEM1--><g id="link_PEM_PEM1"><path d="M439.02,1106.6094 C462.82,1106.6094 489.39,1106.6094 514.02,1106.6094 " fill="none" id="PEM-PEM1" style="stroke:#181818;stroke-width:1.0;"/></g><!--link PEM to PEM2--><g id="link_PEM_PEM2"><path d="M441,1104.9394 C441,1130.5894 441,1197.6094 441,1197.6094 C441,1197.6094 492.69,1197.6094 537.3,1197.6094 " fill="none" id="PEM-PEM2" style="stroke:#181818;stroke-width:1.0;"/></g><!--link COL to COL1--><g id="link_COL_COL1"><path d="M432,1195.5694 C432,1220.9394 432,1288.6094 432,1288.6094 C432,1288.6094 486.59,1288.6094 533.72,1288.6094 " fill="none" id="COL-COL1" style="stroke:#181818;stroke-width:1.0;"/></g><!--SRC=[XLF1Zjem4BtdAwozSqZe3q0AKYLe8xAhIXKNhpCaBew7ZfrTqQ_ln8HW551lBydBcpTlPhps1aH1M7NAYoM1F5RuQKNfYLzq168clkrcIvHK9Oc1WnSU1UcwyQBI1Cfhj8axQdkI95jXj0L_Fe50yWqcIUT0IGVYvIgojpluq_6VBLZlzdOhhQp3WoYCz0UazaL8nqMNqTybg8wqFmjfMM6X53WdShIUq0HwkSflx6SL0dEtlH6vxz_SmeHJH9mt1pGXl9LJ5G4c4APgguYSep7o7KdsmUrj2VIXkPj0p7ziufObgURIy5eR3wHjVUbrdKJHB3hVS2MjWk8rZ3HEOxd8EJJc8Uc_TxJiHli5XEALEjStW1MCkSxZQklEXf5BSp_88Tgex7UquZ_igFf67q2TbO47yvhVQAya5SXtRNWNXgzVOdlF1ve-we5L7b0ZMulJYV2Zj_yJwNWm-3bmxa9vjY9HpGAerSw5cK-9MQps5LKNxg7ql2Or9y8x8Dh9JaNgfPT7QD1K3tmmCulKLxmgV4SRL7opTHXrP-2wVYaRuSiJircug07ooGoe655_0TUNgn7s6tpzdxUKDGQfDC9PX3d7tVPI8nrHDgBvY7ZCnVPY8HrHDYBMOKU3iJJ2t3lx6soc4UOFx7OmdIR_0000]--></g></svg>