<?xml version="1.0" encoding="us-ascii" standalone="no"?><svg xmlns="http://www.w3.org/2000/svg" xmlns:xlink="http://www.w3.org/1999/xlink" contentStyleType="text/css" height="848px" preserveAspectRatio="none" style="width:338px;height:848px;background:#FFFFFF;" version="1.1" viewBox="0 0 338 848" width="338px" zoomAndPan="magnify"><defs/><g><text fill="#000000" font-family="sans-serif" font-size="14" font-weight="bold" lengthAdjust="spacing" textLength="262" x="31.25" y="24.5332">Lifecycle of a Requirement (IR-Board)</text><g id="PendingApproval"><rect fill="#F1F1F1" height="67.7969" rx="12.5" ry="12.5" style="stroke:#181818;stroke-width:0.5;" width="243" x="12" y="142.6094"/><line style="stroke:#181818;stroke-width:0.5;" x1="12" x2="255" y1="170.2188" y2="170.2188"/><text fill="#000000" font-family="sans-serif" font-size="14" lengthAdjust="spacing" textLength="108" x="79.5" y="162.1426">PendingApproval</text><text fill="#000000" font-family="sans-serif" font-size="12" lengthAdjust="spacing" textLength="146" x="17" y="187.6758">Flagged due to changes in</text><text fill="#000000" font-family="sans-serif" font-size="12" lengthAdjust="spacing" textLength="223" x="17" y="202.7695">linked Stakeholders/Docs/Requirements</text></g><g id="Approved"><rect fill="#F1F1F1" height="50" rx="12.5" ry="12.5" style="stroke:#181818;stroke-width:0.5;" width="81" x="128" y="336.6094"/><line style="stroke:#181818;stroke-width:0.5;" x1="128" x2="209" y1="364.2188" y2="364.2188"/><text fill="#000000" font-family="sans-serif" font-size="14" lengthAdjust="spacing" textLength="61" x="138" y="356.1426">Approved</text></g><g id="Finished"><rect fill="#F1F1F1" height="52.7031" rx="12.5" ry="12.5" style="stroke:#181818;stroke-width:0.5;" width="93" x="187" y="416.6094"/><line style="stroke:#181818;stroke-width:0.5;" x1="187" x2="280" y1="444.2188" y2="444.2188"/><text fill="#000000" font-family="sans-serif" font-size="14" lengthAdjust="spacing" textLength="54" x="206.5" y="436.1426">Finished</text><text fill="#000000" font-family="sans-serif" font-size="12" lengthAdjust="spacing" textLength="73" x="192" y="461.6758">Implemented</text></g><g id="Deactivated"><rect fill="#F1F1F1" height="52.7031" rx="12.5" ry="12.5" style="stroke:#181818;stroke-width:0.5;" width="111" x="34" y="592.6094"/><line style="stroke:#181818;stroke-width:0.5;" x1="34" x2="145" y1="620.2188" y2="620.2188"/><text fill="#000000" font-family="sans-serif" font-size="14" lengthAdjust="spacing" textLength="75" x="52" y="612.1426">Deactivated</text><text fill="#000000" font-family="sans-serif" font-size="12" lengthAdjust="spacing" textLength="91" x="39" y="637.6758">Read-only mode</text></g><g id="Removed"><rect fill="#F1F1F1" height="52.7031" rx="12.5" ry="12.5" style="stroke:#181818;stroke-width:0.5;" width="165" x="7" y="706.6094"/><line style="stroke:#181818;stroke-width:0.5;" x1="7" x2="172" y1="734.2188" y2="734.2188"/><text fill="#000000" font-family="sans-serif" font-size="14" lengthAdjust="spacing" textLength="60" x="59.5" y="726.1426">Removed</text><text fill="#000000" font-family="sans-serif" font-size="12" lengthAdjust="spacing" textLength="145" x="12" y="751.6758">Archived, hidden from view</text></g><ellipse cx="133.5" cy="54.6094" fill="#222222" rx="10" ry="10" style="stroke:#222222;stroke-width:1.0;"/><ellipse cx="89.5" cy="831.6094" fill="none" rx="11" ry="11" style="stroke:#222222;stroke-width:1.0;"/><ellipse cx="89.5" cy="831.6094" fill="#222222" rx="6" ry="6" style="stroke:#222222;stroke-width:1.0;"/><!--link *start* to PendingApproval--><g id="link_*start*_PendingApproval"><path d="M133.5,64.6294 C133.5,80.9294 133.5,110.0394 133.5,136.4294 " fill="none" id="*start*-to-PendingApproval" style="stroke:#181818;stroke-width:1.0;"/><polygon fill="#181818" points="133.5,142.4294,137.5,133.4294,133.5,137.4294,129.5,133.4294,133.5,142.4294" style="stroke:#181818;stroke-width:1.0;"/><text fill="#000000" font-family="sans-serif" font-size="13" lengthAdjust="spacing" textLength="196" x="134.5" y="109.1045">Requirement is created and saved</text></g><!--link PendingApproval to Approved--><g id="link_PendingApproval_Approved"><path d="M139.84,210.7494 C146.77,247.0094 156.5936,298.346 162.7536,330.576 " fill="none" id="PendingApproval-to-Approved" style="stroke:#181818;stroke-width:1.0;"/><polygon fill="#181818" points="163.88,336.4694,166.1193,326.8785,162.9414,331.5583,158.2616,328.3803,163.88,336.4694" style="stroke:#181818;stroke-width:1.0;"/></g><!--link Approved to PendingApproval--><g id="link_Approved_PendingApproval"><path d="M177.67,336.3294 C181.81,322.3894 185.24,304.5494 182.5,288.6094 C177.75,260.9994 167.5388,237.4107 156.1088,216.0307 " fill="none" id="Approved-to-PendingApproval" style="stroke:#181818;stroke-width:1.0;"/><polygon fill="#181818" points="153.28,210.7394,153.9957,220.5622,155.6373,215.1488,161.0507,216.7905,153.28,210.7394" style="stroke:#181818;stroke-width:1.0;"/><text fill="#000000" font-family="sans-serif" font-size="13" lengthAdjust="spacing" textLength="48" x="175.5" y="255.1045">modified</text></g><!--link Approved to Finished--><g id="link_Approved_Finished"><path d="M188.36,386.8894 C196.05,396.2994 201.0632,402.4335 208.8432,411.9535 " fill="none" id="Approved-to-Finished" style="stroke:#181818;stroke-width:1.0;"/><polygon fill="#181818" points="212.64,416.5994,210.0421,407.0993,209.476,412.7278,203.8476,412.1617,212.64,416.5994" style="stroke:#181818;stroke-width:1.0;"/></g><!--link Finished to PendingApproval--><g id="link_Finished_PendingApproval"><path d="M240.77,416.2994 C250.59,375.9694 263.53,296.8094 232.5,240.6094 C226,228.8394 221.0605,222.5621 210.2005,214.3721 " fill="none" id="Finished-to-PendingApproval" style="stroke:#181818;stroke-width:1.0;"/><polygon fill="#181818" points="205.41,210.7594,210.1872,219.372,209.402,213.77,215.0041,212.9848,205.41,210.7594" style="stroke:#181818;stroke-width:1.0;"/><text fill="#000000" font-family="sans-serif" font-size="13" lengthAdjust="spacing" textLength="48" x="251.5" y="303.1045">modified</text></g><!--link PendingApproval to Deactivated--><g id="link_PendingApproval_Deactivated"><path d="M76.61,210.6994 C51.72,232.3494 28.5,262.8194 28.5,296.6094 C28.5,296.6094 28.5,296.6094 28.5,531.6094 C28.5,553.8494 36.3586,571.5403 50.0186,587.9303 " fill="none" id="PendingApproval-to-Deactivated" style="stroke:#181818;stroke-width:1.0;"/><polygon fill="#181818" points="53.86,592.5394,51.1707,583.0648,50.6588,588.6985,45.0252,588.1867,53.86,592.5394" style="stroke:#181818;stroke-width:1.0;"/></g><!--link Deactivated to PendingApproval--><g id="link_Deactivated_PendingApproval"><path d="M84.06,592.5394 C75.2,576.1494 63.5,553.8494 63.5,531.6094 C63.5,296.6094 63.5,296.6094 63.5,296.6094 C63.5,262.9494 82.4578,236.9766 102.5478,215.3366 " fill="none" id="Deactivated-to-PendingApproval" style="stroke:#181818;stroke-width:1.0;"/><polygon fill="#181818" points="106.63,210.9394,97.5752,214.8137,103.2281,214.6037,103.4381,220.2567,106.63,210.9394" style="stroke:#181818;stroke-width:1.0;"/></g><!--link Approved to Deactivated--><g id="link_Approved_Deactivated"><path d="M161.07,386.6494 C146.16,434.8494 114.5222,537.1871 99.2122,586.7071 " fill="none" id="Approved-to-Deactivated" style="stroke:#181818;stroke-width:1.0;"/><polygon fill="#181818" points="97.44,592.4394,103.9199,585.0224,98.9169,587.6625,96.2768,582.6594,97.44,592.4394" style="stroke:#181818;stroke-width:1.0;"/></g><!--link Finished to Deactivated--><g id="link_Finished_Deactivated"><path d="M220.75,469.8694 C207.52,495.1094 185.2,533.8494 159.5,562.6094 C149.89,573.3594 142.7579,579.9481 131.5479,588.6581 " fill="none" id="Finished-to-Deactivated" style="stroke:#181818;stroke-width:1.0;"/><polygon fill="#181818" points="126.81,592.3394,136.3711,589.976,130.7583,589.2716,131.4627,583.6588,126.81,592.3394" style="stroke:#181818;stroke-width:1.0;"/></g><!--link Deactivated to Removed--><g id="link_Deactivated_Removed"><path d="M78.58,645.8094 C76.13,664.0194 75.3355,682.4036 77.7955,700.5836 " fill="none" id="Deactivated-to-Removed" style="stroke:#181818;stroke-width:1.0;"/><polygon fill="#181818" points="78.6,706.5294,81.3571,697.0743,77.9295,701.5745,73.4293,698.147,78.6,706.5294" style="stroke:#181818;stroke-width:1.0;"/></g><!--link Removed to Deactivated--><g id="link_Removed_Deactivated"><path d="M101.04,706.5294 C103.65,688.3494 104.4949,669.9596 101.9049,651.7496 " fill="none" id="Removed-to-Deactivated" style="stroke:#181818;stroke-width:1.0;"/><polygon fill="#181818" points="101.06,645.8094,98.3672,655.283,101.7641,650.7596,106.2875,654.1565,101.06,645.8094" style="stroke:#181818;stroke-width:1.0;"/></g><!--link Removed to *end*--><g id="link_Removed_*end*"><path d="M89.5,759.7194 C89.5,779.5894 89.5,800.0994 89.5,814.4094 " fill="none" id="Removed-to-*end*" style="stroke:#181818;stroke-width:1.0;"/><polygon fill="#181818" points="89.5,820.4094,93.5,811.4094,89.5,815.4094,85.5,811.4094,89.5,820.4094" style="stroke:#181818;stroke-width:1.0;"/></g><!--SRC=[XL5DQyCm3BthL-Ys3sPwxw7GKGg57KQsszZ1M4eYwjYTxRQKiVy-fqtQfWliPDdlwUdfEKcoZ2zIiZcONFaIDHRyjPN03Rk4zwj2FNiTw04W9fqONzcHk6g-sGI_q_ORyFO9fxYqkggOaBQCoQEfjQiueZWSfLjnwyn-IthDjRV48KuMtiJ9bPK8Fxs5KoTJTrsAarWpJN7LREoHdB4ENB0sINQvf3oeO4tAEtl0nXFtd8ARLcwAys1goTKJraB43ilW6zm9xm7W3j-3Tb6CUCSHFXu_KP7VEpKRsUWwGube0XyTQ4SOTMiTRdjKaAfEMQpV3k5SgT4PUGKffTMw47kHFfDCCxvDfOta_AZ-4_nZRZO8SkXiW0nd3A3houW161AwQBk_WUwy7GWNuDIGlmL-0G00]--></g></svg>