<?xml version="1.0" encoding="us-ascii" standalone="no"?><svg xmlns="http://www.w3.org/2000/svg" xmlns:xlink="http://www.w3.org/1999/xlink" contentStyleType="text/css" height="544px" preserveAspectRatio="none" style="width:458px;height:544px;background:#FFFFFF;" version="1.1" viewBox="0 0 458 544" width="458px" zoomAndPan="magnify"><defs/><g><text fill="#000000" font-family="sans-serif" font-size="14" font-weight="bold" lengthAdjust="spacing" textLength="262" x="91" y="24.5332">Lifecycle of a Requirement (IR-Board)</text><g id="PendingApproval"><rect fill="#F1F1F1" height="67.7969" rx="12.5" ry="12.5" style="stroke:#181818;stroke-width:0.5;" width="243" x="41" y="142.6094"/><line style="stroke:#181818;stroke-width:0.5;" x1="41" x2="284" y1="170.2188" y2="170.2188"/><text fill="#000000" font-family="sans-serif" font-size="14" lengthAdjust="spacing" textLength="108" x="108.5" y="162.1426">PendingApproval</text><text fill="#000000" font-family="sans-serif" font-size="12" lengthAdjust="spacing" textLength="146" x="46" y="187.6758">Flagged due to changes in</text><text fill="#000000" font-family="sans-serif" font-size="12" lengthAdjust="spacing" textLength="223" x="46" y="202.7695">linked Stakeholders/Docs/Requirements</text></g><g id="Approved"><rect fill="#F1F1F1" height="50" rx="12.5" ry="12.5" style="stroke:#181818;stroke-width:0.5;" width="81" x="180" y="290.1094"/><line style="stroke:#181818;stroke-width:0.5;" x1="180" x2="261" y1="317.7188" y2="317.7188"/><text fill="#000000" font-family="sans-serif" font-size="14" lengthAdjust="spacing" textLength="61" x="190" y="309.6426">Approved</text></g><g id="Finished"><rect fill="#F1F1F1" height="52.7031" rx="12.5" ry="12.5" style="stroke:#181818;stroke-width:0.5;" width="93" x="358" y="288.6094"/><line style="stroke:#181818;stroke-width:0.5;" x1="358" x2="451" y1="316.2188" y2="316.2188"/><text fill="#000000" font-family="sans-serif" font-size="14" lengthAdjust="spacing" textLength="54" x="377.5" y="308.1426">Finished</text><text fill="#000000" font-family="sans-serif" font-size="12" lengthAdjust="spacing" textLength="73" x="363" y="333.6758">Implemented</text></g><g id="Deactivated"><rect fill="#F1F1F1" height="52.7031" rx="12.5" ry="12.5" style="stroke:#181818;stroke-width:0.5;" width="111" x="34" y="288.6094"/><line style="stroke:#181818;stroke-width:0.5;" x1="34" x2="145" y1="316.2188" y2="316.2188"/><text fill="#000000" font-family="sans-serif" font-size="14" lengthAdjust="spacing" textLength="75" x="52" y="308.1426">Deactivated</text><text fill="#000000" font-family="sans-serif" font-size="12" lengthAdjust="spacing" textLength="91" x="39" y="333.6758">Read-only mode</text></g><g id="Removed"><rect fill="#F1F1F1" height="52.7031" rx="12.5" ry="12.5" style="stroke:#181818;stroke-width:0.5;" width="165" x="7" y="402.6094"/><line style="stroke:#181818;stroke-width:0.5;" x1="7" x2="172" y1="430.2188" y2="430.2188"/><text fill="#000000" font-family="sans-serif" font-size="14" lengthAdjust="spacing" textLength="60" x="59.5" y="422.1426">Removed</text><text fill="#000000" font-family="sans-serif" font-size="12" lengthAdjust="spacing" textLength="145" x="12" y="447.6758">Archived, hidden from view</text></g><ellipse cx="162.5" cy="54.6094" fill="#222222" rx="10" ry="10" style="stroke:#222222;stroke-width:1.0;"/><ellipse cx="89.5" cy="527.6094" fill="none" rx="11" ry="11" style="stroke:#222222;stroke-width:1.0;"/><ellipse cx="89.5" cy="527.6094" fill="#222222" rx="6" ry="6" style="stroke:#222222;stroke-width:1.0;"/><!--link *start* to PendingApproval--><g id="link_*start*_PendingApproval"><path d="M162.5,64.6294 C162.5,80.9294 162.5,110.0394 162.5,136.4294 " fill="none" id="*start*-to-PendingApproval" style="stroke:#181818;stroke-width:1.0;"/><polygon fill="#181818" points="162.5,142.4294,166.5,133.4294,162.5,137.4294,158.5,133.4294,162.5,142.4294" style="stroke:#181818;stroke-width:1.0;"/><text fill="#000000" font-family="sans-serif" font-size="13" lengthAdjust="spacing" textLength="196" x="163.5" y="109.1045">Requirement is created and saved</text></g><!--link PendingApproval to Approved--><g id="link_PendingApproval_Approved"><path d="M169.04,210.7294 C172.62,225.7194 177.72,243.4394 184.5,258.6094 C189.33,269.4094 192.7365,275.5308 199.1065,284.9408 " fill="none" id="PendingApproval-to-Approved" style="stroke:#181818;stroke-width:1.0;"/><polygon fill="#181818" points="202.47,289.9094,200.7372,280.2141,199.6671,285.7689,194.1124,284.6987,202.47,289.9094" style="stroke:#181818;stroke-width:1.0;"/></g><!--reverse link PendingApproval to Approved--><g id="link_PendingApproval_Approved"><path d="M178.8858,216.1718 C189.2758,240.6318 200.86,267.8794 210.22,289.9294 " fill="none" id="PendingApproval-backto-Approved" style="stroke:#181818;stroke-width:1.0;"/><polygon fill="#181818" points="176.54,210.6494,176.3771,220.4969,178.4948,215.2514,183.7403,217.3692,176.54,210.6494" style="stroke:#181818;stroke-width:1.0;"/><text fill="#000000" font-family="sans-serif" font-size="13" lengthAdjust="spacing" textLength="48" x="198.5" y="255.1045">modified</text></g><!--link Approved to Finished--><g id="link_Approved_Finished"><path d="M261.34,315.1094 C289.92,315.1094 322.17,315.1094 351.94,315.1094 " fill="none" id="Approved-to-Finished" style="stroke:#181818;stroke-width:1.0;"/><polygon fill="#181818" points="357.94,315.1094,348.94,311.1094,352.94,315.1094,348.94,319.1094,357.94,315.1094" style="stroke:#181818;stroke-width:1.0;"/><text fill="#000000" font-family="sans-serif" font-size="13" lengthAdjust="spacing" textLength="60" x="279.5" y="308.6045">completed</text></g><!--reverse link PendingApproval to Finished--><g id="link_PendingApproval_Finished"><path d="M226.306,213.5971 C268.696,237.5071 319.92,266.3994 358.95,288.4194 " fill="none" id="PendingApproval-backto-Finished" style="stroke:#181818;stroke-width:1.0;"/><polygon fill="#181818" points="221.08,210.6494,226.9538,218.5549,225.435,213.1058,230.8841,211.5869,221.08,210.6494" style="stroke:#181818;stroke-width:1.0;"/><text fill="#000000" font-family="sans-serif" font-size="13" lengthAdjust="spacing" textLength="48" x="306.5" y="255.1045">modified</text></g><!--link PendingApproval to Deactivated--><g id="link_PendingApproval_Deactivated"><path d="M133.73,210.6494 C118.53,234.4794 104.0787,260.6147 95.3187,282.6247 " fill="none" id="PendingApproval-to-Deactivated" style="stroke:#181818;stroke-width:1.0;"/><polygon fill="#181818" points="93.1,288.1994,100.1446,281.3165,94.9489,283.5538,92.7116,278.3582,93.1,288.1994" style="stroke:#181818;stroke-width:1.0;"/></g><!--reverse link PendingApproval to Deactivated--><g id="link_PendingApproval_Deactivated"><path d="M154.2388,216.1695 C144.0888,239.9995 129.18,266.1894 114.21,288.1994 " fill="none" id="PendingApproval-backto-Deactivated" style="stroke:#181818;stroke-width:1.0;"/><polygon fill="#181818" points="156.59,210.6494,149.3831,217.3621,154.6307,215.2495,156.7433,220.497,156.59,210.6494" style="stroke:#181818;stroke-width:1.0;"/></g><!--link Deactivated to Removed--><g id="link_Deactivated_Removed"><path d="M78.58,341.8094 C76.13,360.0194 75.3355,378.4036 77.7955,396.5836 " fill="none" id="Deactivated-to-Removed" style="stroke:#181818;stroke-width:1.0;"/><polygon fill="#181818" points="78.6,402.5294,81.3571,393.0743,77.9295,397.5745,73.4293,394.147,78.6,402.5294" style="stroke:#181818;stroke-width:1.0;"/></g><!--reverse link Deactivated to Removed--><g id="link_Deactivated_Removed"><path d="M101.9049,347.7496 C104.4949,365.9596 103.65,384.3494 101.04,402.5294 " fill="none" id="Deactivated-backto-Removed" style="stroke:#181818;stroke-width:1.0;"/><polygon fill="#181818" points="101.06,341.8094,98.3672,351.283,101.7641,346.7596,106.2875,350.1565,101.06,341.8094" style="stroke:#181818;stroke-width:1.0;"/></g><!--link Removed to *end*--><g id="link_Removed_*end*"><path d="M89.5,455.7194 C89.5,475.5894 89.5,496.0994 89.5,510.4094 " fill="none" id="Removed-to-*end*" style="stroke:#181818;stroke-width:1.0;"/><polygon fill="#181818" points="89.5,516.4094,93.5,507.4094,89.5,511.4094,85.5,507.4094,89.5,516.4094" style="stroke:#181818;stroke-width:1.0;"/></g><!--SRC=[XL1DQyCm3BthL-Ys3sPwxs7GKGg57KQsszZ1M4eYwjYPxRQKiVy-fqtQh0liv6VfwUdf9KcMyLbADWUJaIzHOy6VMmdSi4jukoxKazU1xW1YqednXHs9gnPj6_nEso_0wnBESMLrLJ4XRHcJHrDhLt54SJX9j-8scVsQz8PhRub3d2szYREHbGZVWuNJ95F_NOcJM3FDSTsqzaZElRwvP6sIx3AalAXWJSexUy364m-SWfjERewBO6h9w05h8MA7PV0DxeJt0723Rq6xA4QyumZlzn-eoE-TUfouQ9oXH3I1Zmwq8uowimxNCof8LQSiDbo7S4PgsqvkoKT8APtQXJh83Abacl5TBbqevwAoNAP_DFyuxAyTHmhZpwHD-4tfDVh8eN_xqH4JBgtJICuRVW00]--></g></svg>