<?xml version="1.0" encoding="us-ascii" standalone="no"?><svg xmlns="http://www.w3.org/2000/svg" xmlns:xlink="http://www.w3.org/1999/xlink" contentStyleType="text/css" height="518px" preserveAspectRatio="none" style="width:322px;height:518px;background:#FFFFFF;" version="1.1" viewBox="0 0 322 518" width="322px" zoomAndPan="magnify"><defs/><g><text fill="#000000" font-family="sans-serif" font-size="14" font-weight="bold" lengthAdjust="spacing" textLength="294" x="10" y="24.5332">Spiral Requirements Engineering Process</text><ellipse cx="82" cy="54.6094" fill="#222222" rx="10" ry="10" style="stroke:#222222;stroke-width:1.0;"/><g id="elicitation"><rect fill="#F1F1F1" height="55.2188" rx="12.5" ry="12.5" style="stroke:#181818;stroke-width:0.5;" width="108" x="28" y="125.6094"/><line style="stroke:#181818;stroke-width:0.5;" x1="28" x2="136" y1="170.8281" y2="170.8281"/><text fill="#000000" font-family="sans-serif" font-size="14" lengthAdjust="spacing" textLength="88" x="38" y="145.1426">Requirements</text><text fill="#000000" font-family="sans-serif" font-size="14" lengthAdjust="spacing" textLength="60" x="52" y="162.752">Elicitation</text></g><g id="analysis"><rect fill="#F1F1F1" height="55.2188" rx="12.5" ry="12.5" style="stroke:#181818;stroke-width:0.5;" width="108" x="177" y="125.6094"/><line style="stroke:#181818;stroke-width:0.5;" x1="177" x2="285" y1="170.8281" y2="170.8281"/><text fill="#000000" font-family="sans-serif" font-size="14" lengthAdjust="spacing" textLength="88" x="187" y="145.1426">Requirements</text><text fill="#000000" font-family="sans-serif" font-size="14" lengthAdjust="spacing" textLength="52" x="205" y="162.752">Analysis</text></g><g id="specification"><rect fill="#F1F1F1" height="55.2188" rx="12.5" ry="12.5" style="stroke:#181818;stroke-width:0.5;" width="108" x="196" y="241.6094"/><line style="stroke:#181818;stroke-width:0.5;" x1="196" x2="304" y1="286.8281" y2="286.8281"/><text fill="#000000" font-family="sans-serif" font-size="14" lengthAdjust="spacing" textLength="88" x="206" y="261.1426">Requirements</text><text fill="#000000" font-family="sans-serif" font-size="14" lengthAdjust="spacing" textLength="80" x="210" y="278.752">Specification</text></g><g id="validation"><rect fill="#F1F1F1" height="55.2188" rx="12.5" ry="12.5" style="stroke:#181818;stroke-width:0.5;" width="108" x="24" y="357.6094"/><line style="stroke:#181818;stroke-width:0.5;" x1="24" x2="132" y1="402.8281" y2="402.8281"/><text fill="#000000" font-family="sans-serif" font-size="14" lengthAdjust="spacing" textLength="88" x="34" y="377.1426">Requirements</text><text fill="#000000" font-family="sans-serif" font-size="14" lengthAdjust="spacing" textLength="62" x="47" y="394.752">Validation</text></g><ellipse cx="78" cy="501.6094" fill="none" rx="11" ry="11" style="stroke:#222222;stroke-width:1.0;"/><ellipse cx="78" cy="501.6094" fill="#222222" rx="6" ry="6" style="stroke:#222222;stroke-width:1.0;"/><!--link *start* to elicitation--><g id="link_*start*_elicitation"><path d="M82,64.8594 C82,78.6394 82,99.0794 82,119.2594 " fill="none" id="*start*-to-elicitation" style="stroke:#181818;stroke-width:1.0;"/><polygon fill="#181818" points="82,125.2594,86,116.2594,82,120.2594,78,116.2594,82,125.2594" style="stroke:#181818;stroke-width:1.0;"/></g><!--link elicitation to analysis--><g id="link_elicitation_analysis"><path d="M136.13,153.1094 C149.72,153.1094 157.31,153.1094 170.89,153.1094 " fill="none" id="elicitation-to-analysis" style="stroke:#181818;stroke-width:1.0;"/><polygon fill="#181818" points="176.89,153.1094,167.89,149.1094,171.89,153.1094,167.89,157.1094,176.89,153.1094" style="stroke:#181818;stroke-width:1.0;"/></g><!--link analysis to specification--><g id="link_analysis_specification"><path d="M235.45,180.8394 C238.5,199.1294 241.5447,217.3708 244.5847,235.6308 " fill="none" id="analysis-to-specification" style="stroke:#181818;stroke-width:1.0;"/><polygon fill="#181818" points="245.57,241.5494,248.0377,232.0147,244.7489,236.6173,240.1463,233.3285,245.57,241.5494" style="stroke:#181818;stroke-width:1.0;"/></g><!--link specification to validation--><g id="link_specification_validation"><path d="M209.67,296.8394 C182.07,315.1294 150.6212,335.9746 123.0712,354.2346 " fill="none" id="specification-to-validation" style="stroke:#181818;stroke-width:1.0;"/><polygon fill="#181818" points="118.07,357.5494,127.7817,355.9113,122.2377,354.7871,123.362,349.2431,118.07,357.5494" style="stroke:#181818;stroke-width:1.0;"/></g><!--link validation to elicitation--><g id="link_validation_elicitation"><path d="M76.86,357.5794 C75.82,328.9494 74.62,282.0394 76,241.6094 C76.7,221.2194 77.8332,204.1804 79.2132,186.8704 " fill="none" id="validation-to-elicitation" style="stroke:#181818;stroke-width:1.0;"/><polygon fill="#181818" points="79.69,180.8894,74.9874,189.543,79.2926,185.8736,82.9621,190.1788,79.69,180.8894" style="stroke:#181818;stroke-width:1.0;"/><text fill="#000000" font-family="sans-serif" font-size="13" lengthAdjust="spacing" textLength="101" x="77" y="274.6045">Needs refinement</text></g><!--link validation to *end*--><g id="link_validation_*end*"><path d="M78,412.6694 C78,437.5094 78,467.2894 78,484.5494 " fill="none" id="validation-to-*end*" style="stroke:#181818;stroke-width:1.0;"/><polygon fill="#181818" points="78,490.5494,82,481.5494,78,485.5494,74,481.5494,78,490.5494" style="stroke:#181818;stroke-width:1.0;"/><text fill="#000000" font-family="sans-serif" font-size="13" lengthAdjust="spacing" textLength="55" x="79" y="457.1045">Accepted</text></g><!--SRC=[RL0n3i8m3Dpp2giZKZxG0Qb3LuIen08CKU8MIo4jSG3nUz8Acb1rEzjtvxC31OlG3EILXGFU7-JnXYumrAuZX-Z9TR3tlKPc8KwR2qZJlvpS0bhI55IWtWd14I0KkSFPrObHWE8_nQgWSig-cNXYgs-nJcq6rDIIJkwSTzP5HsN99CLpBeN8ie7qr5r3F76Ey0CWOtUnAA-cUMwRy3JAjvImGpGC7jluw37XaZr-kuHAQnm26l41]--></g></svg>