<?xml version="1.0" encoding="us-ascii" standalone="no"?><svg xmlns="http://www.w3.org/2000/svg" xmlns:xlink="http://www.w3.org/1999/xlink" contentStyleType="text/css" height="627px" preserveAspectRatio="none" style="width:717px;height:627px;background:#FFFFFF;" version="1.1" viewBox="0 0 717 627" width="717px" zoomAndPan="magnify"><defs/><g><text fill="#000000" font-family="sans-serif" font-size="14" font-weight="bold" lengthAdjust="spacing" textLength="222" x="240.5" y="24.5332">Architecture diagram (IR-Board)</text><!--cluster Network: public--><g id="cluster_Network: public"><path d="M178.5,44.6094 L288.5,44.6094 A3.75,3.75 0 0 1 291,47.1094 L298,68.2188 L345.5,68.2188 A2.5,2.5 0 0 1 348,70.7188 L348,251.1094 A2.5,2.5 0 0 1 345.5,253.6094 L178.5,253.6094 A2.5,2.5 0 0 1 176,251.1094 L176,47.1094 A2.5,2.5 0 0 1 178.5,44.6094 " fill="none" style="stroke:#000000;stroke-width:1.0;stroke-dasharray:1.0,3.0;"/><line style="stroke:#000000;stroke-width:1.0;stroke-dasharray:1.0,3.0;" x1="176" x2="298" y1="68.2188" y2="68.2188"/><text fill="#000000" font-family="sans-serif" font-size="14" font-weight="bold" lengthAdjust="spacing" textLength="109" x="180" y="61.1426">Network: public</text></g><!--cluster Network: internal--><g id="cluster_Network: internal"><path d="M8.5,286.6094 L129.5,286.6094 A3.75,3.75 0 0 1 132,289.1094 L139,310.2188 L707.5,310.2188 A2.5,2.5 0 0 1 710,312.7188 L710,618.1094 A2.5,2.5 0 0 1 707.5,620.6094 L8.5,620.6094 A2.5,2.5 0 0 1 6,618.1094 L6,289.1094 A2.5,2.5 0 0 1 8.5,286.6094 " fill="#F0F8FF" style="stroke:#000000;stroke-width:1.5;"/><line style="stroke:#000000;stroke-width:1.5;" x1="6" x2="139" y1="310.2188" y2="310.2188"/><text fill="#000000" font-family="sans-serif" font-size="14" font-weight="bold" lengthAdjust="spacing" textLength="120" x="10" y="303.1426">Network: internal</text></g><!--entity spa--><g id="elem_spa"><rect fill="#F1F1F1" height="47.6094" rx="2.5" ry="2.5" style="stroke:#181818;stroke-width:0.5;" width="139" x="192.5" y="80.6094"/><rect fill="#F1F1F1" height="10" style="stroke:#181818;stroke-width:0.5;" width="15" x="311.5" y="85.6094"/><rect fill="#F1F1F1" height="2" style="stroke:#181818;stroke-width:0.5;" width="4" x="309.5" y="87.6094"/><rect fill="#F1F1F1" height="2" style="stroke:#181818;stroke-width:0.5;" width="4" x="309.5" y="91.6094"/><text fill="#000000" font-family="sans-serif" font-size="14" lengthAdjust="spacing" textLength="99" x="207.5" y="115.1426">React Frontend</text></g><!--entity gateway--><g id="elem_gateway"><rect fill="#F1F1F1" height="47.6094" rx="2.5" ry="2.5" style="stroke:#181818;stroke-width:0.5;" width="84" x="220" y="189.6094"/><rect fill="#F1F1F1" height="10" style="stroke:#181818;stroke-width:0.5;" width="15" x="284" y="194.6094"/><rect fill="#F1F1F1" height="2" style="stroke:#181818;stroke-width:0.5;" width="4" x="282" y="196.6094"/><rect fill="#F1F1F1" height="2" style="stroke:#181818;stroke-width:0.5;" width="4" x="282" y="200.6094"/><text fill="#000000" font-family="sans-serif" font-size="14" lengthAdjust="spacing" textLength="44" x="235" y="224.1426">Traefik</text></g><!--entity proxy--><g id="elem_proxy"><rect fill="#F1F1F1" height="47.6094" rx="2.5" ry="2.5" style="stroke:#181818;stroke-width:0.5;" width="142" x="191" y="322.6094"/><rect fill="#F1F1F1" height="10" style="stroke:#181818;stroke-width:0.5;" width="15" x="313" y="327.6094"/><rect fill="#F1F1F1" height="2" style="stroke:#181818;stroke-width:0.5;" width="4" x="311" y="329.6094"/><rect fill="#F1F1F1" height="2" style="stroke:#181818;stroke-width:0.5;" width="4" x="311" y="333.6094"/><text fill="#000000" font-family="sans-serif" font-size="14" lengthAdjust="spacing" textLength="102" x="206" y="357.1426">Ory Oathkeeper</text></g><!--entity kratos--><g id="elem_kratos"><rect fill="#F1F1F1" height="47.6094" rx="2.5" ry="2.5" style="stroke:#181818;stroke-width:0.5;" width="108" x="485" y="448.6094"/><rect fill="#F1F1F1" height="10" style="stroke:#181818;stroke-width:0.5;" width="15" x="573" y="453.6094"/><rect fill="#F1F1F1" height="2" style="stroke:#181818;stroke-width:0.5;" width="4" x="571" y="455.6094"/><rect fill="#F1F1F1" height="2" style="stroke:#181818;stroke-width:0.5;" width="4" x="571" y="459.6094"/><text fill="#000000" font-family="sans-serif" font-size="14" lengthAdjust="spacing" textLength="68" x="500" y="483.1426">Ory Kratos</text></g><!--entity keto--><g id="elem_keto"><rect fill="#F1F1F1" height="47.6094" rx="2.5" ry="2.5" style="stroke:#181818;stroke-width:0.5;" width="96" x="354" y="448.6094"/><rect fill="#F1F1F1" height="10" style="stroke:#181818;stroke-width:0.5;" width="15" x="430" y="453.6094"/><rect fill="#F1F1F1" height="2" style="stroke:#181818;stroke-width:0.5;" width="4" x="428" y="455.6094"/><rect fill="#F1F1F1" height="2" style="stroke:#181818;stroke-width:0.5;" width="4" x="428" y="459.6094"/><text fill="#000000" font-family="sans-serif" font-size="14" lengthAdjust="spacing" textLength="56" x="369" y="483.1426">Ory Keto</text></g><!--entity backend--><g id="elem_backend"><rect fill="#F1F1F1" height="47.6094" rx="2.5" ry="2.5" style="stroke:#181818;stroke-width:0.5;" width="173" x="22.5" y="448.6094"/><rect fill="#F1F1F1" height="10" style="stroke:#181818;stroke-width:0.5;" width="15" x="175.5" y="453.6094"/><rect fill="#F1F1F1" height="2" style="stroke:#181818;stroke-width:0.5;" width="4" x="173.5" y="455.6094"/><rect fill="#F1F1F1" height="2" style="stroke:#181818;stroke-width:0.5;" width="4" x="173.5" y="459.6094"/><text fill="#000000" font-family="sans-serif" font-size="14" lengthAdjust="spacing" textLength="133" x="37.5" y="483.1426">Spring Boot Backend</text></g><!--entity Loki--><g id="elem_Loki"><rect fill="#F1F1F1" height="47.6094" rx="2.5" ry="2.5" style="stroke:#181818;stroke-width:0.5;" width="66" x="628" y="448.6094"/><rect fill="#F1F1F1" height="10" style="stroke:#181818;stroke-width:0.5;" width="15" x="674" y="453.6094"/><rect fill="#F1F1F1" height="2" style="stroke:#181818;stroke-width:0.5;" width="4" x="672" y="455.6094"/><rect fill="#F1F1F1" height="2" style="stroke:#181818;stroke-width:0.5;" width="4" x="672" y="459.6094"/><text fill="#000000" font-family="sans-serif" font-size="14" lengthAdjust="spacing" textLength="26" x="643" y="483.1426">Loki</text></g><!--entity Grafana--><g id="elem_Grafana"><rect fill="#F1F1F1" height="47.6094" rx="2.5" ry="2.5" style="stroke:#181818;stroke-width:0.5;" width="92" x="602" y="322.6094"/><rect fill="#F1F1F1" height="10" style="stroke:#181818;stroke-width:0.5;" width="15" x="674" y="327.6094"/><rect fill="#F1F1F1" height="2" style="stroke:#181818;stroke-width:0.5;" width="4" x="672" y="329.6094"/><rect fill="#F1F1F1" height="2" style="stroke:#181818;stroke-width:0.5;" width="4" x="672" y="333.6094"/><text fill="#000000" font-family="sans-serif" font-size="14" lengthAdjust="spacing" textLength="52" x="617" y="357.1426">Grafana</text></g><!--entity Promtail--><g id="elem_Promtail"><rect fill="#F1F1F1" height="47.6094" rx="2.5" ry="2.5" style="stroke:#181818;stroke-width:0.5;" width="91" x="420.5" y="322.6094"/><rect fill="#F1F1F1" height="10" style="stroke:#181818;stroke-width:0.5;" width="15" x="491.5" y="327.6094"/><rect fill="#F1F1F1" height="2" style="stroke:#181818;stroke-width:0.5;" width="4" x="489.5" y="329.6094"/><rect fill="#F1F1F1" height="2" style="stroke:#181818;stroke-width:0.5;" width="4" x="489.5" y="333.6094"/><text fill="#000000" font-family="sans-serif" font-size="14" lengthAdjust="spacing" textLength="51" x="435.5" y="357.1426">Promtail</text></g><!--entity db_rms--><g id="elem_db_rms"><path d="M38.5,567.6094 C38.5,557.6094 109,557.6094 109,557.6094 C109,557.6094 179.5,557.6094 179.5,567.6094 L179.5,594.2188 C179.5,604.2188 109,604.2188 109,604.2188 C109,604.2188 38.5,604.2188 38.5,594.2188 L38.5,567.6094 " fill="#F1F1F1" style="stroke:#181818;stroke-width:0.5;"/><path d="M38.5,567.6094 C38.5,577.6094 109,577.6094 109,577.6094 C109,577.6094 179.5,577.6094 179.5,567.6094 " fill="none" style="stroke:#181818;stroke-width:0.5;"/><text fill="#000000" font-family="sans-serif" font-size="14" lengthAdjust="spacing" textLength="121" x="48.5" y="596.1426">PostgreSQL (RMS)</text></g><!--entity db_auth--><g id="elem_db_auth"><path d="M505,567.6094 C505,557.6094 583,557.6094 583,557.6094 C583,557.6094 661,557.6094 661,567.6094 L661,594.2188 C661,604.2188 583,604.2188 583,604.2188 C583,604.2188 505,604.2188 505,594.2188 L505,567.6094 " fill="#F1F1F1" style="stroke:#181818;stroke-width:0.5;"/><path d="M505,567.6094 C505,577.6094 583,577.6094 583,577.6094 C583,577.6094 661,577.6094 661,567.6094 " fill="none" style="stroke:#181818;stroke-width:0.5;"/><text fill="#000000" font-family="sans-serif" font-size="14" lengthAdjust="spacing" textLength="136" x="515" y="596.1426">PostgreSQL (Identity)</text></g><!--entity db_perm--><g id="elem_db_perm"><path d="M282.5,567.6094 C282.5,557.6094 376,557.6094 376,557.6094 C376,557.6094 469.5,557.6094 469.5,567.6094 L469.5,594.2188 C469.5,604.2188 376,604.2188 376,604.2188 C376,604.2188 282.5,604.2188 282.5,594.2188 L282.5,567.6094 " fill="#F1F1F1" style="stroke:#181818;stroke-width:0.5;"/><path d="M282.5,567.6094 C282.5,577.6094 376,577.6094 376,577.6094 C376,577.6094 469.5,577.6094 469.5,567.6094 " fill="none" style="stroke:#181818;stroke-width:0.5;"/><text fill="#000000" font-family="sans-serif" font-size="14" lengthAdjust="spacing" textLength="167" x="292.5" y="596.1426">PostgreSQL (Permissions)</text></g><!--link spa to gateway--><g id="link_spa_gateway"><path d="M262,128.8294 C262,146.7694 262,165.4994 262,183.4394 " fill="none" id="spa-to-gateway" style="stroke:#181818;stroke-width:1.0;"/><polygon fill="#181818" points="262,189.4394,266,180.4394,262,184.4394,258,180.4394,262,189.4394" style="stroke:#181818;stroke-width:1.0;"/></g><!--link gateway to proxy--><g id="link_gateway_proxy"><path d="M262,237.7294 C262,261.5294 262,292.4094 262,316.2794 " fill="none" id="gateway-to-proxy" style="stroke:#181818;stroke-width:1.0;"/><polygon fill="#181818" points="262,322.2794,266,313.2794,262,317.2794,258,313.2794,262,322.2794" style="stroke:#181818;stroke-width:1.0;"/></g><!--link proxy to kratos--><g id="link_proxy_kratos"><path d="M304.25,370.8094 C320.77,379.9794 339.84,390.6794 357,400.6094 C370.46,408.3994 372.92,412.0194 387,418.6094 C404.78,426.9394 443.1344,440.2024 479.2644,452.1724 " fill="none" id="proxy-to-kratos" style="stroke:#181818;stroke-width:1.0;"/><polygon fill="#181818" points="484.96,454.0594,477.6746,447.4319,480.2137,452.4869,475.1587,455.026,484.96,454.0594" style="stroke:#181818;stroke-width:1.0;"/></g><!--link proxy to keto--><g id="link_proxy_keto"><path d="M257.71,370.8594 C256.26,385.8694 257.05,405.0694 267,418.6094 C287.2,446.1094 317.9607,458.094 347.9807,464.464 " fill="none" id="proxy-to-keto" style="stroke:#181818;stroke-width:1.0;"/><polygon fill="#181818" points="353.85,465.7094,345.8763,459.9284,348.9589,464.6715,344.2157,467.7541,353.85,465.7094" style="stroke:#181818;stroke-width:1.0;"/></g><!--link proxy to backend--><g id="link_proxy_backend"><path d="M233.58,370.6394 C206.19,392.8494 169.6214,422.4816 142.1914,444.7116 " fill="none" id="proxy-to-backend" style="stroke:#181818;stroke-width:1.0;"/><polygon fill="#181818" points="137.53,448.4894,147.0406,445.9304,141.4145,445.3413,142.0036,439.7152,137.53,448.4894" style="stroke:#181818;stroke-width:1.0;"/></g><!--link backend to keto--><g id="link_backend_keto"><path d="M195.72,472.6094 C247.36,472.6094 304.95,472.6094 347.77,472.6094 " fill="none" id="backend-to-keto" style="stroke:#181818;stroke-width:1.0;stroke-dasharray:7.0,7.0;"/><polygon fill="#181818" points="353.77,472.6094,344.77,468.6094,348.77,472.6094,344.77,476.6094,353.77,472.6094" style="stroke:#181818;stroke-width:1.0;"/><text fill="#000000" font-family="sans-serif" font-size="13" lengthAdjust="spacing" textLength="122" x="213.75" y="466.1045">Write Tuples (GRPC)</text></g><!--link backend to db_rms--><g id="link_backend_db_rms"><path d="M109,496.7194 C109,514.6994 109,533.5294 109,551.4094 " fill="none" id="backend-to-db_rms" style="stroke:#181818;stroke-width:1.0;"/><polygon fill="#181818" points="109,557.4094,113,548.4094,109,552.4094,105,548.4094,109,557.4094" style="stroke:#181818;stroke-width:1.0;"/></g><!--link kratos to db_auth--><g id="link_kratos_db_auth"><path d="M548.55,496.7194 C555.98,514.6994 563.9508,533.9832 571.3308,551.8632 " fill="none" id="kratos-to-db_auth" style="stroke:#181818;stroke-width:1.0;"/><polygon fill="#181818" points="573.62,557.4094,573.8837,547.564,571.7124,552.7876,566.4888,550.6163,573.62,557.4094" style="stroke:#181818;stroke-width:1.0;"/></g><!--link keto to db_perm--><g id="link_keto_db_perm"><path d="M396.36,496.7194 C391.97,514.6994 387.3345,533.7009 382.9645,551.5809 " fill="none" id="keto-to-db_perm" style="stroke:#181818;stroke-width:1.0;"/><polygon fill="#181818" points="381.54,557.4094,387.5624,549.6164,382.7271,552.5523,379.7911,547.717,381.54,557.4094" style="stroke:#181818;stroke-width:1.0;"/></g><!--link Grafana to Loki--><g id="link_Grafana_Loki"><path d="M651.91,370.7794 C653.36,380.0294 654.92,390.8094 656,400.6094 C657.76,416.5794 658.6812,428.6495 659.4912,442.5595 " fill="none" id="Grafana-to-Loki" style="stroke:#181818;stroke-width:1.0;"/><polygon fill="#181818" points="659.84,448.5494,663.31,439.3321,659.5493,443.5578,655.3236,439.7971,659.84,448.5494" style="stroke:#181818;stroke-width:1.0;"/></g><!--link Promtail to Loki--><g id="link_Promtail_Loki"><path d="M502.83,370.7794 C517.52,380.0394 534.57,390.8094 550,400.6094 C576.07,417.1694 600.4588,432.7712 622.4688,446.8812 " fill="none" id="Promtail-to-Loki" style="stroke:#181818;stroke-width:1.0;stroke-dasharray:7.0,7.0;"/><polygon fill="#181818" points="627.52,450.1194,622.102,441.8947,623.3107,447.4209,617.7845,448.6296,627.52,450.1194" style="stroke:#181818;stroke-width:1.0;"/><text fill="#000000" font-family="sans-serif" font-size="13" lengthAdjust="spacing" textLength="64" x="578" y="415.1045">deliver logs</text></g><!--link Promtail to kratos--><g id="link_Promtail_kratos"><path d="M472.58,370.9294 C477.16,385.2594 484.06,403.6694 493,418.6094 C499.32,429.1694 503.7848,435.1999 511.7548,444.0099 " fill="none" id="Promtail-to-kratos" style="stroke:#181818;stroke-width:1.0;stroke-dasharray:7.0,7.0;"/><polygon fill="#181818" points="515.78,448.4594,512.7085,439.1017,512.4257,444.7515,506.7759,444.4687,515.78,448.4594" style="stroke:#181818;stroke-width:1.0;"/><text fill="#000000" font-family="sans-serif" font-size="13" lengthAdjust="spacing" textLength="51" x="494" y="415.1045">observes</text></g><!--link Promtail to keto--><g id="link_Promtail_keto"><path d="M425.6,370.7894 C415.35,378.8194 405.65,388.8194 400,400.6094 C392.91,415.3994 392.739,428.0618 395.159,442.5118 " fill="none" id="Promtail-to-keto" style="stroke:#181818;stroke-width:1.0;stroke-dasharray:7.0,7.0;"/><polygon fill="#181818" points="396.15,448.4294,398.6085,438.8923,395.3241,443.4981,390.7184,440.2137,396.15,448.4294" style="stroke:#181818;stroke-width:1.0;"/><text fill="#000000" font-family="sans-serif" font-size="13" lengthAdjust="spacing" textLength="51" x="401" y="415.1045">observes</text></g><!--link Promtail to backend--><g id="link_Promtail_backend"><path d="M420.42,363.4394 C358.3,385.0194 252.2778,421.8407 180.9078,446.6307 " fill="none" id="Promtail-to-backend" style="stroke:#181818;stroke-width:1.0;stroke-dasharray:7.0,7.0;"/><polygon fill="#181818" points="175.24,448.5994,185.0542,449.4249,179.9632,446.9588,182.4293,441.8678,175.24,448.5994" style="stroke:#181818;stroke-width:1.0;"/><text fill="#000000" font-family="sans-serif" font-size="13" lengthAdjust="spacing" textLength="51" x="309" y="415.1045">observes</text></g><!--reverse link proxy to Promtail--><g id="link_proxy_Promtail"><path d="M339.06,346.6094 C368.04,346.6094 394.7,346.6094 420.39,346.6094 " fill="none" id="proxy-backto-Promtail" style="stroke:#181818;stroke-width:1.0;stroke-dasharray:7.0,7.0;"/><polygon fill="#181818" points="333.06,346.6094,342.06,350.6094,338.06,346.6094,342.06,342.6094,333.06,346.6094" style="stroke:#181818;stroke-width:1.0;"/><text fill="#000000" font-family="sans-serif" font-size="13" lengthAdjust="spacing" textLength="51" x="351.25" y="340.1045">observes</text></g><!--SRC=[VLB1Rjim3BthAuZiqFIGV40E0ve2AufrIvOKs64e1jfY7C6APL1qqs3On-nRzcEZ9RlBXg26OT3lFP7K8yM99xZXSk-4IkcOm3gi60ymlT_CbW7PNXjp1Hko567wcUGOk8xNfiMonefWCa0BQBl2kt82xxnhQ6w325duOK2VRnl2Kk03XqQeiK-04MABcNjaf9sh4rYXq15FvgUvKC3fOMxGQuaRhKHBtz5OOCKdMA7iQwAMEELgERoS_h8V6IN4nDGfFAD8GYOqoF2sPTTKi0n1OAcTZ5qNESwYXr2xfnpUCUwmmU5lpU4Ww7p-JH-BWWL6lSywHAcOjbyUOBhvjBsUz7bjyPqFyGtblQL6d9nUvTZ9_WtzclZWOdIXYQz7r9b3R-qLt8Q6NfJJcLe2uT-_TguCHcS2izdxSGnWng07avymd8wT5qqwZ2I2scYoe9TcW-4SKMVJsJN603kdOmHz1slFXAF1lPGukgWBKpeq0mvpTjLUvaF61NnbtLnux5hVx-VTPdsh-pgAPpOS6qqwk3kqTOOc4rEcCp3PfFLNHIH-ni9vPr4x6cQSskn7RyOnmtoU4Ut7adVFnE135VyL3DKN459U-f_EzxbCZXUwo7lQzOPa3yyKvWy0]--></g></svg>