<?xml version="1.0" encoding="us-ascii" standalone="no"?><svg xmlns="http://www.w3.org/2000/svg" xmlns:xlink="http://www.w3.org/1999/xlink" contentStyleType="text/css" height="752px" preserveAspectRatio="none" style="width:673px;height:752px;background:#FFFFFF;" version="1.1" viewBox="0 0 673 752" width="673px" zoomAndPan="magnify"><defs/><g><text fill="#000000" font-family="sans-serif" font-size="14" font-weight="bold" lengthAdjust="spacing" textLength="222" x="218.5" y="24.5332">Architecture diagram (IR-Board)</text><!--cluster Network: public--><g id="cluster_Network: public"><path d="M45.5,169.1094 L155.5,169.1094 A3.75,3.75 0 0 1 158,171.6094 L165,192.7188 L204.5,192.7188 A2.5,2.5 0 0 1 207,195.2188 L207,375.6094 A2.5,2.5 0 0 1 204.5,378.1094 L45.5,378.1094 A2.5,2.5 0 0 1 43,375.6094 L43,171.6094 A2.5,2.5 0 0 1 45.5,169.1094 " fill="none" style="stroke:#000000;stroke-width:1.0;stroke-dasharray:1.0,3.0;"/><line style="stroke:#000000;stroke-width:1.0;stroke-dasharray:1.0,3.0;" x1="43" x2="165" y1="192.7188" y2="192.7188"/><text fill="#000000" font-family="sans-serif" font-size="14" font-weight="bold" lengthAdjust="spacing" textLength="109" x="47" y="185.6426">Network: public</text></g><!--cluster Network: internal--><g id="cluster_Network: internal"><path d="M8.5,411.1094 L129.5,411.1094 A3.75,3.75 0 0 1 132,413.6094 L139,434.7188 L663.5,434.7188 A2.5,2.5 0 0 1 666,437.2188 L666,742.6094 A2.5,2.5 0 0 1 663.5,745.1094 L8.5,745.1094 A2.5,2.5 0 0 1 6,742.6094 L6,413.6094 A2.5,2.5 0 0 1 8.5,411.1094 " fill="#F0F8FF" style="stroke:#000000;stroke-width:1.5;"/><line style="stroke:#000000;stroke-width:1.5;" x1="6" x2="139" y1="434.7188" y2="434.7188"/><text fill="#000000" font-family="sans-serif" font-size="14" font-weight="bold" lengthAdjust="spacing" textLength="120" x="10" y="427.6426">Network: internal</text></g><!--entity front--><g id="elem_front"><rect fill="#F1F1F1" height="47.6094" rx="2.5" ry="2.5" style="stroke:#181818;stroke-width:0.5;" width="132" x="59" y="314.1094"/><rect fill="#F1F1F1" height="10" style="stroke:#181818;stroke-width:0.5;" width="15" x="171" y="319.1094"/><rect fill="#F1F1F1" height="2" style="stroke:#181818;stroke-width:0.5;" width="4" x="169" y="321.1094"/><rect fill="#F1F1F1" height="2" style="stroke:#181818;stroke-width:0.5;" width="4" x="169" y="325.1094"/><text fill="#000000" font-family="sans-serif" font-size="14" lengthAdjust="spacing" textLength="92" x="74" y="348.6426">RMS Frontend</text></g><!--entity gateway--><g id="elem_gateway"><rect fill="#F1F1F1" height="47.6094" rx="2.5" ry="2.5" style="stroke:#181818;stroke-width:0.5;" width="84" x="95" y="205.1094"/><rect fill="#F1F1F1" height="10" style="stroke:#181818;stroke-width:0.5;" width="15" x="159" y="210.1094"/><rect fill="#F1F1F1" height="2" style="stroke:#181818;stroke-width:0.5;" width="4" x="157" y="212.1094"/><rect fill="#F1F1F1" height="2" style="stroke:#181818;stroke-width:0.5;" width="4" x="157" y="216.1094"/><text fill="#000000" font-family="sans-serif" font-size="14" lengthAdjust="spacing" textLength="44" x="110" y="239.6426">Traefik</text></g><!--entity proxy--><g id="elem_proxy"><rect fill="#F1F1F1" height="47.6094" rx="2.5" ry="2.5" style="stroke:#181818;stroke-width:0.5;" width="142" x="173" y="447.1094"/><rect fill="#F1F1F1" height="10" style="stroke:#181818;stroke-width:0.5;" width="15" x="295" y="452.1094"/><rect fill="#F1F1F1" height="2" style="stroke:#181818;stroke-width:0.5;" width="4" x="293" y="454.1094"/><rect fill="#F1F1F1" height="2" style="stroke:#181818;stroke-width:0.5;" width="4" x="293" y="458.1094"/><text fill="#000000" font-family="sans-serif" font-size="14" lengthAdjust="spacing" textLength="102" x="188" y="481.6426">Ory Oathkeeper</text></g><!--entity kratos--><g id="elem_kratos"><rect fill="#F1F1F1" height="47.6094" rx="2.5" ry="2.5" style="stroke:#181818;stroke-width:0.5;" width="108" x="22" y="573.1094"/><rect fill="#F1F1F1" height="10" style="stroke:#181818;stroke-width:0.5;" width="15" x="110" y="578.1094"/><rect fill="#F1F1F1" height="2" style="stroke:#181818;stroke-width:0.5;" width="4" x="108" y="580.1094"/><rect fill="#F1F1F1" height="2" style="stroke:#181818;stroke-width:0.5;" width="4" x="108" y="584.1094"/><text fill="#000000" font-family="sans-serif" font-size="14" lengthAdjust="spacing" textLength="68" x="37" y="607.6426">Ory Kratos</text></g><!--entity keto--><g id="elem_keto"><rect fill="#F1F1F1" height="47.6094" rx="2.5" ry="2.5" style="stroke:#181818;stroke-width:0.5;" width="96" x="165" y="573.1094"/><rect fill="#F1F1F1" height="10" style="stroke:#181818;stroke-width:0.5;" width="15" x="241" y="578.1094"/><rect fill="#F1F1F1" height="2" style="stroke:#181818;stroke-width:0.5;" width="4" x="239" y="580.1094"/><rect fill="#F1F1F1" height="2" style="stroke:#181818;stroke-width:0.5;" width="4" x="239" y="584.1094"/><text fill="#000000" font-family="sans-serif" font-size="14" lengthAdjust="spacing" textLength="56" x="180" y="607.6426">Ory Keto</text></g><!--entity backend--><g id="elem_backend"><rect fill="#F1F1F1" height="47.6094" rx="2.5" ry="2.5" style="stroke:#181818;stroke-width:0.5;" width="129" x="419.5" y="573.1094"/><rect fill="#F1F1F1" height="10" style="stroke:#181818;stroke-width:0.5;" width="15" x="528.5" y="578.1094"/><rect fill="#F1F1F1" height="2" style="stroke:#181818;stroke-width:0.5;" width="4" x="526.5" y="580.1094"/><rect fill="#F1F1F1" height="2" style="stroke:#181818;stroke-width:0.5;" width="4" x="526.5" y="584.1094"/><text fill="#000000" font-family="sans-serif" font-size="14" lengthAdjust="spacing" textLength="89" x="434.5" y="607.6426">RMS Backend</text></g><!--entity Loki--><g id="elem_Loki"><rect fill="#F1F1F1" height="47.6094" rx="2.5" ry="2.5" style="stroke:#181818;stroke-width:0.5;" width="66" x="584" y="573.1094"/><rect fill="#F1F1F1" height="10" style="stroke:#181818;stroke-width:0.5;" width="15" x="630" y="578.1094"/><rect fill="#F1F1F1" height="2" style="stroke:#181818;stroke-width:0.5;" width="4" x="628" y="580.1094"/><rect fill="#F1F1F1" height="2" style="stroke:#181818;stroke-width:0.5;" width="4" x="628" y="584.1094"/><text fill="#000000" font-family="sans-serif" font-size="14" lengthAdjust="spacing" textLength="26" x="599" y="607.6426">Loki</text></g><!--entity Grafana--><g id="elem_Grafana"><rect fill="#F1F1F1" height="47.6094" rx="2.5" ry="2.5" style="stroke:#181818;stroke-width:0.5;" width="92" x="533" y="447.1094"/><rect fill="#F1F1F1" height="10" style="stroke:#181818;stroke-width:0.5;" width="15" x="605" y="452.1094"/><rect fill="#F1F1F1" height="2" style="stroke:#181818;stroke-width:0.5;" width="4" x="603" y="454.1094"/><rect fill="#F1F1F1" height="2" style="stroke:#181818;stroke-width:0.5;" width="4" x="603" y="458.1094"/><text fill="#000000" font-family="sans-serif" font-size="14" lengthAdjust="spacing" textLength="52" x="548" y="481.6426">Grafana</text></g><!--entity Promtail--><g id="elem_Promtail"><rect fill="#F1F1F1" height="47.6094" rx="2.5" ry="2.5" style="stroke:#181818;stroke-width:0.5;" width="91" x="350.5" y="447.1094"/><rect fill="#F1F1F1" height="10" style="stroke:#181818;stroke-width:0.5;" width="15" x="421.5" y="452.1094"/><rect fill="#F1F1F1" height="2" style="stroke:#181818;stroke-width:0.5;" width="4" x="419.5" y="454.1094"/><rect fill="#F1F1F1" height="2" style="stroke:#181818;stroke-width:0.5;" width="4" x="419.5" y="458.1094"/><text fill="#000000" font-family="sans-serif" font-size="14" lengthAdjust="spacing" textLength="51" x="365.5" y="481.6426">Promtail</text></g><!--entity db_rms--><g id="elem_db_rms"><path d="M435.5,692.1094 C435.5,682.1094 506,682.1094 506,682.1094 C506,682.1094 576.5,682.1094 576.5,692.1094 L576.5,718.7188 C576.5,728.7188 506,728.7188 506,728.7188 C506,728.7188 435.5,728.7188 435.5,718.7188 L435.5,692.1094 " fill="#F1F1F1" style="stroke:#181818;stroke-width:0.5;"/><path d="M435.5,692.1094 C435.5,702.1094 506,702.1094 506,702.1094 C506,702.1094 576.5,702.1094 576.5,692.1094 " fill="none" style="stroke:#181818;stroke-width:0.5;"/><text fill="#000000" font-family="sans-serif" font-size="14" lengthAdjust="spacing" textLength="121" x="445.5" y="720.6426">PostgreSQL (RMS)</text></g><!--entity db_auth--><g id="elem_db_auth"><path d="M22,692.1094 C22,682.1094 100,682.1094 100,682.1094 C100,682.1094 178,682.1094 178,692.1094 L178,718.7188 C178,728.7188 100,728.7188 100,728.7188 C100,728.7188 22,728.7188 22,718.7188 L22,692.1094 " fill="#F1F1F1" style="stroke:#181818;stroke-width:0.5;"/><path d="M22,692.1094 C22,702.1094 100,702.1094 100,702.1094 C100,702.1094 178,702.1094 178,692.1094 " fill="none" style="stroke:#181818;stroke-width:0.5;"/><text fill="#000000" font-family="sans-serif" font-size="14" lengthAdjust="spacing" textLength="136" x="32" y="720.6426">PostgreSQL (Identity)</text></g><!--entity db_perm--><g id="elem_db_perm"><path d="M213.5,692.1094 C213.5,682.1094 307,682.1094 307,682.1094 C307,682.1094 400.5,682.1094 400.5,692.1094 L400.5,718.7188 C400.5,728.7188 307,728.7188 307,728.7188 C307,728.7188 213.5,728.7188 213.5,718.7188 L213.5,692.1094 " fill="#F1F1F1" style="stroke:#181818;stroke-width:0.5;"/><path d="M213.5,692.1094 C213.5,702.1094 307,702.1094 307,702.1094 C307,702.1094 400.5,702.1094 400.5,692.1094 " fill="none" style="stroke:#181818;stroke-width:0.5;"/><text fill="#000000" font-family="sans-serif" font-size="14" lengthAdjust="spacing" textLength="167" x="223.5" y="720.6426">PostgreSQL (Permissions)</text></g><!--entity user--><g id="elem_user"><ellipse cx="137" cy="52.6094" fill="#F1F1F1" rx="8" ry="8" style="stroke:#181818;stroke-width:0.5;"/><path d="M137,60.6094 L137,87.6094 M124,68.6094 L150,68.6094 M137,87.6094 L124,102.6094 M137,87.6094 L150,102.6094 " fill="none" style="stroke:#181818;stroke-width:0.5;"/><text fill="#000000" font-family="sans-serif" font-size="14" lengthAdjust="spacing" textLength="28" x="123" y="118.6426">user</text></g><!--link user to gateway--><g id="link_user_gateway"><path d="M137,122.3194 C137,148.6494 137,176.7794 137,199.0494 " fill="none" id="user-to-gateway" style="stroke:#181818;stroke-width:1.0;"/><polygon fill="#181818" points="137,205.0494,141,196.0494,137,200.0494,133,196.0494,137,205.0494" style="stroke:#181818;stroke-width:1.0;"/></g><!--link gateway to front--><g id="link_gateway_front"><path d="M134.4,253.3294 C132.38,271.2694 130.2781,290.0367 128.2681,307.9767 " fill="none" id="gateway-to-front" style="stroke:#181818;stroke-width:1.0;"/><polygon fill="#181818" points="127.6,313.9394,132.5772,305.4407,128.1567,308.9705,124.627,304.55,127.6,313.9394" style="stroke:#181818;stroke-width:1.0;"/></g><!--link gateway to proxy--><g id="link_gateway_proxy"><path d="M162.26,253.1294 C177.99,268.8394 197.38,290.9294 209,314.1094 C230.95,357.9094 238.6921,409.4973 241.7421,441.0173 " fill="none" id="gateway-to-proxy" style="stroke:#181818;stroke-width:1.0;"/><polygon fill="#181818" points="242.32,446.9894,245.4346,437.646,241.8384,442.0126,237.4718,438.4165,242.32,446.9894" style="stroke:#181818;stroke-width:1.0;"/></g><!--link proxy to kratos--><g id="link_proxy_kratos"><path d="M212.79,495.1394 C182.71,517.3494 142.2676,547.1964 112.1476,569.4264 " fill="none" id="proxy-to-kratos" style="stroke:#181818;stroke-width:1.0;"/><polygon fill="#181818" points="107.32,572.9894,116.9366,570.8633,111.343,570.0202,112.186,564.4266,107.32,572.9894" style="stroke:#181818;stroke-width:1.0;"/></g><!--reverse link keto to proxy--><g id="link_keto_proxy"><path d="M220.2858,566.9587 C225.8458,544.7287 232.71,517.2794 238.24,495.1394 " fill="none" id="keto-backto-proxy" style="stroke:#181818;stroke-width:1.0;"/><polygon fill="#181818" points="218.83,572.7794,224.8942,565.0189,220.0432,567.9288,217.1333,563.0778,218.83,572.7794" style="stroke:#181818;stroke-width:1.0;"/></g><!--link proxy to Grafana--><g id="link_proxy_Grafana"><path d="M266.14,446.9494 C285.97,427.5494 317,402.3194 350.5,394.6094 C389.92,385.5394 402.08,385.5394 441.5,394.6094 C481.17,403.7294 516.3438,424.6813 542.9138,443.5013 " fill="none" id="proxy-to-Grafana" style="stroke:#181818;stroke-width:1.0;stroke-dasharray:7.0,7.0;"/><polygon fill="#181818" points="547.81,446.9694,542.7778,438.5032,543.7298,444.0793,538.1537,445.0314,547.81,446.9694" style="stroke:#181818;stroke-width:1.0;"/></g><!--link proxy to backend--><g id="link_proxy_backend"><path d="M288.58,495.1394 C331.55,517.3494 390.8893,548.0055 433.9193,570.2355 " fill="none" id="proxy-to-backend" style="stroke:#181818;stroke-width:1.0;"/><polygon fill="#181818" points="439.25,572.9894,433.0899,565.3047,434.8078,570.6945,429.4181,572.4123,439.25,572.9894" style="stroke:#181818;stroke-width:1.0;"/></g><!--link backend to keto--><g id="link_backend_keto"><path d="M419.26,597.1094 C370.66,597.1094 311.17,597.1094 267.14,597.1094 " fill="none" id="backend-to-keto" style="stroke:#181818;stroke-width:1.0;stroke-dasharray:7.0,7.0;"/><polygon fill="#181818" points="261.14,597.1094,270.14,601.1094,266.14,597.1094,270.14,593.1094,261.14,597.1094" style="stroke:#181818;stroke-width:1.0;"/><text fill="#000000" font-family="sans-serif" font-size="13" lengthAdjust="spacing" textLength="122" x="279.25" y="590.6045">Write Tuples (GRPC)</text></g><!--link backend to db_rms--><g id="link_backend_db_rms"><path d="M488.77,621.2194 C492.49,639.1994 496.4073,658.1532 500.0973,676.0332 " fill="none" id="backend-to-db_rms" style="stroke:#181818;stroke-width:1.0;"/><polygon fill="#181818" points="501.31,681.9094,503.4084,672.2867,500.2994,677.0126,495.5735,673.9036,501.31,681.9094" style="stroke:#181818;stroke-width:1.0;"/></g><!--link kratos to db_auth--><g id="link_kratos_db_auth"><path d="M81.21,621.2194 C85.26,639.1994 89.5439,658.1755 93.5639,676.0555 " fill="none" id="kratos-to-db_auth" style="stroke:#181818;stroke-width:1.0;"/><polygon fill="#181818" points="94.88,681.9094,96.8084,672.2511,93.7832,677.0312,89.0032,674.006,94.88,681.9094" style="stroke:#181818;stroke-width:1.0;"/></g><!--link keto to db_perm--><g id="link_keto_db_perm"><path d="M233.4,621.2194 C249.27,639.1994 267.2084,659.532 282.9984,677.412 " fill="none" id="keto-to-db_perm" style="stroke:#181818;stroke-width:1.0;"/><polygon fill="#181818" points="286.97,681.9094,284.0108,672.5156,283.6603,678.1616,278.0143,677.8111,286.97,681.9094" style="stroke:#181818;stroke-width:1.0;"/></g><!--link Grafana to Loki--><g id="link_Grafana_Loki"><path d="M586.06,495.1394 C592.84,517.2794 601.2826,544.8125 608.0926,567.0425 " fill="none" id="Grafana-to-Loki" style="stroke:#181818;stroke-width:1.0;"/><polygon fill="#181818" points="609.85,572.7794,611.0384,563.0025,608.3855,567.9987,603.3893,565.3457,609.85,572.7794" style="stroke:#181818;stroke-width:1.0;"/></g><!--link Promtail to Loki--><g id="link_Promtail_Loki"><path d="M436.46,495.2594 C460.9,509.1994 492.69,527.2594 521,543.1094 C541.76,554.7394 559.8822,564.7587 578.3622,574.9187 " fill="none" id="Promtail-to-Loki" style="stroke:#181818;stroke-width:1.0;stroke-dasharray:7.0,7.0;"/><polygon fill="#181818" points="583.62,577.8094,577.6604,569.9682,579.2385,575.4005,573.8062,576.9786,583.62,577.8094" style="stroke:#181818;stroke-width:1.0;"/><text fill="#000000" font-family="sans-serif" font-size="13" lengthAdjust="spacing" textLength="64" x="522" y="539.6045">deliver logs</text></g><!--link Promtail to kratos--><g id="link_Promtail_kratos"><path d="M350.49,489.7394 C292.43,512.2394 197.7144,548.9408 135.7744,572.9508 " fill="none" id="Promtail-to-kratos" style="stroke:#181818;stroke-width:1.0;stroke-dasharray:7.0,7.0;"/><polygon fill="#181818" points="130.18,575.1194,140.0173,575.5961,134.842,573.3122,137.1259,568.1369,130.18,575.1194" style="stroke:#181818;stroke-width:1.0;"/></g><!--link Promtail to keto--><g id="link_Promtail_keto"><path d="M373.84,495.3094 C358.94,510.1094 338.36,529.0894 318,543.1094 C300.34,555.2694 284.9076,563.7697 266.4776,572.6297 " fill="none" id="Promtail-to-keto" style="stroke:#181818;stroke-width:1.0;stroke-dasharray:7.0,7.0;"/><polygon fill="#181818" points="261.07,575.2294,270.9145,574.935,265.5763,573.063,267.4483,567.7249,261.07,575.2294" style="stroke:#181818;stroke-width:1.0;"/></g><!--link Promtail to backend--><g id="link_Promtail_backend"><path d="M412.35,495.1394 C428.05,517.2794 448.1984,545.6557 463.9684,567.8857 " fill="none" id="Promtail-to-backend" style="stroke:#181818;stroke-width:1.0;stroke-dasharray:7.0,7.0;"/><polygon fill="#181818" points="467.44,572.7794,465.4951,563.1245,464.547,568.7013,458.9702,567.7532,467.44,572.7794" style="stroke:#181818;stroke-width:1.0;"/></g><!--reverse link proxy to Promtail--><g id="link_proxy_Promtail"><path d="M321.25,471.1094 C332.92,471.1094 338.59,471.1094 350.26,471.1094 " fill="none" id="proxy-backto-Promtail" style="stroke:#181818;stroke-width:1.0;stroke-dasharray:7.0,7.0;"/><polygon fill="#181818" points="315.25,471.1094,324.25,475.1094,320.25,471.1094,324.25,467.1094,315.25,471.1094" style="stroke:#181818;stroke-width:1.0;"/></g><!--SRC=[VLBRRjim37tNLn3PGvE7v0FwKA0fiA9OjsHfWJqCnK1RT29OiGAARXeC-vXzotvib2tdCWmr35iwF2AfSoXEFC4jbnidL4hB1DRXcd4BuuVLT1wGxSGOB2Kmj97Oc2jOaQK8uoya-y1rd9WTbZMk2KOPkePTMtXNZk23TmtDR10X2pyDwFDzzVa9Fd9eX1hx0XYXIfi-zin8bQixU8r2UpoON-O_1PmUvmQzbhZLIZJtBGq55do01Sgc9jeHTxbs7DuEf-WdHWcnYzJTyYn44lg0BauDpxM3eT-YN_V1nr2xbtvvprXXWtctvB0LTBxVTX-BWWL6lSSoH5apFNrzXB6cdunINblyu6ryX_bWgH4dXoCTMzcymryIRrsCBZJnU4GLsIP9h-0kDFIcCVNI4WZ_-LsvCfZaCanjs3VJcwC7-N_4EylW7rZnJcV8sMFhHOjcgoAelAOdABFN7GR0KoK9LT47R7O3MT6KRuanGENKSj0tsp6SpbqDnYGwSNHHHwnqQ3AUCdO5hk4Rwxp3SxlpQPBlLyixdVA1DgJBVkHEpz1EzYxJ6TW9gvKNXGhuYeNppgBsaky0IPuqB6OO39ZDUaJxiUJTg-hkmpfU4l9yNc9fD2-GuUOdC0awouOOynS0]--></g></svg>