<?xml version="1.0" encoding="us-ascii" standalone="no"?><svg xmlns="http://www.w3.org/2000/svg" xmlns:xlink="http://www.w3.org/1999/xlink" contentStyleType="text/css" height="994px" preserveAspectRatio="none" style="width:1209px;height:994px;background:#FFFFFF;" version="1.1" viewBox="0 0 1209 994" width="1209px" zoomAndPan="magnify"><defs/><g><text fill="#000000" font-family="sans-serif" font-size="14" font-weight="bold" lengthAdjust="spacing" textLength="251" x="472.25" y="24.5332">Backend Class DiagramBorderColor</text><!--class PriorityStyle--><g id="elem_PriorityStyle"><rect codeLine="3" fill="#F1F1F1" height="83.2188" id="PriorityStyle" rx="2.5" ry="2.5" style="stroke:#181818;stroke-width:0.5;" width="107" x="641" y="716.1094"/><ellipse cx="656" cy="732.1094" fill="#EB937F" rx="11" ry="11" style="stroke:#181818;stroke-width:1.0;"/><path d="M654.8594,732.9063 L654.8594,735.4063 L659.1875,735.4063 L659.1875,734.4844 Q659.1875,733.875 659.4219,733.6094 Q659.6719,733.3438 660.0469,733.3438 Q660.4219,733.3438 660.6563,733.6094 Q660.8906,733.875 660.8906,734.4844 L660.8906,737.1094 L652.8906,737.1094 Q652.2656,737.1094 652,736.875 Q651.75,736.6406 651.75,736.25 Q651.75,735.875 652.0156,735.6406 Q652.2813,735.4063 652.8906,735.4063 L653.1563,735.4063 L653.1563,728.75 L652.8906,728.75 Q652.2656,728.75 652,728.5156 Q651.75,728.2813 651.75,727.8906 Q651.75,727.5156 652,727.2813 Q652.2656,727.0469 652.8906,727.0469 L660.5156,727.0469 L660.5156,729.6406 Q660.5156,730.25 660.2813,730.5156 Q660.0625,730.7656 659.6719,730.7656 Q659.2969,730.7656 659.0625,730.5156 Q658.8281,730.25 658.8281,729.6406 L658.8281,728.75 L654.8594,728.75 L654.8594,731.2031 L656.3438,731.2031 Q656.3438,730.5469 656.4688,730.3594 Q656.7344,729.9531 657.2031,729.9531 Q657.5781,729.9531 657.8125,730.2188 Q658.0469,730.4688 658.0469,731.0781 L658.0469,733.0469 Q658.0469,733.5938 657.9219,733.7813 Q657.6563,734.1719 657.2031,734.1719 Q656.7344,734.1719 656.4688,733.7656 Q656.3438,733.5781 656.3438,732.9063 L654.8594,732.9063 Z " fill="#000000"/><text fill="#000000" font-family="sans-serif" font-size="14" lengthAdjust="spacing" textLength="75" x="670" y="737.8379">PriorityStyle</text><line style="stroke:#181818;stroke-width:0.5;" x1="642" x2="747" y1="748.1094" y2="748.1094"/><text fill="#000000" font-family="sans-serif" font-size="14" lengthAdjust="spacing" textLength="65" x="647" y="766.6426">TERNARY</text><text fill="#000000" font-family="sans-serif" font-size="14" lengthAdjust="spacing" textLength="65" x="647" y="784.252">MOSCOW</text><line style="stroke:#181818;stroke-width:0.5;" x1="642" x2="747" y1="791.3281" y2="791.3281"/></g><!--class ProjectState--><g id="elem_ProjectState"><rect codeLine="8" fill="#F1F1F1" height="118.4375" id="ProjectState" rx="2.5" ry="2.5" style="stroke:#181818;stroke-width:0.5;" width="109" x="7" y="501.6094"/><ellipse cx="22" cy="517.6094" fill="#EB937F" rx="11" ry="11" style="stroke:#181818;stroke-width:1.0;"/><path d="M20.8594,518.4063 L20.8594,520.9063 L25.1875,520.9063 L25.1875,519.9844 Q25.1875,519.375 25.4219,519.1094 Q25.6719,518.8438 26.0469,518.8438 Q26.4219,518.8438 26.6563,519.1094 Q26.8906,519.375 26.8906,519.9844 L26.8906,522.6094 L18.8906,522.6094 Q18.2656,522.6094 18,522.375 Q17.75,522.1406 17.75,521.75 Q17.75,521.375 18.0156,521.1406 Q18.2813,520.9063 18.8906,520.9063 L19.1563,520.9063 L19.1563,514.25 L18.8906,514.25 Q18.2656,514.25 18,514.0156 Q17.75,513.7813 17.75,513.3906 Q17.75,513.0156 18,512.7813 Q18.2656,512.5469 18.8906,512.5469 L26.5156,512.5469 L26.5156,515.1406 Q26.5156,515.75 26.2813,516.0156 Q26.0625,516.2656 25.6719,516.2656 Q25.2969,516.2656 25.0625,516.0156 Q24.8281,515.75 24.8281,515.1406 L24.8281,514.25 L20.8594,514.25 L20.8594,516.7031 L22.3438,516.7031 Q22.3438,516.0469 22.4688,515.8594 Q22.7344,515.4531 23.2031,515.4531 Q23.5781,515.4531 23.8125,515.7188 Q24.0469,515.9688 24.0469,516.5781 L24.0469,518.5469 Q24.0469,519.0938 23.9219,519.2813 Q23.6563,519.6719 23.2031,519.6719 Q22.7344,519.6719 22.4688,519.2656 Q22.3438,519.0781 22.3438,518.4063 L20.8594,518.4063 Z " fill="#000000"/><text fill="#000000" font-family="sans-serif" font-size="14" lengthAdjust="spacing" textLength="77" x="36" y="523.3379">ProjectState</text><line style="stroke:#181818;stroke-width:0.5;" x1="8" x2="115" y1="533.6094" y2="533.6094"/><text fill="#000000" font-family="sans-serif" font-size="14" lengthAdjust="spacing" textLength="49" x="13" y="552.1426">ACTIVE</text><text fill="#000000" font-family="sans-serif" font-size="14" lengthAdjust="spacing" textLength="61" x="13" y="569.752">FINISHED</text><text fill="#000000" font-family="sans-serif" font-size="14" lengthAdjust="spacing" textLength="96" x="13" y="587.3613">DEACTIVATED</text><text fill="#000000" font-family="sans-serif" font-size="14" lengthAdjust="spacing" textLength="69" x="13" y="604.9707">REMOVED</text><line style="stroke:#181818;stroke-width:0.5;" x1="8" x2="115" y1="612.0469" y2="612.0469"/></g><!--class FunctionalityState--><g id="elem_FunctionalityState"><rect codeLine="15" fill="#F1F1F1" height="100.8281" id="FunctionalityState" rx="2.5" ry="2.5" style="stroke:#181818;stroke-width:0.5;" width="145" x="97" y="707.1094"/><ellipse cx="112" cy="723.1094" fill="#EB937F" rx="11" ry="11" style="stroke:#181818;stroke-width:1.0;"/><path d="M110.8594,723.9063 L110.8594,726.4063 L115.1875,726.4063 L115.1875,725.4844 Q115.1875,724.875 115.4219,724.6094 Q115.6719,724.3438 116.0469,724.3438 Q116.4219,724.3438 116.6563,724.6094 Q116.8906,724.875 116.8906,725.4844 L116.8906,728.1094 L108.8906,728.1094 Q108.2656,728.1094 108,727.875 Q107.75,727.6406 107.75,727.25 Q107.75,726.875 108.0156,726.6406 Q108.2813,726.4063 108.8906,726.4063 L109.1563,726.4063 L109.1563,719.75 L108.8906,719.75 Q108.2656,719.75 108,719.5156 Q107.75,719.2813 107.75,718.8906 Q107.75,718.5156 108,718.2813 Q108.2656,718.0469 108.8906,718.0469 L116.5156,718.0469 L116.5156,720.6406 Q116.5156,721.25 116.2813,721.5156 Q116.0625,721.7656 115.6719,721.7656 Q115.2969,721.7656 115.0625,721.5156 Q114.8281,721.25 114.8281,720.6406 L114.8281,719.75 L110.8594,719.75 L110.8594,722.2031 L112.3438,722.2031 Q112.3438,721.5469 112.4688,721.3594 Q112.7344,720.9531 113.2031,720.9531 Q113.5781,720.9531 113.8125,721.2188 Q114.0469,721.4688 114.0469,722.0781 L114.0469,724.0469 Q114.0469,724.5938 113.9219,724.7813 Q113.6563,725.1719 113.2031,725.1719 Q112.7344,725.1719 112.4688,724.7656 Q112.3438,724.5781 112.3438,723.9063 L110.8594,723.9063 Z " fill="#000000"/><text fill="#000000" font-family="sans-serif" font-size="14" lengthAdjust="spacing" textLength="113" x="126" y="728.8379">FunctionalityState</text><line style="stroke:#181818;stroke-width:0.5;" x1="98" x2="241" y1="739.1094" y2="739.1094"/><text fill="#000000" font-family="sans-serif" font-size="14" lengthAdjust="spacing" textLength="49" x="103" y="757.6426">ACTIVE</text><text fill="#000000" font-family="sans-serif" font-size="14" lengthAdjust="spacing" textLength="96" x="103" y="775.252">DEACTIVATED</text><text fill="#000000" font-family="sans-serif" font-size="14" lengthAdjust="spacing" textLength="69" x="103" y="792.8613">REMOVED</text><line style="stroke:#181818;stroke-width:0.5;" x1="98" x2="241" y1="799.9375" y2="799.9375"/></g><!--class RequirementState--><g id="elem_RequirementState"><rect codeLine="21" fill="#F1F1F1" height="136.0469" id="RequirementState" rx="2.5" ry="2.5" style="stroke:#181818;stroke-width:0.5;" width="154" x="783.5" y="689.6094"/><ellipse cx="802.1" cy="705.6094" fill="#EB937F" rx="11" ry="11" style="stroke:#181818;stroke-width:1.0;"/><path d="M800.9594,706.4063 L800.9594,708.9063 L805.2875,708.9063 L805.2875,707.9844 Q805.2875,707.375 805.5219,707.1094 Q805.7719,706.8438 806.1469,706.8438 Q806.5219,706.8438 806.7563,707.1094 Q806.9906,707.375 806.9906,707.9844 L806.9906,710.6094 L798.9906,710.6094 Q798.3656,710.6094 798.1,710.375 Q797.85,710.1406 797.85,709.75 Q797.85,709.375 798.1156,709.1406 Q798.3813,708.9063 798.9906,708.9063 L799.2563,708.9063 L799.2563,702.25 L798.9906,702.25 Q798.3656,702.25 798.1,702.0156 Q797.85,701.7813 797.85,701.3906 Q797.85,701.0156 798.1,700.7813 Q798.3656,700.5469 798.9906,700.5469 L806.6156,700.5469 L806.6156,703.1406 Q806.6156,703.75 806.3813,704.0156 Q806.1625,704.2656 805.7719,704.2656 Q805.3969,704.2656 805.1625,704.0156 Q804.9281,703.75 804.9281,703.1406 L804.9281,702.25 L800.9594,702.25 L800.9594,704.7031 L802.4438,704.7031 Q802.4438,704.0469 802.5688,703.8594 Q802.8344,703.4531 803.3031,703.4531 Q803.6781,703.4531 803.9125,703.7188 Q804.1469,703.9688 804.1469,704.5781 L804.1469,706.5469 Q804.1469,707.0938 804.0219,707.2813 Q803.7563,707.6719 803.3031,707.6719 Q802.8344,707.6719 802.5688,707.2656 Q802.4438,707.0781 802.4438,706.4063 L800.9594,706.4063 Z " fill="#000000"/><text fill="#000000" font-family="sans-serif" font-size="14" lengthAdjust="spacing" textLength="114" x="816.9" y="711.3379">RequirementState</text><line style="stroke:#181818;stroke-width:0.5;" x1="784.5" x2="936.5" y1="721.6094" y2="721.6094"/><text fill="#000000" font-family="sans-serif" font-size="14" lengthAdjust="spacing" textLength="142" x="789.5" y="740.1426">PENDING_APPROVAL</text><text fill="#000000" font-family="sans-serif" font-size="14" lengthAdjust="spacing" textLength="61" x="789.5" y="757.752">FINISHED</text><text fill="#000000" font-family="sans-serif" font-size="14" lengthAdjust="spacing" textLength="76" x="789.5" y="775.3613">APPROVED</text><text fill="#000000" font-family="sans-serif" font-size="14" lengthAdjust="spacing" textLength="96" x="789.5" y="792.9707">DEACTIVATED</text><text fill="#000000" font-family="sans-serif" font-size="14" lengthAdjust="spacing" textLength="69" x="789.5" y="810.5801">REMOVED</text><line style="stroke:#181818;stroke-width:0.5;" x1="784.5" x2="936.5" y1="817.6563" y2="817.6563"/></g><!--class ComparisonOperator--><g id="elem_ComparisonOperator"><rect codeLine="29" fill="#F1F1F1" height="100.8281" id="ComparisonOperator" rx="2.5" ry="2.5" style="stroke:#181818;stroke-width:0.5;" width="165" x="463" y="886.6094"/><ellipse cx="478" cy="902.6094" fill="#EB937F" rx="11" ry="11" style="stroke:#181818;stroke-width:1.0;"/><path d="M476.8594,903.4063 L476.8594,905.9063 L481.1875,905.9063 L481.1875,904.9844 Q481.1875,904.375 481.4219,904.1094 Q481.6719,903.8438 482.0469,903.8438 Q482.4219,903.8438 482.6563,904.1094 Q482.8906,904.375 482.8906,904.9844 L482.8906,907.6094 L474.8906,907.6094 Q474.2656,907.6094 474,907.375 Q473.75,907.1406 473.75,906.75 Q473.75,906.375 474.0156,906.1406 Q474.2813,905.9063 474.8906,905.9063 L475.1563,905.9063 L475.1563,899.25 L474.8906,899.25 Q474.2656,899.25 474,899.0156 Q473.75,898.7813 473.75,898.3906 Q473.75,898.0156 474,897.7813 Q474.2656,897.5469 474.8906,897.5469 L482.5156,897.5469 L482.5156,900.1406 Q482.5156,900.75 482.2813,901.0156 Q482.0625,901.2656 481.6719,901.2656 Q481.2969,901.2656 481.0625,901.0156 Q480.8281,900.75 480.8281,900.1406 L480.8281,899.25 L476.8594,899.25 L476.8594,901.7031 L478.3438,901.7031 Q478.3438,901.0469 478.4688,900.8594 Q478.7344,900.4531 479.2031,900.4531 Q479.5781,900.4531 479.8125,900.7188 Q480.0469,900.9688 480.0469,901.5781 L480.0469,903.5469 Q480.0469,904.0938 479.9219,904.2813 Q479.6563,904.6719 479.2031,904.6719 Q478.7344,904.6719 478.4688,904.2656 Q478.3438,904.0781 478.3438,903.4063 L476.8594,903.4063 Z " fill="#000000"/><text fill="#000000" font-family="sans-serif" font-size="14" lengthAdjust="spacing" textLength="133" x="492" y="908.3379">ComparisonOperator</text><line style="stroke:#181818;stroke-width:0.5;" x1="464" x2="627" y1="918.6094" y2="918.6094"/><text fill="#000000" font-family="sans-serif" font-size="14" lengthAdjust="spacing" textLength="74" x="469" y="937.1426">EQUAL_TO</text><text fill="#000000" font-family="sans-serif" font-size="14" lengthAdjust="spacing" textLength="79" x="469" y="954.752">LESS_THAN</text><text fill="#000000" font-family="sans-serif" font-size="14" lengthAdjust="spacing" textLength="111" x="469" y="972.3613">GREATER_THAN</text><line style="stroke:#181818;stroke-width:0.5;" x1="464" x2="627" y1="979.4375" y2="979.4375"/></g><!--class Project--><g id="elem_Project"><rect codeLine="35" fill="#F1F1F1" height="153.6563" id="Project" rx="2.5" ry="2.5" style="stroke:#181818;stroke-width:0.5;" width="186" x="385.5" y="45.6094"/><ellipse cx="452.25" cy="61.6094" fill="#ADD1B2" rx="11" ry="11" style="stroke:#181818;stroke-width:1.0;"/><path d="M455.0156,57.4844 Q455.1719,57.2656 455.3594,57.1563 Q455.5469,57.0469 455.7656,57.0469 Q456.1406,57.0469 456.375,57.3125 Q456.6094,57.5625 456.6094,58.1719 L456.6094,59.625 Q456.6094,60.2344 456.375,60.5 Q456.1406,60.7656 455.7656,60.7656 Q455.4219,60.7656 455.2188,60.5625 Q455.0156,60.375 454.9063,59.8594 Q454.8594,59.5 454.6719,59.3125 Q454.3438,58.9375 453.7344,58.7188 Q453.125,58.5 452.5,58.5 Q451.7344,58.5 451.0938,58.8281 Q450.4688,59.1563 449.9688,59.9063 Q449.4844,60.6563 449.4844,61.6875 L449.4844,62.7813 Q449.4844,64.0156 450.375,64.8438 Q451.2656,65.6563 452.8594,65.6563 Q453.7969,65.6563 454.4531,65.4063 Q454.8438,65.25 455.2656,64.8125 Q455.5313,64.5469 455.6719,64.4688 Q455.8281,64.3906 456.0313,64.3906 Q456.3594,64.3906 456.6094,64.6563 Q456.875,64.9063 456.875,65.25 Q456.875,65.5938 456.5313,66 Q456.0313,66.5781 455.2344,66.9063 Q454.1563,67.3594 452.8594,67.3594 Q451.3438,67.3594 450.1406,66.7344 Q449.1563,66.2344 448.4688,65.1719 Q447.7813,64.0938 447.7813,62.8125 L447.7813,61.6563 Q447.7813,60.3281 448.3906,59.1875 Q449.0156,58.0313 450.1094,57.4219 Q451.2031,56.7969 452.4375,56.7969 Q453.1719,56.7969 453.8125,56.9688 Q454.4688,57.125 455.0156,57.4844 Z " fill="#000000"/><text fill="#000000" font-family="sans-serif" font-size="14" lengthAdjust="spacing" textLength="44" x="472.75" y="67.3379">Project</text><line style="stroke:#181818;stroke-width:0.5;" x1="386.5" x2="570.5" y1="77.6094" y2="77.6094"/><rect fill="none" height="6" style="stroke:#C82930;stroke-width:1.0;" width="6" x="393.5" y="88.9141"/><text fill="#000000" font-family="sans-serif" font-size="14" lengthAdjust="spacing" textLength="46" x="405.5" y="96.1426">UUID id</text><rect fill="none" height="6" style="stroke:#C82930;stroke-width:1.0;" width="6" x="393.5" y="106.5234"/><text fill="#000000" font-family="sans-serif" font-size="14" lengthAdjust="spacing" textLength="76" x="405.5" y="113.752">String name</text><rect fill="none" height="6" style="stroke:#C82930;stroke-width:1.0;" width="6" x="393.5" y="124.1328"/><text fill="#000000" font-family="sans-serif" font-size="14" lengthAdjust="spacing" textLength="110" x="405.5" y="131.3613">String description</text><rect fill="none" height="6" style="stroke:#C82930;stroke-width:1.0;" width="6" x="393.5" y="141.7422"/><text fill="#000000" font-family="sans-serif" font-size="14" lengthAdjust="spacing" textLength="153" x="405.5" y="148.9707">PriorityStyle priorityStyle</text><rect fill="none" height="6" style="stroke:#C82930;stroke-width:1.0;" width="6" x="393.5" y="159.3516"/><text fill="#000000" font-family="sans-serif" font-size="14" lengthAdjust="spacing" textLength="112" x="405.5" y="166.5801">ProjectState state</text><rect fill="none" height="6" style="stroke:#C82930;stroke-width:1.0;" width="6" x="393.5" y="176.9609"/><text fill="#000000" font-family="sans-serif" font-size="14" lengthAdjust="spacing" textLength="160" x="405.5" y="184.1895">LocalDateTime createdAt</text><line style="stroke:#181818;stroke-width:0.5;" x1="386.5" x2="570.5" y1="191.2656" y2="191.2656"/></g><!--class Functionality--><g id="elem_Functionality"><rect codeLine="44" fill="#F1F1F1" height="118.4375" id="Functionality" rx="2.5" ry="2.5" style="stroke:#181818;stroke-width:0.5;" width="174" x="225.5" y="278.6094"/><ellipse cx="268.4" cy="294.6094" fill="#ADD1B2" rx="11" ry="11" style="stroke:#181818;stroke-width:1.0;"/><path d="M271.1656,290.4844 Q271.3219,290.2656 271.5094,290.1563 Q271.6969,290.0469 271.9156,290.0469 Q272.2906,290.0469 272.525,290.3125 Q272.7594,290.5625 272.7594,291.1719 L272.7594,292.625 Q272.7594,293.2344 272.525,293.5 Q272.2906,293.7656 271.9156,293.7656 Q271.5719,293.7656 271.3688,293.5625 Q271.1656,293.375 271.0563,292.8594 Q271.0094,292.5 270.8219,292.3125 Q270.4938,291.9375 269.8844,291.7188 Q269.275,291.5 268.65,291.5 Q267.8844,291.5 267.2438,291.8281 Q266.6188,292.1563 266.1188,292.9063 Q265.6344,293.6563 265.6344,294.6875 L265.6344,295.7813 Q265.6344,297.0156 266.525,297.8438 Q267.4156,298.6563 269.0094,298.6563 Q269.9469,298.6563 270.6031,298.4063 Q270.9938,298.25 271.4156,297.8125 Q271.6813,297.5469 271.8219,297.4688 Q271.9781,297.3906 272.1813,297.3906 Q272.5094,297.3906 272.7594,297.6563 Q273.025,297.9063 273.025,298.25 Q273.025,298.5938 272.6813,299 Q272.1813,299.5781 271.3844,299.9063 Q270.3063,300.3594 269.0094,300.3594 Q267.4938,300.3594 266.2906,299.7344 Q265.3063,299.2344 264.6188,298.1719 Q263.9313,297.0938 263.9313,295.8125 L263.9313,294.6563 Q263.9313,293.3281 264.5406,292.1875 Q265.1656,291.0313 266.2594,290.4219 Q267.3531,289.7969 268.5875,289.7969 Q269.3219,289.7969 269.9625,289.9688 Q270.6188,290.125 271.1656,290.4844 Z " fill="#000000"/><text fill="#000000" font-family="sans-serif" font-size="14" lengthAdjust="spacing" textLength="80" x="288.6" y="300.3379">Functionality</text><line style="stroke:#181818;stroke-width:0.5;" x1="226.5" x2="398.5" y1="310.6094" y2="310.6094"/><rect fill="none" height="6" style="stroke:#C82930;stroke-width:1.0;" width="6" x="233.5" y="321.9141"/><text fill="#000000" font-family="sans-serif" font-size="14" lengthAdjust="spacing" textLength="46" x="245.5" y="329.1426">UUID id</text><rect fill="none" height="6" style="stroke:#C82930;stroke-width:1.0;" width="6" x="233.5" y="339.5234"/><text fill="#000000" font-family="sans-serif" font-size="14" lengthAdjust="spacing" textLength="76" x="245.5" y="346.752">String name</text><rect fill="none" height="6" style="stroke:#C82930;stroke-width:1.0;" width="6" x="233.5" y="357.1328"/><text fill="#000000" font-family="sans-serif" font-size="14" lengthAdjust="spacing" textLength="71" x="245.5" y="364.3613">String label</text><rect fill="none" height="6" style="stroke:#C82930;stroke-width:1.0;" width="6" x="233.5" y="374.7422"/><text fill="#000000" font-family="sans-serif" font-size="14" lengthAdjust="spacing" textLength="148" x="245.5" y="381.9707">FunctionalityState state</text><line style="stroke:#181818;stroke-width:0.5;" x1="226.5" x2="398.5" y1="389.0469" y2="389.0469"/></g><!--class Requirement--><g id="elem_Requirement"><rect codeLine="51" fill="#F1F1F1" height="153.6563" id="Requirement" rx="2.5" ry="2.5" style="stroke:#181818;stroke-width:0.5;" width="189" x="532" y="260.6094"/><ellipse cx="581.75" cy="276.6094" fill="#A9DCDF" rx="11" ry="11" style="stroke:#181818;stroke-width:1.0;"/><path d="M583.9375,278.375 L579.7969,278.375 L579.375,279.4063 L579.7969,279.4063 Q580.4063,279.4063 580.6719,279.6406 Q580.9375,279.875 580.9375,280.2656 Q580.9375,280.6406 580.6719,280.875 Q580.4063,281.1094 579.7969,281.1094 L577.5,281.1094 Q576.8906,281.1094 576.6406,280.875 Q576.375,280.6406 576.375,280.25 Q576.375,279.875 576.6563,279.6406 Q576.9219,279.3906 577.5469,279.4063 L580.2188,272.75 L579.1094,272.75 Q578.5,272.75 578.2344,272.5156 Q577.9688,272.2813 577.9688,271.8906 Q577.9688,271.5156 578.2344,271.2813 Q578.5,271.0469 579.1094,271.0469 L582.7813,271.0469 L586.1719,279.4063 Q586.7656,279.4063 586.9531,279.5469 Q587.3438,279.8125 587.3438,280.2656 Q587.3438,280.6406 587.0781,280.875 Q586.8281,281.1094 586.2188,281.1094 L583.9219,281.1094 Q583.3125,281.1094 583.0469,280.875 Q582.7813,280.6406 582.7813,280.25 Q582.7813,279.875 583.0469,279.6406 Q583.3125,279.4063 583.9219,279.4063 L584.3438,279.4063 L583.9375,278.375 Z M583.2188,276.6719 L581.8594,273.2969 L580.4844,276.6719 L583.2188,276.6719 Z " fill="#000000"/><text fill="#000000" font-family="sans-serif" font-size="14" font-style="italic" lengthAdjust="spacing" textLength="81" x="602.25" y="282.3379">Requirement</text><line style="stroke:#181818;stroke-width:0.5;" x1="533" x2="720" y1="292.6094" y2="292.6094"/><rect fill="none" height="6" style="stroke:#C82930;stroke-width:1.0;" width="6" x="540" y="303.9141"/><text fill="#000000" font-family="sans-serif" font-size="14" lengthAdjust="spacing" textLength="46" x="552" y="311.1426">UUID id</text><rect fill="none" height="6" style="stroke:#C82930;stroke-width:1.0;" width="6" x="540" y="321.5234"/><text fill="#000000" font-family="sans-serif" font-size="14" lengthAdjust="spacing" textLength="106" x="552" y="328.752">Float orderValue</text><rect fill="none" height="6" style="stroke:#C82930;stroke-width:1.0;" width="6" x="540" y="339.1328"/><text fill="#000000" font-family="sans-serif" font-size="14" lengthAdjust="spacing" textLength="76" x="552" y="346.3613">String name</text><rect fill="none" height="6" style="stroke:#C82930;stroke-width:1.0;" width="6" x="540" y="356.7422"/><text fill="#000000" font-family="sans-serif" font-size="14" lengthAdjust="spacing" textLength="110" x="552" y="363.9707">String description</text><rect fill="none" height="6" style="stroke:#C82930;stroke-width:1.0;" width="6" x="540" y="374.3516"/><text fill="#000000" font-family="sans-serif" font-size="14" lengthAdjust="spacing" textLength="149" x="552" y="381.5801">RequirementState state</text><rect fill="none" height="6" style="stroke:#C82930;stroke-width:1.0;" width="6" x="540" y="391.9609"/><text fill="#000000" font-family="sans-serif" font-size="14" lengthAdjust="spacing" textLength="163" x="552" y="399.1895">Boolean isPendingReview</text><line style="stroke:#181818;stroke-width:0.5;" x1="533" x2="720" y1="406.2656" y2="406.2656"/></g><!--class FunctionalRequirement--><g id="elem_FunctionalRequirement"><rect codeLine="60" fill="#F1F1F1" height="83.2188" id="FunctionalRequirement" rx="2.5" ry="2.5" style="stroke:#181818;stroke-width:0.5;" width="179" x="223" y="519.1094"/><ellipse cx="238" cy="535.1094" fill="#ADD1B2" rx="11" ry="11" style="stroke:#181818;stroke-width:1.0;"/><path d="M240.7656,530.9844 Q240.9219,530.7656 241.1094,530.6563 Q241.2969,530.5469 241.5156,530.5469 Q241.8906,530.5469 242.125,530.8125 Q242.3594,531.0625 242.3594,531.6719 L242.3594,533.125 Q242.3594,533.7344 242.125,534 Q241.8906,534.2656 241.5156,534.2656 Q241.1719,534.2656 240.9688,534.0625 Q240.7656,533.875 240.6563,533.3594 Q240.6094,533 240.4219,532.8125 Q240.0938,532.4375 239.4844,532.2188 Q238.875,532 238.25,532 Q237.4844,532 236.8438,532.3281 Q236.2188,532.6563 235.7188,533.4063 Q235.2344,534.1563 235.2344,535.1875 L235.2344,536.2813 Q235.2344,537.5156 236.125,538.3438 Q237.0156,539.1563 238.6094,539.1563 Q239.5469,539.1563 240.2031,538.9063 Q240.5938,538.75 241.0156,538.3125 Q241.2813,538.0469 241.4219,537.9688 Q241.5781,537.8906 241.7813,537.8906 Q242.1094,537.8906 242.3594,538.1563 Q242.625,538.4063 242.625,538.75 Q242.625,539.0938 242.2813,539.5 Q241.7813,540.0781 240.9844,540.4063 Q239.9063,540.8594 238.6094,540.8594 Q237.0938,540.8594 235.8906,540.2344 Q234.9063,539.7344 234.2188,538.6719 Q233.5313,537.5938 233.5313,536.3125 L233.5313,535.1563 Q233.5313,533.8281 234.1406,532.6875 Q234.7656,531.5313 235.8594,530.9219 Q236.9531,530.2969 238.1875,530.2969 Q238.9219,530.2969 239.5625,530.4688 Q240.2188,530.625 240.7656,530.9844 Z " fill="#000000"/><text fill="#000000" font-family="sans-serif" font-size="14" lengthAdjust="spacing" textLength="147" x="252" y="540.8379">FunctionalRequirement</text><line style="stroke:#181818;stroke-width:0.5;" x1="224" x2="401" y1="551.1094" y2="551.1094"/><rect fill="none" height="6" style="stroke:#C82930;stroke-width:1.0;" width="6" x="231" y="562.4141"/><text fill="#000000" font-family="sans-serif" font-size="14" lengthAdjust="spacing" textLength="84" x="243" y="569.6426">String priority</text><rect fill="none" height="6" style="stroke:#C82930;stroke-width:1.0;" width="6" x="231" y="580.0234"/><text fill="#000000" font-family="sans-serif" font-size="14" lengthAdjust="spacing" textLength="88" x="243" y="587.252">String stability</text><line style="stroke:#181818;stroke-width:0.5;" x1="224" x2="401" y1="594.3281" y2="594.3281"/></g><!--class NonFunctionalRequirement--><g id="elem_NonFunctionalRequirement"><rect codeLine="65" fill="#F1F1F1" height="136.0469" id="NonFunctionalRequirement" rx="2.5" ry="2.5" style="stroke:#181818;stroke-width:0.5;" width="217" x="437" y="492.6094"/><ellipse cx="457.85" cy="508.6094" fill="#ADD1B2" rx="11" ry="11" style="stroke:#181818;stroke-width:1.0;"/><path d="M460.6156,504.4844 Q460.7719,504.2656 460.9594,504.1563 Q461.1469,504.0469 461.3656,504.0469 Q461.7406,504.0469 461.975,504.3125 Q462.2094,504.5625 462.2094,505.1719 L462.2094,506.625 Q462.2094,507.2344 461.975,507.5 Q461.7406,507.7656 461.3656,507.7656 Q461.0219,507.7656 460.8188,507.5625 Q460.6156,507.375 460.5063,506.8594 Q460.4594,506.5 460.2719,506.3125 Q459.9438,505.9375 459.3344,505.7188 Q458.725,505.5 458.1,505.5 Q457.3344,505.5 456.6938,505.8281 Q456.0688,506.1563 455.5688,506.9063 Q455.0844,507.6563 455.0844,508.6875 L455.0844,509.7813 Q455.0844,511.0156 455.975,511.8438 Q456.8656,512.6563 458.4594,512.6563 Q459.3969,512.6563 460.0531,512.4063 Q460.4438,512.25 460.8656,511.8125 Q461.1313,511.5469 461.2719,511.4688 Q461.4281,511.3906 461.6313,511.3906 Q461.9594,511.3906 462.2094,511.6563 Q462.475,511.9063 462.475,512.25 Q462.475,512.5938 462.1313,513 Q461.6313,513.5781 460.8344,513.9063 Q459.7563,514.3594 458.4594,514.3594 Q456.9438,514.3594 455.7406,513.7344 Q454.7563,513.2344 454.0688,512.1719 Q453.3813,511.0938 453.3813,509.8125 L453.3813,508.6563 Q453.3813,507.3281 453.9906,506.1875 Q454.6156,505.0313 455.7094,504.4219 Q456.8031,503.7969 458.0375,503.7969 Q458.7719,503.7969 459.4125,503.9688 Q460.0688,504.125 460.6156,504.4844 Z " fill="#000000"/><text fill="#000000" font-family="sans-serif" font-size="14" lengthAdjust="spacing" textLength="172" x="473.15" y="514.3379">NonFunctionalRequirement</text><line style="stroke:#181818;stroke-width:0.5;" x1="438" x2="653" y1="524.6094" y2="524.6094"/><rect fill="none" height="6" style="stroke:#C82930;stroke-width:1.0;" width="6" x="445" y="535.9141"/><text fill="#000000" font-family="sans-serif" font-size="14" lengthAdjust="spacing" textLength="151" x="457" y="543.1426">String measurementUnit</text><rect fill="none" height="6" style="stroke:#C82930;stroke-width:1.0;" width="6" x="445" y="553.5234"/><text fill="#000000" font-family="sans-serif" font-size="14" lengthAdjust="spacing" textLength="191" x="457" y="560.752">ComparisonOperator operator</text><rect fill="none" height="6" style="stroke:#C82930;stroke-width:1.0;" width="6" x="445" y="571.1328"/><text fill="#000000" font-family="sans-serif" font-size="14" lengthAdjust="spacing" textLength="144" x="457" y="578.3613">Double thresholdValue</text><rect fill="none" height="6" style="stroke:#C82930;stroke-width:1.0;" width="6" x="445" y="588.7422"/><text fill="#000000" font-family="sans-serif" font-size="14" lengthAdjust="spacing" textLength="122" x="457" y="595.9707">Double targetValue</text><rect fill="none" height="6" style="stroke:#C82930;stroke-width:1.0;" width="6" x="445" y="606.3516"/><text fill="#000000" font-family="sans-serif" font-size="14" lengthAdjust="spacing" textLength="123" x="457" y="613.5801">Double actualValue</text><line style="stroke:#181818;stroke-width:0.5;" x1="438" x2="653" y1="620.6563" y2="620.6563"/></g><!--class Stakeholder--><g id="elem_Stakeholder"><rect codeLine="73" fill="#F1F1F1" height="100.8281" id="Stakeholder" rx="2.5" ry="2.5" style="stroke:#181818;stroke-width:0.5;" width="136" x="899.5" y="510.1094"/><ellipse cx="927.1" cy="526.1094" fill="#ADD1B2" rx="11" ry="11" style="stroke:#181818;stroke-width:1.0;"/><path d="M929.8656,521.9844 Q930.0219,521.7656 930.2094,521.6563 Q930.3969,521.5469 930.6156,521.5469 Q930.9906,521.5469 931.225,521.8125 Q931.4594,522.0625 931.4594,522.6719 L931.4594,524.125 Q931.4594,524.7344 931.225,525 Q930.9906,525.2656 930.6156,525.2656 Q930.2719,525.2656 930.0688,525.0625 Q929.8656,524.875 929.7563,524.3594 Q929.7094,524 929.5219,523.8125 Q929.1938,523.4375 928.5844,523.2188 Q927.975,523 927.35,523 Q926.5844,523 925.9438,523.3281 Q925.3188,523.6563 924.8188,524.4063 Q924.3344,525.1563 924.3344,526.1875 L924.3344,527.2813 Q924.3344,528.5156 925.225,529.3438 Q926.1156,530.1563 927.7094,530.1563 Q928.6469,530.1563 929.3031,529.9063 Q929.6938,529.75 930.1156,529.3125 Q930.3813,529.0469 930.5219,528.9688 Q930.6781,528.8906 930.8813,528.8906 Q931.2094,528.8906 931.4594,529.1563 Q931.725,529.4063 931.725,529.75 Q931.725,530.0938 931.3813,530.5 Q930.8813,531.0781 930.0844,531.4063 Q929.0063,531.8594 927.7094,531.8594 Q926.1938,531.8594 924.9906,531.2344 Q924.0063,530.7344 923.3188,529.6719 Q922.6313,528.5938 922.6313,527.3125 L922.6313,526.1563 Q922.6313,524.8281 923.2406,523.6875 Q923.8656,522.5313 924.9594,521.9219 Q926.0531,521.2969 927.2875,521.2969 Q928.0219,521.2969 928.6625,521.4688 Q929.3188,521.625 929.8656,521.9844 Z " fill="#000000"/><text fill="#000000" font-family="sans-serif" font-size="14" lengthAdjust="spacing" textLength="76" x="943.9" y="531.8379">Stakeholder</text><line style="stroke:#181818;stroke-width:0.5;" x1="900.5" x2="1034.5" y1="542.1094" y2="542.1094"/><rect fill="none" height="6" style="stroke:#C82930;stroke-width:1.0;" width="6" x="907.5" y="553.4141"/><text fill="#000000" font-family="sans-serif" font-size="14" lengthAdjust="spacing" textLength="46" x="919.5" y="560.6426">UUID id</text><rect fill="none" height="6" style="stroke:#C82930;stroke-width:1.0;" width="6" x="907.5" y="571.0234"/><text fill="#000000" font-family="sans-serif" font-size="14" lengthAdjust="spacing" textLength="76" x="919.5" y="578.252">String name</text><rect fill="none" height="6" style="stroke:#C82930;stroke-width:1.0;" width="6" x="907.5" y="588.6328"/><text fill="#000000" font-family="sans-serif" font-size="14" lengthAdjust="spacing" textLength="110" x="919.5" y="595.8613">String description</text><line style="stroke:#181818;stroke-width:0.5;" x1="900.5" x2="1034.5" y1="602.9375" y2="602.9375"/></g><!--class Document--><g id="elem_Document"><rect codeLine="79" fill="#F1F1F1" height="118.4375" id="Document" rx="2.5" ry="2.5" style="stroke:#181818;stroke-width:0.5;" width="132" x="1070.5" y="501.6094"/><ellipse cx="1101.7" cy="517.6094" fill="#ADD1B2" rx="11" ry="11" style="stroke:#181818;stroke-width:1.0;"/><path d="M1104.4656,513.4844 Q1104.6219,513.2656 1104.8094,513.1563 Q1104.9969,513.0469 1105.2156,513.0469 Q1105.5906,513.0469 1105.825,513.3125 Q1106.0594,513.5625 1106.0594,514.1719 L1106.0594,515.625 Q1106.0594,516.2344 1105.825,516.5 Q1105.5906,516.7656 1105.2156,516.7656 Q1104.8719,516.7656 1104.6688,516.5625 Q1104.4656,516.375 1104.3563,515.8594 Q1104.3094,515.5 1104.1219,515.3125 Q1103.7938,514.9375 1103.1844,514.7188 Q1102.575,514.5 1101.95,514.5 Q1101.1844,514.5 1100.5438,514.8281 Q1099.9188,515.1563 1099.4188,515.9063 Q1098.9344,516.6563 1098.9344,517.6875 L1098.9344,518.7813 Q1098.9344,520.0156 1099.825,520.8438 Q1100.7156,521.6563 1102.3094,521.6563 Q1103.2469,521.6563 1103.9031,521.4063 Q1104.2938,521.25 1104.7156,520.8125 Q1104.9813,520.5469 1105.1219,520.4688 Q1105.2781,520.3906 1105.4813,520.3906 Q1105.8094,520.3906 1106.0594,520.6563 Q1106.325,520.9063 1106.325,521.25 Q1106.325,521.5938 1105.9813,522 Q1105.4813,522.5781 1104.6844,522.9063 Q1103.6063,523.3594 1102.3094,523.3594 Q1100.7938,523.3594 1099.5906,522.7344 Q1098.6063,522.2344 1097.9188,521.1719 Q1097.2313,520.0938 1097.2313,518.8125 L1097.2313,517.6563 Q1097.2313,516.3281 1097.8406,515.1875 Q1098.4656,514.0313 1099.5594,513.4219 Q1100.6531,512.7969 1101.8875,512.7969 Q1102.6219,512.7969 1103.2625,512.9688 Q1103.9188,513.125 1104.4656,513.4844 Z " fill="#000000"/><text fill="#000000" font-family="sans-serif" font-size="14" lengthAdjust="spacing" textLength="64" x="1119.3" y="523.3379">Document</text><line style="stroke:#181818;stroke-width:0.5;" x1="1071.5" x2="1201.5" y1="533.6094" y2="533.6094"/><rect fill="none" height="6" style="stroke:#C82930;stroke-width:1.0;" width="6" x="1078.5" y="544.9141"/><text fill="#000000" font-family="sans-serif" font-size="14" lengthAdjust="spacing" textLength="46" x="1090.5" y="552.1426">UUID id</text><rect fill="none" height="6" style="stroke:#C82930;stroke-width:1.0;" width="6" x="1078.5" y="562.5234"/><text fill="#000000" font-family="sans-serif" font-size="14" lengthAdjust="spacing" textLength="95" x="1090.5" y="569.752">String fileName</text><rect fill="none" height="6" style="stroke:#C82930;stroke-width:1.0;" width="6" x="1078.5" y="580.1328"/><text fill="#000000" font-family="sans-serif" font-size="14" lengthAdjust="spacing" textLength="106" x="1090.5" y="587.3613">String mimeType</text><rect fill="none" height="6" style="stroke:#C82930;stroke-width:1.0;" width="6" x="1078.5" y="597.7422"/><text fill="#000000" font-family="sans-serif" font-size="14" lengthAdjust="spacing" textLength="86" x="1090.5" y="604.9707">byte[] content</text><line style="stroke:#181818;stroke-width:0.5;" x1="1071.5" x2="1201.5" y1="612.0469" y2="612.0469"/></g><!--link Project to ProjectState--><g id="link_Project_ProjectState"><path codeLine="86" d="M385.36,153.3994 C328.23,175.5294 256.83,210.5894 207.5,260.6094 C139.66,329.3994 98.14,435.9294 77.51,501.5194 " fill="none" id="Project-ProjectState" style="stroke:#181818;stroke-width:1.0;stroke-dasharray:7.0,7.0;"/><text fill="#000000" font-family="sans-serif" font-size="13" lengthAdjust="spacing" textLength="7" x="370.357" y="152.8106">1</text><text fill="#000000" font-family="sans-serif" font-size="13" lengthAdjust="spacing" textLength="7" x="72.0347" y="490.8327">1</text></g><!--link Functionality to FunctionalityState--><g id="link_Functionality_FunctionalityState"><path codeLine="87" d="M262.41,396.6294 C241.46,424.0094 218.91,458.1794 205.5,492.6094 C177.89,563.5194 170.9,652.2994 169.43,706.7194 " fill="none" id="Functionality-FunctionalityState" style="stroke:#181818;stroke-width:1.0;stroke-dasharray:7.0,7.0;"/><text fill="#000000" font-family="sans-serif" font-size="13" lengthAdjust="spacing" textLength="7" x="248.5438" y="418.7059">1</text><text fill="#000000" font-family="sans-serif" font-size="13" lengthAdjust="spacing" textLength="7" x="161.9503" y="696.3363">1</text></g><!--link Requirement to RequirementState--><g id="link_Requirement_RequirementState"><path codeLine="88" d="M672.24,414.8494 C678.1,424.8294 683.98,434.9394 689.5,444.6094 C737.36,528.4194 790.5,626.1494 824.64,689.5894 " fill="none" id="Requirement-RequirementState" style="stroke:#181818;stroke-width:1.0;stroke-dasharray:7.0,7.0;"/><text fill="#000000" font-family="sans-serif" font-size="13" lengthAdjust="spacing" textLength="7" x="668.87" y="435.6997">1</text><text fill="#000000" font-family="sans-serif" font-size="13" lengthAdjust="spacing" textLength="7" x="813.335" y="678.7865">1</text></g><!--link Requirement to PriorityStyle--><g id="link_Requirement_PriorityStyle"><path codeLine="89" d="M651.95,414.6494 C659.32,439.2794 666.67,466.8794 671.5,492.6094 C686.19,570.8394 691.53,663.8994 693.45,716.0194 " fill="none" id="Requirement-PriorityStyle" style="stroke:#181818;stroke-width:1.0;stroke-dasharray:7.0,7.0;"/><text fill="#000000" font-family="sans-serif" font-size="13" lengthAdjust="spacing" textLength="7" x="646.9049" y="435.7493">1</text><text fill="#000000" font-family="sans-serif" font-size="13" lengthAdjust="spacing" textLength="7" x="685.6964" y="705.3121">1</text></g><!--link NonFunctionalRequirement to ComparisonOperator--><g id="link_NonFunctionalRequirement_ComparisonOperator"><path codeLine="90" d="M545.5,628.9994 C545.5,703.1194 545.5,820.4794 545.5,886.5994 " fill="none" id="NonFunctionalRequirement-ComparisonOperator" style="stroke:#181818;stroke-width:1.0;stroke-dasharray:7.0,7.0;"/><text fill="#000000" font-family="sans-serif" font-size="13" lengthAdjust="spacing" textLength="7" x="538.1391" y="650.3879">1</text><text fill="#000000" font-family="sans-serif" font-size="13" lengthAdjust="spacing" textLength="7" x="538.0078" y="875.9033">1</text></g><!--reverse link Project to Functionality--><g id="link_Project_Functionality"><path codeLine="92" d="M411.6623,209.3735 C391.4723,235.2735 376.64,254.3094 357.74,278.5594 " fill="none" id="Project-backto-Functionality" style="stroke:#181818;stroke-width:1.0;"/><polygon fill="#181818" points="419.04,199.9094,412.1965,202.1822,411.6623,209.3735,418.5059,207.1007,419.04,199.9094" style="stroke:#181818;stroke-width:1.0;"/><text fill="#000000" font-family="sans-serif" font-size="13" lengthAdjust="spacing" textLength="7" x="406.6294" y="220.7648">1</text><text fill="#000000" font-family="sans-serif" font-size="13" lengthAdjust="spacing" textLength="20" x="342.0349" y="267.8775">0..*</text></g><!--reverse link Project to NonFunctionalRequirement--><g id="link_Project_NonFunctionalRequirement"><path codeLine="93" d="M487.3671,211.7812 C493.6671,270.6412 502.28,342.0694 514.5,414.6094 C518.8,440.1194 524.5,467.9494 529.84,492.3394 " fill="none" id="Project-backto-NonFunctionalRequirement" style="stroke:#181818;stroke-width:1.0;"/><polygon fill="#181818" points="486.09,199.8494,482.7513,206.241,487.3671,211.7812,490.7058,205.3896,486.09,199.8494" style="stroke:#181818;stroke-width:1.0;"/><text fill="#000000" font-family="sans-serif" font-size="13" lengthAdjust="spacing" textLength="7" x="479.4415" y="220.6997">1</text><text fill="#000000" font-family="sans-serif" font-size="13" lengthAdjust="spacing" textLength="20" x="507.1938" y="481.9849">0..*</text></g><!--reverse link Project to Document--><g id="link_Project_Document"><path codeLine="94" d="M583.4263,135.446 C723.6763,153.076 967.23,192.3294 1025.5,260.6094 C1085.44,330.8394 1114.39,436.4394 1127.29,501.5294 " fill="none" id="Project-backto-Document" style="stroke:#181818;stroke-width:1.0;"/><polygon fill="#181818" points="571.52,133.9494,576.9743,138.6665,583.4263,135.446,577.972,130.7289,571.52,133.9494" style="stroke:#181818;stroke-width:1.0;"/><text fill="#000000" font-family="sans-serif" font-size="13" lengthAdjust="spacing" textLength="7" x="579.5131" y="149.0749">1</text><text fill="#000000" font-family="sans-serif" font-size="13" lengthAdjust="spacing" textLength="20" x="1104.9488" y="490.8439">0..*</text></g><!--reverse link Project to Stakeholder--><g id="link_Project_Stakeholder"><path codeLine="95" d="M583.52,137.0719 C715.27,155.8419 933.73,195.5294 983.5,260.6094 C1038.61,332.6594 1011.16,445.4094 988.09,509.8994 " fill="none" id="Project-backto-Stakeholder" style="stroke:#181818;stroke-width:1.0;"/><polygon fill="#181818" points="571.64,135.3794,577.0159,140.1856,583.52,137.0719,578.1442,132.2656,571.64,135.3794" style="stroke:#181818;stroke-width:1.0;"/><text fill="#000000" font-family="sans-serif" font-size="13" lengthAdjust="spacing" textLength="7" x="579.643" y="133.2983">1</text><text fill="#000000" font-family="sans-serif" font-size="13" lengthAdjust="spacing" textLength="20" x="969.5792" y="499.1752">0..*</text></g><!--reverse link Functionality to FunctionalRequirement--><g id="link_Functionality_FunctionalRequirement"><path codeLine="97" d="M312.5,408.6794 C312.5,447.1694 312.5,484.7194 312.5,519.0094 " fill="none" id="Functionality-backto-FunctionalRequirement" style="stroke:#181818;stroke-width:1.0;"/><polygon fill="#181818" points="312.5,396.6794,308.5,402.6794,312.5,408.6794,316.5,402.6794,312.5,396.6794" style="stroke:#181818;stroke-width:1.0;"/><text fill="#000000" font-family="sans-serif" font-size="13" lengthAdjust="spacing" textLength="7" x="305.0734" y="418.3434">1</text><text fill="#000000" font-family="sans-serif" font-size="13" lengthAdjust="spacing" textLength="20" x="290.8438" y="508.3005">0..*</text></g><!--reverse link Requirement to FunctionalRequirement--><g id="link_Requirement_FunctionalRequirement"><path codeLine="99" d="M517.1405,415.5796 C464.6005,452.5596 415.64,487.0194 370.46,518.8194 " fill="none" id="Requirement-backto-FunctionalRequirement" style="stroke:#181818;stroke-width:1.0;"/><polygon fill="none" points="531.86,405.2194,513.687,410.6731,520.5939,420.4862,531.86,405.2194" style="stroke:#181818;stroke-width:1.0;"/></g><!--reverse link Requirement to NonFunctionalRequirement--><g id="link_Requirement_NonFunctionalRequirement"><path codeLine="100" d="M592.4277,431.5707 C583.1877,456.7907 579.16,467.7694 570.18,492.2894 " fill="none" id="Requirement-backto-NonFunctionalRequirement" style="stroke:#181818;stroke-width:1.0;"/><polygon fill="none" points="598.62,414.6694,586.794,429.5067,598.0615,433.6348,598.62,414.6694" style="stroke:#181818;stroke-width:1.0;"/></g><!--link Requirement to Stakeholder--><g id="link_Requirement_Stakeholder"><path codeLine="102" d="M721.13,367.4594 C769.36,384.9994 827.21,410.6294 872.5,444.6094 C896.43,462.5594 918.1,487.7194 934.69,509.9294 " fill="none" id="Requirement-Stakeholder" style="stroke:#181818;stroke-width:1.0;"/><text fill="#000000" font-family="sans-serif" font-size="13" lengthAdjust="spacing" textLength="34" x="891.5" y="459.1045">linked</text><text fill="#000000" font-family="sans-serif" font-size="13" lengthAdjust="spacing" textLength="20" x="729.1407" y="383.879">0..*</text><text fill="#000000" font-family="sans-serif" font-size="13" lengthAdjust="spacing" textLength="20" x="908.6698" y="499.2094">0..*</text></g><!--reverse link Requirement to Requirement--><g id="link_Requirement_Requirement"><path codeLine="103" d="M733.0666,328.5473 C753.3266,329.5073 756,332.1494 756,337.6094 C756,343.0694 741.34,346.2794 721.08,347.2394 " fill="none" id="Requirement-backto-Requirement" style="stroke:#181818;stroke-width:1.0;"/><polygon fill="none" points="721.08,327.9794,726.884,332.2589,733.0666,328.5473,727.2626,324.2678,721.08,327.9794" style="stroke:#181818;stroke-width:1.0;"/><text fill="#000000" font-family="sans-serif" font-size="13" lengthAdjust="spacing" textLength="79" x="762" y="343.1045">(Parent/Child)</text><text fill="#000000" font-family="sans-serif" font-size="13" lengthAdjust="spacing" textLength="7" x="728.8958" y="341.3723">1</text><text fill="#000000" font-family="sans-serif" font-size="13" lengthAdjust="spacing" textLength="20" x="729.0869" y="362.1109">0..*</text></g><!--link Requirement to Requirement--><g id="link_Requirement_Requirement"><path codeLine="104" d="M721.24,318.9194 C782.89,314.8994 847,321.1294 847,337.6094 C847,354.0894 782.89,360.3194 721.24,356.2994 " fill="none" id="Requirement-Requirement" style="stroke:#181818;stroke-width:1.0;"/><text fill="#000000" font-family="sans-serif" font-size="13" lengthAdjust="spacing" textLength="106" x="853" y="343.1045">crossed trazability</text><text fill="#000000" font-family="sans-serif" font-size="13" lengthAdjust="spacing" textLength="20" x="728.9318" y="314.48">0..*</text><text fill="#000000" font-family="sans-serif" font-size="13" lengthAdjust="spacing" textLength="20" x="728.9318" y="371.7801">0..*</text></g><!--link Requirement to Document--><g id="link_Requirement_Document"><path codeLine="105" d="M721.25,361.8794 C810.83,386.3494 947,430.0294 1053.5,492.6094 C1059.09,495.8894 1064.7,499.5294 1070.22,503.3694 " fill="none" id="Requirement-Document" style="stroke:#181818;stroke-width:1.0;"/><text fill="#000000" font-family="sans-serif" font-size="13" lengthAdjust="spacing" textLength="34" x="988.5" y="459.1045">linked</text><text fill="#000000" font-family="sans-serif" font-size="13" lengthAdjust="spacing" textLength="20" x="729.3234" y="364.8791">0..*</text><text fill="#000000" font-family="sans-serif" font-size="13" lengthAdjust="spacing" textLength="20" x="1042.3536" y="494.1322">0..*</text></g><!--SRC=[fLHDZvim4BtpAwoSsfMIjjTLBooGtKXPI86aggegSc2Qk35sQaohTDl_NWSCCG7INJK7CkDvyy5xOoIH5D0TJlR0KkHGdEV89NWhS7R7HGh2uPGBom9MP6WX21T47YDvL4bF5bA_s0jzE_nKsez1v0GVhJyDd7-3H4OIonfjE_5ivPNcTERFeWVFBHtNAoDshFtGUmnMogvBJGkMIC8PfcNxteB_gX72zu88o82rHbfulZlpxzVsOX46AtlU7QwAF7DIXsS7B4ZEMN00WIKNke_tOMdFrt5GEdClYjRnW-sNtdtegNfXTQ0A9QKCcZwTFaRBvSn59DLU90LXMyHm1ksJ5F94aCE9BHreotOmlGPXA9MVdZemvmcchl9ZaW5A12WpjULvo9OmBnsLuWrGVTIZS3M8QeKtkHHOKL7rD8GSw3Yb74jKxkyAqm9UpbbdMKnMxZYdW1aY-KBT6bKWX1y4VlQnqZUhRbeBqJvLVJRanC6vci_PimfcWFEY2YqPaJhOiv1S6nhXycAZ5aFk1EGxJbEJiZg6nHPaJq2fKc1Q1Pg15MDxE5K2yJ_RszHpUL9SKLkdVYKK_4x1J2rkV3pKfvkZXCzVKCAPL0LFBUfhDdetGfF9fFmtxuFLNd4JrjrPovJ7X5xkqo2mTLcjGUdDbAx2xRUw6O_HwEraSdCnyIMeGGrr7Koe1He461jXzH3QEw7Pk4NN-z_Z0TWbQl15slHNdNkdHRU84hQ7j2COF-FDq2rwjS12MM-S7Q7fw-kTsfc9u7aEAL8Vkr_rL-1gUdCncYd_0W00]--></g></svg>