<?xml version="1.0" encoding="us-ascii" standalone="no"?><svg xmlns="http://www.w3.org/2000/svg" xmlns:xlink="http://www.w3.org/1999/xlink" contentStyleType="text/css" height="1064px" preserveAspectRatio="none" style="width:1240px;height:1064px;background:#FFFFFF;" version="1.1" viewBox="0 0 1240 1064" width="1240px" zoomAndPan="magnify"><defs/><g><text fill="#000000" font-family="sans-serif" font-size="14" font-weight="bold" lengthAdjust="spacing" textLength="251" x="487.75" y="24.5332">Backend Class DiagramBorderColor</text><!--class PriorityStyle--><g id="elem_PriorityStyle"><rect codeLine="3" fill="#F1F1F1" height="83.2188" id="PriorityStyle" rx="2.5" ry="2.5" style="stroke:#181818;stroke-width:0.5;" width="107" x="650" y="786.1094"/><ellipse cx="665" cy="802.1094" fill="#EB937F" rx="11" ry="11" style="stroke:#181818;stroke-width:1.0;"/><path d="M663.8594,802.9063 L663.8594,805.4063 L668.1875,805.4063 L668.1875,804.4844 Q668.1875,803.875 668.4219,803.6094 Q668.6719,803.3438 669.0469,803.3438 Q669.4219,803.3438 669.6563,803.6094 Q669.8906,803.875 669.8906,804.4844 L669.8906,807.1094 L661.8906,807.1094 Q661.2656,807.1094 661,806.875 Q660.75,806.6406 660.75,806.25 Q660.75,805.875 661.0156,805.6406 Q661.2813,805.4063 661.8906,805.4063 L662.1563,805.4063 L662.1563,798.75 L661.8906,798.75 Q661.2656,798.75 661,798.5156 Q660.75,798.2813 660.75,797.8906 Q660.75,797.5156 661,797.2813 Q661.2656,797.0469 661.8906,797.0469 L669.5156,797.0469 L669.5156,799.6406 Q669.5156,800.25 669.2813,800.5156 Q669.0625,800.7656 668.6719,800.7656 Q668.2969,800.7656 668.0625,800.5156 Q667.8281,800.25 667.8281,799.6406 L667.8281,798.75 L663.8594,798.75 L663.8594,801.2031 L665.3438,801.2031 Q665.3438,800.5469 665.4688,800.3594 Q665.7344,799.9531 666.2031,799.9531 Q666.5781,799.9531 666.8125,800.2188 Q667.0469,800.4688 667.0469,801.0781 L667.0469,803.0469 Q667.0469,803.5938 666.9219,803.7813 Q666.6563,804.1719 666.2031,804.1719 Q665.7344,804.1719 665.4688,803.7656 Q665.3438,803.5781 665.3438,802.9063 L663.8594,802.9063 Z " fill="#000000"/><text fill="#000000" font-family="sans-serif" font-size="14" lengthAdjust="spacing" textLength="75" x="679" y="807.8379">PriorityStyle</text><line style="stroke:#181818;stroke-width:0.5;" x1="651" x2="756" y1="818.1094" y2="818.1094"/><text fill="#000000" font-family="sans-serif" font-size="14" lengthAdjust="spacing" textLength="65" x="656" y="836.6426">TERNARY</text><text fill="#000000" font-family="sans-serif" font-size="14" lengthAdjust="spacing" textLength="65" x="656" y="854.252">MOSCOW</text><line style="stroke:#181818;stroke-width:0.5;" x1="651" x2="756" y1="861.3281" y2="861.3281"/></g><!--class ProjectState--><g id="elem_ProjectState"><rect codeLine="8" fill="#F1F1F1" height="118.4375" id="ProjectState" rx="2.5" ry="2.5" style="stroke:#181818;stroke-width:0.5;" width="109" x="7" y="571.6094"/><ellipse cx="22" cy="587.6094" fill="#EB937F" rx="11" ry="11" style="stroke:#181818;stroke-width:1.0;"/><path d="M20.8594,588.4063 L20.8594,590.9063 L25.1875,590.9063 L25.1875,589.9844 Q25.1875,589.375 25.4219,589.1094 Q25.6719,588.8438 26.0469,588.8438 Q26.4219,588.8438 26.6563,589.1094 Q26.8906,589.375 26.8906,589.9844 L26.8906,592.6094 L18.8906,592.6094 Q18.2656,592.6094 18,592.375 Q17.75,592.1406 17.75,591.75 Q17.75,591.375 18.0156,591.1406 Q18.2813,590.9063 18.8906,590.9063 L19.1563,590.9063 L19.1563,584.25 L18.8906,584.25 Q18.2656,584.25 18,584.0156 Q17.75,583.7813 17.75,583.3906 Q17.75,583.0156 18,582.7813 Q18.2656,582.5469 18.8906,582.5469 L26.5156,582.5469 L26.5156,585.1406 Q26.5156,585.75 26.2813,586.0156 Q26.0625,586.2656 25.6719,586.2656 Q25.2969,586.2656 25.0625,586.0156 Q24.8281,585.75 24.8281,585.1406 L24.8281,584.25 L20.8594,584.25 L20.8594,586.7031 L22.3438,586.7031 Q22.3438,586.0469 22.4688,585.8594 Q22.7344,585.4531 23.2031,585.4531 Q23.5781,585.4531 23.8125,585.7188 Q24.0469,585.9688 24.0469,586.5781 L24.0469,588.5469 Q24.0469,589.0938 23.9219,589.2813 Q23.6563,589.6719 23.2031,589.6719 Q22.7344,589.6719 22.4688,589.2656 Q22.3438,589.0781 22.3438,588.4063 L20.8594,588.4063 Z " fill="#000000"/><text fill="#000000" font-family="sans-serif" font-size="14" lengthAdjust="spacing" textLength="77" x="36" y="593.3379">ProjectState</text><line style="stroke:#181818;stroke-width:0.5;" x1="8" x2="115" y1="603.6094" y2="603.6094"/><text fill="#000000" font-family="sans-serif" font-size="14" lengthAdjust="spacing" textLength="49" x="13" y="622.1426">ACTIVE</text><text fill="#000000" font-family="sans-serif" font-size="14" lengthAdjust="spacing" textLength="61" x="13" y="639.752">FINISHED</text><text fill="#000000" font-family="sans-serif" font-size="14" lengthAdjust="spacing" textLength="96" x="13" y="657.3613">DEACTIVATED</text><text fill="#000000" font-family="sans-serif" font-size="14" lengthAdjust="spacing" textLength="69" x="13" y="674.9707">REMOVED</text><line style="stroke:#181818;stroke-width:0.5;" x1="8" x2="115" y1="682.0469" y2="682.0469"/></g><!--class FunctionalityState--><g id="elem_FunctionalityState"><rect codeLine="15" fill="#F1F1F1" height="100.8281" id="FunctionalityState" rx="2.5" ry="2.5" style="stroke:#181818;stroke-width:0.5;" width="145" x="97" y="777.1094"/><ellipse cx="112" cy="793.1094" fill="#EB937F" rx="11" ry="11" style="stroke:#181818;stroke-width:1.0;"/><path d="M110.8594,793.9063 L110.8594,796.4063 L115.1875,796.4063 L115.1875,795.4844 Q115.1875,794.875 115.4219,794.6094 Q115.6719,794.3438 116.0469,794.3438 Q116.4219,794.3438 116.6563,794.6094 Q116.8906,794.875 116.8906,795.4844 L116.8906,798.1094 L108.8906,798.1094 Q108.2656,798.1094 108,797.875 Q107.75,797.6406 107.75,797.25 Q107.75,796.875 108.0156,796.6406 Q108.2813,796.4063 108.8906,796.4063 L109.1563,796.4063 L109.1563,789.75 L108.8906,789.75 Q108.2656,789.75 108,789.5156 Q107.75,789.2813 107.75,788.8906 Q107.75,788.5156 108,788.2813 Q108.2656,788.0469 108.8906,788.0469 L116.5156,788.0469 L116.5156,790.6406 Q116.5156,791.25 116.2813,791.5156 Q116.0625,791.7656 115.6719,791.7656 Q115.2969,791.7656 115.0625,791.5156 Q114.8281,791.25 114.8281,790.6406 L114.8281,789.75 L110.8594,789.75 L110.8594,792.2031 L112.3438,792.2031 Q112.3438,791.5469 112.4688,791.3594 Q112.7344,790.9531 113.2031,790.9531 Q113.5781,790.9531 113.8125,791.2188 Q114.0469,791.4688 114.0469,792.0781 L114.0469,794.0469 Q114.0469,794.5938 113.9219,794.7813 Q113.6563,795.1719 113.2031,795.1719 Q112.7344,795.1719 112.4688,794.7656 Q112.3438,794.5781 112.3438,793.9063 L110.8594,793.9063 Z " fill="#000000"/><text fill="#000000" font-family="sans-serif" font-size="14" lengthAdjust="spacing" textLength="113" x="126" y="798.8379">FunctionalityState</text><line style="stroke:#181818;stroke-width:0.5;" x1="98" x2="241" y1="809.1094" y2="809.1094"/><text fill="#000000" font-family="sans-serif" font-size="14" lengthAdjust="spacing" textLength="49" x="103" y="827.6426">ACTIVE</text><text fill="#000000" font-family="sans-serif" font-size="14" lengthAdjust="spacing" textLength="96" x="103" y="845.252">DEACTIVATED</text><text fill="#000000" font-family="sans-serif" font-size="14" lengthAdjust="spacing" textLength="69" x="103" y="862.8613">REMOVED</text><line style="stroke:#181818;stroke-width:0.5;" x1="98" x2="241" y1="869.9375" y2="869.9375"/></g><!--class RequirementState--><g id="elem_RequirementState"><rect codeLine="21" fill="#F1F1F1" height="136.0469" id="RequirementState" rx="2.5" ry="2.5" style="stroke:#181818;stroke-width:0.5;" width="154" x="792.5" y="759.6094"/><ellipse cx="811.1" cy="775.6094" fill="#EB937F" rx="11" ry="11" style="stroke:#181818;stroke-width:1.0;"/><path d="M809.9594,776.4063 L809.9594,778.9063 L814.2875,778.9063 L814.2875,777.9844 Q814.2875,777.375 814.5219,777.1094 Q814.7719,776.8438 815.1469,776.8438 Q815.5219,776.8438 815.7563,777.1094 Q815.9906,777.375 815.9906,777.9844 L815.9906,780.6094 L807.9906,780.6094 Q807.3656,780.6094 807.1,780.375 Q806.85,780.1406 806.85,779.75 Q806.85,779.375 807.1156,779.1406 Q807.3813,778.9063 807.9906,778.9063 L808.2563,778.9063 L808.2563,772.25 L807.9906,772.25 Q807.3656,772.25 807.1,772.0156 Q806.85,771.7813 806.85,771.3906 Q806.85,771.0156 807.1,770.7813 Q807.3656,770.5469 807.9906,770.5469 L815.6156,770.5469 L815.6156,773.1406 Q815.6156,773.75 815.3813,774.0156 Q815.1625,774.2656 814.7719,774.2656 Q814.3969,774.2656 814.1625,774.0156 Q813.9281,773.75 813.9281,773.1406 L813.9281,772.25 L809.9594,772.25 L809.9594,774.7031 L811.4438,774.7031 Q811.4438,774.0469 811.5688,773.8594 Q811.8344,773.4531 812.3031,773.4531 Q812.6781,773.4531 812.9125,773.7188 Q813.1469,773.9688 813.1469,774.5781 L813.1469,776.5469 Q813.1469,777.0938 813.0219,777.2813 Q812.7563,777.6719 812.3031,777.6719 Q811.8344,777.6719 811.5688,777.2656 Q811.4438,777.0781 811.4438,776.4063 L809.9594,776.4063 Z " fill="#000000"/><text fill="#000000" font-family="sans-serif" font-size="14" lengthAdjust="spacing" textLength="114" x="825.9" y="781.3379">RequirementState</text><line style="stroke:#181818;stroke-width:0.5;" x1="793.5" x2="945.5" y1="791.6094" y2="791.6094"/><text fill="#000000" font-family="sans-serif" font-size="14" lengthAdjust="spacing" textLength="142" x="798.5" y="810.1426">PENDING_APPROVAL</text><text fill="#000000" font-family="sans-serif" font-size="14" lengthAdjust="spacing" textLength="76" x="798.5" y="827.752">APPROVED</text><text fill="#000000" font-family="sans-serif" font-size="14" lengthAdjust="spacing" textLength="61" x="798.5" y="845.3613">FINISHED</text><text fill="#000000" font-family="sans-serif" font-size="14" lengthAdjust="spacing" textLength="96" x="798.5" y="862.9707">DEACTIVATED</text><text fill="#000000" font-family="sans-serif" font-size="14" lengthAdjust="spacing" textLength="69" x="798.5" y="880.5801">REMOVED</text><line style="stroke:#181818;stroke-width:0.5;" x1="793.5" x2="945.5" y1="887.6563" y2="887.6563"/></g><!--class ComparisonOperator--><g id="elem_ComparisonOperator"><rect codeLine="29" fill="#F1F1F1" height="100.8281" id="ComparisonOperator" rx="2.5" ry="2.5" style="stroke:#181818;stroke-width:0.5;" width="165" x="463" y="956.6094"/><ellipse cx="478" cy="972.6094" fill="#EB937F" rx="11" ry="11" style="stroke:#181818;stroke-width:1.0;"/><path d="M476.8594,973.4063 L476.8594,975.9063 L481.1875,975.9063 L481.1875,974.9844 Q481.1875,974.375 481.4219,974.1094 Q481.6719,973.8438 482.0469,973.8438 Q482.4219,973.8438 482.6563,974.1094 Q482.8906,974.375 482.8906,974.9844 L482.8906,977.6094 L474.8906,977.6094 Q474.2656,977.6094 474,977.375 Q473.75,977.1406 473.75,976.75 Q473.75,976.375 474.0156,976.1406 Q474.2813,975.9063 474.8906,975.9063 L475.1563,975.9063 L475.1563,969.25 L474.8906,969.25 Q474.2656,969.25 474,969.0156 Q473.75,968.7813 473.75,968.3906 Q473.75,968.0156 474,967.7813 Q474.2656,967.5469 474.8906,967.5469 L482.5156,967.5469 L482.5156,970.1406 Q482.5156,970.75 482.2813,971.0156 Q482.0625,971.2656 481.6719,971.2656 Q481.2969,971.2656 481.0625,971.0156 Q480.8281,970.75 480.8281,970.1406 L480.8281,969.25 L476.8594,969.25 L476.8594,971.7031 L478.3438,971.7031 Q478.3438,971.0469 478.4688,970.8594 Q478.7344,970.4531 479.2031,970.4531 Q479.5781,970.4531 479.8125,970.7188 Q480.0469,970.9688 480.0469,971.5781 L480.0469,973.5469 Q480.0469,974.0938 479.9219,974.2813 Q479.6563,974.6719 479.2031,974.6719 Q478.7344,974.6719 478.4688,974.2656 Q478.3438,974.0781 478.3438,973.4063 L476.8594,973.4063 Z " fill="#000000"/><text fill="#000000" font-family="sans-serif" font-size="14" lengthAdjust="spacing" textLength="133" x="492" y="978.3379">ComparisonOperator</text><line style="stroke:#181818;stroke-width:0.5;" x1="464" x2="627" y1="988.6094" y2="988.6094"/><text fill="#000000" font-family="sans-serif" font-size="14" lengthAdjust="spacing" textLength="74" x="469" y="1007.1426">EQUAL_TO</text><text fill="#000000" font-family="sans-serif" font-size="14" lengthAdjust="spacing" textLength="79" x="469" y="1024.752">LESS_THAN</text><text fill="#000000" font-family="sans-serif" font-size="14" lengthAdjust="spacing" textLength="111" x="469" y="1042.3613">GREATER_THAN</text><line style="stroke:#181818;stroke-width:0.5;" x1="464" x2="627" y1="1049.4375" y2="1049.4375"/></g><!--class Project--><g id="elem_Project"><rect codeLine="35" fill="#F1F1F1" height="224.0938" id="Project" rx="2.5" ry="2.5" style="stroke:#181818;stroke-width:0.5;" width="389" x="309" y="45.6094"/><ellipse cx="477.25" cy="61.6094" fill="#ADD1B2" rx="11" ry="11" style="stroke:#181818;stroke-width:1.0;"/><path d="M480.0156,57.4844 Q480.1719,57.2656 480.3594,57.1563 Q480.5469,57.0469 480.7656,57.0469 Q481.1406,57.0469 481.375,57.3125 Q481.6094,57.5625 481.6094,58.1719 L481.6094,59.625 Q481.6094,60.2344 481.375,60.5 Q481.1406,60.7656 480.7656,60.7656 Q480.4219,60.7656 480.2188,60.5625 Q480.0156,60.375 479.9063,59.8594 Q479.8594,59.5 479.6719,59.3125 Q479.3438,58.9375 478.7344,58.7188 Q478.125,58.5 477.5,58.5 Q476.7344,58.5 476.0938,58.8281 Q475.4688,59.1563 474.9688,59.9063 Q474.4844,60.6563 474.4844,61.6875 L474.4844,62.7813 Q474.4844,64.0156 475.375,64.8438 Q476.2656,65.6563 477.8594,65.6563 Q478.7969,65.6563 479.4531,65.4063 Q479.8438,65.25 480.2656,64.8125 Q480.5313,64.5469 480.6719,64.4688 Q480.8281,64.3906 481.0313,64.3906 Q481.3594,64.3906 481.6094,64.6563 Q481.875,64.9063 481.875,65.25 Q481.875,65.5938 481.5313,66 Q481.0313,66.5781 480.2344,66.9063 Q479.1563,67.3594 477.8594,67.3594 Q476.3438,67.3594 475.1406,66.7344 Q474.1563,66.2344 473.4688,65.1719 Q472.7813,64.0938 472.7813,62.8125 L472.7813,61.6563 Q472.7813,60.3281 473.3906,59.1875 Q474.0156,58.0313 475.1094,57.4219 Q476.2031,56.7969 477.4375,56.7969 Q478.1719,56.7969 478.8125,56.9688 Q479.4688,57.125 480.0156,57.4844 Z " fill="#000000"/><text fill="#000000" font-family="sans-serif" font-size="14" lengthAdjust="spacing" textLength="44" x="497.75" y="67.3379">Project</text><line style="stroke:#181818;stroke-width:0.5;" x1="310" x2="697" y1="77.6094" y2="77.6094"/><rect fill="none" height="6" style="stroke:#C82930;stroke-width:1.0;" width="6" x="317" y="88.9141"/><text fill="#000000" font-family="sans-serif" font-size="14" lengthAdjust="spacing" textLength="46" x="329" y="96.1426">UUID id</text><rect fill="none" height="6" style="stroke:#C82930;stroke-width:1.0;" width="6" x="317" y="106.5234"/><text fill="#000000" font-family="sans-serif" font-size="14" lengthAdjust="spacing" textLength="76" x="329" y="113.752">String name</text><rect fill="none" height="6" style="stroke:#C82930;stroke-width:1.0;" width="6" x="317" y="124.1328"/><text fill="#000000" font-family="sans-serif" font-size="14" lengthAdjust="spacing" textLength="110" x="329" y="131.3613">String description</text><rect fill="none" height="6" style="stroke:#C82930;stroke-width:1.0;" width="6" x="317" y="141.7422"/><text fill="#000000" font-family="sans-serif" font-size="14" lengthAdjust="spacing" textLength="153" x="329" y="148.9707">PriorityStyle priorityStyle</text><rect fill="none" height="6" style="stroke:#C82930;stroke-width:1.0;" width="6" x="317" y="159.3516"/><text fill="#000000" font-family="sans-serif" font-size="14" lengthAdjust="spacing" textLength="112" x="329" y="166.5801">ProjectState state</text><rect fill="none" height="6" style="stroke:#C82930;stroke-width:1.0;" width="6" x="317" y="176.9609"/><text fill="#000000" font-family="sans-serif" font-size="14" lengthAdjust="spacing" textLength="160" x="329" y="184.1895">LocalDateTime createdAt</text><rect fill="none" height="6" style="stroke:#C82930;stroke-width:1.0;" width="6" x="317" y="194.5703"/><text fill="#000000" font-family="sans-serif" font-size="14" lengthAdjust="spacing" textLength="178" x="329" y="201.7988">Functionality[] functionalities</text><rect fill="none" height="6" style="stroke:#C82930;stroke-width:1.0;" width="6" x="317" y="212.1797"/><text fill="#000000" font-family="sans-serif" font-size="14" lengthAdjust="spacing" textLength="363" x="329" y="219.4082">NonFunctionalRequirement[] NonFunctionalRequirements</text><rect fill="none" height="6" style="stroke:#C82930;stroke-width:1.0;" width="6" x="317" y="229.7891"/><text fill="#000000" font-family="sans-serif" font-size="14" lengthAdjust="spacing" textLength="169" x="329" y="237.0176">Stakeholder[] stakeholders</text><rect fill="none" height="6" style="stroke:#C82930;stroke-width:1.0;" width="6" x="317" y="247.3984"/><text fill="#000000" font-family="sans-serif" font-size="14" lengthAdjust="spacing" textLength="145" x="329" y="254.627">Document[] documents</text><line style="stroke:#181818;stroke-width:0.5;" x1="310" x2="697" y1="261.7031" y2="261.7031"/></g><!--class Functionality--><g id="elem_Functionality"><rect codeLine="48" fill="#F1F1F1" height="136.0469" id="Functionality" rx="2.5" ry="2.5" style="stroke:#181818;stroke-width:0.5;" width="273" x="176" y="339.6094"/><ellipse cx="268.25" cy="355.6094" fill="#ADD1B2" rx="11" ry="11" style="stroke:#181818;stroke-width:1.0;"/><path d="M271.0156,351.4844 Q271.1719,351.2656 271.3594,351.1563 Q271.5469,351.0469 271.7656,351.0469 Q272.1406,351.0469 272.375,351.3125 Q272.6094,351.5625 272.6094,352.1719 L272.6094,353.625 Q272.6094,354.2344 272.375,354.5 Q272.1406,354.7656 271.7656,354.7656 Q271.4219,354.7656 271.2188,354.5625 Q271.0156,354.375 270.9063,353.8594 Q270.8594,353.5 270.6719,353.3125 Q270.3438,352.9375 269.7344,352.7188 Q269.125,352.5 268.5,352.5 Q267.7344,352.5 267.0938,352.8281 Q266.4688,353.1563 265.9688,353.9063 Q265.4844,354.6563 265.4844,355.6875 L265.4844,356.7813 Q265.4844,358.0156 266.375,358.8438 Q267.2656,359.6563 268.8594,359.6563 Q269.7969,359.6563 270.4531,359.4063 Q270.8438,359.25 271.2656,358.8125 Q271.5313,358.5469 271.6719,358.4688 Q271.8281,358.3906 272.0313,358.3906 Q272.3594,358.3906 272.6094,358.6563 Q272.875,358.9063 272.875,359.25 Q272.875,359.5938 272.5313,360 Q272.0313,360.5781 271.2344,360.9063 Q270.1563,361.3594 268.8594,361.3594 Q267.3438,361.3594 266.1406,360.7344 Q265.1563,360.2344 264.4688,359.1719 Q263.7813,358.0938 263.7813,356.8125 L263.7813,355.6563 Q263.7813,354.3281 264.3906,353.1875 Q265.0156,352.0313 266.1094,351.4219 Q267.2031,350.7969 268.4375,350.7969 Q269.1719,350.7969 269.8125,350.9688 Q270.4688,351.125 271.0156,351.4844 Z " fill="#000000"/><text fill="#000000" font-family="sans-serif" font-size="14" lengthAdjust="spacing" textLength="80" x="288.75" y="361.3379">Functionality</text><line style="stroke:#181818;stroke-width:0.5;" x1="177" x2="448" y1="371.6094" y2="371.6094"/><rect fill="none" height="6" style="stroke:#C82930;stroke-width:1.0;" width="6" x="184" y="382.9141"/><text fill="#000000" font-family="sans-serif" font-size="14" lengthAdjust="spacing" textLength="46" x="196" y="390.1426">UUID id</text><rect fill="none" height="6" style="stroke:#C82930;stroke-width:1.0;" width="6" x="184" y="400.5234"/><text fill="#000000" font-family="sans-serif" font-size="14" lengthAdjust="spacing" textLength="76" x="196" y="407.752">String name</text><rect fill="none" height="6" style="stroke:#C82930;stroke-width:1.0;" width="6" x="184" y="418.1328"/><text fill="#000000" font-family="sans-serif" font-size="14" lengthAdjust="spacing" textLength="71" x="196" y="425.3613">String label</text><rect fill="none" height="6" style="stroke:#C82930;stroke-width:1.0;" width="6" x="184" y="435.7422"/><text fill="#000000" font-family="sans-serif" font-size="14" lengthAdjust="spacing" textLength="148" x="196" y="442.9707">FunctionalityState state</text><rect fill="none" height="6" style="stroke:#C82930;stroke-width:1.0;" width="6" x="184" y="453.3516"/><text fill="#000000" font-family="sans-serif" font-size="14" lengthAdjust="spacing" textLength="247" x="196" y="460.5801">FunctionalRequirement[] Requirements</text><line style="stroke:#181818;stroke-width:0.5;" x1="177" x2="448" y1="467.6563" y2="467.6563"/></g><!--class Requirement--><g id="elem_Requirement"><rect codeLine="56" fill="#F1F1F1" height="153.6563" id="Requirement" rx="2.5" ry="2.5" style="stroke:#181818;stroke-width:0.5;" width="189" x="557" y="330.6094"/><ellipse cx="606.75" cy="346.6094" fill="#A9DCDF" rx="11" ry="11" style="stroke:#181818;stroke-width:1.0;"/><path d="M608.9375,348.375 L604.7969,348.375 L604.375,349.4063 L604.7969,349.4063 Q605.4063,349.4063 605.6719,349.6406 Q605.9375,349.875 605.9375,350.2656 Q605.9375,350.6406 605.6719,350.875 Q605.4063,351.1094 604.7969,351.1094 L602.5,351.1094 Q601.8906,351.1094 601.6406,350.875 Q601.375,350.6406 601.375,350.25 Q601.375,349.875 601.6563,349.6406 Q601.9219,349.3906 602.5469,349.4063 L605.2188,342.75 L604.1094,342.75 Q603.5,342.75 603.2344,342.5156 Q602.9688,342.2813 602.9688,341.8906 Q602.9688,341.5156 603.2344,341.2813 Q603.5,341.0469 604.1094,341.0469 L607.7813,341.0469 L611.1719,349.4063 Q611.7656,349.4063 611.9531,349.5469 Q612.3438,349.8125 612.3438,350.2656 Q612.3438,350.6406 612.0781,350.875 Q611.8281,351.1094 611.2188,351.1094 L608.9219,351.1094 Q608.3125,351.1094 608.0469,350.875 Q607.7813,350.6406 607.7813,350.25 Q607.7813,349.875 608.0469,349.6406 Q608.3125,349.4063 608.9219,349.4063 L609.3438,349.4063 L608.9375,348.375 Z M608.2188,346.6719 L606.8594,343.2969 L605.4844,346.6719 L608.2188,346.6719 Z " fill="#000000"/><text fill="#000000" font-family="sans-serif" font-size="14" font-style="italic" lengthAdjust="spacing" textLength="81" x="627.25" y="352.3379">Requirement</text><line style="stroke:#181818;stroke-width:0.5;" x1="558" x2="745" y1="362.6094" y2="362.6094"/><rect fill="none" height="6" style="stroke:#C82930;stroke-width:1.0;" width="6" x="565" y="373.9141"/><text fill="#000000" font-family="sans-serif" font-size="14" lengthAdjust="spacing" textLength="46" x="577" y="381.1426">UUID id</text><rect fill="none" height="6" style="stroke:#C82930;stroke-width:1.0;" width="6" x="565" y="391.5234"/><text fill="#000000" font-family="sans-serif" font-size="14" lengthAdjust="spacing" textLength="106" x="577" y="398.752">Float orderValue</text><rect fill="none" height="6" style="stroke:#C82930;stroke-width:1.0;" width="6" x="565" y="409.1328"/><text fill="#000000" font-family="sans-serif" font-size="14" lengthAdjust="spacing" textLength="76" x="577" y="416.3613">String name</text><rect fill="none" height="6" style="stroke:#C82930;stroke-width:1.0;" width="6" x="565" y="426.7422"/><text fill="#000000" font-family="sans-serif" font-size="14" lengthAdjust="spacing" textLength="110" x="577" y="433.9707">String description</text><rect fill="none" height="6" style="stroke:#C82930;stroke-width:1.0;" width="6" x="565" y="444.3516"/><text fill="#000000" font-family="sans-serif" font-size="14" lengthAdjust="spacing" textLength="149" x="577" y="451.5801">RequirementState state</text><rect fill="none" height="6" style="stroke:#C82930;stroke-width:1.0;" width="6" x="565" y="461.9609"/><text fill="#000000" font-family="sans-serif" font-size="14" lengthAdjust="spacing" textLength="163" x="577" y="469.1895">Boolean isPendingReview</text><line style="stroke:#181818;stroke-width:0.5;" x1="558" x2="745" y1="476.2656" y2="476.2656"/></g><!--class FunctionalRequirement--><g id="elem_FunctionalRequirement"><rect codeLine="65" fill="#F1F1F1" height="83.2188" id="FunctionalRequirement" rx="2.5" ry="2.5" style="stroke:#181818;stroke-width:0.5;" width="179" x="223" y="589.1094"/><ellipse cx="238" cy="605.1094" fill="#ADD1B2" rx="11" ry="11" style="stroke:#181818;stroke-width:1.0;"/><path d="M240.7656,600.9844 Q240.9219,600.7656 241.1094,600.6563 Q241.2969,600.5469 241.5156,600.5469 Q241.8906,600.5469 242.125,600.8125 Q242.3594,601.0625 242.3594,601.6719 L242.3594,603.125 Q242.3594,603.7344 242.125,604 Q241.8906,604.2656 241.5156,604.2656 Q241.1719,604.2656 240.9688,604.0625 Q240.7656,603.875 240.6563,603.3594 Q240.6094,603 240.4219,602.8125 Q240.0938,602.4375 239.4844,602.2188 Q238.875,602 238.25,602 Q237.4844,602 236.8438,602.3281 Q236.2188,602.6563 235.7188,603.4063 Q235.2344,604.1563 235.2344,605.1875 L235.2344,606.2813 Q235.2344,607.5156 236.125,608.3438 Q237.0156,609.1563 238.6094,609.1563 Q239.5469,609.1563 240.2031,608.9063 Q240.5938,608.75 241.0156,608.3125 Q241.2813,608.0469 241.4219,607.9688 Q241.5781,607.8906 241.7813,607.8906 Q242.1094,607.8906 242.3594,608.1563 Q242.625,608.4063 242.625,608.75 Q242.625,609.0938 242.2813,609.5 Q241.7813,610.0781 240.9844,610.4063 Q239.9063,610.8594 238.6094,610.8594 Q237.0938,610.8594 235.8906,610.2344 Q234.9063,609.7344 234.2188,608.6719 Q233.5313,607.5938 233.5313,606.3125 L233.5313,605.1563 Q233.5313,603.8281 234.1406,602.6875 Q234.7656,601.5313 235.8594,600.9219 Q236.9531,600.2969 238.1875,600.2969 Q238.9219,600.2969 239.5625,600.4688 Q240.2188,600.625 240.7656,600.9844 Z " fill="#000000"/><text fill="#000000" font-family="sans-serif" font-size="14" lengthAdjust="spacing" textLength="147" x="252" y="610.8379">FunctionalRequirement</text><line style="stroke:#181818;stroke-width:0.5;" x1="224" x2="401" y1="621.1094" y2="621.1094"/><rect fill="none" height="6" style="stroke:#C82930;stroke-width:1.0;" width="6" x="231" y="632.4141"/><text fill="#000000" font-family="sans-serif" font-size="14" lengthAdjust="spacing" textLength="84" x="243" y="639.6426">String priority</text><rect fill="none" height="6" style="stroke:#C82930;stroke-width:1.0;" width="6" x="231" y="650.0234"/><text fill="#000000" font-family="sans-serif" font-size="14" lengthAdjust="spacing" textLength="88" x="243" y="657.252">String stability</text><line style="stroke:#181818;stroke-width:0.5;" x1="224" x2="401" y1="664.3281" y2="664.3281"/></g><!--class NonFunctionalRequirement--><g id="elem_NonFunctionalRequirement"><rect codeLine="70" fill="#F1F1F1" height="136.0469" id="NonFunctionalRequirement" rx="2.5" ry="2.5" style="stroke:#181818;stroke-width:0.5;" width="217" x="437" y="562.6094"/><ellipse cx="457.85" cy="578.6094" fill="#ADD1B2" rx="11" ry="11" style="stroke:#181818;stroke-width:1.0;"/><path d="M460.6156,574.4844 Q460.7719,574.2656 460.9594,574.1563 Q461.1469,574.0469 461.3656,574.0469 Q461.7406,574.0469 461.975,574.3125 Q462.2094,574.5625 462.2094,575.1719 L462.2094,576.625 Q462.2094,577.2344 461.975,577.5 Q461.7406,577.7656 461.3656,577.7656 Q461.0219,577.7656 460.8188,577.5625 Q460.6156,577.375 460.5063,576.8594 Q460.4594,576.5 460.2719,576.3125 Q459.9438,575.9375 459.3344,575.7188 Q458.725,575.5 458.1,575.5 Q457.3344,575.5 456.6938,575.8281 Q456.0688,576.1563 455.5688,576.9063 Q455.0844,577.6563 455.0844,578.6875 L455.0844,579.7813 Q455.0844,581.0156 455.975,581.8438 Q456.8656,582.6563 458.4594,582.6563 Q459.3969,582.6563 460.0531,582.4063 Q460.4438,582.25 460.8656,581.8125 Q461.1313,581.5469 461.2719,581.4688 Q461.4281,581.3906 461.6313,581.3906 Q461.9594,581.3906 462.2094,581.6563 Q462.475,581.9063 462.475,582.25 Q462.475,582.5938 462.1313,583 Q461.6313,583.5781 460.8344,583.9063 Q459.7563,584.3594 458.4594,584.3594 Q456.9438,584.3594 455.7406,583.7344 Q454.7563,583.2344 454.0688,582.1719 Q453.3813,581.0938 453.3813,579.8125 L453.3813,578.6563 Q453.3813,577.3281 453.9906,576.1875 Q454.6156,575.0313 455.7094,574.4219 Q456.8031,573.7969 458.0375,573.7969 Q458.7719,573.7969 459.4125,573.9688 Q460.0688,574.125 460.6156,574.4844 Z " fill="#000000"/><text fill="#000000" font-family="sans-serif" font-size="14" lengthAdjust="spacing" textLength="172" x="473.15" y="584.3379">NonFunctionalRequirement</text><line style="stroke:#181818;stroke-width:0.5;" x1="438" x2="653" y1="594.6094" y2="594.6094"/><rect fill="none" height="6" style="stroke:#C82930;stroke-width:1.0;" width="6" x="445" y="605.9141"/><text fill="#000000" font-family="sans-serif" font-size="14" lengthAdjust="spacing" textLength="151" x="457" y="613.1426">String measurementUnit</text><rect fill="none" height="6" style="stroke:#C82930;stroke-width:1.0;" width="6" x="445" y="623.5234"/><text fill="#000000" font-family="sans-serif" font-size="14" lengthAdjust="spacing" textLength="191" x="457" y="630.752">ComparisonOperator operator</text><rect fill="none" height="6" style="stroke:#C82930;stroke-width:1.0;" width="6" x="445" y="641.1328"/><text fill="#000000" font-family="sans-serif" font-size="14" lengthAdjust="spacing" textLength="144" x="457" y="648.3613">Double thresholdValue</text><rect fill="none" height="6" style="stroke:#C82930;stroke-width:1.0;" width="6" x="445" y="658.7422"/><text fill="#000000" font-family="sans-serif" font-size="14" lengthAdjust="spacing" textLength="122" x="457" y="665.9707">Double targetValue</text><rect fill="none" height="6" style="stroke:#C82930;stroke-width:1.0;" width="6" x="445" y="676.3516"/><text fill="#000000" font-family="sans-serif" font-size="14" lengthAdjust="spacing" textLength="123" x="457" y="683.5801">Double actualValue</text><line style="stroke:#181818;stroke-width:0.5;" x1="438" x2="653" y1="690.6563" y2="690.6563"/></g><!--class Stakeholder--><g id="elem_Stakeholder"><rect codeLine="78" fill="#F1F1F1" height="118.4375" id="Stakeholder" rx="2.5" ry="2.5" style="stroke:#181818;stroke-width:0.5;" width="136" x="918.5" y="571.6094"/><ellipse cx="946.1" cy="587.6094" fill="#ADD1B2" rx="11" ry="11" style="stroke:#181818;stroke-width:1.0;"/><path d="M948.8656,583.4844 Q949.0219,583.2656 949.2094,583.1563 Q949.3969,583.0469 949.6156,583.0469 Q949.9906,583.0469 950.225,583.3125 Q950.4594,583.5625 950.4594,584.1719 L950.4594,585.625 Q950.4594,586.2344 950.225,586.5 Q949.9906,586.7656 949.6156,586.7656 Q949.2719,586.7656 949.0688,586.5625 Q948.8656,586.375 948.7563,585.8594 Q948.7094,585.5 948.5219,585.3125 Q948.1938,584.9375 947.5844,584.7188 Q946.975,584.5 946.35,584.5 Q945.5844,584.5 944.9438,584.8281 Q944.3188,585.1563 943.8188,585.9063 Q943.3344,586.6563 943.3344,587.6875 L943.3344,588.7813 Q943.3344,590.0156 944.225,590.8438 Q945.1156,591.6563 946.7094,591.6563 Q947.6469,591.6563 948.3031,591.4063 Q948.6938,591.25 949.1156,590.8125 Q949.3813,590.5469 949.5219,590.4688 Q949.6781,590.3906 949.8813,590.3906 Q950.2094,590.3906 950.4594,590.6563 Q950.725,590.9063 950.725,591.25 Q950.725,591.5938 950.3813,592 Q949.8813,592.5781 949.0844,592.9063 Q948.0063,593.3594 946.7094,593.3594 Q945.1938,593.3594 943.9906,592.7344 Q943.0063,592.2344 942.3188,591.1719 Q941.6313,590.0938 941.6313,588.8125 L941.6313,587.6563 Q941.6313,586.3281 942.2406,585.1875 Q942.8656,584.0313 943.9594,583.4219 Q945.0531,582.7969 946.2875,582.7969 Q947.0219,582.7969 947.6625,582.9688 Q948.3188,583.125 948.8656,583.4844 Z " fill="#000000"/><text fill="#000000" font-family="sans-serif" font-size="14" lengthAdjust="spacing" textLength="76" x="962.9" y="593.3379">Stakeholder</text><line style="stroke:#181818;stroke-width:0.5;" x1="919.5" x2="1053.5" y1="603.6094" y2="603.6094"/><rect fill="none" height="6" style="stroke:#C82930;stroke-width:1.0;" width="6" x="926.5" y="614.9141"/><text fill="#000000" font-family="sans-serif" font-size="14" lengthAdjust="spacing" textLength="46" x="938.5" y="622.1426">UUID id</text><rect fill="none" height="6" style="stroke:#C82930;stroke-width:1.0;" width="6" x="926.5" y="632.5234"/><text fill="#000000" font-family="sans-serif" font-size="14" lengthAdjust="spacing" textLength="76" x="938.5" y="639.752">String name</text><rect fill="none" height="6" style="stroke:#C82930;stroke-width:1.0;" width="6" x="926.5" y="650.1328"/><text fill="#000000" font-family="sans-serif" font-size="14" lengthAdjust="spacing" textLength="110" x="938.5" y="657.3613">String description</text><rect fill="none" height="6" style="stroke:#C82930;stroke-width:1.0;" width="6" x="926.5" y="667.7422"/><text fill="#000000" font-family="sans-serif" font-size="14" lengthAdjust="spacing" textLength="68" x="938.5" y="674.9707">State state</text><line style="stroke:#181818;stroke-width:0.5;" x1="919.5" x2="1053.5" y1="682.0469" y2="682.0469"/></g><!--class Document--><g id="elem_Document"><rect codeLine="85" fill="#F1F1F1" height="118.4375" id="Document" rx="2.5" ry="2.5" style="stroke:#181818;stroke-width:0.5;" width="144" x="1089.5" y="571.6094"/><ellipse cx="1126.1" cy="587.6094" fill="#ADD1B2" rx="11" ry="11" style="stroke:#181818;stroke-width:1.0;"/><path d="M1128.8656,583.4844 Q1129.0219,583.2656 1129.2094,583.1563 Q1129.3969,583.0469 1129.6156,583.0469 Q1129.9906,583.0469 1130.225,583.3125 Q1130.4594,583.5625 1130.4594,584.1719 L1130.4594,585.625 Q1130.4594,586.2344 1130.225,586.5 Q1129.9906,586.7656 1129.6156,586.7656 Q1129.2719,586.7656 1129.0688,586.5625 Q1128.8656,586.375 1128.7563,585.8594 Q1128.7094,585.5 1128.5219,585.3125 Q1128.1938,584.9375 1127.5844,584.7188 Q1126.975,584.5 1126.35,584.5 Q1125.5844,584.5 1124.9438,584.8281 Q1124.3188,585.1563 1123.8188,585.9063 Q1123.3344,586.6563 1123.3344,587.6875 L1123.3344,588.7813 Q1123.3344,590.0156 1124.225,590.8438 Q1125.1156,591.6563 1126.7094,591.6563 Q1127.6469,591.6563 1128.3031,591.4063 Q1128.6938,591.25 1129.1156,590.8125 Q1129.3813,590.5469 1129.5219,590.4688 Q1129.6781,590.3906 1129.8813,590.3906 Q1130.2094,590.3906 1130.4594,590.6563 Q1130.725,590.9063 1130.725,591.25 Q1130.725,591.5938 1130.3813,592 Q1129.8813,592.5781 1129.0844,592.9063 Q1128.0063,593.3594 1126.7094,593.3594 Q1125.1938,593.3594 1123.9906,592.7344 Q1123.0063,592.2344 1122.3188,591.1719 Q1121.6313,590.0938 1121.6313,588.8125 L1121.6313,587.6563 Q1121.6313,586.3281 1122.2406,585.1875 Q1122.8656,584.0313 1123.9594,583.4219 Q1125.0531,582.7969 1126.2875,582.7969 Q1127.0219,582.7969 1127.6625,582.9688 Q1128.3188,583.125 1128.8656,583.4844 Z " fill="#000000"/><text fill="#000000" font-family="sans-serif" font-size="14" lengthAdjust="spacing" textLength="64" x="1144.9" y="593.3379">Document</text><line style="stroke:#181818;stroke-width:0.5;" x1="1090.5" x2="1232.5" y1="603.6094" y2="603.6094"/><rect fill="none" height="6" style="stroke:#C82930;stroke-width:1.0;" width="6" x="1097.5" y="614.9141"/><text fill="#000000" font-family="sans-serif" font-size="14" lengthAdjust="spacing" textLength="46" x="1109.5" y="622.1426">UUID id</text><rect fill="none" height="6" style="stroke:#C82930;stroke-width:1.0;" width="6" x="1097.5" y="632.5234"/><text fill="#000000" font-family="sans-serif" font-size="14" lengthAdjust="spacing" textLength="76" x="1109.5" y="639.752">String name</text><rect fill="none" height="6" style="stroke:#C82930;stroke-width:1.0;" width="6" x="1097.5" y="650.1328"/><text fill="#000000" font-family="sans-serif" font-size="14" lengthAdjust="spacing" textLength="118" x="1109.5" y="657.3613">String storagePath</text><rect fill="none" height="6" style="stroke:#C82930;stroke-width:1.0;" width="6" x="1097.5" y="667.7422"/><text fill="#000000" font-family="sans-serif" font-size="14" lengthAdjust="spacing" textLength="68" x="1109.5" y="674.9707">State state</text><line style="stroke:#181818;stroke-width:0.5;" x1="1090.5" x2="1232.5" y1="682.0469" y2="682.0469"/></g><!--link Project to ProjectState--><g id="link_Project_ProjectState"><path codeLine="92" d="M308.72,222.9194 C253.93,249.0094 198.46,284.2094 158.5,330.6094 C99.02,399.6694 75.87,505.8594 66.95,571.3594 " fill="none" id="Project-ProjectState" style="stroke:#181818;stroke-width:1.0;stroke-dasharray:7.0,7.0;"/><text fill="#000000" font-family="sans-serif" font-size="13" lengthAdjust="spacing" textLength="7" x="293.9747" y="222.6582">1</text><text fill="#000000" font-family="sans-serif" font-size="13" lengthAdjust="spacing" textLength="7" x="60.1877" y="560.6532">1</text></g><!--link Functionality to FunctionalityState--><g id="link_Functionality_FunctionalityState"><path codeLine="93" d="M255.45,475.9094 C236.6,501.5394 217.43,531.9694 205.5,562.6094 C177.89,633.5194 170.9,722.2994 169.43,776.7194 " fill="none" id="Functionality-FunctionalityState" style="stroke:#181818;stroke-width:1.0;stroke-dasharray:7.0,7.0;"/><text fill="#000000" font-family="sans-serif" font-size="13" lengthAdjust="spacing" textLength="7" x="242.2058" y="497.2886">1</text><text fill="#000000" font-family="sans-serif" font-size="13" lengthAdjust="spacing" textLength="7" x="161.9503" y="766.3363">1</text></g><!--link Requirement to RequirementState--><g id="link_Requirement_RequirementState"><path codeLine="94" d="M691.23,484.7894 C732.19,563.3194 795.42,684.5794 834.54,759.5794 " fill="none" id="Requirement-RequirementState" style="stroke:#181818;stroke-width:1.0;stroke-dasharray:7.0,7.0;"/><text fill="#000000" font-family="sans-serif" font-size="13" lengthAdjust="spacing" textLength="7" x="687.3435" y="505.6345">1</text><text fill="#000000" font-family="sans-serif" font-size="13" lengthAdjust="spacing" textLength="7" x="823.3334" y="748.7754">1</text></g><!--link Requirement to PriorityStyle--><g id="link_Requirement_PriorityStyle"><path codeLine="95" d="M661.55,484.9694 C664.77,509.7294 668.33,537.3294 671.5,562.6094 C681.42,641.6294 692.5,734.0294 698.67,785.8894 " fill="none" id="Requirement-PriorityStyle" style="stroke:#181818;stroke-width:1.0;stroke-dasharray:7.0,7.0;"/><text fill="#000000" font-family="sans-serif" font-size="13" lengthAdjust="spacing" textLength="7" x="655.1129" y="505.83">1</text><text fill="#000000" font-family="sans-serif" font-size="13" lengthAdjust="spacing" textLength="7" x="690.2903" y="775.1606">1</text></g><!--link NonFunctionalRequirement to ComparisonOperator--><g id="link_NonFunctionalRequirement_ComparisonOperator"><path codeLine="96" d="M545.5,698.9994 C545.5,773.1194 545.5,890.4794 545.5,956.5994 " fill="none" id="NonFunctionalRequirement-ComparisonOperator" style="stroke:#181818;stroke-width:1.0;stroke-dasharray:7.0,7.0;"/><text fill="#000000" font-family="sans-serif" font-size="13" lengthAdjust="spacing" textLength="7" x="538.1391" y="720.3879">1</text><text fill="#000000" font-family="sans-serif" font-size="13" lengthAdjust="spacing" textLength="7" x="538.0078" y="945.9033">1</text></g><!--reverse link Project to Functionality--><g id="link_Project_Functionality"><path codeLine="98" d="M410.4586,279.4171 C392.2086,303.1171 380.8,317.9294 364.29,339.3594 " fill="none" id="Project-backto-Functionality" style="stroke:#181818;stroke-width:1.0;"/><polygon fill="#181818" points="417.78,269.9094,410.9501,272.2228,410.4586,279.4171,417.2886,277.1037,417.78,269.9094" style="stroke:#181818;stroke-width:1.0;"/><text fill="#000000" font-family="sans-serif" font-size="13" lengthAdjust="spacing" textLength="7" x="405.0643" y="291.1195">1</text><text fill="#000000" font-family="sans-serif" font-size="13" lengthAdjust="spacing" textLength="20" x="348.8608" y="328.5313">0..*</text></g><!--reverse link Project to NonFunctionalRequirement--><g id="link_Project_NonFunctionalRequirement"><path codeLine="99" d="M514.4658,281.582 C522.5658,372.422 532.69,485.9794 539.5,562.2694 " fill="none" id="Project-backto-NonFunctionalRequirement" style="stroke:#181818;stroke-width:1.0;"/><polygon fill="#181818" points="513.4,269.6294,509.9487,275.9609,514.4658,281.582,517.9171,275.2504,513.4,269.6294" style="stroke:#181818;stroke-width:1.0;"/><text fill="#000000" font-family="sans-serif" font-size="13" lengthAdjust="spacing" textLength="7" x="506.83" y="291.197">1</text><text fill="#000000" font-family="sans-serif" font-size="13" lengthAdjust="spacing" textLength="20" x="517.85" y="551.9076">0..*</text></g><!--reverse link Project to Document--><g id="link_Project_Document"><path codeLine="100" d="M709.9114,197.1532 C806.5114,219.4932 911.31,250.7494 1008.5,299.6094 C1109.35,350.3094 1143.96,491.0994 1155.66,571.4494 " fill="none" id="Project-backto-Document" style="stroke:#181818;stroke-width:1.0;"/><polygon fill="#181818" points="698.22,194.4494,703.1644,199.6984,709.9114,197.1532,704.967,191.9041,698.22,194.4494" style="stroke:#181818;stroke-width:1.0;"/><text fill="#000000" font-family="sans-serif" font-size="13" lengthAdjust="spacing" textLength="7" x="705.963" y="193.0761">1</text><text fill="#000000" font-family="sans-serif" font-size="13" lengthAdjust="spacing" textLength="20" x="1133.7295" y="560.7541">0..*</text></g><!--reverse link Project to Stakeholder--><g id="link_Project_Stakeholder"><path codeLine="101" d="M710.0374,173.248 C820.3774,191.598 938.21,232.4194 1008.5,330.6094 C1058.94,401.0794 1034.46,506.3594 1011.18,571.3694 " fill="none" id="Project-backto-Stakeholder" style="stroke:#181818;stroke-width:1.0;"/><polygon fill="#181818" points="698.2,171.2794,703.4625,176.2095,710.0374,173.248,704.7749,168.3179,698.2,171.2794" style="stroke:#181818;stroke-width:1.0;"/><text fill="#000000" font-family="sans-serif" font-size="13" lengthAdjust="spacing" textLength="7" x="705.9422" y="169.001">1</text><text fill="#000000" font-family="sans-serif" font-size="13" lengthAdjust="spacing" textLength="20" x="992.9691" y="560.6644">0..*</text></g><!--reverse link Functionality to FunctionalRequirement--><g id="link_Functionality_FunctionalRequirement"><path codeLine="103" d="M312.5,487.8194 C312.5,524.7694 312.5,557.3994 312.5,589.0394 " fill="none" id="Functionality-backto-FunctionalRequirement" style="stroke:#181818;stroke-width:1.0;"/><polygon fill="#181818" points="312.5,475.8194,308.5,481.8194,312.5,487.8194,316.5,481.8194,312.5,475.8194" style="stroke:#181818;stroke-width:1.0;"/><text fill="#000000" font-family="sans-serif" font-size="13" lengthAdjust="spacing" textLength="7" x="305.1391" y="497.1894">1</text><text fill="#000000" font-family="sans-serif" font-size="13" lengthAdjust="spacing" textLength="20" x="290.8438" y="578.3355">0..*</text></g><!--reverse link Requirement to FunctionalRequirement--><g id="link_Requirement_FunctionalRequirement"><path codeLine="105" d="M541.5414,480.2897 C483.3614,518.2197 425.62,555.8694 374.71,589.0494 " fill="none" id="Requirement-backto-FunctionalRequirement" style="stroke:#181818;stroke-width:1.0;"/><polygon fill="none" points="556.62,470.4594,538.2646,475.2635,544.8182,485.3159,556.62,470.4594" style="stroke:#181818;stroke-width:1.0;"/></g><!--reverse link Requirement to NonFunctionalRequirement--><g id="link_Requirement_NonFunctionalRequirement"><path codeLine="106" d="M607.2338,500.8982 C595.1338,526.1182 589.55,537.7694 577.79,562.2894 " fill="none" id="Requirement-backto-NonFunctionalRequirement" style="stroke:#181818;stroke-width:1.0;"/><polygon fill="none" points="615.02,484.6694,601.8242,498.3028,612.6434,503.4936,615.02,484.6694" style="stroke:#181818;stroke-width:1.0;"/></g><!--link Requirement to Stakeholder--><g id="link_Requirement_Stakeholder"><path codeLine="108" d="M746.13,438.7394 C792.7,456.3594 848.02,481.6794 891.5,514.6094 C912.35,530.3994 931.54,551.6294 947.13,571.5494 " fill="none" id="Requirement-Stakeholder" style="stroke:#181818;stroke-width:1.0;"/><text fill="#000000" font-family="sans-serif" font-size="13" lengthAdjust="spacing" textLength="34" x="910.5" y="529.1045">linked</text><text fill="#000000" font-family="sans-serif" font-size="13" lengthAdjust="spacing" textLength="20" x="754.1407" y="455.257">0..*</text><text fill="#000000" font-family="sans-serif" font-size="13" lengthAdjust="spacing" textLength="20" x="921.113" y="560.8663">0..*</text></g><!--reverse link Requirement to Requirement--><g id="link_Requirement_Requirement"><path codeLine="109" d="M758.0666,398.5473 C778.3266,399.5073 781,402.1494 781,407.6094 C781,413.0694 766.34,416.2794 746.08,417.2394 " fill="none" id="Requirement-backto-Requirement" style="stroke:#181818;stroke-width:1.0;"/><polygon fill="none" points="746.08,397.9794,751.884,402.2589,758.0666,398.5473,752.2626,394.2678,746.08,397.9794" style="stroke:#181818;stroke-width:1.0;"/><text fill="#000000" font-family="sans-serif" font-size="13" lengthAdjust="spacing" textLength="79" x="787" y="413.1045">(Parent/Child)</text><text fill="#000000" font-family="sans-serif" font-size="13" lengthAdjust="spacing" textLength="7" x="753.8958" y="411.3723">1</text><text fill="#000000" font-family="sans-serif" font-size="13" lengthAdjust="spacing" textLength="20" x="754.0869" y="432.1109">0..*</text></g><!--link Requirement to Requirement--><g id="link_Requirement_Requirement"><path codeLine="110" d="M746.24,388.9194 C807.89,384.8994 872,391.1294 872,407.6094 C872,424.0894 807.89,430.3194 746.24,426.2994 " fill="none" id="Requirement-Requirement" style="stroke:#181818;stroke-width:1.0;"/><text fill="#000000" font-family="sans-serif" font-size="13" lengthAdjust="spacing" textLength="106" x="878" y="413.1045">crossed trazability</text><text fill="#000000" font-family="sans-serif" font-size="13" lengthAdjust="spacing" textLength="20" x="753.9318" y="384.48">0..*</text><text fill="#000000" font-family="sans-serif" font-size="13" lengthAdjust="spacing" textLength="20" x="753.9318" y="441.7801">0..*</text></g><!--link Requirement to Document--><g id="link_Requirement_Document"><path codeLine="111" d="M746.07,433.5294 C834.01,458.8994 966.97,502.9794 1072.5,562.6094 C1078.14,565.7994 1083.83,569.2994 1089.46,572.9794 " fill="none" id="Requirement-Document" style="stroke:#181818;stroke-width:1.0;"/><text fill="#000000" font-family="sans-serif" font-size="13" lengthAdjust="spacing" textLength="34" x="1007.5" y="529.1045">linked</text><text fill="#000000" font-family="sans-serif" font-size="13" lengthAdjust="spacing" textLength="20" x="754.0838" y="437.0757">0..*</text><text fill="#000000" font-family="sans-serif" font-size="13" lengthAdjust="spacing" textLength="20" x="1061.3842" y="564.0098">0..*</text></g><!--SRC=[fLJVRvim47xdhx3oj5LAjhrMUw61j95IO40oJTCKEN1Bl1YSsMPJr-r_dqCCiGDqYjQ7z8xxxkTtPqaa1NI7ipsKEPfIB0Jo2DvoNDmndWEVCiguuq1P5IZYX74YdnBvf9oU7QJ-KZyEtFXJBJ-6oJJywFnfuUmRP3AHM3PeTvhELtujpkR1F7dmlLhn_DhYfbgF_STmfUGcrAmgCqbOYMcTlZVWlsB4yBqY70eehP8YF_3cmVtQZQ8uNBcBKzXQqO6kgdJAYWFcHB0oF037ad6Tn_-mT1VhDAoLXPyaw_J13MhjFlPLlFZqGGNAQXhq-BJx62sNSm-HN6k9vAJSeX8NO7_9GMIS78xJqWQRjeEfjGY3AN7yrOO5op3rb9wI0b36GOcvAxNLOkNp5_JLq0a8ZGfOUGOQ92Y78PDeMy9xs36gzb2XnLbh01xBAXqhrw8uJz2gxzevKhm1sjTeTqf3xLaTgQhmHaYE5QMdyWppG74poh14zHskCAtWUkuxIs_MVSSO1LmY8Y9r_If033y8_EmRO5-jEccpKFPNbMT3ZkCwHnjY-p9W0LXK9zEo9CsozHmMqqAx3DL6BRZSSH37DJ57rjWmtuBiCIXMAanFXhPWO_t-_mhDyRSPclszDhnGNUCjH5Zk-iCtZyVetGXD9fFwltdbZdqR9goxx8v9bWcztAv1eFK4EOEBOBfq-RQxkXcFqUZjP79pKV4bg4KDPHrqQCWP11ZxuVGCjBT2Cx4rhlU_1nwI3cgm4NlyfyozrQ9RH4cvXxn363lZJTCjUXLXhgGtqnsX-UkNCzcU6MT2G8xKq_UhUHDUT6-FegtoBm00]--></g></svg>