<?xml version="1.0" encoding="us-ascii" standalone="no"?><svg xmlns="http://www.w3.org/2000/svg" xmlns:xlink="http://www.w3.org/1999/xlink" contentStyleType="text/css" height="867px" preserveAspectRatio="none" style="width:1286px;height:867px;background:#FFFFFF;" version="1.1" viewBox="0 0 1286 867" width="1286px" zoomAndPan="magnify"><defs/><g><text fill="#000000" font-family="sans-serif" font-size="14" font-weight="bold" lengthAdjust="spacing" textLength="251" x="510.75" y="24.5332">Backend Class DiagramBorderColor</text><!--class PriorityStyle--><g id="elem_PriorityStyle"><rect codeLine="3" fill="#F1F1F1" height="83.2188" id="PriorityStyle" rx="2.5" ry="2.5" style="stroke:#181818;stroke-width:0.5;" width="107" x="259" y="519.1094"/><ellipse cx="274" cy="535.1094" fill="#EB937F" rx="11" ry="11" style="stroke:#181818;stroke-width:1.0;"/><path d="M272.8594,535.9063 L272.8594,538.4063 L277.1875,538.4063 L277.1875,537.4844 Q277.1875,536.875 277.4219,536.6094 Q277.6719,536.3438 278.0469,536.3438 Q278.4219,536.3438 278.6563,536.6094 Q278.8906,536.875 278.8906,537.4844 L278.8906,540.1094 L270.8906,540.1094 Q270.2656,540.1094 270,539.875 Q269.75,539.6406 269.75,539.25 Q269.75,538.875 270.0156,538.6406 Q270.2813,538.4063 270.8906,538.4063 L271.1563,538.4063 L271.1563,531.75 L270.8906,531.75 Q270.2656,531.75 270,531.5156 Q269.75,531.2813 269.75,530.8906 Q269.75,530.5156 270,530.2813 Q270.2656,530.0469 270.8906,530.0469 L278.5156,530.0469 L278.5156,532.6406 Q278.5156,533.25 278.2813,533.5156 Q278.0625,533.7656 277.6719,533.7656 Q277.2969,533.7656 277.0625,533.5156 Q276.8281,533.25 276.8281,532.6406 L276.8281,531.75 L272.8594,531.75 L272.8594,534.2031 L274.3438,534.2031 Q274.3438,533.5469 274.4688,533.3594 Q274.7344,532.9531 275.2031,532.9531 Q275.5781,532.9531 275.8125,533.2188 Q276.0469,533.4688 276.0469,534.0781 L276.0469,536.0469 Q276.0469,536.5938 275.9219,536.7813 Q275.6563,537.1719 275.2031,537.1719 Q274.7344,537.1719 274.4688,536.7656 Q274.3438,536.5781 274.3438,535.9063 L272.8594,535.9063 Z " fill="#000000"/><text fill="#000000" font-family="sans-serif" font-size="14" lengthAdjust="spacing" textLength="75" x="288" y="540.8379">PriorityStyle</text><line style="stroke:#181818;stroke-width:0.5;" x1="260" x2="365" y1="551.1094" y2="551.1094"/><text fill="#000000" font-family="sans-serif" font-size="14" lengthAdjust="spacing" textLength="65" x="265" y="569.6426">TERNARY</text><text fill="#000000" font-family="sans-serif" font-size="14" lengthAdjust="spacing" textLength="65" x="265" y="587.252">MOSCOW</text><line style="stroke:#181818;stroke-width:0.5;" x1="260" x2="365" y1="594.3281" y2="594.3281"/></g><!--class ProjectState--><g id="elem_ProjectState"><rect codeLine="8" fill="#F1F1F1" height="118.4375" id="ProjectState" rx="2.5" ry="2.5" style="stroke:#181818;stroke-width:0.5;" width="109" x="782" y="278.6094"/><ellipse cx="797" cy="294.6094" fill="#EB937F" rx="11" ry="11" style="stroke:#181818;stroke-width:1.0;"/><path d="M795.8594,295.4063 L795.8594,297.9063 L800.1875,297.9063 L800.1875,296.9844 Q800.1875,296.375 800.4219,296.1094 Q800.6719,295.8438 801.0469,295.8438 Q801.4219,295.8438 801.6563,296.1094 Q801.8906,296.375 801.8906,296.9844 L801.8906,299.6094 L793.8906,299.6094 Q793.2656,299.6094 793,299.375 Q792.75,299.1406 792.75,298.75 Q792.75,298.375 793.0156,298.1406 Q793.2813,297.9063 793.8906,297.9063 L794.1563,297.9063 L794.1563,291.25 L793.8906,291.25 Q793.2656,291.25 793,291.0156 Q792.75,290.7813 792.75,290.3906 Q792.75,290.0156 793,289.7813 Q793.2656,289.5469 793.8906,289.5469 L801.5156,289.5469 L801.5156,292.1406 Q801.5156,292.75 801.2813,293.0156 Q801.0625,293.2656 800.6719,293.2656 Q800.2969,293.2656 800.0625,293.0156 Q799.8281,292.75 799.8281,292.1406 L799.8281,291.25 L795.8594,291.25 L795.8594,293.7031 L797.3438,293.7031 Q797.3438,293.0469 797.4688,292.8594 Q797.7344,292.4531 798.2031,292.4531 Q798.5781,292.4531 798.8125,292.7188 Q799.0469,292.9688 799.0469,293.5781 L799.0469,295.5469 Q799.0469,296.0938 798.9219,296.2813 Q798.6563,296.6719 798.2031,296.6719 Q797.7344,296.6719 797.4688,296.2656 Q797.3438,296.0781 797.3438,295.4063 L795.8594,295.4063 Z " fill="#000000"/><text fill="#000000" font-family="sans-serif" font-size="14" lengthAdjust="spacing" textLength="77" x="811" y="300.3379">ProjectState</text><line style="stroke:#181818;stroke-width:0.5;" x1="783" x2="890" y1="310.6094" y2="310.6094"/><text fill="#000000" font-family="sans-serif" font-size="14" lengthAdjust="spacing" textLength="49" x="788" y="329.1426">ACTIVE</text><text fill="#000000" font-family="sans-serif" font-size="14" lengthAdjust="spacing" textLength="61" x="788" y="346.752">FINISHED</text><text fill="#000000" font-family="sans-serif" font-size="14" lengthAdjust="spacing" textLength="96" x="788" y="364.3613">DEACTIVATED</text><text fill="#000000" font-family="sans-serif" font-size="14" lengthAdjust="spacing" textLength="69" x="788" y="381.9707">REMOVED</text><line style="stroke:#181818;stroke-width:0.5;" x1="783" x2="890" y1="389.0469" y2="389.0469"/></g><!--class FunctionalityState--><g id="elem_FunctionalityState"><rect codeLine="15" fill="#F1F1F1" height="100.8281" id="FunctionalityState" rx="2.5" ry="2.5" style="stroke:#181818;stroke-width:0.5;" width="145" x="895" y="733.1094"/><ellipse cx="910" cy="749.1094" fill="#EB937F" rx="11" ry="11" style="stroke:#181818;stroke-width:1.0;"/><path d="M908.8594,749.9063 L908.8594,752.4063 L913.1875,752.4063 L913.1875,751.4844 Q913.1875,750.875 913.4219,750.6094 Q913.6719,750.3438 914.0469,750.3438 Q914.4219,750.3438 914.6563,750.6094 Q914.8906,750.875 914.8906,751.4844 L914.8906,754.1094 L906.8906,754.1094 Q906.2656,754.1094 906,753.875 Q905.75,753.6406 905.75,753.25 Q905.75,752.875 906.0156,752.6406 Q906.2813,752.4063 906.8906,752.4063 L907.1563,752.4063 L907.1563,745.75 L906.8906,745.75 Q906.2656,745.75 906,745.5156 Q905.75,745.2813 905.75,744.8906 Q905.75,744.5156 906,744.2813 Q906.2656,744.0469 906.8906,744.0469 L914.5156,744.0469 L914.5156,746.6406 Q914.5156,747.25 914.2813,747.5156 Q914.0625,747.7656 913.6719,747.7656 Q913.2969,747.7656 913.0625,747.5156 Q912.8281,747.25 912.8281,746.6406 L912.8281,745.75 L908.8594,745.75 L908.8594,748.2031 L910.3438,748.2031 Q910.3438,747.5469 910.4688,747.3594 Q910.7344,746.9531 911.2031,746.9531 Q911.5781,746.9531 911.8125,747.2188 Q912.0469,747.4688 912.0469,748.0781 L912.0469,750.0469 Q912.0469,750.5938 911.9219,750.7813 Q911.6563,751.1719 911.2031,751.1719 Q910.7344,751.1719 910.4688,750.7656 Q910.3438,750.5781 910.3438,749.9063 L908.8594,749.9063 Z " fill="#000000"/><text fill="#000000" font-family="sans-serif" font-size="14" lengthAdjust="spacing" textLength="113" x="924" y="754.8379">FunctionalityState</text><line style="stroke:#181818;stroke-width:0.5;" x1="896" x2="1039" y1="765.1094" y2="765.1094"/><text fill="#000000" font-family="sans-serif" font-size="14" lengthAdjust="spacing" textLength="49" x="901" y="783.6426">ACTIVE</text><text fill="#000000" font-family="sans-serif" font-size="14" lengthAdjust="spacing" textLength="96" x="901" y="801.252">DEACTIVATED</text><text fill="#000000" font-family="sans-serif" font-size="14" lengthAdjust="spacing" textLength="69" x="901" y="818.8613">REMOVED</text><line style="stroke:#181818;stroke-width:0.5;" x1="896" x2="1039" y1="825.9375" y2="825.9375"/></g><!--class RequirementState--><g id="elem_RequirementState"><rect codeLine="21" fill="#F1F1F1" height="136.0469" id="RequirementState" rx="2.5" ry="2.5" style="stroke:#181818;stroke-width:0.5;" width="154" x="472.5" y="492.6094"/><ellipse cx="491.1" cy="508.6094" fill="#EB937F" rx="11" ry="11" style="stroke:#181818;stroke-width:1.0;"/><path d="M489.9594,509.4063 L489.9594,511.9063 L494.2875,511.9063 L494.2875,510.9844 Q494.2875,510.375 494.5219,510.1094 Q494.7719,509.8438 495.1469,509.8438 Q495.5219,509.8438 495.7563,510.1094 Q495.9906,510.375 495.9906,510.9844 L495.9906,513.6094 L487.9906,513.6094 Q487.3656,513.6094 487.1,513.375 Q486.85,513.1406 486.85,512.75 Q486.85,512.375 487.1156,512.1406 Q487.3813,511.9063 487.9906,511.9063 L488.2563,511.9063 L488.2563,505.25 L487.9906,505.25 Q487.3656,505.25 487.1,505.0156 Q486.85,504.7813 486.85,504.3906 Q486.85,504.0156 487.1,503.7813 Q487.3656,503.5469 487.9906,503.5469 L495.6156,503.5469 L495.6156,506.1406 Q495.6156,506.75 495.3813,507.0156 Q495.1625,507.2656 494.7719,507.2656 Q494.3969,507.2656 494.1625,507.0156 Q493.9281,506.75 493.9281,506.1406 L493.9281,505.25 L489.9594,505.25 L489.9594,507.7031 L491.4438,507.7031 Q491.4438,507.0469 491.5688,506.8594 Q491.8344,506.4531 492.3031,506.4531 Q492.6781,506.4531 492.9125,506.7188 Q493.1469,506.9688 493.1469,507.5781 L493.1469,509.5469 Q493.1469,510.0938 493.0219,510.2813 Q492.7563,510.6719 492.3031,510.6719 Q491.8344,510.6719 491.5688,510.2656 Q491.4438,510.0781 491.4438,509.4063 L489.9594,509.4063 Z " fill="#000000"/><text fill="#000000" font-family="sans-serif" font-size="14" lengthAdjust="spacing" textLength="114" x="505.9" y="514.3379">RequirementState</text><line style="stroke:#181818;stroke-width:0.5;" x1="473.5" x2="625.5" y1="524.6094" y2="524.6094"/><text fill="#000000" font-family="sans-serif" font-size="14" lengthAdjust="spacing" textLength="142" x="478.5" y="543.1426">PENDING_APPROVAL</text><text fill="#000000" font-family="sans-serif" font-size="14" lengthAdjust="spacing" textLength="61" x="478.5" y="560.752">FINISHED</text><text fill="#000000" font-family="sans-serif" font-size="14" lengthAdjust="spacing" textLength="76" x="478.5" y="578.3613">APPROVED</text><text fill="#000000" font-family="sans-serif" font-size="14" lengthAdjust="spacing" textLength="96" x="478.5" y="595.9707">DEACTIVATED</text><text fill="#000000" font-family="sans-serif" font-size="14" lengthAdjust="spacing" textLength="69" x="478.5" y="613.5801">REMOVED</text><line style="stroke:#181818;stroke-width:0.5;" x1="473.5" x2="625.5" y1="620.6563" y2="620.6563"/></g><!--class ComparisonOperator--><g id="elem_ComparisonOperator"><rect codeLine="29" fill="#F1F1F1" height="100.8281" id="ComparisonOperator" rx="2.5" ry="2.5" style="stroke:#181818;stroke-width:0.5;" width="165" x="33" y="733.1094"/><ellipse cx="48" cy="749.1094" fill="#EB937F" rx="11" ry="11" style="stroke:#181818;stroke-width:1.0;"/><path d="M46.8594,749.9063 L46.8594,752.4063 L51.1875,752.4063 L51.1875,751.4844 Q51.1875,750.875 51.4219,750.6094 Q51.6719,750.3438 52.0469,750.3438 Q52.4219,750.3438 52.6563,750.6094 Q52.8906,750.875 52.8906,751.4844 L52.8906,754.1094 L44.8906,754.1094 Q44.2656,754.1094 44,753.875 Q43.75,753.6406 43.75,753.25 Q43.75,752.875 44.0156,752.6406 Q44.2813,752.4063 44.8906,752.4063 L45.1563,752.4063 L45.1563,745.75 L44.8906,745.75 Q44.2656,745.75 44,745.5156 Q43.75,745.2813 43.75,744.8906 Q43.75,744.5156 44,744.2813 Q44.2656,744.0469 44.8906,744.0469 L52.5156,744.0469 L52.5156,746.6406 Q52.5156,747.25 52.2813,747.5156 Q52.0625,747.7656 51.6719,747.7656 Q51.2969,747.7656 51.0625,747.5156 Q50.8281,747.25 50.8281,746.6406 L50.8281,745.75 L46.8594,745.75 L46.8594,748.2031 L48.3438,748.2031 Q48.3438,747.5469 48.4688,747.3594 Q48.7344,746.9531 49.2031,746.9531 Q49.5781,746.9531 49.8125,747.2188 Q50.0469,747.4688 50.0469,748.0781 L50.0469,750.0469 Q50.0469,750.5938 49.9219,750.7813 Q49.6563,751.1719 49.2031,751.1719 Q48.7344,751.1719 48.4688,750.7656 Q48.3438,750.5781 48.3438,749.9063 L46.8594,749.9063 Z " fill="#000000"/><text fill="#000000" font-family="sans-serif" font-size="14" lengthAdjust="spacing" textLength="133" x="62" y="754.8379">ComparisonOperator</text><line style="stroke:#181818;stroke-width:0.5;" x1="34" x2="197" y1="765.1094" y2="765.1094"/><text fill="#000000" font-family="sans-serif" font-size="14" lengthAdjust="spacing" textLength="74" x="39" y="783.6426">EQUAL_TO</text><text fill="#000000" font-family="sans-serif" font-size="14" lengthAdjust="spacing" textLength="79" x="39" y="801.252">LESS_THAN</text><text fill="#000000" font-family="sans-serif" font-size="14" lengthAdjust="spacing" textLength="111" x="39" y="818.8613">GREATER_THAN</text><line style="stroke:#181818;stroke-width:0.5;" x1="34" x2="197" y1="825.9375" y2="825.9375"/></g><!--class Project--><g id="elem_Project"><rect codeLine="35" fill="#F1F1F1" height="153.6563" id="Project" rx="2.5" ry="2.5" style="stroke:#181818;stroke-width:0.5;" width="186" x="886.5" y="45.6094"/><ellipse cx="953.25" cy="61.6094" fill="#ADD1B2" rx="11" ry="11" style="stroke:#181818;stroke-width:1.0;"/><path d="M956.0156,57.4844 Q956.1719,57.2656 956.3594,57.1563 Q956.5469,57.0469 956.7656,57.0469 Q957.1406,57.0469 957.375,57.3125 Q957.6094,57.5625 957.6094,58.1719 L957.6094,59.625 Q957.6094,60.2344 957.375,60.5 Q957.1406,60.7656 956.7656,60.7656 Q956.4219,60.7656 956.2188,60.5625 Q956.0156,60.375 955.9063,59.8594 Q955.8594,59.5 955.6719,59.3125 Q955.3438,58.9375 954.7344,58.7188 Q954.125,58.5 953.5,58.5 Q952.7344,58.5 952.0938,58.8281 Q951.4688,59.1563 950.9688,59.9063 Q950.4844,60.6563 950.4844,61.6875 L950.4844,62.7813 Q950.4844,64.0156 951.375,64.8438 Q952.2656,65.6563 953.8594,65.6563 Q954.7969,65.6563 955.4531,65.4063 Q955.8438,65.25 956.2656,64.8125 Q956.5313,64.5469 956.6719,64.4688 Q956.8281,64.3906 957.0313,64.3906 Q957.3594,64.3906 957.6094,64.6563 Q957.875,64.9063 957.875,65.25 Q957.875,65.5938 957.5313,66 Q957.0313,66.5781 956.2344,66.9063 Q955.1563,67.3594 953.8594,67.3594 Q952.3438,67.3594 951.1406,66.7344 Q950.1563,66.2344 949.4688,65.1719 Q948.7813,64.0938 948.7813,62.8125 L948.7813,61.6563 Q948.7813,60.3281 949.3906,59.1875 Q950.0156,58.0313 951.1094,57.4219 Q952.2031,56.7969 953.4375,56.7969 Q954.1719,56.7969 954.8125,56.9688 Q955.4688,57.125 956.0156,57.4844 Z " fill="#000000"/><text fill="#000000" font-family="sans-serif" font-size="14" lengthAdjust="spacing" textLength="44" x="973.75" y="67.3379">Project</text><line style="stroke:#181818;stroke-width:0.5;" x1="887.5" x2="1071.5" y1="77.6094" y2="77.6094"/><rect fill="none" height="6" style="stroke:#C82930;stroke-width:1.0;" width="6" x="894.5" y="88.9141"/><text fill="#000000" font-family="sans-serif" font-size="14" lengthAdjust="spacing" textLength="42" x="906.5" y="96.1426">long id</text><rect fill="none" height="6" style="stroke:#C82930;stroke-width:1.0;" width="6" x="894.5" y="106.5234"/><text fill="#000000" font-family="sans-serif" font-size="14" lengthAdjust="spacing" textLength="76" x="906.5" y="113.752">String name</text><rect fill="none" height="6" style="stroke:#C82930;stroke-width:1.0;" width="6" x="894.5" y="124.1328"/><text fill="#000000" font-family="sans-serif" font-size="14" lengthAdjust="spacing" textLength="110" x="906.5" y="131.3613">String description</text><rect fill="none" height="6" style="stroke:#C82930;stroke-width:1.0;" width="6" x="894.5" y="141.7422"/><text fill="#000000" font-family="sans-serif" font-size="14" lengthAdjust="spacing" textLength="153" x="906.5" y="148.9707">PriorityStyle priorityStyle</text><rect fill="none" height="6" style="stroke:#C82930;stroke-width:1.0;" width="6" x="894.5" y="159.3516"/><text fill="#000000" font-family="sans-serif" font-size="14" lengthAdjust="spacing" textLength="112" x="906.5" y="166.5801">ProjectState state</text><rect fill="none" height="6" style="stroke:#C82930;stroke-width:1.0;" width="6" x="894.5" y="176.9609"/><text fill="#000000" font-family="sans-serif" font-size="14" lengthAdjust="spacing" textLength="160" x="906.5" y="184.1895">LocalDateTime createdAt</text><line style="stroke:#181818;stroke-width:0.5;" x1="887.5" x2="1071.5" y1="191.2656" y2="191.2656"/></g><!--class Functionality--><g id="elem_Functionality"><rect codeLine="44" fill="#F1F1F1" height="118.4375" id="Functionality" rx="2.5" ry="2.5" style="stroke:#181818;stroke-width:0.5;" width="174" x="999.5" y="501.6094"/><ellipse cx="1042.4" cy="517.6094" fill="#ADD1B2" rx="11" ry="11" style="stroke:#181818;stroke-width:1.0;"/><path d="M1045.1656,513.4844 Q1045.3219,513.2656 1045.5094,513.1563 Q1045.6969,513.0469 1045.9156,513.0469 Q1046.2906,513.0469 1046.525,513.3125 Q1046.7594,513.5625 1046.7594,514.1719 L1046.7594,515.625 Q1046.7594,516.2344 1046.525,516.5 Q1046.2906,516.7656 1045.9156,516.7656 Q1045.5719,516.7656 1045.3688,516.5625 Q1045.1656,516.375 1045.0563,515.8594 Q1045.0094,515.5 1044.8219,515.3125 Q1044.4938,514.9375 1043.8844,514.7188 Q1043.275,514.5 1042.65,514.5 Q1041.8844,514.5 1041.2438,514.8281 Q1040.6188,515.1563 1040.1188,515.9063 Q1039.6344,516.6563 1039.6344,517.6875 L1039.6344,518.7813 Q1039.6344,520.0156 1040.525,520.8438 Q1041.4156,521.6563 1043.0094,521.6563 Q1043.9469,521.6563 1044.6031,521.4063 Q1044.9938,521.25 1045.4156,520.8125 Q1045.6813,520.5469 1045.8219,520.4688 Q1045.9781,520.3906 1046.1813,520.3906 Q1046.5094,520.3906 1046.7594,520.6563 Q1047.025,520.9063 1047.025,521.25 Q1047.025,521.5938 1046.6813,522 Q1046.1813,522.5781 1045.3844,522.9063 Q1044.3063,523.3594 1043.0094,523.3594 Q1041.4938,523.3594 1040.2906,522.7344 Q1039.3063,522.2344 1038.6188,521.1719 Q1037.9313,520.0938 1037.9313,518.8125 L1037.9313,517.6563 Q1037.9313,516.3281 1038.5406,515.1875 Q1039.1656,514.0313 1040.2594,513.4219 Q1041.3531,512.7969 1042.5875,512.7969 Q1043.3219,512.7969 1043.9625,512.9688 Q1044.6188,513.125 1045.1656,513.4844 Z " fill="#000000"/><text fill="#000000" font-family="sans-serif" font-size="14" lengthAdjust="spacing" textLength="80" x="1062.6" y="523.3379">Functionality</text><line style="stroke:#181818;stroke-width:0.5;" x1="1000.5" x2="1172.5" y1="533.6094" y2="533.6094"/><rect fill="none" height="6" style="stroke:#C82930;stroke-width:1.0;" width="6" x="1007.5" y="544.9141"/><text fill="#000000" font-family="sans-serif" font-size="14" lengthAdjust="spacing" textLength="42" x="1019.5" y="552.1426">long id</text><rect fill="none" height="6" style="stroke:#C82930;stroke-width:1.0;" width="6" x="1007.5" y="562.5234"/><text fill="#000000" font-family="sans-serif" font-size="14" lengthAdjust="spacing" textLength="76" x="1019.5" y="569.752">String name</text><rect fill="none" height="6" style="stroke:#C82930;stroke-width:1.0;" width="6" x="1007.5" y="580.1328"/><text fill="#000000" font-family="sans-serif" font-size="14" lengthAdjust="spacing" textLength="71" x="1019.5" y="587.3613">String label</text><rect fill="none" height="6" style="stroke:#C82930;stroke-width:1.0;" width="6" x="1007.5" y="597.7422"/><text fill="#000000" font-family="sans-serif" font-size="14" lengthAdjust="spacing" textLength="148" x="1019.5" y="604.9707">FunctionalityState state</text><line style="stroke:#181818;stroke-width:0.5;" x1="1000.5" x2="1172.5" y1="612.0469" y2="612.0469"/></g><!--class Requirement--><g id="elem_Requirement"><rect codeLine="51" fill="#F1F1F1" height="153.6563" id="Requirement" rx="2.5" ry="2.5" style="stroke:#181818;stroke-width:0.5;" width="189" x="313" y="260.6094"/><ellipse cx="362.75" cy="276.6094" fill="#A9DCDF" rx="11" ry="11" style="stroke:#181818;stroke-width:1.0;"/><path d="M364.9375,278.375 L360.7969,278.375 L360.375,279.4063 L360.7969,279.4063 Q361.4063,279.4063 361.6719,279.6406 Q361.9375,279.875 361.9375,280.2656 Q361.9375,280.6406 361.6719,280.875 Q361.4063,281.1094 360.7969,281.1094 L358.5,281.1094 Q357.8906,281.1094 357.6406,280.875 Q357.375,280.6406 357.375,280.25 Q357.375,279.875 357.6563,279.6406 Q357.9219,279.3906 358.5469,279.4063 L361.2188,272.75 L360.1094,272.75 Q359.5,272.75 359.2344,272.5156 Q358.9688,272.2813 358.9688,271.8906 Q358.9688,271.5156 359.2344,271.2813 Q359.5,271.0469 360.1094,271.0469 L363.7813,271.0469 L367.1719,279.4063 Q367.7656,279.4063 367.9531,279.5469 Q368.3438,279.8125 368.3438,280.2656 Q368.3438,280.6406 368.0781,280.875 Q367.8281,281.1094 367.2188,281.1094 L364.9219,281.1094 Q364.3125,281.1094 364.0469,280.875 Q363.7813,280.6406 363.7813,280.25 Q363.7813,279.875 364.0469,279.6406 Q364.3125,279.4063 364.9219,279.4063 L365.3438,279.4063 L364.9375,278.375 Z M364.2188,276.6719 L362.8594,273.2969 L361.4844,276.6719 L364.2188,276.6719 Z " fill="#000000"/><text fill="#000000" font-family="sans-serif" font-size="14" font-style="italic" lengthAdjust="spacing" textLength="81" x="383.25" y="282.3379">Requirement</text><line style="stroke:#181818;stroke-width:0.5;" x1="314" x2="501" y1="292.6094" y2="292.6094"/><rect fill="none" height="6" style="stroke:#C82930;stroke-width:1.0;" width="6" x="321" y="303.9141"/><text fill="#000000" font-family="sans-serif" font-size="14" lengthAdjust="spacing" textLength="42" x="333" y="311.1426">long id</text><rect fill="none" height="6" style="stroke:#C82930;stroke-width:1.0;" width="6" x="321" y="321.5234"/><text fill="#000000" font-family="sans-serif" font-size="14" lengthAdjust="spacing" textLength="106" x="333" y="328.752">Float orderValue</text><rect fill="none" height="6" style="stroke:#C82930;stroke-width:1.0;" width="6" x="321" y="339.1328"/><text fill="#000000" font-family="sans-serif" font-size="14" lengthAdjust="spacing" textLength="76" x="333" y="346.3613">String name</text><rect fill="none" height="6" style="stroke:#C82930;stroke-width:1.0;" width="6" x="321" y="356.7422"/><text fill="#000000" font-family="sans-serif" font-size="14" lengthAdjust="spacing" textLength="110" x="333" y="363.9707">String description</text><rect fill="none" height="6" style="stroke:#C82930;stroke-width:1.0;" width="6" x="321" y="374.3516"/><text fill="#000000" font-family="sans-serif" font-size="14" lengthAdjust="spacing" textLength="149" x="333" y="381.5801">RequirementState state</text><rect fill="none" height="6" style="stroke:#C82930;stroke-width:1.0;" width="6" x="321" y="391.9609"/><text fill="#000000" font-family="sans-serif" font-size="14" lengthAdjust="spacing" textLength="163" x="333" y="399.1895">Boolean isPendingReview</text><line style="stroke:#181818;stroke-width:0.5;" x1="314" x2="501" y1="406.2656" y2="406.2656"/></g><!--class FunctionalRequirement--><g id="elem_FunctionalRequirement"><rect codeLine="60" fill="#F1F1F1" height="83.2188" id="FunctionalRequirement" rx="2.5" ry="2.5" style="stroke:#181818;stroke-width:0.5;" width="179" x="482" y="742.1094"/><ellipse cx="497" cy="758.1094" fill="#ADD1B2" rx="11" ry="11" style="stroke:#181818;stroke-width:1.0;"/><path d="M499.7656,753.9844 Q499.9219,753.7656 500.1094,753.6563 Q500.2969,753.5469 500.5156,753.5469 Q500.8906,753.5469 501.125,753.8125 Q501.3594,754.0625 501.3594,754.6719 L501.3594,756.125 Q501.3594,756.7344 501.125,757 Q500.8906,757.2656 500.5156,757.2656 Q500.1719,757.2656 499.9688,757.0625 Q499.7656,756.875 499.6563,756.3594 Q499.6094,756 499.4219,755.8125 Q499.0938,755.4375 498.4844,755.2188 Q497.875,755 497.25,755 Q496.4844,755 495.8438,755.3281 Q495.2188,755.6563 494.7188,756.4063 Q494.2344,757.1563 494.2344,758.1875 L494.2344,759.2813 Q494.2344,760.5156 495.125,761.3438 Q496.0156,762.1563 497.6094,762.1563 Q498.5469,762.1563 499.2031,761.9063 Q499.5938,761.75 500.0156,761.3125 Q500.2813,761.0469 500.4219,760.9688 Q500.5781,760.8906 500.7813,760.8906 Q501.1094,760.8906 501.3594,761.1563 Q501.625,761.4063 501.625,761.75 Q501.625,762.0938 501.2813,762.5 Q500.7813,763.0781 499.9844,763.4063 Q498.9063,763.8594 497.6094,763.8594 Q496.0938,763.8594 494.8906,763.2344 Q493.9063,762.7344 493.2188,761.6719 Q492.5313,760.5938 492.5313,759.3125 L492.5313,758.1563 Q492.5313,756.8281 493.1406,755.6875 Q493.7656,754.5313 494.8594,753.9219 Q495.9531,753.2969 497.1875,753.2969 Q497.9219,753.2969 498.5625,753.4688 Q499.2188,753.625 499.7656,753.9844 Z " fill="#000000"/><text fill="#000000" font-family="sans-serif" font-size="14" lengthAdjust="spacing" textLength="147" x="511" y="763.8379">FunctionalRequirement</text><line style="stroke:#181818;stroke-width:0.5;" x1="483" x2="660" y1="774.1094" y2="774.1094"/><rect fill="none" height="6" style="stroke:#C82930;stroke-width:1.0;" width="6" x="490" y="785.4141"/><text fill="#000000" font-family="sans-serif" font-size="14" lengthAdjust="spacing" textLength="84" x="502" y="792.6426">String priority</text><rect fill="none" height="6" style="stroke:#C82930;stroke-width:1.0;" width="6" x="490" y="803.0234"/><text fill="#000000" font-family="sans-serif" font-size="14" lengthAdjust="spacing" textLength="88" x="502" y="810.252">String stability</text><line style="stroke:#181818;stroke-width:0.5;" x1="483" x2="660" y1="817.3281" y2="817.3281"/></g><!--class NonFunctionalRequirement--><g id="elem_NonFunctionalRequirement"><rect codeLine="65" fill="#F1F1F1" height="136.0469" id="NonFunctionalRequirement" rx="2.5" ry="2.5" style="stroke:#181818;stroke-width:0.5;" width="217" x="7" y="492.6094"/><ellipse cx="27.85" cy="508.6094" fill="#ADD1B2" rx="11" ry="11" style="stroke:#181818;stroke-width:1.0;"/><path d="M30.6156,504.4844 Q30.7719,504.2656 30.9594,504.1563 Q31.1469,504.0469 31.3656,504.0469 Q31.7406,504.0469 31.975,504.3125 Q32.2094,504.5625 32.2094,505.1719 L32.2094,506.625 Q32.2094,507.2344 31.975,507.5 Q31.7406,507.7656 31.3656,507.7656 Q31.0219,507.7656 30.8188,507.5625 Q30.6156,507.375 30.5063,506.8594 Q30.4594,506.5 30.2719,506.3125 Q29.9438,505.9375 29.3344,505.7188 Q28.725,505.5 28.1,505.5 Q27.3344,505.5 26.6938,505.8281 Q26.0688,506.1563 25.5688,506.9063 Q25.0844,507.6563 25.0844,508.6875 L25.0844,509.7813 Q25.0844,511.0156 25.975,511.8438 Q26.8656,512.6563 28.4594,512.6563 Q29.3969,512.6563 30.0531,512.4063 Q30.4438,512.25 30.8656,511.8125 Q31.1313,511.5469 31.2719,511.4688 Q31.4281,511.3906 31.6313,511.3906 Q31.9594,511.3906 32.2094,511.6563 Q32.475,511.9063 32.475,512.25 Q32.475,512.5938 32.1313,513 Q31.6313,513.5781 30.8344,513.9063 Q29.7563,514.3594 28.4594,514.3594 Q26.9438,514.3594 25.7406,513.7344 Q24.7563,513.2344 24.0688,512.1719 Q23.3813,511.0938 23.3813,509.8125 L23.3813,508.6563 Q23.3813,507.3281 23.9906,506.1875 Q24.6156,505.0313 25.7094,504.4219 Q26.8031,503.7969 28.0375,503.7969 Q28.7719,503.7969 29.4125,503.9688 Q30.0688,504.125 30.6156,504.4844 Z " fill="#000000"/><text fill="#000000" font-family="sans-serif" font-size="14" lengthAdjust="spacing" textLength="172" x="43.15" y="514.3379">NonFunctionalRequirement</text><line style="stroke:#181818;stroke-width:0.5;" x1="8" x2="223" y1="524.6094" y2="524.6094"/><rect fill="none" height="6" style="stroke:#C82930;stroke-width:1.0;" width="6" x="15" y="535.9141"/><text fill="#000000" font-family="sans-serif" font-size="14" lengthAdjust="spacing" textLength="151" x="27" y="543.1426">String measurementUnit</text><rect fill="none" height="6" style="stroke:#C82930;stroke-width:1.0;" width="6" x="15" y="553.5234"/><text fill="#000000" font-family="sans-serif" font-size="14" lengthAdjust="spacing" textLength="191" x="27" y="560.752">ComparisonOperator operator</text><rect fill="none" height="6" style="stroke:#C82930;stroke-width:1.0;" width="6" x="15" y="571.1328"/><text fill="#000000" font-family="sans-serif" font-size="14" lengthAdjust="spacing" textLength="144" x="27" y="578.3613">Double thresholdValue</text><rect fill="none" height="6" style="stroke:#C82930;stroke-width:1.0;" width="6" x="15" y="588.7422"/><text fill="#000000" font-family="sans-serif" font-size="14" lengthAdjust="spacing" textLength="122" x="27" y="595.9707">Double targetValue</text><rect fill="none" height="6" style="stroke:#C82930;stroke-width:1.0;" width="6" x="15" y="606.3516"/><text fill="#000000" font-family="sans-serif" font-size="14" lengthAdjust="spacing" textLength="123" x="27" y="613.5801">Double actualValue</text><line style="stroke:#181818;stroke-width:0.5;" x1="8" x2="223" y1="620.6563" y2="620.6563"/></g><!--class Stakeholder--><g id="elem_Stakeholder"><rect codeLine="73" fill="#F1F1F1" height="100.8281" id="Stakeholder" rx="2.5" ry="2.5" style="stroke:#181818;stroke-width:0.5;" width="136" x="828.5" y="510.1094"/><ellipse cx="856.1" cy="526.1094" fill="#ADD1B2" rx="11" ry="11" style="stroke:#181818;stroke-width:1.0;"/><path d="M858.8656,521.9844 Q859.0219,521.7656 859.2094,521.6563 Q859.3969,521.5469 859.6156,521.5469 Q859.9906,521.5469 860.225,521.8125 Q860.4594,522.0625 860.4594,522.6719 L860.4594,524.125 Q860.4594,524.7344 860.225,525 Q859.9906,525.2656 859.6156,525.2656 Q859.2719,525.2656 859.0688,525.0625 Q858.8656,524.875 858.7563,524.3594 Q858.7094,524 858.5219,523.8125 Q858.1938,523.4375 857.5844,523.2188 Q856.975,523 856.35,523 Q855.5844,523 854.9438,523.3281 Q854.3188,523.6563 853.8188,524.4063 Q853.3344,525.1563 853.3344,526.1875 L853.3344,527.2813 Q853.3344,528.5156 854.225,529.3438 Q855.1156,530.1563 856.7094,530.1563 Q857.6469,530.1563 858.3031,529.9063 Q858.6938,529.75 859.1156,529.3125 Q859.3813,529.0469 859.5219,528.9688 Q859.6781,528.8906 859.8813,528.8906 Q860.2094,528.8906 860.4594,529.1563 Q860.725,529.4063 860.725,529.75 Q860.725,530.0938 860.3813,530.5 Q859.8813,531.0781 859.0844,531.4063 Q858.0063,531.8594 856.7094,531.8594 Q855.1938,531.8594 853.9906,531.2344 Q853.0063,530.7344 852.3188,529.6719 Q851.6313,528.5938 851.6313,527.3125 L851.6313,526.1563 Q851.6313,524.8281 852.2406,523.6875 Q852.8656,522.5313 853.9594,521.9219 Q855.0531,521.2969 856.2875,521.2969 Q857.0219,521.2969 857.6625,521.4688 Q858.3188,521.625 858.8656,521.9844 Z " fill="#000000"/><text fill="#000000" font-family="sans-serif" font-size="14" lengthAdjust="spacing" textLength="76" x="872.9" y="531.8379">Stakeholder</text><line style="stroke:#181818;stroke-width:0.5;" x1="829.5" x2="963.5" y1="542.1094" y2="542.1094"/><rect fill="none" height="6" style="stroke:#C82930;stroke-width:1.0;" width="6" x="836.5" y="553.4141"/><text fill="#000000" font-family="sans-serif" font-size="14" lengthAdjust="spacing" textLength="42" x="848.5" y="560.6426">long id</text><rect fill="none" height="6" style="stroke:#C82930;stroke-width:1.0;" width="6" x="836.5" y="571.0234"/><text fill="#000000" font-family="sans-serif" font-size="14" lengthAdjust="spacing" textLength="76" x="848.5" y="578.252">String name</text><rect fill="none" height="6" style="stroke:#C82930;stroke-width:1.0;" width="6" x="836.5" y="588.6328"/><text fill="#000000" font-family="sans-serif" font-size="14" lengthAdjust="spacing" textLength="110" x="848.5" y="595.8613">String description</text><line style="stroke:#181818;stroke-width:0.5;" x1="829.5" x2="963.5" y1="602.9375" y2="602.9375"/></g><!--class Document--><g id="elem_Document"><rect codeLine="79" fill="#F1F1F1" height="118.4375" id="Document" rx="2.5" ry="2.5" style="stroke:#181818;stroke-width:0.5;" width="132" x="661.5" y="501.6094"/><ellipse cx="692.7" cy="517.6094" fill="#ADD1B2" rx="11" ry="11" style="stroke:#181818;stroke-width:1.0;"/><path d="M695.4656,513.4844 Q695.6219,513.2656 695.8094,513.1563 Q695.9969,513.0469 696.2156,513.0469 Q696.5906,513.0469 696.825,513.3125 Q697.0594,513.5625 697.0594,514.1719 L697.0594,515.625 Q697.0594,516.2344 696.825,516.5 Q696.5906,516.7656 696.2156,516.7656 Q695.8719,516.7656 695.6688,516.5625 Q695.4656,516.375 695.3563,515.8594 Q695.3094,515.5 695.1219,515.3125 Q694.7938,514.9375 694.1844,514.7188 Q693.575,514.5 692.95,514.5 Q692.1844,514.5 691.5438,514.8281 Q690.9188,515.1563 690.4188,515.9063 Q689.9344,516.6563 689.9344,517.6875 L689.9344,518.7813 Q689.9344,520.0156 690.825,520.8438 Q691.7156,521.6563 693.3094,521.6563 Q694.2469,521.6563 694.9031,521.4063 Q695.2938,521.25 695.7156,520.8125 Q695.9813,520.5469 696.1219,520.4688 Q696.2781,520.3906 696.4813,520.3906 Q696.8094,520.3906 697.0594,520.6563 Q697.325,520.9063 697.325,521.25 Q697.325,521.5938 696.9813,522 Q696.4813,522.5781 695.6844,522.9063 Q694.6063,523.3594 693.3094,523.3594 Q691.7938,523.3594 690.5906,522.7344 Q689.6063,522.2344 688.9188,521.1719 Q688.2313,520.0938 688.2313,518.8125 L688.2313,517.6563 Q688.2313,516.3281 688.8406,515.1875 Q689.4656,514.0313 690.5594,513.4219 Q691.6531,512.7969 692.8875,512.7969 Q693.6219,512.7969 694.2625,512.9688 Q694.9188,513.125 695.4656,513.4844 Z " fill="#000000"/><text fill="#000000" font-family="sans-serif" font-size="14" lengthAdjust="spacing" textLength="64" x="710.3" y="523.3379">Document</text><line style="stroke:#181818;stroke-width:0.5;" x1="662.5" x2="792.5" y1="533.6094" y2="533.6094"/><rect fill="none" height="6" style="stroke:#C82930;stroke-width:1.0;" width="6" x="669.5" y="544.9141"/><text fill="#000000" font-family="sans-serif" font-size="14" lengthAdjust="spacing" textLength="42" x="681.5" y="552.1426">long id</text><rect fill="none" height="6" style="stroke:#C82930;stroke-width:1.0;" width="6" x="669.5" y="562.5234"/><text fill="#000000" font-family="sans-serif" font-size="14" lengthAdjust="spacing" textLength="95" x="681.5" y="569.752">String fileName</text><rect fill="none" height="6" style="stroke:#C82930;stroke-width:1.0;" width="6" x="669.5" y="580.1328"/><text fill="#000000" font-family="sans-serif" font-size="14" lengthAdjust="spacing" textLength="106" x="681.5" y="587.3613">String mimeType</text><rect fill="none" height="6" style="stroke:#C82930;stroke-width:1.0;" width="6" x="669.5" y="597.7422"/><text fill="#000000" font-family="sans-serif" font-size="14" lengthAdjust="spacing" textLength="86" x="681.5" y="604.9707">byte[] content</text><line style="stroke:#181818;stroke-width:0.5;" x1="662.5" x2="792.5" y1="612.0469" y2="612.0469"/></g><!--class User--><g id="elem_User"><rect codeLine="86" fill="#F1F1F1" height="153.6563" id="User" rx="2.5" ry="2.5" style="stroke:#181818;stroke-width:0.5;" width="131" x="1128" y="706.6094"/><ellipse cx="1174.75" cy="722.6094" fill="#ADD1B2" rx="11" ry="11" style="stroke:#181818;stroke-width:1.0;"/><path d="M1177.5156,718.4844 Q1177.6719,718.2656 1177.8594,718.1563 Q1178.0469,718.0469 1178.2656,718.0469 Q1178.6406,718.0469 1178.875,718.3125 Q1179.1094,718.5625 1179.1094,719.1719 L1179.1094,720.625 Q1179.1094,721.2344 1178.875,721.5 Q1178.6406,721.7656 1178.2656,721.7656 Q1177.9219,721.7656 1177.7188,721.5625 Q1177.5156,721.375 1177.4063,720.8594 Q1177.3594,720.5 1177.1719,720.3125 Q1176.8438,719.9375 1176.2344,719.7188 Q1175.625,719.5 1175,719.5 Q1174.2344,719.5 1173.5938,719.8281 Q1172.9688,720.1563 1172.4688,720.9063 Q1171.9844,721.6563 1171.9844,722.6875 L1171.9844,723.7813 Q1171.9844,725.0156 1172.875,725.8438 Q1173.7656,726.6563 1175.3594,726.6563 Q1176.2969,726.6563 1176.9531,726.4063 Q1177.3438,726.25 1177.7656,725.8125 Q1178.0313,725.5469 1178.1719,725.4688 Q1178.3281,725.3906 1178.5313,725.3906 Q1178.8594,725.3906 1179.1094,725.6563 Q1179.375,725.9063 1179.375,726.25 Q1179.375,726.5938 1179.0313,727 Q1178.5313,727.5781 1177.7344,727.9063 Q1176.6563,728.3594 1175.3594,728.3594 Q1173.8438,728.3594 1172.6406,727.7344 Q1171.6563,727.2344 1170.9688,726.1719 Q1170.2813,725.0938 1170.2813,723.8125 L1170.2813,722.6563 Q1170.2813,721.3281 1170.8906,720.1875 Q1171.5156,719.0313 1172.6094,718.4219 Q1173.7031,717.7969 1174.9375,717.7969 Q1175.6719,717.7969 1176.3125,717.9688 Q1176.9688,718.125 1177.5156,718.4844 Z " fill="#000000"/><text fill="#000000" font-family="sans-serif" font-size="14" lengthAdjust="spacing" textLength="29" x="1195.25" y="728.3379">User</text><line style="stroke:#181818;stroke-width:0.5;" x1="1129" x2="1258" y1="738.6094" y2="738.6094"/><rect fill="none" height="6" style="stroke:#C82930;stroke-width:1.0;" width="6" x="1136" y="749.9141"/><text fill="#000000" font-family="sans-serif" font-size="14" lengthAdjust="spacing" textLength="42" x="1148" y="757.1426">long id</text><rect fill="none" height="6" style="stroke:#C82930;stroke-width:1.0;" width="6" x="1136" y="767.5234"/><text fill="#000000" font-family="sans-serif" font-size="14" lengthAdjust="spacing" textLength="74" x="1148" y="774.752">String email</text><rect fill="none" height="6" style="stroke:#C82930;stroke-width:1.0;" width="6" x="1136" y="785.1328"/><text fill="#000000" font-family="sans-serif" font-size="14" lengthAdjust="spacing" textLength="76" x="1148" y="792.3613">String name</text><rect fill="none" height="6" style="stroke:#C82930;stroke-width:1.0;" width="6" x="1136" y="802.7422"/><text fill="#000000" font-family="sans-serif" font-size="14" lengthAdjust="spacing" textLength="96" x="1148" y="809.9707">String surname</text><rect fill="none" height="6" style="stroke:#C82930;stroke-width:1.0;" width="6" x="1136" y="820.3516"/><text fill="#000000" font-family="sans-serif" font-size="14" lengthAdjust="spacing" textLength="105" x="1148" y="827.5801">Boolean isAdmin</text><rect fill="none" height="6" style="stroke:#C82930;stroke-width:1.0;" width="6" x="1136" y="837.9609"/><text fill="#000000" font-family="sans-serif" font-size="14" lengthAdjust="spacing" textLength="93" x="1148" y="845.1895">Boolean active</text><line style="stroke:#181818;stroke-width:0.5;" x1="1129" x2="1258" y1="852.2656" y2="852.2656"/></g><!--link Project to ProjectState--><g id="link_Project_ProjectState"><path codeLine="95" d="M928.28,199.9094 C910.89,225.8094 891.75,254.3094 875.47,278.5594 " fill="none" id="Project-ProjectState" style="stroke:#181818;stroke-width:1.0;stroke-dasharray:7.0,7.0;"/><text fill="#000000" font-family="sans-serif" font-size="13" lengthAdjust="spacing" textLength="7" x="916.5775" y="220.7648">1</text><text fill="#000000" font-family="sans-serif" font-size="13" lengthAdjust="spacing" textLength="7" x="872.7929" y="267.8775">1</text></g><!--link Functionality to FunctionalityState--><g id="link_Functionality_FunctionalityState"><path codeLine="96" d="M1034.26,619.7794 C1024.84,632.0494 1015.73,645.3194 1008.5,658.6094 C995.88,681.8094 986.25,709.5794 979.51,732.9494 " fill="none" id="Functionality-FunctionalityState" style="stroke:#181818;stroke-width:1.0;stroke-dasharray:7.0,7.0;"/><text fill="#000000" font-family="sans-serif" font-size="13" lengthAdjust="spacing" textLength="7" x="1028.3198" y="641.4556">1</text><text fill="#000000" font-family="sans-serif" font-size="13" lengthAdjust="spacing" textLength="7" x="973.7067" y="722.2322">1</text></g><!--link Requirement to RequirementState--><g id="link_Requirement_RequirementState"><path codeLine="97" d="M456.37,414.6694 C472.57,439.8894 490.49,467.7694 506.24,492.2894 " fill="none" id="Requirement-RequirementState" style="stroke:#181818;stroke-width:1.0;stroke-dasharray:7.0,7.0;"/><text fill="#000000" font-family="sans-serif" font-size="13" lengthAdjust="spacing" textLength="7" x="453.4108" y="435.7711">1</text><text fill="#000000" font-family="sans-serif" font-size="13" lengthAdjust="spacing" textLength="7" x="494.4179" y="481.9297">1</text></g><!--link Requirement to PriorityStyle--><g id="link_Requirement_PriorityStyle"><path codeLine="98" d="M374.81,414.6694 C359.78,449.6294 342.55,489.6994 330.03,518.8294 " fill="none" id="Requirement-PriorityStyle" style="stroke:#181818;stroke-width:1.0;stroke-dasharray:7.0,7.0;"/><text fill="#000000" font-family="sans-serif" font-size="13" lengthAdjust="spacing" textLength="7" x="364.5868" y="435.7711">1</text><text fill="#000000" font-family="sans-serif" font-size="13" lengthAdjust="spacing" textLength="7" x="325.266" y="508.4014">1</text></g><!--link NonFunctionalRequirement to ComparisonOperator--><g id="link_NonFunctionalRequirement_ComparisonOperator"><path codeLine="99" d="M115.5,628.8194 C115.5,662.3394 115.5,702.1794 115.5,732.9094 " fill="none" id="NonFunctionalRequirement-ComparisonOperator" style="stroke:#181818;stroke-width:1.0;stroke-dasharray:7.0,7.0;"/><text fill="#000000" font-family="sans-serif" font-size="13" lengthAdjust="spacing" textLength="7" x="108.1391" y="650.1894">1</text><text fill="#000000" font-family="sans-serif" font-size="13" lengthAdjust="spacing" textLength="7" x="108.0078" y="722.1866">1</text></g><!--reverse link Project to Functionality--><g id="link_Project_Functionality"><path codeLine="101" d="M1012.9872,211.2323 C1016.3872,221.1623 1015.73,219.8994 1018.5,229.6094 C1045.26,323.4094 1066.01,435.0294 1077.22,501.4494 " fill="none" id="Project-backto-Functionality" style="stroke:#181818;stroke-width:1.0;"/><polygon fill="#181818" points="1009.1,199.8794,1007.2593,206.8516,1012.9872,211.2323,1014.8279,204.2601,1009.1,199.8794" style="stroke:#181818;stroke-width:1.0;"/><text fill="#000000" font-family="sans-serif" font-size="13" lengthAdjust="spacing" textLength="7" x="1004.343" y="220.7323">1</text><text fill="#000000" font-family="sans-serif" font-size="13" lengthAdjust="spacing" textLength="20" x="1054.8703" y="490.7541">0..*</text></g><!--reverse link Project to NonFunctionalRequirement--><g id="link_Project_NonFunctionalRequirement"><path codeLine="102" d="M874.3508,134.2207 C710.1708,152.1307 389.77,194.2594 295.5,260.6094 C214.74,317.4494 163.85,423.1294 137.53,492.4094 " fill="none" id="Project-backto-NonFunctionalRequirement" style="stroke:#181818;stroke-width:1.0;"/><polygon fill="#181818" points="886.28,132.9194,879.8816,129.5936,874.3508,134.2207,880.7492,137.5465,886.28,132.9194" style="stroke:#181818;stroke-width:1.0;"/><text fill="#000000" font-family="sans-serif" font-size="13" lengthAdjust="spacing" textLength="7" x="871.5726" y="130.6263">1</text><text fill="#000000" font-family="sans-serif" font-size="13" lengthAdjust="spacing" textLength="20" x="118.8458" y="481.5868">0..*</text></g><!--reverse link Project to Document--><g id="link_Project_Document"><path codeLine="103" d="M973.0755,211.6104 C965.9255,273.6204 950.07,349.3694 908.5,414.6094 C907.99,415.4094 845.11,465.7094 793.61,506.8494 " fill="none" id="Project-backto-Document" style="stroke:#181818;stroke-width:1.0;"/><polygon fill="#181818" points="974.45,199.6894,969.7891,205.1917,973.0755,211.6104,977.7364,206.1081,974.45,199.6894" style="stroke:#181818;stroke-width:1.0;"/><text fill="#000000" font-family="sans-serif" font-size="13" lengthAdjust="spacing" textLength="7" x="966.6885" y="220.7929">1</text><text fill="#000000" font-family="sans-serif" font-size="13" lengthAdjust="spacing" textLength="20" x="801.4588" y="497.9711">0..*</text></g><!--reverse link Project to Stakeholder--><g id="link_Project_Stakeholder"><path codeLine="104" d="M991.7619,211.687 C998.9619,282.027 1000.91,376.4094 970.5,462.6094 C964.55,479.4894 954.46,495.7894 943.62,510.0594 " fill="none" id="Project-backto-Stakeholder" style="stroke:#181818;stroke-width:1.0;"/><polygon fill="#181818" points="990.54,199.7494,987.1718,206.1255,991.7619,211.687,995.1302,205.3109,990.54,199.7494" style="stroke:#181818;stroke-width:1.0;"/><text fill="#000000" font-family="sans-serif" font-size="13" lengthAdjust="spacing" textLength="7" x="984.2115" y="220.8582">1</text><text fill="#000000" font-family="sans-serif" font-size="13" lengthAdjust="spacing" textLength="20" x="928.84" y="499.3577">0..*</text></g><!--reverse link Functionality to FunctionalRequirement--><g id="link_Functionality_FunctionalRequirement"><path codeLine="106" d="M988.8701,625.5107 C983.2501,628.6707 988.07,625.8094 982.5,628.6094 C875.93,682.1294 746.06,727.7694 661.2,755.1594 " fill="none" id="Functionality-backto-FunctionalRequirement" style="stroke:#181818;stroke-width:1.0;"/><polygon fill="#181818" points="999.33,619.6294,992.1396,619.0834,988.8701,625.5107,996.0605,626.0567,999.33,619.6294" style="stroke:#181818;stroke-width:1.0;"/><text fill="#000000" font-family="sans-serif" font-size="13" lengthAdjust="spacing" textLength="7" x="984.538" y="621.5053">1</text><text fill="#000000" font-family="sans-serif" font-size="13" lengthAdjust="spacing" textLength="20" x="669.1448" y="749.7552">0..*</text></g><!--reverse link Requirement to FunctionalRequirement--><g id="link_Requirement_FunctionalRequirement"><path codeLine="108" d="M411.0052,432.6569 C415.1452,492.8469 425.05,559.9394 454.5,628.6094 C472.83,671.3494 505.57,712.9194 531.77,742.0694 " fill="none" id="Requirement-backto-FunctionalRequirement" style="stroke:#181818;stroke-width:1.0;"/><polygon fill="none" points="409.77,414.6994,405.0193,433.0687,416.991,432.2452,409.77,414.6994" style="stroke:#181818;stroke-width:1.0;"/></g><!--reverse link Requirement to NonFunctionalRequirement--><g id="link_Requirement_NonFunctionalRequirement"><path codeLine="109" d="M298.3461,421.2206 C263.5361,447.5606 238.64,466.4094 204.38,492.3394 " fill="none" id="Requirement-backto-NonFunctionalRequirement" style="stroke:#181818;stroke-width:1.0;"/><polygon fill="none" points="312.7,410.3594,294.7257,416.436,301.9666,426.0053,312.7,410.3594" style="stroke:#181818;stroke-width:1.0;"/></g><!--link Requirement to Stakeholder--><g id="link_Requirement_Stakeholder"><path codeLine="111" d="M502.14,365.6994 C586.4,391.8694 711.44,435.8694 811.5,492.6094 C820.49,497.7094 829.54,503.7094 838.21,509.9894 " fill="none" id="Requirement-Stakeholder" style="stroke:#181818;stroke-width:1.0;"/><text fill="#000000" font-family="sans-serif" font-size="13" lengthAdjust="spacing" textLength="34" x="749.5" y="459.1045">linked</text><text fill="#000000" font-family="sans-serif" font-size="13" lengthAdjust="spacing" textLength="20" x="510.1515" y="381.9843">0..*</text><text fill="#000000" font-family="sans-serif" font-size="13" lengthAdjust="spacing" textLength="20" x="808.6067" y="499.2779">0..*</text></g><!--reverse link Requirement to Requirement--><g id="link_Requirement_Requirement"><path codeLine="112" d="M514.0666,328.5473 C534.3266,329.5073 537,332.1494 537,337.6094 C537,343.0694 522.34,346.2794 502.08,347.2394 " fill="none" id="Requirement-backto-Requirement" style="stroke:#181818;stroke-width:1.0;"/><polygon fill="none" points="502.08,327.9794,507.884,332.2589,514.0666,328.5473,508.2626,324.2678,502.08,327.9794" style="stroke:#181818;stroke-width:1.0;"/><text fill="#000000" font-family="sans-serif" font-size="13" lengthAdjust="spacing" textLength="79" x="543" y="343.1045">(Parent/Child)</text><text fill="#000000" font-family="sans-serif" font-size="13" lengthAdjust="spacing" textLength="7" x="509.8957" y="341.3723">1</text><text fill="#000000" font-family="sans-serif" font-size="13" lengthAdjust="spacing" textLength="20" x="510.0869" y="362.1109">0..*</text></g><!--link Requirement to Requirement--><g id="link_Requirement_Requirement"><path codeLine="113" d="M502.24,318.9194 C563.89,314.8994 628,321.1294 628,337.6094 C628,354.0894 563.89,360.3194 502.24,356.2994 " fill="none" id="Requirement-Requirement" style="stroke:#181818;stroke-width:1.0;"/><text fill="#000000" font-family="sans-serif" font-size="13" lengthAdjust="spacing" textLength="106" x="634" y="343.1045">crossed trazability</text><text fill="#000000" font-family="sans-serif" font-size="13" lengthAdjust="spacing" textLength="20" x="509.9318" y="314.48">0..*</text><text fill="#000000" font-family="sans-serif" font-size="13" lengthAdjust="spacing" textLength="20" x="509.9318" y="371.7801">0..*</text></g><!--link Requirement to Document--><g id="link_Requirement_Document"><path codeLine="114" d="M502.14,396.9594 C546.13,424.8794 598.73,459.3994 644.5,492.6094 C650.05,496.6294 655.72,500.8894 661.38,505.2394 " fill="none" id="Requirement-Document" style="stroke:#181818;stroke-width:1.0;"/><text fill="#000000" font-family="sans-serif" font-size="13" lengthAdjust="spacing" textLength="34" x="600.5" y="459.1045">linked</text><text fill="#000000" font-family="sans-serif" font-size="13" lengthAdjust="spacing" textLength="20" x="510.1515" y="415.6376">0..*</text><text fill="#000000" font-family="sans-serif" font-size="13" lengthAdjust="spacing" textLength="20" x="633.5301" y="496.195">0..*</text></g><!--reverse link Project to User--><g id="link_Project_User"><path codeLine="116" d="M1042.4861,209.4887 C1111.2361,308.8887 1214.89,481.3994 1240.5,658.6094 C1242.79,674.4494 1240.37,690.8194 1235.63,706.2794 " fill="none" id="Project-backto-User" style="stroke:#181818;stroke-width:1.0;"/><polygon fill="none" points="1035.66,199.6194,1035.7833,206.8294,1042.4861,209.4887,1042.3628,202.2787,1035.66,199.6194" style="stroke:#181818;stroke-width:1.0;"/><text fill="#000000" font-family="sans-serif" font-size="13" lengthAdjust="spacing" textLength="95" x="1183.5" y="459.1045">Project manager</text><text fill="#000000" font-family="sans-serif" font-size="13" lengthAdjust="spacing" textLength="7" x="1033.35" y="220.7167">1</text><text fill="#000000" font-family="sans-serif" font-size="13" lengthAdjust="spacing" textLength="20" x="1218.6924" y="695.6746">0..*</text></g><!--reverse link Functionality to User--><g id="link_Functionality_User"><path codeLine="117" d="M1022.6461,630.0302 C1011.4161,648.2202 1012.22,658.1394 1022.5,676.6094 C1028.64,687.6294 1082.33,719.9894 1127.93,746.0794 " fill="none" id="Functionality-backto-User" style="stroke:#181818;stroke-width:1.0;"/><polygon fill="none" points="1028.95,619.8194,1022.3944,622.8235,1022.6461,630.0302,1029.2017,627.0261,1028.95,619.8194" style="stroke:#181818;stroke-width:1.0;"/><text fill="#000000" font-family="sans-serif" font-size="13" lengthAdjust="spacing" textLength="126" x="1023.5" y="673.1045">Requirement engineer</text><text fill="#000000" font-family="sans-serif" font-size="13" lengthAdjust="spacing" textLength="7" x="1014.5095" y="641.5005">1</text><text fill="#000000" font-family="sans-serif" font-size="13" lengthAdjust="spacing" textLength="20" x="1100.1368" y="738.9151">0..*</text></g><!--reverse link Functionality to User--><g id="link_Functionality_User"><path codeLine="118" d="M1138.3038,629.7955 C1146.6538,642.1655 1148.04,645.5094 1154.5,658.6094 C1161.88,673.5894 1168.26,690.2694 1173.59,706.4094 " fill="none" id="Functionality-backto-User-1" style="stroke:#181818;stroke-width:1.0;"/><polygon fill="none" points="1131.59,619.8494,1131.6315,627.0604,1138.3038,629.7955,1138.2623,622.5845,1131.59,619.8494" style="stroke:#181818;stroke-width:1.0;"/><text fill="#000000" font-family="sans-serif" font-size="13" lengthAdjust="spacing" textLength="69" x="1162.5" y="673.1045">Stakeholder</text><text fill="#000000" font-family="sans-serif" font-size="13" lengthAdjust="spacing" textLength="7" x="1129.6588" y="641.5341">1</text><text fill="#000000" font-family="sans-serif" font-size="13" lengthAdjust="spacing" textLength="20" x="1150.7392" y="695.817">0..*</text></g><!--SRC=[fLLTZvf057tdLqnyQZVHjg-cBmYuQ-AY1RHfciQCSEjETvYnmx0R-_7VEyA0Wu3hfZxetBbVXtFkHKaa1JJ1yIEm13aKPnbo2Tu9d4wuI40ud79XMS3o52q5uOB8GoWFAkctXTGdyWBV3huKv_j5w2m-Mt_hSFu3OXbABAjesubcQwyuJcV-BBpptC9mlS9ZHzeElFl5MfshKjESnP9mXcdHlhFWIpK2-9aJ0Icm1gIbvxip_tPZBvV1OctFs-1ApvL87PxkiI0PPuiz22ovq7syJojxleaMXJ7tmd0JtTb-OTq6dgeNb1UgK5p8eEdJwKD4ETiXacWhb88ec-4KcZS9PB4W-oDRsj6KRMzQTOIXL7RyreuvZp5rbHsH550iG1qJMvv0DeHvBLIAjq3rLOV29H3L2cypAR2Yeknf2DdJSKevbgYOtpMcERoUizQmcAnCEAU06IBPKcsDAX304u7dBbQwiEgcbH3DMzLdIuuSdAhvd5rLC0MSvQLhnOZKpew1vFgW8roURzLWo0S1sGEdYKbPvSDY1xB3eLJ9CIqTDM35s2CSAu7ud-cjwxaypY-ehLE_4mf-gs2g1ZSwxAlRxK72rsyevaogWgSMg-mbh91YGb-2h_WtBazpOYSfOMUtYZhoLB1MRVhWmm2DHiMFkP5MSycCgFRIMEPy697dyzmNrtXNMBsJPsIqvwlvG3V3X3-puH0Dtez6DsUOpo9FKNsTUnEg6UaDC8RIwc3qfWkXsRZ1sCS_mvwmywZU1sagK7RkH8l6Y1Bs24bBCtwADrrZz6Q9XJgzSnu8JTvUxjJCZ0NFCaYGUj_-gbv45zFhtQnHDXGm81OhDgx_rbBCy4vfqPQYdMCY0BOZ3AvCD4N_1m00]--></g></svg>