<?xml version="1.0" encoding="us-ascii" standalone="no"?><svg xmlns="http://www.w3.org/2000/svg" xmlns:xlink="http://www.w3.org/1999/xlink" contentStyleType="text/css" height="529px" preserveAspectRatio="none" style="width:291px;height:529px;background:#FFFFFF;" version="1.1" viewBox="0 0 291 529" width="291px" zoomAndPan="magnify"><defs/><g><text fill="#000000" font-family="sans-serif" font-size="14" font-weight="bold" lengthAdjust="spacing" textLength="221" x="28" y="24.5332">Lifecycle of a Project (IR-Board)</text><g id="Active"><rect fill="#F1F1F1" height="50" rx="12.5" ry="12.5" style="stroke:#181818;stroke-width:0.5;" width="58" x="63" y="144.1094"/><line style="stroke:#181818;stroke-width:0.5;" x1="63" x2="121" y1="171.7188" y2="171.7188"/><text fill="#000000" font-family="sans-serif" font-size="14" lengthAdjust="spacing" textLength="38" x="73" y="163.6426">Active</text></g><g id="Closed"><rect fill="#F1F1F1" height="52.7031" rx="12.5" ry="12.5" style="stroke:#181818;stroke-width:0.5;" width="128" x="156" y="142.6094"/><line style="stroke:#181818;stroke-width:0.5;" x1="156" x2="284" y1="170.2188" y2="170.2188"/><text fill="#000000" font-family="sans-serif" font-size="14" lengthAdjust="spacing" textLength="44" x="198" y="162.1426">Closed</text><text fill="#000000" font-family="sans-serif" font-size="12" lengthAdjust="spacing" textLength="108" x="161" y="187.6758">Completed/finished</text></g><g id="Deactivated"><rect fill="#F1F1F1" height="52.7031" rx="12.5" ry="12.5" style="stroke:#181818;stroke-width:0.5;" width="138" x="23" y="256.6094"/><line style="stroke:#181818;stroke-width:0.5;" x1="23" x2="161" y1="284.2188" y2="284.2188"/><text fill="#000000" font-family="sans-serif" font-size="14" lengthAdjust="spacing" textLength="75" x="54.5" y="276.1426">Deactivated</text><text fill="#000000" font-family="sans-serif" font-size="12" lengthAdjust="spacing" textLength="118" x="28" y="301.6758">Cancelled/postponed</text></g><g id="Removed"><rect fill="#F1F1F1" height="52.7031" rx="12.5" ry="12.5" style="stroke:#181818;stroke-width:0.5;" width="170" x="7" y="370.6094"/><line style="stroke:#181818;stroke-width:0.5;" x1="7" x2="177" y1="398.2188" y2="398.2188"/><text fill="#000000" font-family="sans-serif" font-size="14" lengthAdjust="spacing" textLength="60" x="62" y="390.1426">Removed</text><text fill="#000000" font-family="sans-serif" font-size="12" lengthAdjust="spacing" textLength="150" x="12" y="415.6758">Hidden from sight, archived</text></g><ellipse cx="92" cy="54.6094" fill="#222222" rx="10" ry="10" style="stroke:#222222;stroke-width:1.0;"/><ellipse cx="92" cy="512.6094" fill="none" rx="11" ry="11" style="stroke:#222222;stroke-width:1.0;"/><ellipse cx="92" cy="512.6094" fill="#222222" rx="6" ry="6" style="stroke:#222222;stroke-width:1.0;"/><!--link *start* to Active--><g id="link_*start*_Active"><path d="M92,64.8194 C92,81.9194 92,113.1194 92,137.8894 " fill="none" id="*start*-to-Active" style="stroke:#181818;stroke-width:1.0;"/><polygon fill="#181818" points="92,143.8894,96,134.8894,92,138.8894,88,134.8894,92,143.8894" style="stroke:#181818;stroke-width:1.0;"/><text fill="#000000" font-family="sans-serif" font-size="13" lengthAdjust="spacing" textLength="91" x="93" y="109.1045">Project creation</text></g><!--link Active to Closed--><g id="link_Active_Closed"><path d="M121.25,182.3294 C132.82,186.0094 138.39,187.8594 149.97,187.8594 " fill="none" id="Active-to-Closed" style="stroke:#181818;stroke-width:1.0;"/><polygon fill="#181818" points="155.97,187.8594,146.97,183.8594,150.97,187.8594,146.97,191.8594,155.97,187.8594" style="stroke:#181818;stroke-width:1.0;"/></g><!--reverse link Active to Closed--><g id="link_Active_Closed"><path d="M126.9677,154.0708 C138.5377,150.3908 144.39,150.3594 155.97,150.3594 " fill="none" id="Active-backto-Closed" style="stroke:#181818;stroke-width:1.0;"/><polygon fill="#181818" points="121.25,155.8894,131.039,156.9733,126.0148,154.3739,128.6142,149.3496,121.25,155.8894" style="stroke:#181818;stroke-width:1.0;"/></g><!--link Active to Deactivated--><g id="link_Active_Deactivated"><path d="M81.31,194.1394 C78.64,212.5194 77.7546,231.8737 80.2946,250.6237 " fill="none" id="Active-to-Deactivated" style="stroke:#181818;stroke-width:1.0;"/><polygon fill="#181818" points="81.1,256.5694,83.8556,247.1139,80.4288,251.6146,75.928,248.1878,81.1,256.5694" style="stroke:#181818;stroke-width:1.0;"/></g><!--link Deactivated to Active--><g id="link_Deactivated_Active"><path d="M103.54,256.5694 C106.23,237.8194 107.0662,218.449 104.2262,200.069 " fill="none" id="Deactivated-to-Active" style="stroke:#181818;stroke-width:1.0;"/><polygon fill="#181818" points="103.31,194.1394,100.7312,203.6446,104.0735,199.0807,108.6374,202.423,103.31,194.1394" style="stroke:#181818;stroke-width:1.0;"/></g><!--link Deactivated to Removed--><g id="link_Deactivated_Removed"><path d="M81.08,309.8094 C78.63,328.0194 77.8355,346.4036 80.2955,364.5836 " fill="none" id="Deactivated-to-Removed" style="stroke:#181818;stroke-width:1.0;"/><polygon fill="#181818" points="81.1,370.5294,83.8571,361.0743,80.4295,365.5745,75.9293,362.147,81.1,370.5294" style="stroke:#181818;stroke-width:1.0;"/></g><!--link Removed to Deactivated--><g id="link_Removed_Deactivated"><path d="M103.54,370.5294 C106.15,352.3494 106.9949,333.9596 104.4049,315.7496 " fill="none" id="Removed-to-Deactivated" style="stroke:#181818;stroke-width:1.0;"/><polygon fill="#181818" points="103.56,309.8094,100.8672,319.283,104.2641,314.7596,108.7875,318.1565,103.56,309.8094" style="stroke:#181818;stroke-width:1.0;"/></g><!--link Removed to *end*--><g id="link_Removed_*end*"><path d="M92,423.8594 C92,448.4594 92,478.2494 92,495.5294 " fill="none" id="Removed-to-*end*" style="stroke:#181818;stroke-width:1.0;"/><polygon fill="#181818" points="92,501.5294,96,492.5294,92,496.5294,88,492.5294,92,501.5294" style="stroke:#181818;stroke-width:1.0;"/><text fill="#000000" font-family="sans-serif" font-size="13" lengthAdjust="spacing" textLength="114" x="93" y="468.1045">Purged from archive</text></g><!--SRC=[PO-xJWGn34LxVuKx7YAYtm89bW8a2hJG8OeeSNQCCl4eCOluUpoFVG2Lh-rZ-rfPC-4J9mhVmPGazFXSvOE2uldZnjs9h_42eAbNmjkWl2E0bobRPsaKLxYMViYa5AyJ5suTnJrnJtwSC3bYlWJAsR11cWvIZjo6UjcDp0F7I0LJbHuRRpkzGbz3PqUDXJDyhRuq3cp33Tuktz55-IhkPd6sEdWFbRmQ1Z1tqDLndP6pQvW3kan93_D7saedvk54Jxqz_hU-F09B_BVdLyFyc-7FkhLy-dXv5Nu0]--></g></svg>