<?xml version="1.0" encoding="us-ascii" standalone="no"?><svg xmlns="http://www.w3.org/2000/svg" xmlns:xlink="http://www.w3.org/1999/xlink" contentStyleType="text/css" height="529px" preserveAspectRatio="none" style="width:249px;height:529px;background:#FFFFFF;" version="1.1" viewBox="0 0 249 529" width="249px" zoomAndPan="magnify"><defs/><g><text fill="#000000" font-family="sans-serif" font-size="14" font-weight="bold" lengthAdjust="spacing" textLength="221" x="10" y="24.5332">Lifecycle of a Project (IR-Board)</text><g id="Active"><rect fill="#F1F1F1" height="50" rx="12.5" ry="12.5" style="stroke:#181818;stroke-width:0.5;" width="58" x="68.25" y="144.1094"/><line style="stroke:#181818;stroke-width:0.5;" x1="68.25" x2="126.25" y1="171.7188" y2="171.7188"/><text fill="#000000" font-family="sans-serif" font-size="14" lengthAdjust="spacing" textLength="38" x="78.25" y="163.6426">Active</text></g><g id="Finished"><rect fill="#F1F1F1" height="52.7031" rx="12.5" ry="12.5" style="stroke:#181818;stroke-width:0.5;" width="81" x="161.75" y="142.6094"/><line style="stroke:#181818;stroke-width:0.5;" x1="161.75" x2="242.75" y1="170.2188" y2="170.2188"/><text fill="#000000" font-family="sans-serif" font-size="14" lengthAdjust="spacing" textLength="54" x="175.25" y="162.1426">Finished</text><text fill="#000000" font-family="sans-serif" font-size="12" lengthAdjust="spacing" textLength="61" x="166.75" y="187.6758">Completed</text></g><g id="Deactivated"><rect fill="#F1F1F1" height="52.7031" rx="12.5" ry="12.5" style="stroke:#181818;stroke-width:0.5;" width="138" x="28.25" y="256.6094"/><line style="stroke:#181818;stroke-width:0.5;" x1="28.25" x2="166.25" y1="284.2188" y2="284.2188"/><text fill="#000000" font-family="sans-serif" font-size="14" lengthAdjust="spacing" textLength="75" x="59.75" y="276.1426">Deactivated</text><text fill="#000000" font-family="sans-serif" font-size="12" lengthAdjust="spacing" textLength="118" x="33.25" y="301.6758">Cancelled/postponed</text></g><g id="Removed"><rect fill="#F1F1F1" height="52.7031" rx="12.5" ry="12.5" style="stroke:#181818;stroke-width:0.5;" width="170" x="12.25" y="370.6094"/><line style="stroke:#181818;stroke-width:0.5;" x1="12.25" x2="182.25" y1="398.2188" y2="398.2188"/><text fill="#000000" font-family="sans-serif" font-size="14" lengthAdjust="spacing" textLength="60" x="67.25" y="390.1426">Removed</text><text fill="#000000" font-family="sans-serif" font-size="12" lengthAdjust="spacing" textLength="150" x="17.25" y="415.6758">Hidden from sight, archived</text></g><ellipse cx="97.25" cy="54.6094" fill="#222222" rx="10" ry="10" style="stroke:#222222;stroke-width:1.0;"/><ellipse cx="97.25" cy="512.6094" fill="none" rx="11" ry="11" style="stroke:#222222;stroke-width:1.0;"/><ellipse cx="97.25" cy="512.6094" fill="#222222" rx="6" ry="6" style="stroke:#222222;stroke-width:1.0;"/><!--link *start* to Active--><g id="link_*start*_Active"><path d="M97.25,64.8194 C97.25,81.9194 97.25,113.1194 97.25,137.8894 " fill="none" id="*start*-to-Active" style="stroke:#181818;stroke-width:1.0;"/><polygon fill="#181818" points="97.25,143.8894,101.25,134.8894,97.25,138.8894,93.25,134.8894,97.25,143.8894" style="stroke:#181818;stroke-width:1.0;"/><text fill="#000000" font-family="sans-serif" font-size="13" lengthAdjust="spacing" textLength="91" x="98.25" y="109.1045">Project creation</text></g><!--link Active to Finished--><g id="link_Active_Finished"><path d="M126.37,184.1394 C138.13,187.8794 143.9669,189.7571 155.7169,187.8571 " fill="none" id="Active-to-Finished" style="stroke:#181818;stroke-width:1.0;"/><polygon fill="#181818" points="161.64,186.8994,152.1169,184.3873,156.7041,187.6975,153.3939,192.2847,161.64,186.8994" style="stroke:#181818;stroke-width:1.0;"/></g><!--reverse link Active to Finished--><g id="link_Active_Finished"><path d="M132.0878,152.261 C143.8478,148.521 149.89,149.4194 161.64,151.3194 " fill="none" id="Active-backto-Finished" style="stroke:#181818;stroke-width:1.0;"/><polygon fill="#181818" points="126.37,154.0794,136.159,155.1636,131.1348,152.564,133.7344,147.5399,126.37,154.0794" style="stroke:#181818;stroke-width:1.0;"/></g><!--link Active to Deactivated--><g id="link_Active_Deactivated"><path d="M86.56,194.1394 C83.89,212.5194 83.0046,231.8737 85.5446,250.6237 " fill="none" id="Active-to-Deactivated" style="stroke:#181818;stroke-width:1.0;"/><polygon fill="#181818" points="86.35,256.5694,89.1056,247.1139,85.6788,251.6146,81.178,248.1878,86.35,256.5694" style="stroke:#181818;stroke-width:1.0;"/></g><!--link Deactivated to Active--><g id="link_Deactivated_Active"><path d="M108.79,256.5694 C111.48,237.8194 112.3162,218.449 109.4762,200.069 " fill="none" id="Deactivated-to-Active" style="stroke:#181818;stroke-width:1.0;"/><polygon fill="#181818" points="108.56,194.1394,105.9812,203.6446,109.3235,199.0807,113.8874,202.423,108.56,194.1394" style="stroke:#181818;stroke-width:1.0;"/></g><!--link Deactivated to Removed--><g id="link_Deactivated_Removed"><path d="M86.33,309.8094 C83.88,328.0194 83.0855,346.4036 85.5455,364.5836 " fill="none" id="Deactivated-to-Removed" style="stroke:#181818;stroke-width:1.0;"/><polygon fill="#181818" points="86.35,370.5294,89.1071,361.0743,85.6795,365.5745,81.1793,362.147,86.35,370.5294" style="stroke:#181818;stroke-width:1.0;"/></g><!--link Removed to Deactivated--><g id="link_Removed_Deactivated"><path d="M108.79,370.5294 C111.4,352.3494 112.2449,333.9596 109.6549,315.7496 " fill="none" id="Removed-to-Deactivated" style="stroke:#181818;stroke-width:1.0;"/><polygon fill="#181818" points="108.81,309.8094,106.1172,319.283,109.5141,314.7596,114.0375,318.1565,108.81,309.8094" style="stroke:#181818;stroke-width:1.0;"/></g><!--link Removed to *end*--><g id="link_Removed_*end*"><path d="M97.25,423.8594 C97.25,448.4594 97.25,478.2494 97.25,495.5294 " fill="none" id="Removed-to-*end*" style="stroke:#181818;stroke-width:1.0;"/><polygon fill="#181818" points="97.25,501.5294,101.25,492.5294,97.25,496.5294,93.25,492.5294,97.25,501.5294" style="stroke:#181818;stroke-width:1.0;"/><text fill="#000000" font-family="sans-serif" font-size="13" lengthAdjust="spacing" textLength="114" x="98.25" y="468.1045">Purged from archive</text></g><!--SRC=[PK_BJWCn3BpxAtpZ8IBkFLJYeQf8753f3N684c_NLJPU9QQ8lyUxxBO5JXbxnfCPPKs4pznG-0g6f46FBqNs51GldpRkNdo9Lm1LlHBU1UK30RoEqueprvRY0X-awnCfnPbw93z83Gwipu5IedZRIzLUyacteKuEWsRDCLB6faY7bNUjtg0leRNVJ0iNk2q-LmvinnNUhj_HHVdCRZb5MXn3Xq9UJGRmmw0hWvqfvxWm0tI96Zrwd2viTLO0pl38pVA_-waCJEy_dr-4TR3G7sLdyzXwgWlV]--></g></svg>