<?xml version="1.0" encoding="us-ascii" standalone="no"?><svg xmlns="http://www.w3.org/2000/svg" xmlns:xlink="http://www.w3.org/1999/xlink" contentStyleType="text/css" height="496px" preserveAspectRatio="none" style="width:750px;height:496px;background:#FFFFFF;" version="1.1" viewBox="0 0 750 496" width="750px" zoomAndPan="magnify"><defs/><g><text fill="#000000" font-family="sans-serif" font-size="14" font-weight="bold" lengthAdjust="spacing" textLength="262" x="237.04" y="24.5332">Lifecycle of a Requirement (IR-Board)</text><g id="PendingApproval"><rect fill="#F1F1F1" height="50" rx="12.5" ry="12.5" style="stroke:#181818;stroke-width:0.5;" width="128" x="304.58" y="197.6094"/><line style="stroke:#181818;stroke-width:0.5;" x1="304.58" x2="432.58" y1="225.2188" y2="225.2188"/><text fill="#000000" font-family="sans-serif" font-size="14" lengthAdjust="spacing" textLength="108" x="314.58" y="217.1426">PendingApproval</text></g><g id="PendingReview"><rect fill="#F1F1F1" height="67.7969" rx="12.5" ry="12.5" style="stroke:#181818;stroke-width:0.5;" width="243" x="356.08" y="422.6094"/><line style="stroke:#181818;stroke-width:0.5;" x1="356.08" x2="599.08" y1="450.2188" y2="450.2188"/><text fill="#000000" font-family="sans-serif" font-size="14" lengthAdjust="spacing" textLength="97" x="429.08" y="442.1426">PendingReview</text><text fill="#000000" font-family="sans-serif" font-size="12" lengthAdjust="spacing" textLength="146" x="361.08" y="467.6758">Flagged due to changes in</text><text fill="#000000" font-family="sans-serif" font-size="12" lengthAdjust="spacing" textLength="223" x="361.08" y="482.7695">linked Stakeholders/Docs/Requirements</text></g><g id="Approved"><rect fill="#F1F1F1" height="50" rx="12.5" ry="12.5" style="stroke:#181818;stroke-width:0.5;" width="81" x="424.08" y="57.1094"/><line style="stroke:#181818;stroke-width:0.5;" x1="424.08" x2="505.08" y1="84.7188" y2="84.7188"/><text fill="#000000" font-family="sans-serif" font-size="14" lengthAdjust="spacing" textLength="61" x="434.08" y="76.6426">Approved</text></g><g id="elem_GMN5"><path d="M540.08,44.6094 L540.08,78.1094 L505.37,82.1094 L540.08,86.1094 L540.08,120.0156 A0,0 0 0 0 540.08,120.0156 L743.08,120.0156 A0,0 0 0 0 743.08,120.0156 L743.08,54.6094 L733.08,44.6094 L540.08,44.6094 A0,0 0 0 0 540.08,44.6094 " fill="#FEFFDD" style="stroke:#181818;stroke-width:0.5;"/><path d="M733.08,44.6094 L733.08,54.6094 L743.08,54.6094 L733.08,44.6094 " fill="#FEFFDD" style="stroke:#181818;stroke-width:0.5;"/><text fill="#000000" font-family="sans-serif" font-size="13" lengthAdjust="spacing" textLength="151" x="546.08" y="63.1045">These have been validated</text><text fill="#000000" font-family="sans-serif" font-size="13" lengthAdjust="spacing" textLength="178" x="546.08" y="79.4561">by the appropiate stakeholders</text><text fill="#000000" font-family="sans-serif" font-size="13" lengthAdjust="spacing" textLength="142" x="546.08" y="95.8076">with the project manager</text><text fill="#000000" font-family="sans-serif" font-size="13" lengthAdjust="spacing" textLength="111" x="546.08" y="112.1592">outside the system</text></g><g id="Deactivated"><rect fill="#F1F1F1" height="52.7031" rx="12.5" ry="12.5" style="stroke:#181818;stroke-width:0.5;" width="111" x="422.08" y="308.6094"/><line style="stroke:#181818;stroke-width:0.5;" x1="422.08" x2="533.08" y1="336.2188" y2="336.2188"/><text fill="#000000" font-family="sans-serif" font-size="14" lengthAdjust="spacing" textLength="75" x="440.08" y="328.1426">Deactivated</text><text fill="#000000" font-family="sans-serif" font-size="12" lengthAdjust="spacing" textLength="91" x="427.08" y="353.6758">Read-only mode</text></g><ellipse cx="133.58" cy="82.1094" fill="#222222" rx="10" ry="10" style="stroke:#222222;stroke-width:1.0;"/><!--link *start* to PendingApproval--><g id="link_*start*_PendingApproval"><path d="M132.78,92.1694 C131.8,109.3594 132.3,146.8494 152.58,167.6094 C173.57,189.1094 242.8316,203.4949 298.6216,212.1949 " fill="none" id="*start*-to-PendingApproval" style="stroke:#181818;stroke-width:1.0;"/><polygon fill="#181818" points="304.55,213.1194,296.2738,207.7804,299.6097,212.349,295.0412,215.6849,304.55,213.1194" style="stroke:#181818;stroke-width:1.0;"/><text fill="#000000" font-family="sans-serif" font-size="13" lengthAdjust="spacing" textLength="196" x="153.58" y="164.1045">Requirement is created and saved</text></g><!--link PendingReview to PendingApproval--><g id="link_PendingReview_PendingApproval"><path d="M355.98,443.8994 C249.87,430.8694 107.54,405.6194 72.58,361.6094 C6,277.8194 192.5531,243.2871 298.2931,230.5471 " fill="none" id="PendingReview-to-PendingApproval" style="stroke:#181818;stroke-width:1.0;"/><polygon fill="#181818" points="304.25,229.8294,294.8361,226.9347,299.2859,230.4275,295.7931,234.8772,304.25,229.8294" style="stroke:#181818;stroke-width:1.0;"/><text fill="#000000" font-family="sans-serif" font-size="13" lengthAdjust="spacing" textLength="268" x="73.58" y="340.6045">Review completed (modifying it or accepting it)</text></g><!--link PendingApproval to PendingReview--><g id="link_PendingApproval_PendingReview"><path d="M371.86,247.8394 C376.38,276.2394 386.14,324.1794 404.58,361.6094 C415.35,383.4794 427.809,400.5921 442.309,417.6121 " fill="none" id="PendingApproval-to-PendingReview" style="stroke:#181818;stroke-width:1.0;"/><polygon fill="#181818" points="446.2,422.1794,443.4083,412.7345,442.9575,418.3733,437.3186,417.9225,446.2,422.1794" style="stroke:#181818;stroke-width:1.0;"/></g><!--link PendingApproval to Approved--><g id="link_PendingApproval_Approved"><path d="M396.23,197.3494 C405.3,188.5494 414.99,178.1594 422.58,167.6094 C436.16,148.7194 445.2344,130.3077 452.7344,112.7377 " fill="none" id="PendingApproval-to-Approved" style="stroke:#181818;stroke-width:1.0;"/><polygon fill="#181818" points="455.09,107.2194,447.8778,113.9264,453.127,111.8179,455.2355,117.0672,455.09,107.2194" style="stroke:#181818;stroke-width:1.0;"/></g><!--link Approved to PendingApproval--><g id="link_Approved_PendingApproval"><path d="M424.03,98.7194 C402.18,109.4594 377.18,126.0894 364.58,149.6094 C356.77,164.1794 356.8411,176.9887 359.9411,191.6787 " fill="none" id="Approved-to-PendingApproval" style="stroke:#181818;stroke-width:1.0;"/><polygon fill="#181818" points="361.18,197.5494,363.2355,187.9174,360.1476,192.6571,355.4079,189.5692,361.18,197.5494" style="stroke:#181818;stroke-width:1.0;"/><text fill="#000000" font-family="sans-serif" font-size="13" lengthAdjust="spacing" textLength="48" x="365.58" y="164.1045">modified</text></g><!--link Approved to PendingReview--><g id="link_Approved_PendingReview"><path d="M477.36,107.2494 C497.88,147.5794 537.23,231.8294 550.58,308.6094 C554.61,331.8194 558.21,339.3294 550.58,361.6094 C542.81,384.2794 531.0867,401.2343 516.2167,417.8843 " fill="none" id="Approved-to-PendingReview" style="stroke:#181818;stroke-width:1.0;"/><polygon fill="#181818" points="512.22,422.3594,521.1984,418.3112,515.5506,418.6301,515.2316,412.9823,512.22,422.3594" style="stroke:#181818;stroke-width:1.0;"/></g><!--link PendingApproval to Deactivated--><g id="link_PendingApproval_Deactivated"><path d="M392.5,247.8594 C410.17,265.7794 429.9667,285.8476 447.9767,304.1076 " fill="none" id="PendingApproval-to-Deactivated" style="stroke:#181818;stroke-width:1.0;"/><polygon fill="#181818" points="452.19,308.3794,448.7179,299.1628,448.6789,304.8196,443.0222,304.7806,452.19,308.3794" style="stroke:#181818;stroke-width:1.0;"/></g><!--link PendingReview to Deactivated--><g id="link_PendingReview_Deactivated"><path d="M489.83,422.2894 C491.76,403.1394 492.3093,385.3775 489.7493,367.6875 " fill="none" id="PendingReview-to-Deactivated" style="stroke:#181818;stroke-width:1.0;"/><polygon fill="#181818" points="488.89,361.7494,486.2202,371.2295,489.6061,366.6978,494.1378,370.0837,488.89,361.7494" style="stroke:#181818;stroke-width:1.0;"/></g><!--link Deactivated to PendingReview--><g id="link_Deactivated_PendingReview"><path d="M466.89,361.7494 C464.47,379.4394 463.6092,397.1666 465.4392,416.3166 " fill="none" id="Deactivated-to-PendingReview" style="stroke:#181818;stroke-width:1.0;"/><polygon fill="#181818" points="466.01,422.2894,469.1357,412.9497,465.5344,417.312,461.172,413.7107,466.01,422.2894" style="stroke:#181818;stroke-width:1.0;"/></g><!--link Approved to Deactivated--><g id="link_Approved_Deactivated"><path d="M465.82,107.1794 C468.28,154.5394 473.3992,253.4774 475.9292,302.2574 " fill="none" id="Approved-to-Deactivated" style="stroke:#181818;stroke-width:1.0;"/><polygon fill="#181818" points="476.24,308.2494,479.7685,299.0543,475.981,303.2561,471.7792,299.4686,476.24,308.2494" style="stroke:#181818;stroke-width:1.0;"/></g><!--SRC=[TL4zJyCm4DtzAswZHQgwCo21AYGa1bIw8OQh_PeSJUnWkwqYn7_7JYaaKTXyT-_UnpbAh41FieDkTNgv7J6jyN4GZnesqknnlRXtxCrSgH0vWfvXZTZYhccyEt8rQgzn59peKz6eSqCF5HS539a3A3hI9Ti2WSJI1BWIkq_ObyXxbAuoy66vSZeiU-Q2-hgedzt0AEjIvQKeOyxosoRQb0YWae-WBM0fMHUJLarMtxOKIn1dU2EPCFI4C-8aiUmm2V4E7QbcomLydhb336BGZKCR8cgLqb2sSl6t0kienwoNJzChKzOrs2oShLggdK4ETKKRppQ85cSHrElr6oqMj-FJTwj_NoM1j4V7oKa-S0wkXeVzZwKRQbSt5VB-B1cHNPjG9EcGdbXhDF5SpzMOeSVwGwKcCPVl8FNxcZRKoKkoFuKxIqmhz0yx4Nqm7f8FH_rg8jqt]--></g></svg>