<?xml version="1.0" encoding="us-ascii" standalone="no"?><svg xmlns="http://www.w3.org/2000/svg" xmlns:xlink="http://www.w3.org/1999/xlink" contentStyleType="text/css" height="700px" preserveAspectRatio="none" style="width:563px;height:700px;background:#FFFFFF;" version="1.1" viewBox="0 0 563 700" width="563px" zoomAndPan="magnify"><defs/><g><text fill="#000000" font-family="sans-serif" font-size="14" font-weight="bold" lengthAdjust="spacing" textLength="262" x="143.5" y="24.5332">Lifecycle of a Requirement (IR-Board)</text><path d="M19.5,142.6094 L407,142.6094 A12.5,12.5 0 0 1 419.5,155.1094 L419.5,170.2188 L7,170.2188 L7,155.1094 A12.5,12.5 0 0 1 19.5,142.6094 " fill="#F1F1F1" style="stroke:#F1F1F1;stroke-width:1.0;"/><rect fill="none" height="224.4063" rx="12.5" ry="12.5" style="stroke:#181818;stroke-width:0.5;" width="412.5" x="7" y="142.6094"/><line style="stroke:#181818;stroke-width:0.5;" x1="7" x2="419.5" y1="170.2188" y2="170.2188"/><text fill="#000000" font-family="sans-serif" font-size="14" lengthAdjust="spacing" textLength="108" x="159.25" y="162.1426">PendingApproval</text><g id="PendingApproval.Reviewed"><rect fill="#F1F1F1" height="52.7031" rx="12.5" ry="12.5" style="stroke:#181818;stroke-width:0.5;" width="81" x="100" y="182.2188"/><line style="stroke:#181818;stroke-width:0.5;" x1="100" x2="181" y1="209.8281" y2="209.8281"/><text fill="#000000" font-family="sans-serif" font-size="14" lengthAdjust="spacing" textLength="61" x="110" y="201.752">Reviewed</text><text fill="#000000" font-family="sans-serif" font-size="12" lengthAdjust="spacing" textLength="53" x="105" y="227.2852">By default</text></g><g id="PendingApproval.PendingReview"><rect fill="#F1F1F1" height="67.7969" rx="12.5" ry="12.5" style="stroke:#181818;stroke-width:0.5;" width="243" x="19" y="289.2188"/><line style="stroke:#181818;stroke-width:0.5;" x1="19" x2="262" y1="316.8281" y2="316.8281"/><text fill="#000000" font-family="sans-serif" font-size="14" lengthAdjust="spacing" textLength="97" x="92" y="308.752">PendingReview</text><text fill="#000000" font-family="sans-serif" font-size="12" lengthAdjust="spacing" textLength="146" x="24" y="334.2852">Flagged due to changes in</text><text fill="#000000" font-family="sans-serif" font-size="12" lengthAdjust="spacing" textLength="223" x="24" y="349.3789">linked Stakeholders/Docs/Requirements</text></g><!--reverse link Reviewed to PendingReview--><g id="link_Reviewed_PendingReview"><path d="M140.5,241.2488 C140.5,257.1988 140.5,271.8988 140.5,289.0988 " fill="none" id="Reviewed-backto-PendingReview" style="stroke:#181818;stroke-width:1.0;"/><polygon fill="#181818" points="140.5,235.2488,136.5,244.2488,140.5,240.2488,144.5,244.2488,140.5,235.2488" style="stroke:#181818;stroke-width:1.0;"/><text fill="#000000" font-family="sans-serif" font-size="13" lengthAdjust="spacing" textLength="268" x="141.5" y="267.7139">Review completed (modifying it or accepting it)</text></g><g id="Approved"><rect fill="#F1F1F1" height="50" rx="12.5" ry="12.5" style="stroke:#181818;stroke-width:0.5;" width="81" x="231" y="446.1094"/><line style="stroke:#181818;stroke-width:0.5;" x1="231" x2="312" y1="473.7188" y2="473.7188"/><text fill="#000000" font-family="sans-serif" font-size="14" lengthAdjust="spacing" textLength="61" x="241" y="465.6426">Approved</text></g><g id="Closed"><rect fill="#F1F1F1" height="52.7031" rx="12.5" ry="12.5" style="stroke:#181818;stroke-width:0.5;" width="147" x="409" y="444.6094"/><line style="stroke:#181818;stroke-width:0.5;" x1="409" x2="556" y1="472.2188" y2="472.2188"/><text fill="#000000" font-family="sans-serif" font-size="14" lengthAdjust="spacing" textLength="44" x="460.5" y="464.1426">Closed</text><text fill="#000000" font-family="sans-serif" font-size="12" lengthAdjust="spacing" textLength="127" x="414" y="489.6758">Finished, implemented</text></g><g id="Deactivated"><rect fill="#F1F1F1" height="52.7031" rx="12.5" ry="12.5" style="stroke:#181818;stroke-width:0.5;" width="111" x="85" y="444.6094"/><line style="stroke:#181818;stroke-width:0.5;" x1="85" x2="196" y1="472.2188" y2="472.2188"/><text fill="#000000" font-family="sans-serif" font-size="14" lengthAdjust="spacing" textLength="75" x="103" y="464.1426">Deactivated</text><text fill="#000000" font-family="sans-serif" font-size="12" lengthAdjust="spacing" textLength="91" x="90" y="489.6758">Read-only mode</text></g><g id="Removed"><rect fill="#F1F1F1" height="52.7031" rx="12.5" ry="12.5" style="stroke:#181818;stroke-width:0.5;" width="165" x="58" y="558.6094"/><line style="stroke:#181818;stroke-width:0.5;" x1="58" x2="223" y1="586.2188" y2="586.2188"/><text fill="#000000" font-family="sans-serif" font-size="14" lengthAdjust="spacing" textLength="60" x="110.5" y="578.1426">Removed</text><text fill="#000000" font-family="sans-serif" font-size="12" lengthAdjust="spacing" textLength="145" x="63" y="603.6758">Archived, hidden from view</text></g><ellipse cx="213.5" cy="54.6094" fill="#222222" rx="10" ry="10" style="stroke:#222222;stroke-width:1.0;"/><ellipse cx="140.5" cy="683.6094" fill="none" rx="11" ry="11" style="stroke:#222222;stroke-width:1.0;"/><ellipse cx="140.5" cy="683.6094" fill="#222222" rx="6" ry="6" style="stroke:#222222;stroke-width:1.0;"/><!--link *start* to PendingApproval--><g id="link_*start*_PendingApproval"><path d="M213.5,64.6294 C213.5,79.3094 213.5,103.9994 213.5,136.4494 " fill="none" id="*start*-to-PendingApproval" style="stroke:#181818;stroke-width:1.0;"/><polygon fill="#181818" points="213.5,142.4494,217.5,133.4494,213.5,137.4494,209.5,133.4494,213.5,142.4494" style="stroke:#181818;stroke-width:1.0;"/><text fill="#000000" font-family="sans-serif" font-size="13" lengthAdjust="spacing" textLength="196" x="214.5" y="109.1045">Requirement is created and saved</text></g><!--link PendingApproval to Approved--><g id="link_PendingApproval_Approved"><path d="M222.5,366.6394 C225.65,383.0194 229.86,399.4594 235.5,414.6094 C239.59,425.5894 242.7311,431.685 249.1311,440.995 " fill="none" id="PendingApproval-to-Approved" style="stroke:#181818;stroke-width:1.0;"/><polygon fill="#181818" points="252.53,445.9394,250.7278,436.2568,249.6975,441.819,244.1353,440.7887,252.53,445.9394" style="stroke:#181818;stroke-width:1.0;"/></g><!--reverse link PendingApproval to Approved--><g id="link_PendingApproval_Approved"><path d="M245.0859,372.4214 C253.1559,402.2714 259.56,425.9394 264.91,445.7494 " fill="none" id="PendingApproval-backto-Approved" style="stroke:#181818;stroke-width:1.0;"/><polygon fill="#181818" points="243.52,366.6294,242.0075,376.3614,244.8249,371.4561,249.7302,374.2735,243.52,366.6294" style="stroke:#181818;stroke-width:1.0;"/><text fill="#000000" font-family="sans-serif" font-size="13" lengthAdjust="spacing" textLength="48" x="257.5" y="411.1045">modified</text></g><!--link Approved to Closed--><g id="link_Approved_Closed"><path d="M312.18,471.1094 C339.49,471.1094 370.25,471.1094 402.63,471.1094 " fill="none" id="Approved-to-Closed" style="stroke:#181818;stroke-width:1.0;"/><polygon fill="#181818" points="408.63,471.1094,399.63,467.1094,403.63,471.1094,399.63,475.1094,408.63,471.1094" style="stroke:#181818;stroke-width:1.0;"/><text fill="#000000" font-family="sans-serif" font-size="13" lengthAdjust="spacing" textLength="60" x="330.5" y="464.6045">completed</text></g><!--reverse link PendingApproval to Closed--><g id="link_PendingApproval_Closed"><path d="M357.4207,370.3707 C394.0807,399.6107 425.59,424.7294 450.4,444.5094 " fill="none" id="PendingApproval-backto-Closed" style="stroke:#181818;stroke-width:1.0;"/><polygon fill="#181818" points="352.73,366.6294,357.2719,375.3685,356.6389,369.7471,362.2603,369.1142,352.73,366.6294" style="stroke:#181818;stroke-width:1.0;"/><text fill="#000000" font-family="sans-serif" font-size="13" lengthAdjust="spacing" textLength="48" x="411.5" y="411.1045">modified</text></g><!--link PendingApproval to Deactivated--><g id="link_PendingApproval_Deactivated"><path d="M162.97,366.6294 C153.13,395.8694 145.8949,418.8537 141.8049,438.6337 " fill="none" id="PendingApproval-to-Deactivated" style="stroke:#181818;stroke-width:1.0;"/><polygon fill="#181818" points="140.59,444.5094,146.3296,436.5058,141.6025,439.613,138.4953,434.8859,140.59,444.5094" style="stroke:#181818;stroke-width:1.0;"/></g><!--reverse link PendingApproval to Deactivated--><g id="link_PendingApproval_Deactivated"><path d="M187.2563,372.3024 C177.1863,401.5424 167.87,424.7294 158.34,444.5094 " fill="none" id="PendingApproval-backto-Deactivated" style="stroke:#181818;stroke-width:1.0;"/><polygon fill="#181818" points="189.21,366.6294,182.4974,373.8364,187.5819,371.3569,190.0614,376.4414,189.21,366.6294" style="stroke:#181818;stroke-width:1.0;"/></g><!--link Deactivated to Removed--><g id="link_Deactivated_Removed"><path d="M129.58,497.8094 C127.13,516.0194 126.3355,534.4036 128.7955,552.5836 " fill="none" id="Deactivated-to-Removed" style="stroke:#181818;stroke-width:1.0;"/><polygon fill="#181818" points="129.6,558.5294,132.3571,549.0743,128.9295,553.5745,124.4293,550.147,129.6,558.5294" style="stroke:#181818;stroke-width:1.0;"/></g><!--reverse link Deactivated to Removed--><g id="link_Deactivated_Removed"><path d="M152.9049,503.7496 C155.4949,521.9596 154.65,540.3494 152.04,558.5294 " fill="none" id="Deactivated-backto-Removed" style="stroke:#181818;stroke-width:1.0;"/><polygon fill="#181818" points="152.06,497.8094,149.3672,507.283,152.7641,502.7596,157.2875,506.1565,152.06,497.8094" style="stroke:#181818;stroke-width:1.0;"/></g><!--link Removed to *end*--><g id="link_Removed_*end*"><path d="M140.5,611.7194 C140.5,631.5894 140.5,652.0994 140.5,666.4094 " fill="none" id="Removed-to-*end*" style="stroke:#181818;stroke-width:1.0;"/><polygon fill="#181818" points="140.5,672.4094,144.5,663.4094,140.5,667.4094,136.5,663.4094,140.5,672.4094" style="stroke:#181818;stroke-width:1.0;"/></g><!--SRC=[XL5DJyCm3BtdL_Z6XgXstm5f0o4XSK256-8G9MvhBKrAadQgqFuxIPjrtOV4AOxztlEpxSahX3SgKFGYHAO03Zd-j6InHkrXyPfdMyEjN3BcFFS8xwWbwNBJDDPqNFqoWB6GOqUuHmbhsFOWiU2jybCrqKOGH1PSvDRmedXP1W7P8dW3ekAwH0UauIPSaTu5z8VdEwoCacZTwja8jveDu0Bpm0v7ywDhbEdxf8n36HgJ9bUXV02g6pKG0oQ1df4BJrq8usWvSfaPhNgeZSGZ9iSwogvXOqL5NLIgI4hKK5XJGpJC6Bk3Jykr8q56esDVzz-GIRFNsUFbLeT6fokG0s5nSC2r1CVZ2Eny7rdR19tP4L9Uc3XIf2w2OohwG07oO2nm8R3nutyvwKqUCajbvOFeSMl0fcZiTkrwQ47HtGbwb1ct7K2J9PPIcSB2_wDtvIvjRduUDl_SjCZE8KaZdO-bDr5dI7OgZPHmE_O7]--></g></svg>